%TF.GenerationSoftware,KiCad,Pcbnew,(5.1.5)-3*%
%TF.CreationDate,2020-04-29T23:34:31+02:00*%
%TF.ProjectId,KicadJE_SympleSeq,4b696361-644a-4455-9f53-796d706c6553,Rev A*%
%TF.SameCoordinates,Original*%
%TF.FileFunction,Paste,Bot*%
%TF.FilePolarity,Positive*%
%FSLAX46Y46*%
G04 Gerber Fmt 4.6, Leading zero omitted, Abs format (unit mm)*
G04 Created by KiCad (PCBNEW (5.1.5)-3) date 2020-04-29 23:34:31*
%MOMM*%
%LPD*%
G04 APERTURE LIST*
%ADD10C,1.000000*%
%ADD11C,0.150000*%
%ADD12R,1.700000X1.300000*%
%ADD13R,1.300000X1.700000*%
G04 APERTURE END LIST*
D10*
X105000000Y-96950000D02*
X105000000Y-97950000D01*
X175000000Y-96950000D02*
X175000000Y-97950000D01*
X105000000Y-96950000D02*
X175000000Y-96950000D01*
X175000000Y-97950000D02*
X105000000Y-97950000D01*
X180000000Y-50000000D02*
X100000000Y-50000000D01*
X180000000Y-150000000D02*
X180000000Y-50000000D01*
X100000000Y-150000000D02*
X180000000Y-150000000D01*
X100000000Y-50000000D02*
X100000000Y-150000000D01*
D11*
G36*
X178649504Y-103801204D02*
G01*
X178673773Y-103804804D01*
X178697571Y-103810765D01*
X178720671Y-103819030D01*
X178742849Y-103829520D01*
X178763893Y-103842133D01*
X178783598Y-103856747D01*
X178801777Y-103873223D01*
X178818253Y-103891402D01*
X178832867Y-103911107D01*
X178845480Y-103932151D01*
X178855970Y-103954329D01*
X178864235Y-103977429D01*
X178870196Y-104001227D01*
X178873796Y-104025496D01*
X178875000Y-104050000D01*
X178875000Y-104975000D01*
X178873796Y-104999504D01*
X178870196Y-105023773D01*
X178864235Y-105047571D01*
X178855970Y-105070671D01*
X178845480Y-105092849D01*
X178832867Y-105113893D01*
X178818253Y-105133598D01*
X178801777Y-105151777D01*
X178783598Y-105168253D01*
X178763893Y-105182867D01*
X178742849Y-105195480D01*
X178720671Y-105205970D01*
X178697571Y-105214235D01*
X178673773Y-105220196D01*
X178649504Y-105223796D01*
X178625000Y-105225000D01*
X177375000Y-105225000D01*
X177350496Y-105223796D01*
X177326227Y-105220196D01*
X177302429Y-105214235D01*
X177279329Y-105205970D01*
X177257151Y-105195480D01*
X177236107Y-105182867D01*
X177216402Y-105168253D01*
X177198223Y-105151777D01*
X177181747Y-105133598D01*
X177167133Y-105113893D01*
X177154520Y-105092849D01*
X177144030Y-105070671D01*
X177135765Y-105047571D01*
X177129804Y-105023773D01*
X177126204Y-104999504D01*
X177125000Y-104975000D01*
X177125000Y-104050000D01*
X177126204Y-104025496D01*
X177129804Y-104001227D01*
X177135765Y-103977429D01*
X177144030Y-103954329D01*
X177154520Y-103932151D01*
X177167133Y-103911107D01*
X177181747Y-103891402D01*
X177198223Y-103873223D01*
X177216402Y-103856747D01*
X177236107Y-103842133D01*
X177257151Y-103829520D01*
X177279329Y-103819030D01*
X177302429Y-103810765D01*
X177326227Y-103804804D01*
X177350496Y-103801204D01*
X177375000Y-103800000D01*
X178625000Y-103800000D01*
X178649504Y-103801204D01*
G37*
G36*
X178649504Y-106776204D02*
G01*
X178673773Y-106779804D01*
X178697571Y-106785765D01*
X178720671Y-106794030D01*
X178742849Y-106804520D01*
X178763893Y-106817133D01*
X178783598Y-106831747D01*
X178801777Y-106848223D01*
X178818253Y-106866402D01*
X178832867Y-106886107D01*
X178845480Y-106907151D01*
X178855970Y-106929329D01*
X178864235Y-106952429D01*
X178870196Y-106976227D01*
X178873796Y-107000496D01*
X178875000Y-107025000D01*
X178875000Y-107950000D01*
X178873796Y-107974504D01*
X178870196Y-107998773D01*
X178864235Y-108022571D01*
X178855970Y-108045671D01*
X178845480Y-108067849D01*
X178832867Y-108088893D01*
X178818253Y-108108598D01*
X178801777Y-108126777D01*
X178783598Y-108143253D01*
X178763893Y-108157867D01*
X178742849Y-108170480D01*
X178720671Y-108180970D01*
X178697571Y-108189235D01*
X178673773Y-108195196D01*
X178649504Y-108198796D01*
X178625000Y-108200000D01*
X177375000Y-108200000D01*
X177350496Y-108198796D01*
X177326227Y-108195196D01*
X177302429Y-108189235D01*
X177279329Y-108180970D01*
X177257151Y-108170480D01*
X177236107Y-108157867D01*
X177216402Y-108143253D01*
X177198223Y-108126777D01*
X177181747Y-108108598D01*
X177167133Y-108088893D01*
X177154520Y-108067849D01*
X177144030Y-108045671D01*
X177135765Y-108022571D01*
X177129804Y-107998773D01*
X177126204Y-107974504D01*
X177125000Y-107950000D01*
X177125000Y-107025000D01*
X177126204Y-107000496D01*
X177129804Y-106976227D01*
X177135765Y-106952429D01*
X177144030Y-106929329D01*
X177154520Y-106907151D01*
X177167133Y-106886107D01*
X177181747Y-106866402D01*
X177198223Y-106848223D01*
X177216402Y-106831747D01*
X177236107Y-106817133D01*
X177257151Y-106804520D01*
X177279329Y-106794030D01*
X177302429Y-106785765D01*
X177326227Y-106779804D01*
X177350496Y-106776204D01*
X177375000Y-106775000D01*
X178625000Y-106775000D01*
X178649504Y-106776204D01*
G37*
G36*
X178649504Y-111551204D02*
G01*
X178673773Y-111554804D01*
X178697571Y-111560765D01*
X178720671Y-111569030D01*
X178742849Y-111579520D01*
X178763893Y-111592133D01*
X178783598Y-111606747D01*
X178801777Y-111623223D01*
X178818253Y-111641402D01*
X178832867Y-111661107D01*
X178845480Y-111682151D01*
X178855970Y-111704329D01*
X178864235Y-111727429D01*
X178870196Y-111751227D01*
X178873796Y-111775496D01*
X178875000Y-111800000D01*
X178875000Y-112725000D01*
X178873796Y-112749504D01*
X178870196Y-112773773D01*
X178864235Y-112797571D01*
X178855970Y-112820671D01*
X178845480Y-112842849D01*
X178832867Y-112863893D01*
X178818253Y-112883598D01*
X178801777Y-112901777D01*
X178783598Y-112918253D01*
X178763893Y-112932867D01*
X178742849Y-112945480D01*
X178720671Y-112955970D01*
X178697571Y-112964235D01*
X178673773Y-112970196D01*
X178649504Y-112973796D01*
X178625000Y-112975000D01*
X177375000Y-112975000D01*
X177350496Y-112973796D01*
X177326227Y-112970196D01*
X177302429Y-112964235D01*
X177279329Y-112955970D01*
X177257151Y-112945480D01*
X177236107Y-112932867D01*
X177216402Y-112918253D01*
X177198223Y-112901777D01*
X177181747Y-112883598D01*
X177167133Y-112863893D01*
X177154520Y-112842849D01*
X177144030Y-112820671D01*
X177135765Y-112797571D01*
X177129804Y-112773773D01*
X177126204Y-112749504D01*
X177125000Y-112725000D01*
X177125000Y-111800000D01*
X177126204Y-111775496D01*
X177129804Y-111751227D01*
X177135765Y-111727429D01*
X177144030Y-111704329D01*
X177154520Y-111682151D01*
X177167133Y-111661107D01*
X177181747Y-111641402D01*
X177198223Y-111623223D01*
X177216402Y-111606747D01*
X177236107Y-111592133D01*
X177257151Y-111579520D01*
X177279329Y-111569030D01*
X177302429Y-111560765D01*
X177326227Y-111554804D01*
X177350496Y-111551204D01*
X177375000Y-111550000D01*
X178625000Y-111550000D01*
X178649504Y-111551204D01*
G37*
G36*
X178649504Y-114526204D02*
G01*
X178673773Y-114529804D01*
X178697571Y-114535765D01*
X178720671Y-114544030D01*
X178742849Y-114554520D01*
X178763893Y-114567133D01*
X178783598Y-114581747D01*
X178801777Y-114598223D01*
X178818253Y-114616402D01*
X178832867Y-114636107D01*
X178845480Y-114657151D01*
X178855970Y-114679329D01*
X178864235Y-114702429D01*
X178870196Y-114726227D01*
X178873796Y-114750496D01*
X178875000Y-114775000D01*
X178875000Y-115700000D01*
X178873796Y-115724504D01*
X178870196Y-115748773D01*
X178864235Y-115772571D01*
X178855970Y-115795671D01*
X178845480Y-115817849D01*
X178832867Y-115838893D01*
X178818253Y-115858598D01*
X178801777Y-115876777D01*
X178783598Y-115893253D01*
X178763893Y-115907867D01*
X178742849Y-115920480D01*
X178720671Y-115930970D01*
X178697571Y-115939235D01*
X178673773Y-115945196D01*
X178649504Y-115948796D01*
X178625000Y-115950000D01*
X177375000Y-115950000D01*
X177350496Y-115948796D01*
X177326227Y-115945196D01*
X177302429Y-115939235D01*
X177279329Y-115930970D01*
X177257151Y-115920480D01*
X177236107Y-115907867D01*
X177216402Y-115893253D01*
X177198223Y-115876777D01*
X177181747Y-115858598D01*
X177167133Y-115838893D01*
X177154520Y-115817849D01*
X177144030Y-115795671D01*
X177135765Y-115772571D01*
X177129804Y-115748773D01*
X177126204Y-115724504D01*
X177125000Y-115700000D01*
X177125000Y-114775000D01*
X177126204Y-114750496D01*
X177129804Y-114726227D01*
X177135765Y-114702429D01*
X177144030Y-114679329D01*
X177154520Y-114657151D01*
X177167133Y-114636107D01*
X177181747Y-114616402D01*
X177198223Y-114598223D01*
X177216402Y-114581747D01*
X177236107Y-114567133D01*
X177257151Y-114554520D01*
X177279329Y-114544030D01*
X177302429Y-114535765D01*
X177326227Y-114529804D01*
X177350496Y-114526204D01*
X177375000Y-114525000D01*
X178625000Y-114525000D01*
X178649504Y-114526204D01*
G37*
D12*
X113000000Y-62000000D03*
X113000000Y-58500000D03*
X133000000Y-58750000D03*
X133000000Y-62250000D03*
D13*
X112000000Y-70000000D03*
X108500000Y-70000000D03*
X128250000Y-70000000D03*
X131750000Y-70000000D03*
D12*
X153000000Y-58750000D03*
X153000000Y-62250000D03*
X173000000Y-62250000D03*
X173000000Y-58750000D03*
D13*
X148250000Y-70000000D03*
X151750000Y-70000000D03*
X171750000Y-70000000D03*
X168250000Y-70000000D03*
D12*
X168500000Y-104500000D03*
X168500000Y-108000000D03*
X168500000Y-115750000D03*
X168500000Y-112250000D03*
D11*
G36*
X175374505Y-100801204D02*
G01*
X175398773Y-100804804D01*
X175422572Y-100810765D01*
X175445671Y-100819030D01*
X175467850Y-100829520D01*
X175488893Y-100842132D01*
X175508599Y-100856747D01*
X175526777Y-100873223D01*
X175543253Y-100891401D01*
X175557868Y-100911107D01*
X175570480Y-100932150D01*
X175580970Y-100954329D01*
X175589235Y-100977428D01*
X175595196Y-101001227D01*
X175598796Y-101025495D01*
X175600000Y-101049999D01*
X175600000Y-101950001D01*
X175598796Y-101974505D01*
X175595196Y-101998773D01*
X175589235Y-102022572D01*
X175580970Y-102045671D01*
X175570480Y-102067850D01*
X175557868Y-102088893D01*
X175543253Y-102108599D01*
X175526777Y-102126777D01*
X175508599Y-102143253D01*
X175488893Y-102157868D01*
X175467850Y-102170480D01*
X175445671Y-102180970D01*
X175422572Y-102189235D01*
X175398773Y-102195196D01*
X175374505Y-102198796D01*
X175350001Y-102200000D01*
X174699999Y-102200000D01*
X174675495Y-102198796D01*
X174651227Y-102195196D01*
X174627428Y-102189235D01*
X174604329Y-102180970D01*
X174582150Y-102170480D01*
X174561107Y-102157868D01*
X174541401Y-102143253D01*
X174523223Y-102126777D01*
X174506747Y-102108599D01*
X174492132Y-102088893D01*
X174479520Y-102067850D01*
X174469030Y-102045671D01*
X174460765Y-102022572D01*
X174454804Y-101998773D01*
X174451204Y-101974505D01*
X174450000Y-101950001D01*
X174450000Y-101049999D01*
X174451204Y-101025495D01*
X174454804Y-101001227D01*
X174460765Y-100977428D01*
X174469030Y-100954329D01*
X174479520Y-100932150D01*
X174492132Y-100911107D01*
X174506747Y-100891401D01*
X174523223Y-100873223D01*
X174541401Y-100856747D01*
X174561107Y-100842132D01*
X174582150Y-100829520D01*
X174604329Y-100819030D01*
X174627428Y-100810765D01*
X174651227Y-100804804D01*
X174675495Y-100801204D01*
X174699999Y-100800000D01*
X175350001Y-100800000D01*
X175374505Y-100801204D01*
G37*
G36*
X173324505Y-100801204D02*
G01*
X173348773Y-100804804D01*
X173372572Y-100810765D01*
X173395671Y-100819030D01*
X173417850Y-100829520D01*
X173438893Y-100842132D01*
X173458599Y-100856747D01*
X173476777Y-100873223D01*
X173493253Y-100891401D01*
X173507868Y-100911107D01*
X173520480Y-100932150D01*
X173530970Y-100954329D01*
X173539235Y-100977428D01*
X173545196Y-101001227D01*
X173548796Y-101025495D01*
X173550000Y-101049999D01*
X173550000Y-101950001D01*
X173548796Y-101974505D01*
X173545196Y-101998773D01*
X173539235Y-102022572D01*
X173530970Y-102045671D01*
X173520480Y-102067850D01*
X173507868Y-102088893D01*
X173493253Y-102108599D01*
X173476777Y-102126777D01*
X173458599Y-102143253D01*
X173438893Y-102157868D01*
X173417850Y-102170480D01*
X173395671Y-102180970D01*
X173372572Y-102189235D01*
X173348773Y-102195196D01*
X173324505Y-102198796D01*
X173300001Y-102200000D01*
X172649999Y-102200000D01*
X172625495Y-102198796D01*
X172601227Y-102195196D01*
X172577428Y-102189235D01*
X172554329Y-102180970D01*
X172532150Y-102170480D01*
X172511107Y-102157868D01*
X172491401Y-102143253D01*
X172473223Y-102126777D01*
X172456747Y-102108599D01*
X172442132Y-102088893D01*
X172429520Y-102067850D01*
X172419030Y-102045671D01*
X172410765Y-102022572D01*
X172404804Y-101998773D01*
X172401204Y-101974505D01*
X172400000Y-101950001D01*
X172400000Y-101049999D01*
X172401204Y-101025495D01*
X172404804Y-101001227D01*
X172410765Y-100977428D01*
X172419030Y-100954329D01*
X172429520Y-100932150D01*
X172442132Y-100911107D01*
X172456747Y-100891401D01*
X172473223Y-100873223D01*
X172491401Y-100856747D01*
X172511107Y-100842132D01*
X172532150Y-100829520D01*
X172554329Y-100819030D01*
X172577428Y-100810765D01*
X172601227Y-100804804D01*
X172625495Y-100801204D01*
X172649999Y-100800000D01*
X173300001Y-100800000D01*
X173324505Y-100801204D01*
G37*
G36*
X173574505Y-118051204D02*
G01*
X173598773Y-118054804D01*
X173622572Y-118060765D01*
X173645671Y-118069030D01*
X173667850Y-118079520D01*
X173688893Y-118092132D01*
X173708599Y-118106747D01*
X173726777Y-118123223D01*
X173743253Y-118141401D01*
X173757868Y-118161107D01*
X173770480Y-118182150D01*
X173780970Y-118204329D01*
X173789235Y-118227428D01*
X173795196Y-118251227D01*
X173798796Y-118275495D01*
X173800000Y-118299999D01*
X173800000Y-119200001D01*
X173798796Y-119224505D01*
X173795196Y-119248773D01*
X173789235Y-119272572D01*
X173780970Y-119295671D01*
X173770480Y-119317850D01*
X173757868Y-119338893D01*
X173743253Y-119358599D01*
X173726777Y-119376777D01*
X173708599Y-119393253D01*
X173688893Y-119407868D01*
X173667850Y-119420480D01*
X173645671Y-119430970D01*
X173622572Y-119439235D01*
X173598773Y-119445196D01*
X173574505Y-119448796D01*
X173550001Y-119450000D01*
X172899999Y-119450000D01*
X172875495Y-119448796D01*
X172851227Y-119445196D01*
X172827428Y-119439235D01*
X172804329Y-119430970D01*
X172782150Y-119420480D01*
X172761107Y-119407868D01*
X172741401Y-119393253D01*
X172723223Y-119376777D01*
X172706747Y-119358599D01*
X172692132Y-119338893D01*
X172679520Y-119317850D01*
X172669030Y-119295671D01*
X172660765Y-119272572D01*
X172654804Y-119248773D01*
X172651204Y-119224505D01*
X172650000Y-119200001D01*
X172650000Y-118299999D01*
X172651204Y-118275495D01*
X172654804Y-118251227D01*
X172660765Y-118227428D01*
X172669030Y-118204329D01*
X172679520Y-118182150D01*
X172692132Y-118161107D01*
X172706747Y-118141401D01*
X172723223Y-118123223D01*
X172741401Y-118106747D01*
X172761107Y-118092132D01*
X172782150Y-118079520D01*
X172804329Y-118069030D01*
X172827428Y-118060765D01*
X172851227Y-118054804D01*
X172875495Y-118051204D01*
X172899999Y-118050000D01*
X173550001Y-118050000D01*
X173574505Y-118051204D01*
G37*
G36*
X175624505Y-118051204D02*
G01*
X175648773Y-118054804D01*
X175672572Y-118060765D01*
X175695671Y-118069030D01*
X175717850Y-118079520D01*
X175738893Y-118092132D01*
X175758599Y-118106747D01*
X175776777Y-118123223D01*
X175793253Y-118141401D01*
X175807868Y-118161107D01*
X175820480Y-118182150D01*
X175830970Y-118204329D01*
X175839235Y-118227428D01*
X175845196Y-118251227D01*
X175848796Y-118275495D01*
X175850000Y-118299999D01*
X175850000Y-119200001D01*
X175848796Y-119224505D01*
X175845196Y-119248773D01*
X175839235Y-119272572D01*
X175830970Y-119295671D01*
X175820480Y-119317850D01*
X175807868Y-119338893D01*
X175793253Y-119358599D01*
X175776777Y-119376777D01*
X175758599Y-119393253D01*
X175738893Y-119407868D01*
X175717850Y-119420480D01*
X175695671Y-119430970D01*
X175672572Y-119439235D01*
X175648773Y-119445196D01*
X175624505Y-119448796D01*
X175600001Y-119450000D01*
X174949999Y-119450000D01*
X174925495Y-119448796D01*
X174901227Y-119445196D01*
X174877428Y-119439235D01*
X174854329Y-119430970D01*
X174832150Y-119420480D01*
X174811107Y-119407868D01*
X174791401Y-119393253D01*
X174773223Y-119376777D01*
X174756747Y-119358599D01*
X174742132Y-119338893D01*
X174729520Y-119317850D01*
X174719030Y-119295671D01*
X174710765Y-119272572D01*
X174704804Y-119248773D01*
X174701204Y-119224505D01*
X174700000Y-119200001D01*
X174700000Y-118299999D01*
X174701204Y-118275495D01*
X174704804Y-118251227D01*
X174710765Y-118227428D01*
X174719030Y-118204329D01*
X174729520Y-118182150D01*
X174742132Y-118161107D01*
X174756747Y-118141401D01*
X174773223Y-118123223D01*
X174791401Y-118106747D01*
X174811107Y-118092132D01*
X174832150Y-118079520D01*
X174854329Y-118069030D01*
X174877428Y-118060765D01*
X174901227Y-118054804D01*
X174925495Y-118051204D01*
X174949999Y-118050000D01*
X175600001Y-118050000D01*
X175624505Y-118051204D01*
G37*
G36*
X108974505Y-60951204D02*
G01*
X108998773Y-60954804D01*
X109022572Y-60960765D01*
X109045671Y-60969030D01*
X109067850Y-60979520D01*
X109088893Y-60992132D01*
X109108599Y-61006747D01*
X109126777Y-61023223D01*
X109143253Y-61041401D01*
X109157868Y-61061107D01*
X109170480Y-61082150D01*
X109180970Y-61104329D01*
X109189235Y-61127428D01*
X109195196Y-61151227D01*
X109198796Y-61175495D01*
X109200000Y-61199999D01*
X109200000Y-61850001D01*
X109198796Y-61874505D01*
X109195196Y-61898773D01*
X109189235Y-61922572D01*
X109180970Y-61945671D01*
X109170480Y-61967850D01*
X109157868Y-61988893D01*
X109143253Y-62008599D01*
X109126777Y-62026777D01*
X109108599Y-62043253D01*
X109088893Y-62057868D01*
X109067850Y-62070480D01*
X109045671Y-62080970D01*
X109022572Y-62089235D01*
X108998773Y-62095196D01*
X108974505Y-62098796D01*
X108950001Y-62100000D01*
X108049999Y-62100000D01*
X108025495Y-62098796D01*
X108001227Y-62095196D01*
X107977428Y-62089235D01*
X107954329Y-62080970D01*
X107932150Y-62070480D01*
X107911107Y-62057868D01*
X107891401Y-62043253D01*
X107873223Y-62026777D01*
X107856747Y-62008599D01*
X107842132Y-61988893D01*
X107829520Y-61967850D01*
X107819030Y-61945671D01*
X107810765Y-61922572D01*
X107804804Y-61898773D01*
X107801204Y-61874505D01*
X107800000Y-61850001D01*
X107800000Y-61199999D01*
X107801204Y-61175495D01*
X107804804Y-61151227D01*
X107810765Y-61127428D01*
X107819030Y-61104329D01*
X107829520Y-61082150D01*
X107842132Y-61061107D01*
X107856747Y-61041401D01*
X107873223Y-61023223D01*
X107891401Y-61006747D01*
X107911107Y-60992132D01*
X107932150Y-60979520D01*
X107954329Y-60969030D01*
X107977428Y-60960765D01*
X108001227Y-60954804D01*
X108025495Y-60951204D01*
X108049999Y-60950000D01*
X108950001Y-60950000D01*
X108974505Y-60951204D01*
G37*
G36*
X108974505Y-58901204D02*
G01*
X108998773Y-58904804D01*
X109022572Y-58910765D01*
X109045671Y-58919030D01*
X109067850Y-58929520D01*
X109088893Y-58942132D01*
X109108599Y-58956747D01*
X109126777Y-58973223D01*
X109143253Y-58991401D01*
X109157868Y-59011107D01*
X109170480Y-59032150D01*
X109180970Y-59054329D01*
X109189235Y-59077428D01*
X109195196Y-59101227D01*
X109198796Y-59125495D01*
X109200000Y-59149999D01*
X109200000Y-59800001D01*
X109198796Y-59824505D01*
X109195196Y-59848773D01*
X109189235Y-59872572D01*
X109180970Y-59895671D01*
X109170480Y-59917850D01*
X109157868Y-59938893D01*
X109143253Y-59958599D01*
X109126777Y-59976777D01*
X109108599Y-59993253D01*
X109088893Y-60007868D01*
X109067850Y-60020480D01*
X109045671Y-60030970D01*
X109022572Y-60039235D01*
X108998773Y-60045196D01*
X108974505Y-60048796D01*
X108950001Y-60050000D01*
X108049999Y-60050000D01*
X108025495Y-60048796D01*
X108001227Y-60045196D01*
X107977428Y-60039235D01*
X107954329Y-60030970D01*
X107932150Y-60020480D01*
X107911107Y-60007868D01*
X107891401Y-59993253D01*
X107873223Y-59976777D01*
X107856747Y-59958599D01*
X107842132Y-59938893D01*
X107829520Y-59917850D01*
X107819030Y-59895671D01*
X107810765Y-59872572D01*
X107804804Y-59848773D01*
X107801204Y-59824505D01*
X107800000Y-59800001D01*
X107800000Y-59149999D01*
X107801204Y-59125495D01*
X107804804Y-59101227D01*
X107810765Y-59077428D01*
X107819030Y-59054329D01*
X107829520Y-59032150D01*
X107842132Y-59011107D01*
X107856747Y-58991401D01*
X107873223Y-58973223D01*
X107891401Y-58956747D01*
X107911107Y-58942132D01*
X107932150Y-58929520D01*
X107954329Y-58919030D01*
X107977428Y-58910765D01*
X108001227Y-58904804D01*
X108025495Y-58901204D01*
X108049999Y-58900000D01*
X108950001Y-58900000D01*
X108974505Y-58901204D01*
G37*
G36*
X128974505Y-60926204D02*
G01*
X128998773Y-60929804D01*
X129022572Y-60935765D01*
X129045671Y-60944030D01*
X129067850Y-60954520D01*
X129088893Y-60967132D01*
X129108599Y-60981747D01*
X129126777Y-60998223D01*
X129143253Y-61016401D01*
X129157868Y-61036107D01*
X129170480Y-61057150D01*
X129180970Y-61079329D01*
X129189235Y-61102428D01*
X129195196Y-61126227D01*
X129198796Y-61150495D01*
X129200000Y-61174999D01*
X129200000Y-61825001D01*
X129198796Y-61849505D01*
X129195196Y-61873773D01*
X129189235Y-61897572D01*
X129180970Y-61920671D01*
X129170480Y-61942850D01*
X129157868Y-61963893D01*
X129143253Y-61983599D01*
X129126777Y-62001777D01*
X129108599Y-62018253D01*
X129088893Y-62032868D01*
X129067850Y-62045480D01*
X129045671Y-62055970D01*
X129022572Y-62064235D01*
X128998773Y-62070196D01*
X128974505Y-62073796D01*
X128950001Y-62075000D01*
X128049999Y-62075000D01*
X128025495Y-62073796D01*
X128001227Y-62070196D01*
X127977428Y-62064235D01*
X127954329Y-62055970D01*
X127932150Y-62045480D01*
X127911107Y-62032868D01*
X127891401Y-62018253D01*
X127873223Y-62001777D01*
X127856747Y-61983599D01*
X127842132Y-61963893D01*
X127829520Y-61942850D01*
X127819030Y-61920671D01*
X127810765Y-61897572D01*
X127804804Y-61873773D01*
X127801204Y-61849505D01*
X127800000Y-61825001D01*
X127800000Y-61174999D01*
X127801204Y-61150495D01*
X127804804Y-61126227D01*
X127810765Y-61102428D01*
X127819030Y-61079329D01*
X127829520Y-61057150D01*
X127842132Y-61036107D01*
X127856747Y-61016401D01*
X127873223Y-60998223D01*
X127891401Y-60981747D01*
X127911107Y-60967132D01*
X127932150Y-60954520D01*
X127954329Y-60944030D01*
X127977428Y-60935765D01*
X128001227Y-60929804D01*
X128025495Y-60926204D01*
X128049999Y-60925000D01*
X128950001Y-60925000D01*
X128974505Y-60926204D01*
G37*
G36*
X128974505Y-58876204D02*
G01*
X128998773Y-58879804D01*
X129022572Y-58885765D01*
X129045671Y-58894030D01*
X129067850Y-58904520D01*
X129088893Y-58917132D01*
X129108599Y-58931747D01*
X129126777Y-58948223D01*
X129143253Y-58966401D01*
X129157868Y-58986107D01*
X129170480Y-59007150D01*
X129180970Y-59029329D01*
X129189235Y-59052428D01*
X129195196Y-59076227D01*
X129198796Y-59100495D01*
X129200000Y-59124999D01*
X129200000Y-59775001D01*
X129198796Y-59799505D01*
X129195196Y-59823773D01*
X129189235Y-59847572D01*
X129180970Y-59870671D01*
X129170480Y-59892850D01*
X129157868Y-59913893D01*
X129143253Y-59933599D01*
X129126777Y-59951777D01*
X129108599Y-59968253D01*
X129088893Y-59982868D01*
X129067850Y-59995480D01*
X129045671Y-60005970D01*
X129022572Y-60014235D01*
X128998773Y-60020196D01*
X128974505Y-60023796D01*
X128950001Y-60025000D01*
X128049999Y-60025000D01*
X128025495Y-60023796D01*
X128001227Y-60020196D01*
X127977428Y-60014235D01*
X127954329Y-60005970D01*
X127932150Y-59995480D01*
X127911107Y-59982868D01*
X127891401Y-59968253D01*
X127873223Y-59951777D01*
X127856747Y-59933599D01*
X127842132Y-59913893D01*
X127829520Y-59892850D01*
X127819030Y-59870671D01*
X127810765Y-59847572D01*
X127804804Y-59823773D01*
X127801204Y-59799505D01*
X127800000Y-59775001D01*
X127800000Y-59124999D01*
X127801204Y-59100495D01*
X127804804Y-59076227D01*
X127810765Y-59052428D01*
X127819030Y-59029329D01*
X127829520Y-59007150D01*
X127842132Y-58986107D01*
X127856747Y-58966401D01*
X127873223Y-58948223D01*
X127891401Y-58931747D01*
X127911107Y-58917132D01*
X127932150Y-58904520D01*
X127954329Y-58894030D01*
X127977428Y-58885765D01*
X128001227Y-58879804D01*
X128025495Y-58876204D01*
X128049999Y-58875000D01*
X128950001Y-58875000D01*
X128974505Y-58876204D01*
G37*
G36*
X148974505Y-58901204D02*
G01*
X148998773Y-58904804D01*
X149022572Y-58910765D01*
X149045671Y-58919030D01*
X149067850Y-58929520D01*
X149088893Y-58942132D01*
X149108599Y-58956747D01*
X149126777Y-58973223D01*
X149143253Y-58991401D01*
X149157868Y-59011107D01*
X149170480Y-59032150D01*
X149180970Y-59054329D01*
X149189235Y-59077428D01*
X149195196Y-59101227D01*
X149198796Y-59125495D01*
X149200000Y-59149999D01*
X149200000Y-59800001D01*
X149198796Y-59824505D01*
X149195196Y-59848773D01*
X149189235Y-59872572D01*
X149180970Y-59895671D01*
X149170480Y-59917850D01*
X149157868Y-59938893D01*
X149143253Y-59958599D01*
X149126777Y-59976777D01*
X149108599Y-59993253D01*
X149088893Y-60007868D01*
X149067850Y-60020480D01*
X149045671Y-60030970D01*
X149022572Y-60039235D01*
X148998773Y-60045196D01*
X148974505Y-60048796D01*
X148950001Y-60050000D01*
X148049999Y-60050000D01*
X148025495Y-60048796D01*
X148001227Y-60045196D01*
X147977428Y-60039235D01*
X147954329Y-60030970D01*
X147932150Y-60020480D01*
X147911107Y-60007868D01*
X147891401Y-59993253D01*
X147873223Y-59976777D01*
X147856747Y-59958599D01*
X147842132Y-59938893D01*
X147829520Y-59917850D01*
X147819030Y-59895671D01*
X147810765Y-59872572D01*
X147804804Y-59848773D01*
X147801204Y-59824505D01*
X147800000Y-59800001D01*
X147800000Y-59149999D01*
X147801204Y-59125495D01*
X147804804Y-59101227D01*
X147810765Y-59077428D01*
X147819030Y-59054329D01*
X147829520Y-59032150D01*
X147842132Y-59011107D01*
X147856747Y-58991401D01*
X147873223Y-58973223D01*
X147891401Y-58956747D01*
X147911107Y-58942132D01*
X147932150Y-58929520D01*
X147954329Y-58919030D01*
X147977428Y-58910765D01*
X148001227Y-58904804D01*
X148025495Y-58901204D01*
X148049999Y-58900000D01*
X148950001Y-58900000D01*
X148974505Y-58901204D01*
G37*
G36*
X148974505Y-60951204D02*
G01*
X148998773Y-60954804D01*
X149022572Y-60960765D01*
X149045671Y-60969030D01*
X149067850Y-60979520D01*
X149088893Y-60992132D01*
X149108599Y-61006747D01*
X149126777Y-61023223D01*
X149143253Y-61041401D01*
X149157868Y-61061107D01*
X149170480Y-61082150D01*
X149180970Y-61104329D01*
X149189235Y-61127428D01*
X149195196Y-61151227D01*
X149198796Y-61175495D01*
X149200000Y-61199999D01*
X149200000Y-61850001D01*
X149198796Y-61874505D01*
X149195196Y-61898773D01*
X149189235Y-61922572D01*
X149180970Y-61945671D01*
X149170480Y-61967850D01*
X149157868Y-61988893D01*
X149143253Y-62008599D01*
X149126777Y-62026777D01*
X149108599Y-62043253D01*
X149088893Y-62057868D01*
X149067850Y-62070480D01*
X149045671Y-62080970D01*
X149022572Y-62089235D01*
X148998773Y-62095196D01*
X148974505Y-62098796D01*
X148950001Y-62100000D01*
X148049999Y-62100000D01*
X148025495Y-62098796D01*
X148001227Y-62095196D01*
X147977428Y-62089235D01*
X147954329Y-62080970D01*
X147932150Y-62070480D01*
X147911107Y-62057868D01*
X147891401Y-62043253D01*
X147873223Y-62026777D01*
X147856747Y-62008599D01*
X147842132Y-61988893D01*
X147829520Y-61967850D01*
X147819030Y-61945671D01*
X147810765Y-61922572D01*
X147804804Y-61898773D01*
X147801204Y-61874505D01*
X147800000Y-61850001D01*
X147800000Y-61199999D01*
X147801204Y-61175495D01*
X147804804Y-61151227D01*
X147810765Y-61127428D01*
X147819030Y-61104329D01*
X147829520Y-61082150D01*
X147842132Y-61061107D01*
X147856747Y-61041401D01*
X147873223Y-61023223D01*
X147891401Y-61006747D01*
X147911107Y-60992132D01*
X147932150Y-60979520D01*
X147954329Y-60969030D01*
X147977428Y-60960765D01*
X148001227Y-60954804D01*
X148025495Y-60951204D01*
X148049999Y-60950000D01*
X148950001Y-60950000D01*
X148974505Y-60951204D01*
G37*
G36*
X168974505Y-60951204D02*
G01*
X168998773Y-60954804D01*
X169022572Y-60960765D01*
X169045671Y-60969030D01*
X169067850Y-60979520D01*
X169088893Y-60992132D01*
X169108599Y-61006747D01*
X169126777Y-61023223D01*
X169143253Y-61041401D01*
X169157868Y-61061107D01*
X169170480Y-61082150D01*
X169180970Y-61104329D01*
X169189235Y-61127428D01*
X169195196Y-61151227D01*
X169198796Y-61175495D01*
X169200000Y-61199999D01*
X169200000Y-61850001D01*
X169198796Y-61874505D01*
X169195196Y-61898773D01*
X169189235Y-61922572D01*
X169180970Y-61945671D01*
X169170480Y-61967850D01*
X169157868Y-61988893D01*
X169143253Y-62008599D01*
X169126777Y-62026777D01*
X169108599Y-62043253D01*
X169088893Y-62057868D01*
X169067850Y-62070480D01*
X169045671Y-62080970D01*
X169022572Y-62089235D01*
X168998773Y-62095196D01*
X168974505Y-62098796D01*
X168950001Y-62100000D01*
X168049999Y-62100000D01*
X168025495Y-62098796D01*
X168001227Y-62095196D01*
X167977428Y-62089235D01*
X167954329Y-62080970D01*
X167932150Y-62070480D01*
X167911107Y-62057868D01*
X167891401Y-62043253D01*
X167873223Y-62026777D01*
X167856747Y-62008599D01*
X167842132Y-61988893D01*
X167829520Y-61967850D01*
X167819030Y-61945671D01*
X167810765Y-61922572D01*
X167804804Y-61898773D01*
X167801204Y-61874505D01*
X167800000Y-61850001D01*
X167800000Y-61199999D01*
X167801204Y-61175495D01*
X167804804Y-61151227D01*
X167810765Y-61127428D01*
X167819030Y-61104329D01*
X167829520Y-61082150D01*
X167842132Y-61061107D01*
X167856747Y-61041401D01*
X167873223Y-61023223D01*
X167891401Y-61006747D01*
X167911107Y-60992132D01*
X167932150Y-60979520D01*
X167954329Y-60969030D01*
X167977428Y-60960765D01*
X168001227Y-60954804D01*
X168025495Y-60951204D01*
X168049999Y-60950000D01*
X168950001Y-60950000D01*
X168974505Y-60951204D01*
G37*
G36*
X168974505Y-58901204D02*
G01*
X168998773Y-58904804D01*
X169022572Y-58910765D01*
X169045671Y-58919030D01*
X169067850Y-58929520D01*
X169088893Y-58942132D01*
X169108599Y-58956747D01*
X169126777Y-58973223D01*
X169143253Y-58991401D01*
X169157868Y-59011107D01*
X169170480Y-59032150D01*
X169180970Y-59054329D01*
X169189235Y-59077428D01*
X169195196Y-59101227D01*
X169198796Y-59125495D01*
X169200000Y-59149999D01*
X169200000Y-59800001D01*
X169198796Y-59824505D01*
X169195196Y-59848773D01*
X169189235Y-59872572D01*
X169180970Y-59895671D01*
X169170480Y-59917850D01*
X169157868Y-59938893D01*
X169143253Y-59958599D01*
X169126777Y-59976777D01*
X169108599Y-59993253D01*
X169088893Y-60007868D01*
X169067850Y-60020480D01*
X169045671Y-60030970D01*
X169022572Y-60039235D01*
X168998773Y-60045196D01*
X168974505Y-60048796D01*
X168950001Y-60050000D01*
X168049999Y-60050000D01*
X168025495Y-60048796D01*
X168001227Y-60045196D01*
X167977428Y-60039235D01*
X167954329Y-60030970D01*
X167932150Y-60020480D01*
X167911107Y-60007868D01*
X167891401Y-59993253D01*
X167873223Y-59976777D01*
X167856747Y-59958599D01*
X167842132Y-59938893D01*
X167829520Y-59917850D01*
X167819030Y-59895671D01*
X167810765Y-59872572D01*
X167804804Y-59848773D01*
X167801204Y-59824505D01*
X167800000Y-59800001D01*
X167800000Y-59149999D01*
X167801204Y-59125495D01*
X167804804Y-59101227D01*
X167810765Y-59077428D01*
X167819030Y-59054329D01*
X167829520Y-59032150D01*
X167842132Y-59011107D01*
X167856747Y-58991401D01*
X167873223Y-58973223D01*
X167891401Y-58956747D01*
X167911107Y-58942132D01*
X167932150Y-58929520D01*
X167954329Y-58919030D01*
X167977428Y-58910765D01*
X168001227Y-58904804D01*
X168025495Y-58901204D01*
X168049999Y-58900000D01*
X168950001Y-58900000D01*
X168974505Y-58901204D01*
G37*
M02*
