%TF.GenerationSoftware,KiCad,Pcbnew,(5.1.5)-3*%
%TF.CreationDate,2020-04-29T23:45:49+02:00*%
%TF.ProjectId,KicadJE_SympleSeq,4b696361-644a-4455-9f53-796d706c6553,Rev A*%
%TF.SameCoordinates,Original*%
%TF.FileFunction,Soldermask,Top*%
%TF.FilePolarity,Negative*%
%FSLAX46Y46*%
G04 Gerber Fmt 4.6, Leading zero omitted, Abs format (unit mm)*
G04 Created by KiCad (PCBNEW (5.1.5)-3) date 2020-04-29 23:45:49*
%MOMM*%
%LPD*%
G04 APERTURE LIST*
%ADD10C,1.000000*%
%ADD11C,0.150000*%
G04 APERTURE END LIST*
D10*
X105000000Y-96950000D02*
X105000000Y-97950000D01*
X175000000Y-96950000D02*
X175000000Y-97950000D01*
X105000000Y-96950000D02*
X175000000Y-96950000D01*
X175000000Y-97950000D02*
X105000000Y-97950000D01*
X180000000Y-50000000D02*
X100000000Y-50000000D01*
X180000000Y-150000000D02*
X180000000Y-50000000D01*
X100000000Y-150000000D02*
X180000000Y-150000000D01*
X100000000Y-50000000D02*
X100000000Y-150000000D01*
D11*
G36*
X171054845Y-146618810D02*
G01*
X171299896Y-146693145D01*
X171525736Y-146813860D01*
X171723687Y-146976313D01*
X171886140Y-147174264D01*
X172006855Y-147400104D01*
X172081190Y-147645155D01*
X172106290Y-147900000D01*
X172081190Y-148154845D01*
X172006855Y-148399896D01*
X171886140Y-148625736D01*
X171723687Y-148823687D01*
X171525736Y-148986140D01*
X171299896Y-149106855D01*
X171054845Y-149181190D01*
X170863864Y-149200000D01*
X168936136Y-149200000D01*
X168745155Y-149181190D01*
X168500104Y-149106855D01*
X168274264Y-148986140D01*
X168076313Y-148823687D01*
X167913860Y-148625736D01*
X167793145Y-148399896D01*
X167718810Y-148154845D01*
X167693710Y-147900000D01*
X167718810Y-147645155D01*
X167793145Y-147400104D01*
X167913860Y-147174264D01*
X168076313Y-146976313D01*
X168274264Y-146813860D01*
X168500104Y-146693145D01*
X168745155Y-146618810D01*
X168936136Y-146600000D01*
X170863864Y-146600000D01*
X171054845Y-146618810D01*
G37*
G36*
X151054845Y-146618810D02*
G01*
X151299896Y-146693145D01*
X151525736Y-146813860D01*
X151723687Y-146976313D01*
X151886140Y-147174264D01*
X152006855Y-147400104D01*
X152081190Y-147645155D01*
X152106290Y-147900000D01*
X152081190Y-148154845D01*
X152006855Y-148399896D01*
X151886140Y-148625736D01*
X151723687Y-148823687D01*
X151525736Y-148986140D01*
X151299896Y-149106855D01*
X151054845Y-149181190D01*
X150863864Y-149200000D01*
X148936136Y-149200000D01*
X148745155Y-149181190D01*
X148500104Y-149106855D01*
X148274264Y-148986140D01*
X148076313Y-148823687D01*
X147913860Y-148625736D01*
X147793145Y-148399896D01*
X147718810Y-148154845D01*
X147693710Y-147900000D01*
X147718810Y-147645155D01*
X147793145Y-147400104D01*
X147913860Y-147174264D01*
X148076313Y-146976313D01*
X148274264Y-146813860D01*
X148500104Y-146693145D01*
X148745155Y-146618810D01*
X148936136Y-146600000D01*
X150863864Y-146600000D01*
X151054845Y-146618810D01*
G37*
G36*
X131054845Y-146618810D02*
G01*
X131299896Y-146693145D01*
X131525736Y-146813860D01*
X131723687Y-146976313D01*
X131886140Y-147174264D01*
X132006855Y-147400104D01*
X132081190Y-147645155D01*
X132106290Y-147900000D01*
X132081190Y-148154845D01*
X132006855Y-148399896D01*
X131886140Y-148625736D01*
X131723687Y-148823687D01*
X131525736Y-148986140D01*
X131299896Y-149106855D01*
X131054845Y-149181190D01*
X130863864Y-149200000D01*
X128936136Y-149200000D01*
X128745155Y-149181190D01*
X128500104Y-149106855D01*
X128274264Y-148986140D01*
X128076313Y-148823687D01*
X127913860Y-148625736D01*
X127793145Y-148399896D01*
X127718810Y-148154845D01*
X127693710Y-147900000D01*
X127718810Y-147645155D01*
X127793145Y-147400104D01*
X127913860Y-147174264D01*
X128076313Y-146976313D01*
X128274264Y-146813860D01*
X128500104Y-146693145D01*
X128745155Y-146618810D01*
X128936136Y-146600000D01*
X130863864Y-146600000D01*
X131054845Y-146618810D01*
G37*
G36*
X111054845Y-146618810D02*
G01*
X111299896Y-146693145D01*
X111525736Y-146813860D01*
X111723687Y-146976313D01*
X111886140Y-147174264D01*
X112006855Y-147400104D01*
X112081190Y-147645155D01*
X112106290Y-147900000D01*
X112081190Y-148154845D01*
X112006855Y-148399896D01*
X111886140Y-148625736D01*
X111723687Y-148823687D01*
X111525736Y-148986140D01*
X111299896Y-149106855D01*
X111054845Y-149181190D01*
X110863864Y-149200000D01*
X108936136Y-149200000D01*
X108745155Y-149181190D01*
X108500104Y-149106855D01*
X108274264Y-148986140D01*
X108076313Y-148823687D01*
X107913860Y-148625736D01*
X107793145Y-148399896D01*
X107718810Y-148154845D01*
X107693710Y-147900000D01*
X107718810Y-147645155D01*
X107793145Y-147400104D01*
X107913860Y-147174264D01*
X108076313Y-146976313D01*
X108274264Y-146813860D01*
X108500104Y-146693145D01*
X108745155Y-146618810D01*
X108936136Y-146600000D01*
X110863864Y-146600000D01*
X111054845Y-146618810D01*
G37*
G36*
X115800000Y-146200000D02*
G01*
X113200000Y-146200000D01*
X113200000Y-141800000D01*
X115800000Y-141800000D01*
X115800000Y-146200000D01*
G37*
G36*
X175800000Y-146200000D02*
G01*
X173200000Y-146200000D01*
X173200000Y-141800000D01*
X175800000Y-141800000D01*
X175800000Y-146200000D01*
G37*
G36*
X135800000Y-146200000D02*
G01*
X133200000Y-146200000D01*
X133200000Y-141800000D01*
X135800000Y-141800000D01*
X135800000Y-146200000D01*
G37*
G36*
X155800000Y-146200000D02*
G01*
X153200000Y-146200000D01*
X153200000Y-141800000D01*
X155800000Y-141800000D01*
X155800000Y-146200000D01*
G37*
G36*
X104954844Y-137718810D02*
G01*
X105199895Y-137793145D01*
X105425735Y-137913860D01*
X105623687Y-138076313D01*
X105786140Y-138274264D01*
X105906855Y-138500104D01*
X105981190Y-138745155D01*
X106000000Y-138936136D01*
X106000000Y-139562432D01*
X106002402Y-139586818D01*
X106009515Y-139610267D01*
X106021066Y-139631878D01*
X106036611Y-139650820D01*
X106055553Y-139666365D01*
X106077164Y-139677916D01*
X106100613Y-139685029D01*
X106124999Y-139687431D01*
X106149385Y-139685029D01*
X106172834Y-139677916D01*
X106194445Y-139666365D01*
X106213387Y-139650820D01*
X106235238Y-139621356D01*
X106258185Y-139578426D01*
X106313860Y-139474265D01*
X106476313Y-139276313D01*
X106674264Y-139113860D01*
X106900104Y-138993145D01*
X107145155Y-138918810D01*
X107400000Y-138893710D01*
X107654844Y-138918810D01*
X107899895Y-138993145D01*
X108125735Y-139113860D01*
X108323687Y-139276313D01*
X108486140Y-139474264D01*
X108606855Y-139700104D01*
X108681190Y-139945155D01*
X108700000Y-140136136D01*
X108700000Y-142063864D01*
X108681190Y-142254845D01*
X108606855Y-142499896D01*
X108486140Y-142725736D01*
X108323687Y-142923687D01*
X108125736Y-143086140D01*
X107899896Y-143206855D01*
X107654845Y-143281190D01*
X107400000Y-143306290D01*
X107145156Y-143281190D01*
X106900105Y-143206855D01*
X106674265Y-143086140D01*
X106476314Y-142923687D01*
X106313861Y-142725736D01*
X106193146Y-142499896D01*
X106118811Y-142254845D01*
X106100000Y-142063864D01*
X106100000Y-141437569D01*
X106097598Y-141413183D01*
X106090485Y-141389734D01*
X106078934Y-141368123D01*
X106063389Y-141349181D01*
X106044447Y-141333636D01*
X106022836Y-141322085D01*
X105999387Y-141314972D01*
X105975001Y-141312570D01*
X105950615Y-141314972D01*
X105927166Y-141322085D01*
X105905555Y-141333636D01*
X105886613Y-141349181D01*
X105864764Y-141378643D01*
X105786140Y-141525736D01*
X105623687Y-141723687D01*
X105425736Y-141886140D01*
X105199896Y-142006855D01*
X104954845Y-142081190D01*
X104700000Y-142106290D01*
X104445156Y-142081190D01*
X104200105Y-142006855D01*
X103974265Y-141886140D01*
X103776314Y-141723687D01*
X103613861Y-141525736D01*
X103493146Y-141299896D01*
X103418811Y-141054845D01*
X103400000Y-140863864D01*
X103400000Y-138936137D01*
X103418810Y-138745156D01*
X103493145Y-138500105D01*
X103613860Y-138274265D01*
X103776313Y-138076313D01*
X103974264Y-137913860D01*
X104200104Y-137793145D01*
X104445155Y-137718810D01*
X104700000Y-137693710D01*
X104954844Y-137718810D01*
G37*
G36*
X164954844Y-137718810D02*
G01*
X165199895Y-137793145D01*
X165425735Y-137913860D01*
X165623687Y-138076313D01*
X165786140Y-138274264D01*
X165906855Y-138500104D01*
X165981190Y-138745155D01*
X166000000Y-138936136D01*
X166000000Y-139562432D01*
X166002402Y-139586818D01*
X166009515Y-139610267D01*
X166021066Y-139631878D01*
X166036611Y-139650820D01*
X166055553Y-139666365D01*
X166077164Y-139677916D01*
X166100613Y-139685029D01*
X166124999Y-139687431D01*
X166149385Y-139685029D01*
X166172834Y-139677916D01*
X166194445Y-139666365D01*
X166213387Y-139650820D01*
X166235238Y-139621356D01*
X166258185Y-139578426D01*
X166313860Y-139474265D01*
X166476313Y-139276313D01*
X166674264Y-139113860D01*
X166900104Y-138993145D01*
X167145155Y-138918810D01*
X167400000Y-138893710D01*
X167654844Y-138918810D01*
X167899895Y-138993145D01*
X168125735Y-139113860D01*
X168323687Y-139276313D01*
X168486140Y-139474264D01*
X168606855Y-139700104D01*
X168681190Y-139945155D01*
X168700000Y-140136136D01*
X168700000Y-142063864D01*
X168681190Y-142254845D01*
X168606855Y-142499896D01*
X168486140Y-142725736D01*
X168323687Y-142923687D01*
X168125736Y-143086140D01*
X167899896Y-143206855D01*
X167654845Y-143281190D01*
X167400000Y-143306290D01*
X167145156Y-143281190D01*
X166900105Y-143206855D01*
X166674265Y-143086140D01*
X166476314Y-142923687D01*
X166313861Y-142725736D01*
X166193146Y-142499896D01*
X166118811Y-142254845D01*
X166100000Y-142063864D01*
X166100000Y-141437569D01*
X166097598Y-141413183D01*
X166090485Y-141389734D01*
X166078934Y-141368123D01*
X166063389Y-141349181D01*
X166044447Y-141333636D01*
X166022836Y-141322085D01*
X165999387Y-141314972D01*
X165975001Y-141312570D01*
X165950615Y-141314972D01*
X165927166Y-141322085D01*
X165905555Y-141333636D01*
X165886613Y-141349181D01*
X165864764Y-141378643D01*
X165786140Y-141525736D01*
X165623687Y-141723687D01*
X165425736Y-141886140D01*
X165199896Y-142006855D01*
X164954845Y-142081190D01*
X164700000Y-142106290D01*
X164445156Y-142081190D01*
X164200105Y-142006855D01*
X163974265Y-141886140D01*
X163776314Y-141723687D01*
X163613861Y-141525736D01*
X163493146Y-141299896D01*
X163418811Y-141054845D01*
X163400000Y-140863864D01*
X163400000Y-138936137D01*
X163418810Y-138745156D01*
X163493145Y-138500105D01*
X163613860Y-138274265D01*
X163776313Y-138076313D01*
X163974264Y-137913860D01*
X164200104Y-137793145D01*
X164445155Y-137718810D01*
X164700000Y-137693710D01*
X164954844Y-137718810D01*
G37*
G36*
X124954844Y-137718810D02*
G01*
X125199895Y-137793145D01*
X125425735Y-137913860D01*
X125623687Y-138076313D01*
X125786140Y-138274264D01*
X125906855Y-138500104D01*
X125981190Y-138745155D01*
X126000000Y-138936136D01*
X126000000Y-139562432D01*
X126002402Y-139586818D01*
X126009515Y-139610267D01*
X126021066Y-139631878D01*
X126036611Y-139650820D01*
X126055553Y-139666365D01*
X126077164Y-139677916D01*
X126100613Y-139685029D01*
X126124999Y-139687431D01*
X126149385Y-139685029D01*
X126172834Y-139677916D01*
X126194445Y-139666365D01*
X126213387Y-139650820D01*
X126235238Y-139621356D01*
X126258185Y-139578426D01*
X126313860Y-139474265D01*
X126476313Y-139276313D01*
X126674264Y-139113860D01*
X126900104Y-138993145D01*
X127145155Y-138918810D01*
X127400000Y-138893710D01*
X127654844Y-138918810D01*
X127899895Y-138993145D01*
X128125735Y-139113860D01*
X128323687Y-139276313D01*
X128486140Y-139474264D01*
X128606855Y-139700104D01*
X128681190Y-139945155D01*
X128700000Y-140136136D01*
X128700000Y-142063864D01*
X128681190Y-142254845D01*
X128606855Y-142499896D01*
X128486140Y-142725736D01*
X128323687Y-142923687D01*
X128125736Y-143086140D01*
X127899896Y-143206855D01*
X127654845Y-143281190D01*
X127400000Y-143306290D01*
X127145156Y-143281190D01*
X126900105Y-143206855D01*
X126674265Y-143086140D01*
X126476314Y-142923687D01*
X126313861Y-142725736D01*
X126193146Y-142499896D01*
X126118811Y-142254845D01*
X126100000Y-142063864D01*
X126100000Y-141437569D01*
X126097598Y-141413183D01*
X126090485Y-141389734D01*
X126078934Y-141368123D01*
X126063389Y-141349181D01*
X126044447Y-141333636D01*
X126022836Y-141322085D01*
X125999387Y-141314972D01*
X125975001Y-141312570D01*
X125950615Y-141314972D01*
X125927166Y-141322085D01*
X125905555Y-141333636D01*
X125886613Y-141349181D01*
X125864764Y-141378643D01*
X125786140Y-141525736D01*
X125623687Y-141723687D01*
X125425736Y-141886140D01*
X125199896Y-142006855D01*
X124954845Y-142081190D01*
X124700000Y-142106290D01*
X124445156Y-142081190D01*
X124200105Y-142006855D01*
X123974265Y-141886140D01*
X123776314Y-141723687D01*
X123613861Y-141525736D01*
X123493146Y-141299896D01*
X123418811Y-141054845D01*
X123400000Y-140863864D01*
X123400000Y-138936137D01*
X123418810Y-138745156D01*
X123493145Y-138500105D01*
X123613860Y-138274265D01*
X123776313Y-138076313D01*
X123974264Y-137913860D01*
X124200104Y-137793145D01*
X124445155Y-137718810D01*
X124700000Y-137693710D01*
X124954844Y-137718810D01*
G37*
G36*
X144954844Y-137718810D02*
G01*
X145199895Y-137793145D01*
X145425735Y-137913860D01*
X145623687Y-138076313D01*
X145786140Y-138274264D01*
X145906855Y-138500104D01*
X145981190Y-138745155D01*
X146000000Y-138936136D01*
X146000000Y-139562432D01*
X146002402Y-139586818D01*
X146009515Y-139610267D01*
X146021066Y-139631878D01*
X146036611Y-139650820D01*
X146055553Y-139666365D01*
X146077164Y-139677916D01*
X146100613Y-139685029D01*
X146124999Y-139687431D01*
X146149385Y-139685029D01*
X146172834Y-139677916D01*
X146194445Y-139666365D01*
X146213387Y-139650820D01*
X146235238Y-139621356D01*
X146258185Y-139578426D01*
X146313860Y-139474265D01*
X146476313Y-139276313D01*
X146674264Y-139113860D01*
X146900104Y-138993145D01*
X147145155Y-138918810D01*
X147400000Y-138893710D01*
X147654844Y-138918810D01*
X147899895Y-138993145D01*
X148125735Y-139113860D01*
X148323687Y-139276313D01*
X148486140Y-139474264D01*
X148606855Y-139700104D01*
X148681190Y-139945155D01*
X148700000Y-140136136D01*
X148700000Y-142063864D01*
X148681190Y-142254845D01*
X148606855Y-142499896D01*
X148486140Y-142725736D01*
X148323687Y-142923687D01*
X148125736Y-143086140D01*
X147899896Y-143206855D01*
X147654845Y-143281190D01*
X147400000Y-143306290D01*
X147145156Y-143281190D01*
X146900105Y-143206855D01*
X146674265Y-143086140D01*
X146476314Y-142923687D01*
X146313861Y-142725736D01*
X146193146Y-142499896D01*
X146118811Y-142254845D01*
X146100000Y-142063864D01*
X146100000Y-141437569D01*
X146097598Y-141413183D01*
X146090485Y-141389734D01*
X146078934Y-141368123D01*
X146063389Y-141349181D01*
X146044447Y-141333636D01*
X146022836Y-141322085D01*
X145999387Y-141314972D01*
X145975001Y-141312570D01*
X145950615Y-141314972D01*
X145927166Y-141322085D01*
X145905555Y-141333636D01*
X145886613Y-141349181D01*
X145864764Y-141378643D01*
X145786140Y-141525736D01*
X145623687Y-141723687D01*
X145425736Y-141886140D01*
X145199896Y-142006855D01*
X144954845Y-142081190D01*
X144700000Y-142106290D01*
X144445156Y-142081190D01*
X144200105Y-142006855D01*
X143974265Y-141886140D01*
X143776314Y-141723687D01*
X143613861Y-141525736D01*
X143493146Y-141299896D01*
X143418811Y-141054845D01*
X143400000Y-140863864D01*
X143400000Y-138936137D01*
X143418810Y-138745156D01*
X143493145Y-138500105D01*
X143613860Y-138274265D01*
X143776313Y-138076313D01*
X143974264Y-137913860D01*
X144200104Y-137793145D01*
X144445155Y-137718810D01*
X144700000Y-137693710D01*
X144954844Y-137718810D01*
G37*
G36*
X158935529Y-139505710D02*
G01*
X158985378Y-139520831D01*
X159031310Y-139545382D01*
X159071574Y-139578426D01*
X159104618Y-139618690D01*
X159129169Y-139664622D01*
X159144290Y-139714471D01*
X159150000Y-139772444D01*
X159150000Y-140777556D01*
X159144290Y-140835529D01*
X159129169Y-140885378D01*
X159104618Y-140931310D01*
X159071574Y-140971574D01*
X159031310Y-141004618D01*
X158985378Y-141029169D01*
X158935529Y-141044290D01*
X158877556Y-141050000D01*
X157622444Y-141050000D01*
X157564471Y-141044290D01*
X157514622Y-141029169D01*
X157468690Y-141004618D01*
X157428426Y-140971574D01*
X157395382Y-140931310D01*
X157370831Y-140885378D01*
X157355710Y-140835529D01*
X157350000Y-140777556D01*
X157350000Y-139772444D01*
X157355710Y-139714471D01*
X157370831Y-139664622D01*
X157395382Y-139618690D01*
X157428426Y-139578426D01*
X157468690Y-139545382D01*
X157514622Y-139520831D01*
X157564471Y-139505710D01*
X157622444Y-139500000D01*
X158877556Y-139500000D01*
X158935529Y-139505710D01*
G37*
G36*
X158935529Y-137455710D02*
G01*
X158985378Y-137470831D01*
X159031310Y-137495382D01*
X159071574Y-137528426D01*
X159104618Y-137568690D01*
X159129169Y-137614622D01*
X159144290Y-137664471D01*
X159150000Y-137722444D01*
X159150000Y-138727556D01*
X159144290Y-138785529D01*
X159129169Y-138835378D01*
X159104618Y-138881310D01*
X159071574Y-138921574D01*
X159031310Y-138954618D01*
X158985378Y-138979169D01*
X158935529Y-138994290D01*
X158877556Y-139000000D01*
X157622444Y-139000000D01*
X157564471Y-138994290D01*
X157514622Y-138979169D01*
X157468690Y-138954618D01*
X157428426Y-138921574D01*
X157395382Y-138881310D01*
X157370831Y-138835378D01*
X157355710Y-138785529D01*
X157350000Y-138727556D01*
X157350000Y-137722444D01*
X157355710Y-137664471D01*
X157370831Y-137614622D01*
X157395382Y-137568690D01*
X157428426Y-137528426D01*
X157468690Y-137495382D01*
X157514622Y-137470831D01*
X157564471Y-137455710D01*
X157622444Y-137450000D01*
X158877556Y-137450000D01*
X158935529Y-137455710D01*
G37*
G36*
X135154845Y-135418810D02*
G01*
X135399896Y-135493145D01*
X135625736Y-135613860D01*
X135823687Y-135776313D01*
X135986140Y-135974264D01*
X136106855Y-136200104D01*
X136181190Y-136445155D01*
X136206290Y-136700000D01*
X136181190Y-136954845D01*
X136106855Y-137199896D01*
X135986140Y-137425736D01*
X135823687Y-137623687D01*
X135625736Y-137786140D01*
X135399896Y-137906855D01*
X135154845Y-137981190D01*
X134963864Y-138000000D01*
X133036136Y-138000000D01*
X132845155Y-137981190D01*
X132600104Y-137906855D01*
X132374264Y-137786140D01*
X132176313Y-137623687D01*
X132013860Y-137425736D01*
X131893145Y-137199896D01*
X131818810Y-136954845D01*
X131793710Y-136700000D01*
X131818810Y-136445155D01*
X131893145Y-136200104D01*
X132013860Y-135974264D01*
X132176313Y-135776313D01*
X132374264Y-135613860D01*
X132600104Y-135493145D01*
X132845155Y-135418810D01*
X133036136Y-135400000D01*
X134963864Y-135400000D01*
X135154845Y-135418810D01*
G37*
G36*
X175154845Y-135418810D02*
G01*
X175399896Y-135493145D01*
X175625736Y-135613860D01*
X175823687Y-135776313D01*
X175986140Y-135974264D01*
X176106855Y-136200104D01*
X176181190Y-136445155D01*
X176206290Y-136700000D01*
X176181190Y-136954845D01*
X176106855Y-137199896D01*
X175986140Y-137425736D01*
X175823687Y-137623687D01*
X175625736Y-137786140D01*
X175399896Y-137906855D01*
X175154845Y-137981190D01*
X174963864Y-138000000D01*
X173036136Y-138000000D01*
X172845155Y-137981190D01*
X172600104Y-137906855D01*
X172374264Y-137786140D01*
X172176313Y-137623687D01*
X172013860Y-137425736D01*
X171893145Y-137199896D01*
X171818810Y-136954845D01*
X171793710Y-136700000D01*
X171818810Y-136445155D01*
X171893145Y-136200104D01*
X172013860Y-135974264D01*
X172176313Y-135776313D01*
X172374264Y-135613860D01*
X172600104Y-135493145D01*
X172845155Y-135418810D01*
X173036136Y-135400000D01*
X174963864Y-135400000D01*
X175154845Y-135418810D01*
G37*
G36*
X115154845Y-135418810D02*
G01*
X115399896Y-135493145D01*
X115625736Y-135613860D01*
X115823687Y-135776313D01*
X115986140Y-135974264D01*
X116106855Y-136200104D01*
X116181190Y-136445155D01*
X116206290Y-136700000D01*
X116181190Y-136954845D01*
X116106855Y-137199896D01*
X115986140Y-137425736D01*
X115823687Y-137623687D01*
X115625736Y-137786140D01*
X115399896Y-137906855D01*
X115154845Y-137981190D01*
X114963864Y-138000000D01*
X113036136Y-138000000D01*
X112845155Y-137981190D01*
X112600104Y-137906855D01*
X112374264Y-137786140D01*
X112176313Y-137623687D01*
X112013860Y-137425736D01*
X111893145Y-137199896D01*
X111818810Y-136954845D01*
X111793710Y-136700000D01*
X111818810Y-136445155D01*
X111893145Y-136200104D01*
X112013860Y-135974264D01*
X112176313Y-135776313D01*
X112374264Y-135613860D01*
X112600104Y-135493145D01*
X112845155Y-135418810D01*
X113036136Y-135400000D01*
X114963864Y-135400000D01*
X115154845Y-135418810D01*
G37*
G36*
X155154845Y-135418810D02*
G01*
X155399896Y-135493145D01*
X155625736Y-135613860D01*
X155823687Y-135776313D01*
X155986140Y-135974264D01*
X156106855Y-136200104D01*
X156181190Y-136445155D01*
X156206290Y-136700000D01*
X156181190Y-136954845D01*
X156106855Y-137199896D01*
X155986140Y-137425736D01*
X155823687Y-137623687D01*
X155625736Y-137786140D01*
X155399896Y-137906855D01*
X155154845Y-137981190D01*
X154963864Y-138000000D01*
X153036136Y-138000000D01*
X152845155Y-137981190D01*
X152600104Y-137906855D01*
X152374264Y-137786140D01*
X152176313Y-137623687D01*
X152013860Y-137425736D01*
X151893145Y-137199896D01*
X151818810Y-136954845D01*
X151793710Y-136700000D01*
X151818810Y-136445155D01*
X151893145Y-136200104D01*
X152013860Y-135974264D01*
X152176313Y-135776313D01*
X152374264Y-135613860D01*
X152600104Y-135493145D01*
X152845155Y-135418810D01*
X153036136Y-135400000D01*
X154963864Y-135400000D01*
X155154845Y-135418810D01*
G37*
G36*
X141550000Y-137100000D02*
G01*
X139450000Y-137100000D01*
X139450000Y-135400000D01*
X141550000Y-135400000D01*
X141550000Y-137100000D01*
G37*
G36*
X161800000Y-136850000D02*
G01*
X159700000Y-136850000D01*
X159700000Y-135150000D01*
X161800000Y-135150000D01*
X161800000Y-136850000D01*
G37*
G36*
X106550000Y-134600000D02*
G01*
X104450000Y-134600000D01*
X104450000Y-132900000D01*
X106550000Y-132900000D01*
X106550000Y-134600000D01*
G37*
G36*
X130685529Y-133005710D02*
G01*
X130735378Y-133020831D01*
X130781310Y-133045382D01*
X130821574Y-133078426D01*
X130854618Y-133118690D01*
X130879169Y-133164622D01*
X130894290Y-133214471D01*
X130900000Y-133272444D01*
X130900000Y-134277556D01*
X130894290Y-134335529D01*
X130879169Y-134385378D01*
X130854618Y-134431310D01*
X130821574Y-134471574D01*
X130781310Y-134504618D01*
X130735378Y-134529169D01*
X130685529Y-134544290D01*
X130627556Y-134550000D01*
X129372444Y-134550000D01*
X129314471Y-134544290D01*
X129264622Y-134529169D01*
X129218690Y-134504618D01*
X129178426Y-134471574D01*
X129145382Y-134431310D01*
X129120831Y-134385378D01*
X129105710Y-134335529D01*
X129100000Y-134277556D01*
X129100000Y-133272444D01*
X129105710Y-133214471D01*
X129120831Y-133164622D01*
X129145382Y-133118690D01*
X129178426Y-133078426D01*
X129218690Y-133045382D01*
X129264622Y-133020831D01*
X129314471Y-133005710D01*
X129372444Y-133000000D01*
X130627556Y-133000000D01*
X130685529Y-133005710D01*
G37*
G36*
X158935529Y-132755710D02*
G01*
X158985378Y-132770831D01*
X159031310Y-132795382D01*
X159071574Y-132828426D01*
X159104618Y-132868690D01*
X159129169Y-132914622D01*
X159144290Y-132964471D01*
X159150000Y-133022444D01*
X159150000Y-134027556D01*
X159144290Y-134085529D01*
X159129169Y-134135378D01*
X159104618Y-134181310D01*
X159071574Y-134221574D01*
X159031310Y-134254618D01*
X158985378Y-134279169D01*
X158935529Y-134294290D01*
X158877556Y-134300000D01*
X157622444Y-134300000D01*
X157564471Y-134294290D01*
X157514622Y-134279169D01*
X157468690Y-134254618D01*
X157428426Y-134221574D01*
X157395382Y-134181310D01*
X157370831Y-134135378D01*
X157355710Y-134085529D01*
X157350000Y-134027556D01*
X157350000Y-133022444D01*
X157355710Y-132964471D01*
X157370831Y-132914622D01*
X157395382Y-132868690D01*
X157428426Y-132828426D01*
X157468690Y-132795382D01*
X157514622Y-132770831D01*
X157564471Y-132755710D01*
X157622444Y-132750000D01*
X158877556Y-132750000D01*
X158935529Y-132755710D01*
G37*
G36*
X172710529Y-132755710D02*
G01*
X172760378Y-132770831D01*
X172806310Y-132795382D01*
X172846574Y-132828426D01*
X172879618Y-132868690D01*
X172904169Y-132914622D01*
X172919290Y-132964471D01*
X172925000Y-133022444D01*
X172925000Y-134027556D01*
X172919290Y-134085529D01*
X172904169Y-134135378D01*
X172879618Y-134181310D01*
X172846574Y-134221574D01*
X172806310Y-134254618D01*
X172760378Y-134279169D01*
X172710529Y-134294290D01*
X172652556Y-134300000D01*
X171397444Y-134300000D01*
X171339471Y-134294290D01*
X171289622Y-134279169D01*
X171243690Y-134254618D01*
X171203426Y-134221574D01*
X171170382Y-134181310D01*
X171145831Y-134135378D01*
X171130710Y-134085529D01*
X171125000Y-134027556D01*
X171125000Y-133022444D01*
X171130710Y-132964471D01*
X171145831Y-132914622D01*
X171170382Y-132868690D01*
X171203426Y-132828426D01*
X171243690Y-132795382D01*
X171289622Y-132770831D01*
X171339471Y-132755710D01*
X171397444Y-132750000D01*
X172652556Y-132750000D01*
X172710529Y-132755710D01*
G37*
G36*
X110685529Y-132755710D02*
G01*
X110735378Y-132770831D01*
X110781310Y-132795382D01*
X110821574Y-132828426D01*
X110854618Y-132868690D01*
X110879169Y-132914622D01*
X110894290Y-132964471D01*
X110900000Y-133022444D01*
X110900000Y-134027556D01*
X110894290Y-134085529D01*
X110879169Y-134135378D01*
X110854618Y-134181310D01*
X110821574Y-134221574D01*
X110781310Y-134254618D01*
X110735378Y-134279169D01*
X110685529Y-134294290D01*
X110627556Y-134300000D01*
X109372444Y-134300000D01*
X109314471Y-134294290D01*
X109264622Y-134279169D01*
X109218690Y-134254618D01*
X109178426Y-134221574D01*
X109145382Y-134181310D01*
X109120831Y-134135378D01*
X109105710Y-134085529D01*
X109100000Y-134027556D01*
X109100000Y-133022444D01*
X109105710Y-132964471D01*
X109120831Y-132914622D01*
X109145382Y-132868690D01*
X109178426Y-132828426D01*
X109218690Y-132795382D01*
X109264622Y-132770831D01*
X109314471Y-132755710D01*
X109372444Y-132750000D01*
X110627556Y-132750000D01*
X110685529Y-132755710D01*
G37*
G36*
X153685529Y-132755710D02*
G01*
X153735378Y-132770831D01*
X153781310Y-132795382D01*
X153821574Y-132828426D01*
X153854618Y-132868690D01*
X153879169Y-132914622D01*
X153894290Y-132964471D01*
X153900000Y-133022444D01*
X153900000Y-134027556D01*
X153894290Y-134085529D01*
X153879169Y-134135378D01*
X153854618Y-134181310D01*
X153821574Y-134221574D01*
X153781310Y-134254618D01*
X153735378Y-134279169D01*
X153685529Y-134294290D01*
X153627556Y-134300000D01*
X152372444Y-134300000D01*
X152314471Y-134294290D01*
X152264622Y-134279169D01*
X152218690Y-134254618D01*
X152178426Y-134221574D01*
X152145382Y-134181310D01*
X152120831Y-134135378D01*
X152105710Y-134085529D01*
X152100000Y-134027556D01*
X152100000Y-133022444D01*
X152105710Y-132964471D01*
X152120831Y-132914622D01*
X152145382Y-132868690D01*
X152178426Y-132828426D01*
X152218690Y-132795382D01*
X152264622Y-132770831D01*
X152314471Y-132755710D01*
X152372444Y-132750000D01*
X153627556Y-132750000D01*
X153685529Y-132755710D01*
G37*
G36*
X141550000Y-133600000D02*
G01*
X139450000Y-133600000D01*
X139450000Y-131900000D01*
X141550000Y-131900000D01*
X141550000Y-133600000D01*
G37*
G36*
X161800000Y-133350000D02*
G01*
X159700000Y-133350000D01*
X159700000Y-131650000D01*
X161800000Y-131650000D01*
X161800000Y-133350000D01*
G37*
G36*
X130685529Y-130955710D02*
G01*
X130735378Y-130970831D01*
X130781310Y-130995382D01*
X130821574Y-131028426D01*
X130854618Y-131068690D01*
X130879169Y-131114622D01*
X130894290Y-131164471D01*
X130900000Y-131222444D01*
X130900000Y-132227556D01*
X130894290Y-132285529D01*
X130879169Y-132335378D01*
X130854618Y-132381310D01*
X130821574Y-132421574D01*
X130781310Y-132454618D01*
X130735378Y-132479169D01*
X130685529Y-132494290D01*
X130627556Y-132500000D01*
X129372444Y-132500000D01*
X129314471Y-132494290D01*
X129264622Y-132479169D01*
X129218690Y-132454618D01*
X129178426Y-132421574D01*
X129145382Y-132381310D01*
X129120831Y-132335378D01*
X129105710Y-132285529D01*
X129100000Y-132227556D01*
X129100000Y-131222444D01*
X129105710Y-131164471D01*
X129120831Y-131114622D01*
X129145382Y-131068690D01*
X129178426Y-131028426D01*
X129218690Y-130995382D01*
X129264622Y-130970831D01*
X129314471Y-130955710D01*
X129372444Y-130950000D01*
X130627556Y-130950000D01*
X130685529Y-130955710D01*
G37*
G36*
X158935529Y-130705710D02*
G01*
X158985378Y-130720831D01*
X159031310Y-130745382D01*
X159071574Y-130778426D01*
X159104618Y-130818690D01*
X159129169Y-130864622D01*
X159144290Y-130914471D01*
X159150000Y-130972444D01*
X159150000Y-131977556D01*
X159144290Y-132035529D01*
X159129169Y-132085378D01*
X159104618Y-132131310D01*
X159071574Y-132171574D01*
X159031310Y-132204618D01*
X158985378Y-132229169D01*
X158935529Y-132244290D01*
X158877556Y-132250000D01*
X157622444Y-132250000D01*
X157564471Y-132244290D01*
X157514622Y-132229169D01*
X157468690Y-132204618D01*
X157428426Y-132171574D01*
X157395382Y-132131310D01*
X157370831Y-132085378D01*
X157355710Y-132035529D01*
X157350000Y-131977556D01*
X157350000Y-130972444D01*
X157355710Y-130914471D01*
X157370831Y-130864622D01*
X157395382Y-130818690D01*
X157428426Y-130778426D01*
X157468690Y-130745382D01*
X157514622Y-130720831D01*
X157564471Y-130705710D01*
X157622444Y-130700000D01*
X158877556Y-130700000D01*
X158935529Y-130705710D01*
G37*
G36*
X110685529Y-130705710D02*
G01*
X110735378Y-130720831D01*
X110781310Y-130745382D01*
X110821574Y-130778426D01*
X110854618Y-130818690D01*
X110879169Y-130864622D01*
X110894290Y-130914471D01*
X110900000Y-130972444D01*
X110900000Y-131977556D01*
X110894290Y-132035529D01*
X110879169Y-132085378D01*
X110854618Y-132131310D01*
X110821574Y-132171574D01*
X110781310Y-132204618D01*
X110735378Y-132229169D01*
X110685529Y-132244290D01*
X110627556Y-132250000D01*
X109372444Y-132250000D01*
X109314471Y-132244290D01*
X109264622Y-132229169D01*
X109218690Y-132204618D01*
X109178426Y-132171574D01*
X109145382Y-132131310D01*
X109120831Y-132085378D01*
X109105710Y-132035529D01*
X109100000Y-131977556D01*
X109100000Y-130972444D01*
X109105710Y-130914471D01*
X109120831Y-130864622D01*
X109145382Y-130818690D01*
X109178426Y-130778426D01*
X109218690Y-130745382D01*
X109264622Y-130720831D01*
X109314471Y-130705710D01*
X109372444Y-130700000D01*
X110627556Y-130700000D01*
X110685529Y-130705710D01*
G37*
G36*
X153685529Y-130705710D02*
G01*
X153735378Y-130720831D01*
X153781310Y-130745382D01*
X153821574Y-130778426D01*
X153854618Y-130818690D01*
X153879169Y-130864622D01*
X153894290Y-130914471D01*
X153900000Y-130972444D01*
X153900000Y-131977556D01*
X153894290Y-132035529D01*
X153879169Y-132085378D01*
X153854618Y-132131310D01*
X153821574Y-132171574D01*
X153781310Y-132204618D01*
X153735378Y-132229169D01*
X153685529Y-132244290D01*
X153627556Y-132250000D01*
X152372444Y-132250000D01*
X152314471Y-132244290D01*
X152264622Y-132229169D01*
X152218690Y-132204618D01*
X152178426Y-132171574D01*
X152145382Y-132131310D01*
X152120831Y-132085378D01*
X152105710Y-132035529D01*
X152100000Y-131977556D01*
X152100000Y-130972444D01*
X152105710Y-130914471D01*
X152120831Y-130864622D01*
X152145382Y-130818690D01*
X152178426Y-130778426D01*
X152218690Y-130745382D01*
X152264622Y-130720831D01*
X152314471Y-130705710D01*
X152372444Y-130700000D01*
X153627556Y-130700000D01*
X153685529Y-130705710D01*
G37*
G36*
X172710529Y-130705710D02*
G01*
X172760378Y-130720831D01*
X172806310Y-130745382D01*
X172846574Y-130778426D01*
X172879618Y-130818690D01*
X172904169Y-130864622D01*
X172919290Y-130914471D01*
X172925000Y-130972444D01*
X172925000Y-131977556D01*
X172919290Y-132035529D01*
X172904169Y-132085378D01*
X172879618Y-132131310D01*
X172846574Y-132171574D01*
X172806310Y-132204618D01*
X172760378Y-132229169D01*
X172710529Y-132244290D01*
X172652556Y-132250000D01*
X171397444Y-132250000D01*
X171339471Y-132244290D01*
X171289622Y-132229169D01*
X171243690Y-132204618D01*
X171203426Y-132171574D01*
X171170382Y-132131310D01*
X171145831Y-132085378D01*
X171130710Y-132035529D01*
X171125000Y-131977556D01*
X171125000Y-130972444D01*
X171130710Y-130914471D01*
X171145831Y-130864622D01*
X171170382Y-130818690D01*
X171203426Y-130778426D01*
X171243690Y-130745382D01*
X171289622Y-130720831D01*
X171339471Y-130705710D01*
X171397444Y-130700000D01*
X172652556Y-130700000D01*
X172710529Y-130705710D01*
G37*
G36*
X176628687Y-129035027D02*
G01*
X176806274Y-129070350D01*
X176997362Y-129149502D01*
X177169336Y-129264411D01*
X177315589Y-129410664D01*
X177430498Y-129582638D01*
X177509650Y-129773726D01*
X177550000Y-129976584D01*
X177550000Y-130183416D01*
X177509650Y-130386274D01*
X177430498Y-130577362D01*
X177315589Y-130749336D01*
X177169336Y-130895589D01*
X176997362Y-131010498D01*
X176806274Y-131089650D01*
X176628687Y-131124973D01*
X176603417Y-131130000D01*
X176396583Y-131130000D01*
X176371313Y-131124973D01*
X176193726Y-131089650D01*
X176002638Y-131010498D01*
X175830664Y-130895589D01*
X175684411Y-130749336D01*
X175569502Y-130577362D01*
X175490350Y-130386274D01*
X175450000Y-130183416D01*
X175450000Y-129976584D01*
X175490350Y-129773726D01*
X175569502Y-129582638D01*
X175684411Y-129410664D01*
X175830664Y-129264411D01*
X176002638Y-129149502D01*
X176193726Y-129070350D01*
X176371313Y-129035027D01*
X176396583Y-129030000D01*
X176603417Y-129030000D01*
X176628687Y-129035027D01*
G37*
G36*
X141550000Y-131100000D02*
G01*
X139450000Y-131100000D01*
X139450000Y-129400000D01*
X141550000Y-129400000D01*
X141550000Y-131100000D01*
G37*
G36*
X106550000Y-131100000D02*
G01*
X104450000Y-131100000D01*
X104450000Y-129400000D01*
X106550000Y-129400000D01*
X106550000Y-131100000D01*
G37*
G36*
X161800000Y-130850000D02*
G01*
X159700000Y-130850000D01*
X159700000Y-129150000D01*
X161800000Y-129150000D01*
X161800000Y-130850000D01*
G37*
G36*
X127548687Y-127955027D02*
G01*
X127726274Y-127990350D01*
X127917362Y-128069502D01*
X128089336Y-128184411D01*
X128235589Y-128330664D01*
X128350498Y-128502638D01*
X128429650Y-128693726D01*
X128470000Y-128896584D01*
X128470000Y-129103416D01*
X128429650Y-129306274D01*
X128350498Y-129497362D01*
X128235589Y-129669336D01*
X128089336Y-129815589D01*
X127917362Y-129930498D01*
X127726274Y-130009650D01*
X127548687Y-130044973D01*
X127523417Y-130050000D01*
X127316583Y-130050000D01*
X127291313Y-130044973D01*
X127113726Y-130009650D01*
X126922638Y-129930498D01*
X126750664Y-129815589D01*
X126604411Y-129669336D01*
X126489502Y-129497362D01*
X126410350Y-129306274D01*
X126370000Y-129103416D01*
X126370000Y-128896584D01*
X126410350Y-128693726D01*
X126489502Y-128502638D01*
X126604411Y-128330664D01*
X126750664Y-128184411D01*
X126922638Y-128069502D01*
X127113726Y-127990350D01*
X127291313Y-127955027D01*
X127316583Y-127950000D01*
X127523417Y-127950000D01*
X127548687Y-127955027D01*
G37*
G36*
X130088687Y-127955027D02*
G01*
X130266274Y-127990350D01*
X130457362Y-128069502D01*
X130629336Y-128184411D01*
X130775589Y-128330664D01*
X130890498Y-128502638D01*
X130969650Y-128693726D01*
X131010000Y-128896584D01*
X131010000Y-129103416D01*
X130969650Y-129306274D01*
X130890498Y-129497362D01*
X130775589Y-129669336D01*
X130629336Y-129815589D01*
X130457362Y-129930498D01*
X130266274Y-130009650D01*
X130088687Y-130044973D01*
X130063417Y-130050000D01*
X129856583Y-130050000D01*
X129831313Y-130044973D01*
X129653726Y-130009650D01*
X129462638Y-129930498D01*
X129290664Y-129815589D01*
X129144411Y-129669336D01*
X129029502Y-129497362D01*
X128950350Y-129306274D01*
X128910000Y-129103416D01*
X128910000Y-128896584D01*
X128950350Y-128693726D01*
X129029502Y-128502638D01*
X129144411Y-128330664D01*
X129290664Y-128184411D01*
X129462638Y-128069502D01*
X129653726Y-127990350D01*
X129831313Y-127955027D01*
X129856583Y-127950000D01*
X130063417Y-127950000D01*
X130088687Y-127955027D01*
G37*
G36*
X133550000Y-130050000D02*
G01*
X131450000Y-130050000D01*
X131450000Y-127950000D01*
X133550000Y-127950000D01*
X133550000Y-130050000D01*
G37*
G36*
X110685529Y-128385710D02*
G01*
X110735378Y-128400831D01*
X110781310Y-128425382D01*
X110821574Y-128458426D01*
X110854618Y-128498690D01*
X110879169Y-128544622D01*
X110894290Y-128594471D01*
X110900000Y-128652444D01*
X110900000Y-129657556D01*
X110894290Y-129715529D01*
X110879169Y-129765378D01*
X110854618Y-129811310D01*
X110821574Y-129851574D01*
X110781310Y-129884618D01*
X110735378Y-129909169D01*
X110685529Y-129924290D01*
X110627556Y-129930000D01*
X109372444Y-129930000D01*
X109314471Y-129924290D01*
X109264622Y-129909169D01*
X109218690Y-129884618D01*
X109178426Y-129851574D01*
X109145382Y-129811310D01*
X109120831Y-129765378D01*
X109105710Y-129715529D01*
X109100000Y-129657556D01*
X109100000Y-128652444D01*
X109105710Y-128594471D01*
X109120831Y-128544622D01*
X109145382Y-128498690D01*
X109178426Y-128458426D01*
X109218690Y-128425382D01*
X109264622Y-128400831D01*
X109314471Y-128385710D01*
X109372444Y-128380000D01*
X110627556Y-128380000D01*
X110685529Y-128385710D01*
G37*
G36*
X153685529Y-128385710D02*
G01*
X153735378Y-128400831D01*
X153781310Y-128425382D01*
X153821574Y-128458426D01*
X153854618Y-128498690D01*
X153879169Y-128544622D01*
X153894290Y-128594471D01*
X153900000Y-128652444D01*
X153900000Y-129657556D01*
X153894290Y-129715529D01*
X153879169Y-129765378D01*
X153854618Y-129811310D01*
X153821574Y-129851574D01*
X153781310Y-129884618D01*
X153735378Y-129909169D01*
X153685529Y-129924290D01*
X153627556Y-129930000D01*
X152372444Y-129930000D01*
X152314471Y-129924290D01*
X152264622Y-129909169D01*
X152218690Y-129884618D01*
X152178426Y-129851574D01*
X152145382Y-129811310D01*
X152120831Y-129765378D01*
X152105710Y-129715529D01*
X152100000Y-129657556D01*
X152100000Y-128652444D01*
X152105710Y-128594471D01*
X152120831Y-128544622D01*
X152145382Y-128498690D01*
X152178426Y-128458426D01*
X152218690Y-128425382D01*
X152264622Y-128400831D01*
X152314471Y-128385710D01*
X152372444Y-128380000D01*
X153627556Y-128380000D01*
X153685529Y-128385710D01*
G37*
G36*
X172685529Y-128385710D02*
G01*
X172735378Y-128400831D01*
X172781310Y-128425382D01*
X172821574Y-128458426D01*
X172854618Y-128498690D01*
X172879169Y-128544622D01*
X172894290Y-128594471D01*
X172900000Y-128652444D01*
X172900000Y-129657556D01*
X172894290Y-129715529D01*
X172879169Y-129765378D01*
X172854618Y-129811310D01*
X172821574Y-129851574D01*
X172781310Y-129884618D01*
X172735378Y-129909169D01*
X172685529Y-129924290D01*
X172627556Y-129930000D01*
X171372444Y-129930000D01*
X171314471Y-129924290D01*
X171264622Y-129909169D01*
X171218690Y-129884618D01*
X171178426Y-129851574D01*
X171145382Y-129811310D01*
X171120831Y-129765378D01*
X171105710Y-129715529D01*
X171100000Y-129657556D01*
X171100000Y-128652444D01*
X171105710Y-128594471D01*
X171120831Y-128544622D01*
X171145382Y-128498690D01*
X171178426Y-128458426D01*
X171218690Y-128425382D01*
X171264622Y-128400831D01*
X171314471Y-128385710D01*
X171372444Y-128380000D01*
X172627556Y-128380000D01*
X172685529Y-128385710D01*
G37*
G36*
X106550000Y-129100000D02*
G01*
X104450000Y-129100000D01*
X104450000Y-127400000D01*
X106550000Y-127400000D01*
X106550000Y-129100000D01*
G37*
G36*
X176626653Y-126494622D02*
G01*
X176806274Y-126530350D01*
X176997362Y-126609502D01*
X177169336Y-126724411D01*
X177315589Y-126870664D01*
X177430498Y-127042638D01*
X177509650Y-127233726D01*
X177550000Y-127436584D01*
X177550000Y-127643416D01*
X177509650Y-127846274D01*
X177430498Y-128037362D01*
X177315589Y-128209336D01*
X177169336Y-128355589D01*
X176997362Y-128470498D01*
X176806274Y-128549650D01*
X176628687Y-128584973D01*
X176603417Y-128590000D01*
X176396583Y-128590000D01*
X176371313Y-128584973D01*
X176193726Y-128549650D01*
X176002638Y-128470498D01*
X175830664Y-128355589D01*
X175684411Y-128209336D01*
X175569502Y-128037362D01*
X175490350Y-127846274D01*
X175450000Y-127643416D01*
X175450000Y-127436584D01*
X175490350Y-127233726D01*
X175569502Y-127042638D01*
X175684411Y-126870664D01*
X175830664Y-126724411D01*
X176002638Y-126609502D01*
X176193726Y-126530350D01*
X176373347Y-126494622D01*
X176396583Y-126490000D01*
X176603417Y-126490000D01*
X176626653Y-126494622D01*
G37*
G36*
X153685529Y-126335710D02*
G01*
X153735378Y-126350831D01*
X153781310Y-126375382D01*
X153821574Y-126408426D01*
X153854618Y-126448690D01*
X153879169Y-126494622D01*
X153894290Y-126544471D01*
X153900000Y-126602444D01*
X153900000Y-127607556D01*
X153894290Y-127665529D01*
X153879169Y-127715378D01*
X153854618Y-127761310D01*
X153821574Y-127801574D01*
X153781310Y-127834618D01*
X153735378Y-127859169D01*
X153685529Y-127874290D01*
X153627556Y-127880000D01*
X152372444Y-127880000D01*
X152314471Y-127874290D01*
X152264622Y-127859169D01*
X152218690Y-127834618D01*
X152178426Y-127801574D01*
X152145382Y-127761310D01*
X152120831Y-127715378D01*
X152105710Y-127665529D01*
X152100000Y-127607556D01*
X152100000Y-126602444D01*
X152105710Y-126544471D01*
X152120831Y-126494622D01*
X152145382Y-126448690D01*
X152178426Y-126408426D01*
X152218690Y-126375382D01*
X152264622Y-126350831D01*
X152314471Y-126335710D01*
X152372444Y-126330000D01*
X153627556Y-126330000D01*
X153685529Y-126335710D01*
G37*
G36*
X172685529Y-126335710D02*
G01*
X172735378Y-126350831D01*
X172781310Y-126375382D01*
X172821574Y-126408426D01*
X172854618Y-126448690D01*
X172879169Y-126494622D01*
X172894290Y-126544471D01*
X172900000Y-126602444D01*
X172900000Y-127607556D01*
X172894290Y-127665529D01*
X172879169Y-127715378D01*
X172854618Y-127761310D01*
X172821574Y-127801574D01*
X172781310Y-127834618D01*
X172735378Y-127859169D01*
X172685529Y-127874290D01*
X172627556Y-127880000D01*
X171372444Y-127880000D01*
X171314471Y-127874290D01*
X171264622Y-127859169D01*
X171218690Y-127834618D01*
X171178426Y-127801574D01*
X171145382Y-127761310D01*
X171120831Y-127715378D01*
X171105710Y-127665529D01*
X171100000Y-127607556D01*
X171100000Y-126602444D01*
X171105710Y-126544471D01*
X171120831Y-126494622D01*
X171145382Y-126448690D01*
X171178426Y-126408426D01*
X171218690Y-126375382D01*
X171264622Y-126350831D01*
X171314471Y-126335710D01*
X171372444Y-126330000D01*
X172627556Y-126330000D01*
X172685529Y-126335710D01*
G37*
G36*
X110685529Y-126335710D02*
G01*
X110735378Y-126350831D01*
X110781310Y-126375382D01*
X110821574Y-126408426D01*
X110854618Y-126448690D01*
X110879169Y-126494622D01*
X110894290Y-126544471D01*
X110900000Y-126602444D01*
X110900000Y-127607556D01*
X110894290Y-127665529D01*
X110879169Y-127715378D01*
X110854618Y-127761310D01*
X110821574Y-127801574D01*
X110781310Y-127834618D01*
X110735378Y-127859169D01*
X110685529Y-127874290D01*
X110627556Y-127880000D01*
X109372444Y-127880000D01*
X109314471Y-127874290D01*
X109264622Y-127859169D01*
X109218690Y-127834618D01*
X109178426Y-127801574D01*
X109145382Y-127761310D01*
X109120831Y-127715378D01*
X109105710Y-127665529D01*
X109100000Y-127607556D01*
X109100000Y-126602444D01*
X109105710Y-126544471D01*
X109120831Y-126494622D01*
X109145382Y-126448690D01*
X109178426Y-126408426D01*
X109218690Y-126375382D01*
X109264622Y-126350831D01*
X109314471Y-126335710D01*
X109372444Y-126330000D01*
X110627556Y-126330000D01*
X110685529Y-126335710D01*
G37*
G36*
X141550000Y-127600000D02*
G01*
X139450000Y-127600000D01*
X139450000Y-125900000D01*
X141550000Y-125900000D01*
X141550000Y-127600000D01*
G37*
G36*
X161800000Y-127350000D02*
G01*
X159700000Y-127350000D01*
X159700000Y-125650000D01*
X161800000Y-125650000D01*
X161800000Y-127350000D01*
G37*
G36*
X177550000Y-126050000D02*
G01*
X175450000Y-126050000D01*
X175450000Y-123950000D01*
X177550000Y-123950000D01*
X177550000Y-126050000D01*
G37*
G36*
X122382481Y-124067686D02*
G01*
X122427205Y-124081254D01*
X122468430Y-124103289D01*
X122504561Y-124132939D01*
X122534211Y-124169070D01*
X122556246Y-124210295D01*
X122569814Y-124255019D01*
X122575000Y-124307676D01*
X122575000Y-125642324D01*
X122569814Y-125694981D01*
X122556246Y-125739705D01*
X122534211Y-125780930D01*
X122504561Y-125817061D01*
X122468430Y-125846711D01*
X122427205Y-125868746D01*
X122382481Y-125882314D01*
X122329824Y-125887500D01*
X120670176Y-125887500D01*
X120617519Y-125882314D01*
X120572795Y-125868746D01*
X120531570Y-125846711D01*
X120495439Y-125817061D01*
X120465789Y-125780930D01*
X120443754Y-125739705D01*
X120430186Y-125694981D01*
X120425000Y-125642324D01*
X120425000Y-124307676D01*
X120430186Y-124255019D01*
X120443754Y-124210295D01*
X120465789Y-124169070D01*
X120495439Y-124132939D01*
X120531570Y-124103289D01*
X120572795Y-124081254D01*
X120617519Y-124067686D01*
X120670176Y-124062500D01*
X122329824Y-124062500D01*
X122382481Y-124067686D01*
G37*
G36*
X117685529Y-124255710D02*
G01*
X117735378Y-124270831D01*
X117781310Y-124295382D01*
X117821574Y-124328426D01*
X117854618Y-124368690D01*
X117879169Y-124414622D01*
X117894290Y-124464471D01*
X117900000Y-124522444D01*
X117900000Y-125527556D01*
X117894290Y-125585529D01*
X117879169Y-125635378D01*
X117854618Y-125681310D01*
X117821574Y-125721574D01*
X117781310Y-125754618D01*
X117735378Y-125779169D01*
X117685529Y-125794290D01*
X117627556Y-125800000D01*
X116372444Y-125800000D01*
X116314471Y-125794290D01*
X116264622Y-125779169D01*
X116218690Y-125754618D01*
X116178426Y-125721574D01*
X116145382Y-125681310D01*
X116120831Y-125635378D01*
X116105710Y-125585529D01*
X116100000Y-125527556D01*
X116100000Y-124522444D01*
X116105710Y-124464471D01*
X116120831Y-124414622D01*
X116145382Y-124368690D01*
X116178426Y-124328426D01*
X116218690Y-124295382D01*
X116264622Y-124270831D01*
X116314471Y-124255710D01*
X116372444Y-124250000D01*
X117627556Y-124250000D01*
X117685529Y-124255710D01*
G37*
G36*
X106550000Y-125600000D02*
G01*
X104450000Y-125600000D01*
X104450000Y-123900000D01*
X106550000Y-123900000D01*
X106550000Y-125600000D01*
G37*
G36*
X161800000Y-125100000D02*
G01*
X159700000Y-125100000D01*
X159700000Y-123400000D01*
X161800000Y-123400000D01*
X161800000Y-125100000D01*
G37*
G36*
X169185529Y-123505710D02*
G01*
X169235378Y-123520831D01*
X169281310Y-123545382D01*
X169321574Y-123578426D01*
X169354618Y-123618690D01*
X169379169Y-123664622D01*
X169394290Y-123714471D01*
X169400000Y-123772444D01*
X169400000Y-124777556D01*
X169394290Y-124835529D01*
X169379169Y-124885378D01*
X169354618Y-124931310D01*
X169321574Y-124971574D01*
X169281310Y-125004618D01*
X169235378Y-125029169D01*
X169185529Y-125044290D01*
X169127556Y-125050000D01*
X167872444Y-125050000D01*
X167814471Y-125044290D01*
X167764622Y-125029169D01*
X167718690Y-125004618D01*
X167678426Y-124971574D01*
X167645382Y-124931310D01*
X167620831Y-124885378D01*
X167605710Y-124835529D01*
X167600000Y-124777556D01*
X167600000Y-123772444D01*
X167605710Y-123714471D01*
X167620831Y-123664622D01*
X167645382Y-123618690D01*
X167678426Y-123578426D01*
X167718690Y-123545382D01*
X167764622Y-123520831D01*
X167814471Y-123505710D01*
X167872444Y-123500000D01*
X169127556Y-123500000D01*
X169185529Y-123505710D01*
G37*
G36*
X172685529Y-123505710D02*
G01*
X172735378Y-123520831D01*
X172781310Y-123545382D01*
X172821574Y-123578426D01*
X172854618Y-123618690D01*
X172879169Y-123664622D01*
X172894290Y-123714471D01*
X172900000Y-123772444D01*
X172900000Y-124777556D01*
X172894290Y-124835529D01*
X172879169Y-124885378D01*
X172854618Y-124931310D01*
X172821574Y-124971574D01*
X172781310Y-125004618D01*
X172735378Y-125029169D01*
X172685529Y-125044290D01*
X172627556Y-125050000D01*
X171372444Y-125050000D01*
X171314471Y-125044290D01*
X171264622Y-125029169D01*
X171218690Y-125004618D01*
X171178426Y-124971574D01*
X171145382Y-124931310D01*
X171120831Y-124885378D01*
X171105710Y-124835529D01*
X171100000Y-124777556D01*
X171100000Y-123772444D01*
X171105710Y-123714471D01*
X171120831Y-123664622D01*
X171145382Y-123618690D01*
X171178426Y-123578426D01*
X171218690Y-123545382D01*
X171264622Y-123520831D01*
X171314471Y-123505710D01*
X171372444Y-123500000D01*
X172627556Y-123500000D01*
X172685529Y-123505710D01*
G37*
G36*
X166685529Y-123505710D02*
G01*
X166735378Y-123520831D01*
X166781310Y-123545382D01*
X166821574Y-123578426D01*
X166854618Y-123618690D01*
X166879169Y-123664622D01*
X166894290Y-123714471D01*
X166900000Y-123772444D01*
X166900000Y-124777556D01*
X166894290Y-124835529D01*
X166879169Y-124885378D01*
X166854618Y-124931310D01*
X166821574Y-124971574D01*
X166781310Y-125004618D01*
X166735378Y-125029169D01*
X166685529Y-125044290D01*
X166627556Y-125050000D01*
X165372444Y-125050000D01*
X165314471Y-125044290D01*
X165264622Y-125029169D01*
X165218690Y-125004618D01*
X165178426Y-124971574D01*
X165145382Y-124931310D01*
X165120831Y-124885378D01*
X165105710Y-124835529D01*
X165100000Y-124777556D01*
X165100000Y-123772444D01*
X165105710Y-123714471D01*
X165120831Y-123664622D01*
X165145382Y-123618690D01*
X165178426Y-123578426D01*
X165218690Y-123545382D01*
X165264622Y-123520831D01*
X165314471Y-123505710D01*
X165372444Y-123500000D01*
X166627556Y-123500000D01*
X166685529Y-123505710D01*
G37*
G36*
X117685529Y-122205710D02*
G01*
X117735378Y-122220831D01*
X117781310Y-122245382D01*
X117821574Y-122278426D01*
X117854618Y-122318690D01*
X117879169Y-122364622D01*
X117894290Y-122414471D01*
X117900000Y-122472444D01*
X117900000Y-123477556D01*
X117894290Y-123535529D01*
X117879169Y-123585378D01*
X117854618Y-123631310D01*
X117821574Y-123671574D01*
X117781310Y-123704618D01*
X117735378Y-123729169D01*
X117685529Y-123744290D01*
X117627556Y-123750000D01*
X116372444Y-123750000D01*
X116314471Y-123744290D01*
X116264622Y-123729169D01*
X116218690Y-123704618D01*
X116178426Y-123671574D01*
X116145382Y-123631310D01*
X116120831Y-123585378D01*
X116105710Y-123535529D01*
X116100000Y-123477556D01*
X116100000Y-122472444D01*
X116105710Y-122414471D01*
X116120831Y-122364622D01*
X116145382Y-122318690D01*
X116178426Y-122278426D01*
X116218690Y-122245382D01*
X116264622Y-122220831D01*
X116314471Y-122205710D01*
X116372444Y-122200000D01*
X117627556Y-122200000D01*
X117685529Y-122205710D01*
G37*
G36*
X169185529Y-119755710D02*
G01*
X169235378Y-119770831D01*
X169281310Y-119795382D01*
X169321574Y-119828426D01*
X169354618Y-119868690D01*
X169379169Y-119914622D01*
X169394290Y-119964471D01*
X169400000Y-120022444D01*
X169400000Y-121027556D01*
X169394290Y-121085529D01*
X169379169Y-121135378D01*
X169354618Y-121181310D01*
X169321574Y-121221574D01*
X169281310Y-121254618D01*
X169262333Y-121264761D01*
X169241959Y-121278374D01*
X169224632Y-121295701D01*
X169211018Y-121316075D01*
X169201641Y-121338714D01*
X169196860Y-121362748D01*
X169196860Y-121387252D01*
X169201640Y-121411285D01*
X169211018Y-121433924D01*
X169224631Y-121454298D01*
X169241958Y-121471625D01*
X169262333Y-121485239D01*
X169281310Y-121495382D01*
X169321574Y-121528426D01*
X169354618Y-121568690D01*
X169379169Y-121614622D01*
X169394290Y-121664471D01*
X169400000Y-121722444D01*
X169400000Y-122727556D01*
X169394290Y-122785529D01*
X169379169Y-122835378D01*
X169354618Y-122881310D01*
X169321574Y-122921574D01*
X169281310Y-122954618D01*
X169235378Y-122979169D01*
X169185529Y-122994290D01*
X169127556Y-123000000D01*
X167872444Y-123000000D01*
X167814471Y-122994290D01*
X167764622Y-122979169D01*
X167718690Y-122954618D01*
X167678426Y-122921574D01*
X167645382Y-122881310D01*
X167620831Y-122835378D01*
X167605710Y-122785529D01*
X167600000Y-122727556D01*
X167600000Y-121722444D01*
X167605710Y-121664471D01*
X167620831Y-121614622D01*
X167645382Y-121568690D01*
X167678426Y-121528426D01*
X167718690Y-121495382D01*
X167737667Y-121485239D01*
X167758041Y-121471626D01*
X167775368Y-121454299D01*
X167788982Y-121433925D01*
X167798359Y-121411286D01*
X167803140Y-121387252D01*
X167803140Y-121362748D01*
X167798360Y-121338715D01*
X167788982Y-121316076D01*
X167775369Y-121295702D01*
X167758042Y-121278375D01*
X167737667Y-121264761D01*
X167718690Y-121254618D01*
X167678426Y-121221574D01*
X167645382Y-121181310D01*
X167620831Y-121135378D01*
X167605710Y-121085529D01*
X167600000Y-121027556D01*
X167600000Y-120022444D01*
X167605710Y-119964471D01*
X167620831Y-119914622D01*
X167645382Y-119868690D01*
X167678426Y-119828426D01*
X167718690Y-119795382D01*
X167764622Y-119770831D01*
X167814471Y-119755710D01*
X167872444Y-119750000D01*
X169127556Y-119750000D01*
X169185529Y-119755710D01*
G37*
G36*
X172685529Y-121455710D02*
G01*
X172735378Y-121470831D01*
X172781310Y-121495382D01*
X172821574Y-121528426D01*
X172854618Y-121568690D01*
X172879169Y-121614622D01*
X172894290Y-121664471D01*
X172900000Y-121722444D01*
X172900000Y-122727556D01*
X172894290Y-122785529D01*
X172879169Y-122835378D01*
X172854618Y-122881310D01*
X172821574Y-122921574D01*
X172781310Y-122954618D01*
X172735378Y-122979169D01*
X172685529Y-122994290D01*
X172627556Y-123000000D01*
X171372444Y-123000000D01*
X171314471Y-122994290D01*
X171264622Y-122979169D01*
X171218690Y-122954618D01*
X171178426Y-122921574D01*
X171145382Y-122881310D01*
X171120831Y-122835378D01*
X171105710Y-122785529D01*
X171100000Y-122727556D01*
X171100000Y-121722444D01*
X171105710Y-121664471D01*
X171120831Y-121614622D01*
X171145382Y-121568690D01*
X171178426Y-121528426D01*
X171218690Y-121495382D01*
X171264622Y-121470831D01*
X171314471Y-121455710D01*
X171372444Y-121450000D01*
X172627556Y-121450000D01*
X172685529Y-121455710D01*
G37*
G36*
X166685529Y-121455710D02*
G01*
X166735378Y-121470831D01*
X166781310Y-121495382D01*
X166821574Y-121528426D01*
X166854618Y-121568690D01*
X166879169Y-121614622D01*
X166894290Y-121664471D01*
X166900000Y-121722444D01*
X166900000Y-122727556D01*
X166894290Y-122785529D01*
X166879169Y-122835378D01*
X166854618Y-122881310D01*
X166821574Y-122921574D01*
X166781310Y-122954618D01*
X166735378Y-122979169D01*
X166685529Y-122994290D01*
X166627556Y-123000000D01*
X165372444Y-123000000D01*
X165314471Y-122994290D01*
X165264622Y-122979169D01*
X165218690Y-122954618D01*
X165178426Y-122921574D01*
X165145382Y-122881310D01*
X165120831Y-122835378D01*
X165105710Y-122785529D01*
X165100000Y-122727556D01*
X165100000Y-121722444D01*
X165105710Y-121664471D01*
X165120831Y-121614622D01*
X165145382Y-121568690D01*
X165178426Y-121528426D01*
X165218690Y-121495382D01*
X165264622Y-121470831D01*
X165314471Y-121455710D01*
X165372444Y-121450000D01*
X166627556Y-121450000D01*
X166685529Y-121455710D01*
G37*
G36*
X122382481Y-121092686D02*
G01*
X122427205Y-121106254D01*
X122468430Y-121128289D01*
X122504561Y-121157939D01*
X122534211Y-121194070D01*
X122556246Y-121235295D01*
X122569814Y-121280019D01*
X122575000Y-121332676D01*
X122575000Y-122667324D01*
X122569814Y-122719981D01*
X122556246Y-122764705D01*
X122534211Y-122805930D01*
X122504561Y-122842061D01*
X122468430Y-122871711D01*
X122427205Y-122893746D01*
X122382481Y-122907314D01*
X122329824Y-122912500D01*
X120670176Y-122912500D01*
X120617519Y-122907314D01*
X120572795Y-122893746D01*
X120531570Y-122871711D01*
X120495439Y-122842061D01*
X120465789Y-122805930D01*
X120443754Y-122764705D01*
X120430186Y-122719981D01*
X120425000Y-122667324D01*
X120425000Y-121332676D01*
X120430186Y-121280019D01*
X120443754Y-121235295D01*
X120465789Y-121194070D01*
X120495439Y-121157939D01*
X120531570Y-121128289D01*
X120572795Y-121106254D01*
X120617519Y-121092686D01*
X120670176Y-121087500D01*
X122329824Y-121087500D01*
X122382481Y-121092686D01*
G37*
G36*
X107255001Y-122880000D02*
G01*
X104855001Y-122880000D01*
X104855001Y-121930000D01*
X107255001Y-121930000D01*
X107255001Y-122880000D01*
G37*
G36*
X113855001Y-122880000D02*
G01*
X111455001Y-122880000D01*
X111455001Y-121930000D01*
X113855001Y-121930000D01*
X113855001Y-122880000D01*
G37*
G36*
X132535529Y-120105710D02*
G01*
X132585378Y-120120831D01*
X132631310Y-120145382D01*
X132671574Y-120178426D01*
X132704618Y-120218690D01*
X132729169Y-120264622D01*
X132744290Y-120314471D01*
X132750000Y-120372444D01*
X132750000Y-121627556D01*
X132744290Y-121685529D01*
X132729169Y-121735378D01*
X132704618Y-121781310D01*
X132671574Y-121821574D01*
X132631310Y-121854618D01*
X132585378Y-121879169D01*
X132535529Y-121894290D01*
X132477556Y-121900000D01*
X131472444Y-121900000D01*
X131414471Y-121894290D01*
X131364622Y-121879169D01*
X131318690Y-121854618D01*
X131278426Y-121821574D01*
X131245382Y-121781310D01*
X131220831Y-121735378D01*
X131205710Y-121685529D01*
X131200000Y-121627556D01*
X131200000Y-120372444D01*
X131205710Y-120314471D01*
X131220831Y-120264622D01*
X131245382Y-120218690D01*
X131278426Y-120178426D01*
X131318690Y-120145382D01*
X131364622Y-120120831D01*
X131414471Y-120105710D01*
X131472444Y-120100000D01*
X132477556Y-120100000D01*
X132535529Y-120105710D01*
G37*
G36*
X130585529Y-120105710D02*
G01*
X130635378Y-120120831D01*
X130681310Y-120145382D01*
X130721574Y-120178426D01*
X130754618Y-120218690D01*
X130779169Y-120264622D01*
X130794290Y-120314471D01*
X130800000Y-120372444D01*
X130800000Y-121627556D01*
X130794290Y-121685529D01*
X130779169Y-121735378D01*
X130754618Y-121781310D01*
X130721574Y-121821574D01*
X130681310Y-121854618D01*
X130635378Y-121879169D01*
X130585529Y-121894290D01*
X130527556Y-121900000D01*
X129522444Y-121900000D01*
X129464471Y-121894290D01*
X129414622Y-121879169D01*
X129368690Y-121854618D01*
X129328426Y-121821574D01*
X129295382Y-121781310D01*
X129270831Y-121735378D01*
X129255710Y-121685529D01*
X129250000Y-121627556D01*
X129250000Y-120372444D01*
X129255710Y-120314471D01*
X129270831Y-120264622D01*
X129295382Y-120218690D01*
X129328426Y-120178426D01*
X129368690Y-120145382D01*
X129414622Y-120120831D01*
X129464471Y-120105710D01*
X129522444Y-120100000D01*
X130527556Y-120100000D01*
X130585529Y-120105710D01*
G37*
G36*
X128535529Y-120105710D02*
G01*
X128585378Y-120120831D01*
X128631310Y-120145382D01*
X128671574Y-120178426D01*
X128704618Y-120218690D01*
X128729169Y-120264622D01*
X128744290Y-120314471D01*
X128750000Y-120372444D01*
X128750000Y-121627556D01*
X128744290Y-121685529D01*
X128729169Y-121735378D01*
X128704618Y-121781310D01*
X128671574Y-121821574D01*
X128631310Y-121854618D01*
X128585378Y-121879169D01*
X128535529Y-121894290D01*
X128477556Y-121900000D01*
X127472444Y-121900000D01*
X127414471Y-121894290D01*
X127364622Y-121879169D01*
X127318690Y-121854618D01*
X127278426Y-121821574D01*
X127245382Y-121781310D01*
X127220831Y-121735378D01*
X127205710Y-121685529D01*
X127200000Y-121627556D01*
X127200000Y-120372444D01*
X127205710Y-120314471D01*
X127220831Y-120264622D01*
X127245382Y-120218690D01*
X127278426Y-120178426D01*
X127318690Y-120145382D01*
X127364622Y-120120831D01*
X127414471Y-120105710D01*
X127472444Y-120100000D01*
X128477556Y-120100000D01*
X128535529Y-120105710D01*
G37*
G36*
X134585529Y-120105710D02*
G01*
X134635378Y-120120831D01*
X134681310Y-120145382D01*
X134721574Y-120178426D01*
X134754618Y-120218690D01*
X134779169Y-120264622D01*
X134794290Y-120314471D01*
X134800000Y-120372444D01*
X134800000Y-121627556D01*
X134794290Y-121685529D01*
X134779169Y-121735378D01*
X134754618Y-121781310D01*
X134721574Y-121821574D01*
X134681310Y-121854618D01*
X134635378Y-121879169D01*
X134585529Y-121894290D01*
X134527556Y-121900000D01*
X133522444Y-121900000D01*
X133464471Y-121894290D01*
X133414622Y-121879169D01*
X133368690Y-121854618D01*
X133328426Y-121821574D01*
X133295382Y-121781310D01*
X133270831Y-121735378D01*
X133255710Y-121685529D01*
X133250000Y-121627556D01*
X133250000Y-120372444D01*
X133255710Y-120314471D01*
X133270831Y-120264622D01*
X133295382Y-120218690D01*
X133328426Y-120178426D01*
X133368690Y-120145382D01*
X133414622Y-120120831D01*
X133464471Y-120105710D01*
X133522444Y-120100000D01*
X134527556Y-120100000D01*
X134585529Y-120105710D01*
G37*
G36*
X117685529Y-120255710D02*
G01*
X117735378Y-120270831D01*
X117781310Y-120295382D01*
X117821574Y-120328426D01*
X117854618Y-120368690D01*
X117879169Y-120414622D01*
X117894290Y-120464471D01*
X117900000Y-120522444D01*
X117900000Y-121527556D01*
X117894290Y-121585529D01*
X117879169Y-121635378D01*
X117854618Y-121681310D01*
X117821574Y-121721574D01*
X117781310Y-121754618D01*
X117735378Y-121779169D01*
X117685529Y-121794290D01*
X117627556Y-121800000D01*
X116372444Y-121800000D01*
X116314471Y-121794290D01*
X116264622Y-121779169D01*
X116218690Y-121754618D01*
X116178426Y-121721574D01*
X116145382Y-121681310D01*
X116120831Y-121635378D01*
X116105710Y-121585529D01*
X116100000Y-121527556D01*
X116100000Y-120522444D01*
X116105710Y-120464471D01*
X116120831Y-120414622D01*
X116145382Y-120368690D01*
X116178426Y-120328426D01*
X116218690Y-120295382D01*
X116264622Y-120270831D01*
X116314471Y-120255710D01*
X116372444Y-120250000D01*
X117627556Y-120250000D01*
X117685529Y-120255710D01*
G37*
G36*
X107255001Y-121610000D02*
G01*
X104855001Y-121610000D01*
X104855001Y-120660000D01*
X107255001Y-120660000D01*
X107255001Y-121610000D01*
G37*
G36*
X113855001Y-121610000D02*
G01*
X111455001Y-121610000D01*
X111455001Y-120660000D01*
X113855001Y-120660000D01*
X113855001Y-121610000D01*
G37*
G36*
X161800000Y-121600000D02*
G01*
X159700000Y-121600000D01*
X159700000Y-119900000D01*
X161800000Y-119900000D01*
X161800000Y-121600000D01*
G37*
G36*
X104110529Y-119105710D02*
G01*
X104160378Y-119120831D01*
X104206310Y-119145382D01*
X104246574Y-119178426D01*
X104279618Y-119218690D01*
X104304169Y-119264622D01*
X104319290Y-119314471D01*
X104325000Y-119372444D01*
X104325000Y-120627556D01*
X104319290Y-120685529D01*
X104304169Y-120735378D01*
X104279618Y-120781310D01*
X104246574Y-120821574D01*
X104206310Y-120854618D01*
X104160378Y-120879169D01*
X104110529Y-120894290D01*
X104052556Y-120900000D01*
X103047444Y-120900000D01*
X102989471Y-120894290D01*
X102939622Y-120879169D01*
X102893690Y-120854618D01*
X102853426Y-120821574D01*
X102820382Y-120781310D01*
X102795831Y-120735378D01*
X102780710Y-120685529D01*
X102775000Y-120627556D01*
X102775000Y-119372444D01*
X102780710Y-119314471D01*
X102795831Y-119264622D01*
X102820382Y-119218690D01*
X102853426Y-119178426D01*
X102893690Y-119145382D01*
X102939622Y-119120831D01*
X102989471Y-119105710D01*
X103047444Y-119100000D01*
X104052556Y-119100000D01*
X104110529Y-119105710D01*
G37*
G36*
X102060529Y-119105710D02*
G01*
X102110378Y-119120831D01*
X102156310Y-119145382D01*
X102196574Y-119178426D01*
X102229618Y-119218690D01*
X102254169Y-119264622D01*
X102269290Y-119314471D01*
X102275000Y-119372444D01*
X102275000Y-120627556D01*
X102269290Y-120685529D01*
X102254169Y-120735378D01*
X102229618Y-120781310D01*
X102196574Y-120821574D01*
X102156310Y-120854618D01*
X102110378Y-120879169D01*
X102060529Y-120894290D01*
X102002556Y-120900000D01*
X100997444Y-120900000D01*
X100939471Y-120894290D01*
X100889622Y-120879169D01*
X100843690Y-120854618D01*
X100803426Y-120821574D01*
X100770382Y-120781310D01*
X100745831Y-120735378D01*
X100730710Y-120685529D01*
X100725000Y-120627556D01*
X100725000Y-119372444D01*
X100730710Y-119314471D01*
X100745831Y-119264622D01*
X100770382Y-119218690D01*
X100803426Y-119178426D01*
X100843690Y-119145382D01*
X100889622Y-119120831D01*
X100939471Y-119105710D01*
X100997444Y-119100000D01*
X102002556Y-119100000D01*
X102060529Y-119105710D01*
G37*
G36*
X107255001Y-120340000D02*
G01*
X104855001Y-120340000D01*
X104855001Y-119390000D01*
X107255001Y-119390000D01*
X107255001Y-120340000D01*
G37*
G36*
X113855001Y-120340000D02*
G01*
X111455001Y-120340000D01*
X111455001Y-119390000D01*
X113855001Y-119390000D01*
X113855001Y-120340000D01*
G37*
G36*
X117685529Y-118205710D02*
G01*
X117735378Y-118220831D01*
X117781310Y-118245382D01*
X117821574Y-118278426D01*
X117854618Y-118318690D01*
X117879169Y-118364622D01*
X117894290Y-118414471D01*
X117900000Y-118472444D01*
X117900000Y-119477556D01*
X117894290Y-119535529D01*
X117879169Y-119585378D01*
X117854618Y-119631310D01*
X117821574Y-119671574D01*
X117781310Y-119704618D01*
X117735378Y-119729169D01*
X117685529Y-119744290D01*
X117627556Y-119750000D01*
X116372444Y-119750000D01*
X116314471Y-119744290D01*
X116264622Y-119729169D01*
X116218690Y-119704618D01*
X116178426Y-119671574D01*
X116145382Y-119631310D01*
X116120831Y-119585378D01*
X116105710Y-119535529D01*
X116100000Y-119477556D01*
X116100000Y-118472444D01*
X116105710Y-118414471D01*
X116120831Y-118364622D01*
X116145382Y-118318690D01*
X116178426Y-118278426D01*
X116218690Y-118245382D01*
X116264622Y-118220831D01*
X116314471Y-118205710D01*
X116372444Y-118200000D01*
X117627556Y-118200000D01*
X117685529Y-118205710D01*
G37*
G36*
X169185529Y-117705710D02*
G01*
X169235378Y-117720831D01*
X169281310Y-117745382D01*
X169321574Y-117778426D01*
X169354618Y-117818690D01*
X169379169Y-117864622D01*
X169394290Y-117914471D01*
X169400000Y-117972444D01*
X169400000Y-118977556D01*
X169394290Y-119035529D01*
X169379169Y-119085378D01*
X169354618Y-119131310D01*
X169321574Y-119171574D01*
X169281310Y-119204618D01*
X169235378Y-119229169D01*
X169185529Y-119244290D01*
X169127556Y-119250000D01*
X167872444Y-119250000D01*
X167814471Y-119244290D01*
X167764622Y-119229169D01*
X167718690Y-119204618D01*
X167678426Y-119171574D01*
X167645382Y-119131310D01*
X167620831Y-119085378D01*
X167605710Y-119035529D01*
X167600000Y-118977556D01*
X167600000Y-117972444D01*
X167605710Y-117914471D01*
X167620831Y-117864622D01*
X167645382Y-117818690D01*
X167678426Y-117778426D01*
X167718690Y-117745382D01*
X167764622Y-117720831D01*
X167814471Y-117705710D01*
X167872444Y-117700000D01*
X169127556Y-117700000D01*
X169185529Y-117705710D01*
G37*
G36*
X107255001Y-119070000D02*
G01*
X104855001Y-119070000D01*
X104855001Y-118120000D01*
X107255001Y-118120000D01*
X107255001Y-119070000D01*
G37*
G36*
X113855001Y-119070000D02*
G01*
X111455001Y-119070000D01*
X111455001Y-118120000D01*
X113855001Y-118120000D01*
X113855001Y-119070000D01*
G37*
G36*
X131779024Y-116253955D02*
G01*
X131811738Y-116263879D01*
X131841885Y-116279993D01*
X131868315Y-116301685D01*
X131890007Y-116328115D01*
X131906121Y-116358262D01*
X131916045Y-116390976D01*
X131920000Y-116431138D01*
X131920000Y-118068862D01*
X131916045Y-118109024D01*
X131906121Y-118141738D01*
X131890007Y-118171885D01*
X131868315Y-118198315D01*
X131841885Y-118220007D01*
X131811738Y-118236121D01*
X131779024Y-118246045D01*
X131738862Y-118250000D01*
X131151138Y-118250000D01*
X131110976Y-118246045D01*
X131078262Y-118236121D01*
X131048115Y-118220007D01*
X131021685Y-118198315D01*
X130999993Y-118171885D01*
X130983879Y-118141738D01*
X130973955Y-118109024D01*
X130970000Y-118068862D01*
X130970000Y-116431138D01*
X130973955Y-116390976D01*
X130983879Y-116358262D01*
X130999993Y-116328115D01*
X131021685Y-116301685D01*
X131048115Y-116279993D01*
X131078262Y-116263879D01*
X131110976Y-116253955D01*
X131151138Y-116250000D01*
X131738862Y-116250000D01*
X131779024Y-116253955D01*
G37*
G36*
X130509024Y-116253955D02*
G01*
X130541738Y-116263879D01*
X130571885Y-116279993D01*
X130598315Y-116301685D01*
X130620007Y-116328115D01*
X130636121Y-116358262D01*
X130646045Y-116390976D01*
X130650000Y-116431138D01*
X130650000Y-118068862D01*
X130646045Y-118109024D01*
X130636121Y-118141738D01*
X130620007Y-118171885D01*
X130598315Y-118198315D01*
X130571885Y-118220007D01*
X130541738Y-118236121D01*
X130509024Y-118246045D01*
X130468862Y-118250000D01*
X129881138Y-118250000D01*
X129840976Y-118246045D01*
X129808262Y-118236121D01*
X129778115Y-118220007D01*
X129751685Y-118198315D01*
X129729993Y-118171885D01*
X129713879Y-118141738D01*
X129703955Y-118109024D01*
X129700000Y-118068862D01*
X129700000Y-116431138D01*
X129703955Y-116390976D01*
X129713879Y-116358262D01*
X129729993Y-116328115D01*
X129751685Y-116301685D01*
X129778115Y-116279993D01*
X129808262Y-116263879D01*
X129840976Y-116253955D01*
X129881138Y-116250000D01*
X130468862Y-116250000D01*
X130509024Y-116253955D01*
G37*
G36*
X129239024Y-116253955D02*
G01*
X129271738Y-116263879D01*
X129301885Y-116279993D01*
X129328315Y-116301685D01*
X129350007Y-116328115D01*
X129366121Y-116358262D01*
X129376045Y-116390976D01*
X129380000Y-116431138D01*
X129380000Y-118068862D01*
X129376045Y-118109024D01*
X129366121Y-118141738D01*
X129350007Y-118171885D01*
X129328315Y-118198315D01*
X129301885Y-118220007D01*
X129271738Y-118236121D01*
X129239024Y-118246045D01*
X129198862Y-118250000D01*
X128611138Y-118250000D01*
X128570976Y-118246045D01*
X128538262Y-118236121D01*
X128508115Y-118220007D01*
X128481685Y-118198315D01*
X128459993Y-118171885D01*
X128443879Y-118141738D01*
X128433955Y-118109024D01*
X128430000Y-118068862D01*
X128430000Y-116431138D01*
X128433955Y-116390976D01*
X128443879Y-116358262D01*
X128459993Y-116328115D01*
X128481685Y-116301685D01*
X128508115Y-116279993D01*
X128538262Y-116263879D01*
X128570976Y-116253955D01*
X128611138Y-116250000D01*
X129198862Y-116250000D01*
X129239024Y-116253955D01*
G37*
G36*
X125429024Y-116253955D02*
G01*
X125461738Y-116263879D01*
X125491885Y-116279993D01*
X125518315Y-116301685D01*
X125540007Y-116328115D01*
X125556121Y-116358262D01*
X125566045Y-116390976D01*
X125570000Y-116431138D01*
X125570000Y-118068862D01*
X125566045Y-118109024D01*
X125556121Y-118141738D01*
X125540007Y-118171885D01*
X125518315Y-118198315D01*
X125491885Y-118220007D01*
X125461738Y-118236121D01*
X125429024Y-118246045D01*
X125388862Y-118250000D01*
X124801138Y-118250000D01*
X124760976Y-118246045D01*
X124728262Y-118236121D01*
X124698115Y-118220007D01*
X124671685Y-118198315D01*
X124649993Y-118171885D01*
X124633879Y-118141738D01*
X124623955Y-118109024D01*
X124620000Y-118068862D01*
X124620000Y-116431138D01*
X124623955Y-116390976D01*
X124633879Y-116358262D01*
X124649993Y-116328115D01*
X124671685Y-116301685D01*
X124698115Y-116279993D01*
X124728262Y-116263879D01*
X124760976Y-116253955D01*
X124801138Y-116250000D01*
X125388862Y-116250000D01*
X125429024Y-116253955D01*
G37*
G36*
X124159024Y-116253955D02*
G01*
X124191738Y-116263879D01*
X124221885Y-116279993D01*
X124248315Y-116301685D01*
X124270007Y-116328115D01*
X124286121Y-116358262D01*
X124296045Y-116390976D01*
X124300000Y-116431138D01*
X124300000Y-118068862D01*
X124296045Y-118109024D01*
X124286121Y-118141738D01*
X124270007Y-118171885D01*
X124248315Y-118198315D01*
X124221885Y-118220007D01*
X124191738Y-118236121D01*
X124159024Y-118246045D01*
X124118862Y-118250000D01*
X123531138Y-118250000D01*
X123490976Y-118246045D01*
X123458262Y-118236121D01*
X123428115Y-118220007D01*
X123401685Y-118198315D01*
X123379993Y-118171885D01*
X123363879Y-118141738D01*
X123353955Y-118109024D01*
X123350000Y-118068862D01*
X123350000Y-116431138D01*
X123353955Y-116390976D01*
X123363879Y-116358262D01*
X123379993Y-116328115D01*
X123401685Y-116301685D01*
X123428115Y-116279993D01*
X123458262Y-116263879D01*
X123490976Y-116253955D01*
X123531138Y-116250000D01*
X124118862Y-116250000D01*
X124159024Y-116253955D01*
G37*
G36*
X122889024Y-116253955D02*
G01*
X122921738Y-116263879D01*
X122951885Y-116279993D01*
X122978315Y-116301685D01*
X123000007Y-116328115D01*
X123016121Y-116358262D01*
X123026045Y-116390976D01*
X123030000Y-116431138D01*
X123030000Y-118068862D01*
X123026045Y-118109024D01*
X123016121Y-118141738D01*
X123000007Y-118171885D01*
X122978315Y-118198315D01*
X122951885Y-118220007D01*
X122921738Y-118236121D01*
X122889024Y-118246045D01*
X122848862Y-118250000D01*
X122261138Y-118250000D01*
X122220976Y-118246045D01*
X122188262Y-118236121D01*
X122158115Y-118220007D01*
X122131685Y-118198315D01*
X122109993Y-118171885D01*
X122093879Y-118141738D01*
X122083955Y-118109024D01*
X122080000Y-118068862D01*
X122080000Y-116431138D01*
X122083955Y-116390976D01*
X122093879Y-116358262D01*
X122109993Y-116328115D01*
X122131685Y-116301685D01*
X122158115Y-116279993D01*
X122188262Y-116263879D01*
X122220976Y-116253955D01*
X122261138Y-116250000D01*
X122848862Y-116250000D01*
X122889024Y-116253955D01*
G37*
G36*
X127969024Y-116253955D02*
G01*
X128001738Y-116263879D01*
X128031885Y-116279993D01*
X128058315Y-116301685D01*
X128080007Y-116328115D01*
X128096121Y-116358262D01*
X128106045Y-116390976D01*
X128110000Y-116431138D01*
X128110000Y-118068862D01*
X128106045Y-118109024D01*
X128096121Y-118141738D01*
X128080007Y-118171885D01*
X128058315Y-118198315D01*
X128031885Y-118220007D01*
X128001738Y-118236121D01*
X127969024Y-118246045D01*
X127928862Y-118250000D01*
X127341138Y-118250000D01*
X127300976Y-118246045D01*
X127268262Y-118236121D01*
X127238115Y-118220007D01*
X127211685Y-118198315D01*
X127189993Y-118171885D01*
X127173879Y-118141738D01*
X127163955Y-118109024D01*
X127160000Y-118068862D01*
X127160000Y-116431138D01*
X127163955Y-116390976D01*
X127173879Y-116358262D01*
X127189993Y-116328115D01*
X127211685Y-116301685D01*
X127238115Y-116279993D01*
X127268262Y-116263879D01*
X127300976Y-116253955D01*
X127341138Y-116250000D01*
X127928862Y-116250000D01*
X127969024Y-116253955D01*
G37*
G36*
X126699024Y-116253955D02*
G01*
X126731738Y-116263879D01*
X126761885Y-116279993D01*
X126788315Y-116301685D01*
X126810007Y-116328115D01*
X126826121Y-116358262D01*
X126836045Y-116390976D01*
X126840000Y-116431138D01*
X126840000Y-118068862D01*
X126836045Y-118109024D01*
X126826121Y-118141738D01*
X126810007Y-118171885D01*
X126788315Y-118198315D01*
X126761885Y-118220007D01*
X126731738Y-118236121D01*
X126699024Y-118246045D01*
X126658862Y-118250000D01*
X126071138Y-118250000D01*
X126030976Y-118246045D01*
X125998262Y-118236121D01*
X125968115Y-118220007D01*
X125941685Y-118198315D01*
X125919993Y-118171885D01*
X125903879Y-118141738D01*
X125893955Y-118109024D01*
X125890000Y-118068862D01*
X125890000Y-116431138D01*
X125893955Y-116390976D01*
X125903879Y-116358262D01*
X125919993Y-116328115D01*
X125941685Y-116301685D01*
X125968115Y-116279993D01*
X125998262Y-116263879D01*
X126030976Y-116253955D01*
X126071138Y-116250000D01*
X126658862Y-116250000D01*
X126699024Y-116253955D01*
G37*
G36*
X169185529Y-115755710D02*
G01*
X169235378Y-115770831D01*
X169281310Y-115795382D01*
X169321574Y-115828426D01*
X169354618Y-115868690D01*
X169379169Y-115914622D01*
X169394290Y-115964471D01*
X169400000Y-116022444D01*
X169400000Y-117027556D01*
X169394290Y-117085529D01*
X169379169Y-117135378D01*
X169354618Y-117181310D01*
X169321574Y-117221574D01*
X169281310Y-117254618D01*
X169235378Y-117279169D01*
X169185529Y-117294290D01*
X169127556Y-117300000D01*
X167872444Y-117300000D01*
X167814471Y-117294290D01*
X167764622Y-117279169D01*
X167718690Y-117254618D01*
X167678426Y-117221574D01*
X167645382Y-117181310D01*
X167620831Y-117135378D01*
X167605710Y-117085529D01*
X167600000Y-117027556D01*
X167600000Y-116022444D01*
X167605710Y-115964471D01*
X167620831Y-115914622D01*
X167645382Y-115868690D01*
X167678426Y-115828426D01*
X167718690Y-115795382D01*
X167764622Y-115770831D01*
X167814471Y-115755710D01*
X167872444Y-115750000D01*
X169127556Y-115750000D01*
X169185529Y-115755710D01*
G37*
G36*
X154185529Y-115730710D02*
G01*
X154235378Y-115745831D01*
X154281310Y-115770382D01*
X154321574Y-115803426D01*
X154354618Y-115843690D01*
X154379169Y-115889622D01*
X154394290Y-115939471D01*
X154400000Y-115997444D01*
X154400000Y-117002556D01*
X154394290Y-117060529D01*
X154379169Y-117110378D01*
X154354618Y-117156310D01*
X154321574Y-117196574D01*
X154281310Y-117229618D01*
X154235378Y-117254169D01*
X154185529Y-117269290D01*
X154127556Y-117275000D01*
X152872444Y-117275000D01*
X152814471Y-117269290D01*
X152764622Y-117254169D01*
X152718690Y-117229618D01*
X152678426Y-117196574D01*
X152645382Y-117156310D01*
X152620831Y-117110378D01*
X152605710Y-117060529D01*
X152600000Y-117002556D01*
X152600000Y-115997444D01*
X152605710Y-115939471D01*
X152620831Y-115889622D01*
X152645382Y-115843690D01*
X152678426Y-115803426D01*
X152718690Y-115770382D01*
X152764622Y-115745831D01*
X152814471Y-115730710D01*
X152872444Y-115725000D01*
X154127556Y-115725000D01*
X154185529Y-115730710D01*
G37*
G36*
X114085529Y-114605710D02*
G01*
X114135378Y-114620831D01*
X114181310Y-114645382D01*
X114221574Y-114678426D01*
X114254618Y-114718690D01*
X114279169Y-114764622D01*
X114294290Y-114814471D01*
X114300000Y-114872444D01*
X114300000Y-116127556D01*
X114294290Y-116185529D01*
X114279169Y-116235378D01*
X114254618Y-116281310D01*
X114221574Y-116321574D01*
X114181310Y-116354618D01*
X114135378Y-116379169D01*
X114085529Y-116394290D01*
X114027556Y-116400000D01*
X113022444Y-116400000D01*
X112964471Y-116394290D01*
X112914622Y-116379169D01*
X112868690Y-116354618D01*
X112828426Y-116321574D01*
X112795382Y-116281310D01*
X112770831Y-116235378D01*
X112755710Y-116185529D01*
X112750000Y-116127556D01*
X112750000Y-114872444D01*
X112755710Y-114814471D01*
X112770831Y-114764622D01*
X112795382Y-114718690D01*
X112828426Y-114678426D01*
X112868690Y-114645382D01*
X112914622Y-114620831D01*
X112964471Y-114605710D01*
X113022444Y-114600000D01*
X114027556Y-114600000D01*
X114085529Y-114605710D01*
G37*
G36*
X112035529Y-114605710D02*
G01*
X112085378Y-114620831D01*
X112131310Y-114645382D01*
X112171574Y-114678426D01*
X112204618Y-114718690D01*
X112229169Y-114764622D01*
X112244290Y-114814471D01*
X112250000Y-114872444D01*
X112250000Y-116127556D01*
X112244290Y-116185529D01*
X112229169Y-116235378D01*
X112204618Y-116281310D01*
X112171574Y-116321574D01*
X112131310Y-116354618D01*
X112085378Y-116379169D01*
X112035529Y-116394290D01*
X111977556Y-116400000D01*
X110972444Y-116400000D01*
X110914471Y-116394290D01*
X110864622Y-116379169D01*
X110818690Y-116354618D01*
X110778426Y-116321574D01*
X110745382Y-116281310D01*
X110720831Y-116235378D01*
X110705710Y-116185529D01*
X110700000Y-116127556D01*
X110700000Y-114872444D01*
X110705710Y-114814471D01*
X110720831Y-114764622D01*
X110745382Y-114718690D01*
X110778426Y-114678426D01*
X110818690Y-114645382D01*
X110864622Y-114620831D01*
X110914471Y-114605710D01*
X110972444Y-114600000D01*
X111977556Y-114600000D01*
X112035529Y-114605710D01*
G37*
G36*
X173020240Y-113977273D02*
G01*
X173213802Y-114057449D01*
X173388005Y-114173848D01*
X173536152Y-114321995D01*
X173652551Y-114496198D01*
X173732727Y-114689760D01*
X173773600Y-114895243D01*
X173773600Y-115104757D01*
X173732727Y-115310240D01*
X173652551Y-115503802D01*
X173536152Y-115678005D01*
X173388005Y-115826152D01*
X173213802Y-115942551D01*
X173020240Y-116022727D01*
X172814757Y-116063600D01*
X172605243Y-116063600D01*
X172399760Y-116022727D01*
X172206198Y-115942551D01*
X172031995Y-115826152D01*
X171883848Y-115678005D01*
X171767449Y-115503802D01*
X171687273Y-115310240D01*
X171646400Y-115104757D01*
X171646400Y-114895243D01*
X171687273Y-114689760D01*
X171767449Y-114496198D01*
X171883848Y-114321995D01*
X172031995Y-114173848D01*
X172206198Y-114057449D01*
X172399760Y-113977273D01*
X172605243Y-113936400D01*
X172814757Y-113936400D01*
X173020240Y-113977273D01*
G37*
G36*
X176313600Y-116063600D02*
G01*
X174186400Y-116063600D01*
X174186400Y-113936400D01*
X176313600Y-113936400D01*
X176313600Y-116063600D01*
G37*
G36*
X169185529Y-113705710D02*
G01*
X169235378Y-113720831D01*
X169281310Y-113745382D01*
X169321574Y-113778426D01*
X169354618Y-113818690D01*
X169379169Y-113864622D01*
X169394290Y-113914471D01*
X169400000Y-113972444D01*
X169400000Y-114977556D01*
X169394290Y-115035529D01*
X169379169Y-115085378D01*
X169354618Y-115131310D01*
X169321574Y-115171574D01*
X169281310Y-115204618D01*
X169235378Y-115229169D01*
X169185529Y-115244290D01*
X169127556Y-115250000D01*
X167872444Y-115250000D01*
X167814471Y-115244290D01*
X167764622Y-115229169D01*
X167718690Y-115204618D01*
X167678426Y-115171574D01*
X167645382Y-115131310D01*
X167620831Y-115085378D01*
X167605710Y-115035529D01*
X167600000Y-114977556D01*
X167600000Y-113972444D01*
X167605710Y-113914471D01*
X167620831Y-113864622D01*
X167645382Y-113818690D01*
X167678426Y-113778426D01*
X167718690Y-113745382D01*
X167764622Y-113720831D01*
X167814471Y-113705710D01*
X167872444Y-113700000D01*
X169127556Y-113700000D01*
X169185529Y-113705710D01*
G37*
G36*
X154185529Y-113680710D02*
G01*
X154235378Y-113695831D01*
X154281310Y-113720382D01*
X154321574Y-113753426D01*
X154354618Y-113793690D01*
X154379169Y-113839622D01*
X154394290Y-113889471D01*
X154400000Y-113947444D01*
X154400000Y-114952556D01*
X154394290Y-115010529D01*
X154379169Y-115060378D01*
X154354618Y-115106310D01*
X154321574Y-115146574D01*
X154281310Y-115179618D01*
X154235378Y-115204169D01*
X154185529Y-115219290D01*
X154127556Y-115225000D01*
X152872444Y-115225000D01*
X152814471Y-115219290D01*
X152764622Y-115204169D01*
X152718690Y-115179618D01*
X152678426Y-115146574D01*
X152645382Y-115106310D01*
X152620831Y-115060378D01*
X152605710Y-115010529D01*
X152600000Y-114952556D01*
X152600000Y-113947444D01*
X152605710Y-113889471D01*
X152620831Y-113839622D01*
X152645382Y-113793690D01*
X152678426Y-113753426D01*
X152718690Y-113720382D01*
X152764622Y-113695831D01*
X152814471Y-113680710D01*
X152872444Y-113675000D01*
X154127556Y-113675000D01*
X154185529Y-113680710D01*
G37*
G36*
X166000000Y-114880000D02*
G01*
X163600000Y-114880000D01*
X163600000Y-113930000D01*
X166000000Y-113930000D01*
X166000000Y-114880000D01*
G37*
G36*
X159400000Y-114880000D02*
G01*
X157000000Y-114880000D01*
X157000000Y-113930000D01*
X159400000Y-113930000D01*
X159400000Y-114880000D01*
G37*
G36*
X159400000Y-113610000D02*
G01*
X157000000Y-113610000D01*
X157000000Y-112660000D01*
X159400000Y-112660000D01*
X159400000Y-113610000D01*
G37*
G36*
X166000000Y-113610000D02*
G01*
X163600000Y-113610000D01*
X163600000Y-112660000D01*
X166000000Y-112660000D01*
X166000000Y-113610000D01*
G37*
G36*
X173020240Y-111437273D02*
G01*
X173213802Y-111517449D01*
X173388005Y-111633848D01*
X173536152Y-111781995D01*
X173652551Y-111956198D01*
X173732727Y-112149760D01*
X173773600Y-112355243D01*
X173773600Y-112564757D01*
X173732727Y-112770240D01*
X173652551Y-112963802D01*
X173536152Y-113138005D01*
X173388005Y-113286152D01*
X173213802Y-113402551D01*
X173020240Y-113482727D01*
X172814757Y-113523600D01*
X172605243Y-113523600D01*
X172399760Y-113482727D01*
X172206198Y-113402551D01*
X172031995Y-113286152D01*
X171883848Y-113138005D01*
X171767449Y-112963802D01*
X171687273Y-112770240D01*
X171646400Y-112564757D01*
X171646400Y-112355243D01*
X171687273Y-112149760D01*
X171767449Y-111956198D01*
X171883848Y-111781995D01*
X172031995Y-111633848D01*
X172206198Y-111517449D01*
X172399760Y-111437273D01*
X172605243Y-111396400D01*
X172814757Y-111396400D01*
X173020240Y-111437273D01*
G37*
G36*
X175560240Y-111437273D02*
G01*
X175753802Y-111517449D01*
X175928005Y-111633848D01*
X176076152Y-111781995D01*
X176192551Y-111956198D01*
X176272727Y-112149760D01*
X176313600Y-112355243D01*
X176313600Y-112564757D01*
X176272727Y-112770240D01*
X176192551Y-112963802D01*
X176076152Y-113138005D01*
X175928005Y-113286152D01*
X175753802Y-113402551D01*
X175560240Y-113482727D01*
X175354757Y-113523600D01*
X175145243Y-113523600D01*
X174939760Y-113482727D01*
X174746198Y-113402551D01*
X174571995Y-113286152D01*
X174423848Y-113138005D01*
X174307449Y-112963802D01*
X174227273Y-112770240D01*
X174186400Y-112564757D01*
X174186400Y-112355243D01*
X174227273Y-112149760D01*
X174307449Y-111956198D01*
X174423848Y-111781995D01*
X174571995Y-111633848D01*
X174746198Y-111517449D01*
X174939760Y-111437273D01*
X175145243Y-111396400D01*
X175354757Y-111396400D01*
X175560240Y-111437273D01*
G37*
G36*
X154185529Y-111755710D02*
G01*
X154235378Y-111770831D01*
X154281310Y-111795382D01*
X154321574Y-111828426D01*
X154354618Y-111868690D01*
X154379169Y-111914622D01*
X154394290Y-111964471D01*
X154400000Y-112022444D01*
X154400000Y-113027556D01*
X154394290Y-113085529D01*
X154379169Y-113135378D01*
X154354618Y-113181310D01*
X154321574Y-113221574D01*
X154281310Y-113254618D01*
X154235378Y-113279169D01*
X154185529Y-113294290D01*
X154127556Y-113300000D01*
X152872444Y-113300000D01*
X152814471Y-113294290D01*
X152764622Y-113279169D01*
X152718690Y-113254618D01*
X152678426Y-113221574D01*
X152645382Y-113181310D01*
X152620831Y-113135378D01*
X152605710Y-113085529D01*
X152600000Y-113027556D01*
X152600000Y-112022444D01*
X152605710Y-111964471D01*
X152620831Y-111914622D01*
X152645382Y-111868690D01*
X152678426Y-111828426D01*
X152718690Y-111795382D01*
X152764622Y-111770831D01*
X152814471Y-111755710D01*
X152872444Y-111750000D01*
X154127556Y-111750000D01*
X154185529Y-111755710D01*
G37*
G36*
X169185529Y-111730710D02*
G01*
X169235378Y-111745831D01*
X169281310Y-111770382D01*
X169321574Y-111803426D01*
X169354618Y-111843690D01*
X169379169Y-111889622D01*
X169394290Y-111939471D01*
X169400000Y-111997444D01*
X169400000Y-113002556D01*
X169394290Y-113060529D01*
X169379169Y-113110378D01*
X169354618Y-113156310D01*
X169321574Y-113196574D01*
X169281310Y-113229618D01*
X169235378Y-113254169D01*
X169185529Y-113269290D01*
X169127556Y-113275000D01*
X167872444Y-113275000D01*
X167814471Y-113269290D01*
X167764622Y-113254169D01*
X167718690Y-113229618D01*
X167678426Y-113196574D01*
X167645382Y-113156310D01*
X167620831Y-113110378D01*
X167605710Y-113060529D01*
X167600000Y-113002556D01*
X167600000Y-111997444D01*
X167605710Y-111939471D01*
X167620831Y-111889622D01*
X167645382Y-111843690D01*
X167678426Y-111803426D01*
X167718690Y-111770382D01*
X167764622Y-111745831D01*
X167814471Y-111730710D01*
X167872444Y-111725000D01*
X169127556Y-111725000D01*
X169185529Y-111730710D01*
G37*
G36*
X108705835Y-110340193D02*
G01*
X108903761Y-110400233D01*
X108903764Y-110400234D01*
X109018204Y-110461404D01*
X109086171Y-110497733D01*
X109107993Y-110515642D01*
X109246055Y-110628945D01*
X109377268Y-110788830D01*
X109474766Y-110971235D01*
X109474766Y-110971236D01*
X109474767Y-110971238D01*
X109534807Y-111169164D01*
X109537780Y-111199351D01*
X109550000Y-111323420D01*
X109550000Y-111676579D01*
X109543218Y-111745437D01*
X109534807Y-111830835D01*
X109496229Y-111958009D01*
X109474766Y-112028764D01*
X109410092Y-112149759D01*
X109377267Y-112211171D01*
X109343087Y-112252819D01*
X109246055Y-112371055D01*
X109086170Y-112502268D01*
X108903765Y-112599766D01*
X108903762Y-112599767D01*
X108705836Y-112659807D01*
X108500000Y-112680080D01*
X108294165Y-112659807D01*
X108096239Y-112599767D01*
X108096236Y-112599766D01*
X107913831Y-112502268D01*
X107753946Y-112371054D01*
X107622732Y-112211170D01*
X107525234Y-112028765D01*
X107525233Y-112028761D01*
X107465193Y-111830836D01*
X107455407Y-111731475D01*
X107450000Y-111676580D01*
X107450000Y-111323421D01*
X107460256Y-111219290D01*
X107465193Y-111169165D01*
X107525233Y-110971239D01*
X107525234Y-110971236D01*
X107622732Y-110788831D01*
X107622733Y-110788829D01*
X107657757Y-110746152D01*
X107753945Y-110628945D01*
X107913830Y-110497732D01*
X108096235Y-110400234D01*
X108096238Y-110400233D01*
X108294164Y-110340193D01*
X108500000Y-110319920D01*
X108705835Y-110340193D01*
G37*
G36*
X111205835Y-110340193D02*
G01*
X111403761Y-110400233D01*
X111403764Y-110400234D01*
X111518204Y-110461404D01*
X111586171Y-110497733D01*
X111607993Y-110515642D01*
X111746055Y-110628945D01*
X111877268Y-110788830D01*
X111974766Y-110971235D01*
X111974766Y-110971236D01*
X111974767Y-110971238D01*
X112034807Y-111169164D01*
X112037780Y-111199351D01*
X112050000Y-111323420D01*
X112050000Y-111676579D01*
X112043218Y-111745437D01*
X112034807Y-111830835D01*
X111996229Y-111958009D01*
X111974766Y-112028764D01*
X111910092Y-112149759D01*
X111877267Y-112211171D01*
X111843087Y-112252819D01*
X111746055Y-112371055D01*
X111586170Y-112502268D01*
X111403765Y-112599766D01*
X111403762Y-112599767D01*
X111205836Y-112659807D01*
X111000000Y-112680080D01*
X110794165Y-112659807D01*
X110596239Y-112599767D01*
X110596236Y-112599766D01*
X110413831Y-112502268D01*
X110253946Y-112371054D01*
X110122732Y-112211170D01*
X110025234Y-112028765D01*
X110025233Y-112028761D01*
X109965193Y-111830836D01*
X109955407Y-111731475D01*
X109950000Y-111676580D01*
X109950000Y-111323421D01*
X109960256Y-111219290D01*
X109965193Y-111169165D01*
X110025233Y-110971239D01*
X110025234Y-110971236D01*
X110122732Y-110788831D01*
X110122733Y-110788829D01*
X110157757Y-110746152D01*
X110253945Y-110628945D01*
X110413830Y-110497732D01*
X110596235Y-110400234D01*
X110596238Y-110400233D01*
X110794164Y-110340193D01*
X111000000Y-110319920D01*
X111205835Y-110340193D01*
G37*
G36*
X106872326Y-110329831D02*
G01*
X106913596Y-110342350D01*
X106951631Y-110362681D01*
X106984964Y-110390036D01*
X107012319Y-110423369D01*
X107032650Y-110461404D01*
X107045169Y-110502674D01*
X107050000Y-110551727D01*
X107050000Y-112448273D01*
X107045169Y-112497326D01*
X107032650Y-112538596D01*
X107012319Y-112576631D01*
X106984964Y-112609964D01*
X106951631Y-112637319D01*
X106913596Y-112657650D01*
X106872326Y-112670169D01*
X106823273Y-112675000D01*
X105176727Y-112675000D01*
X105127674Y-112670169D01*
X105086404Y-112657650D01*
X105048369Y-112637319D01*
X105015036Y-112609964D01*
X104987681Y-112576631D01*
X104967350Y-112538596D01*
X104954831Y-112497326D01*
X104950000Y-112448273D01*
X104950000Y-110551727D01*
X104954831Y-110502674D01*
X104967350Y-110461404D01*
X104987681Y-110423369D01*
X105015036Y-110390036D01*
X105048369Y-110362681D01*
X105086404Y-110342350D01*
X105127674Y-110329831D01*
X105176727Y-110325000D01*
X106823273Y-110325000D01*
X106872326Y-110329831D01*
G37*
G36*
X159400000Y-112340000D02*
G01*
X157000000Y-112340000D01*
X157000000Y-111390000D01*
X159400000Y-111390000D01*
X159400000Y-112340000D01*
G37*
G36*
X166000000Y-112340000D02*
G01*
X163600000Y-112340000D01*
X163600000Y-111390000D01*
X166000000Y-111390000D01*
X166000000Y-112340000D01*
G37*
G36*
X130509024Y-109753955D02*
G01*
X130541738Y-109763879D01*
X130571885Y-109779993D01*
X130598315Y-109801685D01*
X130620007Y-109828115D01*
X130636121Y-109858262D01*
X130646045Y-109890976D01*
X130650000Y-109931138D01*
X130650000Y-111568862D01*
X130646045Y-111609024D01*
X130636121Y-111641738D01*
X130620007Y-111671885D01*
X130598315Y-111698315D01*
X130571885Y-111720007D01*
X130541738Y-111736121D01*
X130509024Y-111746045D01*
X130468862Y-111750000D01*
X129881138Y-111750000D01*
X129840976Y-111746045D01*
X129808262Y-111736121D01*
X129778115Y-111720007D01*
X129751685Y-111698315D01*
X129729993Y-111671885D01*
X129713879Y-111641738D01*
X129703955Y-111609024D01*
X129700000Y-111568862D01*
X129700000Y-109931138D01*
X129703955Y-109890976D01*
X129713879Y-109858262D01*
X129729993Y-109828115D01*
X129751685Y-109801685D01*
X129778115Y-109779993D01*
X129808262Y-109763879D01*
X129840976Y-109753955D01*
X129881138Y-109750000D01*
X130468862Y-109750000D01*
X130509024Y-109753955D01*
G37*
G36*
X131779024Y-109753955D02*
G01*
X131811738Y-109763879D01*
X131841885Y-109779993D01*
X131868315Y-109801685D01*
X131890007Y-109828115D01*
X131906121Y-109858262D01*
X131916045Y-109890976D01*
X131920000Y-109931138D01*
X131920000Y-111568862D01*
X131916045Y-111609024D01*
X131906121Y-111641738D01*
X131890007Y-111671885D01*
X131868315Y-111698315D01*
X131841885Y-111720007D01*
X131811738Y-111736121D01*
X131779024Y-111746045D01*
X131738862Y-111750000D01*
X131151138Y-111750000D01*
X131110976Y-111746045D01*
X131078262Y-111736121D01*
X131048115Y-111720007D01*
X131021685Y-111698315D01*
X130999993Y-111671885D01*
X130983879Y-111641738D01*
X130973955Y-111609024D01*
X130970000Y-111568862D01*
X130970000Y-109931138D01*
X130973955Y-109890976D01*
X130983879Y-109858262D01*
X130999993Y-109828115D01*
X131021685Y-109801685D01*
X131048115Y-109779993D01*
X131078262Y-109763879D01*
X131110976Y-109753955D01*
X131151138Y-109750000D01*
X131738862Y-109750000D01*
X131779024Y-109753955D01*
G37*
G36*
X122889024Y-109753955D02*
G01*
X122921738Y-109763879D01*
X122951885Y-109779993D01*
X122978315Y-109801685D01*
X123000007Y-109828115D01*
X123016121Y-109858262D01*
X123026045Y-109890976D01*
X123030000Y-109931138D01*
X123030000Y-111568862D01*
X123026045Y-111609024D01*
X123016121Y-111641738D01*
X123000007Y-111671885D01*
X122978315Y-111698315D01*
X122951885Y-111720007D01*
X122921738Y-111736121D01*
X122889024Y-111746045D01*
X122848862Y-111750000D01*
X122261138Y-111750000D01*
X122220976Y-111746045D01*
X122188262Y-111736121D01*
X122158115Y-111720007D01*
X122131685Y-111698315D01*
X122109993Y-111671885D01*
X122093879Y-111641738D01*
X122083955Y-111609024D01*
X122080000Y-111568862D01*
X122080000Y-109931138D01*
X122083955Y-109890976D01*
X122093879Y-109858262D01*
X122109993Y-109828115D01*
X122131685Y-109801685D01*
X122158115Y-109779993D01*
X122188262Y-109763879D01*
X122220976Y-109753955D01*
X122261138Y-109750000D01*
X122848862Y-109750000D01*
X122889024Y-109753955D01*
G37*
G36*
X129239024Y-109753955D02*
G01*
X129271738Y-109763879D01*
X129301885Y-109779993D01*
X129328315Y-109801685D01*
X129350007Y-109828115D01*
X129366121Y-109858262D01*
X129376045Y-109890976D01*
X129380000Y-109931138D01*
X129380000Y-111568862D01*
X129376045Y-111609024D01*
X129366121Y-111641738D01*
X129350007Y-111671885D01*
X129328315Y-111698315D01*
X129301885Y-111720007D01*
X129271738Y-111736121D01*
X129239024Y-111746045D01*
X129198862Y-111750000D01*
X128611138Y-111750000D01*
X128570976Y-111746045D01*
X128538262Y-111736121D01*
X128508115Y-111720007D01*
X128481685Y-111698315D01*
X128459993Y-111671885D01*
X128443879Y-111641738D01*
X128433955Y-111609024D01*
X128430000Y-111568862D01*
X128430000Y-109931138D01*
X128433955Y-109890976D01*
X128443879Y-109858262D01*
X128459993Y-109828115D01*
X128481685Y-109801685D01*
X128508115Y-109779993D01*
X128538262Y-109763879D01*
X128570976Y-109753955D01*
X128611138Y-109750000D01*
X129198862Y-109750000D01*
X129239024Y-109753955D01*
G37*
G36*
X126699024Y-109753955D02*
G01*
X126731738Y-109763879D01*
X126761885Y-109779993D01*
X126788315Y-109801685D01*
X126810007Y-109828115D01*
X126826121Y-109858262D01*
X126836045Y-109890976D01*
X126840000Y-109931138D01*
X126840000Y-111568862D01*
X126836045Y-111609024D01*
X126826121Y-111641738D01*
X126810007Y-111671885D01*
X126788315Y-111698315D01*
X126761885Y-111720007D01*
X126731738Y-111736121D01*
X126699024Y-111746045D01*
X126658862Y-111750000D01*
X126071138Y-111750000D01*
X126030976Y-111746045D01*
X125998262Y-111736121D01*
X125968115Y-111720007D01*
X125941685Y-111698315D01*
X125919993Y-111671885D01*
X125903879Y-111641738D01*
X125893955Y-111609024D01*
X125890000Y-111568862D01*
X125890000Y-109931138D01*
X125893955Y-109890976D01*
X125903879Y-109858262D01*
X125919993Y-109828115D01*
X125941685Y-109801685D01*
X125968115Y-109779993D01*
X125998262Y-109763879D01*
X126030976Y-109753955D01*
X126071138Y-109750000D01*
X126658862Y-109750000D01*
X126699024Y-109753955D01*
G37*
G36*
X124159024Y-109753955D02*
G01*
X124191738Y-109763879D01*
X124221885Y-109779993D01*
X124248315Y-109801685D01*
X124270007Y-109828115D01*
X124286121Y-109858262D01*
X124296045Y-109890976D01*
X124300000Y-109931138D01*
X124300000Y-111568862D01*
X124296045Y-111609024D01*
X124286121Y-111641738D01*
X124270007Y-111671885D01*
X124248315Y-111698315D01*
X124221885Y-111720007D01*
X124191738Y-111736121D01*
X124159024Y-111746045D01*
X124118862Y-111750000D01*
X123531138Y-111750000D01*
X123490976Y-111746045D01*
X123458262Y-111736121D01*
X123428115Y-111720007D01*
X123401685Y-111698315D01*
X123379993Y-111671885D01*
X123363879Y-111641738D01*
X123353955Y-111609024D01*
X123350000Y-111568862D01*
X123350000Y-109931138D01*
X123353955Y-109890976D01*
X123363879Y-109858262D01*
X123379993Y-109828115D01*
X123401685Y-109801685D01*
X123428115Y-109779993D01*
X123458262Y-109763879D01*
X123490976Y-109753955D01*
X123531138Y-109750000D01*
X124118862Y-109750000D01*
X124159024Y-109753955D01*
G37*
G36*
X125429024Y-109753955D02*
G01*
X125461738Y-109763879D01*
X125491885Y-109779993D01*
X125518315Y-109801685D01*
X125540007Y-109828115D01*
X125556121Y-109858262D01*
X125566045Y-109890976D01*
X125570000Y-109931138D01*
X125570000Y-111568862D01*
X125566045Y-111609024D01*
X125556121Y-111641738D01*
X125540007Y-111671885D01*
X125518315Y-111698315D01*
X125491885Y-111720007D01*
X125461738Y-111736121D01*
X125429024Y-111746045D01*
X125388862Y-111750000D01*
X124801138Y-111750000D01*
X124760976Y-111746045D01*
X124728262Y-111736121D01*
X124698115Y-111720007D01*
X124671685Y-111698315D01*
X124649993Y-111671885D01*
X124633879Y-111641738D01*
X124623955Y-111609024D01*
X124620000Y-111568862D01*
X124620000Y-109931138D01*
X124623955Y-109890976D01*
X124633879Y-109858262D01*
X124649993Y-109828115D01*
X124671685Y-109801685D01*
X124698115Y-109779993D01*
X124728262Y-109763879D01*
X124760976Y-109753955D01*
X124801138Y-109750000D01*
X125388862Y-109750000D01*
X125429024Y-109753955D01*
G37*
G36*
X127969024Y-109753955D02*
G01*
X128001738Y-109763879D01*
X128031885Y-109779993D01*
X128058315Y-109801685D01*
X128080007Y-109828115D01*
X128096121Y-109858262D01*
X128106045Y-109890976D01*
X128110000Y-109931138D01*
X128110000Y-111568862D01*
X128106045Y-111609024D01*
X128096121Y-111641738D01*
X128080007Y-111671885D01*
X128058315Y-111698315D01*
X128031885Y-111720007D01*
X128001738Y-111736121D01*
X127969024Y-111746045D01*
X127928862Y-111750000D01*
X127341138Y-111750000D01*
X127300976Y-111746045D01*
X127268262Y-111736121D01*
X127238115Y-111720007D01*
X127211685Y-111698315D01*
X127189993Y-111671885D01*
X127173879Y-111641738D01*
X127163955Y-111609024D01*
X127160000Y-111568862D01*
X127160000Y-109931138D01*
X127163955Y-109890976D01*
X127173879Y-109858262D01*
X127189993Y-109828115D01*
X127211685Y-109801685D01*
X127238115Y-109779993D01*
X127268262Y-109763879D01*
X127300976Y-109753955D01*
X127341138Y-109750000D01*
X127928862Y-109750000D01*
X127969024Y-109753955D01*
G37*
G36*
X154185529Y-109705710D02*
G01*
X154235378Y-109720831D01*
X154281310Y-109745382D01*
X154321574Y-109778426D01*
X154354618Y-109818690D01*
X154379169Y-109864622D01*
X154394290Y-109914471D01*
X154400000Y-109972444D01*
X154400000Y-110977556D01*
X154394290Y-111035529D01*
X154379169Y-111085378D01*
X154354618Y-111131310D01*
X154321574Y-111171574D01*
X154281310Y-111204618D01*
X154235378Y-111229169D01*
X154185529Y-111244290D01*
X154127556Y-111250000D01*
X152872444Y-111250000D01*
X152814471Y-111244290D01*
X152764622Y-111229169D01*
X152718690Y-111204618D01*
X152678426Y-111171574D01*
X152645382Y-111131310D01*
X152620831Y-111085378D01*
X152605710Y-111035529D01*
X152600000Y-110977556D01*
X152600000Y-109972444D01*
X152605710Y-109914471D01*
X152620831Y-109864622D01*
X152645382Y-109818690D01*
X152678426Y-109778426D01*
X152718690Y-109745382D01*
X152764622Y-109720831D01*
X152814471Y-109705710D01*
X152872444Y-109700000D01*
X154127556Y-109700000D01*
X154185529Y-109705710D01*
G37*
G36*
X169185529Y-109680710D02*
G01*
X169235378Y-109695831D01*
X169281310Y-109720382D01*
X169321574Y-109753426D01*
X169354618Y-109793690D01*
X169379169Y-109839622D01*
X169394290Y-109889471D01*
X169400000Y-109947444D01*
X169400000Y-110952556D01*
X169394290Y-111010529D01*
X169379169Y-111060378D01*
X169354618Y-111106310D01*
X169321574Y-111146574D01*
X169281310Y-111179618D01*
X169235378Y-111204169D01*
X169185529Y-111219290D01*
X169127556Y-111225000D01*
X167872444Y-111225000D01*
X167814471Y-111219290D01*
X167764622Y-111204169D01*
X167718690Y-111179618D01*
X167678426Y-111146574D01*
X167645382Y-111106310D01*
X167620831Y-111060378D01*
X167605710Y-111010529D01*
X167600000Y-110952556D01*
X167600000Y-109947444D01*
X167605710Y-109889471D01*
X167620831Y-109839622D01*
X167645382Y-109793690D01*
X167678426Y-109753426D01*
X167718690Y-109720382D01*
X167764622Y-109695831D01*
X167814471Y-109680710D01*
X167872444Y-109675000D01*
X169127556Y-109675000D01*
X169185529Y-109680710D01*
G37*
G36*
X159400000Y-111070000D02*
G01*
X157000000Y-111070000D01*
X157000000Y-110120000D01*
X159400000Y-110120000D01*
X159400000Y-111070000D01*
G37*
G36*
X166000000Y-111070000D02*
G01*
X163600000Y-111070000D01*
X163600000Y-110120000D01*
X166000000Y-110120000D01*
X166000000Y-111070000D01*
G37*
G36*
X175560240Y-108897273D02*
G01*
X175753802Y-108977449D01*
X175928005Y-109093848D01*
X176076152Y-109241995D01*
X176192551Y-109416198D01*
X176272727Y-109609760D01*
X176313600Y-109815243D01*
X176313600Y-110024757D01*
X176272727Y-110230240D01*
X176192551Y-110423802D01*
X176076152Y-110598005D01*
X175928005Y-110746152D01*
X175753802Y-110862551D01*
X175560240Y-110942727D01*
X175354757Y-110983600D01*
X175145243Y-110983600D01*
X174939760Y-110942727D01*
X174746198Y-110862551D01*
X174571995Y-110746152D01*
X174423848Y-110598005D01*
X174307449Y-110423802D01*
X174227273Y-110230240D01*
X174186400Y-110024757D01*
X174186400Y-109815243D01*
X174227273Y-109609760D01*
X174307449Y-109416198D01*
X174423848Y-109241995D01*
X174571995Y-109093848D01*
X174746198Y-108977449D01*
X174939760Y-108897273D01*
X175145243Y-108856400D01*
X175354757Y-108856400D01*
X175560240Y-108897273D01*
G37*
G36*
X173020240Y-108897273D02*
G01*
X173213802Y-108977449D01*
X173388005Y-109093848D01*
X173536152Y-109241995D01*
X173652551Y-109416198D01*
X173732727Y-109609760D01*
X173773600Y-109815243D01*
X173773600Y-110024757D01*
X173732727Y-110230240D01*
X173652551Y-110423802D01*
X173536152Y-110598005D01*
X173388005Y-110746152D01*
X173213802Y-110862551D01*
X173020240Y-110942727D01*
X172814757Y-110983600D01*
X172605243Y-110983600D01*
X172399760Y-110942727D01*
X172206198Y-110862551D01*
X172031995Y-110746152D01*
X171883848Y-110598005D01*
X171767449Y-110423802D01*
X171687273Y-110230240D01*
X171646400Y-110024757D01*
X171646400Y-109815243D01*
X171687273Y-109609760D01*
X171767449Y-109416198D01*
X171883848Y-109241995D01*
X172031995Y-109093848D01*
X172206198Y-108977449D01*
X172399760Y-108897273D01*
X172605243Y-108856400D01*
X172814757Y-108856400D01*
X173020240Y-108897273D01*
G37*
G36*
X173020240Y-106357273D02*
G01*
X173213802Y-106437449D01*
X173388005Y-106553848D01*
X173536152Y-106701995D01*
X173652551Y-106876198D01*
X173732727Y-107069760D01*
X173773600Y-107275243D01*
X173773600Y-107484757D01*
X173732727Y-107690240D01*
X173652551Y-107883802D01*
X173536152Y-108058005D01*
X173388005Y-108206152D01*
X173213802Y-108322551D01*
X173020240Y-108402727D01*
X172814757Y-108443600D01*
X172605243Y-108443600D01*
X172399760Y-108402727D01*
X172206198Y-108322551D01*
X172031995Y-108206152D01*
X171883848Y-108058005D01*
X171767449Y-107883802D01*
X171687273Y-107690240D01*
X171646400Y-107484757D01*
X171646400Y-107275243D01*
X171687273Y-107069760D01*
X171767449Y-106876198D01*
X171883848Y-106701995D01*
X172031995Y-106553848D01*
X172206198Y-106437449D01*
X172399760Y-106357273D01*
X172605243Y-106316400D01*
X172814757Y-106316400D01*
X173020240Y-106357273D01*
G37*
G36*
X175560240Y-106357273D02*
G01*
X175753802Y-106437449D01*
X175928005Y-106553848D01*
X176076152Y-106701995D01*
X176192551Y-106876198D01*
X176272727Y-107069760D01*
X176313600Y-107275243D01*
X176313600Y-107484757D01*
X176272727Y-107690240D01*
X176192551Y-107883802D01*
X176076152Y-108058005D01*
X175928005Y-108206152D01*
X175753802Y-108322551D01*
X175560240Y-108402727D01*
X175354757Y-108443600D01*
X175145243Y-108443600D01*
X174939760Y-108402727D01*
X174746198Y-108322551D01*
X174571995Y-108206152D01*
X174423848Y-108058005D01*
X174307449Y-107883802D01*
X174227273Y-107690240D01*
X174186400Y-107484757D01*
X174186400Y-107275243D01*
X174227273Y-107069760D01*
X174307449Y-106876198D01*
X174423848Y-106701995D01*
X174571995Y-106553848D01*
X174746198Y-106437449D01*
X174939760Y-106357273D01*
X175145243Y-106316400D01*
X175354757Y-106316400D01*
X175560240Y-106357273D01*
G37*
G36*
X148685529Y-106755710D02*
G01*
X148735378Y-106770831D01*
X148781310Y-106795382D01*
X148821574Y-106828426D01*
X148854618Y-106868690D01*
X148879169Y-106914622D01*
X148894290Y-106964471D01*
X148900000Y-107022444D01*
X148900000Y-108027556D01*
X148894290Y-108085529D01*
X148879169Y-108135378D01*
X148854618Y-108181310D01*
X148821574Y-108221574D01*
X148781310Y-108254618D01*
X148735378Y-108279169D01*
X148685529Y-108294290D01*
X148627556Y-108300000D01*
X147372444Y-108300000D01*
X147314471Y-108294290D01*
X147264622Y-108279169D01*
X147218690Y-108254618D01*
X147178426Y-108221574D01*
X147145382Y-108181310D01*
X147120831Y-108135378D01*
X147105710Y-108085529D01*
X147100000Y-108027556D01*
X147100000Y-107022444D01*
X147105710Y-106964471D01*
X147120831Y-106914622D01*
X147145382Y-106868690D01*
X147178426Y-106828426D01*
X147218690Y-106795382D01*
X147264622Y-106770831D01*
X147314471Y-106755710D01*
X147372444Y-106750000D01*
X148627556Y-106750000D01*
X148685529Y-106755710D01*
G37*
G36*
X154185529Y-106755710D02*
G01*
X154235378Y-106770831D01*
X154281310Y-106795382D01*
X154321574Y-106828426D01*
X154354618Y-106868690D01*
X154379169Y-106914622D01*
X154380383Y-106918625D01*
X154389760Y-106941263D01*
X154403374Y-106961638D01*
X154420701Y-106978965D01*
X154441075Y-106992579D01*
X154463714Y-107001956D01*
X154487747Y-107006737D01*
X154512251Y-107006737D01*
X154536285Y-107001957D01*
X154558923Y-106992580D01*
X154579298Y-106978966D01*
X154596625Y-106961639D01*
X154610239Y-106941265D01*
X154619617Y-106918625D01*
X154620831Y-106914622D01*
X154645382Y-106868690D01*
X154678426Y-106828426D01*
X154718690Y-106795382D01*
X154764622Y-106770831D01*
X154814471Y-106755710D01*
X154872444Y-106750000D01*
X156127556Y-106750000D01*
X156185529Y-106755710D01*
X156235378Y-106770831D01*
X156281310Y-106795382D01*
X156321574Y-106828426D01*
X156354618Y-106868690D01*
X156379169Y-106914622D01*
X156394290Y-106964471D01*
X156400000Y-107022444D01*
X156400000Y-108027556D01*
X156394290Y-108085529D01*
X156379169Y-108135378D01*
X156354618Y-108181310D01*
X156321574Y-108221574D01*
X156281310Y-108254618D01*
X156235378Y-108279169D01*
X156185529Y-108294290D01*
X156127556Y-108300000D01*
X154872444Y-108300000D01*
X154814471Y-108294290D01*
X154764622Y-108279169D01*
X154718690Y-108254618D01*
X154678426Y-108221574D01*
X154645382Y-108181310D01*
X154620831Y-108135378D01*
X154619617Y-108131375D01*
X154610240Y-108108737D01*
X154596626Y-108088362D01*
X154579299Y-108071035D01*
X154558925Y-108057421D01*
X154536286Y-108048044D01*
X154512253Y-108043263D01*
X154487749Y-108043263D01*
X154463715Y-108048043D01*
X154441077Y-108057420D01*
X154420702Y-108071034D01*
X154403375Y-108088361D01*
X154389761Y-108108735D01*
X154380383Y-108131375D01*
X154379169Y-108135378D01*
X154354618Y-108181310D01*
X154321574Y-108221574D01*
X154281310Y-108254618D01*
X154235378Y-108279169D01*
X154185529Y-108294290D01*
X154127556Y-108300000D01*
X152872444Y-108300000D01*
X152814471Y-108294290D01*
X152764622Y-108279169D01*
X152718690Y-108254618D01*
X152678426Y-108221574D01*
X152645382Y-108181310D01*
X152620831Y-108135378D01*
X152605710Y-108085529D01*
X152600000Y-108027556D01*
X152600000Y-107022444D01*
X152605710Y-106964471D01*
X152620831Y-106914622D01*
X152645382Y-106868690D01*
X152678426Y-106828426D01*
X152718690Y-106795382D01*
X152764622Y-106770831D01*
X152814471Y-106755710D01*
X152872444Y-106750000D01*
X154127556Y-106750000D01*
X154185529Y-106755710D01*
G37*
G36*
X166185529Y-106755710D02*
G01*
X166235378Y-106770831D01*
X166281310Y-106795382D01*
X166321574Y-106828426D01*
X166354618Y-106868690D01*
X166379169Y-106914622D01*
X166394290Y-106964471D01*
X166400000Y-107022444D01*
X166400000Y-108027556D01*
X166394290Y-108085529D01*
X166379169Y-108135378D01*
X166354618Y-108181310D01*
X166321574Y-108221574D01*
X166281310Y-108254618D01*
X166235378Y-108279169D01*
X166185529Y-108294290D01*
X166127556Y-108300000D01*
X164872444Y-108300000D01*
X164814471Y-108294290D01*
X164764622Y-108279169D01*
X164718690Y-108254618D01*
X164678426Y-108221574D01*
X164645382Y-108181310D01*
X164620831Y-108135378D01*
X164605710Y-108085529D01*
X164600000Y-108027556D01*
X164600000Y-107022444D01*
X164605710Y-106964471D01*
X164620831Y-106914622D01*
X164645382Y-106868690D01*
X164678426Y-106828426D01*
X164718690Y-106795382D01*
X164764622Y-106770831D01*
X164814471Y-106755710D01*
X164872444Y-106750000D01*
X166127556Y-106750000D01*
X166185529Y-106755710D01*
G37*
G36*
X144685529Y-106730710D02*
G01*
X144735378Y-106745831D01*
X144781310Y-106770382D01*
X144821574Y-106803426D01*
X144854618Y-106843690D01*
X144879169Y-106889622D01*
X144894290Y-106939471D01*
X144900000Y-106997444D01*
X144900000Y-108002556D01*
X144894290Y-108060529D01*
X144879169Y-108110378D01*
X144854618Y-108156310D01*
X144821574Y-108196574D01*
X144781310Y-108229618D01*
X144735378Y-108254169D01*
X144685529Y-108269290D01*
X144627556Y-108275000D01*
X143372444Y-108275000D01*
X143314471Y-108269290D01*
X143264622Y-108254169D01*
X143218690Y-108229618D01*
X143178426Y-108196574D01*
X143145382Y-108156310D01*
X143120831Y-108110378D01*
X143105710Y-108060529D01*
X143100000Y-108002556D01*
X143100000Y-106997444D01*
X143105710Y-106939471D01*
X143120831Y-106889622D01*
X143145382Y-106843690D01*
X143178426Y-106803426D01*
X143218690Y-106770382D01*
X143264622Y-106745831D01*
X143314471Y-106730710D01*
X143372444Y-106725000D01*
X144627556Y-106725000D01*
X144685529Y-106730710D01*
G37*
G36*
X120100000Y-107050000D02*
G01*
X118400000Y-107050000D01*
X118400000Y-104950000D01*
X120100000Y-104950000D01*
X120100000Y-107050000D01*
G37*
G36*
X116600000Y-107050000D02*
G01*
X114900000Y-107050000D01*
X114900000Y-104950000D01*
X116600000Y-104950000D01*
X116600000Y-107050000D01*
G37*
G36*
X113685529Y-105255710D02*
G01*
X113735378Y-105270831D01*
X113781310Y-105295382D01*
X113821574Y-105328426D01*
X113854618Y-105368690D01*
X113879169Y-105414622D01*
X113894290Y-105464471D01*
X113900000Y-105522444D01*
X113900000Y-106527556D01*
X113894290Y-106585529D01*
X113879169Y-106635378D01*
X113854618Y-106681310D01*
X113821574Y-106721574D01*
X113781310Y-106754618D01*
X113735378Y-106779169D01*
X113685529Y-106794290D01*
X113627556Y-106800000D01*
X112372444Y-106800000D01*
X112314471Y-106794290D01*
X112264622Y-106779169D01*
X112218690Y-106754618D01*
X112178426Y-106721574D01*
X112145382Y-106681310D01*
X112120831Y-106635378D01*
X112105710Y-106585529D01*
X112100000Y-106527556D01*
X112100000Y-105522444D01*
X112105710Y-105464471D01*
X112120831Y-105414622D01*
X112145382Y-105368690D01*
X112178426Y-105328426D01*
X112218690Y-105295382D01*
X112264622Y-105270831D01*
X112314471Y-105255710D01*
X112372444Y-105250000D01*
X113627556Y-105250000D01*
X113685529Y-105255710D01*
G37*
G36*
X110935529Y-105255710D02*
G01*
X110985378Y-105270831D01*
X111031310Y-105295382D01*
X111071574Y-105328426D01*
X111104618Y-105368690D01*
X111129169Y-105414622D01*
X111144290Y-105464471D01*
X111150000Y-105522444D01*
X111150000Y-106527556D01*
X111144290Y-106585529D01*
X111129169Y-106635378D01*
X111104618Y-106681310D01*
X111071574Y-106721574D01*
X111031310Y-106754618D01*
X110985378Y-106779169D01*
X110935529Y-106794290D01*
X110877556Y-106800000D01*
X109622444Y-106800000D01*
X109564471Y-106794290D01*
X109514622Y-106779169D01*
X109468690Y-106754618D01*
X109428426Y-106721574D01*
X109395382Y-106681310D01*
X109370831Y-106635378D01*
X109355710Y-106585529D01*
X109350000Y-106527556D01*
X109350000Y-105522444D01*
X109355710Y-105464471D01*
X109370831Y-105414622D01*
X109395382Y-105368690D01*
X109428426Y-105328426D01*
X109468690Y-105295382D01*
X109514622Y-105270831D01*
X109564471Y-105255710D01*
X109622444Y-105250000D01*
X110877556Y-105250000D01*
X110935529Y-105255710D01*
G37*
G36*
X105685529Y-105255710D02*
G01*
X105735378Y-105270831D01*
X105781310Y-105295382D01*
X105821574Y-105328426D01*
X105854618Y-105368690D01*
X105879169Y-105414622D01*
X105894290Y-105464471D01*
X105900000Y-105522444D01*
X105900000Y-106527556D01*
X105894290Y-106585529D01*
X105879169Y-106635378D01*
X105854618Y-106681310D01*
X105821574Y-106721574D01*
X105781310Y-106754618D01*
X105735378Y-106779169D01*
X105685529Y-106794290D01*
X105627556Y-106800000D01*
X104372444Y-106800000D01*
X104314471Y-106794290D01*
X104264622Y-106779169D01*
X104218690Y-106754618D01*
X104178426Y-106721574D01*
X104145382Y-106681310D01*
X104120831Y-106635378D01*
X104105710Y-106585529D01*
X104100000Y-106527556D01*
X104100000Y-105522444D01*
X104105710Y-105464471D01*
X104120831Y-105414622D01*
X104145382Y-105368690D01*
X104178426Y-105328426D01*
X104218690Y-105295382D01*
X104264622Y-105270831D01*
X104314471Y-105255710D01*
X104372444Y-105250000D01*
X105627556Y-105250000D01*
X105685529Y-105255710D01*
G37*
G36*
X108435529Y-105230710D02*
G01*
X108485378Y-105245831D01*
X108531310Y-105270382D01*
X108571574Y-105303426D01*
X108604618Y-105343690D01*
X108629169Y-105389622D01*
X108644290Y-105439471D01*
X108650000Y-105497444D01*
X108650000Y-106502556D01*
X108644290Y-106560529D01*
X108629169Y-106610378D01*
X108604618Y-106656310D01*
X108571574Y-106696574D01*
X108531310Y-106729618D01*
X108485378Y-106754169D01*
X108435529Y-106769290D01*
X108377556Y-106775000D01*
X107122444Y-106775000D01*
X107064471Y-106769290D01*
X107014622Y-106754169D01*
X106968690Y-106729618D01*
X106928426Y-106696574D01*
X106895382Y-106656310D01*
X106870831Y-106610378D01*
X106855710Y-106560529D01*
X106850000Y-106502556D01*
X106850000Y-105497444D01*
X106855710Y-105439471D01*
X106870831Y-105389622D01*
X106895382Y-105343690D01*
X106928426Y-105303426D01*
X106968690Y-105270382D01*
X107014622Y-105245831D01*
X107064471Y-105230710D01*
X107122444Y-105225000D01*
X108377556Y-105225000D01*
X108435529Y-105230710D01*
G37*
G36*
X126935529Y-105005710D02*
G01*
X126985378Y-105020831D01*
X127031310Y-105045382D01*
X127071574Y-105078426D01*
X127104618Y-105118690D01*
X127129169Y-105164622D01*
X127144290Y-105214471D01*
X127150000Y-105272444D01*
X127150000Y-106277556D01*
X127144290Y-106335529D01*
X127129169Y-106385378D01*
X127104618Y-106431310D01*
X127071574Y-106471574D01*
X127031310Y-106504618D01*
X126985378Y-106529169D01*
X126935529Y-106544290D01*
X126877556Y-106550000D01*
X125622444Y-106550000D01*
X125564471Y-106544290D01*
X125514622Y-106529169D01*
X125468690Y-106504618D01*
X125428426Y-106471574D01*
X125395382Y-106431310D01*
X125370831Y-106385378D01*
X125355710Y-106335529D01*
X125350000Y-106277556D01*
X125350000Y-105272444D01*
X125355710Y-105214471D01*
X125370831Y-105164622D01*
X125395382Y-105118690D01*
X125428426Y-105078426D01*
X125468690Y-105045382D01*
X125514622Y-105020831D01*
X125564471Y-105005710D01*
X125622444Y-105000000D01*
X126877556Y-105000000D01*
X126935529Y-105005710D01*
G37*
G36*
X134685529Y-105005710D02*
G01*
X134735378Y-105020831D01*
X134781310Y-105045382D01*
X134821574Y-105078426D01*
X134854618Y-105118690D01*
X134879169Y-105164622D01*
X134894290Y-105214471D01*
X134900000Y-105272444D01*
X134900000Y-106277556D01*
X134894290Y-106335529D01*
X134879169Y-106385378D01*
X134854618Y-106431310D01*
X134821574Y-106471574D01*
X134781310Y-106504618D01*
X134735378Y-106529169D01*
X134685529Y-106544290D01*
X134627556Y-106550000D01*
X133372444Y-106550000D01*
X133314471Y-106544290D01*
X133264622Y-106529169D01*
X133218690Y-106504618D01*
X133178426Y-106471574D01*
X133145382Y-106431310D01*
X133120831Y-106385378D01*
X133105710Y-106335529D01*
X133100000Y-106277556D01*
X133100000Y-105272444D01*
X133105710Y-105214471D01*
X133120831Y-105164622D01*
X133145382Y-105118690D01*
X133178426Y-105078426D01*
X133218690Y-105045382D01*
X133264622Y-105020831D01*
X133314471Y-105005710D01*
X133372444Y-105000000D01*
X134627556Y-105000000D01*
X134685529Y-105005710D01*
G37*
G36*
X137600000Y-106550000D02*
G01*
X135900000Y-106550000D01*
X135900000Y-104450000D01*
X137600000Y-104450000D01*
X137600000Y-106550000D01*
G37*
G36*
X141100000Y-106550000D02*
G01*
X139400000Y-106550000D01*
X139400000Y-104450000D01*
X141100000Y-104450000D01*
X141100000Y-106550000D01*
G37*
G36*
X129685529Y-105005710D02*
G01*
X129735378Y-105020831D01*
X129781310Y-105045382D01*
X129821574Y-105078426D01*
X129854618Y-105118690D01*
X129879169Y-105164622D01*
X129894290Y-105214471D01*
X129900000Y-105272444D01*
X129900000Y-106277556D01*
X129894290Y-106335529D01*
X129879169Y-106385378D01*
X129854618Y-106431310D01*
X129821574Y-106471574D01*
X129781310Y-106504618D01*
X129735378Y-106529169D01*
X129685529Y-106544290D01*
X129627556Y-106550000D01*
X128372444Y-106550000D01*
X128314471Y-106544290D01*
X128264622Y-106529169D01*
X128218690Y-106504618D01*
X128178426Y-106471574D01*
X128145382Y-106431310D01*
X128120831Y-106385378D01*
X128105710Y-106335529D01*
X128100000Y-106277556D01*
X128100000Y-105272444D01*
X128105710Y-105214471D01*
X128120831Y-105164622D01*
X128145382Y-105118690D01*
X128178426Y-105078426D01*
X128218690Y-105045382D01*
X128264622Y-105020831D01*
X128314471Y-105005710D01*
X128372444Y-105000000D01*
X129627556Y-105000000D01*
X129685529Y-105005710D01*
G37*
G36*
X132185529Y-104980710D02*
G01*
X132235378Y-104995831D01*
X132281310Y-105020382D01*
X132321574Y-105053426D01*
X132354618Y-105093690D01*
X132379169Y-105139622D01*
X132394290Y-105189471D01*
X132400000Y-105247444D01*
X132400000Y-106252556D01*
X132394290Y-106310529D01*
X132379169Y-106360378D01*
X132354618Y-106406310D01*
X132321574Y-106446574D01*
X132281310Y-106479618D01*
X132235378Y-106504169D01*
X132185529Y-106519290D01*
X132127556Y-106525000D01*
X130872444Y-106525000D01*
X130814471Y-106519290D01*
X130764622Y-106504169D01*
X130718690Y-106479618D01*
X130678426Y-106446574D01*
X130645382Y-106406310D01*
X130620831Y-106360378D01*
X130605710Y-106310529D01*
X130600000Y-106252556D01*
X130600000Y-105247444D01*
X130605710Y-105189471D01*
X130620831Y-105139622D01*
X130645382Y-105093690D01*
X130678426Y-105053426D01*
X130718690Y-105020382D01*
X130764622Y-104995831D01*
X130814471Y-104980710D01*
X130872444Y-104975000D01*
X132127556Y-104975000D01*
X132185529Y-104980710D01*
G37*
G36*
X154185529Y-104705710D02*
G01*
X154235378Y-104720831D01*
X154281310Y-104745382D01*
X154321574Y-104778426D01*
X154354618Y-104818690D01*
X154379169Y-104864622D01*
X154380383Y-104868625D01*
X154389760Y-104891263D01*
X154403374Y-104911638D01*
X154420701Y-104928965D01*
X154441075Y-104942579D01*
X154463714Y-104951956D01*
X154487747Y-104956737D01*
X154512251Y-104956737D01*
X154536285Y-104951957D01*
X154558923Y-104942580D01*
X154579298Y-104928966D01*
X154596625Y-104911639D01*
X154610239Y-104891265D01*
X154619617Y-104868625D01*
X154620831Y-104864622D01*
X154645382Y-104818690D01*
X154678426Y-104778426D01*
X154718690Y-104745382D01*
X154764622Y-104720831D01*
X154814471Y-104705710D01*
X154872444Y-104700000D01*
X156127556Y-104700000D01*
X156185529Y-104705710D01*
X156235378Y-104720831D01*
X156281310Y-104745382D01*
X156321574Y-104778426D01*
X156354618Y-104818690D01*
X156379169Y-104864622D01*
X156394290Y-104914471D01*
X156400000Y-104972444D01*
X156400000Y-105977556D01*
X156394290Y-106035529D01*
X156379169Y-106085378D01*
X156354618Y-106131310D01*
X156321574Y-106171574D01*
X156281310Y-106204618D01*
X156235378Y-106229169D01*
X156185529Y-106244290D01*
X156127556Y-106250000D01*
X154872444Y-106250000D01*
X154814471Y-106244290D01*
X154764622Y-106229169D01*
X154718690Y-106204618D01*
X154678426Y-106171574D01*
X154645382Y-106131310D01*
X154620831Y-106085378D01*
X154619617Y-106081375D01*
X154610240Y-106058737D01*
X154596626Y-106038362D01*
X154579299Y-106021035D01*
X154558925Y-106007421D01*
X154536286Y-105998044D01*
X154512253Y-105993263D01*
X154487749Y-105993263D01*
X154463715Y-105998043D01*
X154441077Y-106007420D01*
X154420702Y-106021034D01*
X154403375Y-106038361D01*
X154389761Y-106058735D01*
X154380383Y-106081375D01*
X154379169Y-106085378D01*
X154354618Y-106131310D01*
X154321574Y-106171574D01*
X154281310Y-106204618D01*
X154235378Y-106229169D01*
X154185529Y-106244290D01*
X154127556Y-106250000D01*
X152872444Y-106250000D01*
X152814471Y-106244290D01*
X152764622Y-106229169D01*
X152718690Y-106204618D01*
X152678426Y-106171574D01*
X152645382Y-106131310D01*
X152620831Y-106085378D01*
X152605710Y-106035529D01*
X152600000Y-105977556D01*
X152600000Y-104972444D01*
X152605710Y-104914471D01*
X152620831Y-104864622D01*
X152645382Y-104818690D01*
X152678426Y-104778426D01*
X152718690Y-104745382D01*
X152764622Y-104720831D01*
X152814471Y-104705710D01*
X152872444Y-104700000D01*
X154127556Y-104700000D01*
X154185529Y-104705710D01*
G37*
G36*
X166185529Y-104705710D02*
G01*
X166235378Y-104720831D01*
X166281310Y-104745382D01*
X166321574Y-104778426D01*
X166354618Y-104818690D01*
X166379169Y-104864622D01*
X166394290Y-104914471D01*
X166400000Y-104972444D01*
X166400000Y-105977556D01*
X166394290Y-106035529D01*
X166379169Y-106085378D01*
X166354618Y-106131310D01*
X166321574Y-106171574D01*
X166281310Y-106204618D01*
X166235378Y-106229169D01*
X166185529Y-106244290D01*
X166127556Y-106250000D01*
X164872444Y-106250000D01*
X164814471Y-106244290D01*
X164764622Y-106229169D01*
X164718690Y-106204618D01*
X164678426Y-106171574D01*
X164645382Y-106131310D01*
X164620831Y-106085378D01*
X164605710Y-106035529D01*
X164600000Y-105977556D01*
X164600000Y-104972444D01*
X164605710Y-104914471D01*
X164620831Y-104864622D01*
X164645382Y-104818690D01*
X164678426Y-104778426D01*
X164718690Y-104745382D01*
X164764622Y-104720831D01*
X164814471Y-104705710D01*
X164872444Y-104700000D01*
X166127556Y-104700000D01*
X166185529Y-104705710D01*
G37*
G36*
X148685529Y-104705710D02*
G01*
X148735378Y-104720831D01*
X148781310Y-104745382D01*
X148821574Y-104778426D01*
X148854618Y-104818690D01*
X148879169Y-104864622D01*
X148894290Y-104914471D01*
X148900000Y-104972444D01*
X148900000Y-105977556D01*
X148894290Y-106035529D01*
X148879169Y-106085378D01*
X148854618Y-106131310D01*
X148821574Y-106171574D01*
X148781310Y-106204618D01*
X148735378Y-106229169D01*
X148685529Y-106244290D01*
X148627556Y-106250000D01*
X147372444Y-106250000D01*
X147314471Y-106244290D01*
X147264622Y-106229169D01*
X147218690Y-106204618D01*
X147178426Y-106171574D01*
X147145382Y-106131310D01*
X147120831Y-106085378D01*
X147105710Y-106035529D01*
X147100000Y-105977556D01*
X147100000Y-104972444D01*
X147105710Y-104914471D01*
X147120831Y-104864622D01*
X147145382Y-104818690D01*
X147178426Y-104778426D01*
X147218690Y-104745382D01*
X147264622Y-104720831D01*
X147314471Y-104705710D01*
X147372444Y-104700000D01*
X148627556Y-104700000D01*
X148685529Y-104705710D01*
G37*
G36*
X144685529Y-104680710D02*
G01*
X144735378Y-104695831D01*
X144781310Y-104720382D01*
X144821574Y-104753426D01*
X144854618Y-104793690D01*
X144879169Y-104839622D01*
X144894290Y-104889471D01*
X144900000Y-104947444D01*
X144900000Y-105952556D01*
X144894290Y-106010529D01*
X144879169Y-106060378D01*
X144854618Y-106106310D01*
X144821574Y-106146574D01*
X144781310Y-106179618D01*
X144735378Y-106204169D01*
X144685529Y-106219290D01*
X144627556Y-106225000D01*
X143372444Y-106225000D01*
X143314471Y-106219290D01*
X143264622Y-106204169D01*
X143218690Y-106179618D01*
X143178426Y-106146574D01*
X143145382Y-106106310D01*
X143120831Y-106060378D01*
X143105710Y-106010529D01*
X143100000Y-105952556D01*
X143100000Y-104947444D01*
X143105710Y-104889471D01*
X143120831Y-104839622D01*
X143145382Y-104793690D01*
X143178426Y-104753426D01*
X143218690Y-104720382D01*
X143264622Y-104695831D01*
X143314471Y-104680710D01*
X143372444Y-104675000D01*
X144627556Y-104675000D01*
X144685529Y-104680710D01*
G37*
G36*
X175560240Y-103817273D02*
G01*
X175753802Y-103897449D01*
X175928005Y-104013848D01*
X176076152Y-104161995D01*
X176192551Y-104336198D01*
X176272727Y-104529760D01*
X176313600Y-104735243D01*
X176313600Y-104944757D01*
X176272727Y-105150240D01*
X176192551Y-105343802D01*
X176076152Y-105518005D01*
X175928005Y-105666152D01*
X175753802Y-105782551D01*
X175560240Y-105862727D01*
X175354757Y-105903600D01*
X175145243Y-105903600D01*
X174939760Y-105862727D01*
X174746198Y-105782551D01*
X174571995Y-105666152D01*
X174423848Y-105518005D01*
X174307449Y-105343802D01*
X174227273Y-105150240D01*
X174186400Y-104944757D01*
X174186400Y-104735243D01*
X174227273Y-104529760D01*
X174307449Y-104336198D01*
X174423848Y-104161995D01*
X174571995Y-104013848D01*
X174746198Y-103897449D01*
X174939760Y-103817273D01*
X175145243Y-103776400D01*
X175354757Y-103776400D01*
X175560240Y-103817273D01*
G37*
G36*
X173020240Y-103817273D02*
G01*
X173213802Y-103897449D01*
X173388005Y-104013848D01*
X173536152Y-104161995D01*
X173652551Y-104336198D01*
X173732727Y-104529760D01*
X173773600Y-104735243D01*
X173773600Y-104944757D01*
X173732727Y-105150240D01*
X173652551Y-105343802D01*
X173536152Y-105518005D01*
X173388005Y-105666152D01*
X173213802Y-105782551D01*
X173020240Y-105862727D01*
X172814757Y-105903600D01*
X172605243Y-105903600D01*
X172399760Y-105862727D01*
X172206198Y-105782551D01*
X172031995Y-105666152D01*
X171883848Y-105518005D01*
X171767449Y-105343802D01*
X171687273Y-105150240D01*
X171646400Y-104944757D01*
X171646400Y-104735243D01*
X171687273Y-104529760D01*
X171767449Y-104336198D01*
X171883848Y-104161995D01*
X172031995Y-104013848D01*
X172206198Y-103897449D01*
X172399760Y-103817273D01*
X172605243Y-103776400D01*
X172814757Y-103776400D01*
X173020240Y-103817273D01*
G37*
G36*
X110935529Y-103205710D02*
G01*
X110985378Y-103220831D01*
X111031310Y-103245382D01*
X111071574Y-103278426D01*
X111104618Y-103318690D01*
X111129169Y-103364622D01*
X111144290Y-103414471D01*
X111150000Y-103472444D01*
X111150000Y-104477556D01*
X111144290Y-104535529D01*
X111129169Y-104585378D01*
X111104618Y-104631310D01*
X111071574Y-104671574D01*
X111031310Y-104704618D01*
X110985378Y-104729169D01*
X110935529Y-104744290D01*
X110877556Y-104750000D01*
X109622444Y-104750000D01*
X109564471Y-104744290D01*
X109514622Y-104729169D01*
X109468690Y-104704618D01*
X109428426Y-104671574D01*
X109395382Y-104631310D01*
X109370831Y-104585378D01*
X109355710Y-104535529D01*
X109350000Y-104477556D01*
X109350000Y-103472444D01*
X109355710Y-103414471D01*
X109370831Y-103364622D01*
X109395382Y-103318690D01*
X109428426Y-103278426D01*
X109468690Y-103245382D01*
X109514622Y-103220831D01*
X109564471Y-103205710D01*
X109622444Y-103200000D01*
X110877556Y-103200000D01*
X110935529Y-103205710D01*
G37*
G36*
X105685529Y-103205710D02*
G01*
X105735378Y-103220831D01*
X105781310Y-103245382D01*
X105821574Y-103278426D01*
X105854618Y-103318690D01*
X105879169Y-103364622D01*
X105894290Y-103414471D01*
X105900000Y-103472444D01*
X105900000Y-104477556D01*
X105894290Y-104535529D01*
X105879169Y-104585378D01*
X105854618Y-104631310D01*
X105821574Y-104671574D01*
X105781310Y-104704618D01*
X105735378Y-104729169D01*
X105685529Y-104744290D01*
X105627556Y-104750000D01*
X104372444Y-104750000D01*
X104314471Y-104744290D01*
X104264622Y-104729169D01*
X104218690Y-104704618D01*
X104178426Y-104671574D01*
X104145382Y-104631310D01*
X104120831Y-104585378D01*
X104105710Y-104535529D01*
X104100000Y-104477556D01*
X104100000Y-103472444D01*
X104105710Y-103414471D01*
X104120831Y-103364622D01*
X104145382Y-103318690D01*
X104178426Y-103278426D01*
X104218690Y-103245382D01*
X104264622Y-103220831D01*
X104314471Y-103205710D01*
X104372444Y-103200000D01*
X105627556Y-103200000D01*
X105685529Y-103205710D01*
G37*
G36*
X113685529Y-103205710D02*
G01*
X113735378Y-103220831D01*
X113781310Y-103245382D01*
X113821574Y-103278426D01*
X113854618Y-103318690D01*
X113879169Y-103364622D01*
X113894290Y-103414471D01*
X113900000Y-103472444D01*
X113900000Y-104477556D01*
X113894290Y-104535529D01*
X113879169Y-104585378D01*
X113854618Y-104631310D01*
X113821574Y-104671574D01*
X113781310Y-104704618D01*
X113735378Y-104729169D01*
X113685529Y-104744290D01*
X113627556Y-104750000D01*
X112372444Y-104750000D01*
X112314471Y-104744290D01*
X112264622Y-104729169D01*
X112218690Y-104704618D01*
X112178426Y-104671574D01*
X112145382Y-104631310D01*
X112120831Y-104585378D01*
X112105710Y-104535529D01*
X112100000Y-104477556D01*
X112100000Y-103472444D01*
X112105710Y-103414471D01*
X112120831Y-103364622D01*
X112145382Y-103318690D01*
X112178426Y-103278426D01*
X112218690Y-103245382D01*
X112264622Y-103220831D01*
X112314471Y-103205710D01*
X112372444Y-103200000D01*
X113627556Y-103200000D01*
X113685529Y-103205710D01*
G37*
G36*
X108435529Y-103180710D02*
G01*
X108485378Y-103195831D01*
X108531310Y-103220382D01*
X108571574Y-103253426D01*
X108604618Y-103293690D01*
X108629169Y-103339622D01*
X108644290Y-103389471D01*
X108650000Y-103447444D01*
X108650000Y-104452556D01*
X108644290Y-104510529D01*
X108629169Y-104560378D01*
X108604618Y-104606310D01*
X108571574Y-104646574D01*
X108531310Y-104679618D01*
X108485378Y-104704169D01*
X108435529Y-104719290D01*
X108377556Y-104725000D01*
X107122444Y-104725000D01*
X107064471Y-104719290D01*
X107014622Y-104704169D01*
X106968690Y-104679618D01*
X106928426Y-104646574D01*
X106895382Y-104606310D01*
X106870831Y-104560378D01*
X106855710Y-104510529D01*
X106850000Y-104452556D01*
X106850000Y-103447444D01*
X106855710Y-103389471D01*
X106870831Y-103339622D01*
X106895382Y-103293690D01*
X106928426Y-103253426D01*
X106968690Y-103220382D01*
X107014622Y-103195831D01*
X107064471Y-103180710D01*
X107122444Y-103175000D01*
X108377556Y-103175000D01*
X108435529Y-103180710D01*
G37*
G36*
X126935529Y-102955710D02*
G01*
X126985378Y-102970831D01*
X127031310Y-102995382D01*
X127071574Y-103028426D01*
X127104618Y-103068690D01*
X127129169Y-103114622D01*
X127144290Y-103164471D01*
X127150000Y-103222444D01*
X127150000Y-104227556D01*
X127144290Y-104285529D01*
X127129169Y-104335378D01*
X127104618Y-104381310D01*
X127071574Y-104421574D01*
X127031310Y-104454618D01*
X126985378Y-104479169D01*
X126935529Y-104494290D01*
X126877556Y-104500000D01*
X125622444Y-104500000D01*
X125564471Y-104494290D01*
X125514622Y-104479169D01*
X125468690Y-104454618D01*
X125428426Y-104421574D01*
X125395382Y-104381310D01*
X125370831Y-104335378D01*
X125355710Y-104285529D01*
X125350000Y-104227556D01*
X125350000Y-103222444D01*
X125355710Y-103164471D01*
X125370831Y-103114622D01*
X125395382Y-103068690D01*
X125428426Y-103028426D01*
X125468690Y-102995382D01*
X125514622Y-102970831D01*
X125564471Y-102955710D01*
X125622444Y-102950000D01*
X126877556Y-102950000D01*
X126935529Y-102955710D01*
G37*
G36*
X129685529Y-102955710D02*
G01*
X129735378Y-102970831D01*
X129781310Y-102995382D01*
X129821574Y-103028426D01*
X129854618Y-103068690D01*
X129879169Y-103114622D01*
X129894290Y-103164471D01*
X129900000Y-103222444D01*
X129900000Y-104227556D01*
X129894290Y-104285529D01*
X129879169Y-104335378D01*
X129854618Y-104381310D01*
X129821574Y-104421574D01*
X129781310Y-104454618D01*
X129735378Y-104479169D01*
X129685529Y-104494290D01*
X129627556Y-104500000D01*
X128372444Y-104500000D01*
X128314471Y-104494290D01*
X128264622Y-104479169D01*
X128218690Y-104454618D01*
X128178426Y-104421574D01*
X128145382Y-104381310D01*
X128120831Y-104335378D01*
X128105710Y-104285529D01*
X128100000Y-104227556D01*
X128100000Y-103222444D01*
X128105710Y-103164471D01*
X128120831Y-103114622D01*
X128145382Y-103068690D01*
X128178426Y-103028426D01*
X128218690Y-102995382D01*
X128264622Y-102970831D01*
X128314471Y-102955710D01*
X128372444Y-102950000D01*
X129627556Y-102950000D01*
X129685529Y-102955710D01*
G37*
G36*
X134685529Y-102955710D02*
G01*
X134735378Y-102970831D01*
X134781310Y-102995382D01*
X134821574Y-103028426D01*
X134854618Y-103068690D01*
X134879169Y-103114622D01*
X134894290Y-103164471D01*
X134900000Y-103222444D01*
X134900000Y-104227556D01*
X134894290Y-104285529D01*
X134879169Y-104335378D01*
X134854618Y-104381310D01*
X134821574Y-104421574D01*
X134781310Y-104454618D01*
X134735378Y-104479169D01*
X134685529Y-104494290D01*
X134627556Y-104500000D01*
X133372444Y-104500000D01*
X133314471Y-104494290D01*
X133264622Y-104479169D01*
X133218690Y-104454618D01*
X133178426Y-104421574D01*
X133145382Y-104381310D01*
X133120831Y-104335378D01*
X133105710Y-104285529D01*
X133100000Y-104227556D01*
X133100000Y-103222444D01*
X133105710Y-103164471D01*
X133120831Y-103114622D01*
X133145382Y-103068690D01*
X133178426Y-103028426D01*
X133218690Y-102995382D01*
X133264622Y-102970831D01*
X133314471Y-102955710D01*
X133372444Y-102950000D01*
X134627556Y-102950000D01*
X134685529Y-102955710D01*
G37*
G36*
X132185529Y-102930710D02*
G01*
X132235378Y-102945831D01*
X132281310Y-102970382D01*
X132321574Y-103003426D01*
X132354618Y-103043690D01*
X132379169Y-103089622D01*
X132394290Y-103139471D01*
X132400000Y-103197444D01*
X132400000Y-104202556D01*
X132394290Y-104260529D01*
X132379169Y-104310378D01*
X132354618Y-104356310D01*
X132321574Y-104396574D01*
X132281310Y-104429618D01*
X132235378Y-104454169D01*
X132185529Y-104469290D01*
X132127556Y-104475000D01*
X130872444Y-104475000D01*
X130814471Y-104469290D01*
X130764622Y-104454169D01*
X130718690Y-104429618D01*
X130678426Y-104396574D01*
X130645382Y-104356310D01*
X130620831Y-104310378D01*
X130605710Y-104260529D01*
X130600000Y-104202556D01*
X130600000Y-103197444D01*
X130605710Y-103139471D01*
X130620831Y-103089622D01*
X130645382Y-103043690D01*
X130678426Y-103003426D01*
X130718690Y-102970382D01*
X130764622Y-102945831D01*
X130814471Y-102930710D01*
X130872444Y-102925000D01*
X132127556Y-102925000D01*
X132185529Y-102930710D01*
G37*
G36*
X129008687Y-99955027D02*
G01*
X129186274Y-99990350D01*
X129377362Y-100069502D01*
X129549336Y-100184411D01*
X129695589Y-100330664D01*
X129810498Y-100502638D01*
X129889650Y-100693726D01*
X129930000Y-100896584D01*
X129930000Y-101103416D01*
X129889650Y-101306274D01*
X129810498Y-101497362D01*
X129695589Y-101669336D01*
X129549336Y-101815589D01*
X129377362Y-101930498D01*
X129186274Y-102009650D01*
X129008687Y-102044973D01*
X128983417Y-102050000D01*
X128776583Y-102050000D01*
X128751313Y-102044973D01*
X128573726Y-102009650D01*
X128382638Y-101930498D01*
X128210664Y-101815589D01*
X128064411Y-101669336D01*
X127949502Y-101497362D01*
X127870350Y-101306274D01*
X127830000Y-101103416D01*
X127830000Y-100896584D01*
X127870350Y-100693726D01*
X127949502Y-100502638D01*
X128064411Y-100330664D01*
X128210664Y-100184411D01*
X128382638Y-100069502D01*
X128573726Y-99990350D01*
X128751313Y-99955027D01*
X128776583Y-99950000D01*
X128983417Y-99950000D01*
X129008687Y-99955027D01*
G37*
G36*
X153588687Y-99955027D02*
G01*
X153766274Y-99990350D01*
X153957362Y-100069502D01*
X154129336Y-100184411D01*
X154275589Y-100330664D01*
X154390498Y-100502638D01*
X154469650Y-100693726D01*
X154510000Y-100896584D01*
X154510000Y-101103416D01*
X154469650Y-101306274D01*
X154390498Y-101497362D01*
X154275589Y-101669336D01*
X154129336Y-101815589D01*
X153957362Y-101930498D01*
X153766274Y-102009650D01*
X153588687Y-102044973D01*
X153563417Y-102050000D01*
X153356583Y-102050000D01*
X153331313Y-102044973D01*
X153153726Y-102009650D01*
X152962638Y-101930498D01*
X152790664Y-101815589D01*
X152644411Y-101669336D01*
X152529502Y-101497362D01*
X152450350Y-101306274D01*
X152410000Y-101103416D01*
X152410000Y-100896584D01*
X152450350Y-100693726D01*
X152529502Y-100502638D01*
X152644411Y-100330664D01*
X152790664Y-100184411D01*
X152962638Y-100069502D01*
X153153726Y-99990350D01*
X153331313Y-99955027D01*
X153356583Y-99950000D01*
X153563417Y-99950000D01*
X153588687Y-99955027D01*
G37*
G36*
X157050000Y-102050000D02*
G01*
X154950000Y-102050000D01*
X154950000Y-99950000D01*
X157050000Y-99950000D01*
X157050000Y-102050000D01*
G37*
G36*
X148590000Y-102050000D02*
G01*
X146490000Y-102050000D01*
X146490000Y-99950000D01*
X148590000Y-99950000D01*
X148590000Y-102050000D01*
G37*
G36*
X145128687Y-99955027D02*
G01*
X145306274Y-99990350D01*
X145497362Y-100069502D01*
X145669336Y-100184411D01*
X145815589Y-100330664D01*
X145930498Y-100502638D01*
X146009650Y-100693726D01*
X146050000Y-100896584D01*
X146050000Y-101103416D01*
X146009650Y-101306274D01*
X145930498Y-101497362D01*
X145815589Y-101669336D01*
X145669336Y-101815589D01*
X145497362Y-101930498D01*
X145306274Y-102009650D01*
X145128687Y-102044973D01*
X145103417Y-102050000D01*
X144896583Y-102050000D01*
X144871313Y-102044973D01*
X144693726Y-102009650D01*
X144502638Y-101930498D01*
X144330664Y-101815589D01*
X144184411Y-101669336D01*
X144069502Y-101497362D01*
X143990350Y-101306274D01*
X143950000Y-101103416D01*
X143950000Y-100896584D01*
X143990350Y-100693726D01*
X144069502Y-100502638D01*
X144184411Y-100330664D01*
X144330664Y-100184411D01*
X144502638Y-100069502D01*
X144693726Y-99990350D01*
X144871313Y-99955027D01*
X144896583Y-99950000D01*
X145103417Y-99950000D01*
X145128687Y-99955027D01*
G37*
G36*
X167050000Y-102050000D02*
G01*
X164950000Y-102050000D01*
X164950000Y-99950000D01*
X167050000Y-99950000D01*
X167050000Y-102050000D01*
G37*
G36*
X163588687Y-99955027D02*
G01*
X163766274Y-99990350D01*
X163957362Y-100069502D01*
X164129336Y-100184411D01*
X164275589Y-100330664D01*
X164390498Y-100502638D01*
X164469650Y-100693726D01*
X164510000Y-100896584D01*
X164510000Y-101103416D01*
X164469650Y-101306274D01*
X164390498Y-101497362D01*
X164275589Y-101669336D01*
X164129336Y-101815589D01*
X163957362Y-101930498D01*
X163766274Y-102009650D01*
X163588687Y-102044973D01*
X163563417Y-102050000D01*
X163356583Y-102050000D01*
X163331313Y-102044973D01*
X163153726Y-102009650D01*
X162962638Y-101930498D01*
X162790664Y-101815589D01*
X162644411Y-101669336D01*
X162529502Y-101497362D01*
X162450350Y-101306274D01*
X162410000Y-101103416D01*
X162410000Y-100896584D01*
X162450350Y-100693726D01*
X162529502Y-100502638D01*
X162644411Y-100330664D01*
X162790664Y-100184411D01*
X162962638Y-100069502D01*
X163153726Y-99990350D01*
X163331313Y-99955027D01*
X163356583Y-99950000D01*
X163563417Y-99950000D01*
X163588687Y-99955027D01*
G37*
G36*
X137550000Y-102050000D02*
G01*
X135450000Y-102050000D01*
X135450000Y-99950000D01*
X137550000Y-99950000D01*
X137550000Y-102050000D01*
G37*
G36*
X134088687Y-99955027D02*
G01*
X134266274Y-99990350D01*
X134457362Y-100069502D01*
X134629336Y-100184411D01*
X134775589Y-100330664D01*
X134890498Y-100502638D01*
X134969650Y-100693726D01*
X135010000Y-100896584D01*
X135010000Y-101103416D01*
X134969650Y-101306274D01*
X134890498Y-101497362D01*
X134775589Y-101669336D01*
X134629336Y-101815589D01*
X134457362Y-101930498D01*
X134266274Y-102009650D01*
X134088687Y-102044973D01*
X134063417Y-102050000D01*
X133856583Y-102050000D01*
X133831313Y-102044973D01*
X133653726Y-102009650D01*
X133462638Y-101930498D01*
X133290664Y-101815589D01*
X133144411Y-101669336D01*
X133029502Y-101497362D01*
X132950350Y-101306274D01*
X132910000Y-101103416D01*
X132910000Y-100896584D01*
X132950350Y-100693726D01*
X133029502Y-100502638D01*
X133144411Y-100330664D01*
X133290664Y-100184411D01*
X133462638Y-100069502D01*
X133653726Y-99990350D01*
X133831313Y-99955027D01*
X133856583Y-99950000D01*
X134063417Y-99950000D01*
X134088687Y-99955027D01*
G37*
G36*
X131548687Y-99955027D02*
G01*
X131726274Y-99990350D01*
X131917362Y-100069502D01*
X132089336Y-100184411D01*
X132235589Y-100330664D01*
X132350498Y-100502638D01*
X132429650Y-100693726D01*
X132470000Y-100896584D01*
X132470000Y-101103416D01*
X132429650Y-101306274D01*
X132350498Y-101497362D01*
X132235589Y-101669336D01*
X132089336Y-101815589D01*
X131917362Y-101930498D01*
X131726274Y-102009650D01*
X131548687Y-102044973D01*
X131523417Y-102050000D01*
X131316583Y-102050000D01*
X131291313Y-102044973D01*
X131113726Y-102009650D01*
X130922638Y-101930498D01*
X130750664Y-101815589D01*
X130604411Y-101669336D01*
X130489502Y-101497362D01*
X130410350Y-101306274D01*
X130370000Y-101103416D01*
X130370000Y-100896584D01*
X130410350Y-100693726D01*
X130489502Y-100502638D01*
X130604411Y-100330664D01*
X130750664Y-100184411D01*
X130922638Y-100069502D01*
X131113726Y-99990350D01*
X131291313Y-99955027D01*
X131316583Y-99950000D01*
X131523417Y-99950000D01*
X131548687Y-99955027D01*
G37*
G36*
X126468687Y-99955027D02*
G01*
X126646274Y-99990350D01*
X126837362Y-100069502D01*
X127009336Y-100184411D01*
X127155589Y-100330664D01*
X127270498Y-100502638D01*
X127349650Y-100693726D01*
X127390000Y-100896584D01*
X127390000Y-101103416D01*
X127349650Y-101306274D01*
X127270498Y-101497362D01*
X127155589Y-101669336D01*
X127009336Y-101815589D01*
X126837362Y-101930498D01*
X126646274Y-102009650D01*
X126468687Y-102044973D01*
X126443417Y-102050000D01*
X126236583Y-102050000D01*
X126211313Y-102044973D01*
X126033726Y-102009650D01*
X125842638Y-101930498D01*
X125670664Y-101815589D01*
X125524411Y-101669336D01*
X125409502Y-101497362D01*
X125330350Y-101306274D01*
X125290000Y-101103416D01*
X125290000Y-100896584D01*
X125330350Y-100693726D01*
X125409502Y-100502638D01*
X125524411Y-100330664D01*
X125670664Y-100184411D01*
X125842638Y-100069502D01*
X126033726Y-99990350D01*
X126211313Y-99955027D01*
X126236583Y-99950000D01*
X126443417Y-99950000D01*
X126468687Y-99955027D01*
G37*
G36*
X123928687Y-99955027D02*
G01*
X124106274Y-99990350D01*
X124297362Y-100069502D01*
X124469336Y-100184411D01*
X124615589Y-100330664D01*
X124730498Y-100502638D01*
X124809650Y-100693726D01*
X124850000Y-100896584D01*
X124850000Y-101103416D01*
X124809650Y-101306274D01*
X124730498Y-101497362D01*
X124615589Y-101669336D01*
X124469336Y-101815589D01*
X124297362Y-101930498D01*
X124106274Y-102009650D01*
X123928687Y-102044973D01*
X123903417Y-102050000D01*
X123696583Y-102050000D01*
X123671313Y-102044973D01*
X123493726Y-102009650D01*
X123302638Y-101930498D01*
X123130664Y-101815589D01*
X122984411Y-101669336D01*
X122869502Y-101497362D01*
X122790350Y-101306274D01*
X122750000Y-101103416D01*
X122750000Y-100896584D01*
X122790350Y-100693726D01*
X122869502Y-100502638D01*
X122984411Y-100330664D01*
X123130664Y-100184411D01*
X123302638Y-100069502D01*
X123493726Y-99990350D01*
X123671313Y-99955027D01*
X123696583Y-99950000D01*
X123903417Y-99950000D01*
X123928687Y-99955027D01*
G37*
G36*
X142588687Y-99955027D02*
G01*
X142766274Y-99990350D01*
X142957362Y-100069502D01*
X143129336Y-100184411D01*
X143275589Y-100330664D01*
X143390498Y-100502638D01*
X143469650Y-100693726D01*
X143510000Y-100896584D01*
X143510000Y-101103416D01*
X143469650Y-101306274D01*
X143390498Y-101497362D01*
X143275589Y-101669336D01*
X143129336Y-101815589D01*
X142957362Y-101930498D01*
X142766274Y-102009650D01*
X142588687Y-102044973D01*
X142563417Y-102050000D01*
X142356583Y-102050000D01*
X142331313Y-102044973D01*
X142153726Y-102009650D01*
X141962638Y-101930498D01*
X141790664Y-101815589D01*
X141644411Y-101669336D01*
X141529502Y-101497362D01*
X141450350Y-101306274D01*
X141410000Y-101103416D01*
X141410000Y-100896584D01*
X141450350Y-100693726D01*
X141529502Y-100502638D01*
X141644411Y-100330664D01*
X141790664Y-100184411D01*
X141962638Y-100069502D01*
X142153726Y-99990350D01*
X142331313Y-99955027D01*
X142356583Y-99950000D01*
X142563417Y-99950000D01*
X142588687Y-99955027D01*
G37*
G36*
X112913686Y-99910028D02*
G01*
X113091273Y-99945351D01*
X113282361Y-100024503D01*
X113454335Y-100139412D01*
X113600588Y-100285665D01*
X113715497Y-100457639D01*
X113794649Y-100648727D01*
X113834999Y-100851585D01*
X113834999Y-101058417D01*
X113794649Y-101261275D01*
X113715497Y-101452363D01*
X113600588Y-101624337D01*
X113454335Y-101770590D01*
X113282361Y-101885499D01*
X113091273Y-101964651D01*
X112913686Y-101999974D01*
X112888416Y-102005001D01*
X112681582Y-102005001D01*
X112656312Y-101999974D01*
X112478725Y-101964651D01*
X112287637Y-101885499D01*
X112115663Y-101770590D01*
X111969410Y-101624337D01*
X111854501Y-101452363D01*
X111775349Y-101261275D01*
X111734999Y-101058417D01*
X111734999Y-100851585D01*
X111775349Y-100648727D01*
X111854501Y-100457639D01*
X111969410Y-100285665D01*
X112115663Y-100139412D01*
X112287637Y-100024503D01*
X112478725Y-99945351D01*
X112656312Y-99910028D01*
X112681582Y-99905001D01*
X112888416Y-99905001D01*
X112913686Y-99910028D01*
G37*
G36*
X116374999Y-102005001D02*
G01*
X114274999Y-102005001D01*
X114274999Y-99905001D01*
X116374999Y-99905001D01*
X116374999Y-102005001D01*
G37*
G36*
X102753686Y-99910028D02*
G01*
X102931273Y-99945351D01*
X103122361Y-100024503D01*
X103294335Y-100139412D01*
X103440588Y-100285665D01*
X103555497Y-100457639D01*
X103634649Y-100648727D01*
X103674999Y-100851585D01*
X103674999Y-101058417D01*
X103634649Y-101261275D01*
X103555497Y-101452363D01*
X103440588Y-101624337D01*
X103294335Y-101770590D01*
X103122361Y-101885499D01*
X102931273Y-101964651D01*
X102753686Y-101999974D01*
X102728416Y-102005001D01*
X102521582Y-102005001D01*
X102496312Y-101999974D01*
X102318725Y-101964651D01*
X102127637Y-101885499D01*
X101955663Y-101770590D01*
X101809410Y-101624337D01*
X101694501Y-101452363D01*
X101615349Y-101261275D01*
X101574999Y-101058417D01*
X101574999Y-100851585D01*
X101615349Y-100648727D01*
X101694501Y-100457639D01*
X101809410Y-100285665D01*
X101955663Y-100139412D01*
X102127637Y-100024503D01*
X102318725Y-99945351D01*
X102496312Y-99910028D01*
X102521582Y-99905001D01*
X102728416Y-99905001D01*
X102753686Y-99910028D01*
G37*
G36*
X107833686Y-99910028D02*
G01*
X108011273Y-99945351D01*
X108202361Y-100024503D01*
X108374335Y-100139412D01*
X108520588Y-100285665D01*
X108635497Y-100457639D01*
X108714649Y-100648727D01*
X108754999Y-100851585D01*
X108754999Y-101058417D01*
X108714649Y-101261275D01*
X108635497Y-101452363D01*
X108520588Y-101624337D01*
X108374335Y-101770590D01*
X108202361Y-101885499D01*
X108011273Y-101964651D01*
X107833686Y-101999974D01*
X107808416Y-102005001D01*
X107601582Y-102005001D01*
X107576312Y-101999974D01*
X107398725Y-101964651D01*
X107207637Y-101885499D01*
X107035663Y-101770590D01*
X106889410Y-101624337D01*
X106774501Y-101452363D01*
X106695349Y-101261275D01*
X106654999Y-101058417D01*
X106654999Y-100851585D01*
X106695349Y-100648727D01*
X106774501Y-100457639D01*
X106889410Y-100285665D01*
X107035663Y-100139412D01*
X107207637Y-100024503D01*
X107398725Y-99945351D01*
X107576312Y-99910028D01*
X107601582Y-99905001D01*
X107808416Y-99905001D01*
X107833686Y-99910028D01*
G37*
G36*
X110373686Y-99910028D02*
G01*
X110551273Y-99945351D01*
X110742361Y-100024503D01*
X110914335Y-100139412D01*
X111060588Y-100285665D01*
X111175497Y-100457639D01*
X111254649Y-100648727D01*
X111294999Y-100851585D01*
X111294999Y-101058417D01*
X111254649Y-101261275D01*
X111175497Y-101452363D01*
X111060588Y-101624337D01*
X110914335Y-101770590D01*
X110742361Y-101885499D01*
X110551273Y-101964651D01*
X110373686Y-101999974D01*
X110348416Y-102005001D01*
X110141582Y-102005001D01*
X110116312Y-101999974D01*
X109938725Y-101964651D01*
X109747637Y-101885499D01*
X109575663Y-101770590D01*
X109429410Y-101624337D01*
X109314501Y-101452363D01*
X109235349Y-101261275D01*
X109194999Y-101058417D01*
X109194999Y-100851585D01*
X109235349Y-100648727D01*
X109314501Y-100457639D01*
X109429410Y-100285665D01*
X109575663Y-100139412D01*
X109747637Y-100024503D01*
X109938725Y-99945351D01*
X110116312Y-99910028D01*
X110141582Y-99905001D01*
X110348416Y-99905001D01*
X110373686Y-99910028D01*
G37*
G36*
X105293686Y-99910028D02*
G01*
X105471273Y-99945351D01*
X105662361Y-100024503D01*
X105834335Y-100139412D01*
X105980588Y-100285665D01*
X106095497Y-100457639D01*
X106174649Y-100648727D01*
X106214999Y-100851585D01*
X106214999Y-101058417D01*
X106174649Y-101261275D01*
X106095497Y-101452363D01*
X105980588Y-101624337D01*
X105834335Y-101770590D01*
X105662361Y-101885499D01*
X105471273Y-101964651D01*
X105293686Y-101999974D01*
X105268416Y-102005001D01*
X105061582Y-102005001D01*
X105036312Y-101999974D01*
X104858725Y-101964651D01*
X104667637Y-101885499D01*
X104495663Y-101770590D01*
X104349410Y-101624337D01*
X104234501Y-101452363D01*
X104155349Y-101261275D01*
X104114999Y-101058417D01*
X104114999Y-100851585D01*
X104155349Y-100648727D01*
X104234501Y-100457639D01*
X104349410Y-100285665D01*
X104495663Y-100139412D01*
X104667637Y-100024503D01*
X104858725Y-99945351D01*
X105036312Y-99910028D01*
X105061582Y-99905001D01*
X105268416Y-99905001D01*
X105293686Y-99910028D01*
G37*
G36*
X121585529Y-100105710D02*
G01*
X121635378Y-100120831D01*
X121681310Y-100145382D01*
X121721574Y-100178426D01*
X121754618Y-100218690D01*
X121779169Y-100264622D01*
X121794290Y-100314471D01*
X121800000Y-100372444D01*
X121800000Y-101627556D01*
X121794290Y-101685529D01*
X121779169Y-101735378D01*
X121754618Y-101781310D01*
X121721574Y-101821574D01*
X121681310Y-101854618D01*
X121635378Y-101879169D01*
X121585529Y-101894290D01*
X121527556Y-101900000D01*
X120522444Y-101900000D01*
X120464471Y-101894290D01*
X120414622Y-101879169D01*
X120368690Y-101854618D01*
X120328426Y-101821574D01*
X120295382Y-101781310D01*
X120270831Y-101735378D01*
X120255710Y-101685529D01*
X120250000Y-101627556D01*
X120250000Y-100372444D01*
X120255710Y-100314471D01*
X120270831Y-100264622D01*
X120295382Y-100218690D01*
X120328426Y-100178426D01*
X120368690Y-100145382D01*
X120414622Y-100120831D01*
X120464471Y-100105710D01*
X120522444Y-100100000D01*
X121527556Y-100100000D01*
X121585529Y-100105710D01*
G37*
G36*
X119535529Y-100105710D02*
G01*
X119585378Y-100120831D01*
X119631310Y-100145382D01*
X119671574Y-100178426D01*
X119704618Y-100218690D01*
X119729169Y-100264622D01*
X119744290Y-100314471D01*
X119750000Y-100372444D01*
X119750000Y-101627556D01*
X119744290Y-101685529D01*
X119729169Y-101735378D01*
X119704618Y-101781310D01*
X119671574Y-101821574D01*
X119631310Y-101854618D01*
X119585378Y-101879169D01*
X119535529Y-101894290D01*
X119477556Y-101900000D01*
X118472444Y-101900000D01*
X118414471Y-101894290D01*
X118364622Y-101879169D01*
X118318690Y-101854618D01*
X118278426Y-101821574D01*
X118245382Y-101781310D01*
X118220831Y-101735378D01*
X118205710Y-101685529D01*
X118200000Y-101627556D01*
X118200000Y-100372444D01*
X118205710Y-100314471D01*
X118220831Y-100264622D01*
X118245382Y-100218690D01*
X118278426Y-100178426D01*
X118318690Y-100145382D01*
X118364622Y-100120831D01*
X118414471Y-100105710D01*
X118472444Y-100100000D01*
X119477556Y-100100000D01*
X119535529Y-100105710D01*
G37*
G36*
X130881281Y-92489865D02*
G01*
X131000378Y-92501595D01*
X131229594Y-92571127D01*
X131229597Y-92571128D01*
X131401517Y-92663021D01*
X131440842Y-92684041D01*
X131626002Y-92835998D01*
X131777959Y-93021158D01*
X131777961Y-93021162D01*
X131890872Y-93232403D01*
X131890873Y-93232406D01*
X131960405Y-93461622D01*
X131983883Y-93700000D01*
X131960405Y-93938378D01*
X131890873Y-94167594D01*
X131890872Y-94167597D01*
X131798979Y-94339517D01*
X131777959Y-94378842D01*
X131626002Y-94564002D01*
X131440842Y-94715959D01*
X131440838Y-94715961D01*
X131229597Y-94828872D01*
X131229594Y-94828873D01*
X131000378Y-94898405D01*
X130881281Y-94910135D01*
X130821733Y-94916000D01*
X129178267Y-94916000D01*
X129118719Y-94910135D01*
X128999622Y-94898405D01*
X128770406Y-94828873D01*
X128770403Y-94828872D01*
X128559162Y-94715961D01*
X128559158Y-94715959D01*
X128373998Y-94564002D01*
X128222041Y-94378842D01*
X128201021Y-94339517D01*
X128109128Y-94167597D01*
X128109127Y-94167594D01*
X128039595Y-93938378D01*
X128016117Y-93700000D01*
X128039595Y-93461622D01*
X128109127Y-93232406D01*
X128109128Y-93232403D01*
X128222039Y-93021162D01*
X128222041Y-93021158D01*
X128373998Y-92835998D01*
X128559158Y-92684041D01*
X128598483Y-92663021D01*
X128770403Y-92571128D01*
X128770406Y-92571127D01*
X128999622Y-92501595D01*
X129118719Y-92489865D01*
X129178267Y-92484000D01*
X130821733Y-92484000D01*
X130881281Y-92489865D01*
G37*
G36*
X170881281Y-92489865D02*
G01*
X171000378Y-92501595D01*
X171229594Y-92571127D01*
X171229597Y-92571128D01*
X171401517Y-92663021D01*
X171440842Y-92684041D01*
X171626002Y-92835998D01*
X171777959Y-93021158D01*
X171777961Y-93021162D01*
X171890872Y-93232403D01*
X171890873Y-93232406D01*
X171960405Y-93461622D01*
X171983883Y-93700000D01*
X171960405Y-93938378D01*
X171890873Y-94167594D01*
X171890872Y-94167597D01*
X171798979Y-94339517D01*
X171777959Y-94378842D01*
X171626002Y-94564002D01*
X171440842Y-94715959D01*
X171440838Y-94715961D01*
X171229597Y-94828872D01*
X171229594Y-94828873D01*
X171000378Y-94898405D01*
X170881281Y-94910135D01*
X170821733Y-94916000D01*
X169178267Y-94916000D01*
X169118719Y-94910135D01*
X168999622Y-94898405D01*
X168770406Y-94828873D01*
X168770403Y-94828872D01*
X168559162Y-94715961D01*
X168559158Y-94715959D01*
X168373998Y-94564002D01*
X168222041Y-94378842D01*
X168201021Y-94339517D01*
X168109128Y-94167597D01*
X168109127Y-94167594D01*
X168039595Y-93938378D01*
X168016117Y-93700000D01*
X168039595Y-93461622D01*
X168109127Y-93232406D01*
X168109128Y-93232403D01*
X168222039Y-93021162D01*
X168222041Y-93021158D01*
X168373998Y-92835998D01*
X168559158Y-92684041D01*
X168598483Y-92663021D01*
X168770403Y-92571128D01*
X168770406Y-92571127D01*
X168999622Y-92501595D01*
X169118719Y-92489865D01*
X169178267Y-92484000D01*
X170821733Y-92484000D01*
X170881281Y-92489865D01*
G37*
G36*
X110881281Y-92489865D02*
G01*
X111000378Y-92501595D01*
X111229594Y-92571127D01*
X111229597Y-92571128D01*
X111401517Y-92663021D01*
X111440842Y-92684041D01*
X111626002Y-92835998D01*
X111777959Y-93021158D01*
X111777961Y-93021162D01*
X111890872Y-93232403D01*
X111890873Y-93232406D01*
X111960405Y-93461622D01*
X111983883Y-93700000D01*
X111960405Y-93938378D01*
X111890873Y-94167594D01*
X111890872Y-94167597D01*
X111798979Y-94339517D01*
X111777959Y-94378842D01*
X111626002Y-94564002D01*
X111440842Y-94715959D01*
X111440838Y-94715961D01*
X111229597Y-94828872D01*
X111229594Y-94828873D01*
X111000378Y-94898405D01*
X110881281Y-94910135D01*
X110821733Y-94916000D01*
X109178267Y-94916000D01*
X109118719Y-94910135D01*
X108999622Y-94898405D01*
X108770406Y-94828873D01*
X108770403Y-94828872D01*
X108559162Y-94715961D01*
X108559158Y-94715959D01*
X108373998Y-94564002D01*
X108222041Y-94378842D01*
X108201021Y-94339517D01*
X108109128Y-94167597D01*
X108109127Y-94167594D01*
X108039595Y-93938378D01*
X108016117Y-93700000D01*
X108039595Y-93461622D01*
X108109127Y-93232406D01*
X108109128Y-93232403D01*
X108222039Y-93021162D01*
X108222041Y-93021158D01*
X108373998Y-92835998D01*
X108559158Y-92684041D01*
X108598483Y-92663021D01*
X108770403Y-92571128D01*
X108770406Y-92571127D01*
X108999622Y-92501595D01*
X109118719Y-92489865D01*
X109178267Y-92484000D01*
X110821733Y-92484000D01*
X110881281Y-92489865D01*
G37*
G36*
X150881281Y-92489865D02*
G01*
X151000378Y-92501595D01*
X151229594Y-92571127D01*
X151229597Y-92571128D01*
X151401517Y-92663021D01*
X151440842Y-92684041D01*
X151626002Y-92835998D01*
X151777959Y-93021158D01*
X151777961Y-93021162D01*
X151890872Y-93232403D01*
X151890873Y-93232406D01*
X151960405Y-93461622D01*
X151983883Y-93700000D01*
X151960405Y-93938378D01*
X151890873Y-94167594D01*
X151890872Y-94167597D01*
X151798979Y-94339517D01*
X151777959Y-94378842D01*
X151626002Y-94564002D01*
X151440842Y-94715959D01*
X151440838Y-94715961D01*
X151229597Y-94828872D01*
X151229594Y-94828873D01*
X151000378Y-94898405D01*
X150881281Y-94910135D01*
X150821733Y-94916000D01*
X149178267Y-94916000D01*
X149118719Y-94910135D01*
X148999622Y-94898405D01*
X148770406Y-94828873D01*
X148770403Y-94828872D01*
X148559162Y-94715961D01*
X148559158Y-94715959D01*
X148373998Y-94564002D01*
X148222041Y-94378842D01*
X148201021Y-94339517D01*
X148109128Y-94167597D01*
X148109127Y-94167594D01*
X148039595Y-93938378D01*
X148016117Y-93700000D01*
X148039595Y-93461622D01*
X148109127Y-93232406D01*
X148109128Y-93232403D01*
X148222039Y-93021162D01*
X148222041Y-93021158D01*
X148373998Y-92835998D01*
X148559158Y-92684041D01*
X148598483Y-92663021D01*
X148770403Y-92571128D01*
X148770406Y-92571127D01*
X148999622Y-92501595D01*
X149118719Y-92489865D01*
X149178267Y-92484000D01*
X150821733Y-92484000D01*
X150881281Y-92489865D01*
G37*
G36*
X102628687Y-91655027D02*
G01*
X102806274Y-91690350D01*
X102997362Y-91769502D01*
X103169336Y-91884411D01*
X103315589Y-92030664D01*
X103430498Y-92202638D01*
X103509650Y-92393726D01*
X103550000Y-92596584D01*
X103550000Y-92803416D01*
X103509650Y-93006274D01*
X103430498Y-93197362D01*
X103315589Y-93369336D01*
X103169336Y-93515589D01*
X102997362Y-93630498D01*
X102806274Y-93709650D01*
X102628687Y-93744973D01*
X102603417Y-93750000D01*
X102396583Y-93750000D01*
X102371313Y-93744973D01*
X102193726Y-93709650D01*
X102002638Y-93630498D01*
X101830664Y-93515589D01*
X101684411Y-93369336D01*
X101569502Y-93197362D01*
X101490350Y-93006274D01*
X101450000Y-92803416D01*
X101450000Y-92596584D01*
X101490350Y-92393726D01*
X101569502Y-92202638D01*
X101684411Y-92030664D01*
X101830664Y-91884411D01*
X102002638Y-91769502D01*
X102193726Y-91690350D01*
X102371313Y-91655027D01*
X102396583Y-91650000D01*
X102603417Y-91650000D01*
X102628687Y-91655027D01*
G37*
G36*
X102628687Y-89115027D02*
G01*
X102806274Y-89150350D01*
X102997362Y-89229502D01*
X103169336Y-89344411D01*
X103315589Y-89490664D01*
X103430498Y-89662638D01*
X103509650Y-89853726D01*
X103550000Y-90056584D01*
X103550000Y-90263416D01*
X103509650Y-90466274D01*
X103430498Y-90657362D01*
X103315589Y-90829336D01*
X103169336Y-90975589D01*
X102997362Y-91090498D01*
X102806274Y-91169650D01*
X102628687Y-91204973D01*
X102603417Y-91210000D01*
X102396583Y-91210000D01*
X102371313Y-91204973D01*
X102193726Y-91169650D01*
X102002638Y-91090498D01*
X101830664Y-90975589D01*
X101684411Y-90829336D01*
X101569502Y-90657362D01*
X101490350Y-90466274D01*
X101450000Y-90263416D01*
X101450000Y-90056584D01*
X101490350Y-89853726D01*
X101569502Y-89662638D01*
X101684411Y-89490664D01*
X101830664Y-89344411D01*
X102002638Y-89229502D01*
X102193726Y-89150350D01*
X102371313Y-89115027D01*
X102396583Y-89110000D01*
X102603417Y-89110000D01*
X102628687Y-89115027D01*
G37*
G36*
X110881281Y-87789865D02*
G01*
X111000378Y-87801595D01*
X111229594Y-87871127D01*
X111229597Y-87871128D01*
X111401517Y-87963021D01*
X111440842Y-87984041D01*
X111626002Y-88135998D01*
X111777959Y-88321158D01*
X111777961Y-88321162D01*
X111890872Y-88532403D01*
X111890873Y-88532406D01*
X111960405Y-88761622D01*
X111983883Y-89000000D01*
X111960405Y-89238378D01*
X111928240Y-89344411D01*
X111890872Y-89467597D01*
X111798979Y-89639517D01*
X111777959Y-89678842D01*
X111626002Y-89864002D01*
X111440842Y-90015959D01*
X111440838Y-90015961D01*
X111229597Y-90128872D01*
X111229594Y-90128873D01*
X111000378Y-90198405D01*
X110881281Y-90210135D01*
X110821733Y-90216000D01*
X109178267Y-90216000D01*
X109118719Y-90210135D01*
X108999622Y-90198405D01*
X108770406Y-90128873D01*
X108770403Y-90128872D01*
X108559162Y-90015961D01*
X108559158Y-90015959D01*
X108373998Y-89864002D01*
X108222041Y-89678842D01*
X108201021Y-89639517D01*
X108109128Y-89467597D01*
X108071760Y-89344411D01*
X108039595Y-89238378D01*
X108016117Y-89000000D01*
X108039595Y-88761622D01*
X108109127Y-88532406D01*
X108109128Y-88532403D01*
X108222039Y-88321162D01*
X108222041Y-88321158D01*
X108373998Y-88135998D01*
X108559158Y-87984041D01*
X108598483Y-87963021D01*
X108770403Y-87871128D01*
X108770406Y-87871127D01*
X108999622Y-87801595D01*
X109118719Y-87789865D01*
X109178267Y-87784000D01*
X110821733Y-87784000D01*
X110881281Y-87789865D01*
G37*
G36*
X130881281Y-87789865D02*
G01*
X131000378Y-87801595D01*
X131229594Y-87871127D01*
X131229597Y-87871128D01*
X131401517Y-87963021D01*
X131440842Y-87984041D01*
X131626002Y-88135998D01*
X131777959Y-88321158D01*
X131777961Y-88321162D01*
X131890872Y-88532403D01*
X131890873Y-88532406D01*
X131960405Y-88761622D01*
X131983883Y-89000000D01*
X131960405Y-89238378D01*
X131928240Y-89344411D01*
X131890872Y-89467597D01*
X131798979Y-89639517D01*
X131777959Y-89678842D01*
X131626002Y-89864002D01*
X131440842Y-90015959D01*
X131440838Y-90015961D01*
X131229597Y-90128872D01*
X131229594Y-90128873D01*
X131000378Y-90198405D01*
X130881281Y-90210135D01*
X130821733Y-90216000D01*
X129178267Y-90216000D01*
X129118719Y-90210135D01*
X128999622Y-90198405D01*
X128770406Y-90128873D01*
X128770403Y-90128872D01*
X128559162Y-90015961D01*
X128559158Y-90015959D01*
X128373998Y-89864002D01*
X128222041Y-89678842D01*
X128201021Y-89639517D01*
X128109128Y-89467597D01*
X128071760Y-89344411D01*
X128039595Y-89238378D01*
X128016117Y-89000000D01*
X128039595Y-88761622D01*
X128109127Y-88532406D01*
X128109128Y-88532403D01*
X128222039Y-88321162D01*
X128222041Y-88321158D01*
X128373998Y-88135998D01*
X128559158Y-87984041D01*
X128598483Y-87963021D01*
X128770403Y-87871128D01*
X128770406Y-87871127D01*
X128999622Y-87801595D01*
X129118719Y-87789865D01*
X129178267Y-87784000D01*
X130821733Y-87784000D01*
X130881281Y-87789865D01*
G37*
G36*
X170881281Y-87789865D02*
G01*
X171000378Y-87801595D01*
X171229594Y-87871127D01*
X171229597Y-87871128D01*
X171401517Y-87963021D01*
X171440842Y-87984041D01*
X171626002Y-88135998D01*
X171777959Y-88321158D01*
X171777961Y-88321162D01*
X171890872Y-88532403D01*
X171890873Y-88532406D01*
X171960405Y-88761622D01*
X171983883Y-89000000D01*
X171960405Y-89238378D01*
X171928240Y-89344411D01*
X171890872Y-89467597D01*
X171798979Y-89639517D01*
X171777959Y-89678842D01*
X171626002Y-89864002D01*
X171440842Y-90015959D01*
X171440838Y-90015961D01*
X171229597Y-90128872D01*
X171229594Y-90128873D01*
X171000378Y-90198405D01*
X170881281Y-90210135D01*
X170821733Y-90216000D01*
X169178267Y-90216000D01*
X169118719Y-90210135D01*
X168999622Y-90198405D01*
X168770406Y-90128873D01*
X168770403Y-90128872D01*
X168559162Y-90015961D01*
X168559158Y-90015959D01*
X168373998Y-89864002D01*
X168222041Y-89678842D01*
X168201021Y-89639517D01*
X168109128Y-89467597D01*
X168071760Y-89344411D01*
X168039595Y-89238378D01*
X168016117Y-89000000D01*
X168039595Y-88761622D01*
X168109127Y-88532406D01*
X168109128Y-88532403D01*
X168222039Y-88321162D01*
X168222041Y-88321158D01*
X168373998Y-88135998D01*
X168559158Y-87984041D01*
X168598483Y-87963021D01*
X168770403Y-87871128D01*
X168770406Y-87871127D01*
X168999622Y-87801595D01*
X169118719Y-87789865D01*
X169178267Y-87784000D01*
X170821733Y-87784000D01*
X170881281Y-87789865D01*
G37*
G36*
X150881281Y-87789865D02*
G01*
X151000378Y-87801595D01*
X151229594Y-87871127D01*
X151229597Y-87871128D01*
X151401517Y-87963021D01*
X151440842Y-87984041D01*
X151626002Y-88135998D01*
X151777959Y-88321158D01*
X151777961Y-88321162D01*
X151890872Y-88532403D01*
X151890873Y-88532406D01*
X151960405Y-88761622D01*
X151983883Y-89000000D01*
X151960405Y-89238378D01*
X151928240Y-89344411D01*
X151890872Y-89467597D01*
X151798979Y-89639517D01*
X151777959Y-89678842D01*
X151626002Y-89864002D01*
X151440842Y-90015959D01*
X151440838Y-90015961D01*
X151229597Y-90128872D01*
X151229594Y-90128873D01*
X151000378Y-90198405D01*
X150881281Y-90210135D01*
X150821733Y-90216000D01*
X149178267Y-90216000D01*
X149118719Y-90210135D01*
X148999622Y-90198405D01*
X148770406Y-90128873D01*
X148770403Y-90128872D01*
X148559162Y-90015961D01*
X148559158Y-90015959D01*
X148373998Y-89864002D01*
X148222041Y-89678842D01*
X148201021Y-89639517D01*
X148109128Y-89467597D01*
X148071760Y-89344411D01*
X148039595Y-89238378D01*
X148016117Y-89000000D01*
X148039595Y-88761622D01*
X148109127Y-88532406D01*
X148109128Y-88532403D01*
X148222039Y-88321162D01*
X148222041Y-88321158D01*
X148373998Y-88135998D01*
X148559158Y-87984041D01*
X148598483Y-87963021D01*
X148770403Y-87871128D01*
X148770406Y-87871127D01*
X148999622Y-87801595D01*
X149118719Y-87789865D01*
X149178267Y-87784000D01*
X150821733Y-87784000D01*
X150881281Y-87789865D01*
G37*
G36*
X102628687Y-86575027D02*
G01*
X102806274Y-86610350D01*
X102997362Y-86689502D01*
X103169336Y-86804411D01*
X103315589Y-86950664D01*
X103430498Y-87122638D01*
X103509650Y-87313726D01*
X103550000Y-87516584D01*
X103550000Y-87723416D01*
X103509650Y-87926274D01*
X103430498Y-88117362D01*
X103315589Y-88289336D01*
X103169336Y-88435589D01*
X102997362Y-88550498D01*
X102806274Y-88629650D01*
X102628687Y-88664973D01*
X102603417Y-88670000D01*
X102396583Y-88670000D01*
X102371313Y-88664973D01*
X102193726Y-88629650D01*
X102002638Y-88550498D01*
X101830664Y-88435589D01*
X101684411Y-88289336D01*
X101569502Y-88117362D01*
X101490350Y-87926274D01*
X101450000Y-87723416D01*
X101450000Y-87516584D01*
X101490350Y-87313726D01*
X101569502Y-87122638D01*
X101684411Y-86950664D01*
X101830664Y-86804411D01*
X102002638Y-86689502D01*
X102193726Y-86610350D01*
X102371313Y-86575027D01*
X102396583Y-86570000D01*
X102603417Y-86570000D01*
X102628687Y-86575027D01*
G37*
G36*
X102628687Y-84035027D02*
G01*
X102806274Y-84070350D01*
X102997362Y-84149502D01*
X103169336Y-84264411D01*
X103315589Y-84410664D01*
X103430498Y-84582638D01*
X103509650Y-84773726D01*
X103550000Y-84976584D01*
X103550000Y-85183416D01*
X103509650Y-85386274D01*
X103430498Y-85577362D01*
X103315589Y-85749336D01*
X103169336Y-85895589D01*
X102997362Y-86010498D01*
X102806274Y-86089650D01*
X102628687Y-86124973D01*
X102603417Y-86130000D01*
X102396583Y-86130000D01*
X102371313Y-86124973D01*
X102193726Y-86089650D01*
X102002638Y-86010498D01*
X101830664Y-85895589D01*
X101684411Y-85749336D01*
X101569502Y-85577362D01*
X101490350Y-85386274D01*
X101450000Y-85183416D01*
X101450000Y-84976584D01*
X101490350Y-84773726D01*
X101569502Y-84582638D01*
X101684411Y-84410664D01*
X101830664Y-84264411D01*
X102002638Y-84149502D01*
X102193726Y-84070350D01*
X102371313Y-84035027D01*
X102396583Y-84030000D01*
X102603417Y-84030000D01*
X102628687Y-84035027D01*
G37*
G36*
X150881281Y-83089865D02*
G01*
X151000378Y-83101595D01*
X151229594Y-83171127D01*
X151229597Y-83171128D01*
X151401517Y-83263021D01*
X151440842Y-83284041D01*
X151626002Y-83435998D01*
X151777959Y-83621158D01*
X151777961Y-83621162D01*
X151890872Y-83832403D01*
X151890873Y-83832406D01*
X151960405Y-84061622D01*
X151983883Y-84300000D01*
X151960405Y-84538378D01*
X151946978Y-84582640D01*
X151890872Y-84767597D01*
X151798979Y-84939517D01*
X151777959Y-84978842D01*
X151626002Y-85164002D01*
X151440842Y-85315959D01*
X151440838Y-85315961D01*
X151229597Y-85428872D01*
X151229594Y-85428873D01*
X151000378Y-85498405D01*
X150881281Y-85510135D01*
X150821733Y-85516000D01*
X149178267Y-85516000D01*
X149118719Y-85510135D01*
X148999622Y-85498405D01*
X148770406Y-85428873D01*
X148770403Y-85428872D01*
X148559162Y-85315961D01*
X148559158Y-85315959D01*
X148373998Y-85164002D01*
X148222041Y-84978842D01*
X148201021Y-84939517D01*
X148109128Y-84767597D01*
X148053022Y-84582640D01*
X148039595Y-84538378D01*
X148016117Y-84300000D01*
X148039595Y-84061622D01*
X148109127Y-83832406D01*
X148109128Y-83832403D01*
X148222039Y-83621162D01*
X148222041Y-83621158D01*
X148373998Y-83435998D01*
X148559158Y-83284041D01*
X148598483Y-83263021D01*
X148770403Y-83171128D01*
X148770406Y-83171127D01*
X148999622Y-83101595D01*
X149118719Y-83089865D01*
X149178267Y-83084000D01*
X150821733Y-83084000D01*
X150881281Y-83089865D01*
G37*
G36*
X110881281Y-83089865D02*
G01*
X111000378Y-83101595D01*
X111229594Y-83171127D01*
X111229597Y-83171128D01*
X111401517Y-83263021D01*
X111440842Y-83284041D01*
X111626002Y-83435998D01*
X111777959Y-83621158D01*
X111777961Y-83621162D01*
X111890872Y-83832403D01*
X111890873Y-83832406D01*
X111960405Y-84061622D01*
X111983883Y-84300000D01*
X111960405Y-84538378D01*
X111946978Y-84582640D01*
X111890872Y-84767597D01*
X111798979Y-84939517D01*
X111777959Y-84978842D01*
X111626002Y-85164002D01*
X111440842Y-85315959D01*
X111440838Y-85315961D01*
X111229597Y-85428872D01*
X111229594Y-85428873D01*
X111000378Y-85498405D01*
X110881281Y-85510135D01*
X110821733Y-85516000D01*
X109178267Y-85516000D01*
X109118719Y-85510135D01*
X108999622Y-85498405D01*
X108770406Y-85428873D01*
X108770403Y-85428872D01*
X108559162Y-85315961D01*
X108559158Y-85315959D01*
X108373998Y-85164002D01*
X108222041Y-84978842D01*
X108201021Y-84939517D01*
X108109128Y-84767597D01*
X108053022Y-84582640D01*
X108039595Y-84538378D01*
X108016117Y-84300000D01*
X108039595Y-84061622D01*
X108109127Y-83832406D01*
X108109128Y-83832403D01*
X108222039Y-83621162D01*
X108222041Y-83621158D01*
X108373998Y-83435998D01*
X108559158Y-83284041D01*
X108598483Y-83263021D01*
X108770403Y-83171128D01*
X108770406Y-83171127D01*
X108999622Y-83101595D01*
X109118719Y-83089865D01*
X109178267Y-83084000D01*
X110821733Y-83084000D01*
X110881281Y-83089865D01*
G37*
G36*
X130881281Y-83089865D02*
G01*
X131000378Y-83101595D01*
X131229594Y-83171127D01*
X131229597Y-83171128D01*
X131401517Y-83263021D01*
X131440842Y-83284041D01*
X131626002Y-83435998D01*
X131777959Y-83621158D01*
X131777961Y-83621162D01*
X131890872Y-83832403D01*
X131890873Y-83832406D01*
X131960405Y-84061622D01*
X131983883Y-84300000D01*
X131960405Y-84538378D01*
X131946978Y-84582640D01*
X131890872Y-84767597D01*
X131798979Y-84939517D01*
X131777959Y-84978842D01*
X131626002Y-85164002D01*
X131440842Y-85315959D01*
X131440838Y-85315961D01*
X131229597Y-85428872D01*
X131229594Y-85428873D01*
X131000378Y-85498405D01*
X130881281Y-85510135D01*
X130821733Y-85516000D01*
X129178267Y-85516000D01*
X129118719Y-85510135D01*
X128999622Y-85498405D01*
X128770406Y-85428873D01*
X128770403Y-85428872D01*
X128559162Y-85315961D01*
X128559158Y-85315959D01*
X128373998Y-85164002D01*
X128222041Y-84978842D01*
X128201021Y-84939517D01*
X128109128Y-84767597D01*
X128053022Y-84582640D01*
X128039595Y-84538378D01*
X128016117Y-84300000D01*
X128039595Y-84061622D01*
X128109127Y-83832406D01*
X128109128Y-83832403D01*
X128222039Y-83621162D01*
X128222041Y-83621158D01*
X128373998Y-83435998D01*
X128559158Y-83284041D01*
X128598483Y-83263021D01*
X128770403Y-83171128D01*
X128770406Y-83171127D01*
X128999622Y-83101595D01*
X129118719Y-83089865D01*
X129178267Y-83084000D01*
X130821733Y-83084000D01*
X130881281Y-83089865D01*
G37*
G36*
X170881281Y-83089865D02*
G01*
X171000378Y-83101595D01*
X171229594Y-83171127D01*
X171229597Y-83171128D01*
X171401517Y-83263021D01*
X171440842Y-83284041D01*
X171626002Y-83435998D01*
X171777959Y-83621158D01*
X171777961Y-83621162D01*
X171890872Y-83832403D01*
X171890873Y-83832406D01*
X171960405Y-84061622D01*
X171983883Y-84300000D01*
X171960405Y-84538378D01*
X171946978Y-84582640D01*
X171890872Y-84767597D01*
X171798979Y-84939517D01*
X171777959Y-84978842D01*
X171626002Y-85164002D01*
X171440842Y-85315959D01*
X171440838Y-85315961D01*
X171229597Y-85428872D01*
X171229594Y-85428873D01*
X171000378Y-85498405D01*
X170881281Y-85510135D01*
X170821733Y-85516000D01*
X169178267Y-85516000D01*
X169118719Y-85510135D01*
X168999622Y-85498405D01*
X168770406Y-85428873D01*
X168770403Y-85428872D01*
X168559162Y-85315961D01*
X168559158Y-85315959D01*
X168373998Y-85164002D01*
X168222041Y-84978842D01*
X168201021Y-84939517D01*
X168109128Y-84767597D01*
X168053022Y-84582640D01*
X168039595Y-84538378D01*
X168016117Y-84300000D01*
X168039595Y-84061622D01*
X168109127Y-83832406D01*
X168109128Y-83832403D01*
X168222039Y-83621162D01*
X168222041Y-83621158D01*
X168373998Y-83435998D01*
X168559158Y-83284041D01*
X168598483Y-83263021D01*
X168770403Y-83171128D01*
X168770406Y-83171127D01*
X168999622Y-83101595D01*
X169118719Y-83089865D01*
X169178267Y-83084000D01*
X170821733Y-83084000D01*
X170881281Y-83089865D01*
G37*
G36*
X102628687Y-81495027D02*
G01*
X102806274Y-81530350D01*
X102997362Y-81609502D01*
X103169336Y-81724411D01*
X103315589Y-81870664D01*
X103430498Y-82042638D01*
X103509650Y-82233726D01*
X103550000Y-82436584D01*
X103550000Y-82643416D01*
X103509650Y-82846274D01*
X103430498Y-83037362D01*
X103315589Y-83209336D01*
X103169336Y-83355589D01*
X102997362Y-83470498D01*
X102806274Y-83549650D01*
X102628687Y-83584973D01*
X102603417Y-83590000D01*
X102396583Y-83590000D01*
X102371313Y-83584973D01*
X102193726Y-83549650D01*
X102002638Y-83470498D01*
X101830664Y-83355589D01*
X101684411Y-83209336D01*
X101569502Y-83037362D01*
X101490350Y-82846274D01*
X101450000Y-82643416D01*
X101450000Y-82436584D01*
X101490350Y-82233726D01*
X101569502Y-82042638D01*
X101684411Y-81870664D01*
X101830664Y-81724411D01*
X102002638Y-81609502D01*
X102193726Y-81530350D01*
X102371313Y-81495027D01*
X102396583Y-81490000D01*
X102603417Y-81490000D01*
X102628687Y-81495027D01*
G37*
G36*
X103550000Y-81050000D02*
G01*
X101450000Y-81050000D01*
X101450000Y-78950000D01*
X103550000Y-78950000D01*
X103550000Y-81050000D01*
G37*
G36*
X170166759Y-72708199D02*
G01*
X170333258Y-72724598D01*
X170650584Y-72820858D01*
X170653712Y-72821807D01*
X170949035Y-72979660D01*
X170949038Y-72979662D01*
X170949039Y-72979663D01*
X171207897Y-73192103D01*
X171341113Y-73354426D01*
X171420340Y-73450965D01*
X171578193Y-73746288D01*
X171578194Y-73746291D01*
X171675402Y-74066742D01*
X171708225Y-74400000D01*
X171675402Y-74733258D01*
X171578194Y-75053709D01*
X171578193Y-75053712D01*
X171420340Y-75349035D01*
X171207897Y-75607897D01*
X170949035Y-75820340D01*
X170653712Y-75978193D01*
X170653709Y-75978194D01*
X170333258Y-76075402D01*
X170166759Y-76091801D01*
X170083511Y-76100000D01*
X168916489Y-76100000D01*
X168833241Y-76091801D01*
X168666742Y-76075402D01*
X168346291Y-75978194D01*
X168346288Y-75978193D01*
X168050965Y-75820340D01*
X167792103Y-75607897D01*
X167579660Y-75349035D01*
X167421807Y-75053712D01*
X167421806Y-75053709D01*
X167324598Y-74733258D01*
X167291775Y-74400000D01*
X167324598Y-74066742D01*
X167421806Y-73746291D01*
X167421807Y-73746288D01*
X167579660Y-73450965D01*
X167658888Y-73354426D01*
X167792103Y-73192103D01*
X168050961Y-72979663D01*
X168050962Y-72979662D01*
X168050965Y-72979660D01*
X168346288Y-72821807D01*
X168349416Y-72820858D01*
X168666742Y-72724598D01*
X168833241Y-72708199D01*
X168916489Y-72700000D01*
X170083511Y-72700000D01*
X170166759Y-72708199D01*
G37*
G36*
X150166759Y-72708199D02*
G01*
X150333258Y-72724598D01*
X150650584Y-72820858D01*
X150653712Y-72821807D01*
X150949035Y-72979660D01*
X150949038Y-72979662D01*
X150949039Y-72979663D01*
X151207897Y-73192103D01*
X151341113Y-73354426D01*
X151420340Y-73450965D01*
X151578193Y-73746288D01*
X151578194Y-73746291D01*
X151675402Y-74066742D01*
X151708225Y-74400000D01*
X151675402Y-74733258D01*
X151578194Y-75053709D01*
X151578193Y-75053712D01*
X151420340Y-75349035D01*
X151207897Y-75607897D01*
X150949035Y-75820340D01*
X150653712Y-75978193D01*
X150653709Y-75978194D01*
X150333258Y-76075402D01*
X150166759Y-76091801D01*
X150083511Y-76100000D01*
X148916489Y-76100000D01*
X148833241Y-76091801D01*
X148666742Y-76075402D01*
X148346291Y-75978194D01*
X148346288Y-75978193D01*
X148050965Y-75820340D01*
X147792103Y-75607897D01*
X147579660Y-75349035D01*
X147421807Y-75053712D01*
X147421806Y-75053709D01*
X147324598Y-74733258D01*
X147291775Y-74400000D01*
X147324598Y-74066742D01*
X147421806Y-73746291D01*
X147421807Y-73746288D01*
X147579660Y-73450965D01*
X147658888Y-73354426D01*
X147792103Y-73192103D01*
X148050961Y-72979663D01*
X148050962Y-72979662D01*
X148050965Y-72979660D01*
X148346288Y-72821807D01*
X148349416Y-72820858D01*
X148666742Y-72724598D01*
X148833241Y-72708199D01*
X148916489Y-72700000D01*
X150083511Y-72700000D01*
X150166759Y-72708199D01*
G37*
G36*
X130166759Y-72708199D02*
G01*
X130333258Y-72724598D01*
X130650584Y-72820858D01*
X130653712Y-72821807D01*
X130949035Y-72979660D01*
X130949038Y-72979662D01*
X130949039Y-72979663D01*
X131207897Y-73192103D01*
X131341113Y-73354426D01*
X131420340Y-73450965D01*
X131578193Y-73746288D01*
X131578194Y-73746291D01*
X131675402Y-74066742D01*
X131708225Y-74400000D01*
X131675402Y-74733258D01*
X131578194Y-75053709D01*
X131578193Y-75053712D01*
X131420340Y-75349035D01*
X131207897Y-75607897D01*
X130949035Y-75820340D01*
X130653712Y-75978193D01*
X130653709Y-75978194D01*
X130333258Y-76075402D01*
X130166759Y-76091801D01*
X130083511Y-76100000D01*
X128916489Y-76100000D01*
X128833241Y-76091801D01*
X128666742Y-76075402D01*
X128346291Y-75978194D01*
X128346288Y-75978193D01*
X128050965Y-75820340D01*
X127792103Y-75607897D01*
X127579660Y-75349035D01*
X127421807Y-75053712D01*
X127421806Y-75053709D01*
X127324598Y-74733258D01*
X127291775Y-74400000D01*
X127324598Y-74066742D01*
X127421806Y-73746291D01*
X127421807Y-73746288D01*
X127579660Y-73450965D01*
X127658888Y-73354426D01*
X127792103Y-73192103D01*
X128050961Y-72979663D01*
X128050962Y-72979662D01*
X128050965Y-72979660D01*
X128346288Y-72821807D01*
X128349416Y-72820858D01*
X128666742Y-72724598D01*
X128833241Y-72708199D01*
X128916489Y-72700000D01*
X130083511Y-72700000D01*
X130166759Y-72708199D01*
G37*
G36*
X110166759Y-72708199D02*
G01*
X110333258Y-72724598D01*
X110650584Y-72820858D01*
X110653712Y-72821807D01*
X110949035Y-72979660D01*
X110949038Y-72979662D01*
X110949039Y-72979663D01*
X111207897Y-73192103D01*
X111341113Y-73354426D01*
X111420340Y-73450965D01*
X111578193Y-73746288D01*
X111578194Y-73746291D01*
X111675402Y-74066742D01*
X111708225Y-74400000D01*
X111675402Y-74733258D01*
X111578194Y-75053709D01*
X111578193Y-75053712D01*
X111420340Y-75349035D01*
X111207897Y-75607897D01*
X110949035Y-75820340D01*
X110653712Y-75978193D01*
X110653709Y-75978194D01*
X110333258Y-76075402D01*
X110166759Y-76091801D01*
X110083511Y-76100000D01*
X108916489Y-76100000D01*
X108833241Y-76091801D01*
X108666742Y-76075402D01*
X108346291Y-75978194D01*
X108346288Y-75978193D01*
X108050965Y-75820340D01*
X107792103Y-75607897D01*
X107579660Y-75349035D01*
X107421807Y-75053712D01*
X107421806Y-75053709D01*
X107324598Y-74733258D01*
X107291775Y-74400000D01*
X107324598Y-74066742D01*
X107421806Y-73746291D01*
X107421807Y-73746288D01*
X107579660Y-73450965D01*
X107658888Y-73354426D01*
X107792103Y-73192103D01*
X108050961Y-72979663D01*
X108050962Y-72979662D01*
X108050965Y-72979660D01*
X108346288Y-72821807D01*
X108349416Y-72820858D01*
X108666742Y-72724598D01*
X108833241Y-72708199D01*
X108916489Y-72700000D01*
X110083511Y-72700000D01*
X110166759Y-72708199D01*
G37*
G36*
X162820857Y-71442272D02*
G01*
X163021043Y-71525192D01*
X163021045Y-71525193D01*
X163111738Y-71585792D01*
X163201208Y-71645574D01*
X163354426Y-71798792D01*
X163474808Y-71978957D01*
X163557728Y-72179143D01*
X163600000Y-72391658D01*
X163600000Y-72608342D01*
X163557728Y-72820857D01*
X163474808Y-73021043D01*
X163360510Y-73192103D01*
X163354425Y-73201209D01*
X163201209Y-73354425D01*
X163021045Y-73474807D01*
X163021044Y-73474808D01*
X163021043Y-73474808D01*
X162820857Y-73557728D01*
X162608342Y-73600000D01*
X162391658Y-73600000D01*
X162179143Y-73557728D01*
X161978957Y-73474808D01*
X161978956Y-73474808D01*
X161978955Y-73474807D01*
X161798791Y-73354425D01*
X161645575Y-73201209D01*
X161639491Y-73192103D01*
X161525192Y-73021043D01*
X161442272Y-72820857D01*
X161400000Y-72608342D01*
X161400000Y-72391658D01*
X161442272Y-72179143D01*
X161525192Y-71978957D01*
X161645574Y-71798792D01*
X161798792Y-71645574D01*
X161888262Y-71585792D01*
X161978955Y-71525193D01*
X161978957Y-71525192D01*
X162179143Y-71442272D01*
X162391658Y-71400000D01*
X162608342Y-71400000D01*
X162820857Y-71442272D01*
G37*
G36*
X122820857Y-71442272D02*
G01*
X123021043Y-71525192D01*
X123021045Y-71525193D01*
X123111738Y-71585792D01*
X123201208Y-71645574D01*
X123354426Y-71798792D01*
X123474808Y-71978957D01*
X123557728Y-72179143D01*
X123600000Y-72391658D01*
X123600000Y-72608342D01*
X123557728Y-72820857D01*
X123474808Y-73021043D01*
X123360510Y-73192103D01*
X123354425Y-73201209D01*
X123201209Y-73354425D01*
X123021045Y-73474807D01*
X123021044Y-73474808D01*
X123021043Y-73474808D01*
X122820857Y-73557728D01*
X122608342Y-73600000D01*
X122391658Y-73600000D01*
X122179143Y-73557728D01*
X121978957Y-73474808D01*
X121978956Y-73474808D01*
X121978955Y-73474807D01*
X121798791Y-73354425D01*
X121645575Y-73201209D01*
X121639491Y-73192103D01*
X121525192Y-73021043D01*
X121442272Y-72820857D01*
X121400000Y-72608342D01*
X121400000Y-72391658D01*
X121442272Y-72179143D01*
X121525192Y-71978957D01*
X121645574Y-71798792D01*
X121798792Y-71645574D01*
X121888262Y-71585792D01*
X121978955Y-71525193D01*
X121978957Y-71525192D01*
X122179143Y-71442272D01*
X122391658Y-71400000D01*
X122608342Y-71400000D01*
X122820857Y-71442272D01*
G37*
G36*
X102820857Y-71442272D02*
G01*
X103021043Y-71525192D01*
X103021045Y-71525193D01*
X103111738Y-71585792D01*
X103201208Y-71645574D01*
X103354426Y-71798792D01*
X103474808Y-71978957D01*
X103557728Y-72179143D01*
X103600000Y-72391658D01*
X103600000Y-72608342D01*
X103557728Y-72820857D01*
X103474808Y-73021043D01*
X103360510Y-73192103D01*
X103354425Y-73201209D01*
X103201209Y-73354425D01*
X103021045Y-73474807D01*
X103021044Y-73474808D01*
X103021043Y-73474808D01*
X102820857Y-73557728D01*
X102608342Y-73600000D01*
X102391658Y-73600000D01*
X102179143Y-73557728D01*
X101978957Y-73474808D01*
X101978956Y-73474808D01*
X101978955Y-73474807D01*
X101798791Y-73354425D01*
X101645575Y-73201209D01*
X101639491Y-73192103D01*
X101525192Y-73021043D01*
X101442272Y-72820857D01*
X101400000Y-72608342D01*
X101400000Y-72391658D01*
X101442272Y-72179143D01*
X101525192Y-71978957D01*
X101645574Y-71798792D01*
X101798792Y-71645574D01*
X101888262Y-71585792D01*
X101978955Y-71525193D01*
X101978957Y-71525192D01*
X102179143Y-71442272D01*
X102391658Y-71400000D01*
X102608342Y-71400000D01*
X102820857Y-71442272D01*
G37*
G36*
X142820857Y-71442272D02*
G01*
X143021043Y-71525192D01*
X143021045Y-71525193D01*
X143111738Y-71585792D01*
X143201208Y-71645574D01*
X143354426Y-71798792D01*
X143474808Y-71978957D01*
X143557728Y-72179143D01*
X143600000Y-72391658D01*
X143600000Y-72608342D01*
X143557728Y-72820857D01*
X143474808Y-73021043D01*
X143360510Y-73192103D01*
X143354425Y-73201209D01*
X143201209Y-73354425D01*
X143021045Y-73474807D01*
X143021044Y-73474808D01*
X143021043Y-73474808D01*
X142820857Y-73557728D01*
X142608342Y-73600000D01*
X142391658Y-73600000D01*
X142179143Y-73557728D01*
X141978957Y-73474808D01*
X141978956Y-73474808D01*
X141978955Y-73474807D01*
X141798791Y-73354425D01*
X141645575Y-73201209D01*
X141639491Y-73192103D01*
X141525192Y-73021043D01*
X141442272Y-72820857D01*
X141400000Y-72608342D01*
X141400000Y-72391658D01*
X141442272Y-72179143D01*
X141525192Y-71978957D01*
X141645574Y-71798792D01*
X141798792Y-71645574D01*
X141888262Y-71585792D01*
X141978955Y-71525193D01*
X141978957Y-71525192D01*
X142179143Y-71442272D01*
X142391658Y-71400000D01*
X142608342Y-71400000D01*
X142820857Y-71442272D01*
G37*
G36*
X102820857Y-68942272D02*
G01*
X103021043Y-69025192D01*
X103021045Y-69025193D01*
X103111738Y-69085792D01*
X103201208Y-69145574D01*
X103354426Y-69298792D01*
X103474808Y-69478957D01*
X103557728Y-69679143D01*
X103600000Y-69891658D01*
X103600000Y-70108342D01*
X103557728Y-70320857D01*
X103474808Y-70521043D01*
X103474807Y-70521045D01*
X103354425Y-70701209D01*
X103201209Y-70854425D01*
X103021045Y-70974807D01*
X103021044Y-70974808D01*
X103021043Y-70974808D01*
X102820857Y-71057728D01*
X102608342Y-71100000D01*
X102391658Y-71100000D01*
X102179143Y-71057728D01*
X101978957Y-70974808D01*
X101978956Y-70974808D01*
X101978955Y-70974807D01*
X101798791Y-70854425D01*
X101645575Y-70701209D01*
X101525193Y-70521045D01*
X101525192Y-70521043D01*
X101442272Y-70320857D01*
X101400000Y-70108342D01*
X101400000Y-69891658D01*
X101442272Y-69679143D01*
X101525192Y-69478957D01*
X101645574Y-69298792D01*
X101798792Y-69145574D01*
X101888262Y-69085792D01*
X101978955Y-69025193D01*
X101978957Y-69025192D01*
X102179143Y-68942272D01*
X102391658Y-68900000D01*
X102608342Y-68900000D01*
X102820857Y-68942272D01*
G37*
G36*
X122820857Y-68942272D02*
G01*
X123021043Y-69025192D01*
X123021045Y-69025193D01*
X123111738Y-69085792D01*
X123201208Y-69145574D01*
X123354426Y-69298792D01*
X123474808Y-69478957D01*
X123557728Y-69679143D01*
X123600000Y-69891658D01*
X123600000Y-70108342D01*
X123557728Y-70320857D01*
X123474808Y-70521043D01*
X123474807Y-70521045D01*
X123354425Y-70701209D01*
X123201209Y-70854425D01*
X123021045Y-70974807D01*
X123021044Y-70974808D01*
X123021043Y-70974808D01*
X122820857Y-71057728D01*
X122608342Y-71100000D01*
X122391658Y-71100000D01*
X122179143Y-71057728D01*
X121978957Y-70974808D01*
X121978956Y-70974808D01*
X121978955Y-70974807D01*
X121798791Y-70854425D01*
X121645575Y-70701209D01*
X121525193Y-70521045D01*
X121525192Y-70521043D01*
X121442272Y-70320857D01*
X121400000Y-70108342D01*
X121400000Y-69891658D01*
X121442272Y-69679143D01*
X121525192Y-69478957D01*
X121645574Y-69298792D01*
X121798792Y-69145574D01*
X121888262Y-69085792D01*
X121978955Y-69025193D01*
X121978957Y-69025192D01*
X122179143Y-68942272D01*
X122391658Y-68900000D01*
X122608342Y-68900000D01*
X122820857Y-68942272D01*
G37*
G36*
X162820857Y-68942272D02*
G01*
X163021043Y-69025192D01*
X163021045Y-69025193D01*
X163111738Y-69085792D01*
X163201208Y-69145574D01*
X163354426Y-69298792D01*
X163474808Y-69478957D01*
X163557728Y-69679143D01*
X163600000Y-69891658D01*
X163600000Y-70108342D01*
X163557728Y-70320857D01*
X163474808Y-70521043D01*
X163474807Y-70521045D01*
X163354425Y-70701209D01*
X163201209Y-70854425D01*
X163021045Y-70974807D01*
X163021044Y-70974808D01*
X163021043Y-70974808D01*
X162820857Y-71057728D01*
X162608342Y-71100000D01*
X162391658Y-71100000D01*
X162179143Y-71057728D01*
X161978957Y-70974808D01*
X161978956Y-70974808D01*
X161978955Y-70974807D01*
X161798791Y-70854425D01*
X161645575Y-70701209D01*
X161525193Y-70521045D01*
X161525192Y-70521043D01*
X161442272Y-70320857D01*
X161400000Y-70108342D01*
X161400000Y-69891658D01*
X161442272Y-69679143D01*
X161525192Y-69478957D01*
X161645574Y-69298792D01*
X161798792Y-69145574D01*
X161888262Y-69085792D01*
X161978955Y-69025193D01*
X161978957Y-69025192D01*
X162179143Y-68942272D01*
X162391658Y-68900000D01*
X162608342Y-68900000D01*
X162820857Y-68942272D01*
G37*
G36*
X142820857Y-68942272D02*
G01*
X143021043Y-69025192D01*
X143021045Y-69025193D01*
X143111738Y-69085792D01*
X143201208Y-69145574D01*
X143354426Y-69298792D01*
X143474808Y-69478957D01*
X143557728Y-69679143D01*
X143600000Y-69891658D01*
X143600000Y-70108342D01*
X143557728Y-70320857D01*
X143474808Y-70521043D01*
X143474807Y-70521045D01*
X143354425Y-70701209D01*
X143201209Y-70854425D01*
X143021045Y-70974807D01*
X143021044Y-70974808D01*
X143021043Y-70974808D01*
X142820857Y-71057728D01*
X142608342Y-71100000D01*
X142391658Y-71100000D01*
X142179143Y-71057728D01*
X141978957Y-70974808D01*
X141978956Y-70974808D01*
X141978955Y-70974807D01*
X141798791Y-70854425D01*
X141645575Y-70701209D01*
X141525193Y-70521045D01*
X141525192Y-70521043D01*
X141442272Y-70320857D01*
X141400000Y-70108342D01*
X141400000Y-69891658D01*
X141442272Y-69679143D01*
X141525192Y-69478957D01*
X141645574Y-69298792D01*
X141798792Y-69145574D01*
X141888262Y-69085792D01*
X141978955Y-69025193D01*
X141978957Y-69025192D01*
X142179143Y-68942272D01*
X142391658Y-68900000D01*
X142608342Y-68900000D01*
X142820857Y-68942272D01*
G37*
G36*
X102820857Y-66442272D02*
G01*
X103021043Y-66525192D01*
X103021045Y-66525193D01*
X103056727Y-66549035D01*
X103201208Y-66645574D01*
X103354426Y-66798792D01*
X103474808Y-66978957D01*
X103557728Y-67179143D01*
X103600000Y-67391658D01*
X103600000Y-67608342D01*
X103557728Y-67820857D01*
X103474808Y-68021043D01*
X103474807Y-68021045D01*
X103354425Y-68201209D01*
X103201209Y-68354425D01*
X103021045Y-68474807D01*
X103021044Y-68474808D01*
X103021043Y-68474808D01*
X102820857Y-68557728D01*
X102608342Y-68600000D01*
X102391658Y-68600000D01*
X102179143Y-68557728D01*
X101978957Y-68474808D01*
X101978956Y-68474808D01*
X101978955Y-68474807D01*
X101798791Y-68354425D01*
X101645575Y-68201209D01*
X101525193Y-68021045D01*
X101525192Y-68021043D01*
X101442272Y-67820857D01*
X101400000Y-67608342D01*
X101400000Y-67391658D01*
X101442272Y-67179143D01*
X101525192Y-66978957D01*
X101645574Y-66798792D01*
X101798792Y-66645574D01*
X101943273Y-66549035D01*
X101978955Y-66525193D01*
X101978957Y-66525192D01*
X102179143Y-66442272D01*
X102391658Y-66400000D01*
X102608342Y-66400000D01*
X102820857Y-66442272D01*
G37*
G36*
X122820857Y-66442272D02*
G01*
X123021043Y-66525192D01*
X123021045Y-66525193D01*
X123056727Y-66549035D01*
X123201208Y-66645574D01*
X123354426Y-66798792D01*
X123474808Y-66978957D01*
X123557728Y-67179143D01*
X123600000Y-67391658D01*
X123600000Y-67608342D01*
X123557728Y-67820857D01*
X123474808Y-68021043D01*
X123474807Y-68021045D01*
X123354425Y-68201209D01*
X123201209Y-68354425D01*
X123021045Y-68474807D01*
X123021044Y-68474808D01*
X123021043Y-68474808D01*
X122820857Y-68557728D01*
X122608342Y-68600000D01*
X122391658Y-68600000D01*
X122179143Y-68557728D01*
X121978957Y-68474808D01*
X121978956Y-68474808D01*
X121978955Y-68474807D01*
X121798791Y-68354425D01*
X121645575Y-68201209D01*
X121525193Y-68021045D01*
X121525192Y-68021043D01*
X121442272Y-67820857D01*
X121400000Y-67608342D01*
X121400000Y-67391658D01*
X121442272Y-67179143D01*
X121525192Y-66978957D01*
X121645574Y-66798792D01*
X121798792Y-66645574D01*
X121943273Y-66549035D01*
X121978955Y-66525193D01*
X121978957Y-66525192D01*
X122179143Y-66442272D01*
X122391658Y-66400000D01*
X122608342Y-66400000D01*
X122820857Y-66442272D01*
G37*
G36*
X142820857Y-66442272D02*
G01*
X143021043Y-66525192D01*
X143021045Y-66525193D01*
X143056727Y-66549035D01*
X143201208Y-66645574D01*
X143354426Y-66798792D01*
X143474808Y-66978957D01*
X143557728Y-67179143D01*
X143600000Y-67391658D01*
X143600000Y-67608342D01*
X143557728Y-67820857D01*
X143474808Y-68021043D01*
X143474807Y-68021045D01*
X143354425Y-68201209D01*
X143201209Y-68354425D01*
X143021045Y-68474807D01*
X143021044Y-68474808D01*
X143021043Y-68474808D01*
X142820857Y-68557728D01*
X142608342Y-68600000D01*
X142391658Y-68600000D01*
X142179143Y-68557728D01*
X141978957Y-68474808D01*
X141978956Y-68474808D01*
X141978955Y-68474807D01*
X141798791Y-68354425D01*
X141645575Y-68201209D01*
X141525193Y-68021045D01*
X141525192Y-68021043D01*
X141442272Y-67820857D01*
X141400000Y-67608342D01*
X141400000Y-67391658D01*
X141442272Y-67179143D01*
X141525192Y-66978957D01*
X141645574Y-66798792D01*
X141798792Y-66645574D01*
X141943273Y-66549035D01*
X141978955Y-66525193D01*
X141978957Y-66525192D01*
X142179143Y-66442272D01*
X142391658Y-66400000D01*
X142608342Y-66400000D01*
X142820857Y-66442272D01*
G37*
G36*
X162820857Y-66442272D02*
G01*
X163021043Y-66525192D01*
X163021045Y-66525193D01*
X163056727Y-66549035D01*
X163201208Y-66645574D01*
X163354426Y-66798792D01*
X163474808Y-66978957D01*
X163557728Y-67179143D01*
X163600000Y-67391658D01*
X163600000Y-67608342D01*
X163557728Y-67820857D01*
X163474808Y-68021043D01*
X163474807Y-68021045D01*
X163354425Y-68201209D01*
X163201209Y-68354425D01*
X163021045Y-68474807D01*
X163021044Y-68474808D01*
X163021043Y-68474808D01*
X162820857Y-68557728D01*
X162608342Y-68600000D01*
X162391658Y-68600000D01*
X162179143Y-68557728D01*
X161978957Y-68474808D01*
X161978956Y-68474808D01*
X161978955Y-68474807D01*
X161798791Y-68354425D01*
X161645575Y-68201209D01*
X161525193Y-68021045D01*
X161525192Y-68021043D01*
X161442272Y-67820857D01*
X161400000Y-67608342D01*
X161400000Y-67391658D01*
X161442272Y-67179143D01*
X161525192Y-66978957D01*
X161645574Y-66798792D01*
X161798792Y-66645574D01*
X161943273Y-66549035D01*
X161978955Y-66525193D01*
X161978957Y-66525192D01*
X162179143Y-66442272D01*
X162391658Y-66400000D01*
X162608342Y-66400000D01*
X162820857Y-66442272D01*
G37*
G36*
X110166759Y-63908199D02*
G01*
X110333258Y-63924598D01*
X110653709Y-64021806D01*
X110653712Y-64021807D01*
X110949035Y-64179660D01*
X111207897Y-64392103D01*
X111420340Y-64650965D01*
X111578193Y-64946288D01*
X111578194Y-64946291D01*
X111675402Y-65266742D01*
X111708225Y-65600000D01*
X111675402Y-65933258D01*
X111578194Y-66253709D01*
X111578193Y-66253712D01*
X111420340Y-66549035D01*
X111420338Y-66549038D01*
X111420337Y-66549039D01*
X111207897Y-66807897D01*
X110999461Y-66978957D01*
X110949035Y-67020340D01*
X110653712Y-67178193D01*
X110653709Y-67178194D01*
X110333258Y-67275402D01*
X110166759Y-67291801D01*
X110083511Y-67300000D01*
X108916489Y-67300000D01*
X108833241Y-67291801D01*
X108666742Y-67275402D01*
X108346291Y-67178194D01*
X108346288Y-67178193D01*
X108050965Y-67020340D01*
X108000540Y-66978957D01*
X107792103Y-66807897D01*
X107579663Y-66549039D01*
X107579662Y-66549038D01*
X107579660Y-66549035D01*
X107421807Y-66253712D01*
X107421806Y-66253709D01*
X107324598Y-65933258D01*
X107291775Y-65600000D01*
X107324598Y-65266742D01*
X107421806Y-64946291D01*
X107421807Y-64946288D01*
X107579660Y-64650965D01*
X107792103Y-64392103D01*
X108050965Y-64179660D01*
X108346288Y-64021807D01*
X108346291Y-64021806D01*
X108666742Y-63924598D01*
X108833241Y-63908199D01*
X108916489Y-63900000D01*
X110083511Y-63900000D01*
X110166759Y-63908199D01*
G37*
G36*
X170166759Y-63908199D02*
G01*
X170333258Y-63924598D01*
X170653709Y-64021806D01*
X170653712Y-64021807D01*
X170949035Y-64179660D01*
X171207897Y-64392103D01*
X171420340Y-64650965D01*
X171578193Y-64946288D01*
X171578194Y-64946291D01*
X171675402Y-65266742D01*
X171708225Y-65600000D01*
X171675402Y-65933258D01*
X171578194Y-66253709D01*
X171578193Y-66253712D01*
X171420340Y-66549035D01*
X171420338Y-66549038D01*
X171420337Y-66549039D01*
X171207897Y-66807897D01*
X170999461Y-66978957D01*
X170949035Y-67020340D01*
X170653712Y-67178193D01*
X170653709Y-67178194D01*
X170333258Y-67275402D01*
X170166759Y-67291801D01*
X170083511Y-67300000D01*
X168916489Y-67300000D01*
X168833241Y-67291801D01*
X168666742Y-67275402D01*
X168346291Y-67178194D01*
X168346288Y-67178193D01*
X168050965Y-67020340D01*
X168000540Y-66978957D01*
X167792103Y-66807897D01*
X167579663Y-66549039D01*
X167579662Y-66549038D01*
X167579660Y-66549035D01*
X167421807Y-66253712D01*
X167421806Y-66253709D01*
X167324598Y-65933258D01*
X167291775Y-65600000D01*
X167324598Y-65266742D01*
X167421806Y-64946291D01*
X167421807Y-64946288D01*
X167579660Y-64650965D01*
X167792103Y-64392103D01*
X168050965Y-64179660D01*
X168346288Y-64021807D01*
X168346291Y-64021806D01*
X168666742Y-63924598D01*
X168833241Y-63908199D01*
X168916489Y-63900000D01*
X170083511Y-63900000D01*
X170166759Y-63908199D01*
G37*
G36*
X130166759Y-63908199D02*
G01*
X130333258Y-63924598D01*
X130653709Y-64021806D01*
X130653712Y-64021807D01*
X130949035Y-64179660D01*
X131207897Y-64392103D01*
X131420340Y-64650965D01*
X131578193Y-64946288D01*
X131578194Y-64946291D01*
X131675402Y-65266742D01*
X131708225Y-65600000D01*
X131675402Y-65933258D01*
X131578194Y-66253709D01*
X131578193Y-66253712D01*
X131420340Y-66549035D01*
X131420338Y-66549038D01*
X131420337Y-66549039D01*
X131207897Y-66807897D01*
X130999461Y-66978957D01*
X130949035Y-67020340D01*
X130653712Y-67178193D01*
X130653709Y-67178194D01*
X130333258Y-67275402D01*
X130166759Y-67291801D01*
X130083511Y-67300000D01*
X128916489Y-67300000D01*
X128833241Y-67291801D01*
X128666742Y-67275402D01*
X128346291Y-67178194D01*
X128346288Y-67178193D01*
X128050965Y-67020340D01*
X128000540Y-66978957D01*
X127792103Y-66807897D01*
X127579663Y-66549039D01*
X127579662Y-66549038D01*
X127579660Y-66549035D01*
X127421807Y-66253712D01*
X127421806Y-66253709D01*
X127324598Y-65933258D01*
X127291775Y-65600000D01*
X127324598Y-65266742D01*
X127421806Y-64946291D01*
X127421807Y-64946288D01*
X127579660Y-64650965D01*
X127792103Y-64392103D01*
X128050965Y-64179660D01*
X128346288Y-64021807D01*
X128346291Y-64021806D01*
X128666742Y-63924598D01*
X128833241Y-63908199D01*
X128916489Y-63900000D01*
X130083511Y-63900000D01*
X130166759Y-63908199D01*
G37*
G36*
X150166759Y-63908199D02*
G01*
X150333258Y-63924598D01*
X150653709Y-64021806D01*
X150653712Y-64021807D01*
X150949035Y-64179660D01*
X151207897Y-64392103D01*
X151420340Y-64650965D01*
X151578193Y-64946288D01*
X151578194Y-64946291D01*
X151675402Y-65266742D01*
X151708225Y-65600000D01*
X151675402Y-65933258D01*
X151578194Y-66253709D01*
X151578193Y-66253712D01*
X151420340Y-66549035D01*
X151420338Y-66549038D01*
X151420337Y-66549039D01*
X151207897Y-66807897D01*
X150999461Y-66978957D01*
X150949035Y-67020340D01*
X150653712Y-67178193D01*
X150653709Y-67178194D01*
X150333258Y-67275402D01*
X150166759Y-67291801D01*
X150083511Y-67300000D01*
X148916489Y-67300000D01*
X148833241Y-67291801D01*
X148666742Y-67275402D01*
X148346291Y-67178194D01*
X148346288Y-67178193D01*
X148050965Y-67020340D01*
X148000540Y-66978957D01*
X147792103Y-66807897D01*
X147579663Y-66549039D01*
X147579662Y-66549038D01*
X147579660Y-66549035D01*
X147421807Y-66253712D01*
X147421806Y-66253709D01*
X147324598Y-65933258D01*
X147291775Y-65600000D01*
X147324598Y-65266742D01*
X147421806Y-64946291D01*
X147421807Y-64946288D01*
X147579660Y-64650965D01*
X147792103Y-64392103D01*
X148050965Y-64179660D01*
X148346288Y-64021807D01*
X148346291Y-64021806D01*
X148666742Y-63924598D01*
X148833241Y-63908199D01*
X148916489Y-63900000D01*
X150083511Y-63900000D01*
X150166759Y-63908199D01*
G37*
G36*
X177628687Y-57035027D02*
G01*
X177806274Y-57070350D01*
X177997362Y-57149502D01*
X178169336Y-57264411D01*
X178315589Y-57410664D01*
X178430498Y-57582638D01*
X178509650Y-57773726D01*
X178550000Y-57976584D01*
X178550000Y-58183416D01*
X178509650Y-58386274D01*
X178430498Y-58577362D01*
X178315589Y-58749336D01*
X178169336Y-58895589D01*
X177997362Y-59010498D01*
X177806274Y-59089650D01*
X177628687Y-59124973D01*
X177603417Y-59130000D01*
X177396583Y-59130000D01*
X177371313Y-59124973D01*
X177193726Y-59089650D01*
X177002638Y-59010498D01*
X176830664Y-58895589D01*
X176684411Y-58749336D01*
X176569502Y-58577362D01*
X176490350Y-58386274D01*
X176450000Y-58183416D01*
X176450000Y-57976584D01*
X176490350Y-57773726D01*
X176569502Y-57582638D01*
X176684411Y-57410664D01*
X176830664Y-57264411D01*
X177002638Y-57149502D01*
X177193726Y-57070350D01*
X177371313Y-57035027D01*
X177396583Y-57030000D01*
X177603417Y-57030000D01*
X177628687Y-57035027D01*
G37*
G36*
X102628687Y-56955027D02*
G01*
X102806274Y-56990350D01*
X102997362Y-57069502D01*
X103169336Y-57184411D01*
X103315589Y-57330664D01*
X103430498Y-57502638D01*
X103509650Y-57693726D01*
X103550000Y-57896584D01*
X103550000Y-58103416D01*
X103509650Y-58306274D01*
X103430498Y-58497362D01*
X103315589Y-58669336D01*
X103169336Y-58815589D01*
X102997362Y-58930498D01*
X102806274Y-59009650D01*
X102628687Y-59044973D01*
X102603417Y-59050000D01*
X102396583Y-59050000D01*
X102371313Y-59044973D01*
X102193726Y-59009650D01*
X102002638Y-58930498D01*
X101830664Y-58815589D01*
X101684411Y-58669336D01*
X101569502Y-58497362D01*
X101490350Y-58306274D01*
X101450000Y-58103416D01*
X101450000Y-57896584D01*
X101490350Y-57693726D01*
X101569502Y-57502638D01*
X101684411Y-57330664D01*
X101830664Y-57184411D01*
X102002638Y-57069502D01*
X102193726Y-56990350D01*
X102371313Y-56955027D01*
X102396583Y-56950000D01*
X102603417Y-56950000D01*
X102628687Y-56955027D01*
G37*
G36*
X171360857Y-54442272D02*
G01*
X171561043Y-54525192D01*
X171561045Y-54525193D01*
X171568763Y-54530350D01*
X171739469Y-54644412D01*
X171741209Y-54645575D01*
X171894425Y-54798791D01*
X172003906Y-54962640D01*
X172014808Y-54978957D01*
X172097728Y-55179143D01*
X172140000Y-55391658D01*
X172140000Y-55608342D01*
X172097728Y-55820857D01*
X172014808Y-56021043D01*
X172014807Y-56021045D01*
X172003904Y-56037362D01*
X171894426Y-56201208D01*
X171741208Y-56354426D01*
X171739467Y-56355589D01*
X171561045Y-56474807D01*
X171561044Y-56474808D01*
X171561043Y-56474808D01*
X171360857Y-56557728D01*
X171148342Y-56600000D01*
X170931658Y-56600000D01*
X170719143Y-56557728D01*
X170518957Y-56474808D01*
X170518956Y-56474808D01*
X170518955Y-56474807D01*
X170340533Y-56355589D01*
X170338792Y-56354426D01*
X170185574Y-56201208D01*
X170076096Y-56037362D01*
X170065193Y-56021045D01*
X170065192Y-56021043D01*
X169982272Y-55820857D01*
X169940000Y-55608342D01*
X169940000Y-55391658D01*
X169982272Y-55179143D01*
X170065192Y-54978957D01*
X170076095Y-54962640D01*
X170185575Y-54798791D01*
X170338791Y-54645575D01*
X170340532Y-54644412D01*
X170511237Y-54530350D01*
X170518955Y-54525193D01*
X170518957Y-54525192D01*
X170719143Y-54442272D01*
X170931658Y-54400000D01*
X171148342Y-54400000D01*
X171360857Y-54442272D01*
G37*
G36*
X169600000Y-56600000D02*
G01*
X167400000Y-56600000D01*
X167400000Y-54400000D01*
X169600000Y-54400000D01*
X169600000Y-56600000D01*
G37*
G36*
X149600000Y-56600000D02*
G01*
X147400000Y-56600000D01*
X147400000Y-54400000D01*
X149600000Y-54400000D01*
X149600000Y-56600000D01*
G37*
G36*
X151360857Y-54442272D02*
G01*
X151561043Y-54525192D01*
X151561045Y-54525193D01*
X151568763Y-54530350D01*
X151739469Y-54644412D01*
X151741209Y-54645575D01*
X151894425Y-54798791D01*
X152003906Y-54962640D01*
X152014808Y-54978957D01*
X152097728Y-55179143D01*
X152140000Y-55391658D01*
X152140000Y-55608342D01*
X152097728Y-55820857D01*
X152014808Y-56021043D01*
X152014807Y-56021045D01*
X152003904Y-56037362D01*
X151894426Y-56201208D01*
X151741208Y-56354426D01*
X151739467Y-56355589D01*
X151561045Y-56474807D01*
X151561044Y-56474808D01*
X151561043Y-56474808D01*
X151360857Y-56557728D01*
X151148342Y-56600000D01*
X150931658Y-56600000D01*
X150719143Y-56557728D01*
X150518957Y-56474808D01*
X150518956Y-56474808D01*
X150518955Y-56474807D01*
X150340533Y-56355589D01*
X150338792Y-56354426D01*
X150185574Y-56201208D01*
X150076096Y-56037362D01*
X150065193Y-56021045D01*
X150065192Y-56021043D01*
X149982272Y-55820857D01*
X149940000Y-55608342D01*
X149940000Y-55391658D01*
X149982272Y-55179143D01*
X150065192Y-54978957D01*
X150076095Y-54962640D01*
X150185575Y-54798791D01*
X150338791Y-54645575D01*
X150340532Y-54644412D01*
X150511237Y-54530350D01*
X150518955Y-54525193D01*
X150518957Y-54525192D01*
X150719143Y-54442272D01*
X150931658Y-54400000D01*
X151148342Y-54400000D01*
X151360857Y-54442272D01*
G37*
G36*
X131360857Y-54442272D02*
G01*
X131561043Y-54525192D01*
X131561045Y-54525193D01*
X131568763Y-54530350D01*
X131739469Y-54644412D01*
X131741209Y-54645575D01*
X131894425Y-54798791D01*
X132003906Y-54962640D01*
X132014808Y-54978957D01*
X132097728Y-55179143D01*
X132140000Y-55391658D01*
X132140000Y-55608342D01*
X132097728Y-55820857D01*
X132014808Y-56021043D01*
X132014807Y-56021045D01*
X132003904Y-56037362D01*
X131894426Y-56201208D01*
X131741208Y-56354426D01*
X131739467Y-56355589D01*
X131561045Y-56474807D01*
X131561044Y-56474808D01*
X131561043Y-56474808D01*
X131360857Y-56557728D01*
X131148342Y-56600000D01*
X130931658Y-56600000D01*
X130719143Y-56557728D01*
X130518957Y-56474808D01*
X130518956Y-56474808D01*
X130518955Y-56474807D01*
X130340533Y-56355589D01*
X130338792Y-56354426D01*
X130185574Y-56201208D01*
X130076096Y-56037362D01*
X130065193Y-56021045D01*
X130065192Y-56021043D01*
X129982272Y-55820857D01*
X129940000Y-55608342D01*
X129940000Y-55391658D01*
X129982272Y-55179143D01*
X130065192Y-54978957D01*
X130076095Y-54962640D01*
X130185575Y-54798791D01*
X130338791Y-54645575D01*
X130340532Y-54644412D01*
X130511237Y-54530350D01*
X130518955Y-54525193D01*
X130518957Y-54525192D01*
X130719143Y-54442272D01*
X130931658Y-54400000D01*
X131148342Y-54400000D01*
X131360857Y-54442272D01*
G37*
G36*
X129600000Y-56600000D02*
G01*
X127400000Y-56600000D01*
X127400000Y-54400000D01*
X129600000Y-54400000D01*
X129600000Y-56600000D01*
G37*
G36*
X109600000Y-56600000D02*
G01*
X107400000Y-56600000D01*
X107400000Y-54400000D01*
X109600000Y-54400000D01*
X109600000Y-56600000D01*
G37*
G36*
X111360857Y-54442272D02*
G01*
X111561043Y-54525192D01*
X111561045Y-54525193D01*
X111568763Y-54530350D01*
X111739469Y-54644412D01*
X111741209Y-54645575D01*
X111894425Y-54798791D01*
X112003906Y-54962640D01*
X112014808Y-54978957D01*
X112097728Y-55179143D01*
X112140000Y-55391658D01*
X112140000Y-55608342D01*
X112097728Y-55820857D01*
X112014808Y-56021043D01*
X112014807Y-56021045D01*
X112003904Y-56037362D01*
X111894426Y-56201208D01*
X111741208Y-56354426D01*
X111739467Y-56355589D01*
X111561045Y-56474807D01*
X111561044Y-56474808D01*
X111561043Y-56474808D01*
X111360857Y-56557728D01*
X111148342Y-56600000D01*
X110931658Y-56600000D01*
X110719143Y-56557728D01*
X110518957Y-56474808D01*
X110518956Y-56474808D01*
X110518955Y-56474807D01*
X110340533Y-56355589D01*
X110338792Y-56354426D01*
X110185574Y-56201208D01*
X110076096Y-56037362D01*
X110065193Y-56021045D01*
X110065192Y-56021043D01*
X109982272Y-55820857D01*
X109940000Y-55608342D01*
X109940000Y-55391658D01*
X109982272Y-55179143D01*
X110065192Y-54978957D01*
X110076095Y-54962640D01*
X110185575Y-54798791D01*
X110338791Y-54645575D01*
X110340532Y-54644412D01*
X110511237Y-54530350D01*
X110518955Y-54525193D01*
X110518957Y-54525192D01*
X110719143Y-54442272D01*
X110931658Y-54400000D01*
X111148342Y-54400000D01*
X111360857Y-54442272D01*
G37*
G36*
X177628687Y-54495027D02*
G01*
X177806274Y-54530350D01*
X177997362Y-54609502D01*
X178169336Y-54724411D01*
X178315589Y-54870664D01*
X178430498Y-55042638D01*
X178509650Y-55233726D01*
X178550000Y-55436584D01*
X178550000Y-55643416D01*
X178509650Y-55846274D01*
X178430498Y-56037362D01*
X178315589Y-56209336D01*
X178169336Y-56355589D01*
X177997362Y-56470498D01*
X177806274Y-56549650D01*
X177628687Y-56584973D01*
X177603417Y-56590000D01*
X177396583Y-56590000D01*
X177371313Y-56584973D01*
X177193726Y-56549650D01*
X177002638Y-56470498D01*
X176830664Y-56355589D01*
X176684411Y-56209336D01*
X176569502Y-56037362D01*
X176490350Y-55846274D01*
X176450000Y-55643416D01*
X176450000Y-55436584D01*
X176490350Y-55233726D01*
X176569502Y-55042638D01*
X176684411Y-54870664D01*
X176830664Y-54724411D01*
X177002638Y-54609502D01*
X177193726Y-54530350D01*
X177371313Y-54495027D01*
X177396583Y-54490000D01*
X177603417Y-54490000D01*
X177628687Y-54495027D01*
G37*
G36*
X102628687Y-54415027D02*
G01*
X102806274Y-54450350D01*
X102997362Y-54529502D01*
X103169336Y-54644411D01*
X103315589Y-54790664D01*
X103430498Y-54962638D01*
X103509650Y-55153726D01*
X103550000Y-55356584D01*
X103550000Y-55563416D01*
X103509650Y-55766274D01*
X103430498Y-55957362D01*
X103315589Y-56129336D01*
X103169336Y-56275589D01*
X102997362Y-56390498D01*
X102806274Y-56469650D01*
X102628687Y-56504973D01*
X102603417Y-56510000D01*
X102396583Y-56510000D01*
X102371313Y-56504973D01*
X102193726Y-56469650D01*
X102002638Y-56390498D01*
X101830664Y-56275589D01*
X101684411Y-56129336D01*
X101569502Y-55957362D01*
X101490350Y-55766274D01*
X101450000Y-55563416D01*
X101450000Y-55356584D01*
X101490350Y-55153726D01*
X101569502Y-54962638D01*
X101684411Y-54790664D01*
X101830664Y-54644411D01*
X102002638Y-54529502D01*
X102193726Y-54450350D01*
X102371313Y-54415027D01*
X102396583Y-54410000D01*
X102603417Y-54410000D01*
X102628687Y-54415027D01*
G37*
G36*
X178550000Y-54050000D02*
G01*
X176450000Y-54050000D01*
X176450000Y-51950000D01*
X178550000Y-51950000D01*
X178550000Y-54050000D01*
G37*
G36*
X103550000Y-53970000D02*
G01*
X101450000Y-53970000D01*
X101450000Y-51870000D01*
X103550000Y-51870000D01*
X103550000Y-53970000D01*
G37*
M02*
