%TF.GenerationSoftware,KiCad,Pcbnew,(5.1.0)-1*%
%TF.CreationDate,2019-09-30T23:49:38+02:00*%
%TF.ProjectId,KicadJE_SympleSeq,4b696361-644a-4455-9f53-796d706c6553,Rev A*%
%TF.SameCoordinates,Original*%
%TF.FileFunction,Legend,Top*%
%TF.FilePolarity,Positive*%
%FSLAX46Y46*%
G04 Gerber Fmt 4.6, Leading zero omitted, Abs format (unit mm)*
G04 Created by KiCad (PCBNEW (5.1.0)-1) date 2019-09-30 23:49:38*
%MOMM*%
%LPD*%
G04 APERTURE LIST*
%ADD10C,0.300000*%
%ADD11C,0.450000*%
%ADD12C,0.375000*%
%ADD13C,1.000000*%
%ADD14C,0.120000*%
%ADD15C,0.150000*%
G04 APERTURE END LIST*
D10*
X130500000Y-105928571D02*
X130500000Y-106285714D01*
X130142857Y-106142857D02*
X130500000Y-106285714D01*
X130857142Y-106142857D01*
X130285714Y-106571428D02*
X130500000Y-106285714D01*
X130714285Y-106571428D01*
D11*
X109485357Y-60154761D02*
X109485357Y-61583333D01*
X109399642Y-61869047D01*
X109228214Y-62059523D01*
X108971071Y-62154761D01*
X108799642Y-62154761D01*
X110599642Y-62154761D02*
X110428214Y-62059523D01*
X110342500Y-61964285D01*
X110256785Y-61773809D01*
X110256785Y-61202380D01*
X110342500Y-61011904D01*
X110428214Y-60916666D01*
X110599642Y-60821428D01*
X110856785Y-60821428D01*
X111028214Y-60916666D01*
X111113928Y-61011904D01*
X111199642Y-61202380D01*
X111199642Y-61773809D01*
X111113928Y-61964285D01*
X111028214Y-62059523D01*
X110856785Y-62154761D01*
X110599642Y-62154761D01*
X111971071Y-62154761D02*
X111971071Y-60154761D01*
X112742500Y-62154761D02*
X112742500Y-61107142D01*
X112656785Y-60916666D01*
X112485357Y-60821428D01*
X112228214Y-60821428D01*
X112056785Y-60916666D01*
X111971071Y-61011904D01*
X114371071Y-62154761D02*
X114371071Y-61107142D01*
X114285357Y-60916666D01*
X114113928Y-60821428D01*
X113771071Y-60821428D01*
X113599642Y-60916666D01*
X114371071Y-62059523D02*
X114199642Y-62154761D01*
X113771071Y-62154761D01*
X113599642Y-62059523D01*
X113513928Y-61869047D01*
X113513928Y-61678571D01*
X113599642Y-61488095D01*
X113771071Y-61392857D01*
X114199642Y-61392857D01*
X114371071Y-61297619D01*
X115228214Y-60821428D02*
X115228214Y-62154761D01*
X115228214Y-61011904D02*
X115313928Y-60916666D01*
X115485357Y-60821428D01*
X115742500Y-60821428D01*
X115913928Y-60916666D01*
X115999642Y-61107142D01*
X115999642Y-62154761D01*
X116771071Y-62059523D02*
X116942500Y-62154761D01*
X117285357Y-62154761D01*
X117456785Y-62059523D01*
X117542500Y-61869047D01*
X117542500Y-61773809D01*
X117456785Y-61583333D01*
X117285357Y-61488095D01*
X117028214Y-61488095D01*
X116856785Y-61392857D01*
X116771071Y-61202380D01*
X116771071Y-61107142D01*
X116856785Y-60916666D01*
X117028214Y-60821428D01*
X117285357Y-60821428D01*
X117456785Y-60916666D01*
X118999642Y-62059523D02*
X118828214Y-62154761D01*
X118485357Y-62154761D01*
X118313928Y-62059523D01*
X118228214Y-61869047D01*
X118228214Y-61107142D01*
X118313928Y-60916666D01*
X118485357Y-60821428D01*
X118828214Y-60821428D01*
X118999642Y-60916666D01*
X119085357Y-61107142D01*
X119085357Y-61297619D01*
X118228214Y-61488095D01*
X119856785Y-60821428D02*
X119856785Y-62154761D01*
X119856785Y-61011904D02*
X119942500Y-60916666D01*
X120113928Y-60821428D01*
X120371071Y-60821428D01*
X120542500Y-60916666D01*
X120628214Y-61107142D01*
X120628214Y-62154761D01*
X122856785Y-61107142D02*
X123456785Y-61107142D01*
X123713928Y-62154761D02*
X122856785Y-62154761D01*
X122856785Y-60154761D01*
X123713928Y-60154761D01*
X124485357Y-60821428D02*
X124485357Y-62154761D01*
X124485357Y-61011904D02*
X124571071Y-60916666D01*
X124742500Y-60821428D01*
X124999642Y-60821428D01*
X125171071Y-60916666D01*
X125256785Y-61107142D01*
X125256785Y-62154761D01*
X126885357Y-60821428D02*
X126885357Y-62440476D01*
X126799642Y-62630952D01*
X126713928Y-62726190D01*
X126542500Y-62821428D01*
X126285357Y-62821428D01*
X126113928Y-62726190D01*
X126885357Y-62059523D02*
X126713928Y-62154761D01*
X126371071Y-62154761D01*
X126199642Y-62059523D01*
X126113928Y-61964285D01*
X126028214Y-61773809D01*
X126028214Y-61202380D01*
X126113928Y-61011904D01*
X126199642Y-60916666D01*
X126371071Y-60821428D01*
X126713928Y-60821428D01*
X126885357Y-60916666D01*
X127742500Y-62154761D02*
X127742500Y-60821428D01*
X127742500Y-60154761D02*
X127656785Y-60250000D01*
X127742500Y-60345238D01*
X127828214Y-60250000D01*
X127742500Y-60154761D01*
X127742500Y-60345238D01*
X128599642Y-60821428D02*
X128599642Y-62154761D01*
X128599642Y-61011904D02*
X128685357Y-60916666D01*
X128856785Y-60821428D01*
X129113928Y-60821428D01*
X129285357Y-60916666D01*
X129371071Y-61107142D01*
X129371071Y-62154761D01*
X130913928Y-62059523D02*
X130742500Y-62154761D01*
X130399642Y-62154761D01*
X130228214Y-62059523D01*
X130142500Y-61869047D01*
X130142500Y-61107142D01*
X130228214Y-60916666D01*
X130399642Y-60821428D01*
X130742500Y-60821428D01*
X130913928Y-60916666D01*
X130999642Y-61107142D01*
X130999642Y-61297619D01*
X130142500Y-61488095D01*
X132456785Y-62059523D02*
X132285357Y-62154761D01*
X131942500Y-62154761D01*
X131771071Y-62059523D01*
X131685357Y-61869047D01*
X131685357Y-61107142D01*
X131771071Y-60916666D01*
X131942500Y-60821428D01*
X132285357Y-60821428D01*
X132456785Y-60916666D01*
X132542500Y-61107142D01*
X132542500Y-61297619D01*
X131685357Y-61488095D01*
X133313928Y-62154761D02*
X133313928Y-60821428D01*
X133313928Y-61202380D02*
X133399642Y-61011904D01*
X133485357Y-60916666D01*
X133656785Y-60821428D01*
X133828214Y-60821428D01*
X134428214Y-62154761D02*
X134428214Y-60821428D01*
X134428214Y-60154761D02*
X134342500Y-60250000D01*
X134428214Y-60345238D01*
X134513928Y-60250000D01*
X134428214Y-60154761D01*
X134428214Y-60345238D01*
X135285357Y-60821428D02*
X135285357Y-62154761D01*
X135285357Y-61011904D02*
X135371071Y-60916666D01*
X135542500Y-60821428D01*
X135799642Y-60821428D01*
X135971071Y-60916666D01*
X136056785Y-61107142D01*
X136056785Y-62154761D01*
X137685357Y-60821428D02*
X137685357Y-62440476D01*
X137599642Y-62630952D01*
X137513928Y-62726190D01*
X137342500Y-62821428D01*
X137085357Y-62821428D01*
X136913928Y-62726190D01*
X137685357Y-62059523D02*
X137513928Y-62154761D01*
X137171071Y-62154761D01*
X136999642Y-62059523D01*
X136913928Y-61964285D01*
X136828214Y-61773809D01*
X136828214Y-61202380D01*
X136913928Y-61011904D01*
X136999642Y-60916666D01*
X137171071Y-60821428D01*
X137513928Y-60821428D01*
X137685357Y-60916666D01*
X139913928Y-61392857D02*
X141285357Y-61392857D01*
X144542500Y-62154761D02*
X143942500Y-61202380D01*
X143513928Y-62154761D02*
X143513928Y-60154761D01*
X144199642Y-60154761D01*
X144371071Y-60250000D01*
X144456785Y-60345238D01*
X144542500Y-60535714D01*
X144542500Y-60821428D01*
X144456785Y-61011904D01*
X144371071Y-61107142D01*
X144199642Y-61202380D01*
X143513928Y-61202380D01*
X145999642Y-62059523D02*
X145828214Y-62154761D01*
X145485357Y-62154761D01*
X145313928Y-62059523D01*
X145228214Y-61869047D01*
X145228214Y-61107142D01*
X145313928Y-60916666D01*
X145485357Y-60821428D01*
X145828214Y-60821428D01*
X145999642Y-60916666D01*
X146085357Y-61107142D01*
X146085357Y-61297619D01*
X145228214Y-61488095D01*
X146685357Y-60821428D02*
X147113928Y-62154761D01*
X147542500Y-60821428D01*
X148142500Y-61583333D02*
X148999642Y-61583333D01*
X147971071Y-62154761D02*
X148571071Y-60154761D01*
X149171071Y-62154761D01*
X151142500Y-61392857D02*
X152513928Y-61392857D01*
X154656785Y-60345238D02*
X154742500Y-60250000D01*
X154913928Y-60154761D01*
X155342500Y-60154761D01*
X155513928Y-60250000D01*
X155599642Y-60345238D01*
X155685357Y-60535714D01*
X155685357Y-60726190D01*
X155599642Y-61011904D01*
X154571071Y-62154761D01*
X155685357Y-62154761D01*
X156799642Y-60154761D02*
X156971071Y-60154761D01*
X157142500Y-60250000D01*
X157228214Y-60345238D01*
X157313928Y-60535714D01*
X157399642Y-60916666D01*
X157399642Y-61392857D01*
X157313928Y-61773809D01*
X157228214Y-61964285D01*
X157142500Y-62059523D01*
X156971071Y-62154761D01*
X156799642Y-62154761D01*
X156628214Y-62059523D01*
X156542500Y-61964285D01*
X156456785Y-61773809D01*
X156371071Y-61392857D01*
X156371071Y-60916666D01*
X156456785Y-60535714D01*
X156542500Y-60345238D01*
X156628214Y-60250000D01*
X156799642Y-60154761D01*
X159113928Y-62154761D02*
X158085357Y-62154761D01*
X158599642Y-62154761D02*
X158599642Y-60154761D01*
X158428214Y-60440476D01*
X158256785Y-60630952D01*
X158085357Y-60726190D01*
X159971071Y-62154761D02*
X160313928Y-62154761D01*
X160485357Y-62059523D01*
X160571071Y-61964285D01*
X160742500Y-61678571D01*
X160828214Y-61297619D01*
X160828214Y-60535714D01*
X160742500Y-60345238D01*
X160656785Y-60250000D01*
X160485357Y-60154761D01*
X160142500Y-60154761D01*
X159971071Y-60250000D01*
X159885357Y-60345238D01*
X159799642Y-60535714D01*
X159799642Y-61011904D01*
X159885357Y-61202380D01*
X159971071Y-61297619D01*
X160142500Y-61392857D01*
X160485357Y-61392857D01*
X160656785Y-61297619D01*
X160742500Y-61202380D01*
X160828214Y-61011904D01*
X162885357Y-60059523D02*
X161342500Y-62630952D01*
X163571071Y-62154761D02*
X163913928Y-62154761D01*
X164085357Y-62059523D01*
X164171071Y-61964285D01*
X164342500Y-61678571D01*
X164428214Y-61297619D01*
X164428214Y-60535714D01*
X164342500Y-60345238D01*
X164256785Y-60250000D01*
X164085357Y-60154761D01*
X163742500Y-60154761D01*
X163571071Y-60250000D01*
X163485357Y-60345238D01*
X163399642Y-60535714D01*
X163399642Y-61011904D01*
X163485357Y-61202380D01*
X163571071Y-61297619D01*
X163742500Y-61392857D01*
X164085357Y-61392857D01*
X164256785Y-61297619D01*
X164342500Y-61202380D01*
X164428214Y-61011904D01*
X166485357Y-60059523D02*
X164942500Y-62630952D01*
X166913928Y-60154761D02*
X168028214Y-60154761D01*
X167428214Y-60916666D01*
X167685357Y-60916666D01*
X167856785Y-61011904D01*
X167942500Y-61107142D01*
X168028214Y-61297619D01*
X168028214Y-61773809D01*
X167942500Y-61964285D01*
X167856785Y-62059523D01*
X167685357Y-62154761D01*
X167171071Y-62154761D01*
X166999642Y-62059523D01*
X166913928Y-61964285D01*
X169142500Y-60154761D02*
X169313928Y-60154761D01*
X169485357Y-60250000D01*
X169571071Y-60345238D01*
X169656785Y-60535714D01*
X169742500Y-60916666D01*
X169742500Y-61392857D01*
X169656785Y-61773809D01*
X169571071Y-61964285D01*
X169485357Y-62059523D01*
X169313928Y-62154761D01*
X169142500Y-62154761D01*
X168971071Y-62059523D01*
X168885357Y-61964285D01*
X168799642Y-61773809D01*
X168713928Y-61392857D01*
X168713928Y-60916666D01*
X168799642Y-60535714D01*
X168885357Y-60345238D01*
X168971071Y-60250000D01*
X169142500Y-60154761D01*
D10*
X105092857Y-80803571D02*
X104692857Y-80089285D01*
X104407142Y-80803571D02*
X104407142Y-79303571D01*
X104864285Y-79303571D01*
X104978571Y-79375000D01*
X105035714Y-79446428D01*
X105092857Y-79589285D01*
X105092857Y-79803571D01*
X105035714Y-79946428D01*
X104978571Y-80017857D01*
X104864285Y-80089285D01*
X104407142Y-80089285D01*
X105550000Y-80732142D02*
X105721428Y-80803571D01*
X106007142Y-80803571D01*
X106121428Y-80732142D01*
X106178571Y-80660714D01*
X106235714Y-80517857D01*
X106235714Y-80375000D01*
X106178571Y-80232142D01*
X106121428Y-80160714D01*
X106007142Y-80089285D01*
X105778571Y-80017857D01*
X105664285Y-79946428D01*
X105607142Y-79875000D01*
X105550000Y-79732142D01*
X105550000Y-79589285D01*
X105607142Y-79446428D01*
X105664285Y-79375000D01*
X105778571Y-79303571D01*
X106064285Y-79303571D01*
X106235714Y-79375000D01*
X106578571Y-79303571D02*
X107264285Y-79303571D01*
X106921428Y-80803571D02*
X106921428Y-79303571D01*
X104550000Y-83353571D02*
X104550000Y-81853571D01*
X105121428Y-83353571D02*
X105121428Y-81853571D01*
X105807142Y-83353571D01*
X105807142Y-81853571D01*
X106892857Y-82353571D02*
X106892857Y-83353571D01*
X106607142Y-81782142D02*
X106321428Y-82853571D01*
X107064285Y-82853571D01*
X104550000Y-85903571D02*
X104550000Y-84403571D01*
X105121428Y-85903571D02*
X105121428Y-84403571D01*
X105807142Y-85903571D01*
X105807142Y-84403571D01*
X106264285Y-84403571D02*
X107007142Y-84403571D01*
X106607142Y-84975000D01*
X106778571Y-84975000D01*
X106892857Y-85046428D01*
X106950000Y-85117857D01*
X107007142Y-85260714D01*
X107007142Y-85617857D01*
X106950000Y-85760714D01*
X106892857Y-85832142D01*
X106778571Y-85903571D01*
X106435714Y-85903571D01*
X106321428Y-85832142D01*
X106264285Y-85760714D01*
X104550000Y-88453571D02*
X104550000Y-86953571D01*
X105121428Y-88453571D02*
X105121428Y-86953571D01*
X105807142Y-88453571D01*
X105807142Y-86953571D01*
X106321428Y-87096428D02*
X106378571Y-87025000D01*
X106492857Y-86953571D01*
X106778571Y-86953571D01*
X106892857Y-87025000D01*
X106950000Y-87096428D01*
X107007142Y-87239285D01*
X107007142Y-87382142D01*
X106950000Y-87596428D01*
X106264285Y-88453571D01*
X107007142Y-88453571D01*
X104550000Y-91003571D02*
X104550000Y-89503571D01*
X105121428Y-91003571D02*
X105121428Y-89503571D01*
X105807142Y-91003571D01*
X105807142Y-89503571D01*
X107007142Y-91003571D02*
X106321428Y-91003571D01*
X106664285Y-91003571D02*
X106664285Y-89503571D01*
X106550000Y-89717857D01*
X106435714Y-89860714D01*
X106321428Y-89932142D01*
X104835714Y-92125000D02*
X104721428Y-92053571D01*
X104550000Y-92053571D01*
X104378571Y-92125000D01*
X104264285Y-92267857D01*
X104207142Y-92410714D01*
X104150000Y-92696428D01*
X104150000Y-92910714D01*
X104207142Y-93196428D01*
X104264285Y-93339285D01*
X104378571Y-93482142D01*
X104550000Y-93553571D01*
X104664285Y-93553571D01*
X104835714Y-93482142D01*
X104892857Y-93410714D01*
X104892857Y-92910714D01*
X104664285Y-92910714D01*
X105407142Y-93553571D02*
X105407142Y-92053571D01*
X106092857Y-93553571D01*
X106092857Y-92053571D01*
X106664285Y-93553571D02*
X106664285Y-92053571D01*
X106950000Y-92053571D01*
X107121428Y-92125000D01*
X107235714Y-92267857D01*
X107292857Y-92410714D01*
X107350000Y-92696428D01*
X107350000Y-92910714D01*
X107292857Y-93196428D01*
X107235714Y-93339285D01*
X107121428Y-93482142D01*
X106950000Y-93553571D01*
X106664285Y-93553571D01*
X174357142Y-53600000D02*
X174300000Y-53666666D01*
X174128571Y-53733333D01*
X174014285Y-53733333D01*
X173842857Y-53666666D01*
X173728571Y-53533333D01*
X173671428Y-53400000D01*
X173614285Y-53133333D01*
X173614285Y-52933333D01*
X173671428Y-52666666D01*
X173728571Y-52533333D01*
X173842857Y-52400000D01*
X174014285Y-52333333D01*
X174128571Y-52333333D01*
X174300000Y-52400000D01*
X174357142Y-52466666D01*
X174700000Y-52333333D02*
X175100000Y-53733333D01*
X175500000Y-52333333D01*
X174242857Y-54800000D02*
X174128571Y-54733333D01*
X173957142Y-54733333D01*
X173785714Y-54800000D01*
X173671428Y-54933333D01*
X173614285Y-55066666D01*
X173557142Y-55333333D01*
X173557142Y-55533333D01*
X173614285Y-55800000D01*
X173671428Y-55933333D01*
X173785714Y-56066666D01*
X173957142Y-56133333D01*
X174071428Y-56133333D01*
X174242857Y-56066666D01*
X174300000Y-56000000D01*
X174300000Y-55533333D01*
X174071428Y-55533333D01*
X174985714Y-55333333D02*
X174871428Y-55266666D01*
X174814285Y-55200000D01*
X174757142Y-55066666D01*
X174757142Y-55000000D01*
X174814285Y-54866666D01*
X174871428Y-54800000D01*
X174985714Y-54733333D01*
X175214285Y-54733333D01*
X175328571Y-54800000D01*
X175385714Y-54866666D01*
X175442857Y-55000000D01*
X175442857Y-55066666D01*
X175385714Y-55200000D01*
X175328571Y-55266666D01*
X175214285Y-55333333D01*
X174985714Y-55333333D01*
X174871428Y-55400000D01*
X174814285Y-55466666D01*
X174757142Y-55600000D01*
X174757142Y-55866666D01*
X174814285Y-56000000D01*
X174871428Y-56066666D01*
X174985714Y-56133333D01*
X175214285Y-56133333D01*
X175328571Y-56066666D01*
X175385714Y-56000000D01*
X175442857Y-55866666D01*
X175442857Y-55600000D01*
X175385714Y-55466666D01*
X175328571Y-55400000D01*
X175214285Y-55333333D01*
X173585714Y-57200000D02*
X173471428Y-57133333D01*
X173300000Y-57133333D01*
X173128571Y-57200000D01*
X173014285Y-57333333D01*
X172957142Y-57466666D01*
X172900000Y-57733333D01*
X172900000Y-57933333D01*
X172957142Y-58200000D01*
X173014285Y-58333333D01*
X173128571Y-58466666D01*
X173300000Y-58533333D01*
X173414285Y-58533333D01*
X173585714Y-58466666D01*
X173642857Y-58400000D01*
X173642857Y-57933333D01*
X173414285Y-57933333D01*
X174157142Y-58533333D02*
X174157142Y-57133333D01*
X174842857Y-58533333D01*
X174842857Y-57133333D01*
X175414285Y-58533333D02*
X175414285Y-57133333D01*
X175700000Y-57133333D01*
X175871428Y-57200000D01*
X175985714Y-57333333D01*
X176042857Y-57466666D01*
X176100000Y-57733333D01*
X176100000Y-57933333D01*
X176042857Y-58200000D01*
X175985714Y-58333333D01*
X175871428Y-58466666D01*
X175700000Y-58533333D01*
X175414285Y-58533333D01*
X105357142Y-53600000D02*
X105300000Y-53666666D01*
X105128571Y-53733333D01*
X105014285Y-53733333D01*
X104842857Y-53666666D01*
X104728571Y-53533333D01*
X104671428Y-53400000D01*
X104614285Y-53133333D01*
X104614285Y-52933333D01*
X104671428Y-52666666D01*
X104728571Y-52533333D01*
X104842857Y-52400000D01*
X105014285Y-52333333D01*
X105128571Y-52333333D01*
X105300000Y-52400000D01*
X105357142Y-52466666D01*
X105700000Y-52333333D02*
X106100000Y-53733333D01*
X106500000Y-52333333D01*
X105242857Y-54800000D02*
X105128571Y-54733333D01*
X104957142Y-54733333D01*
X104785714Y-54800000D01*
X104671428Y-54933333D01*
X104614285Y-55066666D01*
X104557142Y-55333333D01*
X104557142Y-55533333D01*
X104614285Y-55800000D01*
X104671428Y-55933333D01*
X104785714Y-56066666D01*
X104957142Y-56133333D01*
X105071428Y-56133333D01*
X105242857Y-56066666D01*
X105300000Y-56000000D01*
X105300000Y-55533333D01*
X105071428Y-55533333D01*
X105985714Y-55333333D02*
X105871428Y-55266666D01*
X105814285Y-55200000D01*
X105757142Y-55066666D01*
X105757142Y-55000000D01*
X105814285Y-54866666D01*
X105871428Y-54800000D01*
X105985714Y-54733333D01*
X106214285Y-54733333D01*
X106328571Y-54800000D01*
X106385714Y-54866666D01*
X106442857Y-55000000D01*
X106442857Y-55066666D01*
X106385714Y-55200000D01*
X106328571Y-55266666D01*
X106214285Y-55333333D01*
X105985714Y-55333333D01*
X105871428Y-55400000D01*
X105814285Y-55466666D01*
X105757142Y-55600000D01*
X105757142Y-55866666D01*
X105814285Y-56000000D01*
X105871428Y-56066666D01*
X105985714Y-56133333D01*
X106214285Y-56133333D01*
X106328571Y-56066666D01*
X106385714Y-56000000D01*
X106442857Y-55866666D01*
X106442857Y-55600000D01*
X106385714Y-55466666D01*
X106328571Y-55400000D01*
X106214285Y-55333333D01*
X104585714Y-57200000D02*
X104471428Y-57133333D01*
X104300000Y-57133333D01*
X104128571Y-57200000D01*
X104014285Y-57333333D01*
X103957142Y-57466666D01*
X103900000Y-57733333D01*
X103900000Y-57933333D01*
X103957142Y-58200000D01*
X104014285Y-58333333D01*
X104128571Y-58466666D01*
X104300000Y-58533333D01*
X104414285Y-58533333D01*
X104585714Y-58466666D01*
X104642857Y-58400000D01*
X104642857Y-57933333D01*
X104414285Y-57933333D01*
X105157142Y-58533333D02*
X105157142Y-57133333D01*
X105842857Y-58533333D01*
X105842857Y-57133333D01*
X106414285Y-58533333D02*
X106414285Y-57133333D01*
X106700000Y-57133333D01*
X106871428Y-57200000D01*
X106985714Y-57333333D01*
X107042857Y-57466666D01*
X107100000Y-57733333D01*
X107100000Y-57933333D01*
X107042857Y-58200000D01*
X106985714Y-58333333D01*
X106871428Y-58466666D01*
X106700000Y-58533333D01*
X106414285Y-58533333D01*
D12*
X131029464Y-121116071D02*
X131029464Y-122187500D01*
X130958035Y-122401785D01*
X130815178Y-122544642D01*
X130600892Y-122616071D01*
X130458035Y-122616071D01*
X131743750Y-121830357D02*
X132243750Y-121830357D01*
X132458035Y-122616071D02*
X131743750Y-122616071D01*
X131743750Y-121116071D01*
X132458035Y-121116071D01*
X134172321Y-122544642D02*
X134386607Y-122616071D01*
X134743750Y-122616071D01*
X134886607Y-122544642D01*
X134958035Y-122473214D01*
X135029464Y-122330357D01*
X135029464Y-122187500D01*
X134958035Y-122044642D01*
X134886607Y-121973214D01*
X134743750Y-121901785D01*
X134458035Y-121830357D01*
X134315178Y-121758928D01*
X134243750Y-121687500D01*
X134172321Y-121544642D01*
X134172321Y-121401785D01*
X134243750Y-121258928D01*
X134315178Y-121187500D01*
X134458035Y-121116071D01*
X134815178Y-121116071D01*
X135029464Y-121187500D01*
X135529464Y-121616071D02*
X135886607Y-122616071D01*
X136243750Y-121616071D02*
X135886607Y-122616071D01*
X135743750Y-122973214D01*
X135672321Y-123044642D01*
X135529464Y-123116071D01*
X136815178Y-122616071D02*
X136815178Y-121616071D01*
X136815178Y-121758928D02*
X136886607Y-121687500D01*
X137029464Y-121616071D01*
X137243750Y-121616071D01*
X137386607Y-121687500D01*
X137458035Y-121830357D01*
X137458035Y-122616071D01*
X137458035Y-121830357D02*
X137529464Y-121687500D01*
X137672321Y-121616071D01*
X137886607Y-121616071D01*
X138029464Y-121687500D01*
X138100892Y-121830357D01*
X138100892Y-122616071D01*
X138815178Y-121616071D02*
X138815178Y-123116071D01*
X138815178Y-121687500D02*
X138958035Y-121616071D01*
X139243750Y-121616071D01*
X139386607Y-121687500D01*
X139458035Y-121758928D01*
X139529464Y-121901785D01*
X139529464Y-122330357D01*
X139458035Y-122473214D01*
X139386607Y-122544642D01*
X139243750Y-122616071D01*
X138958035Y-122616071D01*
X138815178Y-122544642D01*
X140386607Y-122616071D02*
X140243750Y-122544642D01*
X140172321Y-122401785D01*
X140172321Y-121116071D01*
X141529464Y-122544642D02*
X141386607Y-122616071D01*
X141100892Y-122616071D01*
X140958035Y-122544642D01*
X140886607Y-122401785D01*
X140886607Y-121830357D01*
X140958035Y-121687500D01*
X141100892Y-121616071D01*
X141386607Y-121616071D01*
X141529464Y-121687500D01*
X141600892Y-121830357D01*
X141600892Y-121973214D01*
X140886607Y-122116071D01*
X142172321Y-122544642D02*
X142386607Y-122616071D01*
X142743750Y-122616071D01*
X142886607Y-122544642D01*
X142958035Y-122473214D01*
X143029464Y-122330357D01*
X143029464Y-122187500D01*
X142958035Y-122044642D01*
X142886607Y-121973214D01*
X142743750Y-121901785D01*
X142458035Y-121830357D01*
X142315178Y-121758928D01*
X142243750Y-121687500D01*
X142172321Y-121544642D01*
X142172321Y-121401785D01*
X142243750Y-121258928D01*
X142315178Y-121187500D01*
X142458035Y-121116071D01*
X142815178Y-121116071D01*
X143029464Y-121187500D01*
X144243750Y-122544642D02*
X144100892Y-122616071D01*
X143815178Y-122616071D01*
X143672321Y-122544642D01*
X143600892Y-122401785D01*
X143600892Y-121830357D01*
X143672321Y-121687500D01*
X143815178Y-121616071D01*
X144100892Y-121616071D01*
X144243750Y-121687500D01*
X144315178Y-121830357D01*
X144315178Y-121973214D01*
X143600892Y-122116071D01*
X145600892Y-121616071D02*
X145600892Y-123116071D01*
X145600892Y-122544642D02*
X145458035Y-122616071D01*
X145172321Y-122616071D01*
X145029464Y-122544642D01*
X144958035Y-122473214D01*
X144886607Y-122330357D01*
X144886607Y-121901785D01*
X144958035Y-121758928D01*
X145029464Y-121687500D01*
X145172321Y-121616071D01*
X145458035Y-121616071D01*
X145600892Y-121687500D01*
X148315178Y-122473214D02*
X148243750Y-122544642D01*
X148029464Y-122616071D01*
X147886607Y-122616071D01*
X147672321Y-122544642D01*
X147529464Y-122401785D01*
X147458035Y-122258928D01*
X147386607Y-121973214D01*
X147386607Y-121758928D01*
X147458035Y-121473214D01*
X147529464Y-121330357D01*
X147672321Y-121187500D01*
X147886607Y-121116071D01*
X148029464Y-121116071D01*
X148243750Y-121187500D01*
X148315178Y-121258928D01*
X149172321Y-122616071D02*
X149029464Y-122544642D01*
X148958035Y-122401785D01*
X148958035Y-121116071D01*
X149958035Y-122616071D02*
X149815178Y-122544642D01*
X149743750Y-122473214D01*
X149672321Y-122330357D01*
X149672321Y-121901785D01*
X149743750Y-121758928D01*
X149815178Y-121687500D01*
X149958035Y-121616071D01*
X150172321Y-121616071D01*
X150315178Y-121687500D01*
X150386607Y-121758928D01*
X150458035Y-121901785D01*
X150458035Y-122330357D01*
X150386607Y-122473214D01*
X150315178Y-122544642D01*
X150172321Y-122616071D01*
X149958035Y-122616071D01*
X151743750Y-122544642D02*
X151600892Y-122616071D01*
X151315178Y-122616071D01*
X151172321Y-122544642D01*
X151100892Y-122473214D01*
X151029464Y-122330357D01*
X151029464Y-121901785D01*
X151100892Y-121758928D01*
X151172321Y-121687500D01*
X151315178Y-121616071D01*
X151600892Y-121616071D01*
X151743750Y-121687500D01*
X152386607Y-122616071D02*
X152386607Y-121116071D01*
X152529464Y-122044642D02*
X152958035Y-122616071D01*
X152958035Y-121616071D02*
X152386607Y-122187500D01*
X130529464Y-123883928D02*
X130600892Y-123812500D01*
X130743750Y-123741071D01*
X131100892Y-123741071D01*
X131243750Y-123812500D01*
X131315178Y-123883928D01*
X131386607Y-124026785D01*
X131386607Y-124169642D01*
X131315178Y-124383928D01*
X130458035Y-125241071D01*
X131386607Y-125241071D01*
X132315178Y-123741071D02*
X132458035Y-123741071D01*
X132600892Y-123812500D01*
X132672321Y-123883928D01*
X132743750Y-124026785D01*
X132815178Y-124312500D01*
X132815178Y-124669642D01*
X132743750Y-124955357D01*
X132672321Y-125098214D01*
X132600892Y-125169642D01*
X132458035Y-125241071D01*
X132315178Y-125241071D01*
X132172321Y-125169642D01*
X132100892Y-125098214D01*
X132029464Y-124955357D01*
X131958035Y-124669642D01*
X131958035Y-124312500D01*
X132029464Y-124026785D01*
X132100892Y-123883928D01*
X132172321Y-123812500D01*
X132315178Y-123741071D01*
X134243750Y-125241071D02*
X133386607Y-125241071D01*
X133815178Y-125241071D02*
X133815178Y-123741071D01*
X133672321Y-123955357D01*
X133529464Y-124098214D01*
X133386607Y-124169642D01*
X134958035Y-125241071D02*
X135243750Y-125241071D01*
X135386607Y-125169642D01*
X135458035Y-125098214D01*
X135600892Y-124883928D01*
X135672321Y-124598214D01*
X135672321Y-124026785D01*
X135600892Y-123883928D01*
X135529464Y-123812500D01*
X135386607Y-123741071D01*
X135100892Y-123741071D01*
X134958035Y-123812500D01*
X134886607Y-123883928D01*
X134815178Y-124026785D01*
X134815178Y-124383928D01*
X134886607Y-124526785D01*
X134958035Y-124598214D01*
X135100892Y-124669642D01*
X135386607Y-124669642D01*
X135529464Y-124598214D01*
X135600892Y-124526785D01*
X135672321Y-124383928D01*
X137386607Y-123669642D02*
X136100892Y-125598214D01*
X137958035Y-125241071D02*
X138243750Y-125241071D01*
X138386607Y-125169642D01*
X138458035Y-125098214D01*
X138600892Y-124883928D01*
X138672321Y-124598214D01*
X138672321Y-124026785D01*
X138600892Y-123883928D01*
X138529464Y-123812500D01*
X138386607Y-123741071D01*
X138100892Y-123741071D01*
X137958035Y-123812500D01*
X137886607Y-123883928D01*
X137815178Y-124026785D01*
X137815178Y-124383928D01*
X137886607Y-124526785D01*
X137958035Y-124598214D01*
X138100892Y-124669642D01*
X138386607Y-124669642D01*
X138529464Y-124598214D01*
X138600892Y-124526785D01*
X138672321Y-124383928D01*
X140386607Y-123669642D02*
X139100892Y-125598214D01*
X140743750Y-123741071D02*
X141672321Y-123741071D01*
X141172321Y-124312500D01*
X141386607Y-124312500D01*
X141529464Y-124383928D01*
X141600892Y-124455357D01*
X141672321Y-124598214D01*
X141672321Y-124955357D01*
X141600892Y-125098214D01*
X141529464Y-125169642D01*
X141386607Y-125241071D01*
X140958035Y-125241071D01*
X140815178Y-125169642D01*
X140743750Y-125098214D01*
X142600892Y-123741071D02*
X142743750Y-123741071D01*
X142886607Y-123812500D01*
X142958035Y-123883928D01*
X143029464Y-124026785D01*
X143100892Y-124312500D01*
X143100892Y-124669642D01*
X143029464Y-124955357D01*
X142958035Y-125098214D01*
X142886607Y-125169642D01*
X142743750Y-125241071D01*
X142600892Y-125241071D01*
X142458035Y-125169642D01*
X142386607Y-125098214D01*
X142315178Y-124955357D01*
X142243750Y-124669642D01*
X142243750Y-124312500D01*
X142315178Y-124026785D01*
X142386607Y-123883928D01*
X142458035Y-123812500D01*
X142600892Y-123741071D01*
D11*
X121768690Y-80613095D02*
X122125833Y-80744047D01*
X122721071Y-80744047D01*
X122959166Y-80613095D01*
X123078214Y-80482142D01*
X123197261Y-80220238D01*
X123197261Y-79958333D01*
X123078214Y-79696428D01*
X122959166Y-79565476D01*
X122721071Y-79434523D01*
X122244880Y-79303571D01*
X122006785Y-79172619D01*
X121887738Y-79041666D01*
X121768690Y-78779761D01*
X121768690Y-78517857D01*
X121887738Y-78255952D01*
X122006785Y-78125000D01*
X122244880Y-77994047D01*
X122840119Y-77994047D01*
X123197261Y-78125000D01*
X124030595Y-78910714D02*
X124625833Y-80744047D01*
X125221071Y-78910714D02*
X124625833Y-80744047D01*
X124387738Y-81398809D01*
X124268690Y-81529761D01*
X124030595Y-81660714D01*
X126173452Y-80744047D02*
X126173452Y-78910714D01*
X126173452Y-79172619D02*
X126292500Y-79041666D01*
X126530595Y-78910714D01*
X126887738Y-78910714D01*
X127125833Y-79041666D01*
X127244880Y-79303571D01*
X127244880Y-80744047D01*
X127244880Y-79303571D02*
X127363928Y-79041666D01*
X127602023Y-78910714D01*
X127959166Y-78910714D01*
X128197261Y-79041666D01*
X128316309Y-79303571D01*
X128316309Y-80744047D01*
X129506785Y-78910714D02*
X129506785Y-81660714D01*
X129506785Y-79041666D02*
X129744880Y-78910714D01*
X130221071Y-78910714D01*
X130459166Y-79041666D01*
X130578214Y-79172619D01*
X130697261Y-79434523D01*
X130697261Y-80220238D01*
X130578214Y-80482142D01*
X130459166Y-80613095D01*
X130221071Y-80744047D01*
X129744880Y-80744047D01*
X129506785Y-80613095D01*
X132125833Y-80744047D02*
X131887738Y-80613095D01*
X131768690Y-80351190D01*
X131768690Y-77994047D01*
X134030595Y-80613095D02*
X133792500Y-80744047D01*
X133316309Y-80744047D01*
X133078214Y-80613095D01*
X132959166Y-80351190D01*
X132959166Y-79303571D01*
X133078214Y-79041666D01*
X133316309Y-78910714D01*
X133792500Y-78910714D01*
X134030595Y-79041666D01*
X134149642Y-79303571D01*
X134149642Y-79565476D01*
X132959166Y-79827380D01*
X135102023Y-80613095D02*
X135459166Y-80744047D01*
X136054404Y-80744047D01*
X136292500Y-80613095D01*
X136411547Y-80482142D01*
X136530595Y-80220238D01*
X136530595Y-79958333D01*
X136411547Y-79696428D01*
X136292500Y-79565476D01*
X136054404Y-79434523D01*
X135578214Y-79303571D01*
X135340119Y-79172619D01*
X135221071Y-79041666D01*
X135102023Y-78779761D01*
X135102023Y-78517857D01*
X135221071Y-78255952D01*
X135340119Y-78125000D01*
X135578214Y-77994047D01*
X136173452Y-77994047D01*
X136530595Y-78125000D01*
X138554404Y-80613095D02*
X138316309Y-80744047D01*
X137840119Y-80744047D01*
X137602023Y-80613095D01*
X137482976Y-80351190D01*
X137482976Y-79303571D01*
X137602023Y-79041666D01*
X137840119Y-78910714D01*
X138316309Y-78910714D01*
X138554404Y-79041666D01*
X138673452Y-79303571D01*
X138673452Y-79565476D01*
X137482976Y-79827380D01*
X140816309Y-78910714D02*
X140816309Y-81660714D01*
X140816309Y-80613095D02*
X140578214Y-80744047D01*
X140102023Y-80744047D01*
X139863928Y-80613095D01*
X139744880Y-80482142D01*
X139625833Y-80220238D01*
X139625833Y-79434523D01*
X139744880Y-79172619D01*
X139863928Y-79041666D01*
X140102023Y-78910714D01*
X140578214Y-78910714D01*
X140816309Y-79041666D01*
X145340119Y-80482142D02*
X145221071Y-80613095D01*
X144863928Y-80744047D01*
X144625833Y-80744047D01*
X144268690Y-80613095D01*
X144030595Y-80351190D01*
X143911547Y-80089285D01*
X143792500Y-79565476D01*
X143792500Y-79172619D01*
X143911547Y-78648809D01*
X144030595Y-78386904D01*
X144268690Y-78125000D01*
X144625833Y-77994047D01*
X144863928Y-77994047D01*
X145221071Y-78125000D01*
X145340119Y-78255952D01*
X146768690Y-80744047D02*
X146530595Y-80613095D01*
X146411547Y-80482142D01*
X146292500Y-80220238D01*
X146292500Y-79434523D01*
X146411547Y-79172619D01*
X146530595Y-79041666D01*
X146768690Y-78910714D01*
X147125833Y-78910714D01*
X147363928Y-79041666D01*
X147482976Y-79172619D01*
X147602023Y-79434523D01*
X147602023Y-80220238D01*
X147482976Y-80482142D01*
X147363928Y-80613095D01*
X147125833Y-80744047D01*
X146768690Y-80744047D01*
X148673452Y-78910714D02*
X148673452Y-80744047D01*
X148673452Y-79172619D02*
X148792500Y-79041666D01*
X149030595Y-78910714D01*
X149387738Y-78910714D01*
X149625833Y-79041666D01*
X149744880Y-79303571D01*
X149744880Y-80744047D01*
X150578214Y-78910714D02*
X151530595Y-78910714D01*
X150935357Y-77994047D02*
X150935357Y-80351190D01*
X151054404Y-80613095D01*
X151292500Y-80744047D01*
X151530595Y-80744047D01*
X152363928Y-80744047D02*
X152363928Y-78910714D01*
X152363928Y-79434523D02*
X152482976Y-79172619D01*
X152602023Y-79041666D01*
X152840119Y-78910714D01*
X153078214Y-78910714D01*
X154268690Y-80744047D02*
X154030595Y-80613095D01*
X153911547Y-80482142D01*
X153792500Y-80220238D01*
X153792500Y-79434523D01*
X153911547Y-79172619D01*
X154030595Y-79041666D01*
X154268690Y-78910714D01*
X154625833Y-78910714D01*
X154863928Y-79041666D01*
X154982976Y-79172619D01*
X155102023Y-79434523D01*
X155102023Y-80220238D01*
X154982976Y-80482142D01*
X154863928Y-80613095D01*
X154625833Y-80744047D01*
X154268690Y-80744047D01*
X156530595Y-80744047D02*
X156292500Y-80613095D01*
X156173452Y-80351190D01*
X156173452Y-77994047D01*
D13*
X105000000Y-96950000D02*
X105000000Y-97950000D01*
X175000000Y-96950000D02*
X175000000Y-97950000D01*
X105000000Y-96950000D02*
X175000000Y-96950000D01*
X175000000Y-97950000D02*
X105000000Y-97950000D01*
X180000000Y-50000000D02*
X100000000Y-50000000D01*
X180000000Y-150000000D02*
X180000000Y-50000000D01*
X100000000Y-150000000D02*
X180000000Y-150000000D01*
X100000000Y-50000000D02*
X100000000Y-150000000D01*
D14*
X120590000Y-122885436D02*
X120590000Y-124089564D01*
X122410000Y-122885436D02*
X122410000Y-124089564D01*
X130238748Y-117290000D02*
X130761252Y-117290000D01*
X130238748Y-118710000D02*
X130761252Y-118710000D01*
X112761252Y-114790000D02*
X112238748Y-114790000D01*
X112761252Y-116210000D02*
X112238748Y-116210000D01*
X108460000Y-129000000D02*
X108460000Y-126315000D01*
X108460000Y-126315000D02*
X106540000Y-126315000D01*
X106540000Y-126315000D02*
X106540000Y-129000000D01*
X106540000Y-130985000D02*
X106540000Y-133670000D01*
X108460000Y-130985000D02*
X106540000Y-130985000D01*
X108460000Y-133670000D02*
X108460000Y-130985000D01*
X147540000Y-130985000D02*
X147540000Y-133670000D01*
X149460000Y-130985000D02*
X147540000Y-130985000D01*
X149460000Y-133670000D02*
X149460000Y-130985000D01*
X149460000Y-129000000D02*
X149460000Y-126315000D01*
X149460000Y-126315000D02*
X147540000Y-126315000D01*
X147540000Y-126315000D02*
X147540000Y-129000000D01*
X166540000Y-126315000D02*
X166540000Y-129000000D01*
X168460000Y-126315000D02*
X166540000Y-126315000D01*
X168460000Y-129000000D02*
X168460000Y-126315000D01*
X168522500Y-133670000D02*
X168522500Y-130985000D01*
X168522500Y-130985000D02*
X166602500Y-130985000D01*
X166602500Y-130985000D02*
X166602500Y-133670000D01*
X107210000Y-53955000D02*
X107210000Y-57045000D01*
X112270000Y-55500000D02*
G75*
G03X112270000Y-55500000I-2500000J0D01*
G01*
X112760000Y-55499538D02*
G75*
G02X107210000Y-57044830I-2990000J-462D01*
G01*
X112760000Y-55500462D02*
G75*
G03X107210000Y-53955170I-2990000J462D01*
G01*
X132760000Y-55500462D02*
G75*
G03X127210000Y-53955170I-2990000J462D01*
G01*
X132760000Y-55499538D02*
G75*
G02X127210000Y-57044830I-2990000J-462D01*
G01*
X132270000Y-55500000D02*
G75*
G03X132270000Y-55500000I-2500000J0D01*
G01*
X127210000Y-53955000D02*
X127210000Y-57045000D01*
X147210000Y-53955000D02*
X147210000Y-57045000D01*
X152270000Y-55500000D02*
G75*
G03X152270000Y-55500000I-2500000J0D01*
G01*
X152760000Y-55499538D02*
G75*
G02X147210000Y-57044830I-2990000J-462D01*
G01*
X152760000Y-55500462D02*
G75*
G03X147210000Y-53955170I-2990000J462D01*
G01*
X172760000Y-55500462D02*
G75*
G03X167210000Y-53955170I-2990000J462D01*
G01*
X172760000Y-55499538D02*
G75*
G02X167210000Y-57044830I-2990000J-462D01*
G01*
X172270000Y-55500000D02*
G75*
G03X172270000Y-55500000I-2500000J0D01*
G01*
X167210000Y-53955000D02*
X167210000Y-57045000D01*
X157330000Y-99670000D02*
X157330000Y-101000000D01*
X156000000Y-99670000D02*
X157330000Y-99670000D01*
X154730000Y-99670000D02*
X154730000Y-102330000D01*
X154730000Y-102330000D02*
X152130000Y-102330000D01*
X154730000Y-99670000D02*
X152130000Y-99670000D01*
X152130000Y-99670000D02*
X152130000Y-102330000D01*
X101170000Y-78670000D02*
X102500000Y-78670000D01*
X101170000Y-80000000D02*
X101170000Y-78670000D01*
X101170000Y-81270000D02*
X103830000Y-81270000D01*
X103830000Y-81270000D02*
X103830000Y-94030000D01*
X101170000Y-81270000D02*
X101170000Y-94030000D01*
X101170000Y-94030000D02*
X103830000Y-94030000D01*
X101170000Y-59330000D02*
X103830000Y-59330000D01*
X101170000Y-54190000D02*
X101170000Y-59330000D01*
X103830000Y-54190000D02*
X103830000Y-59330000D01*
X101170000Y-54190000D02*
X103830000Y-54190000D01*
X101170000Y-52920000D02*
X101170000Y-51590000D01*
X101170000Y-51590000D02*
X102500000Y-51590000D01*
X176170000Y-51670000D02*
X177500000Y-51670000D01*
X176170000Y-53000000D02*
X176170000Y-51670000D01*
X176170000Y-54270000D02*
X178830000Y-54270000D01*
X178830000Y-54270000D02*
X178830000Y-59410000D01*
X176170000Y-54270000D02*
X176170000Y-59410000D01*
X176170000Y-59410000D02*
X178830000Y-59410000D01*
X141130000Y-99670000D02*
X141130000Y-102330000D01*
X146270000Y-99670000D02*
X141130000Y-99670000D01*
X146270000Y-102330000D02*
X141130000Y-102330000D01*
X146270000Y-99670000D02*
X146270000Y-102330000D01*
X147540000Y-99670000D02*
X148870000Y-99670000D01*
X148870000Y-99670000D02*
X148870000Y-101000000D01*
X162130000Y-99670000D02*
X162130000Y-102330000D01*
X164730000Y-99670000D02*
X162130000Y-99670000D01*
X164730000Y-102330000D02*
X162130000Y-102330000D01*
X164730000Y-99670000D02*
X164730000Y-102330000D01*
X166000000Y-99670000D02*
X167330000Y-99670000D01*
X167330000Y-99670000D02*
X167330000Y-101000000D01*
X101294999Y-99625001D02*
X101294999Y-102285001D01*
X114054999Y-99625001D02*
X101294999Y-99625001D01*
X114054999Y-102285001D02*
X101294999Y-102285001D01*
X114054999Y-99625001D02*
X114054999Y-102285001D01*
X115324999Y-99625001D02*
X116654999Y-99625001D01*
X116654999Y-99625001D02*
X116654999Y-100955001D01*
X122470000Y-99670000D02*
X122470000Y-102330000D01*
X135230000Y-99670000D02*
X122470000Y-99670000D01*
X135230000Y-102330000D02*
X122470000Y-102330000D01*
X135230000Y-99670000D02*
X135230000Y-102330000D01*
X136500000Y-99670000D02*
X137830000Y-99670000D01*
X137830000Y-99670000D02*
X137830000Y-101000000D01*
X169305000Y-120350000D02*
X169305000Y-99490000D01*
X169305000Y-99490000D02*
X178655000Y-99490000D01*
X178655000Y-99490000D02*
X178655000Y-120350000D01*
X178655000Y-120350000D02*
X169305000Y-120350000D01*
X178905000Y-120600000D02*
X178905000Y-118060000D01*
X178905000Y-120600000D02*
X176365000Y-120600000D01*
X152790000Y-106761252D02*
X152790000Y-106238748D01*
X154210000Y-106761252D02*
X154210000Y-106238748D01*
X154210000Y-111238748D02*
X154210000Y-111761252D01*
X152790000Y-111238748D02*
X152790000Y-111761252D01*
X156210000Y-106238748D02*
X156210000Y-106761252D01*
X154790000Y-106238748D02*
X154790000Y-106761252D01*
X154210000Y-115736252D02*
X154210000Y-115213748D01*
X152790000Y-115736252D02*
X152790000Y-115213748D01*
X167790000Y-115238748D02*
X167790000Y-115761252D01*
X169210000Y-115238748D02*
X169210000Y-115761252D01*
X169210000Y-111213748D02*
X169210000Y-111736252D01*
X167790000Y-111213748D02*
X167790000Y-111736252D01*
X147290000Y-106761252D02*
X147290000Y-106238748D01*
X148710000Y-106761252D02*
X148710000Y-106238748D01*
X144710000Y-106736252D02*
X144710000Y-106213748D01*
X143290000Y-106736252D02*
X143290000Y-106213748D01*
X164790000Y-106238748D02*
X164790000Y-106761252D01*
X166210000Y-106238748D02*
X166210000Y-106761252D01*
X169210000Y-119238748D02*
X169210000Y-119761252D01*
X167790000Y-119238748D02*
X167790000Y-119761252D01*
X102263748Y-120710000D02*
X102786252Y-120710000D01*
X102263748Y-119290000D02*
X102786252Y-119290000D01*
X116290000Y-120261252D02*
X116290000Y-119738748D01*
X117710000Y-120261252D02*
X117710000Y-119738748D01*
X113210000Y-127868748D02*
X113210000Y-128391252D01*
X111790000Y-127868748D02*
X111790000Y-128391252D01*
X111790000Y-132238748D02*
X111790000Y-132761252D01*
X113210000Y-132238748D02*
X113210000Y-132761252D01*
X130710000Y-132238748D02*
X130710000Y-132761252D01*
X129290000Y-132238748D02*
X129290000Y-132761252D01*
X152290000Y-127868748D02*
X152290000Y-128391252D01*
X153710000Y-127868748D02*
X153710000Y-128391252D01*
X152290000Y-132238748D02*
X152290000Y-132761252D01*
X153710000Y-132238748D02*
X153710000Y-132761252D01*
X171290000Y-127868748D02*
X171290000Y-128391252D01*
X172710000Y-127868748D02*
X172710000Y-128391252D01*
X172735000Y-132238748D02*
X172735000Y-132761252D01*
X171315000Y-132238748D02*
X171315000Y-132761252D01*
X126238748Y-117290000D02*
X126761252Y-117290000D01*
X126238748Y-118710000D02*
X126761252Y-118710000D01*
X119736252Y-101290000D02*
X119213748Y-101290000D01*
X119736252Y-102710000D02*
X119213748Y-102710000D01*
X103390000Y-109290000D02*
X103390000Y-113310000D01*
X103390000Y-113310000D02*
X113610000Y-113310000D01*
X113610000Y-113310000D02*
X113610000Y-109290000D01*
X113610000Y-109290000D02*
X103390000Y-109290000D01*
X103390000Y-111000000D02*
X103890000Y-111000000D01*
X103890000Y-111000000D02*
X103890000Y-109790000D01*
X103890000Y-109790000D02*
X113110000Y-109790000D01*
X113110000Y-109790000D02*
X113110000Y-111000000D01*
X113110000Y-111000000D02*
X113610000Y-111000000D01*
X103390000Y-111810000D02*
X104390000Y-111810000D01*
X104390000Y-111810000D02*
X104390000Y-113310000D01*
X113610000Y-111810000D02*
X112610000Y-111810000D01*
X112610000Y-111810000D02*
X112610000Y-113310000D01*
X103090000Y-111110000D02*
X103090000Y-113610000D01*
X103090000Y-113610000D02*
X105590000Y-113610000D01*
X103380000Y-64979000D02*
X107317000Y-64979000D01*
X111684000Y-64979000D02*
X115620000Y-64979000D01*
X103380000Y-75020000D02*
X107317000Y-75020000D01*
X111684000Y-75020000D02*
X115620000Y-75020000D01*
X103380000Y-64979000D02*
X103380000Y-66629000D01*
X103380000Y-68371000D02*
X103380000Y-69130000D01*
X103380000Y-70871000D02*
X103380000Y-71630000D01*
X103380000Y-73370000D02*
X103380000Y-75020000D01*
X115620000Y-64979000D02*
X115620000Y-75020000D01*
D15*
X110000000Y-73000000D02*
X110000000Y-67000000D01*
X107000000Y-70000000D02*
X113000000Y-70000000D01*
D14*
X123380000Y-64979000D02*
X127317000Y-64979000D01*
X131684000Y-64979000D02*
X135620000Y-64979000D01*
X123380000Y-75020000D02*
X127317000Y-75020000D01*
X131684000Y-75020000D02*
X135620000Y-75020000D01*
X123380000Y-64979000D02*
X123380000Y-66629000D01*
X123380000Y-68371000D02*
X123380000Y-69130000D01*
X123380000Y-70871000D02*
X123380000Y-71630000D01*
X123380000Y-73370000D02*
X123380000Y-75020000D01*
X135620000Y-64979000D02*
X135620000Y-75020000D01*
D15*
X130000000Y-73000000D02*
X130000000Y-67000000D01*
X127000000Y-70000000D02*
X133000000Y-70000000D01*
X147000000Y-70000000D02*
X153000000Y-70000000D01*
X150000000Y-73000000D02*
X150000000Y-67000000D01*
D14*
X155620000Y-64979000D02*
X155620000Y-75020000D01*
X143380000Y-73370000D02*
X143380000Y-75020000D01*
X143380000Y-70871000D02*
X143380000Y-71630000D01*
X143380000Y-68371000D02*
X143380000Y-69130000D01*
X143380000Y-64979000D02*
X143380000Y-66629000D01*
X151684000Y-75020000D02*
X155620000Y-75020000D01*
X143380000Y-75020000D02*
X147317000Y-75020000D01*
X151684000Y-64979000D02*
X155620000Y-64979000D01*
X143380000Y-64979000D02*
X147317000Y-64979000D01*
D15*
X167000000Y-70000000D02*
X173000000Y-70000000D01*
X170000000Y-73000000D02*
X170000000Y-67000000D01*
D14*
X175620000Y-64979000D02*
X175620000Y-75020000D01*
X163380000Y-73370000D02*
X163380000Y-75020000D01*
X163380000Y-70871000D02*
X163380000Y-71630000D01*
X163380000Y-68371000D02*
X163380000Y-69130000D01*
X163380000Y-64979000D02*
X163380000Y-66629000D01*
X171684000Y-75020000D02*
X175620000Y-75020000D01*
X163380000Y-75020000D02*
X167317000Y-75020000D01*
X171684000Y-64979000D02*
X175620000Y-64979000D01*
X163380000Y-64979000D02*
X167317000Y-64979000D01*
D15*
X106705001Y-118400000D02*
X107705001Y-117400000D01*
X106605001Y-117295000D02*
X106605001Y-117950000D01*
X112105001Y-117295000D02*
X112105001Y-118045000D01*
X112105001Y-123705000D02*
X112105001Y-122955000D01*
X106605001Y-123705000D02*
X106605001Y-122955000D01*
X106605001Y-117295000D02*
X112105001Y-117295000D01*
X106605001Y-123705000D02*
X112105001Y-123705000D01*
X106605001Y-117950000D02*
X104855001Y-117950000D01*
X112149001Y-117960000D02*
X113927001Y-117960000D01*
X113927001Y-117960000D02*
X113927001Y-123040000D01*
X113927001Y-123040000D02*
X112149001Y-123040000D01*
X106561001Y-123040000D02*
X104783001Y-123040000D01*
X104783001Y-123040000D02*
X104783001Y-117960000D01*
D14*
X129760000Y-111000000D02*
X129760000Y-106950000D01*
X129760000Y-111000000D02*
X129760000Y-113275000D01*
X119240000Y-111000000D02*
X119240000Y-108725000D01*
X119240000Y-111000000D02*
X119240000Y-113275000D01*
D15*
X107000000Y-95350000D02*
X107000000Y-82650000D01*
X113000000Y-95350000D02*
X107000000Y-95350000D01*
X113000000Y-82650000D02*
X113000000Y-95350000D01*
X107000000Y-82650000D02*
X113000000Y-82650000D01*
X127000000Y-82650000D02*
X133000000Y-82650000D01*
X133000000Y-82650000D02*
X133000000Y-95350000D01*
X133000000Y-95350000D02*
X127000000Y-95350000D01*
X127000000Y-95350000D02*
X127000000Y-82650000D01*
X147000000Y-95350000D02*
X147000000Y-82650000D01*
X153000000Y-95350000D02*
X147000000Y-95350000D01*
X153000000Y-82650000D02*
X153000000Y-95350000D01*
X147000000Y-82650000D02*
X153000000Y-82650000D01*
X167000000Y-82650000D02*
X173000000Y-82650000D01*
X173000000Y-82650000D02*
X173000000Y-95350000D01*
X173000000Y-95350000D02*
X167000000Y-95350000D01*
X167000000Y-95350000D02*
X167000000Y-82650000D01*
X156928000Y-115040000D02*
X156928000Y-109960000D01*
X158706000Y-115040000D02*
X156928000Y-115040000D01*
X166072000Y-115040000D02*
X164294000Y-115040000D01*
X166072000Y-109960000D02*
X166072000Y-115040000D01*
X164294000Y-109960000D02*
X166072000Y-109960000D01*
X158750000Y-109950000D02*
X157000000Y-109950000D01*
X158750000Y-115705000D02*
X164250000Y-115705000D01*
X158750000Y-109295000D02*
X164250000Y-109295000D01*
X158750000Y-115705000D02*
X158750000Y-114955000D01*
X164250000Y-115705000D02*
X164250000Y-114955000D01*
X164250000Y-109295000D02*
X164250000Y-110045000D01*
X158750000Y-109295000D02*
X158750000Y-109950000D01*
X158850000Y-110400000D02*
X159850000Y-109400000D01*
D14*
X117710000Y-123738748D02*
X117710000Y-124261252D01*
X116290000Y-123738748D02*
X116290000Y-124261252D01*
X175170000Y-131410000D02*
X177830000Y-131410000D01*
X175170000Y-126270000D02*
X175170000Y-131410000D01*
X177830000Y-126270000D02*
X177830000Y-131410000D01*
X175170000Y-126270000D02*
X177830000Y-126270000D01*
X175170000Y-125000000D02*
X175170000Y-123670000D01*
X175170000Y-123670000D02*
X176500000Y-123670000D01*
X116550000Y-143000000D02*
X116000000Y-143500000D01*
X116550000Y-144000000D02*
X116550000Y-143000000D01*
X116000000Y-143500000D02*
X116550000Y-144000000D01*
D15*
X103700000Y-149300000D02*
X103700000Y-141550000D01*
X103700000Y-137200000D02*
X103700000Y-134800000D01*
X103700000Y-134800000D02*
X115500000Y-134800000D01*
X115500000Y-134800000D02*
X115500000Y-134900000D01*
X115500000Y-137500000D02*
X115500000Y-141250000D01*
X115500000Y-145750000D02*
X115500000Y-149300000D01*
X115500000Y-149300000D02*
X103700000Y-149300000D01*
X106800000Y-149300000D02*
X106800000Y-152900000D01*
X106800000Y-152900000D02*
X113000000Y-152900000D01*
X113000000Y-152900000D02*
X113000000Y-149300000D01*
D14*
X136550000Y-143000000D02*
X136000000Y-143500000D01*
X136550000Y-144000000D02*
X136550000Y-143000000D01*
X136000000Y-143500000D02*
X136550000Y-144000000D01*
D15*
X123700000Y-149300000D02*
X123700000Y-141550000D01*
X123700000Y-137200000D02*
X123700000Y-134800000D01*
X123700000Y-134800000D02*
X135500000Y-134800000D01*
X135500000Y-134800000D02*
X135500000Y-134900000D01*
X135500000Y-137500000D02*
X135500000Y-141250000D01*
X135500000Y-145750000D02*
X135500000Y-149300000D01*
X135500000Y-149300000D02*
X123700000Y-149300000D01*
X126800000Y-149300000D02*
X126800000Y-152900000D01*
X126800000Y-152900000D02*
X133000000Y-152900000D01*
X133000000Y-152900000D02*
X133000000Y-149300000D01*
D14*
X156550000Y-143000000D02*
X156000000Y-143500000D01*
X156550000Y-144000000D02*
X156550000Y-143000000D01*
X156000000Y-143500000D02*
X156550000Y-144000000D01*
D15*
X143700000Y-149300000D02*
X143700000Y-141550000D01*
X143700000Y-137200000D02*
X143700000Y-134800000D01*
X143700000Y-134800000D02*
X155500000Y-134800000D01*
X155500000Y-134800000D02*
X155500000Y-134900000D01*
X155500000Y-137500000D02*
X155500000Y-141250000D01*
X155500000Y-145750000D02*
X155500000Y-149300000D01*
X155500000Y-149300000D02*
X143700000Y-149300000D01*
X146800000Y-149300000D02*
X146800000Y-152900000D01*
X146800000Y-152900000D02*
X153000000Y-152900000D01*
X153000000Y-152900000D02*
X153000000Y-149300000D01*
X173000000Y-152900000D02*
X173000000Y-149300000D01*
X166800000Y-152900000D02*
X173000000Y-152900000D01*
X166800000Y-149300000D02*
X166800000Y-152900000D01*
X175500000Y-149300000D02*
X163700000Y-149300000D01*
X175500000Y-145750000D02*
X175500000Y-149300000D01*
X175500000Y-137500000D02*
X175500000Y-141250000D01*
X175500000Y-134800000D02*
X175500000Y-134900000D01*
X163700000Y-134800000D02*
X175500000Y-134800000D01*
X163700000Y-137200000D02*
X163700000Y-134800000D01*
X163700000Y-149300000D02*
X163700000Y-141550000D01*
D14*
X176000000Y-143500000D02*
X176550000Y-144000000D01*
X176550000Y-144000000D02*
X176550000Y-143000000D01*
X176550000Y-143000000D02*
X176000000Y-143500000D01*
D15*
X120107142Y-124606547D02*
X120154761Y-124654166D01*
X120202380Y-124797023D01*
X120202380Y-124892261D01*
X120154761Y-125035119D01*
X120059523Y-125130357D01*
X119964285Y-125177976D01*
X119773809Y-125225595D01*
X119630952Y-125225595D01*
X119440476Y-125177976D01*
X119345238Y-125130357D01*
X119250000Y-125035119D01*
X119202380Y-124892261D01*
X119202380Y-124797023D01*
X119250000Y-124654166D01*
X119297619Y-124606547D01*
X119297619Y-124225595D02*
X119250000Y-124177976D01*
X119202380Y-124082738D01*
X119202380Y-123844642D01*
X119250000Y-123749404D01*
X119297619Y-123701785D01*
X119392857Y-123654166D01*
X119488095Y-123654166D01*
X119630952Y-123701785D01*
X120202380Y-124273214D01*
X120202380Y-123654166D01*
X119202380Y-123035119D02*
X119202380Y-122939880D01*
X119250000Y-122844642D01*
X119297619Y-122797023D01*
X119392857Y-122749404D01*
X119583333Y-122701785D01*
X119821428Y-122701785D01*
X120011904Y-122749404D01*
X120107142Y-122797023D01*
X120154761Y-122844642D01*
X120202380Y-122939880D01*
X120202380Y-123035119D01*
X120154761Y-123130357D01*
X120107142Y-123177976D01*
X120011904Y-123225595D01*
X119821428Y-123273214D01*
X119583333Y-123273214D01*
X119392857Y-123225595D01*
X119297619Y-123177976D01*
X119250000Y-123130357D01*
X119202380Y-123035119D01*
X120202380Y-121749404D02*
X120202380Y-122320833D01*
X120202380Y-122035119D02*
X119202380Y-122035119D01*
X119345238Y-122130357D01*
X119440476Y-122225595D01*
X119488095Y-122320833D01*
X123138095Y-124471428D02*
X123100000Y-124433333D01*
X123061904Y-124357142D01*
X123061904Y-124166666D01*
X123100000Y-124090476D01*
X123138095Y-124052380D01*
X123214285Y-124014285D01*
X123290476Y-124014285D01*
X123404761Y-124052380D01*
X123861904Y-124509523D01*
X123861904Y-124014285D01*
X123138095Y-123709523D02*
X123100000Y-123671428D01*
X123061904Y-123595238D01*
X123061904Y-123404761D01*
X123100000Y-123328571D01*
X123138095Y-123290476D01*
X123214285Y-123252380D01*
X123290476Y-123252380D01*
X123404761Y-123290476D01*
X123861904Y-123747619D01*
X123861904Y-123252380D01*
X123328571Y-122566666D02*
X123861904Y-122566666D01*
X123328571Y-122909523D02*
X123747619Y-122909523D01*
X123823809Y-122871428D01*
X123861904Y-122795238D01*
X123861904Y-122680952D01*
X123823809Y-122604761D01*
X123785714Y-122566666D01*
X129380952Y-116707142D02*
X129333333Y-116754761D01*
X129190476Y-116802380D01*
X129095238Y-116802380D01*
X128952380Y-116754761D01*
X128857142Y-116659523D01*
X128809523Y-116564285D01*
X128761904Y-116373809D01*
X128761904Y-116230952D01*
X128809523Y-116040476D01*
X128857142Y-115945238D01*
X128952380Y-115850000D01*
X129095238Y-115802380D01*
X129190476Y-115802380D01*
X129333333Y-115850000D01*
X129380952Y-115897619D01*
X129761904Y-115897619D02*
X129809523Y-115850000D01*
X129904761Y-115802380D01*
X130142857Y-115802380D01*
X130238095Y-115850000D01*
X130285714Y-115897619D01*
X130333333Y-115992857D01*
X130333333Y-116088095D01*
X130285714Y-116230952D01*
X129714285Y-116802380D01*
X130333333Y-116802380D01*
X130952380Y-115802380D02*
X131047619Y-115802380D01*
X131142857Y-115850000D01*
X131190476Y-115897619D01*
X131238095Y-115992857D01*
X131285714Y-116183333D01*
X131285714Y-116421428D01*
X131238095Y-116611904D01*
X131190476Y-116707142D01*
X131142857Y-116754761D01*
X131047619Y-116802380D01*
X130952380Y-116802380D01*
X130857142Y-116754761D01*
X130809523Y-116707142D01*
X130761904Y-116611904D01*
X130714285Y-116421428D01*
X130714285Y-116183333D01*
X130761904Y-115992857D01*
X130809523Y-115897619D01*
X130857142Y-115850000D01*
X130952380Y-115802380D01*
X131619047Y-115802380D02*
X132238095Y-115802380D01*
X131904761Y-116183333D01*
X132047619Y-116183333D01*
X132142857Y-116230952D01*
X132190476Y-116278571D01*
X132238095Y-116373809D01*
X132238095Y-116611904D01*
X132190476Y-116707142D01*
X132142857Y-116754761D01*
X132047619Y-116802380D01*
X131761904Y-116802380D01*
X131666666Y-116754761D01*
X131619047Y-116707142D01*
X130333333Y-120102380D02*
X129761904Y-120102380D01*
X130047619Y-120102380D02*
X130047619Y-119102380D01*
X129952380Y-119245238D01*
X129857142Y-119340476D01*
X129761904Y-119388095D01*
X131190476Y-119435714D02*
X131190476Y-120102380D01*
X130761904Y-119435714D02*
X130761904Y-119959523D01*
X130809523Y-120054761D01*
X130904761Y-120102380D01*
X131047619Y-120102380D01*
X131142857Y-120054761D01*
X131190476Y-120007142D01*
X115380952Y-115857142D02*
X115333333Y-115904761D01*
X115190476Y-115952380D01*
X115095238Y-115952380D01*
X114952380Y-115904761D01*
X114857142Y-115809523D01*
X114809523Y-115714285D01*
X114761904Y-115523809D01*
X114761904Y-115380952D01*
X114809523Y-115190476D01*
X114857142Y-115095238D01*
X114952380Y-115000000D01*
X115095238Y-114952380D01*
X115190476Y-114952380D01*
X115333333Y-115000000D01*
X115380952Y-115047619D01*
X115761904Y-115047619D02*
X115809523Y-115000000D01*
X115904761Y-114952380D01*
X116142857Y-114952380D01*
X116238095Y-115000000D01*
X116285714Y-115047619D01*
X116333333Y-115142857D01*
X116333333Y-115238095D01*
X116285714Y-115380952D01*
X115714285Y-115952380D01*
X116333333Y-115952380D01*
X116952380Y-114952380D02*
X117047619Y-114952380D01*
X117142857Y-115000000D01*
X117190476Y-115047619D01*
X117238095Y-115142857D01*
X117285714Y-115333333D01*
X117285714Y-115571428D01*
X117238095Y-115761904D01*
X117190476Y-115857142D01*
X117142857Y-115904761D01*
X117047619Y-115952380D01*
X116952380Y-115952380D01*
X116857142Y-115904761D01*
X116809523Y-115857142D01*
X116761904Y-115761904D01*
X116714285Y-115571428D01*
X116714285Y-115333333D01*
X116761904Y-115142857D01*
X116809523Y-115047619D01*
X116857142Y-115000000D01*
X116952380Y-114952380D01*
X118190476Y-114952380D02*
X117714285Y-114952380D01*
X117666666Y-115428571D01*
X117714285Y-115380952D01*
X117809523Y-115333333D01*
X118047619Y-115333333D01*
X118142857Y-115380952D01*
X118190476Y-115428571D01*
X118238095Y-115523809D01*
X118238095Y-115761904D01*
X118190476Y-115857142D01*
X118142857Y-115904761D01*
X118047619Y-115952380D01*
X117809523Y-115952380D01*
X117714285Y-115904761D01*
X117666666Y-115857142D01*
X115833333Y-114302380D02*
X115261904Y-114302380D01*
X115547619Y-114302380D02*
X115547619Y-113302380D01*
X115452380Y-113445238D01*
X115357142Y-113540476D01*
X115261904Y-113588095D01*
X116690476Y-113635714D02*
X116690476Y-114302380D01*
X116261904Y-113635714D02*
X116261904Y-114159523D01*
X116309523Y-114254761D01*
X116404761Y-114302380D01*
X116547619Y-114302380D01*
X116642857Y-114254761D01*
X116690476Y-114207142D01*
X105952380Y-129690476D02*
X104952380Y-129690476D01*
X104952380Y-129452380D01*
X105000000Y-129309523D01*
X105095238Y-129214285D01*
X105190476Y-129166666D01*
X105380952Y-129119047D01*
X105523809Y-129119047D01*
X105714285Y-129166666D01*
X105809523Y-129214285D01*
X105904761Y-129309523D01*
X105952380Y-129452380D01*
X105952380Y-129690476D01*
X105047619Y-128738095D02*
X105000000Y-128690476D01*
X104952380Y-128595238D01*
X104952380Y-128357142D01*
X105000000Y-128261904D01*
X105047619Y-128214285D01*
X105142857Y-128166666D01*
X105238095Y-128166666D01*
X105380952Y-128214285D01*
X105952380Y-128785714D01*
X105952380Y-128166666D01*
X104952380Y-127547619D02*
X104952380Y-127452380D01*
X105000000Y-127357142D01*
X105047619Y-127309523D01*
X105142857Y-127261904D01*
X105333333Y-127214285D01*
X105571428Y-127214285D01*
X105761904Y-127261904D01*
X105857142Y-127309523D01*
X105904761Y-127357142D01*
X105952380Y-127452380D01*
X105952380Y-127547619D01*
X105904761Y-127642857D01*
X105857142Y-127690476D01*
X105761904Y-127738095D01*
X105571428Y-127785714D01*
X105333333Y-127785714D01*
X105142857Y-127738095D01*
X105047619Y-127690476D01*
X105000000Y-127642857D01*
X104952380Y-127547619D01*
X105952380Y-126261904D02*
X105952380Y-126833333D01*
X105952380Y-126547619D02*
X104952380Y-126547619D01*
X105095238Y-126642857D01*
X105190476Y-126738095D01*
X105238095Y-126833333D01*
X105952380Y-134190476D02*
X104952380Y-134190476D01*
X104952380Y-133952380D01*
X105000000Y-133809523D01*
X105095238Y-133714285D01*
X105190476Y-133666666D01*
X105380952Y-133619047D01*
X105523809Y-133619047D01*
X105714285Y-133666666D01*
X105809523Y-133714285D01*
X105904761Y-133809523D01*
X105952380Y-133952380D01*
X105952380Y-134190476D01*
X105047619Y-133238095D02*
X105000000Y-133190476D01*
X104952380Y-133095238D01*
X104952380Y-132857142D01*
X105000000Y-132761904D01*
X105047619Y-132714285D01*
X105142857Y-132666666D01*
X105238095Y-132666666D01*
X105380952Y-132714285D01*
X105952380Y-133285714D01*
X105952380Y-132666666D01*
X104952380Y-132047619D02*
X104952380Y-131952380D01*
X105000000Y-131857142D01*
X105047619Y-131809523D01*
X105142857Y-131761904D01*
X105333333Y-131714285D01*
X105571428Y-131714285D01*
X105761904Y-131761904D01*
X105857142Y-131809523D01*
X105904761Y-131857142D01*
X105952380Y-131952380D01*
X105952380Y-132047619D01*
X105904761Y-132142857D01*
X105857142Y-132190476D01*
X105761904Y-132238095D01*
X105571428Y-132285714D01*
X105333333Y-132285714D01*
X105142857Y-132238095D01*
X105047619Y-132190476D01*
X105000000Y-132142857D01*
X104952380Y-132047619D01*
X105047619Y-131333333D02*
X105000000Y-131285714D01*
X104952380Y-131190476D01*
X104952380Y-130952380D01*
X105000000Y-130857142D01*
X105047619Y-130809523D01*
X105142857Y-130761904D01*
X105238095Y-130761904D01*
X105380952Y-130809523D01*
X105952380Y-131380952D01*
X105952380Y-130761904D01*
X146952380Y-134360476D02*
X145952380Y-134360476D01*
X145952380Y-134122380D01*
X146000000Y-133979523D01*
X146095238Y-133884285D01*
X146190476Y-133836666D01*
X146380952Y-133789047D01*
X146523809Y-133789047D01*
X146714285Y-133836666D01*
X146809523Y-133884285D01*
X146904761Y-133979523D01*
X146952380Y-134122380D01*
X146952380Y-134360476D01*
X146047619Y-133408095D02*
X146000000Y-133360476D01*
X145952380Y-133265238D01*
X145952380Y-133027142D01*
X146000000Y-132931904D01*
X146047619Y-132884285D01*
X146142857Y-132836666D01*
X146238095Y-132836666D01*
X146380952Y-132884285D01*
X146952380Y-133455714D01*
X146952380Y-132836666D01*
X145952380Y-132217619D02*
X145952380Y-132122380D01*
X146000000Y-132027142D01*
X146047619Y-131979523D01*
X146142857Y-131931904D01*
X146333333Y-131884285D01*
X146571428Y-131884285D01*
X146761904Y-131931904D01*
X146857142Y-131979523D01*
X146904761Y-132027142D01*
X146952380Y-132122380D01*
X146952380Y-132217619D01*
X146904761Y-132312857D01*
X146857142Y-132360476D01*
X146761904Y-132408095D01*
X146571428Y-132455714D01*
X146333333Y-132455714D01*
X146142857Y-132408095D01*
X146047619Y-132360476D01*
X146000000Y-132312857D01*
X145952380Y-132217619D01*
X145952380Y-131550952D02*
X145952380Y-130931904D01*
X146333333Y-131265238D01*
X146333333Y-131122380D01*
X146380952Y-131027142D01*
X146428571Y-130979523D01*
X146523809Y-130931904D01*
X146761904Y-130931904D01*
X146857142Y-130979523D01*
X146904761Y-131027142D01*
X146952380Y-131122380D01*
X146952380Y-131408095D01*
X146904761Y-131503333D01*
X146857142Y-131550952D01*
X146952380Y-129690476D02*
X145952380Y-129690476D01*
X145952380Y-129452380D01*
X146000000Y-129309523D01*
X146095238Y-129214285D01*
X146190476Y-129166666D01*
X146380952Y-129119047D01*
X146523809Y-129119047D01*
X146714285Y-129166666D01*
X146809523Y-129214285D01*
X146904761Y-129309523D01*
X146952380Y-129452380D01*
X146952380Y-129690476D01*
X146047619Y-128738095D02*
X146000000Y-128690476D01*
X145952380Y-128595238D01*
X145952380Y-128357142D01*
X146000000Y-128261904D01*
X146047619Y-128214285D01*
X146142857Y-128166666D01*
X146238095Y-128166666D01*
X146380952Y-128214285D01*
X146952380Y-128785714D01*
X146952380Y-128166666D01*
X145952380Y-127547619D02*
X145952380Y-127452380D01*
X146000000Y-127357142D01*
X146047619Y-127309523D01*
X146142857Y-127261904D01*
X146333333Y-127214285D01*
X146571428Y-127214285D01*
X146761904Y-127261904D01*
X146857142Y-127309523D01*
X146904761Y-127357142D01*
X146952380Y-127452380D01*
X146952380Y-127547619D01*
X146904761Y-127642857D01*
X146857142Y-127690476D01*
X146761904Y-127738095D01*
X146571428Y-127785714D01*
X146333333Y-127785714D01*
X146142857Y-127738095D01*
X146047619Y-127690476D01*
X146000000Y-127642857D01*
X145952380Y-127547619D01*
X146285714Y-126357142D02*
X146952380Y-126357142D01*
X145904761Y-126595238D02*
X146619047Y-126833333D01*
X146619047Y-126214285D01*
X165952380Y-129690476D02*
X164952380Y-129690476D01*
X164952380Y-129452380D01*
X165000000Y-129309523D01*
X165095238Y-129214285D01*
X165190476Y-129166666D01*
X165380952Y-129119047D01*
X165523809Y-129119047D01*
X165714285Y-129166666D01*
X165809523Y-129214285D01*
X165904761Y-129309523D01*
X165952380Y-129452380D01*
X165952380Y-129690476D01*
X165047619Y-128738095D02*
X165000000Y-128690476D01*
X164952380Y-128595238D01*
X164952380Y-128357142D01*
X165000000Y-128261904D01*
X165047619Y-128214285D01*
X165142857Y-128166666D01*
X165238095Y-128166666D01*
X165380952Y-128214285D01*
X165952380Y-128785714D01*
X165952380Y-128166666D01*
X164952380Y-127547619D02*
X164952380Y-127452380D01*
X165000000Y-127357142D01*
X165047619Y-127309523D01*
X165142857Y-127261904D01*
X165333333Y-127214285D01*
X165571428Y-127214285D01*
X165761904Y-127261904D01*
X165857142Y-127309523D01*
X165904761Y-127357142D01*
X165952380Y-127452380D01*
X165952380Y-127547619D01*
X165904761Y-127642857D01*
X165857142Y-127690476D01*
X165761904Y-127738095D01*
X165571428Y-127785714D01*
X165333333Y-127785714D01*
X165142857Y-127738095D01*
X165047619Y-127690476D01*
X165000000Y-127642857D01*
X164952380Y-127547619D01*
X164952380Y-126309523D02*
X164952380Y-126785714D01*
X165428571Y-126833333D01*
X165380952Y-126785714D01*
X165333333Y-126690476D01*
X165333333Y-126452380D01*
X165380952Y-126357142D01*
X165428571Y-126309523D01*
X165523809Y-126261904D01*
X165761904Y-126261904D01*
X165857142Y-126309523D01*
X165904761Y-126357142D01*
X165952380Y-126452380D01*
X165952380Y-126690476D01*
X165904761Y-126785714D01*
X165857142Y-126833333D01*
X165952380Y-134190476D02*
X164952380Y-134190476D01*
X164952380Y-133952380D01*
X165000000Y-133809523D01*
X165095238Y-133714285D01*
X165190476Y-133666666D01*
X165380952Y-133619047D01*
X165523809Y-133619047D01*
X165714285Y-133666666D01*
X165809523Y-133714285D01*
X165904761Y-133809523D01*
X165952380Y-133952380D01*
X165952380Y-134190476D01*
X165047619Y-133238095D02*
X165000000Y-133190476D01*
X164952380Y-133095238D01*
X164952380Y-132857142D01*
X165000000Y-132761904D01*
X165047619Y-132714285D01*
X165142857Y-132666666D01*
X165238095Y-132666666D01*
X165380952Y-132714285D01*
X165952380Y-133285714D01*
X165952380Y-132666666D01*
X164952380Y-132047619D02*
X164952380Y-131952380D01*
X165000000Y-131857142D01*
X165047619Y-131809523D01*
X165142857Y-131761904D01*
X165333333Y-131714285D01*
X165571428Y-131714285D01*
X165761904Y-131761904D01*
X165857142Y-131809523D01*
X165904761Y-131857142D01*
X165952380Y-131952380D01*
X165952380Y-132047619D01*
X165904761Y-132142857D01*
X165857142Y-132190476D01*
X165761904Y-132238095D01*
X165571428Y-132285714D01*
X165333333Y-132285714D01*
X165142857Y-132238095D01*
X165047619Y-132190476D01*
X165000000Y-132142857D01*
X164952380Y-132047619D01*
X164952380Y-130857142D02*
X164952380Y-131047619D01*
X165000000Y-131142857D01*
X165047619Y-131190476D01*
X165190476Y-131285714D01*
X165380952Y-131333333D01*
X165761904Y-131333333D01*
X165857142Y-131285714D01*
X165904761Y-131238095D01*
X165952380Y-131142857D01*
X165952380Y-130952380D01*
X165904761Y-130857142D01*
X165857142Y-130809523D01*
X165761904Y-130761904D01*
X165523809Y-130761904D01*
X165428571Y-130809523D01*
X165380952Y-130857142D01*
X165333333Y-130952380D01*
X165333333Y-131142857D01*
X165380952Y-131238095D01*
X165428571Y-131285714D01*
X165523809Y-131333333D01*
X108079523Y-51992380D02*
X108079523Y-50992380D01*
X108317619Y-50992380D01*
X108460476Y-51040000D01*
X108555714Y-51135238D01*
X108603333Y-51230476D01*
X108650952Y-51420952D01*
X108650952Y-51563809D01*
X108603333Y-51754285D01*
X108555714Y-51849523D01*
X108460476Y-51944761D01*
X108317619Y-51992380D01*
X108079523Y-51992380D01*
X108984285Y-50992380D02*
X109603333Y-50992380D01*
X109270000Y-51373333D01*
X109412857Y-51373333D01*
X109508095Y-51420952D01*
X109555714Y-51468571D01*
X109603333Y-51563809D01*
X109603333Y-51801904D01*
X109555714Y-51897142D01*
X109508095Y-51944761D01*
X109412857Y-51992380D01*
X109127142Y-51992380D01*
X109031904Y-51944761D01*
X108984285Y-51897142D01*
X110222380Y-50992380D02*
X110317619Y-50992380D01*
X110412857Y-51040000D01*
X110460476Y-51087619D01*
X110508095Y-51182857D01*
X110555714Y-51373333D01*
X110555714Y-51611428D01*
X110508095Y-51801904D01*
X110460476Y-51897142D01*
X110412857Y-51944761D01*
X110317619Y-51992380D01*
X110222380Y-51992380D01*
X110127142Y-51944761D01*
X110079523Y-51897142D01*
X110031904Y-51801904D01*
X109984285Y-51611428D01*
X109984285Y-51373333D01*
X110031904Y-51182857D01*
X110079523Y-51087619D01*
X110127142Y-51040000D01*
X110222380Y-50992380D01*
X111508095Y-51992380D02*
X110936666Y-51992380D01*
X111222380Y-51992380D02*
X111222380Y-50992380D01*
X111127142Y-51135238D01*
X111031904Y-51230476D01*
X110936666Y-51278095D01*
X128079523Y-51992380D02*
X128079523Y-50992380D01*
X128317619Y-50992380D01*
X128460476Y-51040000D01*
X128555714Y-51135238D01*
X128603333Y-51230476D01*
X128650952Y-51420952D01*
X128650952Y-51563809D01*
X128603333Y-51754285D01*
X128555714Y-51849523D01*
X128460476Y-51944761D01*
X128317619Y-51992380D01*
X128079523Y-51992380D01*
X128984285Y-50992380D02*
X129603333Y-50992380D01*
X129270000Y-51373333D01*
X129412857Y-51373333D01*
X129508095Y-51420952D01*
X129555714Y-51468571D01*
X129603333Y-51563809D01*
X129603333Y-51801904D01*
X129555714Y-51897142D01*
X129508095Y-51944761D01*
X129412857Y-51992380D01*
X129127142Y-51992380D01*
X129031904Y-51944761D01*
X128984285Y-51897142D01*
X130222380Y-50992380D02*
X130317619Y-50992380D01*
X130412857Y-51040000D01*
X130460476Y-51087619D01*
X130508095Y-51182857D01*
X130555714Y-51373333D01*
X130555714Y-51611428D01*
X130508095Y-51801904D01*
X130460476Y-51897142D01*
X130412857Y-51944761D01*
X130317619Y-51992380D01*
X130222380Y-51992380D01*
X130127142Y-51944761D01*
X130079523Y-51897142D01*
X130031904Y-51801904D01*
X129984285Y-51611428D01*
X129984285Y-51373333D01*
X130031904Y-51182857D01*
X130079523Y-51087619D01*
X130127142Y-51040000D01*
X130222380Y-50992380D01*
X130936666Y-51087619D02*
X130984285Y-51040000D01*
X131079523Y-50992380D01*
X131317619Y-50992380D01*
X131412857Y-51040000D01*
X131460476Y-51087619D01*
X131508095Y-51182857D01*
X131508095Y-51278095D01*
X131460476Y-51420952D01*
X130889047Y-51992380D01*
X131508095Y-51992380D01*
X148079523Y-51992380D02*
X148079523Y-50992380D01*
X148317619Y-50992380D01*
X148460476Y-51040000D01*
X148555714Y-51135238D01*
X148603333Y-51230476D01*
X148650952Y-51420952D01*
X148650952Y-51563809D01*
X148603333Y-51754285D01*
X148555714Y-51849523D01*
X148460476Y-51944761D01*
X148317619Y-51992380D01*
X148079523Y-51992380D01*
X148984285Y-50992380D02*
X149603333Y-50992380D01*
X149270000Y-51373333D01*
X149412857Y-51373333D01*
X149508095Y-51420952D01*
X149555714Y-51468571D01*
X149603333Y-51563809D01*
X149603333Y-51801904D01*
X149555714Y-51897142D01*
X149508095Y-51944761D01*
X149412857Y-51992380D01*
X149127142Y-51992380D01*
X149031904Y-51944761D01*
X148984285Y-51897142D01*
X150222380Y-50992380D02*
X150317619Y-50992380D01*
X150412857Y-51040000D01*
X150460476Y-51087619D01*
X150508095Y-51182857D01*
X150555714Y-51373333D01*
X150555714Y-51611428D01*
X150508095Y-51801904D01*
X150460476Y-51897142D01*
X150412857Y-51944761D01*
X150317619Y-51992380D01*
X150222380Y-51992380D01*
X150127142Y-51944761D01*
X150079523Y-51897142D01*
X150031904Y-51801904D01*
X149984285Y-51611428D01*
X149984285Y-51373333D01*
X150031904Y-51182857D01*
X150079523Y-51087619D01*
X150127142Y-51040000D01*
X150222380Y-50992380D01*
X150889047Y-50992380D02*
X151508095Y-50992380D01*
X151174761Y-51373333D01*
X151317619Y-51373333D01*
X151412857Y-51420952D01*
X151460476Y-51468571D01*
X151508095Y-51563809D01*
X151508095Y-51801904D01*
X151460476Y-51897142D01*
X151412857Y-51944761D01*
X151317619Y-51992380D01*
X151031904Y-51992380D01*
X150936666Y-51944761D01*
X150889047Y-51897142D01*
X168079523Y-51992380D02*
X168079523Y-50992380D01*
X168317619Y-50992380D01*
X168460476Y-51040000D01*
X168555714Y-51135238D01*
X168603333Y-51230476D01*
X168650952Y-51420952D01*
X168650952Y-51563809D01*
X168603333Y-51754285D01*
X168555714Y-51849523D01*
X168460476Y-51944761D01*
X168317619Y-51992380D01*
X168079523Y-51992380D01*
X168984285Y-50992380D02*
X169603333Y-50992380D01*
X169270000Y-51373333D01*
X169412857Y-51373333D01*
X169508095Y-51420952D01*
X169555714Y-51468571D01*
X169603333Y-51563809D01*
X169603333Y-51801904D01*
X169555714Y-51897142D01*
X169508095Y-51944761D01*
X169412857Y-51992380D01*
X169127142Y-51992380D01*
X169031904Y-51944761D01*
X168984285Y-51897142D01*
X170222380Y-50992380D02*
X170317619Y-50992380D01*
X170412857Y-51040000D01*
X170460476Y-51087619D01*
X170508095Y-51182857D01*
X170555714Y-51373333D01*
X170555714Y-51611428D01*
X170508095Y-51801904D01*
X170460476Y-51897142D01*
X170412857Y-51944761D01*
X170317619Y-51992380D01*
X170222380Y-51992380D01*
X170127142Y-51944761D01*
X170079523Y-51897142D01*
X170031904Y-51801904D01*
X169984285Y-51611428D01*
X169984285Y-51373333D01*
X170031904Y-51182857D01*
X170079523Y-51087619D01*
X170127142Y-51040000D01*
X170222380Y-50992380D01*
X171412857Y-51325714D02*
X171412857Y-51992380D01*
X171174761Y-50944761D02*
X170936666Y-51659047D01*
X171555714Y-51659047D01*
X157782380Y-102285714D02*
X158496666Y-102285714D01*
X158639523Y-102333333D01*
X158734761Y-102428571D01*
X158782380Y-102571428D01*
X158782380Y-102666666D01*
X158782380Y-101285714D02*
X158782380Y-101857142D01*
X158782380Y-101571428D02*
X157782380Y-101571428D01*
X157925238Y-101666666D01*
X158020476Y-101761904D01*
X158068095Y-101857142D01*
X157782380Y-100666666D02*
X157782380Y-100571428D01*
X157830000Y-100476190D01*
X157877619Y-100428571D01*
X157972857Y-100380952D01*
X158163333Y-100333333D01*
X158401428Y-100333333D01*
X158591904Y-100380952D01*
X158687142Y-100428571D01*
X158734761Y-100476190D01*
X158782380Y-100571428D01*
X158782380Y-100666666D01*
X158734761Y-100761904D01*
X158687142Y-100809523D01*
X158591904Y-100857142D01*
X158401428Y-100904761D01*
X158163333Y-100904761D01*
X157972857Y-100857142D01*
X157877619Y-100809523D01*
X157830000Y-100761904D01*
X157782380Y-100666666D01*
X158782380Y-99380952D02*
X158782380Y-99952380D01*
X158782380Y-99666666D02*
X157782380Y-99666666D01*
X157925238Y-99761904D01*
X158020476Y-99857142D01*
X158068095Y-99952380D01*
X153000000Y-103857142D02*
X152952380Y-103904761D01*
X152809523Y-103952380D01*
X152714285Y-103952380D01*
X152571428Y-103904761D01*
X152476190Y-103809523D01*
X152428571Y-103714285D01*
X152380952Y-103523809D01*
X152380952Y-103380952D01*
X152428571Y-103190476D01*
X152476190Y-103095238D01*
X152571428Y-103000000D01*
X152714285Y-102952380D01*
X152809523Y-102952380D01*
X152952380Y-103000000D01*
X153000000Y-103047619D01*
X153285714Y-102952380D02*
X153619047Y-103952380D01*
X153952380Y-102952380D01*
X154285714Y-103571428D02*
X155047619Y-103571428D01*
X155714285Y-102952380D02*
X155904761Y-102952380D01*
X156000000Y-103000000D01*
X156095238Y-103095238D01*
X156142857Y-103285714D01*
X156142857Y-103619047D01*
X156095238Y-103809523D01*
X156000000Y-103904761D01*
X155904761Y-103952380D01*
X155714285Y-103952380D01*
X155619047Y-103904761D01*
X155523809Y-103809523D01*
X155476190Y-103619047D01*
X155476190Y-103285714D01*
X155523809Y-103095238D01*
X155619047Y-103000000D01*
X155714285Y-102952380D01*
X157000000Y-103285714D02*
X157000000Y-103952380D01*
X156571428Y-103285714D02*
X156571428Y-103809523D01*
X156619047Y-103904761D01*
X156714285Y-103952380D01*
X156857142Y-103952380D01*
X156952380Y-103904761D01*
X157000000Y-103857142D01*
X157333333Y-103285714D02*
X157714285Y-103285714D01*
X157476190Y-102952380D02*
X157476190Y-103809523D01*
X157523809Y-103904761D01*
X157619047Y-103952380D01*
X157714285Y-103952380D01*
X101214285Y-76952380D02*
X101214285Y-77666666D01*
X101166666Y-77809523D01*
X101071428Y-77904761D01*
X100928571Y-77952380D01*
X100833333Y-77952380D01*
X102214285Y-77952380D02*
X101642857Y-77952380D01*
X101928571Y-77952380D02*
X101928571Y-76952380D01*
X101833333Y-77095238D01*
X101738095Y-77190476D01*
X101642857Y-77238095D01*
X102833333Y-76952380D02*
X102928571Y-76952380D01*
X103023809Y-77000000D01*
X103071428Y-77047619D01*
X103119047Y-77142857D01*
X103166666Y-77333333D01*
X103166666Y-77571428D01*
X103119047Y-77761904D01*
X103071428Y-77857142D01*
X103023809Y-77904761D01*
X102928571Y-77952380D01*
X102833333Y-77952380D01*
X102738095Y-77904761D01*
X102690476Y-77857142D01*
X102642857Y-77761904D01*
X102595238Y-77571428D01*
X102595238Y-77333333D01*
X102642857Y-77142857D01*
X102690476Y-77047619D01*
X102738095Y-77000000D01*
X102833333Y-76952380D01*
X103547619Y-77047619D02*
X103595238Y-77000000D01*
X103690476Y-76952380D01*
X103928571Y-76952380D01*
X104023809Y-77000000D01*
X104071428Y-77047619D01*
X104119047Y-77142857D01*
X104119047Y-77238095D01*
X104071428Y-77380952D01*
X103500000Y-77952380D01*
X104119047Y-77952380D01*
X105738095Y-77952380D02*
X105404761Y-77476190D01*
X105166666Y-77952380D02*
X105166666Y-76952380D01*
X105547619Y-76952380D01*
X105642857Y-77000000D01*
X105690476Y-77047619D01*
X105738095Y-77142857D01*
X105738095Y-77285714D01*
X105690476Y-77380952D01*
X105642857Y-77428571D01*
X105547619Y-77476190D01*
X105166666Y-77476190D01*
X106547619Y-77904761D02*
X106452380Y-77952380D01*
X106261904Y-77952380D01*
X106166666Y-77904761D01*
X106119047Y-77809523D01*
X106119047Y-77428571D01*
X106166666Y-77333333D01*
X106261904Y-77285714D01*
X106452380Y-77285714D01*
X106547619Y-77333333D01*
X106595238Y-77428571D01*
X106595238Y-77523809D01*
X106119047Y-77619047D01*
X106976190Y-77904761D02*
X107071428Y-77952380D01*
X107261904Y-77952380D01*
X107357142Y-77904761D01*
X107404761Y-77809523D01*
X107404761Y-77761904D01*
X107357142Y-77666666D01*
X107261904Y-77619047D01*
X107119047Y-77619047D01*
X107023809Y-77571428D01*
X106976190Y-77476190D01*
X106976190Y-77428571D01*
X107023809Y-77333333D01*
X107119047Y-77285714D01*
X107261904Y-77285714D01*
X107357142Y-77333333D01*
X108214285Y-77904761D02*
X108119047Y-77952380D01*
X107928571Y-77952380D01*
X107833333Y-77904761D01*
X107785714Y-77809523D01*
X107785714Y-77428571D01*
X107833333Y-77333333D01*
X107928571Y-77285714D01*
X108119047Y-77285714D01*
X108214285Y-77333333D01*
X108261904Y-77428571D01*
X108261904Y-77523809D01*
X107785714Y-77619047D01*
X108547619Y-77285714D02*
X108928571Y-77285714D01*
X108690476Y-76952380D02*
X108690476Y-77809523D01*
X108738095Y-77904761D01*
X108833333Y-77952380D01*
X108928571Y-77952380D01*
X110023809Y-77571428D02*
X110785714Y-77571428D01*
X110404761Y-77952380D02*
X110404761Y-77190476D01*
X111976190Y-77904761D02*
X112119047Y-77952380D01*
X112357142Y-77952380D01*
X112452380Y-77904761D01*
X112500000Y-77857142D01*
X112547619Y-77761904D01*
X112547619Y-77666666D01*
X112500000Y-77571428D01*
X112452380Y-77523809D01*
X112357142Y-77476190D01*
X112166666Y-77428571D01*
X112071428Y-77380952D01*
X112023809Y-77333333D01*
X111976190Y-77238095D01*
X111976190Y-77142857D01*
X112023809Y-77047619D01*
X112071428Y-77000000D01*
X112166666Y-76952380D01*
X112404761Y-76952380D01*
X112547619Y-77000000D01*
X112833333Y-77285714D02*
X113214285Y-77285714D01*
X112976190Y-76952380D02*
X112976190Y-77809523D01*
X113023809Y-77904761D01*
X113119047Y-77952380D01*
X113214285Y-77952380D01*
X113928571Y-77904761D02*
X113833333Y-77952380D01*
X113642857Y-77952380D01*
X113547619Y-77904761D01*
X113500000Y-77809523D01*
X113500000Y-77428571D01*
X113547619Y-77333333D01*
X113642857Y-77285714D01*
X113833333Y-77285714D01*
X113928571Y-77333333D01*
X113976190Y-77428571D01*
X113976190Y-77523809D01*
X113500000Y-77619047D01*
X114404761Y-77285714D02*
X114404761Y-78285714D01*
X114404761Y-77333333D02*
X114500000Y-77285714D01*
X114690476Y-77285714D01*
X114785714Y-77333333D01*
X114833333Y-77380952D01*
X114880952Y-77476190D01*
X114880952Y-77761904D01*
X114833333Y-77857142D01*
X114785714Y-77904761D01*
X114690476Y-77952380D01*
X114500000Y-77952380D01*
X114404761Y-77904761D01*
X101214285Y-60452380D02*
X101214285Y-61166666D01*
X101166666Y-61309523D01*
X101071428Y-61404761D01*
X100928571Y-61452380D01*
X100833333Y-61452380D01*
X102214285Y-61452380D02*
X101642857Y-61452380D01*
X101928571Y-61452380D02*
X101928571Y-60452380D01*
X101833333Y-60595238D01*
X101738095Y-60690476D01*
X101642857Y-60738095D01*
X102833333Y-60452380D02*
X102928571Y-60452380D01*
X103023809Y-60500000D01*
X103071428Y-60547619D01*
X103119047Y-60642857D01*
X103166666Y-60833333D01*
X103166666Y-61071428D01*
X103119047Y-61261904D01*
X103071428Y-61357142D01*
X103023809Y-61404761D01*
X102928571Y-61452380D01*
X102833333Y-61452380D01*
X102738095Y-61404761D01*
X102690476Y-61357142D01*
X102642857Y-61261904D01*
X102595238Y-61071428D01*
X102595238Y-60833333D01*
X102642857Y-60642857D01*
X102690476Y-60547619D01*
X102738095Y-60500000D01*
X102833333Y-60452380D01*
X103500000Y-60452380D02*
X104119047Y-60452380D01*
X103785714Y-60833333D01*
X103928571Y-60833333D01*
X104023809Y-60880952D01*
X104071428Y-60928571D01*
X104119047Y-61023809D01*
X104119047Y-61261904D01*
X104071428Y-61357142D01*
X104023809Y-61404761D01*
X103928571Y-61452380D01*
X103642857Y-61452380D01*
X103547619Y-61404761D01*
X103500000Y-61357142D01*
X176214285Y-59952380D02*
X176214285Y-60666666D01*
X176166666Y-60809523D01*
X176071428Y-60904761D01*
X175928571Y-60952380D01*
X175833333Y-60952380D01*
X177214285Y-60952380D02*
X176642857Y-60952380D01*
X176928571Y-60952380D02*
X176928571Y-59952380D01*
X176833333Y-60095238D01*
X176738095Y-60190476D01*
X176642857Y-60238095D01*
X177833333Y-59952380D02*
X177928571Y-59952380D01*
X178023809Y-60000000D01*
X178071428Y-60047619D01*
X178119047Y-60142857D01*
X178166666Y-60333333D01*
X178166666Y-60571428D01*
X178119047Y-60761904D01*
X178071428Y-60857142D01*
X178023809Y-60904761D01*
X177928571Y-60952380D01*
X177833333Y-60952380D01*
X177738095Y-60904761D01*
X177690476Y-60857142D01*
X177642857Y-60761904D01*
X177595238Y-60571428D01*
X177595238Y-60333333D01*
X177642857Y-60142857D01*
X177690476Y-60047619D01*
X177738095Y-60000000D01*
X177833333Y-59952380D01*
X179023809Y-60285714D02*
X179023809Y-60952380D01*
X178785714Y-59904761D02*
X178547619Y-60619047D01*
X179166666Y-60619047D01*
X178857142Y-70047619D02*
X178904761Y-70095238D01*
X178952380Y-70238095D01*
X178952380Y-70333333D01*
X178904761Y-70476190D01*
X178809523Y-70571428D01*
X178714285Y-70619047D01*
X178523809Y-70666666D01*
X178380952Y-70666666D01*
X178190476Y-70619047D01*
X178095238Y-70571428D01*
X178000000Y-70476190D01*
X177952380Y-70333333D01*
X177952380Y-70238095D01*
X178000000Y-70095238D01*
X178047619Y-70047619D01*
X177952380Y-69761904D02*
X178952380Y-69428571D01*
X177952380Y-69095238D01*
X178571428Y-68761904D02*
X178571428Y-68000000D01*
X178000000Y-67000000D02*
X177952380Y-67095238D01*
X177952380Y-67238095D01*
X178000000Y-67380952D01*
X178095238Y-67476190D01*
X178190476Y-67523809D01*
X178380952Y-67571428D01*
X178523809Y-67571428D01*
X178714285Y-67523809D01*
X178809523Y-67476190D01*
X178904761Y-67380952D01*
X178952380Y-67238095D01*
X178952380Y-67142857D01*
X178904761Y-67000000D01*
X178857142Y-66952380D01*
X178523809Y-66952380D01*
X178523809Y-67142857D01*
X178380952Y-66380952D02*
X178333333Y-66476190D01*
X178285714Y-66523809D01*
X178190476Y-66571428D01*
X178142857Y-66571428D01*
X178047619Y-66523809D01*
X178000000Y-66476190D01*
X177952380Y-66380952D01*
X177952380Y-66190476D01*
X178000000Y-66095238D01*
X178047619Y-66047619D01*
X178142857Y-66000000D01*
X178190476Y-66000000D01*
X178285714Y-66047619D01*
X178333333Y-66095238D01*
X178380952Y-66190476D01*
X178380952Y-66380952D01*
X178428571Y-66476190D01*
X178476190Y-66523809D01*
X178571428Y-66571428D01*
X178761904Y-66571428D01*
X178857142Y-66523809D01*
X178904761Y-66476190D01*
X178952380Y-66380952D01*
X178952380Y-66190476D01*
X178904761Y-66095238D01*
X178857142Y-66047619D01*
X178761904Y-66000000D01*
X178571428Y-66000000D01*
X178476190Y-66047619D01*
X178428571Y-66095238D01*
X178380952Y-66190476D01*
X179047619Y-65809523D02*
X179047619Y-65047619D01*
X178952380Y-64809523D02*
X177952380Y-64809523D01*
X178666666Y-64476190D01*
X177952380Y-64142857D01*
X178952380Y-64142857D01*
X178952380Y-63523809D02*
X178904761Y-63619047D01*
X178857142Y-63666666D01*
X178761904Y-63714285D01*
X178476190Y-63714285D01*
X178380952Y-63666666D01*
X178333333Y-63619047D01*
X178285714Y-63523809D01*
X178285714Y-63380952D01*
X178333333Y-63285714D01*
X178380952Y-63238095D01*
X178476190Y-63190476D01*
X178761904Y-63190476D01*
X178857142Y-63238095D01*
X178904761Y-63285714D01*
X178952380Y-63380952D01*
X178952380Y-63523809D01*
X178952380Y-62333333D02*
X177952380Y-62333333D01*
X178904761Y-62333333D02*
X178952380Y-62428571D01*
X178952380Y-62619047D01*
X178904761Y-62714285D01*
X178857142Y-62761904D01*
X178761904Y-62809523D01*
X178476190Y-62809523D01*
X178380952Y-62761904D01*
X178333333Y-62714285D01*
X178285714Y-62619047D01*
X178285714Y-62428571D01*
X178333333Y-62333333D01*
X178047619Y-61904761D02*
X178000000Y-61857142D01*
X177952380Y-61761904D01*
X177952380Y-61523809D01*
X178000000Y-61428571D01*
X178047619Y-61380952D01*
X178142857Y-61333333D01*
X178238095Y-61333333D01*
X178380952Y-61380952D01*
X178952380Y-61952380D01*
X178952380Y-61333333D01*
X149322380Y-102285714D02*
X150036666Y-102285714D01*
X150179523Y-102333333D01*
X150274761Y-102428571D01*
X150322380Y-102571428D01*
X150322380Y-102666666D01*
X150322380Y-101285714D02*
X150322380Y-101857142D01*
X150322380Y-101571428D02*
X149322380Y-101571428D01*
X149465238Y-101666666D01*
X149560476Y-101761904D01*
X149608095Y-101857142D01*
X149322380Y-100666666D02*
X149322380Y-100571428D01*
X149370000Y-100476190D01*
X149417619Y-100428571D01*
X149512857Y-100380952D01*
X149703333Y-100333333D01*
X149941428Y-100333333D01*
X150131904Y-100380952D01*
X150227142Y-100428571D01*
X150274761Y-100476190D01*
X150322380Y-100571428D01*
X150322380Y-100666666D01*
X150274761Y-100761904D01*
X150227142Y-100809523D01*
X150131904Y-100857142D01*
X149941428Y-100904761D01*
X149703333Y-100904761D01*
X149512857Y-100857142D01*
X149417619Y-100809523D01*
X149370000Y-100761904D01*
X149322380Y-100666666D01*
X149322380Y-99428571D02*
X149322380Y-99904761D01*
X149798571Y-99952380D01*
X149750952Y-99904761D01*
X149703333Y-99809523D01*
X149703333Y-99571428D01*
X149750952Y-99476190D01*
X149798571Y-99428571D01*
X149893809Y-99380952D01*
X150131904Y-99380952D01*
X150227142Y-99428571D01*
X150274761Y-99476190D01*
X150322380Y-99571428D01*
X150322380Y-99809523D01*
X150274761Y-99904761D01*
X150227142Y-99952380D01*
X142571428Y-103857142D02*
X142523809Y-103904761D01*
X142380952Y-103952380D01*
X142285714Y-103952380D01*
X142142857Y-103904761D01*
X142047619Y-103809523D01*
X142000000Y-103714285D01*
X141952380Y-103523809D01*
X141952380Y-103380952D01*
X142000000Y-103190476D01*
X142047619Y-103095238D01*
X142142857Y-103000000D01*
X142285714Y-102952380D01*
X142380952Y-102952380D01*
X142523809Y-103000000D01*
X142571428Y-103047619D01*
X143142857Y-103952380D02*
X143047619Y-103904761D01*
X143000000Y-103809523D01*
X143000000Y-102952380D01*
X143523809Y-103952380D02*
X143523809Y-102952380D01*
X143619047Y-103571428D02*
X143904761Y-103952380D01*
X143904761Y-103285714D02*
X143523809Y-103666666D01*
X144095238Y-104047619D02*
X144857142Y-104047619D01*
X145095238Y-103952380D02*
X145095238Y-102952380D01*
X145095238Y-103428571D02*
X145666666Y-103428571D01*
X145666666Y-103952380D02*
X145666666Y-102952380D01*
X146285714Y-103952380D02*
X146190476Y-103904761D01*
X146142857Y-103857142D01*
X146095238Y-103761904D01*
X146095238Y-103476190D01*
X146142857Y-103380952D01*
X146190476Y-103333333D01*
X146285714Y-103285714D01*
X146428571Y-103285714D01*
X146523809Y-103333333D01*
X146571428Y-103380952D01*
X146619047Y-103476190D01*
X146619047Y-103761904D01*
X146571428Y-103857142D01*
X146523809Y-103904761D01*
X146428571Y-103952380D01*
X146285714Y-103952380D01*
X147190476Y-103952380D02*
X147095238Y-103904761D01*
X147047619Y-103809523D01*
X147047619Y-102952380D01*
X148000000Y-103952380D02*
X148000000Y-102952380D01*
X148000000Y-103904761D02*
X147904761Y-103952380D01*
X147714285Y-103952380D01*
X147619047Y-103904761D01*
X147571428Y-103857142D01*
X147523809Y-103761904D01*
X147523809Y-103476190D01*
X147571428Y-103380952D01*
X147619047Y-103333333D01*
X147714285Y-103285714D01*
X147904761Y-103285714D01*
X148000000Y-103333333D01*
X167782380Y-102285714D02*
X168496666Y-102285714D01*
X168639523Y-102333333D01*
X168734761Y-102428571D01*
X168782380Y-102571428D01*
X168782380Y-102666666D01*
X168782380Y-101285714D02*
X168782380Y-101857142D01*
X168782380Y-101571428D02*
X167782380Y-101571428D01*
X167925238Y-101666666D01*
X168020476Y-101761904D01*
X168068095Y-101857142D01*
X167782380Y-100666666D02*
X167782380Y-100571428D01*
X167830000Y-100476190D01*
X167877619Y-100428571D01*
X167972857Y-100380952D01*
X168163333Y-100333333D01*
X168401428Y-100333333D01*
X168591904Y-100380952D01*
X168687142Y-100428571D01*
X168734761Y-100476190D01*
X168782380Y-100571428D01*
X168782380Y-100666666D01*
X168734761Y-100761904D01*
X168687142Y-100809523D01*
X168591904Y-100857142D01*
X168401428Y-100904761D01*
X168163333Y-100904761D01*
X167972857Y-100857142D01*
X167877619Y-100809523D01*
X167830000Y-100761904D01*
X167782380Y-100666666D01*
X167782380Y-99476190D02*
X167782380Y-99666666D01*
X167830000Y-99761904D01*
X167877619Y-99809523D01*
X168020476Y-99904761D01*
X168210952Y-99952380D01*
X168591904Y-99952380D01*
X168687142Y-99904761D01*
X168734761Y-99857142D01*
X168782380Y-99761904D01*
X168782380Y-99571428D01*
X168734761Y-99476190D01*
X168687142Y-99428571D01*
X168591904Y-99380952D01*
X168353809Y-99380952D01*
X168258571Y-99428571D01*
X168210952Y-99476190D01*
X168163333Y-99571428D01*
X168163333Y-99761904D01*
X168210952Y-99857142D01*
X168258571Y-99904761D01*
X168353809Y-99952380D01*
X162904761Y-103000000D02*
X162809523Y-102952380D01*
X162666666Y-102952380D01*
X162523809Y-103000000D01*
X162428571Y-103095238D01*
X162380952Y-103190476D01*
X162333333Y-103380952D01*
X162333333Y-103523809D01*
X162380952Y-103714285D01*
X162428571Y-103809523D01*
X162523809Y-103904761D01*
X162666666Y-103952380D01*
X162761904Y-103952380D01*
X162904761Y-103904761D01*
X162952380Y-103857142D01*
X162952380Y-103523809D01*
X162761904Y-103523809D01*
X163523809Y-103380952D02*
X163428571Y-103333333D01*
X163380952Y-103285714D01*
X163333333Y-103190476D01*
X163333333Y-103142857D01*
X163380952Y-103047619D01*
X163428571Y-103000000D01*
X163523809Y-102952380D01*
X163714285Y-102952380D01*
X163809523Y-103000000D01*
X163857142Y-103047619D01*
X163904761Y-103142857D01*
X163904761Y-103190476D01*
X163857142Y-103285714D01*
X163809523Y-103333333D01*
X163714285Y-103380952D01*
X163523809Y-103380952D01*
X163428571Y-103428571D01*
X163380952Y-103476190D01*
X163333333Y-103571428D01*
X163333333Y-103761904D01*
X163380952Y-103857142D01*
X163428571Y-103904761D01*
X163523809Y-103952380D01*
X163714285Y-103952380D01*
X163809523Y-103904761D01*
X163857142Y-103857142D01*
X163904761Y-103761904D01*
X163904761Y-103571428D01*
X163857142Y-103476190D01*
X163809523Y-103428571D01*
X163714285Y-103380952D01*
X164333333Y-103571428D02*
X165095238Y-103571428D01*
X165761904Y-102952380D02*
X165952380Y-102952380D01*
X166047619Y-103000000D01*
X166142857Y-103095238D01*
X166190476Y-103285714D01*
X166190476Y-103619047D01*
X166142857Y-103809523D01*
X166047619Y-103904761D01*
X165952380Y-103952380D01*
X165761904Y-103952380D01*
X165666666Y-103904761D01*
X165571428Y-103809523D01*
X165523809Y-103619047D01*
X165523809Y-103285714D01*
X165571428Y-103095238D01*
X165666666Y-103000000D01*
X165761904Y-102952380D01*
X167047619Y-103285714D02*
X167047619Y-103952380D01*
X166619047Y-103285714D02*
X166619047Y-103809523D01*
X166666666Y-103904761D01*
X166761904Y-103952380D01*
X166904761Y-103952380D01*
X167000000Y-103904761D01*
X167047619Y-103857142D01*
X167380952Y-103285714D02*
X167761904Y-103285714D01*
X167523809Y-102952380D02*
X167523809Y-103809523D01*
X167571428Y-103904761D01*
X167666666Y-103952380D01*
X167761904Y-103952380D01*
X100702380Y-105785714D02*
X101416666Y-105785714D01*
X101559523Y-105833333D01*
X101654761Y-105928571D01*
X101702380Y-106071428D01*
X101702380Y-106166666D01*
X101702380Y-104785714D02*
X101702380Y-105357142D01*
X101702380Y-105071428D02*
X100702380Y-105071428D01*
X100845238Y-105166666D01*
X100940476Y-105261904D01*
X100988095Y-105357142D01*
X100702380Y-104166666D02*
X100702380Y-104071428D01*
X100750000Y-103976190D01*
X100797619Y-103928571D01*
X100892857Y-103880952D01*
X101083333Y-103833333D01*
X101321428Y-103833333D01*
X101511904Y-103880952D01*
X101607142Y-103928571D01*
X101654761Y-103976190D01*
X101702380Y-104071428D01*
X101702380Y-104166666D01*
X101654761Y-104261904D01*
X101607142Y-104309523D01*
X101511904Y-104357142D01*
X101321428Y-104404761D01*
X101083333Y-104404761D01*
X100892857Y-104357142D01*
X100797619Y-104309523D01*
X100750000Y-104261904D01*
X100702380Y-104166666D01*
X100702380Y-103500000D02*
X100702380Y-102833333D01*
X101702380Y-103261904D01*
X102785714Y-104452380D02*
X102452380Y-103976190D01*
X102214285Y-104452380D02*
X102214285Y-103452380D01*
X102595238Y-103452380D01*
X102690476Y-103500000D01*
X102738095Y-103547619D01*
X102785714Y-103642857D01*
X102785714Y-103785714D01*
X102738095Y-103880952D01*
X102690476Y-103928571D01*
X102595238Y-103976190D01*
X102214285Y-103976190D01*
X103595238Y-104404761D02*
X103500000Y-104452380D01*
X103309523Y-104452380D01*
X103214285Y-104404761D01*
X103166666Y-104309523D01*
X103166666Y-103928571D01*
X103214285Y-103833333D01*
X103309523Y-103785714D01*
X103500000Y-103785714D01*
X103595238Y-103833333D01*
X103642857Y-103928571D01*
X103642857Y-104023809D01*
X103166666Y-104119047D01*
X104023809Y-104404761D02*
X104119047Y-104452380D01*
X104309523Y-104452380D01*
X104404761Y-104404761D01*
X104452380Y-104309523D01*
X104452380Y-104261904D01*
X104404761Y-104166666D01*
X104309523Y-104119047D01*
X104166666Y-104119047D01*
X104071428Y-104071428D01*
X104023809Y-103976190D01*
X104023809Y-103928571D01*
X104071428Y-103833333D01*
X104166666Y-103785714D01*
X104309523Y-103785714D01*
X104404761Y-103833333D01*
X105261904Y-104404761D02*
X105166666Y-104452380D01*
X104976190Y-104452380D01*
X104880952Y-104404761D01*
X104833333Y-104309523D01*
X104833333Y-103928571D01*
X104880952Y-103833333D01*
X104976190Y-103785714D01*
X105166666Y-103785714D01*
X105261904Y-103833333D01*
X105309523Y-103928571D01*
X105309523Y-104023809D01*
X104833333Y-104119047D01*
X105595238Y-103785714D02*
X105976190Y-103785714D01*
X105738095Y-103452380D02*
X105738095Y-104309523D01*
X105785714Y-104404761D01*
X105880952Y-104452380D01*
X105976190Y-104452380D01*
X107071428Y-104071428D02*
X107833333Y-104071428D01*
X107452380Y-104452380D02*
X107452380Y-103690476D01*
X109023809Y-104404761D02*
X109166666Y-104452380D01*
X109404761Y-104452380D01*
X109500000Y-104404761D01*
X109547619Y-104357142D01*
X109595238Y-104261904D01*
X109595238Y-104166666D01*
X109547619Y-104071428D01*
X109500000Y-104023809D01*
X109404761Y-103976190D01*
X109214285Y-103928571D01*
X109119047Y-103880952D01*
X109071428Y-103833333D01*
X109023809Y-103738095D01*
X109023809Y-103642857D01*
X109071428Y-103547619D01*
X109119047Y-103500000D01*
X109214285Y-103452380D01*
X109452380Y-103452380D01*
X109595238Y-103500000D01*
X109880952Y-103785714D02*
X110261904Y-103785714D01*
X110023809Y-103452380D02*
X110023809Y-104309523D01*
X110071428Y-104404761D01*
X110166666Y-104452380D01*
X110261904Y-104452380D01*
X110976190Y-104404761D02*
X110880952Y-104452380D01*
X110690476Y-104452380D01*
X110595238Y-104404761D01*
X110547619Y-104309523D01*
X110547619Y-103928571D01*
X110595238Y-103833333D01*
X110690476Y-103785714D01*
X110880952Y-103785714D01*
X110976190Y-103833333D01*
X111023809Y-103928571D01*
X111023809Y-104023809D01*
X110547619Y-104119047D01*
X111452380Y-103785714D02*
X111452380Y-104785714D01*
X111452380Y-103833333D02*
X111547619Y-103785714D01*
X111738095Y-103785714D01*
X111833333Y-103833333D01*
X111880952Y-103880952D01*
X111928571Y-103976190D01*
X111928571Y-104261904D01*
X111880952Y-104357142D01*
X111833333Y-104404761D01*
X111738095Y-104452380D01*
X111547619Y-104452380D01*
X111452380Y-104404761D01*
X113642857Y-104452380D02*
X113071428Y-104452380D01*
X113357142Y-104452380D02*
X113357142Y-103452380D01*
X113261904Y-103595238D01*
X113166666Y-103690476D01*
X113071428Y-103738095D01*
X114071428Y-104071428D02*
X114833333Y-104071428D01*
X115738095Y-103785714D02*
X115738095Y-104452380D01*
X115500000Y-103404761D02*
X115261904Y-104119047D01*
X115880952Y-104119047D01*
X138282380Y-102285714D02*
X138996666Y-102285714D01*
X139139523Y-102333333D01*
X139234761Y-102428571D01*
X139282380Y-102571428D01*
X139282380Y-102666666D01*
X139282380Y-101285714D02*
X139282380Y-101857142D01*
X139282380Y-101571428D02*
X138282380Y-101571428D01*
X138425238Y-101666666D01*
X138520476Y-101761904D01*
X138568095Y-101857142D01*
X138282380Y-100666666D02*
X138282380Y-100571428D01*
X138330000Y-100476190D01*
X138377619Y-100428571D01*
X138472857Y-100380952D01*
X138663333Y-100333333D01*
X138901428Y-100333333D01*
X139091904Y-100380952D01*
X139187142Y-100428571D01*
X139234761Y-100476190D01*
X139282380Y-100571428D01*
X139282380Y-100666666D01*
X139234761Y-100761904D01*
X139187142Y-100809523D01*
X139091904Y-100857142D01*
X138901428Y-100904761D01*
X138663333Y-100904761D01*
X138472857Y-100857142D01*
X138377619Y-100809523D01*
X138330000Y-100761904D01*
X138282380Y-100666666D01*
X138710952Y-99761904D02*
X138663333Y-99857142D01*
X138615714Y-99904761D01*
X138520476Y-99952380D01*
X138472857Y-99952380D01*
X138377619Y-99904761D01*
X138330000Y-99857142D01*
X138282380Y-99761904D01*
X138282380Y-99571428D01*
X138330000Y-99476190D01*
X138377619Y-99428571D01*
X138472857Y-99380952D01*
X138520476Y-99380952D01*
X138615714Y-99428571D01*
X138663333Y-99476190D01*
X138710952Y-99571428D01*
X138710952Y-99761904D01*
X138758571Y-99857142D01*
X138806190Y-99904761D01*
X138901428Y-99952380D01*
X139091904Y-99952380D01*
X139187142Y-99904761D01*
X139234761Y-99857142D01*
X139282380Y-99761904D01*
X139282380Y-99571428D01*
X139234761Y-99476190D01*
X139187142Y-99428571D01*
X139091904Y-99380952D01*
X138901428Y-99380952D01*
X138806190Y-99428571D01*
X138758571Y-99476190D01*
X138710952Y-99571428D01*
X123785714Y-103952380D02*
X123452380Y-103476190D01*
X123214285Y-103952380D02*
X123214285Y-102952380D01*
X123595238Y-102952380D01*
X123690476Y-103000000D01*
X123738095Y-103047619D01*
X123785714Y-103142857D01*
X123785714Y-103285714D01*
X123738095Y-103380952D01*
X123690476Y-103428571D01*
X123595238Y-103476190D01*
X123214285Y-103476190D01*
X124595238Y-103904761D02*
X124500000Y-103952380D01*
X124309523Y-103952380D01*
X124214285Y-103904761D01*
X124166666Y-103809523D01*
X124166666Y-103428571D01*
X124214285Y-103333333D01*
X124309523Y-103285714D01*
X124500000Y-103285714D01*
X124595238Y-103333333D01*
X124642857Y-103428571D01*
X124642857Y-103523809D01*
X124166666Y-103619047D01*
X125023809Y-103904761D02*
X125119047Y-103952380D01*
X125309523Y-103952380D01*
X125404761Y-103904761D01*
X125452380Y-103809523D01*
X125452380Y-103761904D01*
X125404761Y-103666666D01*
X125309523Y-103619047D01*
X125166666Y-103619047D01*
X125071428Y-103571428D01*
X125023809Y-103476190D01*
X125023809Y-103428571D01*
X125071428Y-103333333D01*
X125166666Y-103285714D01*
X125309523Y-103285714D01*
X125404761Y-103333333D01*
X126261904Y-103904761D02*
X126166666Y-103952380D01*
X125976190Y-103952380D01*
X125880952Y-103904761D01*
X125833333Y-103809523D01*
X125833333Y-103428571D01*
X125880952Y-103333333D01*
X125976190Y-103285714D01*
X126166666Y-103285714D01*
X126261904Y-103333333D01*
X126309523Y-103428571D01*
X126309523Y-103523809D01*
X125833333Y-103619047D01*
X126595238Y-103285714D02*
X126976190Y-103285714D01*
X126738095Y-102952380D02*
X126738095Y-103809523D01*
X126785714Y-103904761D01*
X126880952Y-103952380D01*
X126976190Y-103952380D01*
X128071428Y-103571428D02*
X128833333Y-103571428D01*
X128452380Y-103952380D02*
X128452380Y-103190476D01*
X130023809Y-103904761D02*
X130166666Y-103952380D01*
X130404761Y-103952380D01*
X130500000Y-103904761D01*
X130547619Y-103857142D01*
X130595238Y-103761904D01*
X130595238Y-103666666D01*
X130547619Y-103571428D01*
X130500000Y-103523809D01*
X130404761Y-103476190D01*
X130214285Y-103428571D01*
X130119047Y-103380952D01*
X130071428Y-103333333D01*
X130023809Y-103238095D01*
X130023809Y-103142857D01*
X130071428Y-103047619D01*
X130119047Y-103000000D01*
X130214285Y-102952380D01*
X130452380Y-102952380D01*
X130595238Y-103000000D01*
X130880952Y-103285714D02*
X131261904Y-103285714D01*
X131023809Y-102952380D02*
X131023809Y-103809523D01*
X131071428Y-103904761D01*
X131166666Y-103952380D01*
X131261904Y-103952380D01*
X131976190Y-103904761D02*
X131880952Y-103952380D01*
X131690476Y-103952380D01*
X131595238Y-103904761D01*
X131547619Y-103809523D01*
X131547619Y-103428571D01*
X131595238Y-103333333D01*
X131690476Y-103285714D01*
X131880952Y-103285714D01*
X131976190Y-103333333D01*
X132023809Y-103428571D01*
X132023809Y-103523809D01*
X131547619Y-103619047D01*
X132452380Y-103285714D02*
X132452380Y-104285714D01*
X132452380Y-103333333D02*
X132547619Y-103285714D01*
X132738095Y-103285714D01*
X132833333Y-103333333D01*
X132880952Y-103380952D01*
X132928571Y-103476190D01*
X132928571Y-103761904D01*
X132880952Y-103857142D01*
X132833333Y-103904761D01*
X132738095Y-103952380D01*
X132547619Y-103952380D01*
X132452380Y-103904761D01*
X134595238Y-102952380D02*
X134119047Y-102952380D01*
X134071428Y-103428571D01*
X134119047Y-103380952D01*
X134214285Y-103333333D01*
X134452380Y-103333333D01*
X134547619Y-103380952D01*
X134595238Y-103428571D01*
X134642857Y-103523809D01*
X134642857Y-103761904D01*
X134595238Y-103857142D01*
X134547619Y-103904761D01*
X134452380Y-103952380D01*
X134214285Y-103952380D01*
X134119047Y-103904761D01*
X134071428Y-103857142D01*
X135071428Y-103571428D02*
X135833333Y-103571428D01*
X136452380Y-103380952D02*
X136357142Y-103333333D01*
X136309523Y-103285714D01*
X136261904Y-103190476D01*
X136261904Y-103142857D01*
X136309523Y-103047619D01*
X136357142Y-103000000D01*
X136452380Y-102952380D01*
X136642857Y-102952380D01*
X136738095Y-103000000D01*
X136785714Y-103047619D01*
X136833333Y-103142857D01*
X136833333Y-103190476D01*
X136785714Y-103285714D01*
X136738095Y-103333333D01*
X136642857Y-103380952D01*
X136452380Y-103380952D01*
X136357142Y-103428571D01*
X136309523Y-103476190D01*
X136261904Y-103571428D01*
X136261904Y-103761904D01*
X136309523Y-103857142D01*
X136357142Y-103904761D01*
X136452380Y-103952380D01*
X136642857Y-103952380D01*
X136738095Y-103904761D01*
X136785714Y-103857142D01*
X136833333Y-103761904D01*
X136833333Y-103571428D01*
X136785714Y-103476190D01*
X136738095Y-103428571D01*
X136642857Y-103380952D01*
X172289523Y-122056380D02*
X172289523Y-121056380D01*
X172670476Y-121056380D01*
X172765714Y-121104000D01*
X172813333Y-121151619D01*
X172860952Y-121246857D01*
X172860952Y-121389714D01*
X172813333Y-121484952D01*
X172765714Y-121532571D01*
X172670476Y-121580190D01*
X172289523Y-121580190D01*
X173241904Y-121151619D02*
X173289523Y-121104000D01*
X173384761Y-121056380D01*
X173622857Y-121056380D01*
X173718095Y-121104000D01*
X173765714Y-121151619D01*
X173813333Y-121246857D01*
X173813333Y-121342095D01*
X173765714Y-121484952D01*
X173194285Y-122056380D01*
X173813333Y-122056380D01*
X174432380Y-121056380D02*
X174527619Y-121056380D01*
X174622857Y-121104000D01*
X174670476Y-121151619D01*
X174718095Y-121246857D01*
X174765714Y-121437333D01*
X174765714Y-121675428D01*
X174718095Y-121865904D01*
X174670476Y-121961142D01*
X174622857Y-122008761D01*
X174527619Y-122056380D01*
X174432380Y-122056380D01*
X174337142Y-122008761D01*
X174289523Y-121961142D01*
X174241904Y-121865904D01*
X174194285Y-121675428D01*
X174194285Y-121437333D01*
X174241904Y-121246857D01*
X174289523Y-121151619D01*
X174337142Y-121104000D01*
X174432380Y-121056380D01*
X175718095Y-122056380D02*
X175146666Y-122056380D01*
X175432380Y-122056380D02*
X175432380Y-121056380D01*
X175337142Y-121199238D01*
X175241904Y-121294476D01*
X175146666Y-121342095D01*
X152202380Y-107619047D02*
X151726190Y-107952380D01*
X152202380Y-108190476D02*
X151202380Y-108190476D01*
X151202380Y-107809523D01*
X151250000Y-107714285D01*
X151297619Y-107666666D01*
X151392857Y-107619047D01*
X151535714Y-107619047D01*
X151630952Y-107666666D01*
X151678571Y-107714285D01*
X151726190Y-107809523D01*
X151726190Y-108190476D01*
X152202380Y-106666666D02*
X152202380Y-107238095D01*
X152202380Y-106952380D02*
X151202380Y-106952380D01*
X151345238Y-107047619D01*
X151440476Y-107142857D01*
X151488095Y-107238095D01*
X151202380Y-106047619D02*
X151202380Y-105952380D01*
X151250000Y-105857142D01*
X151297619Y-105809523D01*
X151392857Y-105761904D01*
X151583333Y-105714285D01*
X151821428Y-105714285D01*
X152011904Y-105761904D01*
X152107142Y-105809523D01*
X152154761Y-105857142D01*
X152202380Y-105952380D01*
X152202380Y-106047619D01*
X152154761Y-106142857D01*
X152107142Y-106190476D01*
X152011904Y-106238095D01*
X151821428Y-106285714D01*
X151583333Y-106285714D01*
X151392857Y-106238095D01*
X151297619Y-106190476D01*
X151250000Y-106142857D01*
X151202380Y-106047619D01*
X152202380Y-104761904D02*
X152202380Y-105333333D01*
X152202380Y-105047619D02*
X151202380Y-105047619D01*
X151345238Y-105142857D01*
X151440476Y-105238095D01*
X151488095Y-105333333D01*
X150861904Y-107357142D02*
X150861904Y-107814285D01*
X150861904Y-107585714D02*
X150061904Y-107585714D01*
X150176190Y-107661904D01*
X150252380Y-107738095D01*
X150290476Y-107814285D01*
X150061904Y-106861904D02*
X150061904Y-106785714D01*
X150100000Y-106709523D01*
X150138095Y-106671428D01*
X150214285Y-106633333D01*
X150366666Y-106595238D01*
X150557142Y-106595238D01*
X150709523Y-106633333D01*
X150785714Y-106671428D01*
X150823809Y-106709523D01*
X150861904Y-106785714D01*
X150861904Y-106861904D01*
X150823809Y-106938095D01*
X150785714Y-106976190D01*
X150709523Y-107014285D01*
X150557142Y-107052380D01*
X150366666Y-107052380D01*
X150214285Y-107014285D01*
X150138095Y-106976190D01*
X150100000Y-106938095D01*
X150061904Y-106861904D01*
X150061904Y-106100000D02*
X150061904Y-106023809D01*
X150100000Y-105947619D01*
X150138095Y-105909523D01*
X150214285Y-105871428D01*
X150366666Y-105833333D01*
X150557142Y-105833333D01*
X150709523Y-105871428D01*
X150785714Y-105909523D01*
X150823809Y-105947619D01*
X150861904Y-106023809D01*
X150861904Y-106100000D01*
X150823809Y-106176190D01*
X150785714Y-106214285D01*
X150709523Y-106252380D01*
X150557142Y-106290476D01*
X150366666Y-106290476D01*
X150214285Y-106252380D01*
X150138095Y-106214285D01*
X150100000Y-106176190D01*
X150061904Y-106100000D01*
X150861904Y-105490476D02*
X150061904Y-105490476D01*
X150557142Y-105414285D02*
X150861904Y-105185714D01*
X150328571Y-105185714D02*
X150633333Y-105490476D01*
X151952380Y-112619047D02*
X151476190Y-112952380D01*
X151952380Y-113190476D02*
X150952380Y-113190476D01*
X150952380Y-112809523D01*
X151000000Y-112714285D01*
X151047619Y-112666666D01*
X151142857Y-112619047D01*
X151285714Y-112619047D01*
X151380952Y-112666666D01*
X151428571Y-112714285D01*
X151476190Y-112809523D01*
X151476190Y-113190476D01*
X151952380Y-111666666D02*
X151952380Y-112238095D01*
X151952380Y-111952380D02*
X150952380Y-111952380D01*
X151095238Y-112047619D01*
X151190476Y-112142857D01*
X151238095Y-112238095D01*
X150952380Y-111047619D02*
X150952380Y-110952380D01*
X151000000Y-110857142D01*
X151047619Y-110809523D01*
X151142857Y-110761904D01*
X151333333Y-110714285D01*
X151571428Y-110714285D01*
X151761904Y-110761904D01*
X151857142Y-110809523D01*
X151904761Y-110857142D01*
X151952380Y-110952380D01*
X151952380Y-111047619D01*
X151904761Y-111142857D01*
X151857142Y-111190476D01*
X151761904Y-111238095D01*
X151571428Y-111285714D01*
X151333333Y-111285714D01*
X151142857Y-111238095D01*
X151047619Y-111190476D01*
X151000000Y-111142857D01*
X150952380Y-111047619D01*
X151047619Y-110333333D02*
X151000000Y-110285714D01*
X150952380Y-110190476D01*
X150952380Y-109952380D01*
X151000000Y-109857142D01*
X151047619Y-109809523D01*
X151142857Y-109761904D01*
X151238095Y-109761904D01*
X151380952Y-109809523D01*
X151952380Y-110380952D01*
X151952380Y-109761904D01*
X155285714Y-112190476D02*
X155952380Y-112190476D01*
X154904761Y-112428571D02*
X155619047Y-112666666D01*
X155619047Y-112047619D01*
X154952380Y-111761904D02*
X154952380Y-111095238D01*
X155952380Y-111523809D01*
X155952380Y-110714285D02*
X154952380Y-110714285D01*
X155571428Y-110619047D02*
X155952380Y-110333333D01*
X155285714Y-110333333D02*
X155666666Y-110714285D01*
X157952380Y-107619047D02*
X157476190Y-107952380D01*
X157952380Y-108190476D02*
X156952380Y-108190476D01*
X156952380Y-107809523D01*
X157000000Y-107714285D01*
X157047619Y-107666666D01*
X157142857Y-107619047D01*
X157285714Y-107619047D01*
X157380952Y-107666666D01*
X157428571Y-107714285D01*
X157476190Y-107809523D01*
X157476190Y-108190476D01*
X157952380Y-106666666D02*
X157952380Y-107238095D01*
X157952380Y-106952380D02*
X156952380Y-106952380D01*
X157095238Y-107047619D01*
X157190476Y-107142857D01*
X157238095Y-107238095D01*
X156952380Y-106047619D02*
X156952380Y-105952380D01*
X157000000Y-105857142D01*
X157047619Y-105809523D01*
X157142857Y-105761904D01*
X157333333Y-105714285D01*
X157571428Y-105714285D01*
X157761904Y-105761904D01*
X157857142Y-105809523D01*
X157904761Y-105857142D01*
X157952380Y-105952380D01*
X157952380Y-106047619D01*
X157904761Y-106142857D01*
X157857142Y-106190476D01*
X157761904Y-106238095D01*
X157571428Y-106285714D01*
X157333333Y-106285714D01*
X157142857Y-106238095D01*
X157047619Y-106190476D01*
X157000000Y-106142857D01*
X156952380Y-106047619D01*
X156952380Y-105380952D02*
X156952380Y-104761904D01*
X157333333Y-105095238D01*
X157333333Y-104952380D01*
X157380952Y-104857142D01*
X157428571Y-104809523D01*
X157523809Y-104761904D01*
X157761904Y-104761904D01*
X157857142Y-104809523D01*
X157904761Y-104857142D01*
X157952380Y-104952380D01*
X157952380Y-105238095D01*
X157904761Y-105333333D01*
X157857142Y-105380952D01*
X159361904Y-105595238D02*
X159361904Y-106052380D01*
X159361904Y-105823809D02*
X158561904Y-105823809D01*
X158676190Y-105900000D01*
X158752380Y-105976190D01*
X158790476Y-106052380D01*
X159361904Y-105252380D02*
X158561904Y-105252380D01*
X159057142Y-105176190D02*
X159361904Y-104947619D01*
X158828571Y-104947619D02*
X159133333Y-105252380D01*
X151952380Y-116594047D02*
X151476190Y-116927380D01*
X151952380Y-117165476D02*
X150952380Y-117165476D01*
X150952380Y-116784523D01*
X151000000Y-116689285D01*
X151047619Y-116641666D01*
X151142857Y-116594047D01*
X151285714Y-116594047D01*
X151380952Y-116641666D01*
X151428571Y-116689285D01*
X151476190Y-116784523D01*
X151476190Y-117165476D01*
X151952380Y-115641666D02*
X151952380Y-116213095D01*
X151952380Y-115927380D02*
X150952380Y-115927380D01*
X151095238Y-116022619D01*
X151190476Y-116117857D01*
X151238095Y-116213095D01*
X150952380Y-115022619D02*
X150952380Y-114927380D01*
X151000000Y-114832142D01*
X151047619Y-114784523D01*
X151142857Y-114736904D01*
X151333333Y-114689285D01*
X151571428Y-114689285D01*
X151761904Y-114736904D01*
X151857142Y-114784523D01*
X151904761Y-114832142D01*
X151952380Y-114927380D01*
X151952380Y-115022619D01*
X151904761Y-115117857D01*
X151857142Y-115165476D01*
X151761904Y-115213095D01*
X151571428Y-115260714D01*
X151333333Y-115260714D01*
X151142857Y-115213095D01*
X151047619Y-115165476D01*
X151000000Y-115117857D01*
X150952380Y-115022619D01*
X151285714Y-113832142D02*
X151952380Y-113832142D01*
X150904761Y-114070238D02*
X151619047Y-114308333D01*
X151619047Y-113689285D01*
X155602380Y-116546428D02*
X155602380Y-117117857D01*
X155602380Y-116832142D02*
X154602380Y-116832142D01*
X154745238Y-116927380D01*
X154840476Y-117022619D01*
X154888095Y-117117857D01*
X154602380Y-115927380D02*
X154602380Y-115832142D01*
X154650000Y-115736904D01*
X154697619Y-115689285D01*
X154792857Y-115641666D01*
X154983333Y-115594047D01*
X155221428Y-115594047D01*
X155411904Y-115641666D01*
X155507142Y-115689285D01*
X155554761Y-115736904D01*
X155602380Y-115832142D01*
X155602380Y-115927380D01*
X155554761Y-116022619D01*
X155507142Y-116070238D01*
X155411904Y-116117857D01*
X155221428Y-116165476D01*
X154983333Y-116165476D01*
X154792857Y-116117857D01*
X154697619Y-116070238D01*
X154650000Y-116022619D01*
X154602380Y-115927380D01*
X154602380Y-114975000D02*
X154602380Y-114879761D01*
X154650000Y-114784523D01*
X154697619Y-114736904D01*
X154792857Y-114689285D01*
X154983333Y-114641666D01*
X155221428Y-114641666D01*
X155411904Y-114689285D01*
X155507142Y-114736904D01*
X155554761Y-114784523D01*
X155602380Y-114879761D01*
X155602380Y-114975000D01*
X155554761Y-115070238D01*
X155507142Y-115117857D01*
X155411904Y-115165476D01*
X155221428Y-115213095D01*
X154983333Y-115213095D01*
X154792857Y-115165476D01*
X154697619Y-115117857D01*
X154650000Y-115070238D01*
X154602380Y-114975000D01*
X155602380Y-114213095D02*
X154602380Y-114213095D01*
X155221428Y-114117857D02*
X155602380Y-113832142D01*
X154935714Y-113832142D02*
X155316666Y-114213095D01*
X167361904Y-116395238D02*
X166980952Y-116661904D01*
X167361904Y-116852380D02*
X166561904Y-116852380D01*
X166561904Y-116547619D01*
X166600000Y-116471428D01*
X166638095Y-116433333D01*
X166714285Y-116395238D01*
X166828571Y-116395238D01*
X166904761Y-116433333D01*
X166942857Y-116471428D01*
X166980952Y-116547619D01*
X166980952Y-116852380D01*
X167361904Y-115633333D02*
X167361904Y-116090476D01*
X167361904Y-115861904D02*
X166561904Y-115861904D01*
X166676190Y-115938095D01*
X166752380Y-116014285D01*
X166790476Y-116090476D01*
X166561904Y-115138095D02*
X166561904Y-115061904D01*
X166600000Y-114985714D01*
X166638095Y-114947619D01*
X166714285Y-114909523D01*
X166866666Y-114871428D01*
X167057142Y-114871428D01*
X167209523Y-114909523D01*
X167285714Y-114947619D01*
X167323809Y-114985714D01*
X167361904Y-115061904D01*
X167361904Y-115138095D01*
X167323809Y-115214285D01*
X167285714Y-115252380D01*
X167209523Y-115290476D01*
X167057142Y-115328571D01*
X166866666Y-115328571D01*
X166714285Y-115290476D01*
X166638095Y-115252380D01*
X166600000Y-115214285D01*
X166561904Y-115138095D01*
X166561904Y-114147619D02*
X166561904Y-114528571D01*
X166942857Y-114566666D01*
X166904761Y-114528571D01*
X166866666Y-114452380D01*
X166866666Y-114261904D01*
X166904761Y-114185714D01*
X166942857Y-114147619D01*
X167019047Y-114109523D01*
X167209523Y-114109523D01*
X167285714Y-114147619D01*
X167323809Y-114185714D01*
X167361904Y-114261904D01*
X167361904Y-114452380D01*
X167323809Y-114528571D01*
X167285714Y-114566666D01*
X170611904Y-116357142D02*
X170611904Y-116814285D01*
X170611904Y-116585714D02*
X169811904Y-116585714D01*
X169926190Y-116661904D01*
X170002380Y-116738095D01*
X170040476Y-116814285D01*
X169811904Y-115861904D02*
X169811904Y-115785714D01*
X169850000Y-115709523D01*
X169888095Y-115671428D01*
X169964285Y-115633333D01*
X170116666Y-115595238D01*
X170307142Y-115595238D01*
X170459523Y-115633333D01*
X170535714Y-115671428D01*
X170573809Y-115709523D01*
X170611904Y-115785714D01*
X170611904Y-115861904D01*
X170573809Y-115938095D01*
X170535714Y-115976190D01*
X170459523Y-116014285D01*
X170307142Y-116052380D01*
X170116666Y-116052380D01*
X169964285Y-116014285D01*
X169888095Y-115976190D01*
X169850000Y-115938095D01*
X169811904Y-115861904D01*
X169811904Y-115100000D02*
X169811904Y-115023809D01*
X169850000Y-114947619D01*
X169888095Y-114909523D01*
X169964285Y-114871428D01*
X170116666Y-114833333D01*
X170307142Y-114833333D01*
X170459523Y-114871428D01*
X170535714Y-114909523D01*
X170573809Y-114947619D01*
X170611904Y-115023809D01*
X170611904Y-115100000D01*
X170573809Y-115176190D01*
X170535714Y-115214285D01*
X170459523Y-115252380D01*
X170307142Y-115290476D01*
X170116666Y-115290476D01*
X169964285Y-115252380D01*
X169888095Y-115214285D01*
X169850000Y-115176190D01*
X169811904Y-115100000D01*
X170611904Y-114490476D02*
X169811904Y-114490476D01*
X170307142Y-114414285D02*
X170611904Y-114185714D01*
X170078571Y-114185714D02*
X170383333Y-114490476D01*
X167361904Y-112395238D02*
X166980952Y-112661904D01*
X167361904Y-112852380D02*
X166561904Y-112852380D01*
X166561904Y-112547619D01*
X166600000Y-112471428D01*
X166638095Y-112433333D01*
X166714285Y-112395238D01*
X166828571Y-112395238D01*
X166904761Y-112433333D01*
X166942857Y-112471428D01*
X166980952Y-112547619D01*
X166980952Y-112852380D01*
X167361904Y-111633333D02*
X167361904Y-112090476D01*
X167361904Y-111861904D02*
X166561904Y-111861904D01*
X166676190Y-111938095D01*
X166752380Y-112014285D01*
X166790476Y-112090476D01*
X166561904Y-111138095D02*
X166561904Y-111061904D01*
X166600000Y-110985714D01*
X166638095Y-110947619D01*
X166714285Y-110909523D01*
X166866666Y-110871428D01*
X167057142Y-110871428D01*
X167209523Y-110909523D01*
X167285714Y-110947619D01*
X167323809Y-110985714D01*
X167361904Y-111061904D01*
X167361904Y-111138095D01*
X167323809Y-111214285D01*
X167285714Y-111252380D01*
X167209523Y-111290476D01*
X167057142Y-111328571D01*
X166866666Y-111328571D01*
X166714285Y-111290476D01*
X166638095Y-111252380D01*
X166600000Y-111214285D01*
X166561904Y-111138095D01*
X166561904Y-110185714D02*
X166561904Y-110338095D01*
X166600000Y-110414285D01*
X166638095Y-110452380D01*
X166752380Y-110528571D01*
X166904761Y-110566666D01*
X167209523Y-110566666D01*
X167285714Y-110528571D01*
X167323809Y-110490476D01*
X167361904Y-110414285D01*
X167361904Y-110261904D01*
X167323809Y-110185714D01*
X167285714Y-110147619D01*
X167209523Y-110109523D01*
X167019047Y-110109523D01*
X166942857Y-110147619D01*
X166904761Y-110185714D01*
X166866666Y-110261904D01*
X166866666Y-110414285D01*
X166904761Y-110490476D01*
X166942857Y-110528571D01*
X167019047Y-110566666D01*
X170078571Y-111802380D02*
X170611904Y-111802380D01*
X169773809Y-111992857D02*
X170345238Y-112183333D01*
X170345238Y-111688095D01*
X169811904Y-111459523D02*
X169811904Y-110926190D01*
X170611904Y-111269047D01*
X170611904Y-110621428D02*
X169811904Y-110621428D01*
X170307142Y-110545238D02*
X170611904Y-110316666D01*
X170078571Y-110316666D02*
X170383333Y-110621428D01*
X146802380Y-107619047D02*
X146326190Y-107952380D01*
X146802380Y-108190476D02*
X145802380Y-108190476D01*
X145802380Y-107809523D01*
X145850000Y-107714285D01*
X145897619Y-107666666D01*
X145992857Y-107619047D01*
X146135714Y-107619047D01*
X146230952Y-107666666D01*
X146278571Y-107714285D01*
X146326190Y-107809523D01*
X146326190Y-108190476D01*
X146802380Y-106666666D02*
X146802380Y-107238095D01*
X146802380Y-106952380D02*
X145802380Y-106952380D01*
X145945238Y-107047619D01*
X146040476Y-107142857D01*
X146088095Y-107238095D01*
X145802380Y-106047619D02*
X145802380Y-105952380D01*
X145850000Y-105857142D01*
X145897619Y-105809523D01*
X145992857Y-105761904D01*
X146183333Y-105714285D01*
X146421428Y-105714285D01*
X146611904Y-105761904D01*
X146707142Y-105809523D01*
X146754761Y-105857142D01*
X146802380Y-105952380D01*
X146802380Y-106047619D01*
X146754761Y-106142857D01*
X146707142Y-106190476D01*
X146611904Y-106238095D01*
X146421428Y-106285714D01*
X146183333Y-106285714D01*
X145992857Y-106238095D01*
X145897619Y-106190476D01*
X145850000Y-106142857D01*
X145802380Y-106047619D01*
X145802380Y-105380952D02*
X145802380Y-104714285D01*
X146802380Y-105142857D01*
X148361904Y-109345238D02*
X148361904Y-109802380D01*
X148361904Y-109573809D02*
X147561904Y-109573809D01*
X147676190Y-109650000D01*
X147752380Y-109726190D01*
X147790476Y-109802380D01*
X148361904Y-109002380D02*
X147561904Y-109002380D01*
X148057142Y-108926190D02*
X148361904Y-108697619D01*
X147828571Y-108697619D02*
X148133333Y-109002380D01*
X142802380Y-107594047D02*
X142326190Y-107927380D01*
X142802380Y-108165476D02*
X141802380Y-108165476D01*
X141802380Y-107784523D01*
X141850000Y-107689285D01*
X141897619Y-107641666D01*
X141992857Y-107594047D01*
X142135714Y-107594047D01*
X142230952Y-107641666D01*
X142278571Y-107689285D01*
X142326190Y-107784523D01*
X142326190Y-108165476D01*
X142802380Y-106641666D02*
X142802380Y-107213095D01*
X142802380Y-106927380D02*
X141802380Y-106927380D01*
X141945238Y-107022619D01*
X142040476Y-107117857D01*
X142088095Y-107213095D01*
X141802380Y-106022619D02*
X141802380Y-105927380D01*
X141850000Y-105832142D01*
X141897619Y-105784523D01*
X141992857Y-105736904D01*
X142183333Y-105689285D01*
X142421428Y-105689285D01*
X142611904Y-105736904D01*
X142707142Y-105784523D01*
X142754761Y-105832142D01*
X142802380Y-105927380D01*
X142802380Y-106022619D01*
X142754761Y-106117857D01*
X142707142Y-106165476D01*
X142611904Y-106213095D01*
X142421428Y-106260714D01*
X142183333Y-106260714D01*
X141992857Y-106213095D01*
X141897619Y-106165476D01*
X141850000Y-106117857D01*
X141802380Y-106022619D01*
X142230952Y-105117857D02*
X142183333Y-105213095D01*
X142135714Y-105260714D01*
X142040476Y-105308333D01*
X141992857Y-105308333D01*
X141897619Y-105260714D01*
X141850000Y-105213095D01*
X141802380Y-105117857D01*
X141802380Y-104927380D01*
X141850000Y-104832142D01*
X141897619Y-104784523D01*
X141992857Y-104736904D01*
X142040476Y-104736904D01*
X142135714Y-104784523D01*
X142183333Y-104832142D01*
X142230952Y-104927380D01*
X142230952Y-105117857D01*
X142278571Y-105213095D01*
X142326190Y-105260714D01*
X142421428Y-105308333D01*
X142611904Y-105308333D01*
X142707142Y-105260714D01*
X142754761Y-105213095D01*
X142802380Y-105117857D01*
X142802380Y-104927380D01*
X142754761Y-104832142D01*
X142707142Y-104784523D01*
X142611904Y-104736904D01*
X142421428Y-104736904D01*
X142326190Y-104784523D01*
X142278571Y-104832142D01*
X142230952Y-104927380D01*
X144361904Y-109345238D02*
X144361904Y-109802380D01*
X144361904Y-109573809D02*
X143561904Y-109573809D01*
X143676190Y-109650000D01*
X143752380Y-109726190D01*
X143790476Y-109802380D01*
X144361904Y-109002380D02*
X143561904Y-109002380D01*
X144057142Y-108926190D02*
X144361904Y-108697619D01*
X143828571Y-108697619D02*
X144133333Y-109002380D01*
X163952380Y-107619047D02*
X163476190Y-107952380D01*
X163952380Y-108190476D02*
X162952380Y-108190476D01*
X162952380Y-107809523D01*
X163000000Y-107714285D01*
X163047619Y-107666666D01*
X163142857Y-107619047D01*
X163285714Y-107619047D01*
X163380952Y-107666666D01*
X163428571Y-107714285D01*
X163476190Y-107809523D01*
X163476190Y-108190476D01*
X163952380Y-106666666D02*
X163952380Y-107238095D01*
X163952380Y-106952380D02*
X162952380Y-106952380D01*
X163095238Y-107047619D01*
X163190476Y-107142857D01*
X163238095Y-107238095D01*
X162952380Y-106047619D02*
X162952380Y-105952380D01*
X163000000Y-105857142D01*
X163047619Y-105809523D01*
X163142857Y-105761904D01*
X163333333Y-105714285D01*
X163571428Y-105714285D01*
X163761904Y-105761904D01*
X163857142Y-105809523D01*
X163904761Y-105857142D01*
X163952380Y-105952380D01*
X163952380Y-106047619D01*
X163904761Y-106142857D01*
X163857142Y-106190476D01*
X163761904Y-106238095D01*
X163571428Y-106285714D01*
X163333333Y-106285714D01*
X163142857Y-106238095D01*
X163047619Y-106190476D01*
X163000000Y-106142857D01*
X162952380Y-106047619D01*
X163952380Y-105238095D02*
X163952380Y-105047619D01*
X163904761Y-104952380D01*
X163857142Y-104904761D01*
X163714285Y-104809523D01*
X163523809Y-104761904D01*
X163142857Y-104761904D01*
X163047619Y-104809523D01*
X163000000Y-104857142D01*
X162952380Y-104952380D01*
X162952380Y-105142857D01*
X163000000Y-105238095D01*
X163047619Y-105285714D01*
X163142857Y-105333333D01*
X163380952Y-105333333D01*
X163476190Y-105285714D01*
X163523809Y-105238095D01*
X163571428Y-105142857D01*
X163571428Y-104952380D01*
X163523809Y-104857142D01*
X163476190Y-104809523D01*
X163380952Y-104761904D01*
X167611904Y-106595238D02*
X167611904Y-107052380D01*
X167611904Y-106823809D02*
X166811904Y-106823809D01*
X166926190Y-106900000D01*
X167002380Y-106976190D01*
X167040476Y-107052380D01*
X167611904Y-106252380D02*
X166811904Y-106252380D01*
X167307142Y-106176190D02*
X167611904Y-105947619D01*
X167078571Y-105947619D02*
X167383333Y-106252380D01*
X167111904Y-120395238D02*
X166730952Y-120661904D01*
X167111904Y-120852380D02*
X166311904Y-120852380D01*
X166311904Y-120547619D01*
X166350000Y-120471428D01*
X166388095Y-120433333D01*
X166464285Y-120395238D01*
X166578571Y-120395238D01*
X166654761Y-120433333D01*
X166692857Y-120471428D01*
X166730952Y-120547619D01*
X166730952Y-120852380D01*
X167111904Y-119633333D02*
X167111904Y-120090476D01*
X167111904Y-119861904D02*
X166311904Y-119861904D01*
X166426190Y-119938095D01*
X166502380Y-120014285D01*
X166540476Y-120090476D01*
X167111904Y-118871428D02*
X167111904Y-119328571D01*
X167111904Y-119100000D02*
X166311904Y-119100000D01*
X166426190Y-119176190D01*
X166502380Y-119252380D01*
X166540476Y-119328571D01*
X166311904Y-118376190D02*
X166311904Y-118300000D01*
X166350000Y-118223809D01*
X166388095Y-118185714D01*
X166464285Y-118147619D01*
X166616666Y-118109523D01*
X166807142Y-118109523D01*
X166959523Y-118147619D01*
X167035714Y-118185714D01*
X167073809Y-118223809D01*
X167111904Y-118300000D01*
X167111904Y-118376190D01*
X167073809Y-118452380D01*
X167035714Y-118490476D01*
X166959523Y-118528571D01*
X166807142Y-118566666D01*
X166616666Y-118566666D01*
X166464285Y-118528571D01*
X166388095Y-118490476D01*
X166350000Y-118452380D01*
X166311904Y-118376190D01*
X170611904Y-119857142D02*
X170611904Y-120314285D01*
X170611904Y-120085714D02*
X169811904Y-120085714D01*
X169926190Y-120161904D01*
X170002380Y-120238095D01*
X170040476Y-120314285D01*
X169811904Y-119361904D02*
X169811904Y-119285714D01*
X169850000Y-119209523D01*
X169888095Y-119171428D01*
X169964285Y-119133333D01*
X170116666Y-119095238D01*
X170307142Y-119095238D01*
X170459523Y-119133333D01*
X170535714Y-119171428D01*
X170573809Y-119209523D01*
X170611904Y-119285714D01*
X170611904Y-119361904D01*
X170573809Y-119438095D01*
X170535714Y-119476190D01*
X170459523Y-119514285D01*
X170307142Y-119552380D01*
X170116666Y-119552380D01*
X169964285Y-119514285D01*
X169888095Y-119476190D01*
X169850000Y-119438095D01*
X169811904Y-119361904D01*
X169811904Y-118600000D02*
X169811904Y-118523809D01*
X169850000Y-118447619D01*
X169888095Y-118409523D01*
X169964285Y-118371428D01*
X170116666Y-118333333D01*
X170307142Y-118333333D01*
X170459523Y-118371428D01*
X170535714Y-118409523D01*
X170573809Y-118447619D01*
X170611904Y-118523809D01*
X170611904Y-118600000D01*
X170573809Y-118676190D01*
X170535714Y-118714285D01*
X170459523Y-118752380D01*
X170307142Y-118790476D01*
X170116666Y-118790476D01*
X169964285Y-118752380D01*
X169888095Y-118714285D01*
X169850000Y-118676190D01*
X169811904Y-118600000D01*
X170611904Y-117990476D02*
X169811904Y-117990476D01*
X170307142Y-117914285D02*
X170611904Y-117685714D01*
X170078571Y-117685714D02*
X170383333Y-117990476D01*
X101405952Y-118802380D02*
X101072619Y-118326190D01*
X100834523Y-118802380D02*
X100834523Y-117802380D01*
X101215476Y-117802380D01*
X101310714Y-117850000D01*
X101358333Y-117897619D01*
X101405952Y-117992857D01*
X101405952Y-118135714D01*
X101358333Y-118230952D01*
X101310714Y-118278571D01*
X101215476Y-118326190D01*
X100834523Y-118326190D01*
X101786904Y-117897619D02*
X101834523Y-117850000D01*
X101929761Y-117802380D01*
X102167857Y-117802380D01*
X102263095Y-117850000D01*
X102310714Y-117897619D01*
X102358333Y-117992857D01*
X102358333Y-118088095D01*
X102310714Y-118230952D01*
X101739285Y-118802380D01*
X102358333Y-118802380D01*
X102977380Y-117802380D02*
X103072619Y-117802380D01*
X103167857Y-117850000D01*
X103215476Y-117897619D01*
X103263095Y-117992857D01*
X103310714Y-118183333D01*
X103310714Y-118421428D01*
X103263095Y-118611904D01*
X103215476Y-118707142D01*
X103167857Y-118754761D01*
X103072619Y-118802380D01*
X102977380Y-118802380D01*
X102882142Y-118754761D01*
X102834523Y-118707142D01*
X102786904Y-118611904D01*
X102739285Y-118421428D01*
X102739285Y-118183333D01*
X102786904Y-117992857D01*
X102834523Y-117897619D01*
X102882142Y-117850000D01*
X102977380Y-117802380D01*
X104263095Y-118802380D02*
X103691666Y-118802380D01*
X103977380Y-118802380D02*
X103977380Y-117802380D01*
X103882142Y-117945238D01*
X103786904Y-118040476D01*
X103691666Y-118088095D01*
X101310714Y-121102380D02*
X101929761Y-121102380D01*
X101596428Y-121483333D01*
X101739285Y-121483333D01*
X101834523Y-121530952D01*
X101882142Y-121578571D01*
X101929761Y-121673809D01*
X101929761Y-121911904D01*
X101882142Y-122007142D01*
X101834523Y-122054761D01*
X101739285Y-122102380D01*
X101453571Y-122102380D01*
X101358333Y-122054761D01*
X101310714Y-122007142D01*
X102358333Y-122102380D02*
X102358333Y-121102380D01*
X102453571Y-121721428D02*
X102739285Y-122102380D01*
X102739285Y-121435714D02*
X102358333Y-121816666D01*
X103072619Y-121102380D02*
X103691666Y-121102380D01*
X103358333Y-121483333D01*
X103501190Y-121483333D01*
X103596428Y-121530952D01*
X103644047Y-121578571D01*
X103691666Y-121673809D01*
X103691666Y-121911904D01*
X103644047Y-122007142D01*
X103596428Y-122054761D01*
X103501190Y-122102380D01*
X103215476Y-122102380D01*
X103120238Y-122054761D01*
X103072619Y-122007142D01*
X115802380Y-121119047D02*
X115326190Y-121452380D01*
X115802380Y-121690476D02*
X114802380Y-121690476D01*
X114802380Y-121309523D01*
X114850000Y-121214285D01*
X114897619Y-121166666D01*
X114992857Y-121119047D01*
X115135714Y-121119047D01*
X115230952Y-121166666D01*
X115278571Y-121214285D01*
X115326190Y-121309523D01*
X115326190Y-121690476D01*
X114897619Y-120738095D02*
X114850000Y-120690476D01*
X114802380Y-120595238D01*
X114802380Y-120357142D01*
X114850000Y-120261904D01*
X114897619Y-120214285D01*
X114992857Y-120166666D01*
X115088095Y-120166666D01*
X115230952Y-120214285D01*
X115802380Y-120785714D01*
X115802380Y-120166666D01*
X114802380Y-119547619D02*
X114802380Y-119452380D01*
X114850000Y-119357142D01*
X114897619Y-119309523D01*
X114992857Y-119261904D01*
X115183333Y-119214285D01*
X115421428Y-119214285D01*
X115611904Y-119261904D01*
X115707142Y-119309523D01*
X115754761Y-119357142D01*
X115802380Y-119452380D01*
X115802380Y-119547619D01*
X115754761Y-119642857D01*
X115707142Y-119690476D01*
X115611904Y-119738095D01*
X115421428Y-119785714D01*
X115183333Y-119785714D01*
X114992857Y-119738095D01*
X114897619Y-119690476D01*
X114850000Y-119642857D01*
X114802380Y-119547619D01*
X114897619Y-118833333D02*
X114850000Y-118785714D01*
X114802380Y-118690476D01*
X114802380Y-118452380D01*
X114850000Y-118357142D01*
X114897619Y-118309523D01*
X114992857Y-118261904D01*
X115088095Y-118261904D01*
X115230952Y-118309523D01*
X115802380Y-118880952D01*
X115802380Y-118261904D01*
X118288095Y-121314285D02*
X118250000Y-121276190D01*
X118211904Y-121200000D01*
X118211904Y-121009523D01*
X118250000Y-120933333D01*
X118288095Y-120895238D01*
X118364285Y-120857142D01*
X118440476Y-120857142D01*
X118554761Y-120895238D01*
X119011904Y-121352380D01*
X119011904Y-120857142D01*
X118288095Y-120552380D02*
X118250000Y-120514285D01*
X118211904Y-120438095D01*
X118211904Y-120247619D01*
X118250000Y-120171428D01*
X118288095Y-120133333D01*
X118364285Y-120095238D01*
X118440476Y-120095238D01*
X118554761Y-120133333D01*
X119011904Y-120590476D01*
X119011904Y-120095238D01*
X118211904Y-119600000D02*
X118211904Y-119523809D01*
X118250000Y-119447619D01*
X118288095Y-119409523D01*
X118364285Y-119371428D01*
X118516666Y-119333333D01*
X118707142Y-119333333D01*
X118859523Y-119371428D01*
X118935714Y-119409523D01*
X118973809Y-119447619D01*
X119011904Y-119523809D01*
X119011904Y-119600000D01*
X118973809Y-119676190D01*
X118935714Y-119714285D01*
X118859523Y-119752380D01*
X118707142Y-119790476D01*
X118516666Y-119790476D01*
X118364285Y-119752380D01*
X118288095Y-119714285D01*
X118250000Y-119676190D01*
X118211904Y-119600000D01*
X119011904Y-118990476D02*
X118211904Y-118990476D01*
X118707142Y-118914285D02*
X119011904Y-118685714D01*
X118478571Y-118685714D02*
X118783333Y-118990476D01*
X110952380Y-129249047D02*
X110476190Y-129582380D01*
X110952380Y-129820476D02*
X109952380Y-129820476D01*
X109952380Y-129439523D01*
X110000000Y-129344285D01*
X110047619Y-129296666D01*
X110142857Y-129249047D01*
X110285714Y-129249047D01*
X110380952Y-129296666D01*
X110428571Y-129344285D01*
X110476190Y-129439523D01*
X110476190Y-129820476D01*
X110047619Y-128868095D02*
X110000000Y-128820476D01*
X109952380Y-128725238D01*
X109952380Y-128487142D01*
X110000000Y-128391904D01*
X110047619Y-128344285D01*
X110142857Y-128296666D01*
X110238095Y-128296666D01*
X110380952Y-128344285D01*
X110952380Y-128915714D01*
X110952380Y-128296666D01*
X109952380Y-127677619D02*
X109952380Y-127582380D01*
X110000000Y-127487142D01*
X110047619Y-127439523D01*
X110142857Y-127391904D01*
X110333333Y-127344285D01*
X110571428Y-127344285D01*
X110761904Y-127391904D01*
X110857142Y-127439523D01*
X110904761Y-127487142D01*
X110952380Y-127582380D01*
X110952380Y-127677619D01*
X110904761Y-127772857D01*
X110857142Y-127820476D01*
X110761904Y-127868095D01*
X110571428Y-127915714D01*
X110333333Y-127915714D01*
X110142857Y-127868095D01*
X110047619Y-127820476D01*
X110000000Y-127772857D01*
X109952380Y-127677619D01*
X109952380Y-127010952D02*
X109952380Y-126391904D01*
X110333333Y-126725238D01*
X110333333Y-126582380D01*
X110380952Y-126487142D01*
X110428571Y-126439523D01*
X110523809Y-126391904D01*
X110761904Y-126391904D01*
X110857142Y-126439523D01*
X110904761Y-126487142D01*
X110952380Y-126582380D01*
X110952380Y-126868095D01*
X110904761Y-126963333D01*
X110857142Y-127010952D01*
X114952380Y-129071428D02*
X114952380Y-129642857D01*
X114952380Y-129357142D02*
X113952380Y-129357142D01*
X114095238Y-129452380D01*
X114190476Y-129547619D01*
X114238095Y-129642857D01*
X113952380Y-128452380D02*
X113952380Y-128357142D01*
X114000000Y-128261904D01*
X114047619Y-128214285D01*
X114142857Y-128166666D01*
X114333333Y-128119047D01*
X114571428Y-128119047D01*
X114761904Y-128166666D01*
X114857142Y-128214285D01*
X114904761Y-128261904D01*
X114952380Y-128357142D01*
X114952380Y-128452380D01*
X114904761Y-128547619D01*
X114857142Y-128595238D01*
X114761904Y-128642857D01*
X114571428Y-128690476D01*
X114333333Y-128690476D01*
X114142857Y-128642857D01*
X114047619Y-128595238D01*
X114000000Y-128547619D01*
X113952380Y-128452380D01*
X113952380Y-127500000D02*
X113952380Y-127404761D01*
X114000000Y-127309523D01*
X114047619Y-127261904D01*
X114142857Y-127214285D01*
X114333333Y-127166666D01*
X114571428Y-127166666D01*
X114761904Y-127214285D01*
X114857142Y-127261904D01*
X114904761Y-127309523D01*
X114952380Y-127404761D01*
X114952380Y-127500000D01*
X114904761Y-127595238D01*
X114857142Y-127642857D01*
X114761904Y-127690476D01*
X114571428Y-127738095D01*
X114333333Y-127738095D01*
X114142857Y-127690476D01*
X114047619Y-127642857D01*
X114000000Y-127595238D01*
X113952380Y-127500000D01*
X114952380Y-126738095D02*
X113952380Y-126738095D01*
X114571428Y-126642857D02*
X114952380Y-126357142D01*
X114285714Y-126357142D02*
X114666666Y-126738095D01*
X110952380Y-133619047D02*
X110476190Y-133952380D01*
X110952380Y-134190476D02*
X109952380Y-134190476D01*
X109952380Y-133809523D01*
X110000000Y-133714285D01*
X110047619Y-133666666D01*
X110142857Y-133619047D01*
X110285714Y-133619047D01*
X110380952Y-133666666D01*
X110428571Y-133714285D01*
X110476190Y-133809523D01*
X110476190Y-134190476D01*
X110047619Y-133238095D02*
X110000000Y-133190476D01*
X109952380Y-133095238D01*
X109952380Y-132857142D01*
X110000000Y-132761904D01*
X110047619Y-132714285D01*
X110142857Y-132666666D01*
X110238095Y-132666666D01*
X110380952Y-132714285D01*
X110952380Y-133285714D01*
X110952380Y-132666666D01*
X109952380Y-132047619D02*
X109952380Y-131952380D01*
X110000000Y-131857142D01*
X110047619Y-131809523D01*
X110142857Y-131761904D01*
X110333333Y-131714285D01*
X110571428Y-131714285D01*
X110761904Y-131761904D01*
X110857142Y-131809523D01*
X110904761Y-131857142D01*
X110952380Y-131952380D01*
X110952380Y-132047619D01*
X110904761Y-132142857D01*
X110857142Y-132190476D01*
X110761904Y-132238095D01*
X110571428Y-132285714D01*
X110333333Y-132285714D01*
X110142857Y-132238095D01*
X110047619Y-132190476D01*
X110000000Y-132142857D01*
X109952380Y-132047619D01*
X110285714Y-130857142D02*
X110952380Y-130857142D01*
X109904761Y-131095238D02*
X110619047Y-131333333D01*
X110619047Y-130714285D01*
X114952380Y-133095238D02*
X114952380Y-133666666D01*
X114952380Y-133380952D02*
X113952380Y-133380952D01*
X114095238Y-133476190D01*
X114190476Y-133571428D01*
X114238095Y-133666666D01*
X113952380Y-132476190D02*
X113952380Y-132380952D01*
X114000000Y-132285714D01*
X114047619Y-132238095D01*
X114142857Y-132190476D01*
X114333333Y-132142857D01*
X114571428Y-132142857D01*
X114761904Y-132190476D01*
X114857142Y-132238095D01*
X114904761Y-132285714D01*
X114952380Y-132380952D01*
X114952380Y-132476190D01*
X114904761Y-132571428D01*
X114857142Y-132619047D01*
X114761904Y-132666666D01*
X114571428Y-132714285D01*
X114333333Y-132714285D01*
X114142857Y-132666666D01*
X114047619Y-132619047D01*
X114000000Y-132571428D01*
X113952380Y-132476190D01*
X114952380Y-131714285D02*
X113952380Y-131714285D01*
X114571428Y-131619047D02*
X114952380Y-131333333D01*
X114285714Y-131333333D02*
X114666666Y-131714285D01*
X127952380Y-133619047D02*
X127476190Y-133952380D01*
X127952380Y-134190476D02*
X126952380Y-134190476D01*
X126952380Y-133809523D01*
X127000000Y-133714285D01*
X127047619Y-133666666D01*
X127142857Y-133619047D01*
X127285714Y-133619047D01*
X127380952Y-133666666D01*
X127428571Y-133714285D01*
X127476190Y-133809523D01*
X127476190Y-134190476D01*
X127047619Y-133238095D02*
X127000000Y-133190476D01*
X126952380Y-133095238D01*
X126952380Y-132857142D01*
X127000000Y-132761904D01*
X127047619Y-132714285D01*
X127142857Y-132666666D01*
X127238095Y-132666666D01*
X127380952Y-132714285D01*
X127952380Y-133285714D01*
X127952380Y-132666666D01*
X126952380Y-132047619D02*
X126952380Y-131952380D01*
X127000000Y-131857142D01*
X127047619Y-131809523D01*
X127142857Y-131761904D01*
X127333333Y-131714285D01*
X127571428Y-131714285D01*
X127761904Y-131761904D01*
X127857142Y-131809523D01*
X127904761Y-131857142D01*
X127952380Y-131952380D01*
X127952380Y-132047619D01*
X127904761Y-132142857D01*
X127857142Y-132190476D01*
X127761904Y-132238095D01*
X127571428Y-132285714D01*
X127333333Y-132285714D01*
X127142857Y-132238095D01*
X127047619Y-132190476D01*
X127000000Y-132142857D01*
X126952380Y-132047619D01*
X126952380Y-130809523D02*
X126952380Y-131285714D01*
X127428571Y-131333333D01*
X127380952Y-131285714D01*
X127333333Y-131190476D01*
X127333333Y-130952380D01*
X127380952Y-130857142D01*
X127428571Y-130809523D01*
X127523809Y-130761904D01*
X127761904Y-130761904D01*
X127857142Y-130809523D01*
X127904761Y-130857142D01*
X127952380Y-130952380D01*
X127952380Y-131190476D01*
X127904761Y-131285714D01*
X127857142Y-131333333D01*
X132452380Y-132619047D02*
X132452380Y-133190476D01*
X132452380Y-132904761D02*
X131452380Y-132904761D01*
X131595238Y-133000000D01*
X131690476Y-133095238D01*
X131738095Y-133190476D01*
X132452380Y-132190476D02*
X131452380Y-132190476D01*
X132071428Y-132095238D02*
X132452380Y-131809523D01*
X131785714Y-131809523D02*
X132166666Y-132190476D01*
X151452380Y-129119047D02*
X150976190Y-129452380D01*
X151452380Y-129690476D02*
X150452380Y-129690476D01*
X150452380Y-129309523D01*
X150500000Y-129214285D01*
X150547619Y-129166666D01*
X150642857Y-129119047D01*
X150785714Y-129119047D01*
X150880952Y-129166666D01*
X150928571Y-129214285D01*
X150976190Y-129309523D01*
X150976190Y-129690476D01*
X150547619Y-128738095D02*
X150500000Y-128690476D01*
X150452380Y-128595238D01*
X150452380Y-128357142D01*
X150500000Y-128261904D01*
X150547619Y-128214285D01*
X150642857Y-128166666D01*
X150738095Y-128166666D01*
X150880952Y-128214285D01*
X151452380Y-128785714D01*
X151452380Y-128166666D01*
X150452380Y-127547619D02*
X150452380Y-127452380D01*
X150500000Y-127357142D01*
X150547619Y-127309523D01*
X150642857Y-127261904D01*
X150833333Y-127214285D01*
X151071428Y-127214285D01*
X151261904Y-127261904D01*
X151357142Y-127309523D01*
X151404761Y-127357142D01*
X151452380Y-127452380D01*
X151452380Y-127547619D01*
X151404761Y-127642857D01*
X151357142Y-127690476D01*
X151261904Y-127738095D01*
X151071428Y-127785714D01*
X150833333Y-127785714D01*
X150642857Y-127738095D01*
X150547619Y-127690476D01*
X150500000Y-127642857D01*
X150452380Y-127547619D01*
X150452380Y-126357142D02*
X150452380Y-126547619D01*
X150500000Y-126642857D01*
X150547619Y-126690476D01*
X150690476Y-126785714D01*
X150880952Y-126833333D01*
X151261904Y-126833333D01*
X151357142Y-126785714D01*
X151404761Y-126738095D01*
X151452380Y-126642857D01*
X151452380Y-126452380D01*
X151404761Y-126357142D01*
X151357142Y-126309523D01*
X151261904Y-126261904D01*
X151023809Y-126261904D01*
X150928571Y-126309523D01*
X150880952Y-126357142D01*
X150833333Y-126452380D01*
X150833333Y-126642857D01*
X150880952Y-126738095D01*
X150928571Y-126785714D01*
X151023809Y-126833333D01*
X155452380Y-129201428D02*
X155452380Y-129772857D01*
X155452380Y-129487142D02*
X154452380Y-129487142D01*
X154595238Y-129582380D01*
X154690476Y-129677619D01*
X154738095Y-129772857D01*
X154452380Y-128582380D02*
X154452380Y-128487142D01*
X154500000Y-128391904D01*
X154547619Y-128344285D01*
X154642857Y-128296666D01*
X154833333Y-128249047D01*
X155071428Y-128249047D01*
X155261904Y-128296666D01*
X155357142Y-128344285D01*
X155404761Y-128391904D01*
X155452380Y-128487142D01*
X155452380Y-128582380D01*
X155404761Y-128677619D01*
X155357142Y-128725238D01*
X155261904Y-128772857D01*
X155071428Y-128820476D01*
X154833333Y-128820476D01*
X154642857Y-128772857D01*
X154547619Y-128725238D01*
X154500000Y-128677619D01*
X154452380Y-128582380D01*
X154452380Y-127630000D02*
X154452380Y-127534761D01*
X154500000Y-127439523D01*
X154547619Y-127391904D01*
X154642857Y-127344285D01*
X154833333Y-127296666D01*
X155071428Y-127296666D01*
X155261904Y-127344285D01*
X155357142Y-127391904D01*
X155404761Y-127439523D01*
X155452380Y-127534761D01*
X155452380Y-127630000D01*
X155404761Y-127725238D01*
X155357142Y-127772857D01*
X155261904Y-127820476D01*
X155071428Y-127868095D01*
X154833333Y-127868095D01*
X154642857Y-127820476D01*
X154547619Y-127772857D01*
X154500000Y-127725238D01*
X154452380Y-127630000D01*
X155452380Y-126868095D02*
X154452380Y-126868095D01*
X155071428Y-126772857D02*
X155452380Y-126487142D01*
X154785714Y-126487142D02*
X155166666Y-126868095D01*
X151452380Y-133619047D02*
X150976190Y-133952380D01*
X151452380Y-134190476D02*
X150452380Y-134190476D01*
X150452380Y-133809523D01*
X150500000Y-133714285D01*
X150547619Y-133666666D01*
X150642857Y-133619047D01*
X150785714Y-133619047D01*
X150880952Y-133666666D01*
X150928571Y-133714285D01*
X150976190Y-133809523D01*
X150976190Y-134190476D01*
X150547619Y-133238095D02*
X150500000Y-133190476D01*
X150452380Y-133095238D01*
X150452380Y-132857142D01*
X150500000Y-132761904D01*
X150547619Y-132714285D01*
X150642857Y-132666666D01*
X150738095Y-132666666D01*
X150880952Y-132714285D01*
X151452380Y-133285714D01*
X151452380Y-132666666D01*
X150452380Y-132047619D02*
X150452380Y-131952380D01*
X150500000Y-131857142D01*
X150547619Y-131809523D01*
X150642857Y-131761904D01*
X150833333Y-131714285D01*
X151071428Y-131714285D01*
X151261904Y-131761904D01*
X151357142Y-131809523D01*
X151404761Y-131857142D01*
X151452380Y-131952380D01*
X151452380Y-132047619D01*
X151404761Y-132142857D01*
X151357142Y-132190476D01*
X151261904Y-132238095D01*
X151071428Y-132285714D01*
X150833333Y-132285714D01*
X150642857Y-132238095D01*
X150547619Y-132190476D01*
X150500000Y-132142857D01*
X150452380Y-132047619D01*
X150452380Y-131380952D02*
X150452380Y-130714285D01*
X151452380Y-131142857D01*
X155452380Y-133095238D02*
X155452380Y-133666666D01*
X155452380Y-133380952D02*
X154452380Y-133380952D01*
X154595238Y-133476190D01*
X154690476Y-133571428D01*
X154738095Y-133666666D01*
X154452380Y-132476190D02*
X154452380Y-132380952D01*
X154500000Y-132285714D01*
X154547619Y-132238095D01*
X154642857Y-132190476D01*
X154833333Y-132142857D01*
X155071428Y-132142857D01*
X155261904Y-132190476D01*
X155357142Y-132238095D01*
X155404761Y-132285714D01*
X155452380Y-132380952D01*
X155452380Y-132476190D01*
X155404761Y-132571428D01*
X155357142Y-132619047D01*
X155261904Y-132666666D01*
X155071428Y-132714285D01*
X154833333Y-132714285D01*
X154642857Y-132666666D01*
X154547619Y-132619047D01*
X154500000Y-132571428D01*
X154452380Y-132476190D01*
X155452380Y-131714285D02*
X154452380Y-131714285D01*
X155071428Y-131619047D02*
X155452380Y-131333333D01*
X154785714Y-131333333D02*
X155166666Y-131714285D01*
X170452380Y-129249047D02*
X169976190Y-129582380D01*
X170452380Y-129820476D02*
X169452380Y-129820476D01*
X169452380Y-129439523D01*
X169500000Y-129344285D01*
X169547619Y-129296666D01*
X169642857Y-129249047D01*
X169785714Y-129249047D01*
X169880952Y-129296666D01*
X169928571Y-129344285D01*
X169976190Y-129439523D01*
X169976190Y-129820476D01*
X169547619Y-128868095D02*
X169500000Y-128820476D01*
X169452380Y-128725238D01*
X169452380Y-128487142D01*
X169500000Y-128391904D01*
X169547619Y-128344285D01*
X169642857Y-128296666D01*
X169738095Y-128296666D01*
X169880952Y-128344285D01*
X170452380Y-128915714D01*
X170452380Y-128296666D01*
X169452380Y-127677619D02*
X169452380Y-127582380D01*
X169500000Y-127487142D01*
X169547619Y-127439523D01*
X169642857Y-127391904D01*
X169833333Y-127344285D01*
X170071428Y-127344285D01*
X170261904Y-127391904D01*
X170357142Y-127439523D01*
X170404761Y-127487142D01*
X170452380Y-127582380D01*
X170452380Y-127677619D01*
X170404761Y-127772857D01*
X170357142Y-127820476D01*
X170261904Y-127868095D01*
X170071428Y-127915714D01*
X169833333Y-127915714D01*
X169642857Y-127868095D01*
X169547619Y-127820476D01*
X169500000Y-127772857D01*
X169452380Y-127677619D01*
X169880952Y-126772857D02*
X169833333Y-126868095D01*
X169785714Y-126915714D01*
X169690476Y-126963333D01*
X169642857Y-126963333D01*
X169547619Y-126915714D01*
X169500000Y-126868095D01*
X169452380Y-126772857D01*
X169452380Y-126582380D01*
X169500000Y-126487142D01*
X169547619Y-126439523D01*
X169642857Y-126391904D01*
X169690476Y-126391904D01*
X169785714Y-126439523D01*
X169833333Y-126487142D01*
X169880952Y-126582380D01*
X169880952Y-126772857D01*
X169928571Y-126868095D01*
X169976190Y-126915714D01*
X170071428Y-126963333D01*
X170261904Y-126963333D01*
X170357142Y-126915714D01*
X170404761Y-126868095D01*
X170452380Y-126772857D01*
X170452380Y-126582380D01*
X170404761Y-126487142D01*
X170357142Y-126439523D01*
X170261904Y-126391904D01*
X170071428Y-126391904D01*
X169976190Y-126439523D01*
X169928571Y-126487142D01*
X169880952Y-126582380D01*
X174452380Y-129071428D02*
X174452380Y-129642857D01*
X174452380Y-129357142D02*
X173452380Y-129357142D01*
X173595238Y-129452380D01*
X173690476Y-129547619D01*
X173738095Y-129642857D01*
X173452380Y-128452380D02*
X173452380Y-128357142D01*
X173500000Y-128261904D01*
X173547619Y-128214285D01*
X173642857Y-128166666D01*
X173833333Y-128119047D01*
X174071428Y-128119047D01*
X174261904Y-128166666D01*
X174357142Y-128214285D01*
X174404761Y-128261904D01*
X174452380Y-128357142D01*
X174452380Y-128452380D01*
X174404761Y-128547619D01*
X174357142Y-128595238D01*
X174261904Y-128642857D01*
X174071428Y-128690476D01*
X173833333Y-128690476D01*
X173642857Y-128642857D01*
X173547619Y-128595238D01*
X173500000Y-128547619D01*
X173452380Y-128452380D01*
X173452380Y-127500000D02*
X173452380Y-127404761D01*
X173500000Y-127309523D01*
X173547619Y-127261904D01*
X173642857Y-127214285D01*
X173833333Y-127166666D01*
X174071428Y-127166666D01*
X174261904Y-127214285D01*
X174357142Y-127261904D01*
X174404761Y-127309523D01*
X174452380Y-127404761D01*
X174452380Y-127500000D01*
X174404761Y-127595238D01*
X174357142Y-127642857D01*
X174261904Y-127690476D01*
X174071428Y-127738095D01*
X173833333Y-127738095D01*
X173642857Y-127690476D01*
X173547619Y-127642857D01*
X173500000Y-127595238D01*
X173452380Y-127500000D01*
X174452380Y-126738095D02*
X173452380Y-126738095D01*
X174071428Y-126642857D02*
X174452380Y-126357142D01*
X173785714Y-126357142D02*
X174166666Y-126738095D01*
X170452380Y-133619047D02*
X169976190Y-133952380D01*
X170452380Y-134190476D02*
X169452380Y-134190476D01*
X169452380Y-133809523D01*
X169500000Y-133714285D01*
X169547619Y-133666666D01*
X169642857Y-133619047D01*
X169785714Y-133619047D01*
X169880952Y-133666666D01*
X169928571Y-133714285D01*
X169976190Y-133809523D01*
X169976190Y-134190476D01*
X169547619Y-133238095D02*
X169500000Y-133190476D01*
X169452380Y-133095238D01*
X169452380Y-132857142D01*
X169500000Y-132761904D01*
X169547619Y-132714285D01*
X169642857Y-132666666D01*
X169738095Y-132666666D01*
X169880952Y-132714285D01*
X170452380Y-133285714D01*
X170452380Y-132666666D01*
X169452380Y-132047619D02*
X169452380Y-131952380D01*
X169500000Y-131857142D01*
X169547619Y-131809523D01*
X169642857Y-131761904D01*
X169833333Y-131714285D01*
X170071428Y-131714285D01*
X170261904Y-131761904D01*
X170357142Y-131809523D01*
X170404761Y-131857142D01*
X170452380Y-131952380D01*
X170452380Y-132047619D01*
X170404761Y-132142857D01*
X170357142Y-132190476D01*
X170261904Y-132238095D01*
X170071428Y-132285714D01*
X169833333Y-132285714D01*
X169642857Y-132238095D01*
X169547619Y-132190476D01*
X169500000Y-132142857D01*
X169452380Y-132047619D01*
X170452380Y-131238095D02*
X170452380Y-131047619D01*
X170404761Y-130952380D01*
X170357142Y-130904761D01*
X170214285Y-130809523D01*
X170023809Y-130761904D01*
X169642857Y-130761904D01*
X169547619Y-130809523D01*
X169500000Y-130857142D01*
X169452380Y-130952380D01*
X169452380Y-131142857D01*
X169500000Y-131238095D01*
X169547619Y-131285714D01*
X169642857Y-131333333D01*
X169880952Y-131333333D01*
X169976190Y-131285714D01*
X170023809Y-131238095D01*
X170071428Y-131142857D01*
X170071428Y-130952380D01*
X170023809Y-130857142D01*
X169976190Y-130809523D01*
X169880952Y-130761904D01*
X173785714Y-133190476D02*
X174452380Y-133190476D01*
X173404761Y-133428571D02*
X174119047Y-133666666D01*
X174119047Y-133047619D01*
X173452380Y-132761904D02*
X173452380Y-132095238D01*
X174452380Y-132523809D01*
X174452380Y-131714285D02*
X173452380Y-131714285D01*
X174071428Y-131619047D02*
X174452380Y-131333333D01*
X173785714Y-131333333D02*
X174166666Y-131714285D01*
X125380952Y-116802380D02*
X125047619Y-116326190D01*
X124809523Y-116802380D02*
X124809523Y-115802380D01*
X125190476Y-115802380D01*
X125285714Y-115850000D01*
X125333333Y-115897619D01*
X125380952Y-115992857D01*
X125380952Y-116135714D01*
X125333333Y-116230952D01*
X125285714Y-116278571D01*
X125190476Y-116326190D01*
X124809523Y-116326190D01*
X125761904Y-115897619D02*
X125809523Y-115850000D01*
X125904761Y-115802380D01*
X126142857Y-115802380D01*
X126238095Y-115850000D01*
X126285714Y-115897619D01*
X126333333Y-115992857D01*
X126333333Y-116088095D01*
X126285714Y-116230952D01*
X125714285Y-116802380D01*
X126333333Y-116802380D01*
X127285714Y-116802380D02*
X126714285Y-116802380D01*
X127000000Y-116802380D02*
X127000000Y-115802380D01*
X126904761Y-115945238D01*
X126809523Y-116040476D01*
X126714285Y-116088095D01*
X127904761Y-115802380D02*
X128000000Y-115802380D01*
X128095238Y-115850000D01*
X128142857Y-115897619D01*
X128190476Y-115992857D01*
X128238095Y-116183333D01*
X128238095Y-116421428D01*
X128190476Y-116611904D01*
X128142857Y-116707142D01*
X128095238Y-116754761D01*
X128000000Y-116802380D01*
X127904761Y-116802380D01*
X127809523Y-116754761D01*
X127761904Y-116707142D01*
X127714285Y-116611904D01*
X127666666Y-116421428D01*
X127666666Y-116183333D01*
X127714285Y-115992857D01*
X127761904Y-115897619D01*
X127809523Y-115850000D01*
X127904761Y-115802380D01*
X125809523Y-119435714D02*
X125809523Y-120102380D01*
X125571428Y-119054761D02*
X125333333Y-119769047D01*
X125952380Y-119769047D01*
X126333333Y-120102380D02*
X126333333Y-119102380D01*
X126428571Y-119721428D02*
X126714285Y-120102380D01*
X126714285Y-119435714D02*
X126333333Y-119816666D01*
X127047619Y-119102380D02*
X127714285Y-119102380D01*
X127285714Y-120102380D01*
X118355952Y-104102380D02*
X118022619Y-103626190D01*
X117784523Y-104102380D02*
X117784523Y-103102380D01*
X118165476Y-103102380D01*
X118260714Y-103150000D01*
X118308333Y-103197619D01*
X118355952Y-103292857D01*
X118355952Y-103435714D01*
X118308333Y-103530952D01*
X118260714Y-103578571D01*
X118165476Y-103626190D01*
X117784523Y-103626190D01*
X118736904Y-103197619D02*
X118784523Y-103150000D01*
X118879761Y-103102380D01*
X119117857Y-103102380D01*
X119213095Y-103150000D01*
X119260714Y-103197619D01*
X119308333Y-103292857D01*
X119308333Y-103388095D01*
X119260714Y-103530952D01*
X118689285Y-104102380D01*
X119308333Y-104102380D01*
X120260714Y-104102380D02*
X119689285Y-104102380D01*
X119975000Y-104102380D02*
X119975000Y-103102380D01*
X119879761Y-103245238D01*
X119784523Y-103340476D01*
X119689285Y-103388095D01*
X121213095Y-104102380D02*
X120641666Y-104102380D01*
X120927380Y-104102380D02*
X120927380Y-103102380D01*
X120832142Y-103245238D01*
X120736904Y-103340476D01*
X120641666Y-103388095D01*
X118217857Y-99911904D02*
X118370238Y-99911904D01*
X118446428Y-99950000D01*
X118522619Y-100026190D01*
X118560714Y-100178571D01*
X118560714Y-100445238D01*
X118522619Y-100597619D01*
X118446428Y-100673809D01*
X118370238Y-100711904D01*
X118217857Y-100711904D01*
X118141666Y-100673809D01*
X118065476Y-100597619D01*
X118027380Y-100445238D01*
X118027380Y-100178571D01*
X118065476Y-100026190D01*
X118141666Y-99950000D01*
X118217857Y-99911904D01*
X118903571Y-100711904D02*
X118903571Y-99911904D01*
X119208333Y-99911904D01*
X119284523Y-99950000D01*
X119322619Y-99988095D01*
X119360714Y-100064285D01*
X119360714Y-100178571D01*
X119322619Y-100254761D01*
X119284523Y-100292857D01*
X119208333Y-100330952D01*
X118903571Y-100330952D01*
X119703571Y-100292857D02*
X119970238Y-100292857D01*
X120084523Y-100711904D02*
X119703571Y-100711904D01*
X119703571Y-99911904D01*
X120084523Y-99911904D01*
X120427380Y-100711904D02*
X120427380Y-99911904D01*
X120884523Y-100711904D01*
X120884523Y-99911904D01*
X106452380Y-114952380D02*
X106119047Y-114476190D01*
X105880952Y-114952380D02*
X105880952Y-113952380D01*
X106261904Y-113952380D01*
X106357142Y-114000000D01*
X106404761Y-114047619D01*
X106452380Y-114142857D01*
X106452380Y-114285714D01*
X106404761Y-114380952D01*
X106357142Y-114428571D01*
X106261904Y-114476190D01*
X105880952Y-114476190D01*
X106738095Y-113952380D02*
X107071428Y-114952380D01*
X107404761Y-113952380D01*
X107690476Y-114047619D02*
X107738095Y-114000000D01*
X107833333Y-113952380D01*
X108071428Y-113952380D01*
X108166666Y-114000000D01*
X108214285Y-114047619D01*
X108261904Y-114142857D01*
X108261904Y-114238095D01*
X108214285Y-114380952D01*
X107642857Y-114952380D01*
X108261904Y-114952380D01*
X108880952Y-113952380D02*
X108976190Y-113952380D01*
X109071428Y-114000000D01*
X109119047Y-114047619D01*
X109166666Y-114142857D01*
X109214285Y-114333333D01*
X109214285Y-114571428D01*
X109166666Y-114761904D01*
X109119047Y-114857142D01*
X109071428Y-114904761D01*
X108976190Y-114952380D01*
X108880952Y-114952380D01*
X108785714Y-114904761D01*
X108738095Y-114857142D01*
X108690476Y-114761904D01*
X108642857Y-114571428D01*
X108642857Y-114333333D01*
X108690476Y-114142857D01*
X108738095Y-114047619D01*
X108785714Y-114000000D01*
X108880952Y-113952380D01*
X110166666Y-114952380D02*
X109595238Y-114952380D01*
X109880952Y-114952380D02*
X109880952Y-113952380D01*
X109785714Y-114095238D01*
X109690476Y-114190476D01*
X109595238Y-114238095D01*
X106059523Y-107702380D02*
X105583333Y-107702380D01*
X105535714Y-108178571D01*
X105583333Y-108130952D01*
X105678571Y-108083333D01*
X105916666Y-108083333D01*
X106011904Y-108130952D01*
X106059523Y-108178571D01*
X106107142Y-108273809D01*
X106107142Y-108511904D01*
X106059523Y-108607142D01*
X106011904Y-108654761D01*
X105916666Y-108702380D01*
X105678571Y-108702380D01*
X105583333Y-108654761D01*
X105535714Y-108607142D01*
X106726190Y-107702380D02*
X106821428Y-107702380D01*
X106916666Y-107750000D01*
X106964285Y-107797619D01*
X107011904Y-107892857D01*
X107059523Y-108083333D01*
X107059523Y-108321428D01*
X107011904Y-108511904D01*
X106964285Y-108607142D01*
X106916666Y-108654761D01*
X106821428Y-108702380D01*
X106726190Y-108702380D01*
X106630952Y-108654761D01*
X106583333Y-108607142D01*
X106535714Y-108511904D01*
X106488095Y-108321428D01*
X106488095Y-108083333D01*
X106535714Y-107892857D01*
X106583333Y-107797619D01*
X106630952Y-107750000D01*
X106726190Y-107702380D01*
X107488095Y-108702380D02*
X107488095Y-107702380D01*
X107583333Y-108321428D02*
X107869047Y-108702380D01*
X107869047Y-108035714D02*
X107488095Y-108416666D01*
X109630952Y-108702380D02*
X109297619Y-108226190D01*
X109059523Y-108702380D02*
X109059523Y-107702380D01*
X109440476Y-107702380D01*
X109535714Y-107750000D01*
X109583333Y-107797619D01*
X109630952Y-107892857D01*
X109630952Y-108035714D01*
X109583333Y-108130952D01*
X109535714Y-108178571D01*
X109440476Y-108226190D01*
X109059523Y-108226190D01*
X110488095Y-108702380D02*
X110488095Y-108178571D01*
X110440476Y-108083333D01*
X110345238Y-108035714D01*
X110154761Y-108035714D01*
X110059523Y-108083333D01*
X110488095Y-108654761D02*
X110392857Y-108702380D01*
X110154761Y-108702380D01*
X110059523Y-108654761D01*
X110011904Y-108559523D01*
X110011904Y-108464285D01*
X110059523Y-108369047D01*
X110154761Y-108321428D01*
X110392857Y-108321428D01*
X110488095Y-108273809D01*
X110821428Y-108035714D02*
X111202380Y-108035714D01*
X110964285Y-107702380D02*
X110964285Y-108559523D01*
X111011904Y-108654761D01*
X111107142Y-108702380D01*
X111202380Y-108702380D01*
X111916666Y-108654761D02*
X111821428Y-108702380D01*
X111630952Y-108702380D01*
X111535714Y-108654761D01*
X111488095Y-108559523D01*
X111488095Y-108178571D01*
X111535714Y-108083333D01*
X111630952Y-108035714D01*
X111821428Y-108035714D01*
X111916666Y-108083333D01*
X111964285Y-108178571D01*
X111964285Y-108273809D01*
X111488095Y-108369047D01*
X104952380Y-71547619D02*
X104476190Y-71880952D01*
X104952380Y-72119047D02*
X103952380Y-72119047D01*
X103952380Y-71738095D01*
X104000000Y-71642857D01*
X104047619Y-71595238D01*
X104142857Y-71547619D01*
X104285714Y-71547619D01*
X104380952Y-71595238D01*
X104428571Y-71642857D01*
X104476190Y-71738095D01*
X104476190Y-72119047D01*
X103952380Y-71261904D02*
X104952380Y-70928571D01*
X103952380Y-70595238D01*
X103952380Y-70357142D02*
X103952380Y-69738095D01*
X104333333Y-70071428D01*
X104333333Y-69928571D01*
X104380952Y-69833333D01*
X104428571Y-69785714D01*
X104523809Y-69738095D01*
X104761904Y-69738095D01*
X104857142Y-69785714D01*
X104904761Y-69833333D01*
X104952380Y-69928571D01*
X104952380Y-70214285D01*
X104904761Y-70309523D01*
X104857142Y-70357142D01*
X103952380Y-69119047D02*
X103952380Y-69023809D01*
X104000000Y-68928571D01*
X104047619Y-68880952D01*
X104142857Y-68833333D01*
X104333333Y-68785714D01*
X104571428Y-68785714D01*
X104761904Y-68833333D01*
X104857142Y-68880952D01*
X104904761Y-68928571D01*
X104952380Y-69023809D01*
X104952380Y-69119047D01*
X104904761Y-69214285D01*
X104857142Y-69261904D01*
X104761904Y-69309523D01*
X104571428Y-69357142D01*
X104333333Y-69357142D01*
X104142857Y-69309523D01*
X104047619Y-69261904D01*
X104000000Y-69214285D01*
X103952380Y-69119047D01*
X104952380Y-67833333D02*
X104952380Y-68404761D01*
X104952380Y-68119047D02*
X103952380Y-68119047D01*
X104095238Y-68214285D01*
X104190476Y-68309523D01*
X104238095Y-68404761D01*
X116857142Y-70595238D02*
X116904761Y-70642857D01*
X116952380Y-70785714D01*
X116952380Y-70880952D01*
X116904761Y-71023809D01*
X116809523Y-71119047D01*
X116714285Y-71166666D01*
X116523809Y-71214285D01*
X116380952Y-71214285D01*
X116190476Y-71166666D01*
X116095238Y-71119047D01*
X116000000Y-71023809D01*
X115952380Y-70880952D01*
X115952380Y-70785714D01*
X116000000Y-70642857D01*
X116047619Y-70595238D01*
X115952380Y-70309523D02*
X116952380Y-69976190D01*
X115952380Y-69642857D01*
X116952380Y-68785714D02*
X116952380Y-69357142D01*
X116952380Y-69071428D02*
X115952380Y-69071428D01*
X116095238Y-69166666D01*
X116190476Y-69261904D01*
X116238095Y-69357142D01*
X124952380Y-71547619D02*
X124476190Y-71880952D01*
X124952380Y-72119047D02*
X123952380Y-72119047D01*
X123952380Y-71738095D01*
X124000000Y-71642857D01*
X124047619Y-71595238D01*
X124142857Y-71547619D01*
X124285714Y-71547619D01*
X124380952Y-71595238D01*
X124428571Y-71642857D01*
X124476190Y-71738095D01*
X124476190Y-72119047D01*
X123952380Y-71261904D02*
X124952380Y-70928571D01*
X123952380Y-70595238D01*
X123952380Y-70357142D02*
X123952380Y-69738095D01*
X124333333Y-70071428D01*
X124333333Y-69928571D01*
X124380952Y-69833333D01*
X124428571Y-69785714D01*
X124523809Y-69738095D01*
X124761904Y-69738095D01*
X124857142Y-69785714D01*
X124904761Y-69833333D01*
X124952380Y-69928571D01*
X124952380Y-70214285D01*
X124904761Y-70309523D01*
X124857142Y-70357142D01*
X123952380Y-69119047D02*
X123952380Y-69023809D01*
X124000000Y-68928571D01*
X124047619Y-68880952D01*
X124142857Y-68833333D01*
X124333333Y-68785714D01*
X124571428Y-68785714D01*
X124761904Y-68833333D01*
X124857142Y-68880952D01*
X124904761Y-68928571D01*
X124952380Y-69023809D01*
X124952380Y-69119047D01*
X124904761Y-69214285D01*
X124857142Y-69261904D01*
X124761904Y-69309523D01*
X124571428Y-69357142D01*
X124333333Y-69357142D01*
X124142857Y-69309523D01*
X124047619Y-69261904D01*
X124000000Y-69214285D01*
X123952380Y-69119047D01*
X124047619Y-68404761D02*
X124000000Y-68357142D01*
X123952380Y-68261904D01*
X123952380Y-68023809D01*
X124000000Y-67928571D01*
X124047619Y-67880952D01*
X124142857Y-67833333D01*
X124238095Y-67833333D01*
X124380952Y-67880952D01*
X124952380Y-68452380D01*
X124952380Y-67833333D01*
X136857142Y-70595238D02*
X136904761Y-70642857D01*
X136952380Y-70785714D01*
X136952380Y-70880952D01*
X136904761Y-71023809D01*
X136809523Y-71119047D01*
X136714285Y-71166666D01*
X136523809Y-71214285D01*
X136380952Y-71214285D01*
X136190476Y-71166666D01*
X136095238Y-71119047D01*
X136000000Y-71023809D01*
X135952380Y-70880952D01*
X135952380Y-70785714D01*
X136000000Y-70642857D01*
X136047619Y-70595238D01*
X135952380Y-70309523D02*
X136952380Y-69976190D01*
X135952380Y-69642857D01*
X136047619Y-69357142D02*
X136000000Y-69309523D01*
X135952380Y-69214285D01*
X135952380Y-68976190D01*
X136000000Y-68880952D01*
X136047619Y-68833333D01*
X136142857Y-68785714D01*
X136238095Y-68785714D01*
X136380952Y-68833333D01*
X136952380Y-69404761D01*
X136952380Y-68785714D01*
X144952380Y-71547619D02*
X144476190Y-71880952D01*
X144952380Y-72119047D02*
X143952380Y-72119047D01*
X143952380Y-71738095D01*
X144000000Y-71642857D01*
X144047619Y-71595238D01*
X144142857Y-71547619D01*
X144285714Y-71547619D01*
X144380952Y-71595238D01*
X144428571Y-71642857D01*
X144476190Y-71738095D01*
X144476190Y-72119047D01*
X143952380Y-71261904D02*
X144952380Y-70928571D01*
X143952380Y-70595238D01*
X143952380Y-70357142D02*
X143952380Y-69738095D01*
X144333333Y-70071428D01*
X144333333Y-69928571D01*
X144380952Y-69833333D01*
X144428571Y-69785714D01*
X144523809Y-69738095D01*
X144761904Y-69738095D01*
X144857142Y-69785714D01*
X144904761Y-69833333D01*
X144952380Y-69928571D01*
X144952380Y-70214285D01*
X144904761Y-70309523D01*
X144857142Y-70357142D01*
X143952380Y-69119047D02*
X143952380Y-69023809D01*
X144000000Y-68928571D01*
X144047619Y-68880952D01*
X144142857Y-68833333D01*
X144333333Y-68785714D01*
X144571428Y-68785714D01*
X144761904Y-68833333D01*
X144857142Y-68880952D01*
X144904761Y-68928571D01*
X144952380Y-69023809D01*
X144952380Y-69119047D01*
X144904761Y-69214285D01*
X144857142Y-69261904D01*
X144761904Y-69309523D01*
X144571428Y-69357142D01*
X144333333Y-69357142D01*
X144142857Y-69309523D01*
X144047619Y-69261904D01*
X144000000Y-69214285D01*
X143952380Y-69119047D01*
X143952380Y-68452380D02*
X143952380Y-67833333D01*
X144333333Y-68166666D01*
X144333333Y-68023809D01*
X144380952Y-67928571D01*
X144428571Y-67880952D01*
X144523809Y-67833333D01*
X144761904Y-67833333D01*
X144857142Y-67880952D01*
X144904761Y-67928571D01*
X144952380Y-68023809D01*
X144952380Y-68309523D01*
X144904761Y-68404761D01*
X144857142Y-68452380D01*
X156857142Y-70595238D02*
X156904761Y-70642857D01*
X156952380Y-70785714D01*
X156952380Y-70880952D01*
X156904761Y-71023809D01*
X156809523Y-71119047D01*
X156714285Y-71166666D01*
X156523809Y-71214285D01*
X156380952Y-71214285D01*
X156190476Y-71166666D01*
X156095238Y-71119047D01*
X156000000Y-71023809D01*
X155952380Y-70880952D01*
X155952380Y-70785714D01*
X156000000Y-70642857D01*
X156047619Y-70595238D01*
X155952380Y-70309523D02*
X156952380Y-69976190D01*
X155952380Y-69642857D01*
X155952380Y-69404761D02*
X155952380Y-68785714D01*
X156333333Y-69119047D01*
X156333333Y-68976190D01*
X156380952Y-68880952D01*
X156428571Y-68833333D01*
X156523809Y-68785714D01*
X156761904Y-68785714D01*
X156857142Y-68833333D01*
X156904761Y-68880952D01*
X156952380Y-68976190D01*
X156952380Y-69261904D01*
X156904761Y-69357142D01*
X156857142Y-69404761D01*
X164952380Y-71547619D02*
X164476190Y-71880952D01*
X164952380Y-72119047D02*
X163952380Y-72119047D01*
X163952380Y-71738095D01*
X164000000Y-71642857D01*
X164047619Y-71595238D01*
X164142857Y-71547619D01*
X164285714Y-71547619D01*
X164380952Y-71595238D01*
X164428571Y-71642857D01*
X164476190Y-71738095D01*
X164476190Y-72119047D01*
X163952380Y-71261904D02*
X164952380Y-70928571D01*
X163952380Y-70595238D01*
X163952380Y-70357142D02*
X163952380Y-69738095D01*
X164333333Y-70071428D01*
X164333333Y-69928571D01*
X164380952Y-69833333D01*
X164428571Y-69785714D01*
X164523809Y-69738095D01*
X164761904Y-69738095D01*
X164857142Y-69785714D01*
X164904761Y-69833333D01*
X164952380Y-69928571D01*
X164952380Y-70214285D01*
X164904761Y-70309523D01*
X164857142Y-70357142D01*
X163952380Y-69119047D02*
X163952380Y-69023809D01*
X164000000Y-68928571D01*
X164047619Y-68880952D01*
X164142857Y-68833333D01*
X164333333Y-68785714D01*
X164571428Y-68785714D01*
X164761904Y-68833333D01*
X164857142Y-68880952D01*
X164904761Y-68928571D01*
X164952380Y-69023809D01*
X164952380Y-69119047D01*
X164904761Y-69214285D01*
X164857142Y-69261904D01*
X164761904Y-69309523D01*
X164571428Y-69357142D01*
X164333333Y-69357142D01*
X164142857Y-69309523D01*
X164047619Y-69261904D01*
X164000000Y-69214285D01*
X163952380Y-69119047D01*
X164285714Y-67928571D02*
X164952380Y-67928571D01*
X163904761Y-68166666D02*
X164619047Y-68404761D01*
X164619047Y-67785714D01*
X176857142Y-70595238D02*
X176904761Y-70642857D01*
X176952380Y-70785714D01*
X176952380Y-70880952D01*
X176904761Y-71023809D01*
X176809523Y-71119047D01*
X176714285Y-71166666D01*
X176523809Y-71214285D01*
X176380952Y-71214285D01*
X176190476Y-71166666D01*
X176095238Y-71119047D01*
X176000000Y-71023809D01*
X175952380Y-70880952D01*
X175952380Y-70785714D01*
X176000000Y-70642857D01*
X176047619Y-70595238D01*
X175952380Y-70309523D02*
X176952380Y-69976190D01*
X175952380Y-69642857D01*
X176285714Y-68880952D02*
X176952380Y-68880952D01*
X175904761Y-69119047D02*
X176619047Y-69357142D01*
X176619047Y-68738095D01*
X107640715Y-121702380D02*
X107640715Y-122511904D01*
X107688334Y-122607142D01*
X107735953Y-122654761D01*
X107831191Y-122702380D01*
X108021667Y-122702380D01*
X108116905Y-122654761D01*
X108164524Y-122607142D01*
X108212143Y-122511904D01*
X108212143Y-121702380D01*
X108640715Y-121797619D02*
X108688334Y-121750000D01*
X108783572Y-121702380D01*
X109021667Y-121702380D01*
X109116905Y-121750000D01*
X109164524Y-121797619D01*
X109212143Y-121892857D01*
X109212143Y-121988095D01*
X109164524Y-122130952D01*
X108593096Y-122702380D01*
X109212143Y-122702380D01*
X109831191Y-121702380D02*
X109926429Y-121702380D01*
X110021667Y-121750000D01*
X110069286Y-121797619D01*
X110116905Y-121892857D01*
X110164524Y-122083333D01*
X110164524Y-122321428D01*
X110116905Y-122511904D01*
X110069286Y-122607142D01*
X110021667Y-122654761D01*
X109926429Y-122702380D01*
X109831191Y-122702380D01*
X109735953Y-122654761D01*
X109688334Y-122607142D01*
X109640715Y-122511904D01*
X109593096Y-122321428D01*
X109593096Y-122083333D01*
X109640715Y-121892857D01*
X109688334Y-121797619D01*
X109735953Y-121750000D01*
X109831191Y-121702380D01*
X111116905Y-122702380D02*
X110545477Y-122702380D01*
X110831191Y-122702380D02*
X110831191Y-121702380D01*
X110735953Y-121845238D01*
X110640715Y-121940476D01*
X110545477Y-121988095D01*
X107664524Y-125082380D02*
X107188334Y-125082380D01*
X107188334Y-124082380D01*
X107997858Y-125082380D02*
X107997858Y-124082380D01*
X108331191Y-124796666D01*
X108664524Y-124082380D01*
X108664524Y-125082380D01*
X109616905Y-124082380D02*
X109140715Y-124082380D01*
X109093096Y-124558571D01*
X109140715Y-124510952D01*
X109235953Y-124463333D01*
X109474048Y-124463333D01*
X109569286Y-124510952D01*
X109616905Y-124558571D01*
X109664524Y-124653809D01*
X109664524Y-124891904D01*
X109616905Y-124987142D01*
X109569286Y-125034761D01*
X109474048Y-125082380D01*
X109235953Y-125082380D01*
X109140715Y-125034761D01*
X109093096Y-124987142D01*
X110569286Y-124082380D02*
X110093096Y-124082380D01*
X110045477Y-124558571D01*
X110093096Y-124510952D01*
X110188334Y-124463333D01*
X110426429Y-124463333D01*
X110521667Y-124510952D01*
X110569286Y-124558571D01*
X110616905Y-124653809D01*
X110616905Y-124891904D01*
X110569286Y-124987142D01*
X110521667Y-125034761D01*
X110426429Y-125082380D01*
X110188334Y-125082380D01*
X110093096Y-125034761D01*
X110045477Y-124987142D01*
X111521667Y-124082380D02*
X111045477Y-124082380D01*
X110997858Y-124558571D01*
X111045477Y-124510952D01*
X111140715Y-124463333D01*
X111378810Y-124463333D01*
X111474048Y-124510952D01*
X111521667Y-124558571D01*
X111569286Y-124653809D01*
X111569286Y-124891904D01*
X111521667Y-124987142D01*
X111474048Y-125034761D01*
X111378810Y-125082380D01*
X111140715Y-125082380D01*
X111045477Y-125034761D01*
X110997858Y-124987142D01*
X105545001Y-116904380D02*
X105545001Y-117142476D01*
X105306905Y-117047238D02*
X105545001Y-117142476D01*
X105783096Y-117047238D01*
X105402143Y-117332952D02*
X105545001Y-117142476D01*
X105687858Y-117332952D01*
X122785714Y-110452380D02*
X122785714Y-111261904D01*
X122833333Y-111357142D01*
X122880952Y-111404761D01*
X122976190Y-111452380D01*
X123166666Y-111452380D01*
X123261904Y-111404761D01*
X123309523Y-111357142D01*
X123357142Y-111261904D01*
X123357142Y-110452380D01*
X123785714Y-110547619D02*
X123833333Y-110500000D01*
X123928571Y-110452380D01*
X124166666Y-110452380D01*
X124261904Y-110500000D01*
X124309523Y-110547619D01*
X124357142Y-110642857D01*
X124357142Y-110738095D01*
X124309523Y-110880952D01*
X123738095Y-111452380D01*
X124357142Y-111452380D01*
X124976190Y-110452380D02*
X125071428Y-110452380D01*
X125166666Y-110500000D01*
X125214285Y-110547619D01*
X125261904Y-110642857D01*
X125309523Y-110833333D01*
X125309523Y-111071428D01*
X125261904Y-111261904D01*
X125214285Y-111357142D01*
X125166666Y-111404761D01*
X125071428Y-111452380D01*
X124976190Y-111452380D01*
X124880952Y-111404761D01*
X124833333Y-111357142D01*
X124785714Y-111261904D01*
X124738095Y-111071428D01*
X124738095Y-110833333D01*
X124785714Y-110642857D01*
X124833333Y-110547619D01*
X124880952Y-110500000D01*
X124976190Y-110452380D01*
X125690476Y-110547619D02*
X125738095Y-110500000D01*
X125833333Y-110452380D01*
X126071428Y-110452380D01*
X126166666Y-110500000D01*
X126214285Y-110547619D01*
X126261904Y-110642857D01*
X126261904Y-110738095D01*
X126214285Y-110880952D01*
X125642857Y-111452380D01*
X126261904Y-111452380D01*
X114761904Y-107285714D02*
X114761904Y-107952380D01*
X114523809Y-106904761D02*
X114285714Y-107619047D01*
X114904761Y-107619047D01*
X115476190Y-106952380D02*
X115571428Y-106952380D01*
X115666666Y-107000000D01*
X115714285Y-107047619D01*
X115761904Y-107142857D01*
X115809523Y-107333333D01*
X115809523Y-107571428D01*
X115761904Y-107761904D01*
X115714285Y-107857142D01*
X115666666Y-107904761D01*
X115571428Y-107952380D01*
X115476190Y-107952380D01*
X115380952Y-107904761D01*
X115333333Y-107857142D01*
X115285714Y-107761904D01*
X115238095Y-107571428D01*
X115238095Y-107333333D01*
X115285714Y-107142857D01*
X115333333Y-107047619D01*
X115380952Y-107000000D01*
X115476190Y-106952380D01*
X116761904Y-107952380D02*
X116190476Y-107952380D01*
X116476190Y-107952380D02*
X116476190Y-106952380D01*
X116380952Y-107095238D01*
X116285714Y-107190476D01*
X116190476Y-107238095D01*
X117095238Y-106952380D02*
X117761904Y-106952380D01*
X117333333Y-107952380D01*
X107714285Y-91944761D02*
X107857142Y-91992380D01*
X108095238Y-91992380D01*
X108190476Y-91944761D01*
X108238095Y-91897142D01*
X108285714Y-91801904D01*
X108285714Y-91706666D01*
X108238095Y-91611428D01*
X108190476Y-91563809D01*
X108095238Y-91516190D01*
X107904761Y-91468571D01*
X107809523Y-91420952D01*
X107761904Y-91373333D01*
X107714285Y-91278095D01*
X107714285Y-91182857D01*
X107761904Y-91087619D01*
X107809523Y-91040000D01*
X107904761Y-90992380D01*
X108142857Y-90992380D01*
X108285714Y-91040000D01*
X108619047Y-90992380D02*
X108857142Y-91992380D01*
X109047619Y-91278095D01*
X109238095Y-91992380D01*
X109476190Y-90992380D01*
X109761904Y-90992380D02*
X110380952Y-90992380D01*
X110047619Y-91373333D01*
X110190476Y-91373333D01*
X110285714Y-91420952D01*
X110333333Y-91468571D01*
X110380952Y-91563809D01*
X110380952Y-91801904D01*
X110333333Y-91897142D01*
X110285714Y-91944761D01*
X110190476Y-91992380D01*
X109904761Y-91992380D01*
X109809523Y-91944761D01*
X109761904Y-91897142D01*
X111000000Y-90992380D02*
X111095238Y-90992380D01*
X111190476Y-91040000D01*
X111238095Y-91087619D01*
X111285714Y-91182857D01*
X111333333Y-91373333D01*
X111333333Y-91611428D01*
X111285714Y-91801904D01*
X111238095Y-91897142D01*
X111190476Y-91944761D01*
X111095238Y-91992380D01*
X111000000Y-91992380D01*
X110904761Y-91944761D01*
X110857142Y-91897142D01*
X110809523Y-91801904D01*
X110761904Y-91611428D01*
X110761904Y-91373333D01*
X110809523Y-91182857D01*
X110857142Y-91087619D01*
X110904761Y-91040000D01*
X111000000Y-90992380D01*
X112285714Y-91992380D02*
X111714285Y-91992380D01*
X112000000Y-91992380D02*
X112000000Y-90992380D01*
X111904761Y-91135238D01*
X111809523Y-91230476D01*
X111714285Y-91278095D01*
X106904761Y-96904761D02*
X107047619Y-96952380D01*
X107285714Y-96952380D01*
X107380952Y-96904761D01*
X107428571Y-96857142D01*
X107476190Y-96761904D01*
X107476190Y-96666666D01*
X107428571Y-96571428D01*
X107380952Y-96523809D01*
X107285714Y-96476190D01*
X107095238Y-96428571D01*
X107000000Y-96380952D01*
X106952380Y-96333333D01*
X106904761Y-96238095D01*
X106904761Y-96142857D01*
X106952380Y-96047619D01*
X107000000Y-96000000D01*
X107095238Y-95952380D01*
X107333333Y-95952380D01*
X107476190Y-96000000D01*
X107809523Y-95952380D02*
X108047619Y-96952380D01*
X108238095Y-96238095D01*
X108428571Y-96952380D01*
X108666666Y-95952380D01*
X108809523Y-97047619D02*
X109571428Y-97047619D01*
X109761904Y-96904761D02*
X109904761Y-96952380D01*
X110142857Y-96952380D01*
X110238095Y-96904761D01*
X110285714Y-96857142D01*
X110333333Y-96761904D01*
X110333333Y-96666666D01*
X110285714Y-96571428D01*
X110238095Y-96523809D01*
X110142857Y-96476190D01*
X109952380Y-96428571D01*
X109857142Y-96380952D01*
X109809523Y-96333333D01*
X109761904Y-96238095D01*
X109761904Y-96142857D01*
X109809523Y-96047619D01*
X109857142Y-96000000D01*
X109952380Y-95952380D01*
X110190476Y-95952380D01*
X110333333Y-96000000D01*
X110761904Y-96952380D02*
X110761904Y-95952380D01*
X111142857Y-95952380D01*
X111238095Y-96000000D01*
X111285714Y-96047619D01*
X111333333Y-96142857D01*
X111333333Y-96285714D01*
X111285714Y-96380952D01*
X111238095Y-96428571D01*
X111142857Y-96476190D01*
X110761904Y-96476190D01*
X111761904Y-96952380D02*
X111761904Y-95952380D01*
X112000000Y-95952380D01*
X112142857Y-96000000D01*
X112238095Y-96095238D01*
X112285714Y-96190476D01*
X112333333Y-96380952D01*
X112333333Y-96523809D01*
X112285714Y-96714285D01*
X112238095Y-96809523D01*
X112142857Y-96904761D01*
X112000000Y-96952380D01*
X111761904Y-96952380D01*
X112619047Y-95952380D02*
X113190476Y-95952380D01*
X112904761Y-96952380D02*
X112904761Y-95952380D01*
X127714285Y-91944761D02*
X127857142Y-91992380D01*
X128095238Y-91992380D01*
X128190476Y-91944761D01*
X128238095Y-91897142D01*
X128285714Y-91801904D01*
X128285714Y-91706666D01*
X128238095Y-91611428D01*
X128190476Y-91563809D01*
X128095238Y-91516190D01*
X127904761Y-91468571D01*
X127809523Y-91420952D01*
X127761904Y-91373333D01*
X127714285Y-91278095D01*
X127714285Y-91182857D01*
X127761904Y-91087619D01*
X127809523Y-91040000D01*
X127904761Y-90992380D01*
X128142857Y-90992380D01*
X128285714Y-91040000D01*
X128619047Y-90992380D02*
X128857142Y-91992380D01*
X129047619Y-91278095D01*
X129238095Y-91992380D01*
X129476190Y-90992380D01*
X129761904Y-90992380D02*
X130380952Y-90992380D01*
X130047619Y-91373333D01*
X130190476Y-91373333D01*
X130285714Y-91420952D01*
X130333333Y-91468571D01*
X130380952Y-91563809D01*
X130380952Y-91801904D01*
X130333333Y-91897142D01*
X130285714Y-91944761D01*
X130190476Y-91992380D01*
X129904761Y-91992380D01*
X129809523Y-91944761D01*
X129761904Y-91897142D01*
X131000000Y-90992380D02*
X131095238Y-90992380D01*
X131190476Y-91040000D01*
X131238095Y-91087619D01*
X131285714Y-91182857D01*
X131333333Y-91373333D01*
X131333333Y-91611428D01*
X131285714Y-91801904D01*
X131238095Y-91897142D01*
X131190476Y-91944761D01*
X131095238Y-91992380D01*
X131000000Y-91992380D01*
X130904761Y-91944761D01*
X130857142Y-91897142D01*
X130809523Y-91801904D01*
X130761904Y-91611428D01*
X130761904Y-91373333D01*
X130809523Y-91182857D01*
X130857142Y-91087619D01*
X130904761Y-91040000D01*
X131000000Y-90992380D01*
X131714285Y-91087619D02*
X131761904Y-91040000D01*
X131857142Y-90992380D01*
X132095238Y-90992380D01*
X132190476Y-91040000D01*
X132238095Y-91087619D01*
X132285714Y-91182857D01*
X132285714Y-91278095D01*
X132238095Y-91420952D01*
X131666666Y-91992380D01*
X132285714Y-91992380D01*
X126904761Y-96904761D02*
X127047619Y-96952380D01*
X127285714Y-96952380D01*
X127380952Y-96904761D01*
X127428571Y-96857142D01*
X127476190Y-96761904D01*
X127476190Y-96666666D01*
X127428571Y-96571428D01*
X127380952Y-96523809D01*
X127285714Y-96476190D01*
X127095238Y-96428571D01*
X127000000Y-96380952D01*
X126952380Y-96333333D01*
X126904761Y-96238095D01*
X126904761Y-96142857D01*
X126952380Y-96047619D01*
X127000000Y-96000000D01*
X127095238Y-95952380D01*
X127333333Y-95952380D01*
X127476190Y-96000000D01*
X127809523Y-95952380D02*
X128047619Y-96952380D01*
X128238095Y-96238095D01*
X128428571Y-96952380D01*
X128666666Y-95952380D01*
X128809523Y-97047619D02*
X129571428Y-97047619D01*
X129761904Y-96904761D02*
X129904761Y-96952380D01*
X130142857Y-96952380D01*
X130238095Y-96904761D01*
X130285714Y-96857142D01*
X130333333Y-96761904D01*
X130333333Y-96666666D01*
X130285714Y-96571428D01*
X130238095Y-96523809D01*
X130142857Y-96476190D01*
X129952380Y-96428571D01*
X129857142Y-96380952D01*
X129809523Y-96333333D01*
X129761904Y-96238095D01*
X129761904Y-96142857D01*
X129809523Y-96047619D01*
X129857142Y-96000000D01*
X129952380Y-95952380D01*
X130190476Y-95952380D01*
X130333333Y-96000000D01*
X130761904Y-96952380D02*
X130761904Y-95952380D01*
X131142857Y-95952380D01*
X131238095Y-96000000D01*
X131285714Y-96047619D01*
X131333333Y-96142857D01*
X131333333Y-96285714D01*
X131285714Y-96380952D01*
X131238095Y-96428571D01*
X131142857Y-96476190D01*
X130761904Y-96476190D01*
X131761904Y-96952380D02*
X131761904Y-95952380D01*
X132000000Y-95952380D01*
X132142857Y-96000000D01*
X132238095Y-96095238D01*
X132285714Y-96190476D01*
X132333333Y-96380952D01*
X132333333Y-96523809D01*
X132285714Y-96714285D01*
X132238095Y-96809523D01*
X132142857Y-96904761D01*
X132000000Y-96952380D01*
X131761904Y-96952380D01*
X132619047Y-95952380D02*
X133190476Y-95952380D01*
X132904761Y-96952380D02*
X132904761Y-95952380D01*
X147714285Y-91944761D02*
X147857142Y-91992380D01*
X148095238Y-91992380D01*
X148190476Y-91944761D01*
X148238095Y-91897142D01*
X148285714Y-91801904D01*
X148285714Y-91706666D01*
X148238095Y-91611428D01*
X148190476Y-91563809D01*
X148095238Y-91516190D01*
X147904761Y-91468571D01*
X147809523Y-91420952D01*
X147761904Y-91373333D01*
X147714285Y-91278095D01*
X147714285Y-91182857D01*
X147761904Y-91087619D01*
X147809523Y-91040000D01*
X147904761Y-90992380D01*
X148142857Y-90992380D01*
X148285714Y-91040000D01*
X148619047Y-90992380D02*
X148857142Y-91992380D01*
X149047619Y-91278095D01*
X149238095Y-91992380D01*
X149476190Y-90992380D01*
X149761904Y-90992380D02*
X150380952Y-90992380D01*
X150047619Y-91373333D01*
X150190476Y-91373333D01*
X150285714Y-91420952D01*
X150333333Y-91468571D01*
X150380952Y-91563809D01*
X150380952Y-91801904D01*
X150333333Y-91897142D01*
X150285714Y-91944761D01*
X150190476Y-91992380D01*
X149904761Y-91992380D01*
X149809523Y-91944761D01*
X149761904Y-91897142D01*
X151000000Y-90992380D02*
X151095238Y-90992380D01*
X151190476Y-91040000D01*
X151238095Y-91087619D01*
X151285714Y-91182857D01*
X151333333Y-91373333D01*
X151333333Y-91611428D01*
X151285714Y-91801904D01*
X151238095Y-91897142D01*
X151190476Y-91944761D01*
X151095238Y-91992380D01*
X151000000Y-91992380D01*
X150904761Y-91944761D01*
X150857142Y-91897142D01*
X150809523Y-91801904D01*
X150761904Y-91611428D01*
X150761904Y-91373333D01*
X150809523Y-91182857D01*
X150857142Y-91087619D01*
X150904761Y-91040000D01*
X151000000Y-90992380D01*
X151666666Y-90992380D02*
X152285714Y-90992380D01*
X151952380Y-91373333D01*
X152095238Y-91373333D01*
X152190476Y-91420952D01*
X152238095Y-91468571D01*
X152285714Y-91563809D01*
X152285714Y-91801904D01*
X152238095Y-91897142D01*
X152190476Y-91944761D01*
X152095238Y-91992380D01*
X151809523Y-91992380D01*
X151714285Y-91944761D01*
X151666666Y-91897142D01*
X146904761Y-96904761D02*
X147047619Y-96952380D01*
X147285714Y-96952380D01*
X147380952Y-96904761D01*
X147428571Y-96857142D01*
X147476190Y-96761904D01*
X147476190Y-96666666D01*
X147428571Y-96571428D01*
X147380952Y-96523809D01*
X147285714Y-96476190D01*
X147095238Y-96428571D01*
X147000000Y-96380952D01*
X146952380Y-96333333D01*
X146904761Y-96238095D01*
X146904761Y-96142857D01*
X146952380Y-96047619D01*
X147000000Y-96000000D01*
X147095238Y-95952380D01*
X147333333Y-95952380D01*
X147476190Y-96000000D01*
X147809523Y-95952380D02*
X148047619Y-96952380D01*
X148238095Y-96238095D01*
X148428571Y-96952380D01*
X148666666Y-95952380D01*
X148809523Y-97047619D02*
X149571428Y-97047619D01*
X149761904Y-96904761D02*
X149904761Y-96952380D01*
X150142857Y-96952380D01*
X150238095Y-96904761D01*
X150285714Y-96857142D01*
X150333333Y-96761904D01*
X150333333Y-96666666D01*
X150285714Y-96571428D01*
X150238095Y-96523809D01*
X150142857Y-96476190D01*
X149952380Y-96428571D01*
X149857142Y-96380952D01*
X149809523Y-96333333D01*
X149761904Y-96238095D01*
X149761904Y-96142857D01*
X149809523Y-96047619D01*
X149857142Y-96000000D01*
X149952380Y-95952380D01*
X150190476Y-95952380D01*
X150333333Y-96000000D01*
X150761904Y-96952380D02*
X150761904Y-95952380D01*
X151142857Y-95952380D01*
X151238095Y-96000000D01*
X151285714Y-96047619D01*
X151333333Y-96142857D01*
X151333333Y-96285714D01*
X151285714Y-96380952D01*
X151238095Y-96428571D01*
X151142857Y-96476190D01*
X150761904Y-96476190D01*
X151761904Y-96952380D02*
X151761904Y-95952380D01*
X152000000Y-95952380D01*
X152142857Y-96000000D01*
X152238095Y-96095238D01*
X152285714Y-96190476D01*
X152333333Y-96380952D01*
X152333333Y-96523809D01*
X152285714Y-96714285D01*
X152238095Y-96809523D01*
X152142857Y-96904761D01*
X152000000Y-96952380D01*
X151761904Y-96952380D01*
X152619047Y-95952380D02*
X153190476Y-95952380D01*
X152904761Y-96952380D02*
X152904761Y-95952380D01*
X167989284Y-91944761D02*
X168132141Y-91992380D01*
X168370237Y-91992380D01*
X168465475Y-91944761D01*
X168513094Y-91897142D01*
X168560713Y-91801904D01*
X168560713Y-91706666D01*
X168513094Y-91611428D01*
X168465475Y-91563809D01*
X168370237Y-91516190D01*
X168179760Y-91468571D01*
X168084522Y-91420952D01*
X168036903Y-91373333D01*
X167989284Y-91278095D01*
X167989284Y-91182857D01*
X168036903Y-91087619D01*
X168084522Y-91040000D01*
X168179760Y-90992380D01*
X168417856Y-90992380D01*
X168560713Y-91040000D01*
X168894046Y-90992380D02*
X169132141Y-91992380D01*
X169322618Y-91278095D01*
X169513094Y-91992380D01*
X169751189Y-90992380D01*
X170036903Y-90992380D02*
X170655951Y-90992380D01*
X170322618Y-91373333D01*
X170465475Y-91373333D01*
X170560713Y-91420952D01*
X170608332Y-91468571D01*
X170655951Y-91563809D01*
X170655951Y-91801904D01*
X170608332Y-91897142D01*
X170560713Y-91944761D01*
X170465475Y-91992380D01*
X170179760Y-91992380D01*
X170084522Y-91944761D01*
X170036903Y-91897142D01*
X171274999Y-90992380D02*
X171370237Y-90992380D01*
X171465475Y-91040000D01*
X171513094Y-91087619D01*
X171560713Y-91182857D01*
X171608332Y-91373333D01*
X171608332Y-91611428D01*
X171560713Y-91801904D01*
X171513094Y-91897142D01*
X171465475Y-91944761D01*
X171370237Y-91992380D01*
X171274999Y-91992380D01*
X171179760Y-91944761D01*
X171132141Y-91897142D01*
X171084522Y-91801904D01*
X171036903Y-91611428D01*
X171036903Y-91373333D01*
X171084522Y-91182857D01*
X171132141Y-91087619D01*
X171179760Y-91040000D01*
X171274999Y-90992380D01*
X172465475Y-91325714D02*
X172465475Y-91992380D01*
X172227379Y-90944761D02*
X171989284Y-91659047D01*
X172608332Y-91659047D01*
X166904761Y-96904761D02*
X167047619Y-96952380D01*
X167285714Y-96952380D01*
X167380952Y-96904761D01*
X167428571Y-96857142D01*
X167476190Y-96761904D01*
X167476190Y-96666666D01*
X167428571Y-96571428D01*
X167380952Y-96523809D01*
X167285714Y-96476190D01*
X167095238Y-96428571D01*
X167000000Y-96380952D01*
X166952380Y-96333333D01*
X166904761Y-96238095D01*
X166904761Y-96142857D01*
X166952380Y-96047619D01*
X167000000Y-96000000D01*
X167095238Y-95952380D01*
X167333333Y-95952380D01*
X167476190Y-96000000D01*
X167809523Y-95952380D02*
X168047619Y-96952380D01*
X168238095Y-96238095D01*
X168428571Y-96952380D01*
X168666666Y-95952380D01*
X168809523Y-97047619D02*
X169571428Y-97047619D01*
X169761904Y-96904761D02*
X169904761Y-96952380D01*
X170142857Y-96952380D01*
X170238095Y-96904761D01*
X170285714Y-96857142D01*
X170333333Y-96761904D01*
X170333333Y-96666666D01*
X170285714Y-96571428D01*
X170238095Y-96523809D01*
X170142857Y-96476190D01*
X169952380Y-96428571D01*
X169857142Y-96380952D01*
X169809523Y-96333333D01*
X169761904Y-96238095D01*
X169761904Y-96142857D01*
X169809523Y-96047619D01*
X169857142Y-96000000D01*
X169952380Y-95952380D01*
X170190476Y-95952380D01*
X170333333Y-96000000D01*
X170761904Y-96952380D02*
X170761904Y-95952380D01*
X171142857Y-95952380D01*
X171238095Y-96000000D01*
X171285714Y-96047619D01*
X171333333Y-96142857D01*
X171333333Y-96285714D01*
X171285714Y-96380952D01*
X171238095Y-96428571D01*
X171142857Y-96476190D01*
X170761904Y-96476190D01*
X171761904Y-96952380D02*
X171761904Y-95952380D01*
X172000000Y-95952380D01*
X172142857Y-96000000D01*
X172238095Y-96095238D01*
X172285714Y-96190476D01*
X172333333Y-96380952D01*
X172333333Y-96523809D01*
X172285714Y-96714285D01*
X172238095Y-96809523D01*
X172142857Y-96904761D01*
X172000000Y-96952380D01*
X171761904Y-96952380D01*
X172619047Y-95952380D02*
X173190476Y-95952380D01*
X172904761Y-96952380D02*
X172904761Y-95952380D01*
X159785714Y-111952380D02*
X159785714Y-112761904D01*
X159833333Y-112857142D01*
X159880952Y-112904761D01*
X159976190Y-112952380D01*
X160166666Y-112952380D01*
X160261904Y-112904761D01*
X160309523Y-112857142D01*
X160357142Y-112761904D01*
X160357142Y-111952380D01*
X161357142Y-112952380D02*
X160785714Y-112952380D01*
X161071428Y-112952380D02*
X161071428Y-111952380D01*
X160976190Y-112095238D01*
X160880952Y-112190476D01*
X160785714Y-112238095D01*
X161976190Y-111952380D02*
X162071428Y-111952380D01*
X162166666Y-112000000D01*
X162214285Y-112047619D01*
X162261904Y-112142857D01*
X162309523Y-112333333D01*
X162309523Y-112571428D01*
X162261904Y-112761904D01*
X162214285Y-112857142D01*
X162166666Y-112904761D01*
X162071428Y-112952380D01*
X161976190Y-112952380D01*
X161880952Y-112904761D01*
X161833333Y-112857142D01*
X161785714Y-112761904D01*
X161738095Y-112571428D01*
X161738095Y-112333333D01*
X161785714Y-112142857D01*
X161833333Y-112047619D01*
X161880952Y-112000000D01*
X161976190Y-111952380D01*
X163261904Y-112952380D02*
X162690476Y-112952380D01*
X162976190Y-112952380D02*
X162976190Y-111952380D01*
X162880952Y-112095238D01*
X162785714Y-112190476D01*
X162690476Y-112238095D01*
X159380952Y-116082380D02*
X159952380Y-116082380D01*
X159666666Y-117082380D02*
X159666666Y-116082380D01*
X160761904Y-117082380D02*
X160285714Y-117082380D01*
X160285714Y-116082380D01*
X161285714Y-116082380D02*
X161380952Y-116082380D01*
X161476190Y-116130000D01*
X161523809Y-116177619D01*
X161571428Y-116272857D01*
X161619047Y-116463333D01*
X161619047Y-116701428D01*
X161571428Y-116891904D01*
X161523809Y-116987142D01*
X161476190Y-117034761D01*
X161380952Y-117082380D01*
X161285714Y-117082380D01*
X161190476Y-117034761D01*
X161142857Y-116987142D01*
X161095238Y-116891904D01*
X161047619Y-116701428D01*
X161047619Y-116463333D01*
X161095238Y-116272857D01*
X161142857Y-116177619D01*
X161190476Y-116130000D01*
X161285714Y-116082380D01*
X162190476Y-116510952D02*
X162095238Y-116463333D01*
X162047619Y-116415714D01*
X162000000Y-116320476D01*
X162000000Y-116272857D01*
X162047619Y-116177619D01*
X162095238Y-116130000D01*
X162190476Y-116082380D01*
X162380952Y-116082380D01*
X162476190Y-116130000D01*
X162523809Y-116177619D01*
X162571428Y-116272857D01*
X162571428Y-116320476D01*
X162523809Y-116415714D01*
X162476190Y-116463333D01*
X162380952Y-116510952D01*
X162190476Y-116510952D01*
X162095238Y-116558571D01*
X162047619Y-116606190D01*
X162000000Y-116701428D01*
X162000000Y-116891904D01*
X162047619Y-116987142D01*
X162095238Y-117034761D01*
X162190476Y-117082380D01*
X162380952Y-117082380D01*
X162476190Y-117034761D01*
X162523809Y-116987142D01*
X162571428Y-116891904D01*
X162571428Y-116701428D01*
X162523809Y-116606190D01*
X162476190Y-116558571D01*
X162380952Y-116510952D01*
X162952380Y-116177619D02*
X163000000Y-116130000D01*
X163095238Y-116082380D01*
X163333333Y-116082380D01*
X163428571Y-116130000D01*
X163476190Y-116177619D01*
X163523809Y-116272857D01*
X163523809Y-116368095D01*
X163476190Y-116510952D01*
X162904761Y-117082380D01*
X163523809Y-117082380D01*
X157690000Y-108904380D02*
X157690000Y-109142476D01*
X157451904Y-109047238D02*
X157690000Y-109142476D01*
X157928095Y-109047238D01*
X157547142Y-109332952D02*
X157690000Y-109142476D01*
X157832857Y-109332952D01*
X115607142Y-125119047D02*
X115654761Y-125166666D01*
X115702380Y-125309523D01*
X115702380Y-125404761D01*
X115654761Y-125547619D01*
X115559523Y-125642857D01*
X115464285Y-125690476D01*
X115273809Y-125738095D01*
X115130952Y-125738095D01*
X114940476Y-125690476D01*
X114845238Y-125642857D01*
X114750000Y-125547619D01*
X114702380Y-125404761D01*
X114702380Y-125309523D01*
X114750000Y-125166666D01*
X114797619Y-125119047D01*
X114797619Y-124738095D02*
X114750000Y-124690476D01*
X114702380Y-124595238D01*
X114702380Y-124357142D01*
X114750000Y-124261904D01*
X114797619Y-124214285D01*
X114892857Y-124166666D01*
X114988095Y-124166666D01*
X115130952Y-124214285D01*
X115702380Y-124785714D01*
X115702380Y-124166666D01*
X114702380Y-123547619D02*
X114702380Y-123452380D01*
X114750000Y-123357142D01*
X114797619Y-123309523D01*
X114892857Y-123261904D01*
X115083333Y-123214285D01*
X115321428Y-123214285D01*
X115511904Y-123261904D01*
X115607142Y-123309523D01*
X115654761Y-123357142D01*
X115702380Y-123452380D01*
X115702380Y-123547619D01*
X115654761Y-123642857D01*
X115607142Y-123690476D01*
X115511904Y-123738095D01*
X115321428Y-123785714D01*
X115083333Y-123785714D01*
X114892857Y-123738095D01*
X114797619Y-123690476D01*
X114750000Y-123642857D01*
X114702380Y-123547619D01*
X114797619Y-122833333D02*
X114750000Y-122785714D01*
X114702380Y-122690476D01*
X114702380Y-122452380D01*
X114750000Y-122357142D01*
X114797619Y-122309523D01*
X114892857Y-122261904D01*
X114988095Y-122261904D01*
X115130952Y-122309523D01*
X115702380Y-122880952D01*
X115702380Y-122261904D01*
X117361904Y-127764285D02*
X117361904Y-128221428D01*
X117361904Y-127992857D02*
X116561904Y-127992857D01*
X116676190Y-128069047D01*
X116752380Y-128145238D01*
X116790476Y-128221428D01*
X116561904Y-127269047D02*
X116561904Y-127192857D01*
X116600000Y-127116666D01*
X116638095Y-127078571D01*
X116714285Y-127040476D01*
X116866666Y-127002380D01*
X117057142Y-127002380D01*
X117209523Y-127040476D01*
X117285714Y-127078571D01*
X117323809Y-127116666D01*
X117361904Y-127192857D01*
X117361904Y-127269047D01*
X117323809Y-127345238D01*
X117285714Y-127383333D01*
X117209523Y-127421428D01*
X117057142Y-127459523D01*
X116866666Y-127459523D01*
X116714285Y-127421428D01*
X116638095Y-127383333D01*
X116600000Y-127345238D01*
X116561904Y-127269047D01*
X116828571Y-126659523D02*
X117361904Y-126659523D01*
X116904761Y-126659523D02*
X116866666Y-126621428D01*
X116828571Y-126545238D01*
X116828571Y-126430952D01*
X116866666Y-126354761D01*
X116942857Y-126316666D01*
X117361904Y-126316666D01*
X175214285Y-122122380D02*
X175214285Y-122836666D01*
X175166666Y-122979523D01*
X175071428Y-123074761D01*
X174928571Y-123122380D01*
X174833333Y-123122380D01*
X176214285Y-123122380D02*
X175642857Y-123122380D01*
X175928571Y-123122380D02*
X175928571Y-122122380D01*
X175833333Y-122265238D01*
X175738095Y-122360476D01*
X175642857Y-122408095D01*
X176833333Y-122122380D02*
X176928571Y-122122380D01*
X177023809Y-122170000D01*
X177071428Y-122217619D01*
X177119047Y-122312857D01*
X177166666Y-122503333D01*
X177166666Y-122741428D01*
X177119047Y-122931904D01*
X177071428Y-123027142D01*
X177023809Y-123074761D01*
X176928571Y-123122380D01*
X176833333Y-123122380D01*
X176738095Y-123074761D01*
X176690476Y-123027142D01*
X176642857Y-122931904D01*
X176595238Y-122741428D01*
X176595238Y-122503333D01*
X176642857Y-122312857D01*
X176690476Y-122217619D01*
X176738095Y-122170000D01*
X176833333Y-122122380D01*
X177642857Y-123122380D02*
X177833333Y-123122380D01*
X177928571Y-123074761D01*
X177976190Y-123027142D01*
X178071428Y-122884285D01*
X178119047Y-122693809D01*
X178119047Y-122312857D01*
X178071428Y-122217619D01*
X178023809Y-122170000D01*
X177928571Y-122122380D01*
X177738095Y-122122380D01*
X177642857Y-122170000D01*
X177595238Y-122217619D01*
X177547619Y-122312857D01*
X177547619Y-122550952D01*
X177595238Y-122646190D01*
X177642857Y-122693809D01*
X177738095Y-122741428D01*
X177928571Y-122741428D01*
X178023809Y-122693809D01*
X178071428Y-122646190D01*
X178119047Y-122550952D01*
X177857142Y-140880952D02*
X177904761Y-140928571D01*
X177952380Y-141071428D01*
X177952380Y-141166666D01*
X177904761Y-141309523D01*
X177809523Y-141404761D01*
X177714285Y-141452380D01*
X177523809Y-141500000D01*
X177380952Y-141500000D01*
X177190476Y-141452380D01*
X177095238Y-141404761D01*
X177000000Y-141309523D01*
X176952380Y-141166666D01*
X176952380Y-141071428D01*
X177000000Y-140928571D01*
X177047619Y-140880952D01*
X176952380Y-140595238D02*
X177952380Y-140261904D01*
X176952380Y-139928571D01*
X177571428Y-139595238D02*
X177571428Y-138833333D01*
X177000000Y-137833333D02*
X176952380Y-137928571D01*
X176952380Y-138071428D01*
X177000000Y-138214285D01*
X177095238Y-138309523D01*
X177190476Y-138357142D01*
X177380952Y-138404761D01*
X177523809Y-138404761D01*
X177714285Y-138357142D01*
X177809523Y-138309523D01*
X177904761Y-138214285D01*
X177952380Y-138071428D01*
X177952380Y-137976190D01*
X177904761Y-137833333D01*
X177857142Y-137785714D01*
X177523809Y-137785714D01*
X177523809Y-137976190D01*
X177380952Y-137214285D02*
X177333333Y-137309523D01*
X177285714Y-137357142D01*
X177190476Y-137404761D01*
X177142857Y-137404761D01*
X177047619Y-137357142D01*
X177000000Y-137309523D01*
X176952380Y-137214285D01*
X176952380Y-137023809D01*
X177000000Y-136928571D01*
X177047619Y-136880952D01*
X177142857Y-136833333D01*
X177190476Y-136833333D01*
X177285714Y-136880952D01*
X177333333Y-136928571D01*
X177380952Y-137023809D01*
X177380952Y-137214285D01*
X177428571Y-137309523D01*
X177476190Y-137357142D01*
X177571428Y-137404761D01*
X177761904Y-137404761D01*
X177857142Y-137357142D01*
X177904761Y-137309523D01*
X177952380Y-137214285D01*
X177952380Y-137023809D01*
X177904761Y-136928571D01*
X177857142Y-136880952D01*
X177761904Y-136833333D01*
X177571428Y-136833333D01*
X177476190Y-136880952D01*
X177428571Y-136928571D01*
X177380952Y-137023809D01*
X178047619Y-136642857D02*
X178047619Y-135880952D01*
X177428571Y-135309523D02*
X177476190Y-135166666D01*
X177523809Y-135119047D01*
X177619047Y-135071428D01*
X177761904Y-135071428D01*
X177857142Y-135119047D01*
X177904761Y-135166666D01*
X177952380Y-135261904D01*
X177952380Y-135642857D01*
X176952380Y-135642857D01*
X176952380Y-135309523D01*
X177000000Y-135214285D01*
X177047619Y-135166666D01*
X177142857Y-135119047D01*
X177238095Y-135119047D01*
X177333333Y-135166666D01*
X177380952Y-135214285D01*
X177428571Y-135309523D01*
X177428571Y-135642857D01*
X177952380Y-134214285D02*
X177428571Y-134214285D01*
X177333333Y-134261904D01*
X177285714Y-134357142D01*
X177285714Y-134547619D01*
X177333333Y-134642857D01*
X177904761Y-134214285D02*
X177952380Y-134309523D01*
X177952380Y-134547619D01*
X177904761Y-134642857D01*
X177809523Y-134690476D01*
X177714285Y-134690476D01*
X177619047Y-134642857D01*
X177571428Y-134547619D01*
X177571428Y-134309523D01*
X177523809Y-134214285D01*
X177904761Y-133785714D02*
X177952380Y-133690476D01*
X177952380Y-133500000D01*
X177904761Y-133404761D01*
X177809523Y-133357142D01*
X177761904Y-133357142D01*
X177666666Y-133404761D01*
X177619047Y-133500000D01*
X177619047Y-133642857D01*
X177571428Y-133738095D01*
X177476190Y-133785714D01*
X177428571Y-133785714D01*
X177333333Y-133738095D01*
X177285714Y-133642857D01*
X177285714Y-133500000D01*
X177333333Y-133404761D01*
X177904761Y-132547619D02*
X177952380Y-132642857D01*
X177952380Y-132833333D01*
X177904761Y-132928571D01*
X177809523Y-132976190D01*
X177428571Y-132976190D01*
X177333333Y-132928571D01*
X177285714Y-132833333D01*
X177285714Y-132642857D01*
X177333333Y-132547619D01*
X177428571Y-132500000D01*
X177523809Y-132500000D01*
X177619047Y-132976190D01*
X116252380Y-148285714D02*
X116966666Y-148285714D01*
X117109523Y-148333333D01*
X117204761Y-148428571D01*
X117252380Y-148571428D01*
X117252380Y-148666666D01*
X116347619Y-147857142D02*
X116300000Y-147809523D01*
X116252380Y-147714285D01*
X116252380Y-147476190D01*
X116300000Y-147380952D01*
X116347619Y-147333333D01*
X116442857Y-147285714D01*
X116538095Y-147285714D01*
X116680952Y-147333333D01*
X117252380Y-147904761D01*
X117252380Y-147285714D01*
X116252380Y-146666666D02*
X116252380Y-146571428D01*
X116300000Y-146476190D01*
X116347619Y-146428571D01*
X116442857Y-146380952D01*
X116633333Y-146333333D01*
X116871428Y-146333333D01*
X117061904Y-146380952D01*
X117157142Y-146428571D01*
X117204761Y-146476190D01*
X117252380Y-146571428D01*
X117252380Y-146666666D01*
X117204761Y-146761904D01*
X117157142Y-146809523D01*
X117061904Y-146857142D01*
X116871428Y-146904761D01*
X116633333Y-146904761D01*
X116442857Y-146857142D01*
X116347619Y-146809523D01*
X116300000Y-146761904D01*
X116252380Y-146666666D01*
X117252380Y-145380952D02*
X117252380Y-145952380D01*
X117252380Y-145666666D02*
X116252380Y-145666666D01*
X116395238Y-145761904D01*
X116490476Y-145857142D01*
X116538095Y-145952380D01*
X136252380Y-148285714D02*
X136966666Y-148285714D01*
X137109523Y-148333333D01*
X137204761Y-148428571D01*
X137252380Y-148571428D01*
X137252380Y-148666666D01*
X136347619Y-147857142D02*
X136300000Y-147809523D01*
X136252380Y-147714285D01*
X136252380Y-147476190D01*
X136300000Y-147380952D01*
X136347619Y-147333333D01*
X136442857Y-147285714D01*
X136538095Y-147285714D01*
X136680952Y-147333333D01*
X137252380Y-147904761D01*
X137252380Y-147285714D01*
X136252380Y-146666666D02*
X136252380Y-146571428D01*
X136300000Y-146476190D01*
X136347619Y-146428571D01*
X136442857Y-146380952D01*
X136633333Y-146333333D01*
X136871428Y-146333333D01*
X137061904Y-146380952D01*
X137157142Y-146428571D01*
X137204761Y-146476190D01*
X137252380Y-146571428D01*
X137252380Y-146666666D01*
X137204761Y-146761904D01*
X137157142Y-146809523D01*
X137061904Y-146857142D01*
X136871428Y-146904761D01*
X136633333Y-146904761D01*
X136442857Y-146857142D01*
X136347619Y-146809523D01*
X136300000Y-146761904D01*
X136252380Y-146666666D01*
X136347619Y-145952380D02*
X136300000Y-145904761D01*
X136252380Y-145809523D01*
X136252380Y-145571428D01*
X136300000Y-145476190D01*
X136347619Y-145428571D01*
X136442857Y-145380952D01*
X136538095Y-145380952D01*
X136680952Y-145428571D01*
X137252380Y-146000000D01*
X137252380Y-145380952D01*
X156252380Y-148285714D02*
X156966666Y-148285714D01*
X157109523Y-148333333D01*
X157204761Y-148428571D01*
X157252380Y-148571428D01*
X157252380Y-148666666D01*
X156347619Y-147857142D02*
X156300000Y-147809523D01*
X156252380Y-147714285D01*
X156252380Y-147476190D01*
X156300000Y-147380952D01*
X156347619Y-147333333D01*
X156442857Y-147285714D01*
X156538095Y-147285714D01*
X156680952Y-147333333D01*
X157252380Y-147904761D01*
X157252380Y-147285714D01*
X156252380Y-146666666D02*
X156252380Y-146571428D01*
X156300000Y-146476190D01*
X156347619Y-146428571D01*
X156442857Y-146380952D01*
X156633333Y-146333333D01*
X156871428Y-146333333D01*
X157061904Y-146380952D01*
X157157142Y-146428571D01*
X157204761Y-146476190D01*
X157252380Y-146571428D01*
X157252380Y-146666666D01*
X157204761Y-146761904D01*
X157157142Y-146809523D01*
X157061904Y-146857142D01*
X156871428Y-146904761D01*
X156633333Y-146904761D01*
X156442857Y-146857142D01*
X156347619Y-146809523D01*
X156300000Y-146761904D01*
X156252380Y-146666666D01*
X156252380Y-146000000D02*
X156252380Y-145380952D01*
X156633333Y-145714285D01*
X156633333Y-145571428D01*
X156680952Y-145476190D01*
X156728571Y-145428571D01*
X156823809Y-145380952D01*
X157061904Y-145380952D01*
X157157142Y-145428571D01*
X157204761Y-145476190D01*
X157252380Y-145571428D01*
X157252380Y-145857142D01*
X157204761Y-145952380D01*
X157157142Y-146000000D01*
X176252380Y-148285714D02*
X176966666Y-148285714D01*
X177109523Y-148333333D01*
X177204761Y-148428571D01*
X177252380Y-148571428D01*
X177252380Y-148666666D01*
X176347619Y-147857142D02*
X176300000Y-147809523D01*
X176252380Y-147714285D01*
X176252380Y-147476190D01*
X176300000Y-147380952D01*
X176347619Y-147333333D01*
X176442857Y-147285714D01*
X176538095Y-147285714D01*
X176680952Y-147333333D01*
X177252380Y-147904761D01*
X177252380Y-147285714D01*
X176252380Y-146666666D02*
X176252380Y-146571428D01*
X176300000Y-146476190D01*
X176347619Y-146428571D01*
X176442857Y-146380952D01*
X176633333Y-146333333D01*
X176871428Y-146333333D01*
X177061904Y-146380952D01*
X177157142Y-146428571D01*
X177204761Y-146476190D01*
X177252380Y-146571428D01*
X177252380Y-146666666D01*
X177204761Y-146761904D01*
X177157142Y-146809523D01*
X177061904Y-146857142D01*
X176871428Y-146904761D01*
X176633333Y-146904761D01*
X176442857Y-146857142D01*
X176347619Y-146809523D01*
X176300000Y-146761904D01*
X176252380Y-146666666D01*
X176585714Y-145476190D02*
X177252380Y-145476190D01*
X176204761Y-145714285D02*
X176919047Y-145952380D01*
X176919047Y-145333333D01*
M02*
