M48
; DRILL file {KiCad (5.1.0)-1} date 30/09/2019 23:49:42
; FORMAT={-:-/ absolute / metric / decimal}
; #@! TF.CreationDate,2019-09-30T23:49:42+02:00
; #@! TF.GenerationSoftware,Kicad,Pcbnew,(5.1.0)-1
; #@! TF.FileFunction,Plated,1,2,PTH
FMAT,2
METRIC
T1C0.400
T2C0.500
T3C0.900
T4C0.950
T5C1.000
T6C1.016
T7C1.300
%
G90
G05
T1
X102.0Y-76.0
X102.0Y-148.0
X104.25Y-123.75
X108.0Y-118.5
X110.0Y-70.5
X110.0Y-115.5
X110.0Y-134.25
X110.672Y-68.828
X115.0Y-76.0
X115.0Y-89.0
X115.0Y-95.0
X117.0Y-126.5
X120.0Y-105.75
X121.5Y-126.5
X129.912Y-69.912
X130.0Y-72.0
X131.5Y-113.45
X131.5Y-115.05
X134.5Y-129.0
X135.0Y-76.0
X135.0Y-89.0
X137.5Y-111.325
X137.5Y-115.05
X143.5Y-113.45
X143.5Y-115.05
X146.5Y-123.0
X146.5Y-129.0
X149.912Y-69.912
X150.0Y-72.0
X155.0Y-76.0
X155.0Y-89.0
X161.5Y-111.0
X161.5Y-123.0
X161.5Y-129.0
X168.5Y-123.0
X169.662Y-70.162
X170.0Y-72.0
X175.0Y-76.0
X175.0Y-89.0
X177.5Y-148.0
X178.0Y-95.0
X178.0Y-100.0
T2
X108.0Y-63.0
X117.0Y-129.0
X121.5Y-129.0
X127.0Y-63.0
X134.5Y-111.0
X134.5Y-113.25
X134.5Y-115.25
X140.75Y-115.25
X147.0Y-63.0
X167.0Y-63.0
T3
X128.5Y-55.5
X131.04Y-55.5
X108.5Y-55.5
X111.04Y-55.5
X148.5Y-55.5
X151.04Y-55.5
X168.5Y-55.5
X171.04Y-55.5
T4
X106.0Y-111.0
X108.5Y-111.0
X111.0Y-111.0
T5
X102.625Y-100.955
X105.165Y-100.955
X107.705Y-100.955
X110.245Y-100.955
X112.785Y-100.955
X115.325Y-100.955
X122.5Y-67.5
X122.5Y-70.0
X122.5Y-72.5
X123.8Y-101.0
X126.34Y-101.0
X128.88Y-101.0
X131.42Y-101.0
X133.96Y-101.0
X136.5Y-101.0
X102.5Y-67.5
X102.5Y-70.0
X102.5Y-72.5
X142.46Y-101.0
X145.0Y-101.0
X147.54Y-101.0
X176.5Y-125.0
X176.5Y-127.54
X176.5Y-130.08
X102.5Y-80.0
X102.5Y-82.54
X102.5Y-85.08
X102.5Y-87.62
X102.5Y-90.16
X102.5Y-92.7
X177.5Y-53.0
X177.5Y-55.54
X177.5Y-58.08
X153.46Y-101.0
X156.0Y-101.0
X162.5Y-67.5
X162.5Y-70.0
X162.5Y-72.5
X142.5Y-67.5
X142.5Y-70.0
X142.5Y-72.5
X163.46Y-101.0
X166.0Y-101.0
X102.5Y-52.92
X102.5Y-55.46
X102.5Y-58.0
T6
X172.71Y-104.84
X172.71Y-107.38
X172.71Y-109.92
X172.71Y-112.46
X172.71Y-115.0
X175.25Y-104.84
X175.25Y-107.38
X175.25Y-109.92
X175.25Y-112.46
X175.25Y-115.0
T7
X124.7Y-139.4
X127.4Y-140.6
X129.9Y-147.4
X134.0Y-136.2
X134.5Y-143.5
X104.7Y-139.4
X107.4Y-140.6
X109.9Y-147.4
X114.0Y-136.2
X114.5Y-143.5
X144.7Y-139.4
X147.4Y-140.6
X149.9Y-147.4
X154.0Y-136.2
X154.5Y-143.5
X164.7Y-139.4
X167.4Y-140.6
X169.9Y-147.4
X174.0Y-136.2
X174.5Y-143.5
T5
G00X169.35Y-84.3
M15
G01X170.65Y-84.3
M16
G05
G00X169.35Y-89.0
M15
G01X170.65Y-89.0
M16
G05
G00X169.35Y-93.7
M15
G01X170.65Y-93.7
M16
G05
G00X109.35Y-84.3
M15
G01X110.65Y-84.3
M16
G05
G00X109.35Y-89.0
M15
G01X110.65Y-89.0
M16
G05
G00X109.35Y-93.7
M15
G01X110.65Y-93.7
M16
G05
G00X149.35Y-84.3
M15
G01X150.65Y-84.3
M16
G05
G00X149.35Y-89.0
M15
G01X150.65Y-89.0
M16
G05
G00X149.35Y-93.7
M15
G01X150.65Y-93.7
M16
G05
G00X129.35Y-84.3
M15
G01X130.65Y-84.3
M16
G05
G00X129.35Y-89.0
M15
G01X130.65Y-89.0
M16
G05
G00X129.35Y-93.7
M15
G01X130.65Y-93.7
M16
G05
T0
M30
