%TF.GenerationSoftware,KiCad,Pcbnew,(5.1.0)-1*%
%TF.CreationDate,2019-09-30T23:49:38+02:00*%
%TF.ProjectId,KicadJE_SympleSeq,4b696361-644a-4455-9f53-796d706c6553,Rev A*%
%TF.SameCoordinates,Original*%
%TF.FileFunction,Soldermask,Bot*%
%TF.FilePolarity,Negative*%
%FSLAX46Y46*%
G04 Gerber Fmt 4.6, Leading zero omitted, Abs format (unit mm)*
G04 Created by KiCad (PCBNEW (5.1.0)-1) date 2019-09-30 23:49:38*
%MOMM*%
%LPD*%
G04 APERTURE LIST*
%ADD10C,1.000000*%
%ADD11C,0.150000*%
G04 APERTURE END LIST*
D10*
X105000000Y-96950000D02*
X105000000Y-97950000D01*
X175000000Y-96950000D02*
X175000000Y-97950000D01*
X105000000Y-96950000D02*
X175000000Y-96950000D01*
X175000000Y-97950000D02*
X105000000Y-97950000D01*
X180000000Y-50000000D02*
X100000000Y-50000000D01*
X180000000Y-150000000D02*
X180000000Y-50000000D01*
X100000000Y-150000000D02*
X180000000Y-150000000D01*
X100000000Y-50000000D02*
X100000000Y-150000000D01*
D11*
G36*
X131054845Y-146118810D02*
G01*
X131299896Y-146193145D01*
X131525736Y-146313860D01*
X131723687Y-146476313D01*
X131886140Y-146674264D01*
X132006855Y-146900104D01*
X132081190Y-147145155D01*
X132106290Y-147400000D01*
X132081190Y-147654845D01*
X132006855Y-147899896D01*
X131886140Y-148125736D01*
X131723687Y-148323687D01*
X131525736Y-148486140D01*
X131299896Y-148606855D01*
X131054845Y-148681190D01*
X130863864Y-148700000D01*
X128936136Y-148700000D01*
X128745155Y-148681190D01*
X128500104Y-148606855D01*
X128274264Y-148486140D01*
X128076313Y-148323687D01*
X127913860Y-148125736D01*
X127793145Y-147899896D01*
X127718810Y-147654845D01*
X127693710Y-147400000D01*
X127718810Y-147145155D01*
X127793145Y-146900104D01*
X127913860Y-146674264D01*
X128076313Y-146476313D01*
X128274264Y-146313860D01*
X128500104Y-146193145D01*
X128745155Y-146118810D01*
X128936136Y-146100000D01*
X130863864Y-146100000D01*
X131054845Y-146118810D01*
X131054845Y-146118810D01*
G37*
G36*
X151054845Y-146118810D02*
G01*
X151299896Y-146193145D01*
X151525736Y-146313860D01*
X151723687Y-146476313D01*
X151886140Y-146674264D01*
X152006855Y-146900104D01*
X152081190Y-147145155D01*
X152106290Y-147400000D01*
X152081190Y-147654845D01*
X152006855Y-147899896D01*
X151886140Y-148125736D01*
X151723687Y-148323687D01*
X151525736Y-148486140D01*
X151299896Y-148606855D01*
X151054845Y-148681190D01*
X150863864Y-148700000D01*
X148936136Y-148700000D01*
X148745155Y-148681190D01*
X148500104Y-148606855D01*
X148274264Y-148486140D01*
X148076313Y-148323687D01*
X147913860Y-148125736D01*
X147793145Y-147899896D01*
X147718810Y-147654845D01*
X147693710Y-147400000D01*
X147718810Y-147145155D01*
X147793145Y-146900104D01*
X147913860Y-146674264D01*
X148076313Y-146476313D01*
X148274264Y-146313860D01*
X148500104Y-146193145D01*
X148745155Y-146118810D01*
X148936136Y-146100000D01*
X150863864Y-146100000D01*
X151054845Y-146118810D01*
X151054845Y-146118810D01*
G37*
G36*
X171054845Y-146118810D02*
G01*
X171299896Y-146193145D01*
X171525736Y-146313860D01*
X171723687Y-146476313D01*
X171886140Y-146674264D01*
X172006855Y-146900104D01*
X172081190Y-147145155D01*
X172106290Y-147400000D01*
X172081190Y-147654845D01*
X172006855Y-147899896D01*
X171886140Y-148125736D01*
X171723687Y-148323687D01*
X171525736Y-148486140D01*
X171299896Y-148606855D01*
X171054845Y-148681190D01*
X170863864Y-148700000D01*
X168936136Y-148700000D01*
X168745155Y-148681190D01*
X168500104Y-148606855D01*
X168274264Y-148486140D01*
X168076313Y-148323687D01*
X167913860Y-148125736D01*
X167793145Y-147899896D01*
X167718810Y-147654845D01*
X167693710Y-147400000D01*
X167718810Y-147145155D01*
X167793145Y-146900104D01*
X167913860Y-146674264D01*
X168076313Y-146476313D01*
X168274264Y-146313860D01*
X168500104Y-146193145D01*
X168745155Y-146118810D01*
X168936136Y-146100000D01*
X170863864Y-146100000D01*
X171054845Y-146118810D01*
X171054845Y-146118810D01*
G37*
G36*
X111054845Y-146118810D02*
G01*
X111299896Y-146193145D01*
X111525736Y-146313860D01*
X111723687Y-146476313D01*
X111886140Y-146674264D01*
X112006855Y-146900104D01*
X112081190Y-147145155D01*
X112106290Y-147400000D01*
X112081190Y-147654845D01*
X112006855Y-147899896D01*
X111886140Y-148125736D01*
X111723687Y-148323687D01*
X111525736Y-148486140D01*
X111299896Y-148606855D01*
X111054845Y-148681190D01*
X110863864Y-148700000D01*
X108936136Y-148700000D01*
X108745155Y-148681190D01*
X108500104Y-148606855D01*
X108274264Y-148486140D01*
X108076313Y-148323687D01*
X107913860Y-148125736D01*
X107793145Y-147899896D01*
X107718810Y-147654845D01*
X107693710Y-147400000D01*
X107718810Y-147145155D01*
X107793145Y-146900104D01*
X107913860Y-146674264D01*
X108076313Y-146476313D01*
X108274264Y-146313860D01*
X108500104Y-146193145D01*
X108745155Y-146118810D01*
X108936136Y-146100000D01*
X110863864Y-146100000D01*
X111054845Y-146118810D01*
X111054845Y-146118810D01*
G37*
G36*
X175800000Y-145700000D02*
G01*
X173200000Y-145700000D01*
X173200000Y-141300000D01*
X175800000Y-141300000D01*
X175800000Y-145700000D01*
X175800000Y-145700000D01*
G37*
G36*
X155800000Y-145700000D02*
G01*
X153200000Y-145700000D01*
X153200000Y-141300000D01*
X155800000Y-141300000D01*
X155800000Y-145700000D01*
X155800000Y-145700000D01*
G37*
G36*
X135800000Y-145700000D02*
G01*
X133200000Y-145700000D01*
X133200000Y-141300000D01*
X135800000Y-141300000D01*
X135800000Y-145700000D01*
X135800000Y-145700000D01*
G37*
G36*
X115800000Y-145700000D02*
G01*
X113200000Y-145700000D01*
X113200000Y-141300000D01*
X115800000Y-141300000D01*
X115800000Y-145700000D01*
X115800000Y-145700000D01*
G37*
G36*
X104954844Y-137218810D02*
G01*
X105199895Y-137293145D01*
X105425735Y-137413860D01*
X105623687Y-137576313D01*
X105786140Y-137774264D01*
X105906855Y-138000104D01*
X105981190Y-138245155D01*
X106000000Y-138436136D01*
X106000000Y-139062432D01*
X106002402Y-139086818D01*
X106009515Y-139110267D01*
X106021066Y-139131878D01*
X106036611Y-139150820D01*
X106055553Y-139166365D01*
X106077164Y-139177916D01*
X106100613Y-139185029D01*
X106124999Y-139187431D01*
X106149385Y-139185029D01*
X106172834Y-139177916D01*
X106194445Y-139166365D01*
X106213387Y-139150820D01*
X106235238Y-139121356D01*
X106266734Y-139062432D01*
X106313860Y-138974265D01*
X106476313Y-138776313D01*
X106674264Y-138613860D01*
X106900104Y-138493145D01*
X107145155Y-138418810D01*
X107400000Y-138393710D01*
X107654844Y-138418810D01*
X107899895Y-138493145D01*
X108125735Y-138613860D01*
X108323687Y-138776313D01*
X108486140Y-138974264D01*
X108606855Y-139200104D01*
X108681190Y-139445155D01*
X108700000Y-139636136D01*
X108700000Y-141563864D01*
X108681190Y-141754845D01*
X108606855Y-141999896D01*
X108486140Y-142225736D01*
X108323687Y-142423687D01*
X108125736Y-142586140D01*
X107899896Y-142706855D01*
X107654845Y-142781190D01*
X107400000Y-142806290D01*
X107145156Y-142781190D01*
X106900105Y-142706855D01*
X106674265Y-142586140D01*
X106476314Y-142423687D01*
X106313861Y-142225736D01*
X106193146Y-141999896D01*
X106118811Y-141754845D01*
X106100000Y-141563864D01*
X106100000Y-140937569D01*
X106097598Y-140913183D01*
X106090485Y-140889734D01*
X106078934Y-140868123D01*
X106063389Y-140849181D01*
X106044447Y-140833636D01*
X106022836Y-140822085D01*
X105999387Y-140814972D01*
X105975001Y-140812570D01*
X105950615Y-140814972D01*
X105927166Y-140822085D01*
X105905555Y-140833636D01*
X105886613Y-140849181D01*
X105864764Y-140878643D01*
X105786140Y-141025736D01*
X105623687Y-141223687D01*
X105425736Y-141386140D01*
X105199896Y-141506855D01*
X104954845Y-141581190D01*
X104700000Y-141606290D01*
X104445156Y-141581190D01*
X104200105Y-141506855D01*
X103974265Y-141386140D01*
X103776314Y-141223687D01*
X103613861Y-141025736D01*
X103493146Y-140799896D01*
X103418811Y-140554845D01*
X103400000Y-140363864D01*
X103400000Y-138436137D01*
X103418810Y-138245156D01*
X103493145Y-138000105D01*
X103613860Y-137774265D01*
X103776313Y-137576313D01*
X103974264Y-137413860D01*
X104200104Y-137293145D01*
X104445155Y-137218810D01*
X104700000Y-137193710D01*
X104954844Y-137218810D01*
X104954844Y-137218810D01*
G37*
G36*
X144954844Y-137218810D02*
G01*
X145199895Y-137293145D01*
X145425735Y-137413860D01*
X145623687Y-137576313D01*
X145786140Y-137774264D01*
X145906855Y-138000104D01*
X145981190Y-138245155D01*
X146000000Y-138436136D01*
X146000000Y-139062432D01*
X146002402Y-139086818D01*
X146009515Y-139110267D01*
X146021066Y-139131878D01*
X146036611Y-139150820D01*
X146055553Y-139166365D01*
X146077164Y-139177916D01*
X146100613Y-139185029D01*
X146124999Y-139187431D01*
X146149385Y-139185029D01*
X146172834Y-139177916D01*
X146194445Y-139166365D01*
X146213387Y-139150820D01*
X146235238Y-139121356D01*
X146266734Y-139062432D01*
X146313860Y-138974265D01*
X146476313Y-138776313D01*
X146674264Y-138613860D01*
X146900104Y-138493145D01*
X147145155Y-138418810D01*
X147400000Y-138393710D01*
X147654844Y-138418810D01*
X147899895Y-138493145D01*
X148125735Y-138613860D01*
X148323687Y-138776313D01*
X148486140Y-138974264D01*
X148606855Y-139200104D01*
X148681190Y-139445155D01*
X148700000Y-139636136D01*
X148700000Y-141563864D01*
X148681190Y-141754845D01*
X148606855Y-141999896D01*
X148486140Y-142225736D01*
X148323687Y-142423687D01*
X148125736Y-142586140D01*
X147899896Y-142706855D01*
X147654845Y-142781190D01*
X147400000Y-142806290D01*
X147145156Y-142781190D01*
X146900105Y-142706855D01*
X146674265Y-142586140D01*
X146476314Y-142423687D01*
X146313861Y-142225736D01*
X146193146Y-141999896D01*
X146118811Y-141754845D01*
X146100000Y-141563864D01*
X146100000Y-140937569D01*
X146097598Y-140913183D01*
X146090485Y-140889734D01*
X146078934Y-140868123D01*
X146063389Y-140849181D01*
X146044447Y-140833636D01*
X146022836Y-140822085D01*
X145999387Y-140814972D01*
X145975001Y-140812570D01*
X145950615Y-140814972D01*
X145927166Y-140822085D01*
X145905555Y-140833636D01*
X145886613Y-140849181D01*
X145864764Y-140878643D01*
X145786140Y-141025736D01*
X145623687Y-141223687D01*
X145425736Y-141386140D01*
X145199896Y-141506855D01*
X144954845Y-141581190D01*
X144700000Y-141606290D01*
X144445156Y-141581190D01*
X144200105Y-141506855D01*
X143974265Y-141386140D01*
X143776314Y-141223687D01*
X143613861Y-141025736D01*
X143493146Y-140799896D01*
X143418811Y-140554845D01*
X143400000Y-140363864D01*
X143400000Y-138436137D01*
X143418810Y-138245156D01*
X143493145Y-138000105D01*
X143613860Y-137774265D01*
X143776313Y-137576313D01*
X143974264Y-137413860D01*
X144200104Y-137293145D01*
X144445155Y-137218810D01*
X144700000Y-137193710D01*
X144954844Y-137218810D01*
X144954844Y-137218810D01*
G37*
G36*
X164954844Y-137218810D02*
G01*
X165199895Y-137293145D01*
X165425735Y-137413860D01*
X165623687Y-137576313D01*
X165786140Y-137774264D01*
X165906855Y-138000104D01*
X165981190Y-138245155D01*
X166000000Y-138436136D01*
X166000000Y-139062432D01*
X166002402Y-139086818D01*
X166009515Y-139110267D01*
X166021066Y-139131878D01*
X166036611Y-139150820D01*
X166055553Y-139166365D01*
X166077164Y-139177916D01*
X166100613Y-139185029D01*
X166124999Y-139187431D01*
X166149385Y-139185029D01*
X166172834Y-139177916D01*
X166194445Y-139166365D01*
X166213387Y-139150820D01*
X166235238Y-139121356D01*
X166266734Y-139062432D01*
X166313860Y-138974265D01*
X166476313Y-138776313D01*
X166674264Y-138613860D01*
X166900104Y-138493145D01*
X167145155Y-138418810D01*
X167400000Y-138393710D01*
X167654844Y-138418810D01*
X167899895Y-138493145D01*
X168125735Y-138613860D01*
X168323687Y-138776313D01*
X168486140Y-138974264D01*
X168606855Y-139200104D01*
X168681190Y-139445155D01*
X168700000Y-139636136D01*
X168700000Y-141563864D01*
X168681190Y-141754845D01*
X168606855Y-141999896D01*
X168486140Y-142225736D01*
X168323687Y-142423687D01*
X168125736Y-142586140D01*
X167899896Y-142706855D01*
X167654845Y-142781190D01*
X167400000Y-142806290D01*
X167145156Y-142781190D01*
X166900105Y-142706855D01*
X166674265Y-142586140D01*
X166476314Y-142423687D01*
X166313861Y-142225736D01*
X166193146Y-141999896D01*
X166118811Y-141754845D01*
X166100000Y-141563864D01*
X166100000Y-140937569D01*
X166097598Y-140913183D01*
X166090485Y-140889734D01*
X166078934Y-140868123D01*
X166063389Y-140849181D01*
X166044447Y-140833636D01*
X166022836Y-140822085D01*
X165999387Y-140814972D01*
X165975001Y-140812570D01*
X165950615Y-140814972D01*
X165927166Y-140822085D01*
X165905555Y-140833636D01*
X165886613Y-140849181D01*
X165864764Y-140878643D01*
X165786140Y-141025736D01*
X165623687Y-141223687D01*
X165425736Y-141386140D01*
X165199896Y-141506855D01*
X164954845Y-141581190D01*
X164700000Y-141606290D01*
X164445156Y-141581190D01*
X164200105Y-141506855D01*
X163974265Y-141386140D01*
X163776314Y-141223687D01*
X163613861Y-141025736D01*
X163493146Y-140799896D01*
X163418811Y-140554845D01*
X163400000Y-140363864D01*
X163400000Y-138436137D01*
X163418810Y-138245156D01*
X163493145Y-138000105D01*
X163613860Y-137774265D01*
X163776313Y-137576313D01*
X163974264Y-137413860D01*
X164200104Y-137293145D01*
X164445155Y-137218810D01*
X164700000Y-137193710D01*
X164954844Y-137218810D01*
X164954844Y-137218810D01*
G37*
G36*
X124954844Y-137218810D02*
G01*
X125199895Y-137293145D01*
X125425735Y-137413860D01*
X125623687Y-137576313D01*
X125786140Y-137774264D01*
X125906855Y-138000104D01*
X125981190Y-138245155D01*
X126000000Y-138436136D01*
X126000000Y-139062432D01*
X126002402Y-139086818D01*
X126009515Y-139110267D01*
X126021066Y-139131878D01*
X126036611Y-139150820D01*
X126055553Y-139166365D01*
X126077164Y-139177916D01*
X126100613Y-139185029D01*
X126124999Y-139187431D01*
X126149385Y-139185029D01*
X126172834Y-139177916D01*
X126194445Y-139166365D01*
X126213387Y-139150820D01*
X126235238Y-139121356D01*
X126266734Y-139062432D01*
X126313860Y-138974265D01*
X126476313Y-138776313D01*
X126674264Y-138613860D01*
X126900104Y-138493145D01*
X127145155Y-138418810D01*
X127400000Y-138393710D01*
X127654844Y-138418810D01*
X127899895Y-138493145D01*
X128125735Y-138613860D01*
X128323687Y-138776313D01*
X128486140Y-138974264D01*
X128606855Y-139200104D01*
X128681190Y-139445155D01*
X128700000Y-139636136D01*
X128700000Y-141563864D01*
X128681190Y-141754845D01*
X128606855Y-141999896D01*
X128486140Y-142225736D01*
X128323687Y-142423687D01*
X128125736Y-142586140D01*
X127899896Y-142706855D01*
X127654845Y-142781190D01*
X127400000Y-142806290D01*
X127145156Y-142781190D01*
X126900105Y-142706855D01*
X126674265Y-142586140D01*
X126476314Y-142423687D01*
X126313861Y-142225736D01*
X126193146Y-141999896D01*
X126118811Y-141754845D01*
X126100000Y-141563864D01*
X126100000Y-140937569D01*
X126097598Y-140913183D01*
X126090485Y-140889734D01*
X126078934Y-140868123D01*
X126063389Y-140849181D01*
X126044447Y-140833636D01*
X126022836Y-140822085D01*
X125999387Y-140814972D01*
X125975001Y-140812570D01*
X125950615Y-140814972D01*
X125927166Y-140822085D01*
X125905555Y-140833636D01*
X125886613Y-140849181D01*
X125864764Y-140878643D01*
X125786140Y-141025736D01*
X125623687Y-141223687D01*
X125425736Y-141386140D01*
X125199896Y-141506855D01*
X124954845Y-141581190D01*
X124700000Y-141606290D01*
X124445156Y-141581190D01*
X124200105Y-141506855D01*
X123974265Y-141386140D01*
X123776314Y-141223687D01*
X123613861Y-141025736D01*
X123493146Y-140799896D01*
X123418811Y-140554845D01*
X123400000Y-140363864D01*
X123400000Y-138436137D01*
X123418810Y-138245156D01*
X123493145Y-138000105D01*
X123613860Y-137774265D01*
X123776313Y-137576313D01*
X123974264Y-137413860D01*
X124200104Y-137293145D01*
X124445155Y-137218810D01*
X124700000Y-137193710D01*
X124954844Y-137218810D01*
X124954844Y-137218810D01*
G37*
G36*
X135154845Y-134918810D02*
G01*
X135399896Y-134993145D01*
X135625736Y-135113860D01*
X135823687Y-135276313D01*
X135986140Y-135474264D01*
X136106855Y-135700104D01*
X136181190Y-135945155D01*
X136206290Y-136200000D01*
X136181190Y-136454845D01*
X136106855Y-136699896D01*
X135986140Y-136925736D01*
X135823687Y-137123687D01*
X135625736Y-137286140D01*
X135399896Y-137406855D01*
X135154845Y-137481190D01*
X134963864Y-137500000D01*
X133036136Y-137500000D01*
X132845155Y-137481190D01*
X132600104Y-137406855D01*
X132374264Y-137286140D01*
X132176313Y-137123687D01*
X132013860Y-136925736D01*
X131893145Y-136699896D01*
X131818810Y-136454845D01*
X131793710Y-136200000D01*
X131818810Y-135945155D01*
X131893145Y-135700104D01*
X132013860Y-135474264D01*
X132176313Y-135276313D01*
X132374264Y-135113860D01*
X132600104Y-134993145D01*
X132845155Y-134918810D01*
X133036136Y-134900000D01*
X134963864Y-134900000D01*
X135154845Y-134918810D01*
X135154845Y-134918810D01*
G37*
G36*
X115154845Y-134918810D02*
G01*
X115399896Y-134993145D01*
X115625736Y-135113860D01*
X115823687Y-135276313D01*
X115986140Y-135474264D01*
X116106855Y-135700104D01*
X116181190Y-135945155D01*
X116206290Y-136200000D01*
X116181190Y-136454845D01*
X116106855Y-136699896D01*
X115986140Y-136925736D01*
X115823687Y-137123687D01*
X115625736Y-137286140D01*
X115399896Y-137406855D01*
X115154845Y-137481190D01*
X114963864Y-137500000D01*
X113036136Y-137500000D01*
X112845155Y-137481190D01*
X112600104Y-137406855D01*
X112374264Y-137286140D01*
X112176313Y-137123687D01*
X112013860Y-136925736D01*
X111893145Y-136699896D01*
X111818810Y-136454845D01*
X111793710Y-136200000D01*
X111818810Y-135945155D01*
X111893145Y-135700104D01*
X112013860Y-135474264D01*
X112176313Y-135276313D01*
X112374264Y-135113860D01*
X112600104Y-134993145D01*
X112845155Y-134918810D01*
X113036136Y-134900000D01*
X114963864Y-134900000D01*
X115154845Y-134918810D01*
X115154845Y-134918810D01*
G37*
G36*
X175154845Y-134918810D02*
G01*
X175399896Y-134993145D01*
X175625736Y-135113860D01*
X175823687Y-135276313D01*
X175986140Y-135474264D01*
X176106855Y-135700104D01*
X176181190Y-135945155D01*
X176206290Y-136200000D01*
X176181190Y-136454845D01*
X176106855Y-136699896D01*
X175986140Y-136925736D01*
X175823687Y-137123687D01*
X175625736Y-137286140D01*
X175399896Y-137406855D01*
X175154845Y-137481190D01*
X174963864Y-137500000D01*
X173036136Y-137500000D01*
X172845155Y-137481190D01*
X172600104Y-137406855D01*
X172374264Y-137286140D01*
X172176313Y-137123687D01*
X172013860Y-136925736D01*
X171893145Y-136699896D01*
X171818810Y-136454845D01*
X171793710Y-136200000D01*
X171818810Y-135945155D01*
X171893145Y-135700104D01*
X172013860Y-135474264D01*
X172176313Y-135276313D01*
X172374264Y-135113860D01*
X172600104Y-134993145D01*
X172845155Y-134918810D01*
X173036136Y-134900000D01*
X174963864Y-134900000D01*
X175154845Y-134918810D01*
X175154845Y-134918810D01*
G37*
G36*
X155154845Y-134918810D02*
G01*
X155399896Y-134993145D01*
X155625736Y-135113860D01*
X155823687Y-135276313D01*
X155986140Y-135474264D01*
X156106855Y-135700104D01*
X156181190Y-135945155D01*
X156206290Y-136200000D01*
X156181190Y-136454845D01*
X156106855Y-136699896D01*
X155986140Y-136925736D01*
X155823687Y-137123687D01*
X155625736Y-137286140D01*
X155399896Y-137406855D01*
X155154845Y-137481190D01*
X154963864Y-137500000D01*
X153036136Y-137500000D01*
X152845155Y-137481190D01*
X152600104Y-137406855D01*
X152374264Y-137286140D01*
X152176313Y-137123687D01*
X152013860Y-136925736D01*
X151893145Y-136699896D01*
X151818810Y-136454845D01*
X151793710Y-136200000D01*
X151818810Y-135945155D01*
X151893145Y-135700104D01*
X152013860Y-135474264D01*
X152176313Y-135276313D01*
X152374264Y-135113860D01*
X152600104Y-134993145D01*
X152845155Y-134918810D01*
X153036136Y-134900000D01*
X154963864Y-134900000D01*
X155154845Y-134918810D01*
X155154845Y-134918810D01*
G37*
G36*
X176628707Y-129037596D02*
G01*
X176705836Y-129045193D01*
X176903762Y-129105233D01*
X176903765Y-129105234D01*
X177086170Y-129202732D01*
X177246055Y-129333945D01*
X177377268Y-129493830D01*
X177474766Y-129676235D01*
X177474767Y-129676238D01*
X177534807Y-129874164D01*
X177555080Y-130080000D01*
X177534807Y-130285836D01*
X177474767Y-130483762D01*
X177474766Y-130483765D01*
X177377268Y-130666170D01*
X177246055Y-130826055D01*
X177086170Y-130957268D01*
X176903765Y-131054766D01*
X176903762Y-131054767D01*
X176705836Y-131114807D01*
X176628707Y-131122404D01*
X176551580Y-131130000D01*
X176448420Y-131130000D01*
X176371293Y-131122404D01*
X176294164Y-131114807D01*
X176096238Y-131054767D01*
X176096235Y-131054766D01*
X175913830Y-130957268D01*
X175753945Y-130826055D01*
X175622732Y-130666170D01*
X175525234Y-130483765D01*
X175525233Y-130483762D01*
X175465193Y-130285836D01*
X175444920Y-130080000D01*
X175465193Y-129874164D01*
X175525233Y-129676238D01*
X175525234Y-129676235D01*
X175622732Y-129493830D01*
X175753945Y-129333945D01*
X175913830Y-129202732D01*
X176096235Y-129105234D01*
X176096238Y-129105233D01*
X176294164Y-129045193D01*
X176371293Y-129037596D01*
X176448420Y-129030000D01*
X176551580Y-129030000D01*
X176628707Y-129037596D01*
X176628707Y-129037596D01*
G37*
G36*
X176628707Y-126497596D02*
G01*
X176705836Y-126505193D01*
X176903762Y-126565233D01*
X176903765Y-126565234D01*
X177086170Y-126662732D01*
X177246055Y-126793945D01*
X177377268Y-126953830D01*
X177474766Y-127136235D01*
X177474767Y-127136238D01*
X177534807Y-127334164D01*
X177555080Y-127540000D01*
X177534807Y-127745836D01*
X177474767Y-127943762D01*
X177474766Y-127943765D01*
X177377268Y-128126170D01*
X177246055Y-128286055D01*
X177086170Y-128417268D01*
X176903765Y-128514766D01*
X176903762Y-128514767D01*
X176705836Y-128574807D01*
X176628707Y-128582404D01*
X176551580Y-128590000D01*
X176448420Y-128590000D01*
X176371293Y-128582404D01*
X176294164Y-128574807D01*
X176096238Y-128514767D01*
X176096235Y-128514766D01*
X175913830Y-128417268D01*
X175753945Y-128286055D01*
X175622732Y-128126170D01*
X175525234Y-127943765D01*
X175525233Y-127943762D01*
X175465193Y-127745836D01*
X175444920Y-127540000D01*
X175465193Y-127334164D01*
X175525233Y-127136238D01*
X175525234Y-127136235D01*
X175622732Y-126953830D01*
X175753945Y-126793945D01*
X175913830Y-126662732D01*
X176096235Y-126565234D01*
X176096238Y-126565233D01*
X176294164Y-126505193D01*
X176371293Y-126497596D01*
X176448420Y-126490000D01*
X176551580Y-126490000D01*
X176628707Y-126497596D01*
X176628707Y-126497596D01*
G37*
G36*
X177550000Y-126050000D02*
G01*
X175450000Y-126050000D01*
X175450000Y-123950000D01*
X177550000Y-123950000D01*
X177550000Y-126050000D01*
X177550000Y-126050000D01*
G37*
G36*
X178882481Y-114330186D02*
G01*
X178927205Y-114343754D01*
X178968430Y-114365789D01*
X179004561Y-114395439D01*
X179034211Y-114431570D01*
X179056246Y-114472795D01*
X179069814Y-114517519D01*
X179075000Y-114570176D01*
X179075000Y-115904824D01*
X179069814Y-115957481D01*
X179056246Y-116002205D01*
X179034211Y-116043430D01*
X179004561Y-116079561D01*
X178968430Y-116109211D01*
X178927205Y-116131246D01*
X178882481Y-116144814D01*
X178829824Y-116150000D01*
X177170176Y-116150000D01*
X177117519Y-116144814D01*
X177072795Y-116131246D01*
X177031570Y-116109211D01*
X176995439Y-116079561D01*
X176965789Y-116043430D01*
X176943754Y-116002205D01*
X176930186Y-115957481D01*
X176925000Y-115904824D01*
X176925000Y-114570176D01*
X176930186Y-114517519D01*
X176943754Y-114472795D01*
X176965789Y-114431570D01*
X176995439Y-114395439D01*
X177031570Y-114365789D01*
X177072795Y-114343754D01*
X177117519Y-114330186D01*
X177170176Y-114325000D01*
X178829824Y-114325000D01*
X178882481Y-114330186D01*
X178882481Y-114330186D01*
G37*
G36*
X172918500Y-113951789D02*
G01*
X173118994Y-114012608D01*
X173303759Y-114111367D01*
X173303762Y-114111369D01*
X173303763Y-114111370D01*
X173465718Y-114244282D01*
X173589768Y-114395439D01*
X173598633Y-114406241D01*
X173697392Y-114591006D01*
X173758211Y-114791500D01*
X173778746Y-115000000D01*
X173758211Y-115208500D01*
X173697392Y-115408994D01*
X173598633Y-115593759D01*
X173598631Y-115593762D01*
X173598630Y-115593763D01*
X173465718Y-115755718D01*
X173303763Y-115888630D01*
X173303759Y-115888633D01*
X173118994Y-115987392D01*
X172918500Y-116048211D01*
X172762251Y-116063600D01*
X172657749Y-116063600D01*
X172501500Y-116048211D01*
X172301006Y-115987392D01*
X172116241Y-115888633D01*
X172116237Y-115888630D01*
X171954282Y-115755718D01*
X171821370Y-115593763D01*
X171821369Y-115593762D01*
X171821367Y-115593759D01*
X171722608Y-115408994D01*
X171661789Y-115208500D01*
X171641254Y-115000000D01*
X171661789Y-114791500D01*
X171722608Y-114591006D01*
X171821367Y-114406241D01*
X171830232Y-114395439D01*
X171954282Y-114244282D01*
X172116237Y-114111370D01*
X172116238Y-114111369D01*
X172116241Y-114111367D01*
X172301006Y-114012608D01*
X172501500Y-113951789D01*
X172657749Y-113936400D01*
X172762251Y-113936400D01*
X172918500Y-113951789D01*
X172918500Y-113951789D01*
G37*
G36*
X176313600Y-116063600D02*
G01*
X174186400Y-116063600D01*
X174186400Y-113936400D01*
X176313600Y-113936400D01*
X176313600Y-116063600D01*
X176313600Y-116063600D01*
G37*
G36*
X172918500Y-111411789D02*
G01*
X173118994Y-111472608D01*
X173303759Y-111571367D01*
X173303762Y-111571369D01*
X173303763Y-111571370D01*
X173465718Y-111704282D01*
X173598630Y-111866237D01*
X173598633Y-111866241D01*
X173697392Y-112051006D01*
X173758211Y-112251500D01*
X173778746Y-112460000D01*
X173758211Y-112668500D01*
X173697392Y-112868994D01*
X173598633Y-113053759D01*
X173598631Y-113053762D01*
X173598630Y-113053763D01*
X173465718Y-113215718D01*
X173303763Y-113348630D01*
X173303759Y-113348633D01*
X173118994Y-113447392D01*
X172918500Y-113508211D01*
X172762251Y-113523600D01*
X172657749Y-113523600D01*
X172501500Y-113508211D01*
X172301006Y-113447392D01*
X172116241Y-113348633D01*
X172116237Y-113348630D01*
X171954282Y-113215718D01*
X171821370Y-113053763D01*
X171821369Y-113053762D01*
X171821367Y-113053759D01*
X171722608Y-112868994D01*
X171661789Y-112668500D01*
X171641254Y-112460000D01*
X171661789Y-112251500D01*
X171722608Y-112051006D01*
X171821367Y-111866241D01*
X171821370Y-111866237D01*
X171954282Y-111704282D01*
X172116237Y-111571370D01*
X172116238Y-111571369D01*
X172116241Y-111571367D01*
X172301006Y-111472608D01*
X172501500Y-111411789D01*
X172657749Y-111396400D01*
X172762251Y-111396400D01*
X172918500Y-111411789D01*
X172918500Y-111411789D01*
G37*
G36*
X175458500Y-111411789D02*
G01*
X175658994Y-111472608D01*
X175843759Y-111571367D01*
X175843762Y-111571369D01*
X175843763Y-111571370D01*
X176005718Y-111704282D01*
X176138630Y-111866237D01*
X176138633Y-111866241D01*
X176237392Y-112051006D01*
X176298211Y-112251500D01*
X176318746Y-112460000D01*
X176298211Y-112668500D01*
X176237392Y-112868994D01*
X176138633Y-113053759D01*
X176138631Y-113053762D01*
X176138630Y-113053763D01*
X176005718Y-113215718D01*
X175843763Y-113348630D01*
X175843759Y-113348633D01*
X175658994Y-113447392D01*
X175458500Y-113508211D01*
X175302251Y-113523600D01*
X175197749Y-113523600D01*
X175041500Y-113508211D01*
X174841006Y-113447392D01*
X174656241Y-113348633D01*
X174656237Y-113348630D01*
X174494282Y-113215718D01*
X174361370Y-113053763D01*
X174361369Y-113053762D01*
X174361367Y-113053759D01*
X174262608Y-112868994D01*
X174201789Y-112668500D01*
X174181254Y-112460000D01*
X174201789Y-112251500D01*
X174262608Y-112051006D01*
X174361367Y-111866241D01*
X174361370Y-111866237D01*
X174494282Y-111704282D01*
X174656237Y-111571370D01*
X174656238Y-111571369D01*
X174656241Y-111571367D01*
X174841006Y-111472608D01*
X175041500Y-111411789D01*
X175197749Y-111396400D01*
X175302251Y-111396400D01*
X175458500Y-111411789D01*
X175458500Y-111411789D01*
G37*
G36*
X178882481Y-111355186D02*
G01*
X178927205Y-111368754D01*
X178968430Y-111390789D01*
X179004561Y-111420439D01*
X179034211Y-111456570D01*
X179056246Y-111497795D01*
X179069814Y-111542519D01*
X179075000Y-111595176D01*
X179075000Y-112929824D01*
X179069814Y-112982481D01*
X179056246Y-113027205D01*
X179034211Y-113068430D01*
X179004561Y-113104561D01*
X178968430Y-113134211D01*
X178927205Y-113156246D01*
X178882481Y-113169814D01*
X178829824Y-113175000D01*
X177170176Y-113175000D01*
X177117519Y-113169814D01*
X177072795Y-113156246D01*
X177031570Y-113134211D01*
X176995439Y-113104561D01*
X176965789Y-113068430D01*
X176943754Y-113027205D01*
X176930186Y-112982481D01*
X176925000Y-112929824D01*
X176925000Y-111595176D01*
X176930186Y-111542519D01*
X176943754Y-111497795D01*
X176965789Y-111456570D01*
X176995439Y-111420439D01*
X177031570Y-111390789D01*
X177072795Y-111368754D01*
X177117519Y-111355186D01*
X177170176Y-111350000D01*
X178829824Y-111350000D01*
X178882481Y-111355186D01*
X178882481Y-111355186D01*
G37*
G36*
X108705835Y-109840193D02*
G01*
X108903761Y-109900233D01*
X108903764Y-109900234D01*
X109018204Y-109961404D01*
X109086171Y-109997733D01*
X109107993Y-110015642D01*
X109246055Y-110128945D01*
X109377268Y-110288830D01*
X109474766Y-110471235D01*
X109474766Y-110471236D01*
X109474767Y-110471238D01*
X109534807Y-110669164D01*
X109542404Y-110746293D01*
X109548544Y-110808633D01*
X109550000Y-110823422D01*
X109550000Y-111176577D01*
X109534807Y-111330835D01*
X109484160Y-111497795D01*
X109474766Y-111528764D01*
X109399179Y-111670176D01*
X109377267Y-111711171D01*
X109343087Y-111752819D01*
X109246055Y-111871055D01*
X109086170Y-112002268D01*
X108903765Y-112099766D01*
X108903762Y-112099767D01*
X108705836Y-112159807D01*
X108500000Y-112180080D01*
X108294165Y-112159807D01*
X108096239Y-112099767D01*
X108096236Y-112099766D01*
X107913831Y-112002268D01*
X107753946Y-111871054D01*
X107622732Y-111711170D01*
X107525234Y-111528765D01*
X107485082Y-111396400D01*
X107465193Y-111330836D01*
X107450000Y-111176578D01*
X107450000Y-110823423D01*
X107465193Y-110669165D01*
X107525233Y-110471239D01*
X107525234Y-110471236D01*
X107622732Y-110288831D01*
X107622733Y-110288829D01*
X107656913Y-110247181D01*
X107753945Y-110128945D01*
X107913830Y-109997732D01*
X108096235Y-109900234D01*
X108096238Y-109900233D01*
X108294164Y-109840193D01*
X108500000Y-109819920D01*
X108705835Y-109840193D01*
X108705835Y-109840193D01*
G37*
G36*
X111205835Y-109840193D02*
G01*
X111403761Y-109900233D01*
X111403764Y-109900234D01*
X111518204Y-109961404D01*
X111586171Y-109997733D01*
X111607993Y-110015642D01*
X111746055Y-110128945D01*
X111877268Y-110288830D01*
X111974766Y-110471235D01*
X111974766Y-110471236D01*
X111974767Y-110471238D01*
X112034807Y-110669164D01*
X112042404Y-110746293D01*
X112048544Y-110808633D01*
X112050000Y-110823422D01*
X112050000Y-111176577D01*
X112034807Y-111330835D01*
X111984160Y-111497795D01*
X111974766Y-111528764D01*
X111899179Y-111670176D01*
X111877267Y-111711171D01*
X111843087Y-111752819D01*
X111746055Y-111871055D01*
X111586170Y-112002268D01*
X111403765Y-112099766D01*
X111403762Y-112099767D01*
X111205836Y-112159807D01*
X111000000Y-112180080D01*
X110794165Y-112159807D01*
X110596239Y-112099767D01*
X110596236Y-112099766D01*
X110413831Y-112002268D01*
X110253946Y-111871054D01*
X110122732Y-111711170D01*
X110025234Y-111528765D01*
X109985082Y-111396400D01*
X109965193Y-111330836D01*
X109950000Y-111176578D01*
X109950000Y-110823423D01*
X109965193Y-110669165D01*
X110025233Y-110471239D01*
X110025234Y-110471236D01*
X110122732Y-110288831D01*
X110122733Y-110288829D01*
X110156913Y-110247181D01*
X110253945Y-110128945D01*
X110413830Y-109997732D01*
X110596235Y-109900234D01*
X110596238Y-109900233D01*
X110794164Y-109840193D01*
X111000000Y-109819920D01*
X111205835Y-109840193D01*
X111205835Y-109840193D01*
G37*
G36*
X106872326Y-109829831D02*
G01*
X106913596Y-109842350D01*
X106951631Y-109862681D01*
X106984964Y-109890036D01*
X107012319Y-109923369D01*
X107032650Y-109961404D01*
X107045169Y-110002674D01*
X107050000Y-110051727D01*
X107050000Y-111948273D01*
X107045169Y-111997326D01*
X107032650Y-112038596D01*
X107012319Y-112076631D01*
X106984964Y-112109964D01*
X106951631Y-112137319D01*
X106913596Y-112157650D01*
X106872326Y-112170169D01*
X106823273Y-112175000D01*
X105176727Y-112175000D01*
X105127674Y-112170169D01*
X105086404Y-112157650D01*
X105048369Y-112137319D01*
X105015036Y-112109964D01*
X104987681Y-112076631D01*
X104967350Y-112038596D01*
X104954831Y-111997326D01*
X104950000Y-111948273D01*
X104950000Y-110051727D01*
X104954831Y-110002674D01*
X104967350Y-109961404D01*
X104987681Y-109923369D01*
X105015036Y-109890036D01*
X105048369Y-109862681D01*
X105086404Y-109842350D01*
X105127674Y-109829831D01*
X105176727Y-109825000D01*
X106823273Y-109825000D01*
X106872326Y-109829831D01*
X106872326Y-109829831D01*
G37*
G36*
X172918500Y-108871789D02*
G01*
X173118994Y-108932608D01*
X173303759Y-109031367D01*
X173303762Y-109031369D01*
X173303763Y-109031370D01*
X173465718Y-109164282D01*
X173598630Y-109326237D01*
X173598633Y-109326241D01*
X173697392Y-109511006D01*
X173758211Y-109711500D01*
X173778746Y-109920000D01*
X173758211Y-110128500D01*
X173697392Y-110328994D01*
X173598633Y-110513759D01*
X173598631Y-110513762D01*
X173598630Y-110513763D01*
X173465718Y-110675718D01*
X173303763Y-110808630D01*
X173303759Y-110808633D01*
X173118994Y-110907392D01*
X172918500Y-110968211D01*
X172762251Y-110983600D01*
X172657749Y-110983600D01*
X172501500Y-110968211D01*
X172301006Y-110907392D01*
X172116241Y-110808633D01*
X172116237Y-110808630D01*
X171954282Y-110675718D01*
X171821370Y-110513763D01*
X171821369Y-110513762D01*
X171821367Y-110513759D01*
X171722608Y-110328994D01*
X171661789Y-110128500D01*
X171641254Y-109920000D01*
X171661789Y-109711500D01*
X171722608Y-109511006D01*
X171821367Y-109326241D01*
X171821370Y-109326237D01*
X171954282Y-109164282D01*
X172116237Y-109031370D01*
X172116238Y-109031369D01*
X172116241Y-109031367D01*
X172301006Y-108932608D01*
X172501500Y-108871789D01*
X172657749Y-108856400D01*
X172762251Y-108856400D01*
X172918500Y-108871789D01*
X172918500Y-108871789D01*
G37*
G36*
X175458500Y-108871789D02*
G01*
X175658994Y-108932608D01*
X175843759Y-109031367D01*
X175843762Y-109031369D01*
X175843763Y-109031370D01*
X176005718Y-109164282D01*
X176138630Y-109326237D01*
X176138633Y-109326241D01*
X176237392Y-109511006D01*
X176298211Y-109711500D01*
X176318746Y-109920000D01*
X176298211Y-110128500D01*
X176237392Y-110328994D01*
X176138633Y-110513759D01*
X176138631Y-110513762D01*
X176138630Y-110513763D01*
X176005718Y-110675718D01*
X175843763Y-110808630D01*
X175843759Y-110808633D01*
X175658994Y-110907392D01*
X175458500Y-110968211D01*
X175302251Y-110983600D01*
X175197749Y-110983600D01*
X175041500Y-110968211D01*
X174841006Y-110907392D01*
X174656241Y-110808633D01*
X174656237Y-110808630D01*
X174494282Y-110675718D01*
X174361370Y-110513763D01*
X174361369Y-110513762D01*
X174361367Y-110513759D01*
X174262608Y-110328994D01*
X174201789Y-110128500D01*
X174181254Y-109920000D01*
X174201789Y-109711500D01*
X174262608Y-109511006D01*
X174361367Y-109326241D01*
X174361370Y-109326237D01*
X174494282Y-109164282D01*
X174656237Y-109031370D01*
X174656238Y-109031369D01*
X174656241Y-109031367D01*
X174841006Y-108932608D01*
X175041500Y-108871789D01*
X175197749Y-108856400D01*
X175302251Y-108856400D01*
X175458500Y-108871789D01*
X175458500Y-108871789D01*
G37*
G36*
X175458500Y-106331789D02*
G01*
X175658994Y-106392608D01*
X175843759Y-106491367D01*
X175843762Y-106491369D01*
X175843763Y-106491370D01*
X176005718Y-106624282D01*
X176138630Y-106786237D01*
X176138633Y-106786241D01*
X176237392Y-106971006D01*
X176298211Y-107171500D01*
X176318746Y-107380000D01*
X176298211Y-107588500D01*
X176237392Y-107788994D01*
X176138633Y-107973759D01*
X176138631Y-107973762D01*
X176138630Y-107973763D01*
X176005718Y-108135718D01*
X175857076Y-108257704D01*
X175843759Y-108268633D01*
X175658994Y-108367392D01*
X175658991Y-108367393D01*
X175621669Y-108378714D01*
X175458500Y-108428211D01*
X175302251Y-108443600D01*
X175197749Y-108443600D01*
X175041500Y-108428211D01*
X174878331Y-108378714D01*
X174841009Y-108367393D01*
X174841006Y-108367392D01*
X174656241Y-108268633D01*
X174642924Y-108257704D01*
X174494282Y-108135718D01*
X174361370Y-107973763D01*
X174361369Y-107973762D01*
X174361367Y-107973759D01*
X174262608Y-107788994D01*
X174201789Y-107588500D01*
X174181254Y-107380000D01*
X174201789Y-107171500D01*
X174262608Y-106971006D01*
X174361367Y-106786241D01*
X174361370Y-106786237D01*
X174494282Y-106624282D01*
X174656237Y-106491370D01*
X174656238Y-106491369D01*
X174656241Y-106491367D01*
X174841006Y-106392608D01*
X175041500Y-106331789D01*
X175197749Y-106316400D01*
X175302251Y-106316400D01*
X175458500Y-106331789D01*
X175458500Y-106331789D01*
G37*
G36*
X172918500Y-106331789D02*
G01*
X173118994Y-106392608D01*
X173303759Y-106491367D01*
X173303762Y-106491369D01*
X173303763Y-106491370D01*
X173465718Y-106624282D01*
X173598630Y-106786237D01*
X173598633Y-106786241D01*
X173697392Y-106971006D01*
X173758211Y-107171500D01*
X173778746Y-107380000D01*
X173758211Y-107588500D01*
X173697392Y-107788994D01*
X173598633Y-107973759D01*
X173598631Y-107973762D01*
X173598630Y-107973763D01*
X173465718Y-108135718D01*
X173317076Y-108257704D01*
X173303759Y-108268633D01*
X173118994Y-108367392D01*
X173118991Y-108367393D01*
X173081669Y-108378714D01*
X172918500Y-108428211D01*
X172762251Y-108443600D01*
X172657749Y-108443600D01*
X172501500Y-108428211D01*
X172338331Y-108378714D01*
X172301009Y-108367393D01*
X172301006Y-108367392D01*
X172116241Y-108268633D01*
X172102924Y-108257704D01*
X171954282Y-108135718D01*
X171821370Y-107973763D01*
X171821369Y-107973762D01*
X171821367Y-107973759D01*
X171722608Y-107788994D01*
X171661789Y-107588500D01*
X171641254Y-107380000D01*
X171661789Y-107171500D01*
X171722608Y-106971006D01*
X171821367Y-106786241D01*
X171821370Y-106786237D01*
X171954282Y-106624282D01*
X172116237Y-106491370D01*
X172116238Y-106491369D01*
X172116241Y-106491367D01*
X172301006Y-106392608D01*
X172501500Y-106331789D01*
X172657749Y-106316400D01*
X172762251Y-106316400D01*
X172918500Y-106331789D01*
X172918500Y-106331789D01*
G37*
G36*
X178882481Y-106580186D02*
G01*
X178927205Y-106593754D01*
X178968430Y-106615789D01*
X179004561Y-106645439D01*
X179034211Y-106681570D01*
X179056246Y-106722795D01*
X179069814Y-106767519D01*
X179075000Y-106820176D01*
X179075000Y-108154824D01*
X179069814Y-108207481D01*
X179056246Y-108252205D01*
X179034211Y-108293430D01*
X179004561Y-108329561D01*
X178968430Y-108359211D01*
X178927205Y-108381246D01*
X178882481Y-108394814D01*
X178829824Y-108400000D01*
X177170176Y-108400000D01*
X177117519Y-108394814D01*
X177072795Y-108381246D01*
X177031570Y-108359211D01*
X176995439Y-108329561D01*
X176965789Y-108293430D01*
X176943754Y-108252205D01*
X176930186Y-108207481D01*
X176925000Y-108154824D01*
X176925000Y-106820176D01*
X176930186Y-106767519D01*
X176943754Y-106722795D01*
X176965789Y-106681570D01*
X176995439Y-106645439D01*
X177031570Y-106615789D01*
X177072795Y-106593754D01*
X177117519Y-106580186D01*
X177170176Y-106575000D01*
X178829824Y-106575000D01*
X178882481Y-106580186D01*
X178882481Y-106580186D01*
G37*
G36*
X175458500Y-103791789D02*
G01*
X175658994Y-103852608D01*
X175843759Y-103951367D01*
X175843762Y-103951369D01*
X175843763Y-103951370D01*
X176005718Y-104084282D01*
X176138630Y-104246237D01*
X176138633Y-104246241D01*
X176237392Y-104431006D01*
X176298211Y-104631500D01*
X176318746Y-104840000D01*
X176298211Y-105048500D01*
X176237392Y-105248994D01*
X176138633Y-105433759D01*
X176138631Y-105433762D01*
X176138630Y-105433763D01*
X176005718Y-105595718D01*
X175843763Y-105728630D01*
X175843759Y-105728633D01*
X175658994Y-105827392D01*
X175458500Y-105888211D01*
X175302251Y-105903600D01*
X175197749Y-105903600D01*
X175041500Y-105888211D01*
X174841006Y-105827392D01*
X174656241Y-105728633D01*
X174656237Y-105728630D01*
X174494282Y-105595718D01*
X174361370Y-105433763D01*
X174361369Y-105433762D01*
X174361367Y-105433759D01*
X174262608Y-105248994D01*
X174201789Y-105048500D01*
X174181254Y-104840000D01*
X174201789Y-104631500D01*
X174262608Y-104431006D01*
X174361367Y-104246241D01*
X174361370Y-104246237D01*
X174494282Y-104084282D01*
X174656237Y-103951370D01*
X174656238Y-103951369D01*
X174656241Y-103951367D01*
X174841006Y-103852608D01*
X175041500Y-103791789D01*
X175197749Y-103776400D01*
X175302251Y-103776400D01*
X175458500Y-103791789D01*
X175458500Y-103791789D01*
G37*
G36*
X172918500Y-103791789D02*
G01*
X173118994Y-103852608D01*
X173303759Y-103951367D01*
X173303762Y-103951369D01*
X173303763Y-103951370D01*
X173465718Y-104084282D01*
X173598630Y-104246237D01*
X173598633Y-104246241D01*
X173697392Y-104431006D01*
X173758211Y-104631500D01*
X173778746Y-104840000D01*
X173758211Y-105048500D01*
X173697392Y-105248994D01*
X173598633Y-105433759D01*
X173598631Y-105433762D01*
X173598630Y-105433763D01*
X173465718Y-105595718D01*
X173303763Y-105728630D01*
X173303759Y-105728633D01*
X173118994Y-105827392D01*
X172918500Y-105888211D01*
X172762251Y-105903600D01*
X172657749Y-105903600D01*
X172501500Y-105888211D01*
X172301006Y-105827392D01*
X172116241Y-105728633D01*
X172116237Y-105728630D01*
X171954282Y-105595718D01*
X171821370Y-105433763D01*
X171821369Y-105433762D01*
X171821367Y-105433759D01*
X171722608Y-105248994D01*
X171661789Y-105048500D01*
X171641254Y-104840000D01*
X171661789Y-104631500D01*
X171722608Y-104431006D01*
X171821367Y-104246241D01*
X171821370Y-104246237D01*
X171954282Y-104084282D01*
X172116237Y-103951370D01*
X172116238Y-103951369D01*
X172116241Y-103951367D01*
X172301006Y-103852608D01*
X172501500Y-103791789D01*
X172657749Y-103776400D01*
X172762251Y-103776400D01*
X172918500Y-103791789D01*
X172918500Y-103791789D01*
G37*
G36*
X178882481Y-103605186D02*
G01*
X178927205Y-103618754D01*
X178968430Y-103640789D01*
X179004561Y-103670439D01*
X179034211Y-103706570D01*
X179056246Y-103747795D01*
X179069814Y-103792519D01*
X179075000Y-103845176D01*
X179075000Y-105179824D01*
X179069814Y-105232481D01*
X179056246Y-105277205D01*
X179034211Y-105318430D01*
X179004561Y-105354561D01*
X178968430Y-105384211D01*
X178927205Y-105406246D01*
X178882481Y-105419814D01*
X178829824Y-105425000D01*
X177170176Y-105425000D01*
X177117519Y-105419814D01*
X177072795Y-105406246D01*
X177031570Y-105384211D01*
X176995439Y-105354561D01*
X176965789Y-105318430D01*
X176943754Y-105277205D01*
X176930186Y-105232481D01*
X176925000Y-105179824D01*
X176925000Y-103845176D01*
X176930186Y-103792519D01*
X176943754Y-103747795D01*
X176965789Y-103706570D01*
X176995439Y-103670439D01*
X177031570Y-103640789D01*
X177072795Y-103618754D01*
X177117519Y-103605186D01*
X177170176Y-103600000D01*
X178829824Y-103600000D01*
X178882481Y-103605186D01*
X178882481Y-103605186D01*
G37*
G36*
X131548707Y-99957596D02*
G01*
X131625836Y-99965193D01*
X131823762Y-100025233D01*
X131823765Y-100025234D01*
X132006170Y-100122732D01*
X132166055Y-100253945D01*
X132297268Y-100413830D01*
X132394766Y-100596235D01*
X132394767Y-100596238D01*
X132454807Y-100794164D01*
X132475080Y-101000000D01*
X132454807Y-101205836D01*
X132408417Y-101358763D01*
X132394766Y-101403765D01*
X132297268Y-101586170D01*
X132166055Y-101746055D01*
X132006170Y-101877268D01*
X131823765Y-101974766D01*
X131823762Y-101974767D01*
X131625836Y-102034807D01*
X131548707Y-102042404D01*
X131471580Y-102050000D01*
X131368420Y-102050000D01*
X131291293Y-102042403D01*
X131214164Y-102034807D01*
X131016238Y-101974767D01*
X131016235Y-101974766D01*
X130833830Y-101877268D01*
X130673945Y-101746055D01*
X130542732Y-101586170D01*
X130445234Y-101403765D01*
X130431583Y-101358763D01*
X130385193Y-101205836D01*
X130364920Y-101000000D01*
X130385193Y-100794164D01*
X130445233Y-100596238D01*
X130445234Y-100596235D01*
X130542732Y-100413830D01*
X130673945Y-100253945D01*
X130833830Y-100122732D01*
X131016235Y-100025234D01*
X131016238Y-100025233D01*
X131214164Y-99965193D01*
X131291293Y-99957596D01*
X131368420Y-99950000D01*
X131471580Y-99950000D01*
X131548707Y-99957596D01*
X131548707Y-99957596D01*
G37*
G36*
X145128707Y-99957596D02*
G01*
X145205836Y-99965193D01*
X145403762Y-100025233D01*
X145403765Y-100025234D01*
X145586170Y-100122732D01*
X145746055Y-100253945D01*
X145877268Y-100413830D01*
X145974766Y-100596235D01*
X145974767Y-100596238D01*
X146034807Y-100794164D01*
X146055080Y-101000000D01*
X146034807Y-101205836D01*
X145988417Y-101358763D01*
X145974766Y-101403765D01*
X145877268Y-101586170D01*
X145746055Y-101746055D01*
X145586170Y-101877268D01*
X145403765Y-101974766D01*
X145403762Y-101974767D01*
X145205836Y-102034807D01*
X145128707Y-102042404D01*
X145051580Y-102050000D01*
X144948420Y-102050000D01*
X144871293Y-102042403D01*
X144794164Y-102034807D01*
X144596238Y-101974767D01*
X144596235Y-101974766D01*
X144413830Y-101877268D01*
X144253945Y-101746055D01*
X144122732Y-101586170D01*
X144025234Y-101403765D01*
X144011583Y-101358763D01*
X143965193Y-101205836D01*
X143944920Y-101000000D01*
X143965193Y-100794164D01*
X144025233Y-100596238D01*
X144025234Y-100596235D01*
X144122732Y-100413830D01*
X144253945Y-100253945D01*
X144413830Y-100122732D01*
X144596235Y-100025234D01*
X144596238Y-100025233D01*
X144794164Y-99965193D01*
X144871293Y-99957596D01*
X144948420Y-99950000D01*
X145051580Y-99950000D01*
X145128707Y-99957596D01*
X145128707Y-99957596D01*
G37*
G36*
X126468707Y-99957596D02*
G01*
X126545836Y-99965193D01*
X126743762Y-100025233D01*
X126743765Y-100025234D01*
X126926170Y-100122732D01*
X127086055Y-100253945D01*
X127217268Y-100413830D01*
X127314766Y-100596235D01*
X127314767Y-100596238D01*
X127374807Y-100794164D01*
X127395080Y-101000000D01*
X127374807Y-101205836D01*
X127328417Y-101358763D01*
X127314766Y-101403765D01*
X127217268Y-101586170D01*
X127086055Y-101746055D01*
X126926170Y-101877268D01*
X126743765Y-101974766D01*
X126743762Y-101974767D01*
X126545836Y-102034807D01*
X126468707Y-102042404D01*
X126391580Y-102050000D01*
X126288420Y-102050000D01*
X126211293Y-102042403D01*
X126134164Y-102034807D01*
X125936238Y-101974767D01*
X125936235Y-101974766D01*
X125753830Y-101877268D01*
X125593945Y-101746055D01*
X125462732Y-101586170D01*
X125365234Y-101403765D01*
X125351583Y-101358763D01*
X125305193Y-101205836D01*
X125284920Y-101000000D01*
X125305193Y-100794164D01*
X125365233Y-100596238D01*
X125365234Y-100596235D01*
X125462732Y-100413830D01*
X125593945Y-100253945D01*
X125753830Y-100122732D01*
X125936235Y-100025234D01*
X125936238Y-100025233D01*
X126134164Y-99965193D01*
X126211293Y-99957596D01*
X126288420Y-99950000D01*
X126391580Y-99950000D01*
X126468707Y-99957596D01*
X126468707Y-99957596D01*
G37*
G36*
X129008707Y-99957596D02*
G01*
X129085836Y-99965193D01*
X129283762Y-100025233D01*
X129283765Y-100025234D01*
X129466170Y-100122732D01*
X129626055Y-100253945D01*
X129757268Y-100413830D01*
X129854766Y-100596235D01*
X129854767Y-100596238D01*
X129914807Y-100794164D01*
X129935080Y-101000000D01*
X129914807Y-101205836D01*
X129868417Y-101358763D01*
X129854766Y-101403765D01*
X129757268Y-101586170D01*
X129626055Y-101746055D01*
X129466170Y-101877268D01*
X129283765Y-101974766D01*
X129283762Y-101974767D01*
X129085836Y-102034807D01*
X129008707Y-102042404D01*
X128931580Y-102050000D01*
X128828420Y-102050000D01*
X128751293Y-102042403D01*
X128674164Y-102034807D01*
X128476238Y-101974767D01*
X128476235Y-101974766D01*
X128293830Y-101877268D01*
X128133945Y-101746055D01*
X128002732Y-101586170D01*
X127905234Y-101403765D01*
X127891583Y-101358763D01*
X127845193Y-101205836D01*
X127824920Y-101000000D01*
X127845193Y-100794164D01*
X127905233Y-100596238D01*
X127905234Y-100596235D01*
X128002732Y-100413830D01*
X128133945Y-100253945D01*
X128293830Y-100122732D01*
X128476235Y-100025234D01*
X128476238Y-100025233D01*
X128674164Y-99965193D01*
X128751293Y-99957596D01*
X128828420Y-99950000D01*
X128931580Y-99950000D01*
X129008707Y-99957596D01*
X129008707Y-99957596D01*
G37*
G36*
X134088707Y-99957596D02*
G01*
X134165836Y-99965193D01*
X134363762Y-100025233D01*
X134363765Y-100025234D01*
X134546170Y-100122732D01*
X134706055Y-100253945D01*
X134837268Y-100413830D01*
X134934766Y-100596235D01*
X134934767Y-100596238D01*
X134994807Y-100794164D01*
X135015080Y-101000000D01*
X134994807Y-101205836D01*
X134948417Y-101358763D01*
X134934766Y-101403765D01*
X134837268Y-101586170D01*
X134706055Y-101746055D01*
X134546170Y-101877268D01*
X134363765Y-101974766D01*
X134363762Y-101974767D01*
X134165836Y-102034807D01*
X134088707Y-102042404D01*
X134011580Y-102050000D01*
X133908420Y-102050000D01*
X133831293Y-102042403D01*
X133754164Y-102034807D01*
X133556238Y-101974767D01*
X133556235Y-101974766D01*
X133373830Y-101877268D01*
X133213945Y-101746055D01*
X133082732Y-101586170D01*
X132985234Y-101403765D01*
X132971583Y-101358763D01*
X132925193Y-101205836D01*
X132904920Y-101000000D01*
X132925193Y-100794164D01*
X132985233Y-100596238D01*
X132985234Y-100596235D01*
X133082732Y-100413830D01*
X133213945Y-100253945D01*
X133373830Y-100122732D01*
X133556235Y-100025234D01*
X133556238Y-100025233D01*
X133754164Y-99965193D01*
X133831293Y-99957596D01*
X133908420Y-99950000D01*
X134011580Y-99950000D01*
X134088707Y-99957596D01*
X134088707Y-99957596D01*
G37*
G36*
X137550000Y-102050000D02*
G01*
X135450000Y-102050000D01*
X135450000Y-99950000D01*
X137550000Y-99950000D01*
X137550000Y-102050000D01*
X137550000Y-102050000D01*
G37*
G36*
X167050000Y-102050000D02*
G01*
X164950000Y-102050000D01*
X164950000Y-99950000D01*
X167050000Y-99950000D01*
X167050000Y-102050000D01*
X167050000Y-102050000D01*
G37*
G36*
X142588707Y-99957596D02*
G01*
X142665836Y-99965193D01*
X142863762Y-100025233D01*
X142863765Y-100025234D01*
X143046170Y-100122732D01*
X143206055Y-100253945D01*
X143337268Y-100413830D01*
X143434766Y-100596235D01*
X143434767Y-100596238D01*
X143494807Y-100794164D01*
X143515080Y-101000000D01*
X143494807Y-101205836D01*
X143448417Y-101358763D01*
X143434766Y-101403765D01*
X143337268Y-101586170D01*
X143206055Y-101746055D01*
X143046170Y-101877268D01*
X142863765Y-101974766D01*
X142863762Y-101974767D01*
X142665836Y-102034807D01*
X142588707Y-102042404D01*
X142511580Y-102050000D01*
X142408420Y-102050000D01*
X142331293Y-102042403D01*
X142254164Y-102034807D01*
X142056238Y-101974767D01*
X142056235Y-101974766D01*
X141873830Y-101877268D01*
X141713945Y-101746055D01*
X141582732Y-101586170D01*
X141485234Y-101403765D01*
X141471583Y-101358763D01*
X141425193Y-101205836D01*
X141404920Y-101000000D01*
X141425193Y-100794164D01*
X141485233Y-100596238D01*
X141485234Y-100596235D01*
X141582732Y-100413830D01*
X141713945Y-100253945D01*
X141873830Y-100122732D01*
X142056235Y-100025234D01*
X142056238Y-100025233D01*
X142254164Y-99965193D01*
X142331293Y-99957596D01*
X142408420Y-99950000D01*
X142511580Y-99950000D01*
X142588707Y-99957596D01*
X142588707Y-99957596D01*
G37*
G36*
X148590000Y-102050000D02*
G01*
X146490000Y-102050000D01*
X146490000Y-99950000D01*
X148590000Y-99950000D01*
X148590000Y-102050000D01*
X148590000Y-102050000D01*
G37*
G36*
X157050000Y-102050000D02*
G01*
X154950000Y-102050000D01*
X154950000Y-99950000D01*
X157050000Y-99950000D01*
X157050000Y-102050000D01*
X157050000Y-102050000D01*
G37*
G36*
X153588707Y-99957596D02*
G01*
X153665836Y-99965193D01*
X153863762Y-100025233D01*
X153863765Y-100025234D01*
X154046170Y-100122732D01*
X154206055Y-100253945D01*
X154337268Y-100413830D01*
X154434766Y-100596235D01*
X154434767Y-100596238D01*
X154494807Y-100794164D01*
X154515080Y-101000000D01*
X154494807Y-101205836D01*
X154448417Y-101358763D01*
X154434766Y-101403765D01*
X154337268Y-101586170D01*
X154206055Y-101746055D01*
X154046170Y-101877268D01*
X153863765Y-101974766D01*
X153863762Y-101974767D01*
X153665836Y-102034807D01*
X153588707Y-102042404D01*
X153511580Y-102050000D01*
X153408420Y-102050000D01*
X153331293Y-102042403D01*
X153254164Y-102034807D01*
X153056238Y-101974767D01*
X153056235Y-101974766D01*
X152873830Y-101877268D01*
X152713945Y-101746055D01*
X152582732Y-101586170D01*
X152485234Y-101403765D01*
X152471583Y-101358763D01*
X152425193Y-101205836D01*
X152404920Y-101000000D01*
X152425193Y-100794164D01*
X152485233Y-100596238D01*
X152485234Y-100596235D01*
X152582732Y-100413830D01*
X152713945Y-100253945D01*
X152873830Y-100122732D01*
X153056235Y-100025234D01*
X153056238Y-100025233D01*
X153254164Y-99965193D01*
X153331293Y-99957596D01*
X153408420Y-99950000D01*
X153511580Y-99950000D01*
X153588707Y-99957596D01*
X153588707Y-99957596D01*
G37*
G36*
X123928707Y-99957596D02*
G01*
X124005836Y-99965193D01*
X124203762Y-100025233D01*
X124203765Y-100025234D01*
X124386170Y-100122732D01*
X124546055Y-100253945D01*
X124677268Y-100413830D01*
X124774766Y-100596235D01*
X124774767Y-100596238D01*
X124834807Y-100794164D01*
X124855080Y-101000000D01*
X124834807Y-101205836D01*
X124788417Y-101358763D01*
X124774766Y-101403765D01*
X124677268Y-101586170D01*
X124546055Y-101746055D01*
X124386170Y-101877268D01*
X124203765Y-101974766D01*
X124203762Y-101974767D01*
X124005836Y-102034807D01*
X123928707Y-102042404D01*
X123851580Y-102050000D01*
X123748420Y-102050000D01*
X123671293Y-102042403D01*
X123594164Y-102034807D01*
X123396238Y-101974767D01*
X123396235Y-101974766D01*
X123213830Y-101877268D01*
X123053945Y-101746055D01*
X122922732Y-101586170D01*
X122825234Y-101403765D01*
X122811583Y-101358763D01*
X122765193Y-101205836D01*
X122744920Y-101000000D01*
X122765193Y-100794164D01*
X122825233Y-100596238D01*
X122825234Y-100596235D01*
X122922732Y-100413830D01*
X123053945Y-100253945D01*
X123213830Y-100122732D01*
X123396235Y-100025234D01*
X123396238Y-100025233D01*
X123594164Y-99965193D01*
X123671293Y-99957596D01*
X123748420Y-99950000D01*
X123851580Y-99950000D01*
X123928707Y-99957596D01*
X123928707Y-99957596D01*
G37*
G36*
X163588707Y-99957596D02*
G01*
X163665836Y-99965193D01*
X163863762Y-100025233D01*
X163863765Y-100025234D01*
X164046170Y-100122732D01*
X164206055Y-100253945D01*
X164337268Y-100413830D01*
X164434766Y-100596235D01*
X164434767Y-100596238D01*
X164494807Y-100794164D01*
X164515080Y-101000000D01*
X164494807Y-101205836D01*
X164448417Y-101358763D01*
X164434766Y-101403765D01*
X164337268Y-101586170D01*
X164206055Y-101746055D01*
X164046170Y-101877268D01*
X163863765Y-101974766D01*
X163863762Y-101974767D01*
X163665836Y-102034807D01*
X163588707Y-102042404D01*
X163511580Y-102050000D01*
X163408420Y-102050000D01*
X163331293Y-102042403D01*
X163254164Y-102034807D01*
X163056238Y-101974767D01*
X163056235Y-101974766D01*
X162873830Y-101877268D01*
X162713945Y-101746055D01*
X162582732Y-101586170D01*
X162485234Y-101403765D01*
X162471583Y-101358763D01*
X162425193Y-101205836D01*
X162404920Y-101000000D01*
X162425193Y-100794164D01*
X162485233Y-100596238D01*
X162485234Y-100596235D01*
X162582732Y-100413830D01*
X162713945Y-100253945D01*
X162873830Y-100122732D01*
X163056235Y-100025234D01*
X163056238Y-100025233D01*
X163254164Y-99965193D01*
X163331293Y-99957596D01*
X163408420Y-99950000D01*
X163511580Y-99950000D01*
X163588707Y-99957596D01*
X163588707Y-99957596D01*
G37*
G36*
X116374999Y-102005001D02*
G01*
X114274999Y-102005001D01*
X114274999Y-99905001D01*
X116374999Y-99905001D01*
X116374999Y-102005001D01*
X116374999Y-102005001D01*
G37*
G36*
X102753706Y-99912598D02*
G01*
X102830835Y-99920194D01*
X102979177Y-99965193D01*
X103028764Y-99980235D01*
X103211169Y-100077733D01*
X103371054Y-100208946D01*
X103502267Y-100368831D01*
X103599765Y-100551236D01*
X103599766Y-100551239D01*
X103659806Y-100749165D01*
X103680079Y-100955001D01*
X103659806Y-101160837D01*
X103599766Y-101358763D01*
X103599765Y-101358766D01*
X103502267Y-101541171D01*
X103371054Y-101701056D01*
X103211169Y-101832269D01*
X103028764Y-101929767D01*
X103028761Y-101929768D01*
X102830835Y-101989808D01*
X102753706Y-101997405D01*
X102676579Y-102005001D01*
X102573419Y-102005001D01*
X102496292Y-101997405D01*
X102419163Y-101989808D01*
X102221237Y-101929768D01*
X102221234Y-101929767D01*
X102038829Y-101832269D01*
X101878944Y-101701056D01*
X101747731Y-101541171D01*
X101650233Y-101358766D01*
X101650232Y-101358763D01*
X101590192Y-101160837D01*
X101569919Y-100955001D01*
X101590192Y-100749165D01*
X101650232Y-100551239D01*
X101650233Y-100551236D01*
X101747731Y-100368831D01*
X101878944Y-100208946D01*
X102038829Y-100077733D01*
X102221234Y-99980235D01*
X102270821Y-99965193D01*
X102419163Y-99920194D01*
X102496292Y-99912598D01*
X102573419Y-99905001D01*
X102676579Y-99905001D01*
X102753706Y-99912598D01*
X102753706Y-99912598D01*
G37*
G36*
X105293706Y-99912598D02*
G01*
X105370835Y-99920194D01*
X105519177Y-99965193D01*
X105568764Y-99980235D01*
X105751169Y-100077733D01*
X105911054Y-100208946D01*
X106042267Y-100368831D01*
X106139765Y-100551236D01*
X106139766Y-100551239D01*
X106199806Y-100749165D01*
X106220079Y-100955001D01*
X106199806Y-101160837D01*
X106139766Y-101358763D01*
X106139765Y-101358766D01*
X106042267Y-101541171D01*
X105911054Y-101701056D01*
X105751169Y-101832269D01*
X105568764Y-101929767D01*
X105568761Y-101929768D01*
X105370835Y-101989808D01*
X105293706Y-101997405D01*
X105216579Y-102005001D01*
X105113419Y-102005001D01*
X105036292Y-101997405D01*
X104959163Y-101989808D01*
X104761237Y-101929768D01*
X104761234Y-101929767D01*
X104578829Y-101832269D01*
X104418944Y-101701056D01*
X104287731Y-101541171D01*
X104190233Y-101358766D01*
X104190232Y-101358763D01*
X104130192Y-101160837D01*
X104109919Y-100955001D01*
X104130192Y-100749165D01*
X104190232Y-100551239D01*
X104190233Y-100551236D01*
X104287731Y-100368831D01*
X104418944Y-100208946D01*
X104578829Y-100077733D01*
X104761234Y-99980235D01*
X104810821Y-99965193D01*
X104959163Y-99920194D01*
X105036292Y-99912598D01*
X105113419Y-99905001D01*
X105216579Y-99905001D01*
X105293706Y-99912598D01*
X105293706Y-99912598D01*
G37*
G36*
X110373706Y-99912598D02*
G01*
X110450835Y-99920194D01*
X110599177Y-99965193D01*
X110648764Y-99980235D01*
X110831169Y-100077733D01*
X110991054Y-100208946D01*
X111122267Y-100368831D01*
X111219765Y-100551236D01*
X111219766Y-100551239D01*
X111279806Y-100749165D01*
X111300079Y-100955001D01*
X111279806Y-101160837D01*
X111219766Y-101358763D01*
X111219765Y-101358766D01*
X111122267Y-101541171D01*
X110991054Y-101701056D01*
X110831169Y-101832269D01*
X110648764Y-101929767D01*
X110648761Y-101929768D01*
X110450835Y-101989808D01*
X110373706Y-101997405D01*
X110296579Y-102005001D01*
X110193419Y-102005001D01*
X110116292Y-101997405D01*
X110039163Y-101989808D01*
X109841237Y-101929768D01*
X109841234Y-101929767D01*
X109658829Y-101832269D01*
X109498944Y-101701056D01*
X109367731Y-101541171D01*
X109270233Y-101358766D01*
X109270232Y-101358763D01*
X109210192Y-101160837D01*
X109189919Y-100955001D01*
X109210192Y-100749165D01*
X109270232Y-100551239D01*
X109270233Y-100551236D01*
X109367731Y-100368831D01*
X109498944Y-100208946D01*
X109658829Y-100077733D01*
X109841234Y-99980235D01*
X109890821Y-99965193D01*
X110039163Y-99920194D01*
X110116292Y-99912598D01*
X110193419Y-99905001D01*
X110296579Y-99905001D01*
X110373706Y-99912598D01*
X110373706Y-99912598D01*
G37*
G36*
X107833706Y-99912598D02*
G01*
X107910835Y-99920194D01*
X108059177Y-99965193D01*
X108108764Y-99980235D01*
X108291169Y-100077733D01*
X108451054Y-100208946D01*
X108582267Y-100368831D01*
X108679765Y-100551236D01*
X108679766Y-100551239D01*
X108739806Y-100749165D01*
X108760079Y-100955001D01*
X108739806Y-101160837D01*
X108679766Y-101358763D01*
X108679765Y-101358766D01*
X108582267Y-101541171D01*
X108451054Y-101701056D01*
X108291169Y-101832269D01*
X108108764Y-101929767D01*
X108108761Y-101929768D01*
X107910835Y-101989808D01*
X107833706Y-101997405D01*
X107756579Y-102005001D01*
X107653419Y-102005001D01*
X107576292Y-101997405D01*
X107499163Y-101989808D01*
X107301237Y-101929768D01*
X107301234Y-101929767D01*
X107118829Y-101832269D01*
X106958944Y-101701056D01*
X106827731Y-101541171D01*
X106730233Y-101358766D01*
X106730232Y-101358763D01*
X106670192Y-101160837D01*
X106649919Y-100955001D01*
X106670192Y-100749165D01*
X106730232Y-100551239D01*
X106730233Y-100551236D01*
X106827731Y-100368831D01*
X106958944Y-100208946D01*
X107118829Y-100077733D01*
X107301234Y-99980235D01*
X107350821Y-99965193D01*
X107499163Y-99920194D01*
X107576292Y-99912598D01*
X107653419Y-99905001D01*
X107756579Y-99905001D01*
X107833706Y-99912598D01*
X107833706Y-99912598D01*
G37*
G36*
X112913706Y-99912598D02*
G01*
X112990835Y-99920194D01*
X113139177Y-99965193D01*
X113188764Y-99980235D01*
X113371169Y-100077733D01*
X113531054Y-100208946D01*
X113662267Y-100368831D01*
X113759765Y-100551236D01*
X113759766Y-100551239D01*
X113819806Y-100749165D01*
X113840079Y-100955001D01*
X113819806Y-101160837D01*
X113759766Y-101358763D01*
X113759765Y-101358766D01*
X113662267Y-101541171D01*
X113531054Y-101701056D01*
X113371169Y-101832269D01*
X113188764Y-101929767D01*
X113188761Y-101929768D01*
X112990835Y-101989808D01*
X112913706Y-101997405D01*
X112836579Y-102005001D01*
X112733419Y-102005001D01*
X112656292Y-101997405D01*
X112579163Y-101989808D01*
X112381237Y-101929768D01*
X112381234Y-101929767D01*
X112198829Y-101832269D01*
X112038944Y-101701056D01*
X111907731Y-101541171D01*
X111810233Y-101358766D01*
X111810232Y-101358763D01*
X111750192Y-101160837D01*
X111729919Y-100955001D01*
X111750192Y-100749165D01*
X111810232Y-100551239D01*
X111810233Y-100551236D01*
X111907731Y-100368831D01*
X112038944Y-100208946D01*
X112198829Y-100077733D01*
X112381234Y-99980235D01*
X112430821Y-99965193D01*
X112579163Y-99920194D01*
X112656292Y-99912598D01*
X112733419Y-99905001D01*
X112836579Y-99905001D01*
X112913706Y-99912598D01*
X112913706Y-99912598D01*
G37*
G36*
X110881281Y-92489865D02*
G01*
X111000378Y-92501595D01*
X111229594Y-92571127D01*
X111229597Y-92571128D01*
X111401517Y-92663021D01*
X111440842Y-92684041D01*
X111626002Y-92835998D01*
X111777959Y-93021158D01*
X111777961Y-93021162D01*
X111890872Y-93232403D01*
X111890873Y-93232406D01*
X111960405Y-93461622D01*
X111983883Y-93700000D01*
X111960405Y-93938378D01*
X111890873Y-94167594D01*
X111890872Y-94167597D01*
X111798979Y-94339517D01*
X111777959Y-94378842D01*
X111626002Y-94564002D01*
X111440842Y-94715959D01*
X111440838Y-94715961D01*
X111229597Y-94828872D01*
X111229594Y-94828873D01*
X111000378Y-94898405D01*
X110881281Y-94910135D01*
X110821733Y-94916000D01*
X109178267Y-94916000D01*
X109118719Y-94910135D01*
X108999622Y-94898405D01*
X108770406Y-94828873D01*
X108770403Y-94828872D01*
X108559162Y-94715961D01*
X108559158Y-94715959D01*
X108373998Y-94564002D01*
X108222041Y-94378842D01*
X108201021Y-94339517D01*
X108109128Y-94167597D01*
X108109127Y-94167594D01*
X108039595Y-93938378D01*
X108016117Y-93700000D01*
X108039595Y-93461622D01*
X108109127Y-93232406D01*
X108109128Y-93232403D01*
X108222039Y-93021162D01*
X108222041Y-93021158D01*
X108373998Y-92835998D01*
X108559158Y-92684041D01*
X108598483Y-92663021D01*
X108770403Y-92571128D01*
X108770406Y-92571127D01*
X108999622Y-92501595D01*
X109118719Y-92489865D01*
X109178267Y-92484000D01*
X110821733Y-92484000D01*
X110881281Y-92489865D01*
X110881281Y-92489865D01*
G37*
G36*
X170881281Y-92489865D02*
G01*
X171000378Y-92501595D01*
X171229594Y-92571127D01*
X171229597Y-92571128D01*
X171401517Y-92663021D01*
X171440842Y-92684041D01*
X171626002Y-92835998D01*
X171777959Y-93021158D01*
X171777961Y-93021162D01*
X171890872Y-93232403D01*
X171890873Y-93232406D01*
X171960405Y-93461622D01*
X171983883Y-93700000D01*
X171960405Y-93938378D01*
X171890873Y-94167594D01*
X171890872Y-94167597D01*
X171798979Y-94339517D01*
X171777959Y-94378842D01*
X171626002Y-94564002D01*
X171440842Y-94715959D01*
X171440838Y-94715961D01*
X171229597Y-94828872D01*
X171229594Y-94828873D01*
X171000378Y-94898405D01*
X170881281Y-94910135D01*
X170821733Y-94916000D01*
X169178267Y-94916000D01*
X169118719Y-94910135D01*
X168999622Y-94898405D01*
X168770406Y-94828873D01*
X168770403Y-94828872D01*
X168559162Y-94715961D01*
X168559158Y-94715959D01*
X168373998Y-94564002D01*
X168222041Y-94378842D01*
X168201021Y-94339517D01*
X168109128Y-94167597D01*
X168109127Y-94167594D01*
X168039595Y-93938378D01*
X168016117Y-93700000D01*
X168039595Y-93461622D01*
X168109127Y-93232406D01*
X168109128Y-93232403D01*
X168222039Y-93021162D01*
X168222041Y-93021158D01*
X168373998Y-92835998D01*
X168559158Y-92684041D01*
X168598483Y-92663021D01*
X168770403Y-92571128D01*
X168770406Y-92571127D01*
X168999622Y-92501595D01*
X169118719Y-92489865D01*
X169178267Y-92484000D01*
X170821733Y-92484000D01*
X170881281Y-92489865D01*
X170881281Y-92489865D01*
G37*
G36*
X150881281Y-92489865D02*
G01*
X151000378Y-92501595D01*
X151229594Y-92571127D01*
X151229597Y-92571128D01*
X151401517Y-92663021D01*
X151440842Y-92684041D01*
X151626002Y-92835998D01*
X151777959Y-93021158D01*
X151777961Y-93021162D01*
X151890872Y-93232403D01*
X151890873Y-93232406D01*
X151960405Y-93461622D01*
X151983883Y-93700000D01*
X151960405Y-93938378D01*
X151890873Y-94167594D01*
X151890872Y-94167597D01*
X151798979Y-94339517D01*
X151777959Y-94378842D01*
X151626002Y-94564002D01*
X151440842Y-94715959D01*
X151440838Y-94715961D01*
X151229597Y-94828872D01*
X151229594Y-94828873D01*
X151000378Y-94898405D01*
X150881281Y-94910135D01*
X150821733Y-94916000D01*
X149178267Y-94916000D01*
X149118719Y-94910135D01*
X148999622Y-94898405D01*
X148770406Y-94828873D01*
X148770403Y-94828872D01*
X148559162Y-94715961D01*
X148559158Y-94715959D01*
X148373998Y-94564002D01*
X148222041Y-94378842D01*
X148201021Y-94339517D01*
X148109128Y-94167597D01*
X148109127Y-94167594D01*
X148039595Y-93938378D01*
X148016117Y-93700000D01*
X148039595Y-93461622D01*
X148109127Y-93232406D01*
X148109128Y-93232403D01*
X148222039Y-93021162D01*
X148222041Y-93021158D01*
X148373998Y-92835998D01*
X148559158Y-92684041D01*
X148598483Y-92663021D01*
X148770403Y-92571128D01*
X148770406Y-92571127D01*
X148999622Y-92501595D01*
X149118719Y-92489865D01*
X149178267Y-92484000D01*
X150821733Y-92484000D01*
X150881281Y-92489865D01*
X150881281Y-92489865D01*
G37*
G36*
X130881281Y-92489865D02*
G01*
X131000378Y-92501595D01*
X131229594Y-92571127D01*
X131229597Y-92571128D01*
X131401517Y-92663021D01*
X131440842Y-92684041D01*
X131626002Y-92835998D01*
X131777959Y-93021158D01*
X131777961Y-93021162D01*
X131890872Y-93232403D01*
X131890873Y-93232406D01*
X131960405Y-93461622D01*
X131983883Y-93700000D01*
X131960405Y-93938378D01*
X131890873Y-94167594D01*
X131890872Y-94167597D01*
X131798979Y-94339517D01*
X131777959Y-94378842D01*
X131626002Y-94564002D01*
X131440842Y-94715959D01*
X131440838Y-94715961D01*
X131229597Y-94828872D01*
X131229594Y-94828873D01*
X131000378Y-94898405D01*
X130881281Y-94910135D01*
X130821733Y-94916000D01*
X129178267Y-94916000D01*
X129118719Y-94910135D01*
X128999622Y-94898405D01*
X128770406Y-94828873D01*
X128770403Y-94828872D01*
X128559162Y-94715961D01*
X128559158Y-94715959D01*
X128373998Y-94564002D01*
X128222041Y-94378842D01*
X128201021Y-94339517D01*
X128109128Y-94167597D01*
X128109127Y-94167594D01*
X128039595Y-93938378D01*
X128016117Y-93700000D01*
X128039595Y-93461622D01*
X128109127Y-93232406D01*
X128109128Y-93232403D01*
X128222039Y-93021162D01*
X128222041Y-93021158D01*
X128373998Y-92835998D01*
X128559158Y-92684041D01*
X128598483Y-92663021D01*
X128770403Y-92571128D01*
X128770406Y-92571127D01*
X128999622Y-92501595D01*
X129118719Y-92489865D01*
X129178267Y-92484000D01*
X130821733Y-92484000D01*
X130881281Y-92489865D01*
X130881281Y-92489865D01*
G37*
G36*
X102628707Y-91657596D02*
G01*
X102705836Y-91665193D01*
X102903762Y-91725233D01*
X102903765Y-91725234D01*
X103086170Y-91822732D01*
X103246055Y-91953945D01*
X103377268Y-92113830D01*
X103474766Y-92296235D01*
X103474767Y-92296238D01*
X103534807Y-92494164D01*
X103555080Y-92700000D01*
X103534807Y-92905836D01*
X103499823Y-93021162D01*
X103474766Y-93103765D01*
X103377268Y-93286170D01*
X103246055Y-93446055D01*
X103086170Y-93577268D01*
X102903765Y-93674766D01*
X102903762Y-93674767D01*
X102705836Y-93734807D01*
X102628707Y-93742403D01*
X102551580Y-93750000D01*
X102448420Y-93750000D01*
X102371293Y-93742403D01*
X102294164Y-93734807D01*
X102096238Y-93674767D01*
X102096235Y-93674766D01*
X101913830Y-93577268D01*
X101753945Y-93446055D01*
X101622732Y-93286170D01*
X101525234Y-93103765D01*
X101500177Y-93021162D01*
X101465193Y-92905836D01*
X101444920Y-92700000D01*
X101465193Y-92494164D01*
X101525233Y-92296238D01*
X101525234Y-92296235D01*
X101622732Y-92113830D01*
X101753945Y-91953945D01*
X101913830Y-91822732D01*
X102096235Y-91725234D01*
X102096238Y-91725233D01*
X102294164Y-91665193D01*
X102371293Y-91657596D01*
X102448420Y-91650000D01*
X102551580Y-91650000D01*
X102628707Y-91657596D01*
X102628707Y-91657596D01*
G37*
G36*
X102628707Y-89117596D02*
G01*
X102705836Y-89125193D01*
X102903762Y-89185233D01*
X102903765Y-89185234D01*
X103086170Y-89282732D01*
X103246055Y-89413945D01*
X103377268Y-89573830D01*
X103474766Y-89756235D01*
X103474767Y-89756238D01*
X103534807Y-89954164D01*
X103555080Y-90160000D01*
X103534807Y-90365836D01*
X103474767Y-90563762D01*
X103474766Y-90563765D01*
X103377268Y-90746170D01*
X103246055Y-90906055D01*
X103086170Y-91037268D01*
X102903765Y-91134766D01*
X102903762Y-91134767D01*
X102705836Y-91194807D01*
X102628707Y-91202404D01*
X102551580Y-91210000D01*
X102448420Y-91210000D01*
X102371293Y-91202404D01*
X102294164Y-91194807D01*
X102096238Y-91134767D01*
X102096235Y-91134766D01*
X101913830Y-91037268D01*
X101753945Y-90906055D01*
X101622732Y-90746170D01*
X101525234Y-90563765D01*
X101525233Y-90563762D01*
X101465193Y-90365836D01*
X101444920Y-90160000D01*
X101465193Y-89954164D01*
X101525233Y-89756238D01*
X101525234Y-89756235D01*
X101622732Y-89573830D01*
X101753945Y-89413945D01*
X101913830Y-89282732D01*
X102096235Y-89185234D01*
X102096238Y-89185233D01*
X102294164Y-89125193D01*
X102371293Y-89117596D01*
X102448420Y-89110000D01*
X102551580Y-89110000D01*
X102628707Y-89117596D01*
X102628707Y-89117596D01*
G37*
G36*
X130881281Y-87789865D02*
G01*
X131000378Y-87801595D01*
X131229594Y-87871127D01*
X131229597Y-87871128D01*
X131401517Y-87963021D01*
X131440842Y-87984041D01*
X131626002Y-88135998D01*
X131777959Y-88321158D01*
X131777961Y-88321162D01*
X131890872Y-88532403D01*
X131890873Y-88532406D01*
X131960405Y-88761622D01*
X131983883Y-89000000D01*
X131960405Y-89238378D01*
X131946950Y-89282732D01*
X131890872Y-89467597D01*
X131834089Y-89573830D01*
X131777959Y-89678842D01*
X131626002Y-89864002D01*
X131440842Y-90015959D01*
X131440838Y-90015961D01*
X131229597Y-90128872D01*
X131229594Y-90128873D01*
X131000378Y-90198405D01*
X130881281Y-90210135D01*
X130821733Y-90216000D01*
X129178267Y-90216000D01*
X129118719Y-90210135D01*
X128999622Y-90198405D01*
X128770406Y-90128873D01*
X128770403Y-90128872D01*
X128559162Y-90015961D01*
X128559158Y-90015959D01*
X128373998Y-89864002D01*
X128222041Y-89678842D01*
X128165911Y-89573830D01*
X128109128Y-89467597D01*
X128053050Y-89282732D01*
X128039595Y-89238378D01*
X128016117Y-89000000D01*
X128039595Y-88761622D01*
X128109127Y-88532406D01*
X128109128Y-88532403D01*
X128222039Y-88321162D01*
X128222041Y-88321158D01*
X128373998Y-88135998D01*
X128559158Y-87984041D01*
X128598483Y-87963021D01*
X128770403Y-87871128D01*
X128770406Y-87871127D01*
X128999622Y-87801595D01*
X129118719Y-87789865D01*
X129178267Y-87784000D01*
X130821733Y-87784000D01*
X130881281Y-87789865D01*
X130881281Y-87789865D01*
G37*
G36*
X170881281Y-87789865D02*
G01*
X171000378Y-87801595D01*
X171229594Y-87871127D01*
X171229597Y-87871128D01*
X171401517Y-87963021D01*
X171440842Y-87984041D01*
X171626002Y-88135998D01*
X171777959Y-88321158D01*
X171777961Y-88321162D01*
X171890872Y-88532403D01*
X171890873Y-88532406D01*
X171960405Y-88761622D01*
X171983883Y-89000000D01*
X171960405Y-89238378D01*
X171946950Y-89282732D01*
X171890872Y-89467597D01*
X171834089Y-89573830D01*
X171777959Y-89678842D01*
X171626002Y-89864002D01*
X171440842Y-90015959D01*
X171440838Y-90015961D01*
X171229597Y-90128872D01*
X171229594Y-90128873D01*
X171000378Y-90198405D01*
X170881281Y-90210135D01*
X170821733Y-90216000D01*
X169178267Y-90216000D01*
X169118719Y-90210135D01*
X168999622Y-90198405D01*
X168770406Y-90128873D01*
X168770403Y-90128872D01*
X168559162Y-90015961D01*
X168559158Y-90015959D01*
X168373998Y-89864002D01*
X168222041Y-89678842D01*
X168165911Y-89573830D01*
X168109128Y-89467597D01*
X168053050Y-89282732D01*
X168039595Y-89238378D01*
X168016117Y-89000000D01*
X168039595Y-88761622D01*
X168109127Y-88532406D01*
X168109128Y-88532403D01*
X168222039Y-88321162D01*
X168222041Y-88321158D01*
X168373998Y-88135998D01*
X168559158Y-87984041D01*
X168598483Y-87963021D01*
X168770403Y-87871128D01*
X168770406Y-87871127D01*
X168999622Y-87801595D01*
X169118719Y-87789865D01*
X169178267Y-87784000D01*
X170821733Y-87784000D01*
X170881281Y-87789865D01*
X170881281Y-87789865D01*
G37*
G36*
X110881281Y-87789865D02*
G01*
X111000378Y-87801595D01*
X111229594Y-87871127D01*
X111229597Y-87871128D01*
X111401517Y-87963021D01*
X111440842Y-87984041D01*
X111626002Y-88135998D01*
X111777959Y-88321158D01*
X111777961Y-88321162D01*
X111890872Y-88532403D01*
X111890873Y-88532406D01*
X111960405Y-88761622D01*
X111983883Y-89000000D01*
X111960405Y-89238378D01*
X111946950Y-89282732D01*
X111890872Y-89467597D01*
X111834089Y-89573830D01*
X111777959Y-89678842D01*
X111626002Y-89864002D01*
X111440842Y-90015959D01*
X111440838Y-90015961D01*
X111229597Y-90128872D01*
X111229594Y-90128873D01*
X111000378Y-90198405D01*
X110881281Y-90210135D01*
X110821733Y-90216000D01*
X109178267Y-90216000D01*
X109118719Y-90210135D01*
X108999622Y-90198405D01*
X108770406Y-90128873D01*
X108770403Y-90128872D01*
X108559162Y-90015961D01*
X108559158Y-90015959D01*
X108373998Y-89864002D01*
X108222041Y-89678842D01*
X108165911Y-89573830D01*
X108109128Y-89467597D01*
X108053050Y-89282732D01*
X108039595Y-89238378D01*
X108016117Y-89000000D01*
X108039595Y-88761622D01*
X108109127Y-88532406D01*
X108109128Y-88532403D01*
X108222039Y-88321162D01*
X108222041Y-88321158D01*
X108373998Y-88135998D01*
X108559158Y-87984041D01*
X108598483Y-87963021D01*
X108770403Y-87871128D01*
X108770406Y-87871127D01*
X108999622Y-87801595D01*
X109118719Y-87789865D01*
X109178267Y-87784000D01*
X110821733Y-87784000D01*
X110881281Y-87789865D01*
X110881281Y-87789865D01*
G37*
G36*
X150881281Y-87789865D02*
G01*
X151000378Y-87801595D01*
X151229594Y-87871127D01*
X151229597Y-87871128D01*
X151401517Y-87963021D01*
X151440842Y-87984041D01*
X151626002Y-88135998D01*
X151777959Y-88321158D01*
X151777961Y-88321162D01*
X151890872Y-88532403D01*
X151890873Y-88532406D01*
X151960405Y-88761622D01*
X151983883Y-89000000D01*
X151960405Y-89238378D01*
X151946950Y-89282732D01*
X151890872Y-89467597D01*
X151834089Y-89573830D01*
X151777959Y-89678842D01*
X151626002Y-89864002D01*
X151440842Y-90015959D01*
X151440838Y-90015961D01*
X151229597Y-90128872D01*
X151229594Y-90128873D01*
X151000378Y-90198405D01*
X150881281Y-90210135D01*
X150821733Y-90216000D01*
X149178267Y-90216000D01*
X149118719Y-90210135D01*
X148999622Y-90198405D01*
X148770406Y-90128873D01*
X148770403Y-90128872D01*
X148559162Y-90015961D01*
X148559158Y-90015959D01*
X148373998Y-89864002D01*
X148222041Y-89678842D01*
X148165911Y-89573830D01*
X148109128Y-89467597D01*
X148053050Y-89282732D01*
X148039595Y-89238378D01*
X148016117Y-89000000D01*
X148039595Y-88761622D01*
X148109127Y-88532406D01*
X148109128Y-88532403D01*
X148222039Y-88321162D01*
X148222041Y-88321158D01*
X148373998Y-88135998D01*
X148559158Y-87984041D01*
X148598483Y-87963021D01*
X148770403Y-87871128D01*
X148770406Y-87871127D01*
X148999622Y-87801595D01*
X149118719Y-87789865D01*
X149178267Y-87784000D01*
X150821733Y-87784000D01*
X150881281Y-87789865D01*
X150881281Y-87789865D01*
G37*
G36*
X102628707Y-86577597D02*
G01*
X102705836Y-86585193D01*
X102903762Y-86645233D01*
X102903765Y-86645234D01*
X103086170Y-86742732D01*
X103246055Y-86873945D01*
X103377268Y-87033830D01*
X103474766Y-87216235D01*
X103474767Y-87216238D01*
X103534807Y-87414164D01*
X103555080Y-87620000D01*
X103534807Y-87825836D01*
X103486817Y-87984039D01*
X103474766Y-88023765D01*
X103377268Y-88206170D01*
X103246055Y-88366055D01*
X103086170Y-88497268D01*
X102903765Y-88594766D01*
X102903762Y-88594767D01*
X102705836Y-88654807D01*
X102628707Y-88662404D01*
X102551580Y-88670000D01*
X102448420Y-88670000D01*
X102371293Y-88662404D01*
X102294164Y-88654807D01*
X102096238Y-88594767D01*
X102096235Y-88594766D01*
X101913830Y-88497268D01*
X101753945Y-88366055D01*
X101622732Y-88206170D01*
X101525234Y-88023765D01*
X101513183Y-87984039D01*
X101465193Y-87825836D01*
X101444920Y-87620000D01*
X101465193Y-87414164D01*
X101525233Y-87216238D01*
X101525234Y-87216235D01*
X101622732Y-87033830D01*
X101753945Y-86873945D01*
X101913830Y-86742732D01*
X102096235Y-86645234D01*
X102096238Y-86645233D01*
X102294164Y-86585193D01*
X102371293Y-86577597D01*
X102448420Y-86570000D01*
X102551580Y-86570000D01*
X102628707Y-86577597D01*
X102628707Y-86577597D01*
G37*
G36*
X102628707Y-84037596D02*
G01*
X102705836Y-84045193D01*
X102903762Y-84105233D01*
X102903765Y-84105234D01*
X103086170Y-84202732D01*
X103246055Y-84333945D01*
X103377268Y-84493830D01*
X103474766Y-84676235D01*
X103474767Y-84676238D01*
X103534807Y-84874164D01*
X103555080Y-85080000D01*
X103534807Y-85285836D01*
X103491417Y-85428873D01*
X103474766Y-85483765D01*
X103377268Y-85666170D01*
X103246055Y-85826055D01*
X103086170Y-85957268D01*
X102903765Y-86054766D01*
X102903762Y-86054767D01*
X102705836Y-86114807D01*
X102628707Y-86122403D01*
X102551580Y-86130000D01*
X102448420Y-86130000D01*
X102371293Y-86122403D01*
X102294164Y-86114807D01*
X102096238Y-86054767D01*
X102096235Y-86054766D01*
X101913830Y-85957268D01*
X101753945Y-85826055D01*
X101622732Y-85666170D01*
X101525234Y-85483765D01*
X101508583Y-85428873D01*
X101465193Y-85285836D01*
X101444920Y-85080000D01*
X101465193Y-84874164D01*
X101525233Y-84676238D01*
X101525234Y-84676235D01*
X101622732Y-84493830D01*
X101753945Y-84333945D01*
X101913830Y-84202732D01*
X102096235Y-84105234D01*
X102096238Y-84105233D01*
X102294164Y-84045193D01*
X102371293Y-84037596D01*
X102448420Y-84030000D01*
X102551580Y-84030000D01*
X102628707Y-84037596D01*
X102628707Y-84037596D01*
G37*
G36*
X170881281Y-83089865D02*
G01*
X171000378Y-83101595D01*
X171229594Y-83171127D01*
X171229597Y-83171128D01*
X171401517Y-83263021D01*
X171440842Y-83284041D01*
X171626002Y-83435998D01*
X171777959Y-83621158D01*
X171777961Y-83621162D01*
X171890872Y-83832403D01*
X171890873Y-83832406D01*
X171960405Y-84061622D01*
X171983883Y-84300000D01*
X171960405Y-84538378D01*
X171890873Y-84767594D01*
X171890872Y-84767597D01*
X171798979Y-84939517D01*
X171777959Y-84978842D01*
X171626002Y-85164002D01*
X171440842Y-85315959D01*
X171440838Y-85315961D01*
X171229597Y-85428872D01*
X171229594Y-85428873D01*
X171000378Y-85498405D01*
X170881281Y-85510135D01*
X170821733Y-85516000D01*
X169178267Y-85516000D01*
X169118719Y-85510135D01*
X168999622Y-85498405D01*
X168770406Y-85428873D01*
X168770403Y-85428872D01*
X168559162Y-85315961D01*
X168559158Y-85315959D01*
X168373998Y-85164002D01*
X168222041Y-84978842D01*
X168201021Y-84939517D01*
X168109128Y-84767597D01*
X168109127Y-84767594D01*
X168039595Y-84538378D01*
X168016117Y-84300000D01*
X168039595Y-84061622D01*
X168109127Y-83832406D01*
X168109128Y-83832403D01*
X168222039Y-83621162D01*
X168222041Y-83621158D01*
X168373998Y-83435998D01*
X168559158Y-83284041D01*
X168598483Y-83263021D01*
X168770403Y-83171128D01*
X168770406Y-83171127D01*
X168999622Y-83101595D01*
X169118719Y-83089865D01*
X169178267Y-83084000D01*
X170821733Y-83084000D01*
X170881281Y-83089865D01*
X170881281Y-83089865D01*
G37*
G36*
X110881281Y-83089865D02*
G01*
X111000378Y-83101595D01*
X111229594Y-83171127D01*
X111229597Y-83171128D01*
X111401517Y-83263021D01*
X111440842Y-83284041D01*
X111626002Y-83435998D01*
X111777959Y-83621158D01*
X111777961Y-83621162D01*
X111890872Y-83832403D01*
X111890873Y-83832406D01*
X111960405Y-84061622D01*
X111983883Y-84300000D01*
X111960405Y-84538378D01*
X111890873Y-84767594D01*
X111890872Y-84767597D01*
X111798979Y-84939517D01*
X111777959Y-84978842D01*
X111626002Y-85164002D01*
X111440842Y-85315959D01*
X111440838Y-85315961D01*
X111229597Y-85428872D01*
X111229594Y-85428873D01*
X111000378Y-85498405D01*
X110881281Y-85510135D01*
X110821733Y-85516000D01*
X109178267Y-85516000D01*
X109118719Y-85510135D01*
X108999622Y-85498405D01*
X108770406Y-85428873D01*
X108770403Y-85428872D01*
X108559162Y-85315961D01*
X108559158Y-85315959D01*
X108373998Y-85164002D01*
X108222041Y-84978842D01*
X108201021Y-84939517D01*
X108109128Y-84767597D01*
X108109127Y-84767594D01*
X108039595Y-84538378D01*
X108016117Y-84300000D01*
X108039595Y-84061622D01*
X108109127Y-83832406D01*
X108109128Y-83832403D01*
X108222039Y-83621162D01*
X108222041Y-83621158D01*
X108373998Y-83435998D01*
X108559158Y-83284041D01*
X108598483Y-83263021D01*
X108770403Y-83171128D01*
X108770406Y-83171127D01*
X108999622Y-83101595D01*
X109118719Y-83089865D01*
X109178267Y-83084000D01*
X110821733Y-83084000D01*
X110881281Y-83089865D01*
X110881281Y-83089865D01*
G37*
G36*
X130881281Y-83089865D02*
G01*
X131000378Y-83101595D01*
X131229594Y-83171127D01*
X131229597Y-83171128D01*
X131401517Y-83263021D01*
X131440842Y-83284041D01*
X131626002Y-83435998D01*
X131777959Y-83621158D01*
X131777961Y-83621162D01*
X131890872Y-83832403D01*
X131890873Y-83832406D01*
X131960405Y-84061622D01*
X131983883Y-84300000D01*
X131960405Y-84538378D01*
X131890873Y-84767594D01*
X131890872Y-84767597D01*
X131798979Y-84939517D01*
X131777959Y-84978842D01*
X131626002Y-85164002D01*
X131440842Y-85315959D01*
X131440838Y-85315961D01*
X131229597Y-85428872D01*
X131229594Y-85428873D01*
X131000378Y-85498405D01*
X130881281Y-85510135D01*
X130821733Y-85516000D01*
X129178267Y-85516000D01*
X129118719Y-85510135D01*
X128999622Y-85498405D01*
X128770406Y-85428873D01*
X128770403Y-85428872D01*
X128559162Y-85315961D01*
X128559158Y-85315959D01*
X128373998Y-85164002D01*
X128222041Y-84978842D01*
X128201021Y-84939517D01*
X128109128Y-84767597D01*
X128109127Y-84767594D01*
X128039595Y-84538378D01*
X128016117Y-84300000D01*
X128039595Y-84061622D01*
X128109127Y-83832406D01*
X128109128Y-83832403D01*
X128222039Y-83621162D01*
X128222041Y-83621158D01*
X128373998Y-83435998D01*
X128559158Y-83284041D01*
X128598483Y-83263021D01*
X128770403Y-83171128D01*
X128770406Y-83171127D01*
X128999622Y-83101595D01*
X129118719Y-83089865D01*
X129178267Y-83084000D01*
X130821733Y-83084000D01*
X130881281Y-83089865D01*
X130881281Y-83089865D01*
G37*
G36*
X150881281Y-83089865D02*
G01*
X151000378Y-83101595D01*
X151229594Y-83171127D01*
X151229597Y-83171128D01*
X151401517Y-83263021D01*
X151440842Y-83284041D01*
X151626002Y-83435998D01*
X151777959Y-83621158D01*
X151777961Y-83621162D01*
X151890872Y-83832403D01*
X151890873Y-83832406D01*
X151960405Y-84061622D01*
X151983883Y-84300000D01*
X151960405Y-84538378D01*
X151890873Y-84767594D01*
X151890872Y-84767597D01*
X151798979Y-84939517D01*
X151777959Y-84978842D01*
X151626002Y-85164002D01*
X151440842Y-85315959D01*
X151440838Y-85315961D01*
X151229597Y-85428872D01*
X151229594Y-85428873D01*
X151000378Y-85498405D01*
X150881281Y-85510135D01*
X150821733Y-85516000D01*
X149178267Y-85516000D01*
X149118719Y-85510135D01*
X148999622Y-85498405D01*
X148770406Y-85428873D01*
X148770403Y-85428872D01*
X148559162Y-85315961D01*
X148559158Y-85315959D01*
X148373998Y-85164002D01*
X148222041Y-84978842D01*
X148201021Y-84939517D01*
X148109128Y-84767597D01*
X148109127Y-84767594D01*
X148039595Y-84538378D01*
X148016117Y-84300000D01*
X148039595Y-84061622D01*
X148109127Y-83832406D01*
X148109128Y-83832403D01*
X148222039Y-83621162D01*
X148222041Y-83621158D01*
X148373998Y-83435998D01*
X148559158Y-83284041D01*
X148598483Y-83263021D01*
X148770403Y-83171128D01*
X148770406Y-83171127D01*
X148999622Y-83101595D01*
X149118719Y-83089865D01*
X149178267Y-83084000D01*
X150821733Y-83084000D01*
X150881281Y-83089865D01*
X150881281Y-83089865D01*
G37*
G36*
X102628707Y-81497597D02*
G01*
X102705836Y-81505193D01*
X102903762Y-81565233D01*
X102903765Y-81565234D01*
X103086170Y-81662732D01*
X103246055Y-81793945D01*
X103377268Y-81953830D01*
X103474766Y-82136235D01*
X103474767Y-82136238D01*
X103534807Y-82334164D01*
X103555080Y-82540000D01*
X103534807Y-82745836D01*
X103474767Y-82943762D01*
X103474766Y-82943765D01*
X103377268Y-83126170D01*
X103246055Y-83286055D01*
X103086170Y-83417268D01*
X102903765Y-83514766D01*
X102903762Y-83514767D01*
X102705836Y-83574807D01*
X102628707Y-83582404D01*
X102551580Y-83590000D01*
X102448420Y-83590000D01*
X102371293Y-83582404D01*
X102294164Y-83574807D01*
X102096238Y-83514767D01*
X102096235Y-83514766D01*
X101913830Y-83417268D01*
X101753945Y-83286055D01*
X101622732Y-83126170D01*
X101525234Y-82943765D01*
X101525233Y-82943762D01*
X101465193Y-82745836D01*
X101444920Y-82540000D01*
X101465193Y-82334164D01*
X101525233Y-82136238D01*
X101525234Y-82136235D01*
X101622732Y-81953830D01*
X101753945Y-81793945D01*
X101913830Y-81662732D01*
X102096235Y-81565234D01*
X102096238Y-81565233D01*
X102294164Y-81505193D01*
X102371293Y-81497597D01*
X102448420Y-81490000D01*
X102551580Y-81490000D01*
X102628707Y-81497597D01*
X102628707Y-81497597D01*
G37*
G36*
X103550000Y-81050000D02*
G01*
X101450000Y-81050000D01*
X101450000Y-78950000D01*
X103550000Y-78950000D01*
X103550000Y-81050000D01*
X103550000Y-81050000D01*
G37*
G36*
X110166759Y-72708199D02*
G01*
X110333258Y-72724598D01*
X110650584Y-72820858D01*
X110653712Y-72821807D01*
X110949035Y-72979660D01*
X110949038Y-72979662D01*
X110949039Y-72979663D01*
X111207897Y-73192103D01*
X111341113Y-73354426D01*
X111420340Y-73450965D01*
X111578193Y-73746288D01*
X111578194Y-73746291D01*
X111675402Y-74066742D01*
X111708225Y-74400000D01*
X111675402Y-74733258D01*
X111578194Y-75053709D01*
X111578193Y-75053712D01*
X111420340Y-75349035D01*
X111207897Y-75607897D01*
X110949035Y-75820340D01*
X110653712Y-75978193D01*
X110653709Y-75978194D01*
X110333258Y-76075402D01*
X110166759Y-76091801D01*
X110083511Y-76100000D01*
X108916489Y-76100000D01*
X108833241Y-76091801D01*
X108666742Y-76075402D01*
X108346291Y-75978194D01*
X108346288Y-75978193D01*
X108050965Y-75820340D01*
X107792103Y-75607897D01*
X107579660Y-75349035D01*
X107421807Y-75053712D01*
X107421806Y-75053709D01*
X107324598Y-74733258D01*
X107291775Y-74400000D01*
X107324598Y-74066742D01*
X107421806Y-73746291D01*
X107421807Y-73746288D01*
X107579660Y-73450965D01*
X107658888Y-73354426D01*
X107792103Y-73192103D01*
X108050961Y-72979663D01*
X108050962Y-72979662D01*
X108050965Y-72979660D01*
X108346288Y-72821807D01*
X108349416Y-72820858D01*
X108666742Y-72724598D01*
X108833241Y-72708199D01*
X108916489Y-72700000D01*
X110083511Y-72700000D01*
X110166759Y-72708199D01*
X110166759Y-72708199D01*
G37*
G36*
X170166759Y-72708199D02*
G01*
X170333258Y-72724598D01*
X170650584Y-72820858D01*
X170653712Y-72821807D01*
X170949035Y-72979660D01*
X170949038Y-72979662D01*
X170949039Y-72979663D01*
X171207897Y-73192103D01*
X171341113Y-73354426D01*
X171420340Y-73450965D01*
X171578193Y-73746288D01*
X171578194Y-73746291D01*
X171675402Y-74066742D01*
X171708225Y-74400000D01*
X171675402Y-74733258D01*
X171578194Y-75053709D01*
X171578193Y-75053712D01*
X171420340Y-75349035D01*
X171207897Y-75607897D01*
X170949035Y-75820340D01*
X170653712Y-75978193D01*
X170653709Y-75978194D01*
X170333258Y-76075402D01*
X170166759Y-76091801D01*
X170083511Y-76100000D01*
X168916489Y-76100000D01*
X168833241Y-76091801D01*
X168666742Y-76075402D01*
X168346291Y-75978194D01*
X168346288Y-75978193D01*
X168050965Y-75820340D01*
X167792103Y-75607897D01*
X167579660Y-75349035D01*
X167421807Y-75053712D01*
X167421806Y-75053709D01*
X167324598Y-74733258D01*
X167291775Y-74400000D01*
X167324598Y-74066742D01*
X167421806Y-73746291D01*
X167421807Y-73746288D01*
X167579660Y-73450965D01*
X167658888Y-73354426D01*
X167792103Y-73192103D01*
X168050961Y-72979663D01*
X168050962Y-72979662D01*
X168050965Y-72979660D01*
X168346288Y-72821807D01*
X168349416Y-72820858D01*
X168666742Y-72724598D01*
X168833241Y-72708199D01*
X168916489Y-72700000D01*
X170083511Y-72700000D01*
X170166759Y-72708199D01*
X170166759Y-72708199D01*
G37*
G36*
X150166759Y-72708199D02*
G01*
X150333258Y-72724598D01*
X150650584Y-72820858D01*
X150653712Y-72821807D01*
X150949035Y-72979660D01*
X150949038Y-72979662D01*
X150949039Y-72979663D01*
X151207897Y-73192103D01*
X151341113Y-73354426D01*
X151420340Y-73450965D01*
X151578193Y-73746288D01*
X151578194Y-73746291D01*
X151675402Y-74066742D01*
X151708225Y-74400000D01*
X151675402Y-74733258D01*
X151578194Y-75053709D01*
X151578193Y-75053712D01*
X151420340Y-75349035D01*
X151207897Y-75607897D01*
X150949035Y-75820340D01*
X150653712Y-75978193D01*
X150653709Y-75978194D01*
X150333258Y-76075402D01*
X150166759Y-76091801D01*
X150083511Y-76100000D01*
X148916489Y-76100000D01*
X148833241Y-76091801D01*
X148666742Y-76075402D01*
X148346291Y-75978194D01*
X148346288Y-75978193D01*
X148050965Y-75820340D01*
X147792103Y-75607897D01*
X147579660Y-75349035D01*
X147421807Y-75053712D01*
X147421806Y-75053709D01*
X147324598Y-74733258D01*
X147291775Y-74400000D01*
X147324598Y-74066742D01*
X147421806Y-73746291D01*
X147421807Y-73746288D01*
X147579660Y-73450965D01*
X147658888Y-73354426D01*
X147792103Y-73192103D01*
X148050961Y-72979663D01*
X148050962Y-72979662D01*
X148050965Y-72979660D01*
X148346288Y-72821807D01*
X148349416Y-72820858D01*
X148666742Y-72724598D01*
X148833241Y-72708199D01*
X148916489Y-72700000D01*
X150083511Y-72700000D01*
X150166759Y-72708199D01*
X150166759Y-72708199D01*
G37*
G36*
X130166759Y-72708199D02*
G01*
X130333258Y-72724598D01*
X130650584Y-72820858D01*
X130653712Y-72821807D01*
X130949035Y-72979660D01*
X130949038Y-72979662D01*
X130949039Y-72979663D01*
X131207897Y-73192103D01*
X131341113Y-73354426D01*
X131420340Y-73450965D01*
X131578193Y-73746288D01*
X131578194Y-73746291D01*
X131675402Y-74066742D01*
X131708225Y-74400000D01*
X131675402Y-74733258D01*
X131578194Y-75053709D01*
X131578193Y-75053712D01*
X131420340Y-75349035D01*
X131207897Y-75607897D01*
X130949035Y-75820340D01*
X130653712Y-75978193D01*
X130653709Y-75978194D01*
X130333258Y-76075402D01*
X130166759Y-76091801D01*
X130083511Y-76100000D01*
X128916489Y-76100000D01*
X128833241Y-76091801D01*
X128666742Y-76075402D01*
X128346291Y-75978194D01*
X128346288Y-75978193D01*
X128050965Y-75820340D01*
X127792103Y-75607897D01*
X127579660Y-75349035D01*
X127421807Y-75053712D01*
X127421806Y-75053709D01*
X127324598Y-74733258D01*
X127291775Y-74400000D01*
X127324598Y-74066742D01*
X127421806Y-73746291D01*
X127421807Y-73746288D01*
X127579660Y-73450965D01*
X127658888Y-73354426D01*
X127792103Y-73192103D01*
X128050961Y-72979663D01*
X128050962Y-72979662D01*
X128050965Y-72979660D01*
X128346288Y-72821807D01*
X128349416Y-72820858D01*
X128666742Y-72724598D01*
X128833241Y-72708199D01*
X128916489Y-72700000D01*
X130083511Y-72700000D01*
X130166759Y-72708199D01*
X130166759Y-72708199D01*
G37*
G36*
X122820857Y-71442272D02*
G01*
X123021043Y-71525192D01*
X123021045Y-71525193D01*
X123111738Y-71585792D01*
X123201208Y-71645574D01*
X123354426Y-71798792D01*
X123474808Y-71978957D01*
X123557728Y-72179143D01*
X123600000Y-72391658D01*
X123600000Y-72608342D01*
X123557728Y-72820857D01*
X123474808Y-73021043D01*
X123360510Y-73192103D01*
X123354425Y-73201209D01*
X123201209Y-73354425D01*
X123021045Y-73474807D01*
X123021044Y-73474808D01*
X123021043Y-73474808D01*
X122820857Y-73557728D01*
X122608342Y-73600000D01*
X122391658Y-73600000D01*
X122179143Y-73557728D01*
X121978957Y-73474808D01*
X121978956Y-73474808D01*
X121978955Y-73474807D01*
X121798791Y-73354425D01*
X121645575Y-73201209D01*
X121639491Y-73192103D01*
X121525192Y-73021043D01*
X121442272Y-72820857D01*
X121400000Y-72608342D01*
X121400000Y-72391658D01*
X121442272Y-72179143D01*
X121525192Y-71978957D01*
X121645574Y-71798792D01*
X121798792Y-71645574D01*
X121888262Y-71585792D01*
X121978955Y-71525193D01*
X121978957Y-71525192D01*
X122179143Y-71442272D01*
X122391658Y-71400000D01*
X122608342Y-71400000D01*
X122820857Y-71442272D01*
X122820857Y-71442272D01*
G37*
G36*
X102820857Y-71442272D02*
G01*
X103021043Y-71525192D01*
X103021045Y-71525193D01*
X103111738Y-71585792D01*
X103201208Y-71645574D01*
X103354426Y-71798792D01*
X103474808Y-71978957D01*
X103557728Y-72179143D01*
X103600000Y-72391658D01*
X103600000Y-72608342D01*
X103557728Y-72820857D01*
X103474808Y-73021043D01*
X103360510Y-73192103D01*
X103354425Y-73201209D01*
X103201209Y-73354425D01*
X103021045Y-73474807D01*
X103021044Y-73474808D01*
X103021043Y-73474808D01*
X102820857Y-73557728D01*
X102608342Y-73600000D01*
X102391658Y-73600000D01*
X102179143Y-73557728D01*
X101978957Y-73474808D01*
X101978956Y-73474808D01*
X101978955Y-73474807D01*
X101798791Y-73354425D01*
X101645575Y-73201209D01*
X101639491Y-73192103D01*
X101525192Y-73021043D01*
X101442272Y-72820857D01*
X101400000Y-72608342D01*
X101400000Y-72391658D01*
X101442272Y-72179143D01*
X101525192Y-71978957D01*
X101645574Y-71798792D01*
X101798792Y-71645574D01*
X101888262Y-71585792D01*
X101978955Y-71525193D01*
X101978957Y-71525192D01*
X102179143Y-71442272D01*
X102391658Y-71400000D01*
X102608342Y-71400000D01*
X102820857Y-71442272D01*
X102820857Y-71442272D01*
G37*
G36*
X142820857Y-71442272D02*
G01*
X143021043Y-71525192D01*
X143021045Y-71525193D01*
X143111738Y-71585792D01*
X143201208Y-71645574D01*
X143354426Y-71798792D01*
X143474808Y-71978957D01*
X143557728Y-72179143D01*
X143600000Y-72391658D01*
X143600000Y-72608342D01*
X143557728Y-72820857D01*
X143474808Y-73021043D01*
X143360510Y-73192103D01*
X143354425Y-73201209D01*
X143201209Y-73354425D01*
X143021045Y-73474807D01*
X143021044Y-73474808D01*
X143021043Y-73474808D01*
X142820857Y-73557728D01*
X142608342Y-73600000D01*
X142391658Y-73600000D01*
X142179143Y-73557728D01*
X141978957Y-73474808D01*
X141978956Y-73474808D01*
X141978955Y-73474807D01*
X141798791Y-73354425D01*
X141645575Y-73201209D01*
X141639491Y-73192103D01*
X141525192Y-73021043D01*
X141442272Y-72820857D01*
X141400000Y-72608342D01*
X141400000Y-72391658D01*
X141442272Y-72179143D01*
X141525192Y-71978957D01*
X141645574Y-71798792D01*
X141798792Y-71645574D01*
X141888262Y-71585792D01*
X141978955Y-71525193D01*
X141978957Y-71525192D01*
X142179143Y-71442272D01*
X142391658Y-71400000D01*
X142608342Y-71400000D01*
X142820857Y-71442272D01*
X142820857Y-71442272D01*
G37*
G36*
X162820857Y-71442272D02*
G01*
X163021043Y-71525192D01*
X163021045Y-71525193D01*
X163111738Y-71585792D01*
X163201208Y-71645574D01*
X163354426Y-71798792D01*
X163474808Y-71978957D01*
X163557728Y-72179143D01*
X163600000Y-72391658D01*
X163600000Y-72608342D01*
X163557728Y-72820857D01*
X163474808Y-73021043D01*
X163360510Y-73192103D01*
X163354425Y-73201209D01*
X163201209Y-73354425D01*
X163021045Y-73474807D01*
X163021044Y-73474808D01*
X163021043Y-73474808D01*
X162820857Y-73557728D01*
X162608342Y-73600000D01*
X162391658Y-73600000D01*
X162179143Y-73557728D01*
X161978957Y-73474808D01*
X161978956Y-73474808D01*
X161978955Y-73474807D01*
X161798791Y-73354425D01*
X161645575Y-73201209D01*
X161639491Y-73192103D01*
X161525192Y-73021043D01*
X161442272Y-72820857D01*
X161400000Y-72608342D01*
X161400000Y-72391658D01*
X161442272Y-72179143D01*
X161525192Y-71978957D01*
X161645574Y-71798792D01*
X161798792Y-71645574D01*
X161888262Y-71585792D01*
X161978955Y-71525193D01*
X161978957Y-71525192D01*
X162179143Y-71442272D01*
X162391658Y-71400000D01*
X162608342Y-71400000D01*
X162820857Y-71442272D01*
X162820857Y-71442272D01*
G37*
G36*
X142820857Y-68942272D02*
G01*
X143021043Y-69025192D01*
X143021045Y-69025193D01*
X143111738Y-69085792D01*
X143201208Y-69145574D01*
X143354426Y-69298792D01*
X143474808Y-69478957D01*
X143557728Y-69679143D01*
X143600000Y-69891658D01*
X143600000Y-70108342D01*
X143557728Y-70320857D01*
X143474808Y-70521043D01*
X143474807Y-70521045D01*
X143354425Y-70701209D01*
X143201209Y-70854425D01*
X143021045Y-70974807D01*
X143021044Y-70974808D01*
X143021043Y-70974808D01*
X142820857Y-71057728D01*
X142608342Y-71100000D01*
X142391658Y-71100000D01*
X142179143Y-71057728D01*
X141978957Y-70974808D01*
X141978956Y-70974808D01*
X141978955Y-70974807D01*
X141798791Y-70854425D01*
X141645575Y-70701209D01*
X141525193Y-70521045D01*
X141525192Y-70521043D01*
X141442272Y-70320857D01*
X141400000Y-70108342D01*
X141400000Y-69891658D01*
X141442272Y-69679143D01*
X141525192Y-69478957D01*
X141645574Y-69298792D01*
X141798792Y-69145574D01*
X141888262Y-69085792D01*
X141978955Y-69025193D01*
X141978957Y-69025192D01*
X142179143Y-68942272D01*
X142391658Y-68900000D01*
X142608342Y-68900000D01*
X142820857Y-68942272D01*
X142820857Y-68942272D01*
G37*
G36*
X162820857Y-68942272D02*
G01*
X163021043Y-69025192D01*
X163021045Y-69025193D01*
X163111738Y-69085792D01*
X163201208Y-69145574D01*
X163354426Y-69298792D01*
X163474808Y-69478957D01*
X163557728Y-69679143D01*
X163600000Y-69891658D01*
X163600000Y-70108342D01*
X163557728Y-70320857D01*
X163474808Y-70521043D01*
X163474807Y-70521045D01*
X163354425Y-70701209D01*
X163201209Y-70854425D01*
X163021045Y-70974807D01*
X163021044Y-70974808D01*
X163021043Y-70974808D01*
X162820857Y-71057728D01*
X162608342Y-71100000D01*
X162391658Y-71100000D01*
X162179143Y-71057728D01*
X161978957Y-70974808D01*
X161978956Y-70974808D01*
X161978955Y-70974807D01*
X161798791Y-70854425D01*
X161645575Y-70701209D01*
X161525193Y-70521045D01*
X161525192Y-70521043D01*
X161442272Y-70320857D01*
X161400000Y-70108342D01*
X161400000Y-69891658D01*
X161442272Y-69679143D01*
X161525192Y-69478957D01*
X161645574Y-69298792D01*
X161798792Y-69145574D01*
X161888262Y-69085792D01*
X161978955Y-69025193D01*
X161978957Y-69025192D01*
X162179143Y-68942272D01*
X162391658Y-68900000D01*
X162608342Y-68900000D01*
X162820857Y-68942272D01*
X162820857Y-68942272D01*
G37*
G36*
X102820857Y-68942272D02*
G01*
X103021043Y-69025192D01*
X103021045Y-69025193D01*
X103111738Y-69085792D01*
X103201208Y-69145574D01*
X103354426Y-69298792D01*
X103474808Y-69478957D01*
X103557728Y-69679143D01*
X103600000Y-69891658D01*
X103600000Y-70108342D01*
X103557728Y-70320857D01*
X103474808Y-70521043D01*
X103474807Y-70521045D01*
X103354425Y-70701209D01*
X103201209Y-70854425D01*
X103021045Y-70974807D01*
X103021044Y-70974808D01*
X103021043Y-70974808D01*
X102820857Y-71057728D01*
X102608342Y-71100000D01*
X102391658Y-71100000D01*
X102179143Y-71057728D01*
X101978957Y-70974808D01*
X101978956Y-70974808D01*
X101978955Y-70974807D01*
X101798791Y-70854425D01*
X101645575Y-70701209D01*
X101525193Y-70521045D01*
X101525192Y-70521043D01*
X101442272Y-70320857D01*
X101400000Y-70108342D01*
X101400000Y-69891658D01*
X101442272Y-69679143D01*
X101525192Y-69478957D01*
X101645574Y-69298792D01*
X101798792Y-69145574D01*
X101888262Y-69085792D01*
X101978955Y-69025193D01*
X101978957Y-69025192D01*
X102179143Y-68942272D01*
X102391658Y-68900000D01*
X102608342Y-68900000D01*
X102820857Y-68942272D01*
X102820857Y-68942272D01*
G37*
G36*
X122820857Y-68942272D02*
G01*
X123021043Y-69025192D01*
X123021045Y-69025193D01*
X123111738Y-69085792D01*
X123201208Y-69145574D01*
X123354426Y-69298792D01*
X123474808Y-69478957D01*
X123557728Y-69679143D01*
X123600000Y-69891658D01*
X123600000Y-70108342D01*
X123557728Y-70320857D01*
X123474808Y-70521043D01*
X123474807Y-70521045D01*
X123354425Y-70701209D01*
X123201209Y-70854425D01*
X123021045Y-70974807D01*
X123021044Y-70974808D01*
X123021043Y-70974808D01*
X122820857Y-71057728D01*
X122608342Y-71100000D01*
X122391658Y-71100000D01*
X122179143Y-71057728D01*
X121978957Y-70974808D01*
X121978956Y-70974808D01*
X121978955Y-70974807D01*
X121798791Y-70854425D01*
X121645575Y-70701209D01*
X121525193Y-70521045D01*
X121525192Y-70521043D01*
X121442272Y-70320857D01*
X121400000Y-70108342D01*
X121400000Y-69891658D01*
X121442272Y-69679143D01*
X121525192Y-69478957D01*
X121645574Y-69298792D01*
X121798792Y-69145574D01*
X121888262Y-69085792D01*
X121978955Y-69025193D01*
X121978957Y-69025192D01*
X122179143Y-68942272D01*
X122391658Y-68900000D01*
X122608342Y-68900000D01*
X122820857Y-68942272D01*
X122820857Y-68942272D01*
G37*
G36*
X169100000Y-71050000D02*
G01*
X167400000Y-71050000D01*
X167400000Y-68950000D01*
X169100000Y-68950000D01*
X169100000Y-71050000D01*
X169100000Y-71050000D01*
G37*
G36*
X132600000Y-71050000D02*
G01*
X130900000Y-71050000D01*
X130900000Y-68950000D01*
X132600000Y-68950000D01*
X132600000Y-71050000D01*
X132600000Y-71050000D01*
G37*
G36*
X129100000Y-71050000D02*
G01*
X127400000Y-71050000D01*
X127400000Y-68950000D01*
X129100000Y-68950000D01*
X129100000Y-71050000D01*
X129100000Y-71050000D01*
G37*
G36*
X109350000Y-71050000D02*
G01*
X107650000Y-71050000D01*
X107650000Y-68950000D01*
X109350000Y-68950000D01*
X109350000Y-71050000D01*
X109350000Y-71050000D01*
G37*
G36*
X112850000Y-71050000D02*
G01*
X111150000Y-71050000D01*
X111150000Y-68950000D01*
X112850000Y-68950000D01*
X112850000Y-71050000D01*
X112850000Y-71050000D01*
G37*
G36*
X149100000Y-71050000D02*
G01*
X147400000Y-71050000D01*
X147400000Y-68950000D01*
X149100000Y-68950000D01*
X149100000Y-71050000D01*
X149100000Y-71050000D01*
G37*
G36*
X152600000Y-71050000D02*
G01*
X150900000Y-71050000D01*
X150900000Y-68950000D01*
X152600000Y-68950000D01*
X152600000Y-71050000D01*
X152600000Y-71050000D01*
G37*
G36*
X172600000Y-71050000D02*
G01*
X170900000Y-71050000D01*
X170900000Y-68950000D01*
X172600000Y-68950000D01*
X172600000Y-71050000D01*
X172600000Y-71050000D01*
G37*
G36*
X142820857Y-66442272D02*
G01*
X143021043Y-66525192D01*
X143021045Y-66525193D01*
X143056727Y-66549035D01*
X143201208Y-66645574D01*
X143354426Y-66798792D01*
X143474808Y-66978957D01*
X143557728Y-67179143D01*
X143600000Y-67391658D01*
X143600000Y-67608342D01*
X143557728Y-67820857D01*
X143474808Y-68021043D01*
X143474807Y-68021045D01*
X143354425Y-68201209D01*
X143201209Y-68354425D01*
X143021045Y-68474807D01*
X143021044Y-68474808D01*
X143021043Y-68474808D01*
X142820857Y-68557728D01*
X142608342Y-68600000D01*
X142391658Y-68600000D01*
X142179143Y-68557728D01*
X141978957Y-68474808D01*
X141978956Y-68474808D01*
X141978955Y-68474807D01*
X141798791Y-68354425D01*
X141645575Y-68201209D01*
X141525193Y-68021045D01*
X141525192Y-68021043D01*
X141442272Y-67820857D01*
X141400000Y-67608342D01*
X141400000Y-67391658D01*
X141442272Y-67179143D01*
X141525192Y-66978957D01*
X141645574Y-66798792D01*
X141798792Y-66645574D01*
X141943273Y-66549035D01*
X141978955Y-66525193D01*
X141978957Y-66525192D01*
X142179143Y-66442272D01*
X142391658Y-66400000D01*
X142608342Y-66400000D01*
X142820857Y-66442272D01*
X142820857Y-66442272D01*
G37*
G36*
X162820857Y-66442272D02*
G01*
X163021043Y-66525192D01*
X163021045Y-66525193D01*
X163056727Y-66549035D01*
X163201208Y-66645574D01*
X163354426Y-66798792D01*
X163474808Y-66978957D01*
X163557728Y-67179143D01*
X163600000Y-67391658D01*
X163600000Y-67608342D01*
X163557728Y-67820857D01*
X163474808Y-68021043D01*
X163474807Y-68021045D01*
X163354425Y-68201209D01*
X163201209Y-68354425D01*
X163021045Y-68474807D01*
X163021044Y-68474808D01*
X163021043Y-68474808D01*
X162820857Y-68557728D01*
X162608342Y-68600000D01*
X162391658Y-68600000D01*
X162179143Y-68557728D01*
X161978957Y-68474808D01*
X161978956Y-68474808D01*
X161978955Y-68474807D01*
X161798791Y-68354425D01*
X161645575Y-68201209D01*
X161525193Y-68021045D01*
X161525192Y-68021043D01*
X161442272Y-67820857D01*
X161400000Y-67608342D01*
X161400000Y-67391658D01*
X161442272Y-67179143D01*
X161525192Y-66978957D01*
X161645574Y-66798792D01*
X161798792Y-66645574D01*
X161943273Y-66549035D01*
X161978955Y-66525193D01*
X161978957Y-66525192D01*
X162179143Y-66442272D01*
X162391658Y-66400000D01*
X162608342Y-66400000D01*
X162820857Y-66442272D01*
X162820857Y-66442272D01*
G37*
G36*
X122820857Y-66442272D02*
G01*
X123021043Y-66525192D01*
X123021045Y-66525193D01*
X123056727Y-66549035D01*
X123201208Y-66645574D01*
X123354426Y-66798792D01*
X123474808Y-66978957D01*
X123557728Y-67179143D01*
X123600000Y-67391658D01*
X123600000Y-67608342D01*
X123557728Y-67820857D01*
X123474808Y-68021043D01*
X123474807Y-68021045D01*
X123354425Y-68201209D01*
X123201209Y-68354425D01*
X123021045Y-68474807D01*
X123021044Y-68474808D01*
X123021043Y-68474808D01*
X122820857Y-68557728D01*
X122608342Y-68600000D01*
X122391658Y-68600000D01*
X122179143Y-68557728D01*
X121978957Y-68474808D01*
X121978956Y-68474808D01*
X121978955Y-68474807D01*
X121798791Y-68354425D01*
X121645575Y-68201209D01*
X121525193Y-68021045D01*
X121525192Y-68021043D01*
X121442272Y-67820857D01*
X121400000Y-67608342D01*
X121400000Y-67391658D01*
X121442272Y-67179143D01*
X121525192Y-66978957D01*
X121645574Y-66798792D01*
X121798792Y-66645574D01*
X121943273Y-66549035D01*
X121978955Y-66525193D01*
X121978957Y-66525192D01*
X122179143Y-66442272D01*
X122391658Y-66400000D01*
X122608342Y-66400000D01*
X122820857Y-66442272D01*
X122820857Y-66442272D01*
G37*
G36*
X102820857Y-66442272D02*
G01*
X103021043Y-66525192D01*
X103021045Y-66525193D01*
X103056727Y-66549035D01*
X103201208Y-66645574D01*
X103354426Y-66798792D01*
X103474808Y-66978957D01*
X103557728Y-67179143D01*
X103600000Y-67391658D01*
X103600000Y-67608342D01*
X103557728Y-67820857D01*
X103474808Y-68021043D01*
X103474807Y-68021045D01*
X103354425Y-68201209D01*
X103201209Y-68354425D01*
X103021045Y-68474807D01*
X103021044Y-68474808D01*
X103021043Y-68474808D01*
X102820857Y-68557728D01*
X102608342Y-68600000D01*
X102391658Y-68600000D01*
X102179143Y-68557728D01*
X101978957Y-68474808D01*
X101978956Y-68474808D01*
X101978955Y-68474807D01*
X101798791Y-68354425D01*
X101645575Y-68201209D01*
X101525193Y-68021045D01*
X101525192Y-68021043D01*
X101442272Y-67820857D01*
X101400000Y-67608342D01*
X101400000Y-67391658D01*
X101442272Y-67179143D01*
X101525192Y-66978957D01*
X101645574Y-66798792D01*
X101798792Y-66645574D01*
X101943273Y-66549035D01*
X101978955Y-66525193D01*
X101978957Y-66525192D01*
X102179143Y-66442272D01*
X102391658Y-66400000D01*
X102608342Y-66400000D01*
X102820857Y-66442272D01*
X102820857Y-66442272D01*
G37*
G36*
X130166759Y-63908199D02*
G01*
X130333258Y-63924598D01*
X130653709Y-64021806D01*
X130653712Y-64021807D01*
X130949035Y-64179660D01*
X131207897Y-64392103D01*
X131420340Y-64650965D01*
X131578193Y-64946288D01*
X131578194Y-64946291D01*
X131675402Y-65266742D01*
X131708225Y-65600000D01*
X131675402Y-65933258D01*
X131578194Y-66253709D01*
X131578193Y-66253712D01*
X131420340Y-66549035D01*
X131420338Y-66549038D01*
X131420337Y-66549039D01*
X131207897Y-66807897D01*
X130999461Y-66978957D01*
X130949035Y-67020340D01*
X130653712Y-67178193D01*
X130653709Y-67178194D01*
X130333258Y-67275402D01*
X130166759Y-67291801D01*
X130083511Y-67300000D01*
X128916489Y-67300000D01*
X128833241Y-67291801D01*
X128666742Y-67275402D01*
X128346291Y-67178194D01*
X128346288Y-67178193D01*
X128050965Y-67020340D01*
X128000540Y-66978957D01*
X127792103Y-66807897D01*
X127579663Y-66549039D01*
X127579662Y-66549038D01*
X127579660Y-66549035D01*
X127421807Y-66253712D01*
X127421806Y-66253709D01*
X127324598Y-65933258D01*
X127291775Y-65600000D01*
X127324598Y-65266742D01*
X127421806Y-64946291D01*
X127421807Y-64946288D01*
X127579660Y-64650965D01*
X127792103Y-64392103D01*
X128050965Y-64179660D01*
X128346288Y-64021807D01*
X128346291Y-64021806D01*
X128666742Y-63924598D01*
X128833241Y-63908199D01*
X128916489Y-63900000D01*
X130083511Y-63900000D01*
X130166759Y-63908199D01*
X130166759Y-63908199D01*
G37*
G36*
X150166759Y-63908199D02*
G01*
X150333258Y-63924598D01*
X150653709Y-64021806D01*
X150653712Y-64021807D01*
X150949035Y-64179660D01*
X151207897Y-64392103D01*
X151420340Y-64650965D01*
X151578193Y-64946288D01*
X151578194Y-64946291D01*
X151675402Y-65266742D01*
X151708225Y-65600000D01*
X151675402Y-65933258D01*
X151578194Y-66253709D01*
X151578193Y-66253712D01*
X151420340Y-66549035D01*
X151420338Y-66549038D01*
X151420337Y-66549039D01*
X151207897Y-66807897D01*
X150999461Y-66978957D01*
X150949035Y-67020340D01*
X150653712Y-67178193D01*
X150653709Y-67178194D01*
X150333258Y-67275402D01*
X150166759Y-67291801D01*
X150083511Y-67300000D01*
X148916489Y-67300000D01*
X148833241Y-67291801D01*
X148666742Y-67275402D01*
X148346291Y-67178194D01*
X148346288Y-67178193D01*
X148050965Y-67020340D01*
X148000540Y-66978957D01*
X147792103Y-66807897D01*
X147579663Y-66549039D01*
X147579662Y-66549038D01*
X147579660Y-66549035D01*
X147421807Y-66253712D01*
X147421806Y-66253709D01*
X147324598Y-65933258D01*
X147291775Y-65600000D01*
X147324598Y-65266742D01*
X147421806Y-64946291D01*
X147421807Y-64946288D01*
X147579660Y-64650965D01*
X147792103Y-64392103D01*
X148050965Y-64179660D01*
X148346288Y-64021807D01*
X148346291Y-64021806D01*
X148666742Y-63924598D01*
X148833241Y-63908199D01*
X148916489Y-63900000D01*
X150083511Y-63900000D01*
X150166759Y-63908199D01*
X150166759Y-63908199D01*
G37*
G36*
X110166759Y-63908199D02*
G01*
X110333258Y-63924598D01*
X110653709Y-64021806D01*
X110653712Y-64021807D01*
X110949035Y-64179660D01*
X111207897Y-64392103D01*
X111420340Y-64650965D01*
X111578193Y-64946288D01*
X111578194Y-64946291D01*
X111675402Y-65266742D01*
X111708225Y-65600000D01*
X111675402Y-65933258D01*
X111578194Y-66253709D01*
X111578193Y-66253712D01*
X111420340Y-66549035D01*
X111420338Y-66549038D01*
X111420337Y-66549039D01*
X111207897Y-66807897D01*
X110999461Y-66978957D01*
X110949035Y-67020340D01*
X110653712Y-67178193D01*
X110653709Y-67178194D01*
X110333258Y-67275402D01*
X110166759Y-67291801D01*
X110083511Y-67300000D01*
X108916489Y-67300000D01*
X108833241Y-67291801D01*
X108666742Y-67275402D01*
X108346291Y-67178194D01*
X108346288Y-67178193D01*
X108050965Y-67020340D01*
X108000540Y-66978957D01*
X107792103Y-66807897D01*
X107579663Y-66549039D01*
X107579662Y-66549038D01*
X107579660Y-66549035D01*
X107421807Y-66253712D01*
X107421806Y-66253709D01*
X107324598Y-65933258D01*
X107291775Y-65600000D01*
X107324598Y-65266742D01*
X107421806Y-64946291D01*
X107421807Y-64946288D01*
X107579660Y-64650965D01*
X107792103Y-64392103D01*
X108050965Y-64179660D01*
X108346288Y-64021807D01*
X108346291Y-64021806D01*
X108666742Y-63924598D01*
X108833241Y-63908199D01*
X108916489Y-63900000D01*
X110083511Y-63900000D01*
X110166759Y-63908199D01*
X110166759Y-63908199D01*
G37*
G36*
X170166759Y-63908199D02*
G01*
X170333258Y-63924598D01*
X170653709Y-64021806D01*
X170653712Y-64021807D01*
X170949035Y-64179660D01*
X171207897Y-64392103D01*
X171420340Y-64650965D01*
X171578193Y-64946288D01*
X171578194Y-64946291D01*
X171675402Y-65266742D01*
X171708225Y-65600000D01*
X171675402Y-65933258D01*
X171578194Y-66253709D01*
X171578193Y-66253712D01*
X171420340Y-66549035D01*
X171420338Y-66549038D01*
X171420337Y-66549039D01*
X171207897Y-66807897D01*
X170999461Y-66978957D01*
X170949035Y-67020340D01*
X170653712Y-67178193D01*
X170653709Y-67178194D01*
X170333258Y-67275402D01*
X170166759Y-67291801D01*
X170083511Y-67300000D01*
X168916489Y-67300000D01*
X168833241Y-67291801D01*
X168666742Y-67275402D01*
X168346291Y-67178194D01*
X168346288Y-67178193D01*
X168050965Y-67020340D01*
X168000540Y-66978957D01*
X167792103Y-66807897D01*
X167579663Y-66549039D01*
X167579662Y-66549038D01*
X167579660Y-66549035D01*
X167421807Y-66253712D01*
X167421806Y-66253709D01*
X167324598Y-65933258D01*
X167291775Y-65600000D01*
X167324598Y-65266742D01*
X167421806Y-64946291D01*
X167421807Y-64946288D01*
X167579660Y-64650965D01*
X167792103Y-64392103D01*
X168050965Y-64179660D01*
X168346288Y-64021807D01*
X168346291Y-64021806D01*
X168666742Y-63924598D01*
X168833241Y-63908199D01*
X168916489Y-63900000D01*
X170083511Y-63900000D01*
X170166759Y-63908199D01*
X170166759Y-63908199D01*
G37*
G36*
X174050000Y-63100000D02*
G01*
X171950000Y-63100000D01*
X171950000Y-61400000D01*
X174050000Y-61400000D01*
X174050000Y-63100000D01*
X174050000Y-63100000D01*
G37*
G36*
X154050000Y-63100000D02*
G01*
X151950000Y-63100000D01*
X151950000Y-61400000D01*
X154050000Y-61400000D01*
X154050000Y-63100000D01*
X154050000Y-63100000D01*
G37*
G36*
X134050000Y-63100000D02*
G01*
X131950000Y-63100000D01*
X131950000Y-61400000D01*
X134050000Y-61400000D01*
X134050000Y-63100000D01*
X134050000Y-63100000D01*
G37*
G36*
X114050000Y-62850000D02*
G01*
X111950000Y-62850000D01*
X111950000Y-61150000D01*
X114050000Y-61150000D01*
X114050000Y-62850000D01*
X114050000Y-62850000D01*
G37*
G36*
X149185529Y-60755710D02*
G01*
X149235378Y-60770831D01*
X149281310Y-60795382D01*
X149321574Y-60828426D01*
X149354618Y-60868690D01*
X149379169Y-60914622D01*
X149394290Y-60964471D01*
X149400000Y-61022444D01*
X149400000Y-62027556D01*
X149394290Y-62085529D01*
X149379169Y-62135378D01*
X149354618Y-62181310D01*
X149321574Y-62221574D01*
X149281310Y-62254618D01*
X149235378Y-62279169D01*
X149185529Y-62294290D01*
X149127556Y-62300000D01*
X147872444Y-62300000D01*
X147814471Y-62294290D01*
X147764622Y-62279169D01*
X147718690Y-62254618D01*
X147678426Y-62221574D01*
X147645382Y-62181310D01*
X147620831Y-62135378D01*
X147605710Y-62085529D01*
X147600000Y-62027556D01*
X147600000Y-61022444D01*
X147605710Y-60964471D01*
X147620831Y-60914622D01*
X147645382Y-60868690D01*
X147678426Y-60828426D01*
X147718690Y-60795382D01*
X147764622Y-60770831D01*
X147814471Y-60755710D01*
X147872444Y-60750000D01*
X149127556Y-60750000D01*
X149185529Y-60755710D01*
X149185529Y-60755710D01*
G37*
G36*
X169185529Y-60755710D02*
G01*
X169235378Y-60770831D01*
X169281310Y-60795382D01*
X169321574Y-60828426D01*
X169354618Y-60868690D01*
X169379169Y-60914622D01*
X169394290Y-60964471D01*
X169400000Y-61022444D01*
X169400000Y-62027556D01*
X169394290Y-62085529D01*
X169379169Y-62135378D01*
X169354618Y-62181310D01*
X169321574Y-62221574D01*
X169281310Y-62254618D01*
X169235378Y-62279169D01*
X169185529Y-62294290D01*
X169127556Y-62300000D01*
X167872444Y-62300000D01*
X167814471Y-62294290D01*
X167764622Y-62279169D01*
X167718690Y-62254618D01*
X167678426Y-62221574D01*
X167645382Y-62181310D01*
X167620831Y-62135378D01*
X167605710Y-62085529D01*
X167600000Y-62027556D01*
X167600000Y-61022444D01*
X167605710Y-60964471D01*
X167620831Y-60914622D01*
X167645382Y-60868690D01*
X167678426Y-60828426D01*
X167718690Y-60795382D01*
X167764622Y-60770831D01*
X167814471Y-60755710D01*
X167872444Y-60750000D01*
X169127556Y-60750000D01*
X169185529Y-60755710D01*
X169185529Y-60755710D01*
G37*
G36*
X109185529Y-60755710D02*
G01*
X109235378Y-60770831D01*
X109281310Y-60795382D01*
X109321574Y-60828426D01*
X109354618Y-60868690D01*
X109379169Y-60914622D01*
X109394290Y-60964471D01*
X109400000Y-61022444D01*
X109400000Y-62027556D01*
X109394290Y-62085529D01*
X109379169Y-62135378D01*
X109354618Y-62181310D01*
X109321574Y-62221574D01*
X109281310Y-62254618D01*
X109235378Y-62279169D01*
X109185529Y-62294290D01*
X109127556Y-62300000D01*
X107872444Y-62300000D01*
X107814471Y-62294290D01*
X107764622Y-62279169D01*
X107718690Y-62254618D01*
X107678426Y-62221574D01*
X107645382Y-62181310D01*
X107620831Y-62135378D01*
X107605710Y-62085529D01*
X107600000Y-62027556D01*
X107600000Y-61022444D01*
X107605710Y-60964471D01*
X107620831Y-60914622D01*
X107645382Y-60868690D01*
X107678426Y-60828426D01*
X107718690Y-60795382D01*
X107764622Y-60770831D01*
X107814471Y-60755710D01*
X107872444Y-60750000D01*
X109127556Y-60750000D01*
X109185529Y-60755710D01*
X109185529Y-60755710D01*
G37*
G36*
X129185529Y-60730710D02*
G01*
X129235378Y-60745831D01*
X129281310Y-60770382D01*
X129321574Y-60803426D01*
X129354618Y-60843690D01*
X129379169Y-60889622D01*
X129394290Y-60939471D01*
X129400000Y-60997444D01*
X129400000Y-62002556D01*
X129394290Y-62060529D01*
X129379169Y-62110378D01*
X129354618Y-62156310D01*
X129321574Y-62196574D01*
X129281310Y-62229618D01*
X129235378Y-62254169D01*
X129185529Y-62269290D01*
X129127556Y-62275000D01*
X127872444Y-62275000D01*
X127814471Y-62269290D01*
X127764622Y-62254169D01*
X127718690Y-62229618D01*
X127678426Y-62196574D01*
X127645382Y-62156310D01*
X127620831Y-62110378D01*
X127605710Y-62060529D01*
X127600000Y-62002556D01*
X127600000Y-60997444D01*
X127605710Y-60939471D01*
X127620831Y-60889622D01*
X127645382Y-60843690D01*
X127678426Y-60803426D01*
X127718690Y-60770382D01*
X127764622Y-60745831D01*
X127814471Y-60730710D01*
X127872444Y-60725000D01*
X129127556Y-60725000D01*
X129185529Y-60730710D01*
X129185529Y-60730710D01*
G37*
G36*
X149185529Y-58705710D02*
G01*
X149235378Y-58720831D01*
X149281310Y-58745382D01*
X149321574Y-58778426D01*
X149354618Y-58818690D01*
X149379169Y-58864622D01*
X149394290Y-58914471D01*
X149400000Y-58972444D01*
X149400000Y-59977556D01*
X149394290Y-60035529D01*
X149379169Y-60085378D01*
X149354618Y-60131310D01*
X149321574Y-60171574D01*
X149281310Y-60204618D01*
X149235378Y-60229169D01*
X149185529Y-60244290D01*
X149127556Y-60250000D01*
X147872444Y-60250000D01*
X147814471Y-60244290D01*
X147764622Y-60229169D01*
X147718690Y-60204618D01*
X147678426Y-60171574D01*
X147645382Y-60131310D01*
X147620831Y-60085378D01*
X147605710Y-60035529D01*
X147600000Y-59977556D01*
X147600000Y-58972444D01*
X147605710Y-58914471D01*
X147620831Y-58864622D01*
X147645382Y-58818690D01*
X147678426Y-58778426D01*
X147718690Y-58745382D01*
X147764622Y-58720831D01*
X147814471Y-58705710D01*
X147872444Y-58700000D01*
X149127556Y-58700000D01*
X149185529Y-58705710D01*
X149185529Y-58705710D01*
G37*
G36*
X109185529Y-58705710D02*
G01*
X109235378Y-58720831D01*
X109281310Y-58745382D01*
X109321574Y-58778426D01*
X109354618Y-58818690D01*
X109379169Y-58864622D01*
X109394290Y-58914471D01*
X109400000Y-58972444D01*
X109400000Y-59977556D01*
X109394290Y-60035529D01*
X109379169Y-60085378D01*
X109354618Y-60131310D01*
X109321574Y-60171574D01*
X109281310Y-60204618D01*
X109235378Y-60229169D01*
X109185529Y-60244290D01*
X109127556Y-60250000D01*
X107872444Y-60250000D01*
X107814471Y-60244290D01*
X107764622Y-60229169D01*
X107718690Y-60204618D01*
X107678426Y-60171574D01*
X107645382Y-60131310D01*
X107620831Y-60085378D01*
X107605710Y-60035529D01*
X107600000Y-59977556D01*
X107600000Y-58972444D01*
X107605710Y-58914471D01*
X107620831Y-58864622D01*
X107645382Y-58818690D01*
X107678426Y-58778426D01*
X107718690Y-58745382D01*
X107764622Y-58720831D01*
X107814471Y-58705710D01*
X107872444Y-58700000D01*
X109127556Y-58700000D01*
X109185529Y-58705710D01*
X109185529Y-58705710D01*
G37*
G36*
X169185529Y-58705710D02*
G01*
X169235378Y-58720831D01*
X169281310Y-58745382D01*
X169321574Y-58778426D01*
X169354618Y-58818690D01*
X169379169Y-58864622D01*
X169394290Y-58914471D01*
X169400000Y-58972444D01*
X169400000Y-59977556D01*
X169394290Y-60035529D01*
X169379169Y-60085378D01*
X169354618Y-60131310D01*
X169321574Y-60171574D01*
X169281310Y-60204618D01*
X169235378Y-60229169D01*
X169185529Y-60244290D01*
X169127556Y-60250000D01*
X167872444Y-60250000D01*
X167814471Y-60244290D01*
X167764622Y-60229169D01*
X167718690Y-60204618D01*
X167678426Y-60171574D01*
X167645382Y-60131310D01*
X167620831Y-60085378D01*
X167605710Y-60035529D01*
X167600000Y-59977556D01*
X167600000Y-58972444D01*
X167605710Y-58914471D01*
X167620831Y-58864622D01*
X167645382Y-58818690D01*
X167678426Y-58778426D01*
X167718690Y-58745382D01*
X167764622Y-58720831D01*
X167814471Y-58705710D01*
X167872444Y-58700000D01*
X169127556Y-58700000D01*
X169185529Y-58705710D01*
X169185529Y-58705710D01*
G37*
G36*
X129185529Y-58680710D02*
G01*
X129235378Y-58695831D01*
X129281310Y-58720382D01*
X129321574Y-58753426D01*
X129354618Y-58793690D01*
X129379169Y-58839622D01*
X129394290Y-58889471D01*
X129400000Y-58947444D01*
X129400000Y-59952556D01*
X129394290Y-60010529D01*
X129379169Y-60060378D01*
X129354618Y-60106310D01*
X129321574Y-60146574D01*
X129281310Y-60179618D01*
X129235378Y-60204169D01*
X129185529Y-60219290D01*
X129127556Y-60225000D01*
X127872444Y-60225000D01*
X127814471Y-60219290D01*
X127764622Y-60204169D01*
X127718690Y-60179618D01*
X127678426Y-60146574D01*
X127645382Y-60106310D01*
X127620831Y-60060378D01*
X127605710Y-60010529D01*
X127600000Y-59952556D01*
X127600000Y-58947444D01*
X127605710Y-58889471D01*
X127620831Y-58839622D01*
X127645382Y-58793690D01*
X127678426Y-58753426D01*
X127718690Y-58720382D01*
X127764622Y-58695831D01*
X127814471Y-58680710D01*
X127872444Y-58675000D01*
X129127556Y-58675000D01*
X129185529Y-58680710D01*
X129185529Y-58680710D01*
G37*
G36*
X134050000Y-59600000D02*
G01*
X131950000Y-59600000D01*
X131950000Y-57900000D01*
X134050000Y-57900000D01*
X134050000Y-59600000D01*
X134050000Y-59600000D01*
G37*
G36*
X174050000Y-59600000D02*
G01*
X171950000Y-59600000D01*
X171950000Y-57900000D01*
X174050000Y-57900000D01*
X174050000Y-59600000D01*
X174050000Y-59600000D01*
G37*
G36*
X154050000Y-59600000D02*
G01*
X151950000Y-59600000D01*
X151950000Y-57900000D01*
X154050000Y-57900000D01*
X154050000Y-59600000D01*
X154050000Y-59600000D01*
G37*
G36*
X114050000Y-59350000D02*
G01*
X111950000Y-59350000D01*
X111950000Y-57650000D01*
X114050000Y-57650000D01*
X114050000Y-59350000D01*
X114050000Y-59350000D01*
G37*
G36*
X177628707Y-57037596D02*
G01*
X177705836Y-57045193D01*
X177903762Y-57105233D01*
X177903765Y-57105234D01*
X178086170Y-57202732D01*
X178246055Y-57333945D01*
X178377268Y-57493830D01*
X178474766Y-57676235D01*
X178474767Y-57676238D01*
X178534807Y-57874164D01*
X178555080Y-58080000D01*
X178534807Y-58285836D01*
X178474767Y-58483762D01*
X178474766Y-58483765D01*
X178377268Y-58666170D01*
X178246055Y-58826055D01*
X178086170Y-58957268D01*
X177903765Y-59054766D01*
X177903762Y-59054767D01*
X177705836Y-59114807D01*
X177628707Y-59122403D01*
X177551580Y-59130000D01*
X177448420Y-59130000D01*
X177371293Y-59122403D01*
X177294164Y-59114807D01*
X177096238Y-59054767D01*
X177096235Y-59054766D01*
X176913830Y-58957268D01*
X176753945Y-58826055D01*
X176622732Y-58666170D01*
X176525234Y-58483765D01*
X176525233Y-58483762D01*
X176465193Y-58285836D01*
X176444920Y-58080000D01*
X176465193Y-57874164D01*
X176525233Y-57676238D01*
X176525234Y-57676235D01*
X176622732Y-57493830D01*
X176753945Y-57333945D01*
X176913830Y-57202732D01*
X177096235Y-57105234D01*
X177096238Y-57105233D01*
X177294164Y-57045193D01*
X177371293Y-57037596D01*
X177448420Y-57030000D01*
X177551580Y-57030000D01*
X177628707Y-57037596D01*
X177628707Y-57037596D01*
G37*
G36*
X102628707Y-56957597D02*
G01*
X102705836Y-56965193D01*
X102903762Y-57025233D01*
X102903765Y-57025234D01*
X103086170Y-57122732D01*
X103246055Y-57253945D01*
X103377268Y-57413830D01*
X103474766Y-57596235D01*
X103474767Y-57596238D01*
X103534807Y-57794164D01*
X103555080Y-58000000D01*
X103534807Y-58205836D01*
X103510540Y-58285834D01*
X103474766Y-58403765D01*
X103377268Y-58586170D01*
X103246055Y-58746055D01*
X103086170Y-58877268D01*
X102903765Y-58974766D01*
X102903762Y-58974767D01*
X102705836Y-59034807D01*
X102628707Y-59042404D01*
X102551580Y-59050000D01*
X102448420Y-59050000D01*
X102371293Y-59042404D01*
X102294164Y-59034807D01*
X102096238Y-58974767D01*
X102096235Y-58974766D01*
X101913830Y-58877268D01*
X101753945Y-58746055D01*
X101622732Y-58586170D01*
X101525234Y-58403765D01*
X101489460Y-58285834D01*
X101465193Y-58205836D01*
X101444920Y-58000000D01*
X101465193Y-57794164D01*
X101525233Y-57596238D01*
X101525234Y-57596235D01*
X101622732Y-57413830D01*
X101753945Y-57253945D01*
X101913830Y-57122732D01*
X102096235Y-57025234D01*
X102096238Y-57025233D01*
X102294164Y-56965193D01*
X102371293Y-56957597D01*
X102448420Y-56950000D01*
X102551580Y-56950000D01*
X102628707Y-56957597D01*
X102628707Y-56957597D01*
G37*
G36*
X129600000Y-56600000D02*
G01*
X127400000Y-56600000D01*
X127400000Y-54400000D01*
X129600000Y-54400000D01*
X129600000Y-56600000D01*
X129600000Y-56600000D01*
G37*
G36*
X149600000Y-56600000D02*
G01*
X147400000Y-56600000D01*
X147400000Y-54400000D01*
X149600000Y-54400000D01*
X149600000Y-56600000D01*
X149600000Y-56600000D01*
G37*
G36*
X169600000Y-56600000D02*
G01*
X167400000Y-56600000D01*
X167400000Y-54400000D01*
X169600000Y-54400000D01*
X169600000Y-56600000D01*
X169600000Y-56600000D01*
G37*
G36*
X151360857Y-54442272D02*
G01*
X151512761Y-54505193D01*
X151561045Y-54525193D01*
X151651738Y-54585792D01*
X151741208Y-54645574D01*
X151894426Y-54798792D01*
X152014808Y-54978957D01*
X152097728Y-55179143D01*
X152140000Y-55391658D01*
X152140000Y-55608342D01*
X152097728Y-55820857D01*
X152014808Y-56021043D01*
X152014807Y-56021045D01*
X151894425Y-56201209D01*
X151741209Y-56354425D01*
X151561045Y-56474807D01*
X151561044Y-56474808D01*
X151561043Y-56474808D01*
X151360857Y-56557728D01*
X151148342Y-56600000D01*
X150931658Y-56600000D01*
X150719143Y-56557728D01*
X150518957Y-56474808D01*
X150518956Y-56474808D01*
X150518955Y-56474807D01*
X150338791Y-56354425D01*
X150185575Y-56201209D01*
X150065193Y-56021045D01*
X150065192Y-56021043D01*
X149982272Y-55820857D01*
X149940000Y-55608342D01*
X149940000Y-55391658D01*
X149982272Y-55179143D01*
X150065192Y-54978957D01*
X150185574Y-54798792D01*
X150338792Y-54645574D01*
X150428262Y-54585792D01*
X150518955Y-54525193D01*
X150567239Y-54505193D01*
X150719143Y-54442272D01*
X150931658Y-54400000D01*
X151148342Y-54400000D01*
X151360857Y-54442272D01*
X151360857Y-54442272D01*
G37*
G36*
X131360857Y-54442272D02*
G01*
X131512761Y-54505193D01*
X131561045Y-54525193D01*
X131651738Y-54585792D01*
X131741208Y-54645574D01*
X131894426Y-54798792D01*
X132014808Y-54978957D01*
X132097728Y-55179143D01*
X132140000Y-55391658D01*
X132140000Y-55608342D01*
X132097728Y-55820857D01*
X132014808Y-56021043D01*
X132014807Y-56021045D01*
X131894425Y-56201209D01*
X131741209Y-56354425D01*
X131561045Y-56474807D01*
X131561044Y-56474808D01*
X131561043Y-56474808D01*
X131360857Y-56557728D01*
X131148342Y-56600000D01*
X130931658Y-56600000D01*
X130719143Y-56557728D01*
X130518957Y-56474808D01*
X130518956Y-56474808D01*
X130518955Y-56474807D01*
X130338791Y-56354425D01*
X130185575Y-56201209D01*
X130065193Y-56021045D01*
X130065192Y-56021043D01*
X129982272Y-55820857D01*
X129940000Y-55608342D01*
X129940000Y-55391658D01*
X129982272Y-55179143D01*
X130065192Y-54978957D01*
X130185574Y-54798792D01*
X130338792Y-54645574D01*
X130428262Y-54585792D01*
X130518955Y-54525193D01*
X130567239Y-54505193D01*
X130719143Y-54442272D01*
X130931658Y-54400000D01*
X131148342Y-54400000D01*
X131360857Y-54442272D01*
X131360857Y-54442272D01*
G37*
G36*
X111360857Y-54442272D02*
G01*
X111512761Y-54505193D01*
X111561045Y-54525193D01*
X111651738Y-54585792D01*
X111741208Y-54645574D01*
X111894426Y-54798792D01*
X112014808Y-54978957D01*
X112097728Y-55179143D01*
X112140000Y-55391658D01*
X112140000Y-55608342D01*
X112097728Y-55820857D01*
X112014808Y-56021043D01*
X112014807Y-56021045D01*
X111894425Y-56201209D01*
X111741209Y-56354425D01*
X111561045Y-56474807D01*
X111561044Y-56474808D01*
X111561043Y-56474808D01*
X111360857Y-56557728D01*
X111148342Y-56600000D01*
X110931658Y-56600000D01*
X110719143Y-56557728D01*
X110518957Y-56474808D01*
X110518956Y-56474808D01*
X110518955Y-56474807D01*
X110338791Y-56354425D01*
X110185575Y-56201209D01*
X110065193Y-56021045D01*
X110065192Y-56021043D01*
X109982272Y-55820857D01*
X109940000Y-55608342D01*
X109940000Y-55391658D01*
X109982272Y-55179143D01*
X110065192Y-54978957D01*
X110185574Y-54798792D01*
X110338792Y-54645574D01*
X110428262Y-54585792D01*
X110518955Y-54525193D01*
X110567239Y-54505193D01*
X110719143Y-54442272D01*
X110931658Y-54400000D01*
X111148342Y-54400000D01*
X111360857Y-54442272D01*
X111360857Y-54442272D01*
G37*
G36*
X109600000Y-56600000D02*
G01*
X107400000Y-56600000D01*
X107400000Y-54400000D01*
X109600000Y-54400000D01*
X109600000Y-56600000D01*
X109600000Y-56600000D01*
G37*
G36*
X171360857Y-54442272D02*
G01*
X171512761Y-54505193D01*
X171561045Y-54525193D01*
X171651738Y-54585792D01*
X171741208Y-54645574D01*
X171894426Y-54798792D01*
X172014808Y-54978957D01*
X172097728Y-55179143D01*
X172140000Y-55391658D01*
X172140000Y-55608342D01*
X172097728Y-55820857D01*
X172014808Y-56021043D01*
X172014807Y-56021045D01*
X171894425Y-56201209D01*
X171741209Y-56354425D01*
X171561045Y-56474807D01*
X171561044Y-56474808D01*
X171561043Y-56474808D01*
X171360857Y-56557728D01*
X171148342Y-56600000D01*
X170931658Y-56600000D01*
X170719143Y-56557728D01*
X170518957Y-56474808D01*
X170518956Y-56474808D01*
X170518955Y-56474807D01*
X170338791Y-56354425D01*
X170185575Y-56201209D01*
X170065193Y-56021045D01*
X170065192Y-56021043D01*
X169982272Y-55820857D01*
X169940000Y-55608342D01*
X169940000Y-55391658D01*
X169982272Y-55179143D01*
X170065192Y-54978957D01*
X170185574Y-54798792D01*
X170338792Y-54645574D01*
X170428262Y-54585792D01*
X170518955Y-54525193D01*
X170567239Y-54505193D01*
X170719143Y-54442272D01*
X170931658Y-54400000D01*
X171148342Y-54400000D01*
X171360857Y-54442272D01*
X171360857Y-54442272D01*
G37*
G36*
X177628707Y-54497596D02*
G01*
X177705836Y-54505193D01*
X177903762Y-54565233D01*
X177903765Y-54565234D01*
X178086170Y-54662732D01*
X178246055Y-54793945D01*
X178377268Y-54953830D01*
X178474766Y-55136235D01*
X178474767Y-55136238D01*
X178534807Y-55334164D01*
X178555080Y-55540000D01*
X178534807Y-55745836D01*
X178474767Y-55943762D01*
X178474766Y-55943765D01*
X178377268Y-56126170D01*
X178246055Y-56286055D01*
X178086170Y-56417268D01*
X177903765Y-56514766D01*
X177903762Y-56514767D01*
X177705836Y-56574807D01*
X177628707Y-56582403D01*
X177551580Y-56590000D01*
X177448420Y-56590000D01*
X177371293Y-56582403D01*
X177294164Y-56574807D01*
X177096238Y-56514767D01*
X177096235Y-56514766D01*
X176913830Y-56417268D01*
X176753945Y-56286055D01*
X176622732Y-56126170D01*
X176525234Y-55943765D01*
X176525233Y-55943762D01*
X176465193Y-55745836D01*
X176444920Y-55540000D01*
X176465193Y-55334164D01*
X176525233Y-55136238D01*
X176525234Y-55136235D01*
X176622732Y-54953830D01*
X176753945Y-54793945D01*
X176913830Y-54662732D01*
X177096235Y-54565234D01*
X177096238Y-54565233D01*
X177294164Y-54505193D01*
X177371293Y-54497596D01*
X177448420Y-54490000D01*
X177551580Y-54490000D01*
X177628707Y-54497596D01*
X177628707Y-54497596D01*
G37*
G36*
X102628707Y-54417597D02*
G01*
X102705836Y-54425193D01*
X102903762Y-54485233D01*
X102903765Y-54485234D01*
X103086170Y-54582732D01*
X103246055Y-54713945D01*
X103377268Y-54873830D01*
X103474766Y-55056235D01*
X103474767Y-55056238D01*
X103534807Y-55254164D01*
X103555080Y-55460000D01*
X103534807Y-55665836D01*
X103510540Y-55745834D01*
X103474766Y-55863765D01*
X103377268Y-56046170D01*
X103246055Y-56206055D01*
X103086170Y-56337268D01*
X102903765Y-56434766D01*
X102903762Y-56434767D01*
X102705836Y-56494807D01*
X102628707Y-56502403D01*
X102551580Y-56510000D01*
X102448420Y-56510000D01*
X102371293Y-56502403D01*
X102294164Y-56494807D01*
X102096238Y-56434767D01*
X102096235Y-56434766D01*
X101913830Y-56337268D01*
X101753945Y-56206055D01*
X101622732Y-56046170D01*
X101525234Y-55863765D01*
X101489460Y-55745834D01*
X101465193Y-55665836D01*
X101444920Y-55460000D01*
X101465193Y-55254164D01*
X101525233Y-55056238D01*
X101525234Y-55056235D01*
X101622732Y-54873830D01*
X101753945Y-54713945D01*
X101913830Y-54582732D01*
X102096235Y-54485234D01*
X102096238Y-54485233D01*
X102294164Y-54425193D01*
X102371293Y-54417597D01*
X102448420Y-54410000D01*
X102551580Y-54410000D01*
X102628707Y-54417597D01*
X102628707Y-54417597D01*
G37*
G36*
X178550000Y-54050000D02*
G01*
X176450000Y-54050000D01*
X176450000Y-51950000D01*
X178550000Y-51950000D01*
X178550000Y-54050000D01*
X178550000Y-54050000D01*
G37*
G36*
X103550000Y-53970000D02*
G01*
X101450000Y-53970000D01*
X101450000Y-51870000D01*
X103550000Y-51870000D01*
X103550000Y-53970000D01*
X103550000Y-53970000D01*
G37*
M02*
