%TF.GenerationSoftware,KiCad,Pcbnew,(5.1.0)-1*%
%TF.CreationDate,2019-09-30T23:49:38+02:00*%
%TF.ProjectId,KicadJE_SympleSeq,4b696361-644a-4455-9f53-796d706c6553,Rev A*%
%TF.SameCoordinates,Original*%
%TF.FileFunction,Soldermask,Top*%
%TF.FilePolarity,Negative*%
%FSLAX46Y46*%
G04 Gerber Fmt 4.6, Leading zero omitted, Abs format (unit mm)*
G04 Created by KiCad (PCBNEW (5.1.0)-1) date 2019-09-30 23:49:38*
%MOMM*%
%LPD*%
G04 APERTURE LIST*
%ADD10C,1.000000*%
%ADD11C,0.150000*%
G04 APERTURE END LIST*
D10*
X105000000Y-96950000D02*
X105000000Y-97950000D01*
X175000000Y-96950000D02*
X175000000Y-97950000D01*
X105000000Y-96950000D02*
X175000000Y-96950000D01*
X175000000Y-97950000D02*
X105000000Y-97950000D01*
X180000000Y-50000000D02*
X100000000Y-50000000D01*
X180000000Y-150000000D02*
X180000000Y-50000000D01*
X100000000Y-150000000D02*
X180000000Y-150000000D01*
X100000000Y-50000000D02*
X100000000Y-150000000D01*
D11*
G36*
X131054845Y-146118810D02*
G01*
X131299896Y-146193145D01*
X131525736Y-146313860D01*
X131723687Y-146476313D01*
X131886140Y-146674264D01*
X132006855Y-146900104D01*
X132081190Y-147145155D01*
X132106290Y-147400000D01*
X132081190Y-147654845D01*
X132006855Y-147899896D01*
X131886140Y-148125736D01*
X131723687Y-148323687D01*
X131525736Y-148486140D01*
X131299896Y-148606855D01*
X131054845Y-148681190D01*
X130863864Y-148700000D01*
X128936136Y-148700000D01*
X128745155Y-148681190D01*
X128500104Y-148606855D01*
X128274264Y-148486140D01*
X128076313Y-148323687D01*
X127913860Y-148125736D01*
X127793145Y-147899896D01*
X127718810Y-147654845D01*
X127693710Y-147400000D01*
X127718810Y-147145155D01*
X127793145Y-146900104D01*
X127913860Y-146674264D01*
X128076313Y-146476313D01*
X128274264Y-146313860D01*
X128500104Y-146193145D01*
X128745155Y-146118810D01*
X128936136Y-146100000D01*
X130863864Y-146100000D01*
X131054845Y-146118810D01*
X131054845Y-146118810D01*
G37*
G36*
X151054845Y-146118810D02*
G01*
X151299896Y-146193145D01*
X151525736Y-146313860D01*
X151723687Y-146476313D01*
X151886140Y-146674264D01*
X152006855Y-146900104D01*
X152081190Y-147145155D01*
X152106290Y-147400000D01*
X152081190Y-147654845D01*
X152006855Y-147899896D01*
X151886140Y-148125736D01*
X151723687Y-148323687D01*
X151525736Y-148486140D01*
X151299896Y-148606855D01*
X151054845Y-148681190D01*
X150863864Y-148700000D01*
X148936136Y-148700000D01*
X148745155Y-148681190D01*
X148500104Y-148606855D01*
X148274264Y-148486140D01*
X148076313Y-148323687D01*
X147913860Y-148125736D01*
X147793145Y-147899896D01*
X147718810Y-147654845D01*
X147693710Y-147400000D01*
X147718810Y-147145155D01*
X147793145Y-146900104D01*
X147913860Y-146674264D01*
X148076313Y-146476313D01*
X148274264Y-146313860D01*
X148500104Y-146193145D01*
X148745155Y-146118810D01*
X148936136Y-146100000D01*
X150863864Y-146100000D01*
X151054845Y-146118810D01*
X151054845Y-146118810D01*
G37*
G36*
X171054845Y-146118810D02*
G01*
X171299896Y-146193145D01*
X171525736Y-146313860D01*
X171723687Y-146476313D01*
X171886140Y-146674264D01*
X172006855Y-146900104D01*
X172081190Y-147145155D01*
X172106290Y-147400000D01*
X172081190Y-147654845D01*
X172006855Y-147899896D01*
X171886140Y-148125736D01*
X171723687Y-148323687D01*
X171525736Y-148486140D01*
X171299896Y-148606855D01*
X171054845Y-148681190D01*
X170863864Y-148700000D01*
X168936136Y-148700000D01*
X168745155Y-148681190D01*
X168500104Y-148606855D01*
X168274264Y-148486140D01*
X168076313Y-148323687D01*
X167913860Y-148125736D01*
X167793145Y-147899896D01*
X167718810Y-147654845D01*
X167693710Y-147400000D01*
X167718810Y-147145155D01*
X167793145Y-146900104D01*
X167913860Y-146674264D01*
X168076313Y-146476313D01*
X168274264Y-146313860D01*
X168500104Y-146193145D01*
X168745155Y-146118810D01*
X168936136Y-146100000D01*
X170863864Y-146100000D01*
X171054845Y-146118810D01*
X171054845Y-146118810D01*
G37*
G36*
X111054845Y-146118810D02*
G01*
X111299896Y-146193145D01*
X111525736Y-146313860D01*
X111723687Y-146476313D01*
X111886140Y-146674264D01*
X112006855Y-146900104D01*
X112081190Y-147145155D01*
X112106290Y-147400000D01*
X112081190Y-147654845D01*
X112006855Y-147899896D01*
X111886140Y-148125736D01*
X111723687Y-148323687D01*
X111525736Y-148486140D01*
X111299896Y-148606855D01*
X111054845Y-148681190D01*
X110863864Y-148700000D01*
X108936136Y-148700000D01*
X108745155Y-148681190D01*
X108500104Y-148606855D01*
X108274264Y-148486140D01*
X108076313Y-148323687D01*
X107913860Y-148125736D01*
X107793145Y-147899896D01*
X107718810Y-147654845D01*
X107693710Y-147400000D01*
X107718810Y-147145155D01*
X107793145Y-146900104D01*
X107913860Y-146674264D01*
X108076313Y-146476313D01*
X108274264Y-146313860D01*
X108500104Y-146193145D01*
X108745155Y-146118810D01*
X108936136Y-146100000D01*
X110863864Y-146100000D01*
X111054845Y-146118810D01*
X111054845Y-146118810D01*
G37*
G36*
X175800000Y-145700000D02*
G01*
X173200000Y-145700000D01*
X173200000Y-141300000D01*
X175800000Y-141300000D01*
X175800000Y-145700000D01*
X175800000Y-145700000D01*
G37*
G36*
X115800000Y-145700000D02*
G01*
X113200000Y-145700000D01*
X113200000Y-141300000D01*
X115800000Y-141300000D01*
X115800000Y-145700000D01*
X115800000Y-145700000D01*
G37*
G36*
X155800000Y-145700000D02*
G01*
X153200000Y-145700000D01*
X153200000Y-141300000D01*
X155800000Y-141300000D01*
X155800000Y-145700000D01*
X155800000Y-145700000D01*
G37*
G36*
X135800000Y-145700000D02*
G01*
X133200000Y-145700000D01*
X133200000Y-141300000D01*
X135800000Y-141300000D01*
X135800000Y-145700000D01*
X135800000Y-145700000D01*
G37*
G36*
X104954844Y-137218810D02*
G01*
X105199895Y-137293145D01*
X105425735Y-137413860D01*
X105623687Y-137576313D01*
X105786140Y-137774264D01*
X105906855Y-138000104D01*
X105981190Y-138245155D01*
X106000000Y-138436136D01*
X106000000Y-139062432D01*
X106002402Y-139086818D01*
X106009515Y-139110267D01*
X106021066Y-139131878D01*
X106036611Y-139150820D01*
X106055553Y-139166365D01*
X106077164Y-139177916D01*
X106100613Y-139185029D01*
X106124999Y-139187431D01*
X106149385Y-139185029D01*
X106172834Y-139177916D01*
X106194445Y-139166365D01*
X106213387Y-139150820D01*
X106235238Y-139121356D01*
X106266734Y-139062432D01*
X106313860Y-138974265D01*
X106476313Y-138776313D01*
X106674264Y-138613860D01*
X106900104Y-138493145D01*
X107145155Y-138418810D01*
X107400000Y-138393710D01*
X107654844Y-138418810D01*
X107899895Y-138493145D01*
X108125735Y-138613860D01*
X108323687Y-138776313D01*
X108486140Y-138974264D01*
X108606855Y-139200104D01*
X108681190Y-139445155D01*
X108700000Y-139636136D01*
X108700000Y-141563864D01*
X108681190Y-141754845D01*
X108606855Y-141999896D01*
X108486140Y-142225736D01*
X108323687Y-142423687D01*
X108125736Y-142586140D01*
X107899896Y-142706855D01*
X107654845Y-142781190D01*
X107400000Y-142806290D01*
X107145156Y-142781190D01*
X106900105Y-142706855D01*
X106674265Y-142586140D01*
X106476314Y-142423687D01*
X106313861Y-142225736D01*
X106193146Y-141999896D01*
X106118811Y-141754845D01*
X106100000Y-141563864D01*
X106100000Y-140937569D01*
X106097598Y-140913183D01*
X106090485Y-140889734D01*
X106078934Y-140868123D01*
X106063389Y-140849181D01*
X106044447Y-140833636D01*
X106022836Y-140822085D01*
X105999387Y-140814972D01*
X105975001Y-140812570D01*
X105950615Y-140814972D01*
X105927166Y-140822085D01*
X105905555Y-140833636D01*
X105886613Y-140849181D01*
X105864764Y-140878643D01*
X105786140Y-141025736D01*
X105623687Y-141223687D01*
X105425736Y-141386140D01*
X105199896Y-141506855D01*
X104954845Y-141581190D01*
X104700000Y-141606290D01*
X104445156Y-141581190D01*
X104200105Y-141506855D01*
X103974265Y-141386140D01*
X103776314Y-141223687D01*
X103613861Y-141025736D01*
X103493146Y-140799896D01*
X103418811Y-140554845D01*
X103400000Y-140363864D01*
X103400000Y-138436137D01*
X103418810Y-138245156D01*
X103493145Y-138000105D01*
X103613860Y-137774265D01*
X103776313Y-137576313D01*
X103974264Y-137413860D01*
X104200104Y-137293145D01*
X104445155Y-137218810D01*
X104700000Y-137193710D01*
X104954844Y-137218810D01*
X104954844Y-137218810D01*
G37*
G36*
X144954844Y-137218810D02*
G01*
X145199895Y-137293145D01*
X145425735Y-137413860D01*
X145623687Y-137576313D01*
X145786140Y-137774264D01*
X145906855Y-138000104D01*
X145981190Y-138245155D01*
X146000000Y-138436136D01*
X146000000Y-139062432D01*
X146002402Y-139086818D01*
X146009515Y-139110267D01*
X146021066Y-139131878D01*
X146036611Y-139150820D01*
X146055553Y-139166365D01*
X146077164Y-139177916D01*
X146100613Y-139185029D01*
X146124999Y-139187431D01*
X146149385Y-139185029D01*
X146172834Y-139177916D01*
X146194445Y-139166365D01*
X146213387Y-139150820D01*
X146235238Y-139121356D01*
X146266734Y-139062432D01*
X146313860Y-138974265D01*
X146476313Y-138776313D01*
X146674264Y-138613860D01*
X146900104Y-138493145D01*
X147145155Y-138418810D01*
X147400000Y-138393710D01*
X147654844Y-138418810D01*
X147899895Y-138493145D01*
X148125735Y-138613860D01*
X148323687Y-138776313D01*
X148486140Y-138974264D01*
X148606855Y-139200104D01*
X148681190Y-139445155D01*
X148700000Y-139636136D01*
X148700000Y-141563864D01*
X148681190Y-141754845D01*
X148606855Y-141999896D01*
X148486140Y-142225736D01*
X148323687Y-142423687D01*
X148125736Y-142586140D01*
X147899896Y-142706855D01*
X147654845Y-142781190D01*
X147400000Y-142806290D01*
X147145156Y-142781190D01*
X146900105Y-142706855D01*
X146674265Y-142586140D01*
X146476314Y-142423687D01*
X146313861Y-142225736D01*
X146193146Y-141999896D01*
X146118811Y-141754845D01*
X146100000Y-141563864D01*
X146100000Y-140937569D01*
X146097598Y-140913183D01*
X146090485Y-140889734D01*
X146078934Y-140868123D01*
X146063389Y-140849181D01*
X146044447Y-140833636D01*
X146022836Y-140822085D01*
X145999387Y-140814972D01*
X145975001Y-140812570D01*
X145950615Y-140814972D01*
X145927166Y-140822085D01*
X145905555Y-140833636D01*
X145886613Y-140849181D01*
X145864764Y-140878643D01*
X145786140Y-141025736D01*
X145623687Y-141223687D01*
X145425736Y-141386140D01*
X145199896Y-141506855D01*
X144954845Y-141581190D01*
X144700000Y-141606290D01*
X144445156Y-141581190D01*
X144200105Y-141506855D01*
X143974265Y-141386140D01*
X143776314Y-141223687D01*
X143613861Y-141025736D01*
X143493146Y-140799896D01*
X143418811Y-140554845D01*
X143400000Y-140363864D01*
X143400000Y-138436137D01*
X143418810Y-138245156D01*
X143493145Y-138000105D01*
X143613860Y-137774265D01*
X143776313Y-137576313D01*
X143974264Y-137413860D01*
X144200104Y-137293145D01*
X144445155Y-137218810D01*
X144700000Y-137193710D01*
X144954844Y-137218810D01*
X144954844Y-137218810D01*
G37*
G36*
X124954844Y-137218810D02*
G01*
X125199895Y-137293145D01*
X125425735Y-137413860D01*
X125623687Y-137576313D01*
X125786140Y-137774264D01*
X125906855Y-138000104D01*
X125981190Y-138245155D01*
X126000000Y-138436136D01*
X126000000Y-139062432D01*
X126002402Y-139086818D01*
X126009515Y-139110267D01*
X126021066Y-139131878D01*
X126036611Y-139150820D01*
X126055553Y-139166365D01*
X126077164Y-139177916D01*
X126100613Y-139185029D01*
X126124999Y-139187431D01*
X126149385Y-139185029D01*
X126172834Y-139177916D01*
X126194445Y-139166365D01*
X126213387Y-139150820D01*
X126235238Y-139121356D01*
X126266734Y-139062432D01*
X126313860Y-138974265D01*
X126476313Y-138776313D01*
X126674264Y-138613860D01*
X126900104Y-138493145D01*
X127145155Y-138418810D01*
X127400000Y-138393710D01*
X127654844Y-138418810D01*
X127899895Y-138493145D01*
X128125735Y-138613860D01*
X128323687Y-138776313D01*
X128486140Y-138974264D01*
X128606855Y-139200104D01*
X128681190Y-139445155D01*
X128700000Y-139636136D01*
X128700000Y-141563864D01*
X128681190Y-141754845D01*
X128606855Y-141999896D01*
X128486140Y-142225736D01*
X128323687Y-142423687D01*
X128125736Y-142586140D01*
X127899896Y-142706855D01*
X127654845Y-142781190D01*
X127400000Y-142806290D01*
X127145156Y-142781190D01*
X126900105Y-142706855D01*
X126674265Y-142586140D01*
X126476314Y-142423687D01*
X126313861Y-142225736D01*
X126193146Y-141999896D01*
X126118811Y-141754845D01*
X126100000Y-141563864D01*
X126100000Y-140937569D01*
X126097598Y-140913183D01*
X126090485Y-140889734D01*
X126078934Y-140868123D01*
X126063389Y-140849181D01*
X126044447Y-140833636D01*
X126022836Y-140822085D01*
X125999387Y-140814972D01*
X125975001Y-140812570D01*
X125950615Y-140814972D01*
X125927166Y-140822085D01*
X125905555Y-140833636D01*
X125886613Y-140849181D01*
X125864764Y-140878643D01*
X125786140Y-141025736D01*
X125623687Y-141223687D01*
X125425736Y-141386140D01*
X125199896Y-141506855D01*
X124954845Y-141581190D01*
X124700000Y-141606290D01*
X124445156Y-141581190D01*
X124200105Y-141506855D01*
X123974265Y-141386140D01*
X123776314Y-141223687D01*
X123613861Y-141025736D01*
X123493146Y-140799896D01*
X123418811Y-140554845D01*
X123400000Y-140363864D01*
X123400000Y-138436137D01*
X123418810Y-138245156D01*
X123493145Y-138000105D01*
X123613860Y-137774265D01*
X123776313Y-137576313D01*
X123974264Y-137413860D01*
X124200104Y-137293145D01*
X124445155Y-137218810D01*
X124700000Y-137193710D01*
X124954844Y-137218810D01*
X124954844Y-137218810D01*
G37*
G36*
X164954844Y-137218810D02*
G01*
X165199895Y-137293145D01*
X165425735Y-137413860D01*
X165623687Y-137576313D01*
X165786140Y-137774264D01*
X165906855Y-138000104D01*
X165981190Y-138245155D01*
X166000000Y-138436136D01*
X166000000Y-139062432D01*
X166002402Y-139086818D01*
X166009515Y-139110267D01*
X166021066Y-139131878D01*
X166036611Y-139150820D01*
X166055553Y-139166365D01*
X166077164Y-139177916D01*
X166100613Y-139185029D01*
X166124999Y-139187431D01*
X166149385Y-139185029D01*
X166172834Y-139177916D01*
X166194445Y-139166365D01*
X166213387Y-139150820D01*
X166235238Y-139121356D01*
X166266734Y-139062432D01*
X166313860Y-138974265D01*
X166476313Y-138776313D01*
X166674264Y-138613860D01*
X166900104Y-138493145D01*
X167145155Y-138418810D01*
X167400000Y-138393710D01*
X167654844Y-138418810D01*
X167899895Y-138493145D01*
X168125735Y-138613860D01*
X168323687Y-138776313D01*
X168486140Y-138974264D01*
X168606855Y-139200104D01*
X168681190Y-139445155D01*
X168700000Y-139636136D01*
X168700000Y-141563864D01*
X168681190Y-141754845D01*
X168606855Y-141999896D01*
X168486140Y-142225736D01*
X168323687Y-142423687D01*
X168125736Y-142586140D01*
X167899896Y-142706855D01*
X167654845Y-142781190D01*
X167400000Y-142806290D01*
X167145156Y-142781190D01*
X166900105Y-142706855D01*
X166674265Y-142586140D01*
X166476314Y-142423687D01*
X166313861Y-142225736D01*
X166193146Y-141999896D01*
X166118811Y-141754845D01*
X166100000Y-141563864D01*
X166100000Y-140937569D01*
X166097598Y-140913183D01*
X166090485Y-140889734D01*
X166078934Y-140868123D01*
X166063389Y-140849181D01*
X166044447Y-140833636D01*
X166022836Y-140822085D01*
X165999387Y-140814972D01*
X165975001Y-140812570D01*
X165950615Y-140814972D01*
X165927166Y-140822085D01*
X165905555Y-140833636D01*
X165886613Y-140849181D01*
X165864764Y-140878643D01*
X165786140Y-141025736D01*
X165623687Y-141223687D01*
X165425736Y-141386140D01*
X165199896Y-141506855D01*
X164954845Y-141581190D01*
X164700000Y-141606290D01*
X164445156Y-141581190D01*
X164200105Y-141506855D01*
X163974265Y-141386140D01*
X163776314Y-141223687D01*
X163613861Y-141025736D01*
X163493146Y-140799896D01*
X163418811Y-140554845D01*
X163400000Y-140363864D01*
X163400000Y-138436137D01*
X163418810Y-138245156D01*
X163493145Y-138000105D01*
X163613860Y-137774265D01*
X163776313Y-137576313D01*
X163974264Y-137413860D01*
X164200104Y-137293145D01*
X164445155Y-137218810D01*
X164700000Y-137193710D01*
X164954844Y-137218810D01*
X164954844Y-137218810D01*
G37*
G36*
X175154845Y-134918810D02*
G01*
X175399896Y-134993145D01*
X175625736Y-135113860D01*
X175823687Y-135276313D01*
X175986140Y-135474264D01*
X176106855Y-135700104D01*
X176181190Y-135945155D01*
X176206290Y-136200000D01*
X176181190Y-136454845D01*
X176106855Y-136699896D01*
X175986140Y-136925736D01*
X175823687Y-137123687D01*
X175625736Y-137286140D01*
X175399896Y-137406855D01*
X175154845Y-137481190D01*
X174963864Y-137500000D01*
X173036136Y-137500000D01*
X172845155Y-137481190D01*
X172600104Y-137406855D01*
X172374264Y-137286140D01*
X172176313Y-137123687D01*
X172013860Y-136925736D01*
X171893145Y-136699896D01*
X171818810Y-136454845D01*
X171793710Y-136200000D01*
X171818810Y-135945155D01*
X171893145Y-135700104D01*
X172013860Y-135474264D01*
X172176313Y-135276313D01*
X172374264Y-135113860D01*
X172600104Y-134993145D01*
X172845155Y-134918810D01*
X173036136Y-134900000D01*
X174963864Y-134900000D01*
X175154845Y-134918810D01*
X175154845Y-134918810D01*
G37*
G36*
X115154845Y-134918810D02*
G01*
X115399896Y-134993145D01*
X115625736Y-135113860D01*
X115823687Y-135276313D01*
X115986140Y-135474264D01*
X116106855Y-135700104D01*
X116181190Y-135945155D01*
X116206290Y-136200000D01*
X116181190Y-136454845D01*
X116106855Y-136699896D01*
X115986140Y-136925736D01*
X115823687Y-137123687D01*
X115625736Y-137286140D01*
X115399896Y-137406855D01*
X115154845Y-137481190D01*
X114963864Y-137500000D01*
X113036136Y-137500000D01*
X112845155Y-137481190D01*
X112600104Y-137406855D01*
X112374264Y-137286140D01*
X112176313Y-137123687D01*
X112013860Y-136925736D01*
X111893145Y-136699896D01*
X111818810Y-136454845D01*
X111793710Y-136200000D01*
X111818810Y-135945155D01*
X111893145Y-135700104D01*
X112013860Y-135474264D01*
X112176313Y-135276313D01*
X112374264Y-135113860D01*
X112600104Y-134993145D01*
X112845155Y-134918810D01*
X113036136Y-134900000D01*
X114963864Y-134900000D01*
X115154845Y-134918810D01*
X115154845Y-134918810D01*
G37*
G36*
X135154845Y-134918810D02*
G01*
X135399896Y-134993145D01*
X135625736Y-135113860D01*
X135823687Y-135276313D01*
X135986140Y-135474264D01*
X136106855Y-135700104D01*
X136181190Y-135945155D01*
X136206290Y-136200000D01*
X136181190Y-136454845D01*
X136106855Y-136699896D01*
X135986140Y-136925736D01*
X135823687Y-137123687D01*
X135625736Y-137286140D01*
X135399896Y-137406855D01*
X135154845Y-137481190D01*
X134963864Y-137500000D01*
X133036136Y-137500000D01*
X132845155Y-137481190D01*
X132600104Y-137406855D01*
X132374264Y-137286140D01*
X132176313Y-137123687D01*
X132013860Y-136925736D01*
X131893145Y-136699896D01*
X131818810Y-136454845D01*
X131793710Y-136200000D01*
X131818810Y-135945155D01*
X131893145Y-135700104D01*
X132013860Y-135474264D01*
X132176313Y-135276313D01*
X132374264Y-135113860D01*
X132600104Y-134993145D01*
X132845155Y-134918810D01*
X133036136Y-134900000D01*
X134963864Y-134900000D01*
X135154845Y-134918810D01*
X135154845Y-134918810D01*
G37*
G36*
X155154845Y-134918810D02*
G01*
X155399896Y-134993145D01*
X155625736Y-135113860D01*
X155823687Y-135276313D01*
X155986140Y-135474264D01*
X156106855Y-135700104D01*
X156181190Y-135945155D01*
X156206290Y-136200000D01*
X156181190Y-136454845D01*
X156106855Y-136699896D01*
X155986140Y-136925736D01*
X155823687Y-137123687D01*
X155625736Y-137286140D01*
X155399896Y-137406855D01*
X155154845Y-137481190D01*
X154963864Y-137500000D01*
X153036136Y-137500000D01*
X152845155Y-137481190D01*
X152600104Y-137406855D01*
X152374264Y-137286140D01*
X152176313Y-137123687D01*
X152013860Y-136925736D01*
X151893145Y-136699896D01*
X151818810Y-136454845D01*
X151793710Y-136200000D01*
X151818810Y-135945155D01*
X151893145Y-135700104D01*
X152013860Y-135474264D01*
X152176313Y-135276313D01*
X152374264Y-135113860D01*
X152600104Y-134993145D01*
X152845155Y-134918810D01*
X153036136Y-134900000D01*
X154963864Y-134900000D01*
X155154845Y-134918810D01*
X155154845Y-134918810D01*
G37*
G36*
X113185529Y-132755710D02*
G01*
X113235378Y-132770831D01*
X113281310Y-132795382D01*
X113321574Y-132828426D01*
X113354618Y-132868690D01*
X113379169Y-132914622D01*
X113394290Y-132964471D01*
X113400000Y-133022444D01*
X113400000Y-134027556D01*
X113394290Y-134085529D01*
X113379169Y-134135378D01*
X113354618Y-134181310D01*
X113321574Y-134221574D01*
X113281310Y-134254618D01*
X113235378Y-134279169D01*
X113185529Y-134294290D01*
X113127556Y-134300000D01*
X111872444Y-134300000D01*
X111814471Y-134294290D01*
X111764622Y-134279169D01*
X111718690Y-134254618D01*
X111678426Y-134221574D01*
X111645382Y-134181310D01*
X111620831Y-134135378D01*
X111605710Y-134085529D01*
X111600000Y-134027556D01*
X111600000Y-133022444D01*
X111605710Y-132964471D01*
X111620831Y-132914622D01*
X111645382Y-132868690D01*
X111678426Y-132828426D01*
X111718690Y-132795382D01*
X111764622Y-132770831D01*
X111814471Y-132755710D01*
X111872444Y-132750000D01*
X113127556Y-132750000D01*
X113185529Y-132755710D01*
X113185529Y-132755710D01*
G37*
G36*
X130685529Y-132755710D02*
G01*
X130735378Y-132770831D01*
X130781310Y-132795382D01*
X130821574Y-132828426D01*
X130854618Y-132868690D01*
X130879169Y-132914622D01*
X130894290Y-132964471D01*
X130900000Y-133022444D01*
X130900000Y-134027556D01*
X130894290Y-134085529D01*
X130879169Y-134135378D01*
X130854618Y-134181310D01*
X130821574Y-134221574D01*
X130781310Y-134254618D01*
X130735378Y-134279169D01*
X130685529Y-134294290D01*
X130627556Y-134300000D01*
X129372444Y-134300000D01*
X129314471Y-134294290D01*
X129264622Y-134279169D01*
X129218690Y-134254618D01*
X129178426Y-134221574D01*
X129145382Y-134181310D01*
X129120831Y-134135378D01*
X129105710Y-134085529D01*
X129100000Y-134027556D01*
X129100000Y-133022444D01*
X129105710Y-132964471D01*
X129120831Y-132914622D01*
X129145382Y-132868690D01*
X129178426Y-132828426D01*
X129218690Y-132795382D01*
X129264622Y-132770831D01*
X129314471Y-132755710D01*
X129372444Y-132750000D01*
X130627556Y-132750000D01*
X130685529Y-132755710D01*
X130685529Y-132755710D01*
G37*
G36*
X172710529Y-132755710D02*
G01*
X172760378Y-132770831D01*
X172806310Y-132795382D01*
X172846574Y-132828426D01*
X172879618Y-132868690D01*
X172904169Y-132914622D01*
X172919290Y-132964471D01*
X172925000Y-133022444D01*
X172925000Y-134027556D01*
X172919290Y-134085529D01*
X172904169Y-134135378D01*
X172879618Y-134181310D01*
X172846574Y-134221574D01*
X172806310Y-134254618D01*
X172760378Y-134279169D01*
X172710529Y-134294290D01*
X172652556Y-134300000D01*
X171397444Y-134300000D01*
X171339471Y-134294290D01*
X171289622Y-134279169D01*
X171243690Y-134254618D01*
X171203426Y-134221574D01*
X171170382Y-134181310D01*
X171145831Y-134135378D01*
X171130710Y-134085529D01*
X171125000Y-134027556D01*
X171125000Y-133022444D01*
X171130710Y-132964471D01*
X171145831Y-132914622D01*
X171170382Y-132868690D01*
X171203426Y-132828426D01*
X171243690Y-132795382D01*
X171289622Y-132770831D01*
X171339471Y-132755710D01*
X171397444Y-132750000D01*
X172652556Y-132750000D01*
X172710529Y-132755710D01*
X172710529Y-132755710D01*
G37*
G36*
X153685529Y-132755710D02*
G01*
X153735378Y-132770831D01*
X153781310Y-132795382D01*
X153821574Y-132828426D01*
X153854618Y-132868690D01*
X153879169Y-132914622D01*
X153894290Y-132964471D01*
X153900000Y-133022444D01*
X153900000Y-134027556D01*
X153894290Y-134085529D01*
X153879169Y-134135378D01*
X153854618Y-134181310D01*
X153821574Y-134221574D01*
X153781310Y-134254618D01*
X153735378Y-134279169D01*
X153685529Y-134294290D01*
X153627556Y-134300000D01*
X152372444Y-134300000D01*
X152314471Y-134294290D01*
X152264622Y-134279169D01*
X152218690Y-134254618D01*
X152178426Y-134221574D01*
X152145382Y-134181310D01*
X152120831Y-134135378D01*
X152105710Y-134085529D01*
X152100000Y-134027556D01*
X152100000Y-133022444D01*
X152105710Y-132964471D01*
X152120831Y-132914622D01*
X152145382Y-132868690D01*
X152178426Y-132828426D01*
X152218690Y-132795382D01*
X152264622Y-132770831D01*
X152314471Y-132755710D01*
X152372444Y-132750000D01*
X153627556Y-132750000D01*
X153685529Y-132755710D01*
X153685529Y-132755710D01*
G37*
G36*
X108173499Y-132925997D02*
G01*
X108226147Y-132941968D01*
X108274668Y-132967902D01*
X108317195Y-133002805D01*
X108352098Y-133045332D01*
X108378032Y-133093853D01*
X108394003Y-133146501D01*
X108400000Y-133207390D01*
X108400000Y-134007610D01*
X108394003Y-134068499D01*
X108378032Y-134121147D01*
X108352098Y-134169668D01*
X108317195Y-134212195D01*
X108274668Y-134247098D01*
X108226147Y-134273032D01*
X108173499Y-134289003D01*
X108112610Y-134295000D01*
X106887390Y-134295000D01*
X106826501Y-134289003D01*
X106773853Y-134273032D01*
X106725332Y-134247098D01*
X106682805Y-134212195D01*
X106647902Y-134169668D01*
X106621968Y-134121147D01*
X106605997Y-134068499D01*
X106600000Y-134007610D01*
X106600000Y-133207390D01*
X106605997Y-133146501D01*
X106621968Y-133093853D01*
X106647902Y-133045332D01*
X106682805Y-133002805D01*
X106725332Y-132967902D01*
X106773853Y-132941968D01*
X106826501Y-132925997D01*
X106887390Y-132920000D01*
X108112610Y-132920000D01*
X108173499Y-132925997D01*
X108173499Y-132925997D01*
G37*
G36*
X168235999Y-132925997D02*
G01*
X168288647Y-132941968D01*
X168337168Y-132967902D01*
X168379695Y-133002805D01*
X168414598Y-133045332D01*
X168440532Y-133093853D01*
X168456503Y-133146501D01*
X168462500Y-133207390D01*
X168462500Y-134007610D01*
X168456503Y-134068499D01*
X168440532Y-134121147D01*
X168414598Y-134169668D01*
X168379695Y-134212195D01*
X168337168Y-134247098D01*
X168288647Y-134273032D01*
X168235999Y-134289003D01*
X168175110Y-134295000D01*
X166949890Y-134295000D01*
X166889001Y-134289003D01*
X166836353Y-134273032D01*
X166787832Y-134247098D01*
X166745305Y-134212195D01*
X166710402Y-134169668D01*
X166684468Y-134121147D01*
X166668497Y-134068499D01*
X166662500Y-134007610D01*
X166662500Y-133207390D01*
X166668497Y-133146501D01*
X166684468Y-133093853D01*
X166710402Y-133045332D01*
X166745305Y-133002805D01*
X166787832Y-132967902D01*
X166836353Y-132941968D01*
X166889001Y-132925997D01*
X166949890Y-132920000D01*
X168175110Y-132920000D01*
X168235999Y-132925997D01*
X168235999Y-132925997D01*
G37*
G36*
X149173499Y-132925997D02*
G01*
X149226147Y-132941968D01*
X149274668Y-132967902D01*
X149317195Y-133002805D01*
X149352098Y-133045332D01*
X149378032Y-133093853D01*
X149394003Y-133146501D01*
X149400000Y-133207390D01*
X149400000Y-134007610D01*
X149394003Y-134068499D01*
X149378032Y-134121147D01*
X149352098Y-134169668D01*
X149317195Y-134212195D01*
X149274668Y-134247098D01*
X149226147Y-134273032D01*
X149173499Y-134289003D01*
X149112610Y-134295000D01*
X147887390Y-134295000D01*
X147826501Y-134289003D01*
X147773853Y-134273032D01*
X147725332Y-134247098D01*
X147682805Y-134212195D01*
X147647902Y-134169668D01*
X147621968Y-134121147D01*
X147605997Y-134068499D01*
X147600000Y-134007610D01*
X147600000Y-133207390D01*
X147605997Y-133146501D01*
X147621968Y-133093853D01*
X147647902Y-133045332D01*
X147682805Y-133002805D01*
X147725332Y-132967902D01*
X147773853Y-132941968D01*
X147826501Y-132925997D01*
X147887390Y-132920000D01*
X149112610Y-132920000D01*
X149173499Y-132925997D01*
X149173499Y-132925997D01*
G37*
G36*
X168235999Y-131050997D02*
G01*
X168288647Y-131066968D01*
X168337168Y-131092902D01*
X168379695Y-131127805D01*
X168414598Y-131170332D01*
X168440532Y-131218853D01*
X168456503Y-131271501D01*
X168462500Y-131332390D01*
X168462500Y-132132610D01*
X168456503Y-132193499D01*
X168440532Y-132246147D01*
X168414598Y-132294668D01*
X168379695Y-132337195D01*
X168337168Y-132372098D01*
X168288647Y-132398032D01*
X168235999Y-132414003D01*
X168175110Y-132420000D01*
X166949890Y-132420000D01*
X166889001Y-132414003D01*
X166836353Y-132398032D01*
X166787832Y-132372098D01*
X166745305Y-132337195D01*
X166710402Y-132294668D01*
X166684468Y-132246147D01*
X166668497Y-132193499D01*
X166662500Y-132132610D01*
X166662500Y-131332390D01*
X166668497Y-131271501D01*
X166684468Y-131218853D01*
X166710402Y-131170332D01*
X166745305Y-131127805D01*
X166787832Y-131092902D01*
X166836353Y-131066968D01*
X166889001Y-131050997D01*
X166949890Y-131045000D01*
X168175110Y-131045000D01*
X168235999Y-131050997D01*
X168235999Y-131050997D01*
G37*
G36*
X149173499Y-131050997D02*
G01*
X149226147Y-131066968D01*
X149274668Y-131092902D01*
X149317195Y-131127805D01*
X149352098Y-131170332D01*
X149378032Y-131218853D01*
X149394003Y-131271501D01*
X149400000Y-131332390D01*
X149400000Y-132132610D01*
X149394003Y-132193499D01*
X149378032Y-132246147D01*
X149352098Y-132294668D01*
X149317195Y-132337195D01*
X149274668Y-132372098D01*
X149226147Y-132398032D01*
X149173499Y-132414003D01*
X149112610Y-132420000D01*
X147887390Y-132420000D01*
X147826501Y-132414003D01*
X147773853Y-132398032D01*
X147725332Y-132372098D01*
X147682805Y-132337195D01*
X147647902Y-132294668D01*
X147621968Y-132246147D01*
X147605997Y-132193499D01*
X147600000Y-132132610D01*
X147600000Y-131332390D01*
X147605997Y-131271501D01*
X147621968Y-131218853D01*
X147647902Y-131170332D01*
X147682805Y-131127805D01*
X147725332Y-131092902D01*
X147773853Y-131066968D01*
X147826501Y-131050997D01*
X147887390Y-131045000D01*
X149112610Y-131045000D01*
X149173499Y-131050997D01*
X149173499Y-131050997D01*
G37*
G36*
X108173499Y-131050997D02*
G01*
X108226147Y-131066968D01*
X108274668Y-131092902D01*
X108317195Y-131127805D01*
X108352098Y-131170332D01*
X108378032Y-131218853D01*
X108394003Y-131271501D01*
X108400000Y-131332390D01*
X108400000Y-132132610D01*
X108394003Y-132193499D01*
X108378032Y-132246147D01*
X108352098Y-132294668D01*
X108317195Y-132337195D01*
X108274668Y-132372098D01*
X108226147Y-132398032D01*
X108173499Y-132414003D01*
X108112610Y-132420000D01*
X106887390Y-132420000D01*
X106826501Y-132414003D01*
X106773853Y-132398032D01*
X106725332Y-132372098D01*
X106682805Y-132337195D01*
X106647902Y-132294668D01*
X106621968Y-132246147D01*
X106605997Y-132193499D01*
X106600000Y-132132610D01*
X106600000Y-131332390D01*
X106605997Y-131271501D01*
X106621968Y-131218853D01*
X106647902Y-131170332D01*
X106682805Y-131127805D01*
X106725332Y-131092902D01*
X106773853Y-131066968D01*
X106826501Y-131050997D01*
X106887390Y-131045000D01*
X108112610Y-131045000D01*
X108173499Y-131050997D01*
X108173499Y-131050997D01*
G37*
G36*
X130685529Y-130705710D02*
G01*
X130735378Y-130720831D01*
X130781310Y-130745382D01*
X130821574Y-130778426D01*
X130854618Y-130818690D01*
X130879169Y-130864622D01*
X130894290Y-130914471D01*
X130900000Y-130972444D01*
X130900000Y-131977556D01*
X130894290Y-132035529D01*
X130879169Y-132085378D01*
X130854618Y-132131310D01*
X130821574Y-132171574D01*
X130781310Y-132204618D01*
X130735378Y-132229169D01*
X130685529Y-132244290D01*
X130627556Y-132250000D01*
X129372444Y-132250000D01*
X129314471Y-132244290D01*
X129264622Y-132229169D01*
X129218690Y-132204618D01*
X129178426Y-132171574D01*
X129145382Y-132131310D01*
X129120831Y-132085378D01*
X129105710Y-132035529D01*
X129100000Y-131977556D01*
X129100000Y-130972444D01*
X129105710Y-130914471D01*
X129120831Y-130864622D01*
X129145382Y-130818690D01*
X129178426Y-130778426D01*
X129218690Y-130745382D01*
X129264622Y-130720831D01*
X129314471Y-130705710D01*
X129372444Y-130700000D01*
X130627556Y-130700000D01*
X130685529Y-130705710D01*
X130685529Y-130705710D01*
G37*
G36*
X172710529Y-130705710D02*
G01*
X172760378Y-130720831D01*
X172806310Y-130745382D01*
X172846574Y-130778426D01*
X172879618Y-130818690D01*
X172904169Y-130864622D01*
X172919290Y-130914471D01*
X172925000Y-130972444D01*
X172925000Y-131977556D01*
X172919290Y-132035529D01*
X172904169Y-132085378D01*
X172879618Y-132131310D01*
X172846574Y-132171574D01*
X172806310Y-132204618D01*
X172760378Y-132229169D01*
X172710529Y-132244290D01*
X172652556Y-132250000D01*
X171397444Y-132250000D01*
X171339471Y-132244290D01*
X171289622Y-132229169D01*
X171243690Y-132204618D01*
X171203426Y-132171574D01*
X171170382Y-132131310D01*
X171145831Y-132085378D01*
X171130710Y-132035529D01*
X171125000Y-131977556D01*
X171125000Y-130972444D01*
X171130710Y-130914471D01*
X171145831Y-130864622D01*
X171170382Y-130818690D01*
X171203426Y-130778426D01*
X171243690Y-130745382D01*
X171289622Y-130720831D01*
X171339471Y-130705710D01*
X171397444Y-130700000D01*
X172652556Y-130700000D01*
X172710529Y-130705710D01*
X172710529Y-130705710D01*
G37*
G36*
X153685529Y-130705710D02*
G01*
X153735378Y-130720831D01*
X153781310Y-130745382D01*
X153821574Y-130778426D01*
X153854618Y-130818690D01*
X153879169Y-130864622D01*
X153894290Y-130914471D01*
X153900000Y-130972444D01*
X153900000Y-131977556D01*
X153894290Y-132035529D01*
X153879169Y-132085378D01*
X153854618Y-132131310D01*
X153821574Y-132171574D01*
X153781310Y-132204618D01*
X153735378Y-132229169D01*
X153685529Y-132244290D01*
X153627556Y-132250000D01*
X152372444Y-132250000D01*
X152314471Y-132244290D01*
X152264622Y-132229169D01*
X152218690Y-132204618D01*
X152178426Y-132171574D01*
X152145382Y-132131310D01*
X152120831Y-132085378D01*
X152105710Y-132035529D01*
X152100000Y-131977556D01*
X152100000Y-130972444D01*
X152105710Y-130914471D01*
X152120831Y-130864622D01*
X152145382Y-130818690D01*
X152178426Y-130778426D01*
X152218690Y-130745382D01*
X152264622Y-130720831D01*
X152314471Y-130705710D01*
X152372444Y-130700000D01*
X153627556Y-130700000D01*
X153685529Y-130705710D01*
X153685529Y-130705710D01*
G37*
G36*
X113185529Y-130705710D02*
G01*
X113235378Y-130720831D01*
X113281310Y-130745382D01*
X113321574Y-130778426D01*
X113354618Y-130818690D01*
X113379169Y-130864622D01*
X113394290Y-130914471D01*
X113400000Y-130972444D01*
X113400000Y-131977556D01*
X113394290Y-132035529D01*
X113379169Y-132085378D01*
X113354618Y-132131310D01*
X113321574Y-132171574D01*
X113281310Y-132204618D01*
X113235378Y-132229169D01*
X113185529Y-132244290D01*
X113127556Y-132250000D01*
X111872444Y-132250000D01*
X111814471Y-132244290D01*
X111764622Y-132229169D01*
X111718690Y-132204618D01*
X111678426Y-132171574D01*
X111645382Y-132131310D01*
X111620831Y-132085378D01*
X111605710Y-132035529D01*
X111600000Y-131977556D01*
X111600000Y-130972444D01*
X111605710Y-130914471D01*
X111620831Y-130864622D01*
X111645382Y-130818690D01*
X111678426Y-130778426D01*
X111718690Y-130745382D01*
X111764622Y-130720831D01*
X111814471Y-130705710D01*
X111872444Y-130700000D01*
X113127556Y-130700000D01*
X113185529Y-130705710D01*
X113185529Y-130705710D01*
G37*
G36*
X176628707Y-129037596D02*
G01*
X176705836Y-129045193D01*
X176903762Y-129105233D01*
X176903765Y-129105234D01*
X177086170Y-129202732D01*
X177246055Y-129333945D01*
X177377268Y-129493830D01*
X177474766Y-129676235D01*
X177474767Y-129676238D01*
X177534807Y-129874164D01*
X177555080Y-130080000D01*
X177534807Y-130285836D01*
X177474767Y-130483762D01*
X177474766Y-130483765D01*
X177377268Y-130666170D01*
X177246055Y-130826055D01*
X177086170Y-130957268D01*
X176903765Y-131054766D01*
X176903762Y-131054767D01*
X176705836Y-131114807D01*
X176628707Y-131122404D01*
X176551580Y-131130000D01*
X176448420Y-131130000D01*
X176371293Y-131122404D01*
X176294164Y-131114807D01*
X176096238Y-131054767D01*
X176096235Y-131054766D01*
X175913830Y-130957268D01*
X175753945Y-130826055D01*
X175622732Y-130666170D01*
X175525234Y-130483765D01*
X175525233Y-130483762D01*
X175465193Y-130285836D01*
X175444920Y-130080000D01*
X175465193Y-129874164D01*
X175525233Y-129676238D01*
X175525234Y-129676235D01*
X175622732Y-129493830D01*
X175753945Y-129333945D01*
X175913830Y-129202732D01*
X176096235Y-129105234D01*
X176096238Y-129105233D01*
X176294164Y-129045193D01*
X176371293Y-129037596D01*
X176448420Y-129030000D01*
X176551580Y-129030000D01*
X176628707Y-129037596D01*
X176628707Y-129037596D01*
G37*
G36*
X113185529Y-128385710D02*
G01*
X113235378Y-128400831D01*
X113281310Y-128425382D01*
X113321574Y-128458426D01*
X113354618Y-128498690D01*
X113379169Y-128544622D01*
X113394290Y-128594471D01*
X113400000Y-128652444D01*
X113400000Y-129657556D01*
X113394290Y-129715529D01*
X113379169Y-129765378D01*
X113354618Y-129811310D01*
X113321574Y-129851574D01*
X113281310Y-129884618D01*
X113235378Y-129909169D01*
X113185529Y-129924290D01*
X113127556Y-129930000D01*
X111872444Y-129930000D01*
X111814471Y-129924290D01*
X111764622Y-129909169D01*
X111718690Y-129884618D01*
X111678426Y-129851574D01*
X111645382Y-129811310D01*
X111620831Y-129765378D01*
X111605710Y-129715529D01*
X111600000Y-129657556D01*
X111600000Y-128652444D01*
X111605710Y-128594471D01*
X111620831Y-128544622D01*
X111645382Y-128498690D01*
X111678426Y-128458426D01*
X111718690Y-128425382D01*
X111764622Y-128400831D01*
X111814471Y-128385710D01*
X111872444Y-128380000D01*
X113127556Y-128380000D01*
X113185529Y-128385710D01*
X113185529Y-128385710D01*
G37*
G36*
X172685529Y-128385710D02*
G01*
X172735378Y-128400831D01*
X172781310Y-128425382D01*
X172821574Y-128458426D01*
X172854618Y-128498690D01*
X172879169Y-128544622D01*
X172894290Y-128594471D01*
X172900000Y-128652444D01*
X172900000Y-129657556D01*
X172894290Y-129715529D01*
X172879169Y-129765378D01*
X172854618Y-129811310D01*
X172821574Y-129851574D01*
X172781310Y-129884618D01*
X172735378Y-129909169D01*
X172685529Y-129924290D01*
X172627556Y-129930000D01*
X171372444Y-129930000D01*
X171314471Y-129924290D01*
X171264622Y-129909169D01*
X171218690Y-129884618D01*
X171178426Y-129851574D01*
X171145382Y-129811310D01*
X171120831Y-129765378D01*
X171105710Y-129715529D01*
X171100000Y-129657556D01*
X171100000Y-128652444D01*
X171105710Y-128594471D01*
X171120831Y-128544622D01*
X171145382Y-128498690D01*
X171178426Y-128458426D01*
X171218690Y-128425382D01*
X171264622Y-128400831D01*
X171314471Y-128385710D01*
X171372444Y-128380000D01*
X172627556Y-128380000D01*
X172685529Y-128385710D01*
X172685529Y-128385710D01*
G37*
G36*
X153685529Y-128385710D02*
G01*
X153735378Y-128400831D01*
X153781310Y-128425382D01*
X153821574Y-128458426D01*
X153854618Y-128498690D01*
X153879169Y-128544622D01*
X153894290Y-128594471D01*
X153900000Y-128652444D01*
X153900000Y-129657556D01*
X153894290Y-129715529D01*
X153879169Y-129765378D01*
X153854618Y-129811310D01*
X153821574Y-129851574D01*
X153781310Y-129884618D01*
X153735378Y-129909169D01*
X153685529Y-129924290D01*
X153627556Y-129930000D01*
X152372444Y-129930000D01*
X152314471Y-129924290D01*
X152264622Y-129909169D01*
X152218690Y-129884618D01*
X152178426Y-129851574D01*
X152145382Y-129811310D01*
X152120831Y-129765378D01*
X152105710Y-129715529D01*
X152100000Y-129657556D01*
X152100000Y-128652444D01*
X152105710Y-128594471D01*
X152120831Y-128544622D01*
X152145382Y-128498690D01*
X152178426Y-128458426D01*
X152218690Y-128425382D01*
X152264622Y-128400831D01*
X152314471Y-128385710D01*
X152372444Y-128380000D01*
X153627556Y-128380000D01*
X153685529Y-128385710D01*
X153685529Y-128385710D01*
G37*
G36*
X108173499Y-128255997D02*
G01*
X108226147Y-128271968D01*
X108274668Y-128297902D01*
X108317195Y-128332805D01*
X108352098Y-128375332D01*
X108378032Y-128423853D01*
X108394003Y-128476501D01*
X108400000Y-128537390D01*
X108400000Y-129337610D01*
X108394003Y-129398499D01*
X108378032Y-129451147D01*
X108352098Y-129499668D01*
X108317195Y-129542195D01*
X108274668Y-129577098D01*
X108226147Y-129603032D01*
X108173499Y-129619003D01*
X108112610Y-129625000D01*
X106887390Y-129625000D01*
X106826501Y-129619003D01*
X106773853Y-129603032D01*
X106725332Y-129577098D01*
X106682805Y-129542195D01*
X106647902Y-129499668D01*
X106621968Y-129451147D01*
X106605997Y-129398499D01*
X106600000Y-129337610D01*
X106600000Y-128537390D01*
X106605997Y-128476501D01*
X106621968Y-128423853D01*
X106647902Y-128375332D01*
X106682805Y-128332805D01*
X106725332Y-128297902D01*
X106773853Y-128271968D01*
X106826501Y-128255997D01*
X106887390Y-128250000D01*
X108112610Y-128250000D01*
X108173499Y-128255997D01*
X108173499Y-128255997D01*
G37*
G36*
X149173499Y-128255997D02*
G01*
X149226147Y-128271968D01*
X149274668Y-128297902D01*
X149317195Y-128332805D01*
X149352098Y-128375332D01*
X149378032Y-128423853D01*
X149394003Y-128476501D01*
X149400000Y-128537390D01*
X149400000Y-129337610D01*
X149394003Y-129398499D01*
X149378032Y-129451147D01*
X149352098Y-129499668D01*
X149317195Y-129542195D01*
X149274668Y-129577098D01*
X149226147Y-129603032D01*
X149173499Y-129619003D01*
X149112610Y-129625000D01*
X147887390Y-129625000D01*
X147826501Y-129619003D01*
X147773853Y-129603032D01*
X147725332Y-129577098D01*
X147682805Y-129542195D01*
X147647902Y-129499668D01*
X147621968Y-129451147D01*
X147605997Y-129398499D01*
X147600000Y-129337610D01*
X147600000Y-128537390D01*
X147605997Y-128476501D01*
X147621968Y-128423853D01*
X147647902Y-128375332D01*
X147682805Y-128332805D01*
X147725332Y-128297902D01*
X147773853Y-128271968D01*
X147826501Y-128255997D01*
X147887390Y-128250000D01*
X149112610Y-128250000D01*
X149173499Y-128255997D01*
X149173499Y-128255997D01*
G37*
G36*
X168173499Y-128255997D02*
G01*
X168226147Y-128271968D01*
X168274668Y-128297902D01*
X168317195Y-128332805D01*
X168352098Y-128375332D01*
X168378032Y-128423853D01*
X168394003Y-128476501D01*
X168400000Y-128537390D01*
X168400000Y-129337610D01*
X168394003Y-129398499D01*
X168378032Y-129451147D01*
X168352098Y-129499668D01*
X168317195Y-129542195D01*
X168274668Y-129577098D01*
X168226147Y-129603032D01*
X168173499Y-129619003D01*
X168112610Y-129625000D01*
X166887390Y-129625000D01*
X166826501Y-129619003D01*
X166773853Y-129603032D01*
X166725332Y-129577098D01*
X166682805Y-129542195D01*
X166647902Y-129499668D01*
X166621968Y-129451147D01*
X166605997Y-129398499D01*
X166600000Y-129337610D01*
X166600000Y-128537390D01*
X166605997Y-128476501D01*
X166621968Y-128423853D01*
X166647902Y-128375332D01*
X166682805Y-128332805D01*
X166725332Y-128297902D01*
X166773853Y-128271968D01*
X166826501Y-128255997D01*
X166887390Y-128250000D01*
X168112610Y-128250000D01*
X168173499Y-128255997D01*
X168173499Y-128255997D01*
G37*
G36*
X176628707Y-126497596D02*
G01*
X176705836Y-126505193D01*
X176903762Y-126565233D01*
X176903765Y-126565234D01*
X177086170Y-126662732D01*
X177246055Y-126793945D01*
X177377268Y-126953830D01*
X177474766Y-127136235D01*
X177474767Y-127136238D01*
X177534807Y-127334164D01*
X177555080Y-127540000D01*
X177534807Y-127745836D01*
X177517899Y-127801574D01*
X177474766Y-127943765D01*
X177377268Y-128126170D01*
X177246055Y-128286055D01*
X177086170Y-128417268D01*
X176903765Y-128514766D01*
X176903762Y-128514767D01*
X176705836Y-128574807D01*
X176628707Y-128582404D01*
X176551580Y-128590000D01*
X176448420Y-128590000D01*
X176371293Y-128582404D01*
X176294164Y-128574807D01*
X176096238Y-128514767D01*
X176096235Y-128514766D01*
X175913830Y-128417268D01*
X175753945Y-128286055D01*
X175622732Y-128126170D01*
X175525234Y-127943765D01*
X175482101Y-127801574D01*
X175465193Y-127745836D01*
X175444920Y-127540000D01*
X175465193Y-127334164D01*
X175525233Y-127136238D01*
X175525234Y-127136235D01*
X175622732Y-126953830D01*
X175753945Y-126793945D01*
X175913830Y-126662732D01*
X176096235Y-126565234D01*
X176096238Y-126565233D01*
X176294164Y-126505193D01*
X176371293Y-126497596D01*
X176448420Y-126490000D01*
X176551580Y-126490000D01*
X176628707Y-126497596D01*
X176628707Y-126497596D01*
G37*
G36*
X172685529Y-126335710D02*
G01*
X172735378Y-126350831D01*
X172781310Y-126375382D01*
X172821574Y-126408426D01*
X172854618Y-126448690D01*
X172879169Y-126494622D01*
X172894290Y-126544471D01*
X172900000Y-126602444D01*
X172900000Y-127607556D01*
X172894290Y-127665529D01*
X172879169Y-127715378D01*
X172854618Y-127761310D01*
X172821574Y-127801574D01*
X172781310Y-127834618D01*
X172735378Y-127859169D01*
X172685529Y-127874290D01*
X172627556Y-127880000D01*
X171372444Y-127880000D01*
X171314471Y-127874290D01*
X171264622Y-127859169D01*
X171218690Y-127834618D01*
X171178426Y-127801574D01*
X171145382Y-127761310D01*
X171120831Y-127715378D01*
X171105710Y-127665529D01*
X171100000Y-127607556D01*
X171100000Y-126602444D01*
X171105710Y-126544471D01*
X171120831Y-126494622D01*
X171145382Y-126448690D01*
X171178426Y-126408426D01*
X171218690Y-126375382D01*
X171264622Y-126350831D01*
X171314471Y-126335710D01*
X171372444Y-126330000D01*
X172627556Y-126330000D01*
X172685529Y-126335710D01*
X172685529Y-126335710D01*
G37*
G36*
X113185529Y-126335710D02*
G01*
X113235378Y-126350831D01*
X113281310Y-126375382D01*
X113321574Y-126408426D01*
X113354618Y-126448690D01*
X113379169Y-126494622D01*
X113394290Y-126544471D01*
X113400000Y-126602444D01*
X113400000Y-127607556D01*
X113394290Y-127665529D01*
X113379169Y-127715378D01*
X113354618Y-127761310D01*
X113321574Y-127801574D01*
X113281310Y-127834618D01*
X113235378Y-127859169D01*
X113185529Y-127874290D01*
X113127556Y-127880000D01*
X111872444Y-127880000D01*
X111814471Y-127874290D01*
X111764622Y-127859169D01*
X111718690Y-127834618D01*
X111678426Y-127801574D01*
X111645382Y-127761310D01*
X111620831Y-127715378D01*
X111605710Y-127665529D01*
X111600000Y-127607556D01*
X111600000Y-126602444D01*
X111605710Y-126544471D01*
X111620831Y-126494622D01*
X111645382Y-126448690D01*
X111678426Y-126408426D01*
X111718690Y-126375382D01*
X111764622Y-126350831D01*
X111814471Y-126335710D01*
X111872444Y-126330000D01*
X113127556Y-126330000D01*
X113185529Y-126335710D01*
X113185529Y-126335710D01*
G37*
G36*
X153685529Y-126335710D02*
G01*
X153735378Y-126350831D01*
X153781310Y-126375382D01*
X153821574Y-126408426D01*
X153854618Y-126448690D01*
X153879169Y-126494622D01*
X153894290Y-126544471D01*
X153900000Y-126602444D01*
X153900000Y-127607556D01*
X153894290Y-127665529D01*
X153879169Y-127715378D01*
X153854618Y-127761310D01*
X153821574Y-127801574D01*
X153781310Y-127834618D01*
X153735378Y-127859169D01*
X153685529Y-127874290D01*
X153627556Y-127880000D01*
X152372444Y-127880000D01*
X152314471Y-127874290D01*
X152264622Y-127859169D01*
X152218690Y-127834618D01*
X152178426Y-127801574D01*
X152145382Y-127761310D01*
X152120831Y-127715378D01*
X152105710Y-127665529D01*
X152100000Y-127607556D01*
X152100000Y-126602444D01*
X152105710Y-126544471D01*
X152120831Y-126494622D01*
X152145382Y-126448690D01*
X152178426Y-126408426D01*
X152218690Y-126375382D01*
X152264622Y-126350831D01*
X152314471Y-126335710D01*
X152372444Y-126330000D01*
X153627556Y-126330000D01*
X153685529Y-126335710D01*
X153685529Y-126335710D01*
G37*
G36*
X149173499Y-126380997D02*
G01*
X149226147Y-126396968D01*
X149274668Y-126422902D01*
X149317195Y-126457805D01*
X149352098Y-126500332D01*
X149378032Y-126548853D01*
X149394003Y-126601501D01*
X149400000Y-126662390D01*
X149400000Y-127462610D01*
X149394003Y-127523499D01*
X149378032Y-127576147D01*
X149352098Y-127624668D01*
X149317195Y-127667195D01*
X149274668Y-127702098D01*
X149226147Y-127728032D01*
X149173499Y-127744003D01*
X149112610Y-127750000D01*
X147887390Y-127750000D01*
X147826501Y-127744003D01*
X147773853Y-127728032D01*
X147725332Y-127702098D01*
X147682805Y-127667195D01*
X147647902Y-127624668D01*
X147621968Y-127576147D01*
X147605997Y-127523499D01*
X147600000Y-127462610D01*
X147600000Y-126662390D01*
X147605997Y-126601501D01*
X147621968Y-126548853D01*
X147647902Y-126500332D01*
X147682805Y-126457805D01*
X147725332Y-126422902D01*
X147773853Y-126396968D01*
X147826501Y-126380997D01*
X147887390Y-126375000D01*
X149112610Y-126375000D01*
X149173499Y-126380997D01*
X149173499Y-126380997D01*
G37*
G36*
X168173499Y-126380997D02*
G01*
X168226147Y-126396968D01*
X168274668Y-126422902D01*
X168317195Y-126457805D01*
X168352098Y-126500332D01*
X168378032Y-126548853D01*
X168394003Y-126601501D01*
X168400000Y-126662390D01*
X168400000Y-127462610D01*
X168394003Y-127523499D01*
X168378032Y-127576147D01*
X168352098Y-127624668D01*
X168317195Y-127667195D01*
X168274668Y-127702098D01*
X168226147Y-127728032D01*
X168173499Y-127744003D01*
X168112610Y-127750000D01*
X166887390Y-127750000D01*
X166826501Y-127744003D01*
X166773853Y-127728032D01*
X166725332Y-127702098D01*
X166682805Y-127667195D01*
X166647902Y-127624668D01*
X166621968Y-127576147D01*
X166605997Y-127523499D01*
X166600000Y-127462610D01*
X166600000Y-126662390D01*
X166605997Y-126601501D01*
X166621968Y-126548853D01*
X166647902Y-126500332D01*
X166682805Y-126457805D01*
X166725332Y-126422902D01*
X166773853Y-126396968D01*
X166826501Y-126380997D01*
X166887390Y-126375000D01*
X168112610Y-126375000D01*
X168173499Y-126380997D01*
X168173499Y-126380997D01*
G37*
G36*
X108173499Y-126380997D02*
G01*
X108226147Y-126396968D01*
X108274668Y-126422902D01*
X108317195Y-126457805D01*
X108352098Y-126500332D01*
X108378032Y-126548853D01*
X108394003Y-126601501D01*
X108400000Y-126662390D01*
X108400000Y-127462610D01*
X108394003Y-127523499D01*
X108378032Y-127576147D01*
X108352098Y-127624668D01*
X108317195Y-127667195D01*
X108274668Y-127702098D01*
X108226147Y-127728032D01*
X108173499Y-127744003D01*
X108112610Y-127750000D01*
X106887390Y-127750000D01*
X106826501Y-127744003D01*
X106773853Y-127728032D01*
X106725332Y-127702098D01*
X106682805Y-127667195D01*
X106647902Y-127624668D01*
X106621968Y-127576147D01*
X106605997Y-127523499D01*
X106600000Y-127462610D01*
X106600000Y-126662390D01*
X106605997Y-126601501D01*
X106621968Y-126548853D01*
X106647902Y-126500332D01*
X106682805Y-126457805D01*
X106725332Y-126422902D01*
X106773853Y-126396968D01*
X106826501Y-126380997D01*
X106887390Y-126375000D01*
X108112610Y-126375000D01*
X108173499Y-126380997D01*
X108173499Y-126380997D01*
G37*
G36*
X177550000Y-126050000D02*
G01*
X175450000Y-126050000D01*
X175450000Y-123950000D01*
X177550000Y-123950000D01*
X177550000Y-126050000D01*
X177550000Y-126050000D01*
G37*
G36*
X122382481Y-124067686D02*
G01*
X122427205Y-124081254D01*
X122468430Y-124103289D01*
X122504561Y-124132939D01*
X122534211Y-124169070D01*
X122556246Y-124210295D01*
X122569814Y-124255019D01*
X122575000Y-124307676D01*
X122575000Y-125642324D01*
X122569814Y-125694981D01*
X122556246Y-125739705D01*
X122534211Y-125780930D01*
X122504561Y-125817061D01*
X122468430Y-125846711D01*
X122427205Y-125868746D01*
X122382481Y-125882314D01*
X122329824Y-125887500D01*
X120670176Y-125887500D01*
X120617519Y-125882314D01*
X120572795Y-125868746D01*
X120531570Y-125846711D01*
X120495439Y-125817061D01*
X120465789Y-125780930D01*
X120443754Y-125739705D01*
X120430186Y-125694981D01*
X120425000Y-125642324D01*
X120425000Y-124307676D01*
X120430186Y-124255019D01*
X120443754Y-124210295D01*
X120465789Y-124169070D01*
X120495439Y-124132939D01*
X120531570Y-124103289D01*
X120572795Y-124081254D01*
X120617519Y-124067686D01*
X120670176Y-124062500D01*
X122329824Y-124062500D01*
X122382481Y-124067686D01*
X122382481Y-124067686D01*
G37*
G36*
X117685529Y-124255710D02*
G01*
X117735378Y-124270831D01*
X117781310Y-124295382D01*
X117821574Y-124328426D01*
X117854618Y-124368690D01*
X117879169Y-124414622D01*
X117894290Y-124464471D01*
X117900000Y-124522444D01*
X117900000Y-125527556D01*
X117894290Y-125585529D01*
X117879169Y-125635378D01*
X117854618Y-125681310D01*
X117821574Y-125721574D01*
X117781310Y-125754618D01*
X117735378Y-125779169D01*
X117685529Y-125794290D01*
X117627556Y-125800000D01*
X116372444Y-125800000D01*
X116314471Y-125794290D01*
X116264622Y-125779169D01*
X116218690Y-125754618D01*
X116178426Y-125721574D01*
X116145382Y-125681310D01*
X116120831Y-125635378D01*
X116105710Y-125585529D01*
X116100000Y-125527556D01*
X116100000Y-124522444D01*
X116105710Y-124464471D01*
X116120831Y-124414622D01*
X116145382Y-124368690D01*
X116178426Y-124328426D01*
X116218690Y-124295382D01*
X116264622Y-124270831D01*
X116314471Y-124255710D01*
X116372444Y-124250000D01*
X117627556Y-124250000D01*
X117685529Y-124255710D01*
X117685529Y-124255710D01*
G37*
G36*
X117685529Y-122205710D02*
G01*
X117735378Y-122220831D01*
X117781310Y-122245382D01*
X117821574Y-122278426D01*
X117854618Y-122318690D01*
X117879169Y-122364622D01*
X117894290Y-122414471D01*
X117900000Y-122472444D01*
X117900000Y-123477556D01*
X117894290Y-123535529D01*
X117879169Y-123585378D01*
X117854618Y-123631310D01*
X117821574Y-123671574D01*
X117781310Y-123704618D01*
X117735378Y-123729169D01*
X117685529Y-123744290D01*
X117627556Y-123750000D01*
X116372444Y-123750000D01*
X116314471Y-123744290D01*
X116264622Y-123729169D01*
X116218690Y-123704618D01*
X116178426Y-123671574D01*
X116145382Y-123631310D01*
X116120831Y-123585378D01*
X116105710Y-123535529D01*
X116100000Y-123477556D01*
X116100000Y-122472444D01*
X116105710Y-122414471D01*
X116120831Y-122364622D01*
X116145382Y-122318690D01*
X116178426Y-122278426D01*
X116218690Y-122245382D01*
X116264622Y-122220831D01*
X116314471Y-122205710D01*
X116372444Y-122200000D01*
X117627556Y-122200000D01*
X117685529Y-122205710D01*
X117685529Y-122205710D01*
G37*
G36*
X122382481Y-121092686D02*
G01*
X122427205Y-121106254D01*
X122468430Y-121128289D01*
X122504561Y-121157939D01*
X122534211Y-121194070D01*
X122556246Y-121235295D01*
X122569814Y-121280019D01*
X122575000Y-121332676D01*
X122575000Y-122667324D01*
X122569814Y-122719981D01*
X122556246Y-122764705D01*
X122534211Y-122805930D01*
X122504561Y-122842061D01*
X122468430Y-122871711D01*
X122427205Y-122893746D01*
X122382481Y-122907314D01*
X122329824Y-122912500D01*
X120670176Y-122912500D01*
X120617519Y-122907314D01*
X120572795Y-122893746D01*
X120531570Y-122871711D01*
X120495439Y-122842061D01*
X120465789Y-122805930D01*
X120443754Y-122764705D01*
X120430186Y-122719981D01*
X120425000Y-122667324D01*
X120425000Y-121332676D01*
X120430186Y-121280019D01*
X120443754Y-121235295D01*
X120465789Y-121194070D01*
X120495439Y-121157939D01*
X120531570Y-121128289D01*
X120572795Y-121106254D01*
X120617519Y-121092686D01*
X120670176Y-121087500D01*
X122329824Y-121087500D01*
X122382481Y-121092686D01*
X122382481Y-121092686D01*
G37*
G36*
X113855001Y-122880000D02*
G01*
X111455001Y-122880000D01*
X111455001Y-121930000D01*
X113855001Y-121930000D01*
X113855001Y-122880000D01*
X113855001Y-122880000D01*
G37*
G36*
X107255001Y-122880000D02*
G01*
X104855001Y-122880000D01*
X104855001Y-121930000D01*
X107255001Y-121930000D01*
X107255001Y-122880000D01*
X107255001Y-122880000D01*
G37*
G36*
X117685529Y-120255710D02*
G01*
X117735378Y-120270831D01*
X117781310Y-120295382D01*
X117821574Y-120328426D01*
X117854618Y-120368690D01*
X117879169Y-120414622D01*
X117894290Y-120464471D01*
X117900000Y-120522444D01*
X117900000Y-121527556D01*
X117894290Y-121585529D01*
X117879169Y-121635378D01*
X117854618Y-121681310D01*
X117821574Y-121721574D01*
X117781310Y-121754618D01*
X117735378Y-121779169D01*
X117685529Y-121794290D01*
X117627556Y-121800000D01*
X116372444Y-121800000D01*
X116314471Y-121794290D01*
X116264622Y-121779169D01*
X116218690Y-121754618D01*
X116178426Y-121721574D01*
X116145382Y-121681310D01*
X116120831Y-121635378D01*
X116105710Y-121585529D01*
X116100000Y-121527556D01*
X116100000Y-120522444D01*
X116105710Y-120464471D01*
X116120831Y-120414622D01*
X116145382Y-120368690D01*
X116178426Y-120328426D01*
X116218690Y-120295382D01*
X116264622Y-120270831D01*
X116314471Y-120255710D01*
X116372444Y-120250000D01*
X117627556Y-120250000D01*
X117685529Y-120255710D01*
X117685529Y-120255710D01*
G37*
G36*
X113855001Y-121610000D02*
G01*
X111455001Y-121610000D01*
X111455001Y-120660000D01*
X113855001Y-120660000D01*
X113855001Y-121610000D01*
X113855001Y-121610000D01*
G37*
G36*
X107255001Y-121610000D02*
G01*
X104855001Y-121610000D01*
X104855001Y-120660000D01*
X107255001Y-120660000D01*
X107255001Y-121610000D01*
X107255001Y-121610000D01*
G37*
G36*
X169185529Y-119755710D02*
G01*
X169235378Y-119770831D01*
X169281310Y-119795382D01*
X169321574Y-119828426D01*
X169354618Y-119868690D01*
X169379169Y-119914622D01*
X169394290Y-119964471D01*
X169400000Y-120022444D01*
X169400000Y-121027556D01*
X169394290Y-121085529D01*
X169379169Y-121135378D01*
X169354618Y-121181310D01*
X169321574Y-121221574D01*
X169281310Y-121254618D01*
X169235378Y-121279169D01*
X169185529Y-121294290D01*
X169127556Y-121300000D01*
X167872444Y-121300000D01*
X167814471Y-121294290D01*
X167764622Y-121279169D01*
X167718690Y-121254618D01*
X167678426Y-121221574D01*
X167645382Y-121181310D01*
X167620831Y-121135378D01*
X167605710Y-121085529D01*
X167600000Y-121027556D01*
X167600000Y-120022444D01*
X167605710Y-119964471D01*
X167620831Y-119914622D01*
X167645382Y-119868690D01*
X167678426Y-119828426D01*
X167718690Y-119795382D01*
X167764622Y-119770831D01*
X167814471Y-119755710D01*
X167872444Y-119750000D01*
X169127556Y-119750000D01*
X169185529Y-119755710D01*
X169185529Y-119755710D01*
G37*
G36*
X104110529Y-119105710D02*
G01*
X104160378Y-119120831D01*
X104206310Y-119145382D01*
X104246574Y-119178426D01*
X104279618Y-119218690D01*
X104304169Y-119264622D01*
X104319290Y-119314471D01*
X104325000Y-119372444D01*
X104325000Y-120627556D01*
X104319290Y-120685529D01*
X104304169Y-120735378D01*
X104279618Y-120781310D01*
X104246574Y-120821574D01*
X104206310Y-120854618D01*
X104160378Y-120879169D01*
X104110529Y-120894290D01*
X104052556Y-120900000D01*
X103047444Y-120900000D01*
X102989471Y-120894290D01*
X102939622Y-120879169D01*
X102893690Y-120854618D01*
X102853426Y-120821574D01*
X102820382Y-120781310D01*
X102795831Y-120735378D01*
X102780710Y-120685529D01*
X102775000Y-120627556D01*
X102775000Y-119372444D01*
X102780710Y-119314471D01*
X102795831Y-119264622D01*
X102820382Y-119218690D01*
X102853426Y-119178426D01*
X102893690Y-119145382D01*
X102939622Y-119120831D01*
X102989471Y-119105710D01*
X103047444Y-119100000D01*
X104052556Y-119100000D01*
X104110529Y-119105710D01*
X104110529Y-119105710D01*
G37*
G36*
X102060529Y-119105710D02*
G01*
X102110378Y-119120831D01*
X102156310Y-119145382D01*
X102196574Y-119178426D01*
X102229618Y-119218690D01*
X102254169Y-119264622D01*
X102269290Y-119314471D01*
X102275000Y-119372444D01*
X102275000Y-120627556D01*
X102269290Y-120685529D01*
X102254169Y-120735378D01*
X102229618Y-120781310D01*
X102196574Y-120821574D01*
X102156310Y-120854618D01*
X102110378Y-120879169D01*
X102060529Y-120894290D01*
X102002556Y-120900000D01*
X100997444Y-120900000D01*
X100939471Y-120894290D01*
X100889622Y-120879169D01*
X100843690Y-120854618D01*
X100803426Y-120821574D01*
X100770382Y-120781310D01*
X100745831Y-120735378D01*
X100730710Y-120685529D01*
X100725000Y-120627556D01*
X100725000Y-119372444D01*
X100730710Y-119314471D01*
X100745831Y-119264622D01*
X100770382Y-119218690D01*
X100803426Y-119178426D01*
X100843690Y-119145382D01*
X100889622Y-119120831D01*
X100939471Y-119105710D01*
X100997444Y-119100000D01*
X102002556Y-119100000D01*
X102060529Y-119105710D01*
X102060529Y-119105710D01*
G37*
G36*
X113855001Y-120340000D02*
G01*
X111455001Y-120340000D01*
X111455001Y-119390000D01*
X113855001Y-119390000D01*
X113855001Y-120340000D01*
X113855001Y-120340000D01*
G37*
G36*
X107255001Y-120340000D02*
G01*
X104855001Y-120340000D01*
X104855001Y-119390000D01*
X107255001Y-119390000D01*
X107255001Y-120340000D01*
X107255001Y-120340000D01*
G37*
G36*
X117685529Y-118205710D02*
G01*
X117735378Y-118220831D01*
X117781310Y-118245382D01*
X117821574Y-118278426D01*
X117854618Y-118318690D01*
X117879169Y-118364622D01*
X117894290Y-118414471D01*
X117900000Y-118472444D01*
X117900000Y-119477556D01*
X117894290Y-119535529D01*
X117879169Y-119585378D01*
X117854618Y-119631310D01*
X117821574Y-119671574D01*
X117781310Y-119704618D01*
X117735378Y-119729169D01*
X117685529Y-119744290D01*
X117627556Y-119750000D01*
X116372444Y-119750000D01*
X116314471Y-119744290D01*
X116264622Y-119729169D01*
X116218690Y-119704618D01*
X116178426Y-119671574D01*
X116145382Y-119631310D01*
X116120831Y-119585378D01*
X116105710Y-119535529D01*
X116100000Y-119477556D01*
X116100000Y-118472444D01*
X116105710Y-118414471D01*
X116120831Y-118364622D01*
X116145382Y-118318690D01*
X116178426Y-118278426D01*
X116218690Y-118245382D01*
X116264622Y-118220831D01*
X116314471Y-118205710D01*
X116372444Y-118200000D01*
X117627556Y-118200000D01*
X117685529Y-118205710D01*
X117685529Y-118205710D01*
G37*
G36*
X169185529Y-117705710D02*
G01*
X169235378Y-117720831D01*
X169281310Y-117745382D01*
X169321574Y-117778426D01*
X169354618Y-117818690D01*
X169379169Y-117864622D01*
X169394290Y-117914471D01*
X169400000Y-117972444D01*
X169400000Y-118977556D01*
X169394290Y-119035529D01*
X169379169Y-119085378D01*
X169354618Y-119131310D01*
X169321574Y-119171574D01*
X169281310Y-119204618D01*
X169235378Y-119229169D01*
X169185529Y-119244290D01*
X169127556Y-119250000D01*
X167872444Y-119250000D01*
X167814471Y-119244290D01*
X167764622Y-119229169D01*
X167718690Y-119204618D01*
X167678426Y-119171574D01*
X167645382Y-119131310D01*
X167620831Y-119085378D01*
X167605710Y-119035529D01*
X167600000Y-118977556D01*
X167600000Y-117972444D01*
X167605710Y-117914471D01*
X167620831Y-117864622D01*
X167645382Y-117818690D01*
X167678426Y-117778426D01*
X167718690Y-117745382D01*
X167764622Y-117720831D01*
X167814471Y-117705710D01*
X167872444Y-117700000D01*
X169127556Y-117700000D01*
X169185529Y-117705710D01*
X169185529Y-117705710D01*
G37*
G36*
X113855001Y-119070000D02*
G01*
X111455001Y-119070000D01*
X111455001Y-118120000D01*
X113855001Y-118120000D01*
X113855001Y-119070000D01*
X113855001Y-119070000D01*
G37*
G36*
X107255001Y-119070000D02*
G01*
X104855001Y-119070000D01*
X104855001Y-118120000D01*
X107255001Y-118120000D01*
X107255001Y-119070000D01*
X107255001Y-119070000D01*
G37*
G36*
X126035529Y-117105710D02*
G01*
X126085378Y-117120831D01*
X126131310Y-117145382D01*
X126171574Y-117178426D01*
X126204618Y-117218690D01*
X126229169Y-117264622D01*
X126244290Y-117314471D01*
X126250000Y-117372444D01*
X126250000Y-118627556D01*
X126244290Y-118685529D01*
X126229169Y-118735378D01*
X126204618Y-118781310D01*
X126171574Y-118821574D01*
X126131310Y-118854618D01*
X126085378Y-118879169D01*
X126035529Y-118894290D01*
X125977556Y-118900000D01*
X124972444Y-118900000D01*
X124914471Y-118894290D01*
X124864622Y-118879169D01*
X124818690Y-118854618D01*
X124778426Y-118821574D01*
X124745382Y-118781310D01*
X124720831Y-118735378D01*
X124705710Y-118685529D01*
X124700000Y-118627556D01*
X124700000Y-117372444D01*
X124705710Y-117314471D01*
X124720831Y-117264622D01*
X124745382Y-117218690D01*
X124778426Y-117178426D01*
X124818690Y-117145382D01*
X124864622Y-117120831D01*
X124914471Y-117105710D01*
X124972444Y-117100000D01*
X125977556Y-117100000D01*
X126035529Y-117105710D01*
X126035529Y-117105710D01*
G37*
G36*
X128085529Y-117105710D02*
G01*
X128135378Y-117120831D01*
X128181310Y-117145382D01*
X128221574Y-117178426D01*
X128254618Y-117218690D01*
X128279169Y-117264622D01*
X128294290Y-117314471D01*
X128300000Y-117372444D01*
X128300000Y-118627556D01*
X128294290Y-118685529D01*
X128279169Y-118735378D01*
X128254618Y-118781310D01*
X128221574Y-118821574D01*
X128181310Y-118854618D01*
X128135378Y-118879169D01*
X128085529Y-118894290D01*
X128027556Y-118900000D01*
X127022444Y-118900000D01*
X126964471Y-118894290D01*
X126914622Y-118879169D01*
X126868690Y-118854618D01*
X126828426Y-118821574D01*
X126795382Y-118781310D01*
X126770831Y-118735378D01*
X126755710Y-118685529D01*
X126750000Y-118627556D01*
X126750000Y-117372444D01*
X126755710Y-117314471D01*
X126770831Y-117264622D01*
X126795382Y-117218690D01*
X126828426Y-117178426D01*
X126868690Y-117145382D01*
X126914622Y-117120831D01*
X126964471Y-117105710D01*
X127022444Y-117100000D01*
X128027556Y-117100000D01*
X128085529Y-117105710D01*
X128085529Y-117105710D01*
G37*
G36*
X132085529Y-117105710D02*
G01*
X132135378Y-117120831D01*
X132181310Y-117145382D01*
X132221574Y-117178426D01*
X132254618Y-117218690D01*
X132279169Y-117264622D01*
X132294290Y-117314471D01*
X132300000Y-117372444D01*
X132300000Y-118627556D01*
X132294290Y-118685529D01*
X132279169Y-118735378D01*
X132254618Y-118781310D01*
X132221574Y-118821574D01*
X132181310Y-118854618D01*
X132135378Y-118879169D01*
X132085529Y-118894290D01*
X132027556Y-118900000D01*
X131022444Y-118900000D01*
X130964471Y-118894290D01*
X130914622Y-118879169D01*
X130868690Y-118854618D01*
X130828426Y-118821574D01*
X130795382Y-118781310D01*
X130770831Y-118735378D01*
X130755710Y-118685529D01*
X130750000Y-118627556D01*
X130750000Y-117372444D01*
X130755710Y-117314471D01*
X130770831Y-117264622D01*
X130795382Y-117218690D01*
X130828426Y-117178426D01*
X130868690Y-117145382D01*
X130914622Y-117120831D01*
X130964471Y-117105710D01*
X131022444Y-117100000D01*
X132027556Y-117100000D01*
X132085529Y-117105710D01*
X132085529Y-117105710D01*
G37*
G36*
X130035529Y-117105710D02*
G01*
X130085378Y-117120831D01*
X130131310Y-117145382D01*
X130171574Y-117178426D01*
X130204618Y-117218690D01*
X130229169Y-117264622D01*
X130244290Y-117314471D01*
X130250000Y-117372444D01*
X130250000Y-118627556D01*
X130244290Y-118685529D01*
X130229169Y-118735378D01*
X130204618Y-118781310D01*
X130171574Y-118821574D01*
X130131310Y-118854618D01*
X130085378Y-118879169D01*
X130035529Y-118894290D01*
X129977556Y-118900000D01*
X128972444Y-118900000D01*
X128914471Y-118894290D01*
X128864622Y-118879169D01*
X128818690Y-118854618D01*
X128778426Y-118821574D01*
X128745382Y-118781310D01*
X128720831Y-118735378D01*
X128705710Y-118685529D01*
X128700000Y-118627556D01*
X128700000Y-117372444D01*
X128705710Y-117314471D01*
X128720831Y-117264622D01*
X128745382Y-117218690D01*
X128778426Y-117178426D01*
X128818690Y-117145382D01*
X128864622Y-117120831D01*
X128914471Y-117105710D01*
X128972444Y-117100000D01*
X129977556Y-117100000D01*
X130035529Y-117105710D01*
X130035529Y-117105710D01*
G37*
G36*
X169185529Y-115755710D02*
G01*
X169235378Y-115770831D01*
X169281310Y-115795382D01*
X169321574Y-115828426D01*
X169354618Y-115868690D01*
X169379169Y-115914622D01*
X169394290Y-115964471D01*
X169400000Y-116022444D01*
X169400000Y-117027556D01*
X169394290Y-117085529D01*
X169379169Y-117135378D01*
X169354618Y-117181310D01*
X169321574Y-117221574D01*
X169281310Y-117254618D01*
X169235378Y-117279169D01*
X169185529Y-117294290D01*
X169127556Y-117300000D01*
X167872444Y-117300000D01*
X167814471Y-117294290D01*
X167764622Y-117279169D01*
X167718690Y-117254618D01*
X167678426Y-117221574D01*
X167645382Y-117181310D01*
X167620831Y-117135378D01*
X167605710Y-117085529D01*
X167600000Y-117027556D01*
X167600000Y-116022444D01*
X167605710Y-115964471D01*
X167620831Y-115914622D01*
X167645382Y-115868690D01*
X167678426Y-115828426D01*
X167718690Y-115795382D01*
X167764622Y-115770831D01*
X167814471Y-115755710D01*
X167872444Y-115750000D01*
X169127556Y-115750000D01*
X169185529Y-115755710D01*
X169185529Y-115755710D01*
G37*
G36*
X154185529Y-115730710D02*
G01*
X154235378Y-115745831D01*
X154281310Y-115770382D01*
X154321574Y-115803426D01*
X154354618Y-115843690D01*
X154379169Y-115889622D01*
X154394290Y-115939471D01*
X154400000Y-115997444D01*
X154400000Y-117002556D01*
X154394290Y-117060529D01*
X154379169Y-117110378D01*
X154354618Y-117156310D01*
X154321574Y-117196574D01*
X154281310Y-117229618D01*
X154235378Y-117254169D01*
X154185529Y-117269290D01*
X154127556Y-117275000D01*
X152872444Y-117275000D01*
X152814471Y-117269290D01*
X152764622Y-117254169D01*
X152718690Y-117229618D01*
X152678426Y-117196574D01*
X152645382Y-117156310D01*
X152620831Y-117110378D01*
X152605710Y-117060529D01*
X152600000Y-117002556D01*
X152600000Y-115997444D01*
X152605710Y-115939471D01*
X152620831Y-115889622D01*
X152645382Y-115843690D01*
X152678426Y-115803426D01*
X152718690Y-115770382D01*
X152764622Y-115745831D01*
X152814471Y-115730710D01*
X152872444Y-115725000D01*
X154127556Y-115725000D01*
X154185529Y-115730710D01*
X154185529Y-115730710D01*
G37*
G36*
X112035529Y-114605710D02*
G01*
X112085378Y-114620831D01*
X112131310Y-114645382D01*
X112171574Y-114678426D01*
X112204618Y-114718690D01*
X112229169Y-114764622D01*
X112244290Y-114814471D01*
X112250000Y-114872444D01*
X112250000Y-116127556D01*
X112244290Y-116185529D01*
X112229169Y-116235378D01*
X112204618Y-116281310D01*
X112171574Y-116321574D01*
X112131310Y-116354618D01*
X112085378Y-116379169D01*
X112035529Y-116394290D01*
X111977556Y-116400000D01*
X110972444Y-116400000D01*
X110914471Y-116394290D01*
X110864622Y-116379169D01*
X110818690Y-116354618D01*
X110778426Y-116321574D01*
X110745382Y-116281310D01*
X110720831Y-116235378D01*
X110705710Y-116185529D01*
X110700000Y-116127556D01*
X110700000Y-114872444D01*
X110705710Y-114814471D01*
X110720831Y-114764622D01*
X110745382Y-114718690D01*
X110778426Y-114678426D01*
X110818690Y-114645382D01*
X110864622Y-114620831D01*
X110914471Y-114605710D01*
X110972444Y-114600000D01*
X111977556Y-114600000D01*
X112035529Y-114605710D01*
X112035529Y-114605710D01*
G37*
G36*
X114085529Y-114605710D02*
G01*
X114135378Y-114620831D01*
X114181310Y-114645382D01*
X114221574Y-114678426D01*
X114254618Y-114718690D01*
X114279169Y-114764622D01*
X114294290Y-114814471D01*
X114300000Y-114872444D01*
X114300000Y-116127556D01*
X114294290Y-116185529D01*
X114279169Y-116235378D01*
X114254618Y-116281310D01*
X114221574Y-116321574D01*
X114181310Y-116354618D01*
X114135378Y-116379169D01*
X114085529Y-116394290D01*
X114027556Y-116400000D01*
X113022444Y-116400000D01*
X112964471Y-116394290D01*
X112914622Y-116379169D01*
X112868690Y-116354618D01*
X112828426Y-116321574D01*
X112795382Y-116281310D01*
X112770831Y-116235378D01*
X112755710Y-116185529D01*
X112750000Y-116127556D01*
X112750000Y-114872444D01*
X112755710Y-114814471D01*
X112770831Y-114764622D01*
X112795382Y-114718690D01*
X112828426Y-114678426D01*
X112868690Y-114645382D01*
X112914622Y-114620831D01*
X112964471Y-114605710D01*
X113022444Y-114600000D01*
X114027556Y-114600000D01*
X114085529Y-114605710D01*
X114085529Y-114605710D01*
G37*
G36*
X176313600Y-116063600D02*
G01*
X174186400Y-116063600D01*
X174186400Y-113936400D01*
X176313600Y-113936400D01*
X176313600Y-116063600D01*
X176313600Y-116063600D01*
G37*
G36*
X172918500Y-113951789D02*
G01*
X173118994Y-114012608D01*
X173303759Y-114111367D01*
X173303762Y-114111369D01*
X173303763Y-114111370D01*
X173465718Y-114244282D01*
X173598630Y-114406237D01*
X173598633Y-114406241D01*
X173697392Y-114591006D01*
X173697393Y-114591009D01*
X173706439Y-114620831D01*
X173758211Y-114791500D01*
X173778746Y-115000000D01*
X173758211Y-115208500D01*
X173697392Y-115408994D01*
X173598633Y-115593759D01*
X173598631Y-115593762D01*
X173598630Y-115593763D01*
X173465718Y-115755718D01*
X173328060Y-115868690D01*
X173303759Y-115888633D01*
X173118994Y-115987392D01*
X172918500Y-116048211D01*
X172762251Y-116063600D01*
X172657749Y-116063600D01*
X172501500Y-116048211D01*
X172301006Y-115987392D01*
X172116241Y-115888633D01*
X172091940Y-115868690D01*
X171954282Y-115755718D01*
X171821370Y-115593763D01*
X171821369Y-115593762D01*
X171821367Y-115593759D01*
X171722608Y-115408994D01*
X171661789Y-115208500D01*
X171641254Y-115000000D01*
X171661789Y-114791500D01*
X171713561Y-114620831D01*
X171722607Y-114591009D01*
X171722608Y-114591006D01*
X171821367Y-114406241D01*
X171821370Y-114406237D01*
X171954282Y-114244282D01*
X172116237Y-114111370D01*
X172116238Y-114111369D01*
X172116241Y-114111367D01*
X172301006Y-114012608D01*
X172501500Y-113951789D01*
X172657749Y-113936400D01*
X172762251Y-113936400D01*
X172918500Y-113951789D01*
X172918500Y-113951789D01*
G37*
G36*
X126739024Y-113253955D02*
G01*
X126771738Y-113263879D01*
X126801885Y-113279993D01*
X126828315Y-113301685D01*
X126850007Y-113328115D01*
X126866121Y-113358262D01*
X126876045Y-113390976D01*
X126880000Y-113431138D01*
X126880000Y-115068862D01*
X126876045Y-115109024D01*
X126866121Y-115141738D01*
X126850007Y-115171885D01*
X126828315Y-115198315D01*
X126801885Y-115220007D01*
X126771738Y-115236121D01*
X126739024Y-115246045D01*
X126698862Y-115250000D01*
X126111138Y-115250000D01*
X126070976Y-115246045D01*
X126038262Y-115236121D01*
X126008115Y-115220007D01*
X125981685Y-115198315D01*
X125959993Y-115171885D01*
X125943879Y-115141738D01*
X125933955Y-115109024D01*
X125930000Y-115068862D01*
X125930000Y-113431138D01*
X125933955Y-113390976D01*
X125943879Y-113358262D01*
X125959993Y-113328115D01*
X125981685Y-113301685D01*
X126008115Y-113279993D01*
X126038262Y-113263879D01*
X126070976Y-113253955D01*
X126111138Y-113250000D01*
X126698862Y-113250000D01*
X126739024Y-113253955D01*
X126739024Y-113253955D01*
G37*
G36*
X120389024Y-113253955D02*
G01*
X120421738Y-113263879D01*
X120451885Y-113279993D01*
X120478315Y-113301685D01*
X120500007Y-113328115D01*
X120516121Y-113358262D01*
X120526045Y-113390976D01*
X120530000Y-113431138D01*
X120530000Y-115068862D01*
X120526045Y-115109024D01*
X120516121Y-115141738D01*
X120500007Y-115171885D01*
X120478315Y-115198315D01*
X120451885Y-115220007D01*
X120421738Y-115236121D01*
X120389024Y-115246045D01*
X120348862Y-115250000D01*
X119761138Y-115250000D01*
X119720976Y-115246045D01*
X119688262Y-115236121D01*
X119658115Y-115220007D01*
X119631685Y-115198315D01*
X119609993Y-115171885D01*
X119593879Y-115141738D01*
X119583955Y-115109024D01*
X119580000Y-115068862D01*
X119580000Y-113431138D01*
X119583955Y-113390976D01*
X119593879Y-113358262D01*
X119609993Y-113328115D01*
X119631685Y-113301685D01*
X119658115Y-113279993D01*
X119688262Y-113263879D01*
X119720976Y-113253955D01*
X119761138Y-113250000D01*
X120348862Y-113250000D01*
X120389024Y-113253955D01*
X120389024Y-113253955D01*
G37*
G36*
X169185529Y-113705710D02*
G01*
X169235378Y-113720831D01*
X169281310Y-113745382D01*
X169321574Y-113778426D01*
X169354618Y-113818690D01*
X169379169Y-113864622D01*
X169394290Y-113914471D01*
X169400000Y-113972444D01*
X169400000Y-114977556D01*
X169394290Y-115035529D01*
X169379169Y-115085378D01*
X169354618Y-115131310D01*
X169321574Y-115171574D01*
X169281310Y-115204618D01*
X169235378Y-115229169D01*
X169185529Y-115244290D01*
X169127556Y-115250000D01*
X167872444Y-115250000D01*
X167814471Y-115244290D01*
X167764622Y-115229169D01*
X167718690Y-115204618D01*
X167678426Y-115171574D01*
X167645382Y-115131310D01*
X167620831Y-115085378D01*
X167605710Y-115035529D01*
X167600000Y-114977556D01*
X167600000Y-113972444D01*
X167605710Y-113914471D01*
X167620831Y-113864622D01*
X167645382Y-113818690D01*
X167678426Y-113778426D01*
X167718690Y-113745382D01*
X167764622Y-113720831D01*
X167814471Y-113705710D01*
X167872444Y-113700000D01*
X169127556Y-113700000D01*
X169185529Y-113705710D01*
X169185529Y-113705710D01*
G37*
G36*
X129279024Y-113253955D02*
G01*
X129311738Y-113263879D01*
X129341885Y-113279993D01*
X129368315Y-113301685D01*
X129390007Y-113328115D01*
X129406121Y-113358262D01*
X129416045Y-113390976D01*
X129420000Y-113431138D01*
X129420000Y-115068862D01*
X129416045Y-115109024D01*
X129406121Y-115141738D01*
X129390007Y-115171885D01*
X129368315Y-115198315D01*
X129341885Y-115220007D01*
X129311738Y-115236121D01*
X129279024Y-115246045D01*
X129238862Y-115250000D01*
X128651138Y-115250000D01*
X128610976Y-115246045D01*
X128578262Y-115236121D01*
X128548115Y-115220007D01*
X128521685Y-115198315D01*
X128499993Y-115171885D01*
X128483879Y-115141738D01*
X128473955Y-115109024D01*
X128470000Y-115068862D01*
X128470000Y-113431138D01*
X128473955Y-113390976D01*
X128483879Y-113358262D01*
X128499993Y-113328115D01*
X128521685Y-113301685D01*
X128548115Y-113279993D01*
X128578262Y-113263879D01*
X128610976Y-113253955D01*
X128651138Y-113250000D01*
X129238862Y-113250000D01*
X129279024Y-113253955D01*
X129279024Y-113253955D01*
G37*
G36*
X128009024Y-113253955D02*
G01*
X128041738Y-113263879D01*
X128071885Y-113279993D01*
X128098315Y-113301685D01*
X128120007Y-113328115D01*
X128136121Y-113358262D01*
X128146045Y-113390976D01*
X128150000Y-113431138D01*
X128150000Y-115068862D01*
X128146045Y-115109024D01*
X128136121Y-115141738D01*
X128120007Y-115171885D01*
X128098315Y-115198315D01*
X128071885Y-115220007D01*
X128041738Y-115236121D01*
X128009024Y-115246045D01*
X127968862Y-115250000D01*
X127381138Y-115250000D01*
X127340976Y-115246045D01*
X127308262Y-115236121D01*
X127278115Y-115220007D01*
X127251685Y-115198315D01*
X127229993Y-115171885D01*
X127213879Y-115141738D01*
X127203955Y-115109024D01*
X127200000Y-115068862D01*
X127200000Y-113431138D01*
X127203955Y-113390976D01*
X127213879Y-113358262D01*
X127229993Y-113328115D01*
X127251685Y-113301685D01*
X127278115Y-113279993D01*
X127308262Y-113263879D01*
X127340976Y-113253955D01*
X127381138Y-113250000D01*
X127968862Y-113250000D01*
X128009024Y-113253955D01*
X128009024Y-113253955D01*
G37*
G36*
X125469024Y-113253955D02*
G01*
X125501738Y-113263879D01*
X125531885Y-113279993D01*
X125558315Y-113301685D01*
X125580007Y-113328115D01*
X125596121Y-113358262D01*
X125606045Y-113390976D01*
X125610000Y-113431138D01*
X125610000Y-115068862D01*
X125606045Y-115109024D01*
X125596121Y-115141738D01*
X125580007Y-115171885D01*
X125558315Y-115198315D01*
X125531885Y-115220007D01*
X125501738Y-115236121D01*
X125469024Y-115246045D01*
X125428862Y-115250000D01*
X124841138Y-115250000D01*
X124800976Y-115246045D01*
X124768262Y-115236121D01*
X124738115Y-115220007D01*
X124711685Y-115198315D01*
X124689993Y-115171885D01*
X124673879Y-115141738D01*
X124663955Y-115109024D01*
X124660000Y-115068862D01*
X124660000Y-113431138D01*
X124663955Y-113390976D01*
X124673879Y-113358262D01*
X124689993Y-113328115D01*
X124711685Y-113301685D01*
X124738115Y-113279993D01*
X124768262Y-113263879D01*
X124800976Y-113253955D01*
X124841138Y-113250000D01*
X125428862Y-113250000D01*
X125469024Y-113253955D01*
X125469024Y-113253955D01*
G37*
G36*
X124199024Y-113253955D02*
G01*
X124231738Y-113263879D01*
X124261885Y-113279993D01*
X124288315Y-113301685D01*
X124310007Y-113328115D01*
X124326121Y-113358262D01*
X124336045Y-113390976D01*
X124340000Y-113431138D01*
X124340000Y-115068862D01*
X124336045Y-115109024D01*
X124326121Y-115141738D01*
X124310007Y-115171885D01*
X124288315Y-115198315D01*
X124261885Y-115220007D01*
X124231738Y-115236121D01*
X124199024Y-115246045D01*
X124158862Y-115250000D01*
X123571138Y-115250000D01*
X123530976Y-115246045D01*
X123498262Y-115236121D01*
X123468115Y-115220007D01*
X123441685Y-115198315D01*
X123419993Y-115171885D01*
X123403879Y-115141738D01*
X123393955Y-115109024D01*
X123390000Y-115068862D01*
X123390000Y-113431138D01*
X123393955Y-113390976D01*
X123403879Y-113358262D01*
X123419993Y-113328115D01*
X123441685Y-113301685D01*
X123468115Y-113279993D01*
X123498262Y-113263879D01*
X123530976Y-113253955D01*
X123571138Y-113250000D01*
X124158862Y-113250000D01*
X124199024Y-113253955D01*
X124199024Y-113253955D01*
G37*
G36*
X122929024Y-113253955D02*
G01*
X122961738Y-113263879D01*
X122991885Y-113279993D01*
X123018315Y-113301685D01*
X123040007Y-113328115D01*
X123056121Y-113358262D01*
X123066045Y-113390976D01*
X123070000Y-113431138D01*
X123070000Y-115068862D01*
X123066045Y-115109024D01*
X123056121Y-115141738D01*
X123040007Y-115171885D01*
X123018315Y-115198315D01*
X122991885Y-115220007D01*
X122961738Y-115236121D01*
X122929024Y-115246045D01*
X122888862Y-115250000D01*
X122301138Y-115250000D01*
X122260976Y-115246045D01*
X122228262Y-115236121D01*
X122198115Y-115220007D01*
X122171685Y-115198315D01*
X122149993Y-115171885D01*
X122133879Y-115141738D01*
X122123955Y-115109024D01*
X122120000Y-115068862D01*
X122120000Y-113431138D01*
X122123955Y-113390976D01*
X122133879Y-113358262D01*
X122149993Y-113328115D01*
X122171685Y-113301685D01*
X122198115Y-113279993D01*
X122228262Y-113263879D01*
X122260976Y-113253955D01*
X122301138Y-113250000D01*
X122888862Y-113250000D01*
X122929024Y-113253955D01*
X122929024Y-113253955D01*
G37*
G36*
X121659024Y-113253955D02*
G01*
X121691738Y-113263879D01*
X121721885Y-113279993D01*
X121748315Y-113301685D01*
X121770007Y-113328115D01*
X121786121Y-113358262D01*
X121796045Y-113390976D01*
X121800000Y-113431138D01*
X121800000Y-115068862D01*
X121796045Y-115109024D01*
X121786121Y-115141738D01*
X121770007Y-115171885D01*
X121748315Y-115198315D01*
X121721885Y-115220007D01*
X121691738Y-115236121D01*
X121659024Y-115246045D01*
X121618862Y-115250000D01*
X121031138Y-115250000D01*
X120990976Y-115246045D01*
X120958262Y-115236121D01*
X120928115Y-115220007D01*
X120901685Y-115198315D01*
X120879993Y-115171885D01*
X120863879Y-115141738D01*
X120853955Y-115109024D01*
X120850000Y-115068862D01*
X120850000Y-113431138D01*
X120853955Y-113390976D01*
X120863879Y-113358262D01*
X120879993Y-113328115D01*
X120901685Y-113301685D01*
X120928115Y-113279993D01*
X120958262Y-113263879D01*
X120990976Y-113253955D01*
X121031138Y-113250000D01*
X121618862Y-113250000D01*
X121659024Y-113253955D01*
X121659024Y-113253955D01*
G37*
G36*
X154185529Y-113680710D02*
G01*
X154235378Y-113695831D01*
X154281310Y-113720382D01*
X154321574Y-113753426D01*
X154354618Y-113793690D01*
X154379169Y-113839622D01*
X154394290Y-113889471D01*
X154400000Y-113947444D01*
X154400000Y-114952556D01*
X154394290Y-115010529D01*
X154379169Y-115060378D01*
X154354618Y-115106310D01*
X154321574Y-115146574D01*
X154281310Y-115179618D01*
X154235378Y-115204169D01*
X154185529Y-115219290D01*
X154127556Y-115225000D01*
X152872444Y-115225000D01*
X152814471Y-115219290D01*
X152764622Y-115204169D01*
X152718690Y-115179618D01*
X152678426Y-115146574D01*
X152645382Y-115106310D01*
X152620831Y-115060378D01*
X152605710Y-115010529D01*
X152600000Y-114952556D01*
X152600000Y-113947444D01*
X152605710Y-113889471D01*
X152620831Y-113839622D01*
X152645382Y-113793690D01*
X152678426Y-113753426D01*
X152718690Y-113720382D01*
X152764622Y-113695831D01*
X152814471Y-113680710D01*
X152872444Y-113675000D01*
X154127556Y-113675000D01*
X154185529Y-113680710D01*
X154185529Y-113680710D01*
G37*
G36*
X166000000Y-114880000D02*
G01*
X163600000Y-114880000D01*
X163600000Y-113930000D01*
X166000000Y-113930000D01*
X166000000Y-114880000D01*
X166000000Y-114880000D01*
G37*
G36*
X159400000Y-114880000D02*
G01*
X157000000Y-114880000D01*
X157000000Y-113930000D01*
X159400000Y-113930000D01*
X159400000Y-114880000D01*
X159400000Y-114880000D01*
G37*
G36*
X159400000Y-113610000D02*
G01*
X157000000Y-113610000D01*
X157000000Y-112660000D01*
X159400000Y-112660000D01*
X159400000Y-113610000D01*
X159400000Y-113610000D01*
G37*
G36*
X166000000Y-113610000D02*
G01*
X163600000Y-113610000D01*
X163600000Y-112660000D01*
X166000000Y-112660000D01*
X166000000Y-113610000D01*
X166000000Y-113610000D01*
G37*
G36*
X172918500Y-111411789D02*
G01*
X173118994Y-111472608D01*
X173303759Y-111571367D01*
X173303762Y-111571369D01*
X173303763Y-111571370D01*
X173465718Y-111704282D01*
X173598630Y-111866237D01*
X173598633Y-111866241D01*
X173697392Y-112051006D01*
X173758211Y-112251500D01*
X173778746Y-112460000D01*
X173758211Y-112668500D01*
X173697392Y-112868994D01*
X173598633Y-113053759D01*
X173598631Y-113053762D01*
X173598630Y-113053763D01*
X173465718Y-113215718D01*
X173303763Y-113348630D01*
X173303759Y-113348633D01*
X173118994Y-113447392D01*
X172918500Y-113508211D01*
X172762251Y-113523600D01*
X172657749Y-113523600D01*
X172501500Y-113508211D01*
X172301006Y-113447392D01*
X172116241Y-113348633D01*
X172116237Y-113348630D01*
X171954282Y-113215718D01*
X171821370Y-113053763D01*
X171821369Y-113053762D01*
X171821367Y-113053759D01*
X171722608Y-112868994D01*
X171661789Y-112668500D01*
X171641254Y-112460000D01*
X171661789Y-112251500D01*
X171722608Y-112051006D01*
X171821367Y-111866241D01*
X171821370Y-111866237D01*
X171954282Y-111704282D01*
X172116237Y-111571370D01*
X172116238Y-111571369D01*
X172116241Y-111571367D01*
X172301006Y-111472608D01*
X172501500Y-111411789D01*
X172657749Y-111396400D01*
X172762251Y-111396400D01*
X172918500Y-111411789D01*
X172918500Y-111411789D01*
G37*
G36*
X175458500Y-111411789D02*
G01*
X175658994Y-111472608D01*
X175843759Y-111571367D01*
X175843762Y-111571369D01*
X175843763Y-111571370D01*
X176005718Y-111704282D01*
X176138630Y-111866237D01*
X176138633Y-111866241D01*
X176237392Y-112051006D01*
X176298211Y-112251500D01*
X176318746Y-112460000D01*
X176298211Y-112668500D01*
X176237392Y-112868994D01*
X176138633Y-113053759D01*
X176138631Y-113053762D01*
X176138630Y-113053763D01*
X176005718Y-113215718D01*
X175843763Y-113348630D01*
X175843759Y-113348633D01*
X175658994Y-113447392D01*
X175458500Y-113508211D01*
X175302251Y-113523600D01*
X175197749Y-113523600D01*
X175041500Y-113508211D01*
X174841006Y-113447392D01*
X174656241Y-113348633D01*
X174656237Y-113348630D01*
X174494282Y-113215718D01*
X174361370Y-113053763D01*
X174361369Y-113053762D01*
X174361367Y-113053759D01*
X174262608Y-112868994D01*
X174201789Y-112668500D01*
X174181254Y-112460000D01*
X174201789Y-112251500D01*
X174262608Y-112051006D01*
X174361367Y-111866241D01*
X174361370Y-111866237D01*
X174494282Y-111704282D01*
X174656237Y-111571370D01*
X174656238Y-111571369D01*
X174656241Y-111571367D01*
X174841006Y-111472608D01*
X175041500Y-111411789D01*
X175197749Y-111396400D01*
X175302251Y-111396400D01*
X175458500Y-111411789D01*
X175458500Y-111411789D01*
G37*
G36*
X154185529Y-111755710D02*
G01*
X154235378Y-111770831D01*
X154281310Y-111795382D01*
X154321574Y-111828426D01*
X154354618Y-111868690D01*
X154379169Y-111914622D01*
X154394290Y-111964471D01*
X154400000Y-112022444D01*
X154400000Y-113027556D01*
X154394290Y-113085529D01*
X154379169Y-113135378D01*
X154354618Y-113181310D01*
X154321574Y-113221574D01*
X154281310Y-113254618D01*
X154235378Y-113279169D01*
X154185529Y-113294290D01*
X154127556Y-113300000D01*
X152872444Y-113300000D01*
X152814471Y-113294290D01*
X152764622Y-113279169D01*
X152718690Y-113254618D01*
X152678426Y-113221574D01*
X152645382Y-113181310D01*
X152620831Y-113135378D01*
X152605710Y-113085529D01*
X152600000Y-113027556D01*
X152600000Y-112022444D01*
X152605710Y-111964471D01*
X152620831Y-111914622D01*
X152645382Y-111868690D01*
X152678426Y-111828426D01*
X152718690Y-111795382D01*
X152764622Y-111770831D01*
X152814471Y-111755710D01*
X152872444Y-111750000D01*
X154127556Y-111750000D01*
X154185529Y-111755710D01*
X154185529Y-111755710D01*
G37*
G36*
X169185529Y-111730710D02*
G01*
X169235378Y-111745831D01*
X169281310Y-111770382D01*
X169321574Y-111803426D01*
X169354618Y-111843690D01*
X169379169Y-111889622D01*
X169394290Y-111939471D01*
X169400000Y-111997444D01*
X169400000Y-113002556D01*
X169394290Y-113060529D01*
X169379169Y-113110378D01*
X169354618Y-113156310D01*
X169321574Y-113196574D01*
X169281310Y-113229618D01*
X169235378Y-113254169D01*
X169185529Y-113269290D01*
X169127556Y-113275000D01*
X167872444Y-113275000D01*
X167814471Y-113269290D01*
X167764622Y-113254169D01*
X167718690Y-113229618D01*
X167678426Y-113196574D01*
X167645382Y-113156310D01*
X167620831Y-113110378D01*
X167605710Y-113060529D01*
X167600000Y-113002556D01*
X167600000Y-111997444D01*
X167605710Y-111939471D01*
X167620831Y-111889622D01*
X167645382Y-111843690D01*
X167678426Y-111803426D01*
X167718690Y-111770382D01*
X167764622Y-111745831D01*
X167814471Y-111730710D01*
X167872444Y-111725000D01*
X169127556Y-111725000D01*
X169185529Y-111730710D01*
X169185529Y-111730710D01*
G37*
G36*
X159400000Y-112340000D02*
G01*
X157000000Y-112340000D01*
X157000000Y-111390000D01*
X159400000Y-111390000D01*
X159400000Y-112340000D01*
X159400000Y-112340000D01*
G37*
G36*
X166000000Y-112340000D02*
G01*
X163600000Y-112340000D01*
X163600000Y-111390000D01*
X166000000Y-111390000D01*
X166000000Y-112340000D01*
X166000000Y-112340000D01*
G37*
G36*
X108705835Y-109840193D02*
G01*
X108903761Y-109900233D01*
X108903764Y-109900234D01*
X108989795Y-109946219D01*
X109086171Y-109997733D01*
X109107993Y-110015642D01*
X109246055Y-110128945D01*
X109377268Y-110288830D01*
X109474766Y-110471235D01*
X109474766Y-110471236D01*
X109474767Y-110471238D01*
X109534807Y-110669164D01*
X109542404Y-110746293D01*
X109550000Y-110823420D01*
X109550000Y-111176579D01*
X109547238Y-111204618D01*
X109534807Y-111330835D01*
X109491801Y-111472607D01*
X109474766Y-111528764D01*
X109387274Y-111692450D01*
X109377267Y-111711171D01*
X109360604Y-111731475D01*
X109246055Y-111871055D01*
X109086170Y-112002268D01*
X108903765Y-112099766D01*
X108903762Y-112099767D01*
X108705836Y-112159807D01*
X108500000Y-112180080D01*
X108294165Y-112159807D01*
X108096239Y-112099767D01*
X108096236Y-112099766D01*
X107913831Y-112002268D01*
X107753946Y-111871054D01*
X107622732Y-111711170D01*
X107525234Y-111528765D01*
X107485082Y-111396400D01*
X107465193Y-111330836D01*
X107450000Y-111176578D01*
X107450000Y-110823423D01*
X107465193Y-110669165D01*
X107525233Y-110471239D01*
X107525234Y-110471236D01*
X107622732Y-110288831D01*
X107622733Y-110288829D01*
X107656913Y-110247181D01*
X107753945Y-110128945D01*
X107913830Y-109997732D01*
X108096235Y-109900234D01*
X108096238Y-109900233D01*
X108294164Y-109840193D01*
X108500000Y-109819920D01*
X108705835Y-109840193D01*
X108705835Y-109840193D01*
G37*
G36*
X111205835Y-109840193D02*
G01*
X111403761Y-109900233D01*
X111403764Y-109900234D01*
X111489795Y-109946219D01*
X111586171Y-109997733D01*
X111607993Y-110015642D01*
X111746055Y-110128945D01*
X111877268Y-110288830D01*
X111974766Y-110471235D01*
X111974766Y-110471236D01*
X111974767Y-110471238D01*
X112034807Y-110669164D01*
X112042404Y-110746293D01*
X112050000Y-110823420D01*
X112050000Y-111176579D01*
X112047238Y-111204618D01*
X112034807Y-111330835D01*
X111991801Y-111472607D01*
X111974766Y-111528764D01*
X111887274Y-111692450D01*
X111877267Y-111711171D01*
X111860604Y-111731475D01*
X111746055Y-111871055D01*
X111586170Y-112002268D01*
X111403765Y-112099766D01*
X111403762Y-112099767D01*
X111205836Y-112159807D01*
X111000000Y-112180080D01*
X110794165Y-112159807D01*
X110596239Y-112099767D01*
X110596236Y-112099766D01*
X110413831Y-112002268D01*
X110253946Y-111871054D01*
X110122732Y-111711170D01*
X110025234Y-111528765D01*
X109985082Y-111396400D01*
X109965193Y-111330836D01*
X109950000Y-111176578D01*
X109950000Y-110823423D01*
X109965193Y-110669165D01*
X110025233Y-110471239D01*
X110025234Y-110471236D01*
X110122732Y-110288831D01*
X110122733Y-110288829D01*
X110156913Y-110247181D01*
X110253945Y-110128945D01*
X110413830Y-109997732D01*
X110596235Y-109900234D01*
X110596238Y-109900233D01*
X110794164Y-109840193D01*
X111000000Y-109819920D01*
X111205835Y-109840193D01*
X111205835Y-109840193D01*
G37*
G36*
X106872326Y-109829831D02*
G01*
X106913596Y-109842350D01*
X106951631Y-109862681D01*
X106984964Y-109890036D01*
X107012319Y-109923369D01*
X107032650Y-109961404D01*
X107045169Y-110002674D01*
X107050000Y-110051727D01*
X107050000Y-111948273D01*
X107045169Y-111997326D01*
X107032650Y-112038596D01*
X107012319Y-112076631D01*
X106984964Y-112109964D01*
X106951631Y-112137319D01*
X106913596Y-112157650D01*
X106872326Y-112170169D01*
X106823273Y-112175000D01*
X105176727Y-112175000D01*
X105127674Y-112170169D01*
X105086404Y-112157650D01*
X105048369Y-112137319D01*
X105015036Y-112109964D01*
X104987681Y-112076631D01*
X104967350Y-112038596D01*
X104954831Y-111997326D01*
X104950000Y-111948273D01*
X104950000Y-110051727D01*
X104954831Y-110002674D01*
X104967350Y-109961404D01*
X104987681Y-109923369D01*
X105015036Y-109890036D01*
X105048369Y-109862681D01*
X105086404Y-109842350D01*
X105127674Y-109829831D01*
X105176727Y-109825000D01*
X106823273Y-109825000D01*
X106872326Y-109829831D01*
X106872326Y-109829831D01*
G37*
G36*
X154185529Y-109705710D02*
G01*
X154235378Y-109720831D01*
X154281310Y-109745382D01*
X154321574Y-109778426D01*
X154354618Y-109818690D01*
X154379169Y-109864622D01*
X154394290Y-109914471D01*
X154400000Y-109972444D01*
X154400000Y-110977556D01*
X154394290Y-111035529D01*
X154379169Y-111085378D01*
X154354618Y-111131310D01*
X154321574Y-111171574D01*
X154281310Y-111204618D01*
X154235378Y-111229169D01*
X154185529Y-111244290D01*
X154127556Y-111250000D01*
X152872444Y-111250000D01*
X152814471Y-111244290D01*
X152764622Y-111229169D01*
X152718690Y-111204618D01*
X152678426Y-111171574D01*
X152645382Y-111131310D01*
X152620831Y-111085378D01*
X152605710Y-111035529D01*
X152600000Y-110977556D01*
X152600000Y-109972444D01*
X152605710Y-109914471D01*
X152620831Y-109864622D01*
X152645382Y-109818690D01*
X152678426Y-109778426D01*
X152718690Y-109745382D01*
X152764622Y-109720831D01*
X152814471Y-109705710D01*
X152872444Y-109700000D01*
X154127556Y-109700000D01*
X154185529Y-109705710D01*
X154185529Y-109705710D01*
G37*
G36*
X169185529Y-109680710D02*
G01*
X169235378Y-109695831D01*
X169281310Y-109720382D01*
X169321574Y-109753426D01*
X169354618Y-109793690D01*
X169379169Y-109839622D01*
X169394290Y-109889471D01*
X169400000Y-109947444D01*
X169400000Y-110952556D01*
X169394290Y-111010529D01*
X169379169Y-111060378D01*
X169354618Y-111106310D01*
X169321574Y-111146574D01*
X169281310Y-111179618D01*
X169235378Y-111204169D01*
X169185529Y-111219290D01*
X169127556Y-111225000D01*
X167872444Y-111225000D01*
X167814471Y-111219290D01*
X167764622Y-111204169D01*
X167718690Y-111179618D01*
X167678426Y-111146574D01*
X167645382Y-111106310D01*
X167620831Y-111060378D01*
X167605710Y-111010529D01*
X167600000Y-110952556D01*
X167600000Y-109947444D01*
X167605710Y-109889471D01*
X167620831Y-109839622D01*
X167645382Y-109793690D01*
X167678426Y-109753426D01*
X167718690Y-109720382D01*
X167764622Y-109695831D01*
X167814471Y-109680710D01*
X167872444Y-109675000D01*
X169127556Y-109675000D01*
X169185529Y-109680710D01*
X169185529Y-109680710D01*
G37*
G36*
X159400000Y-111070000D02*
G01*
X157000000Y-111070000D01*
X157000000Y-110120000D01*
X159400000Y-110120000D01*
X159400000Y-111070000D01*
X159400000Y-111070000D01*
G37*
G36*
X166000000Y-111070000D02*
G01*
X163600000Y-111070000D01*
X163600000Y-110120000D01*
X166000000Y-110120000D01*
X166000000Y-111070000D01*
X166000000Y-111070000D01*
G37*
G36*
X175458500Y-108871789D02*
G01*
X175658994Y-108932608D01*
X175843759Y-109031367D01*
X175843762Y-109031369D01*
X175843763Y-109031370D01*
X176005718Y-109164282D01*
X176138630Y-109326237D01*
X176138633Y-109326241D01*
X176237392Y-109511006D01*
X176298211Y-109711500D01*
X176318746Y-109920000D01*
X176298211Y-110128500D01*
X176237392Y-110328994D01*
X176138633Y-110513759D01*
X176138631Y-110513762D01*
X176138630Y-110513763D01*
X176005718Y-110675718D01*
X175843763Y-110808630D01*
X175843759Y-110808633D01*
X175658994Y-110907392D01*
X175458500Y-110968211D01*
X175302251Y-110983600D01*
X175197749Y-110983600D01*
X175041500Y-110968211D01*
X174841006Y-110907392D01*
X174656241Y-110808633D01*
X174656237Y-110808630D01*
X174494282Y-110675718D01*
X174361370Y-110513763D01*
X174361369Y-110513762D01*
X174361367Y-110513759D01*
X174262608Y-110328994D01*
X174201789Y-110128500D01*
X174181254Y-109920000D01*
X174201789Y-109711500D01*
X174262608Y-109511006D01*
X174361367Y-109326241D01*
X174361370Y-109326237D01*
X174494282Y-109164282D01*
X174656237Y-109031370D01*
X174656238Y-109031369D01*
X174656241Y-109031367D01*
X174841006Y-108932608D01*
X175041500Y-108871789D01*
X175197749Y-108856400D01*
X175302251Y-108856400D01*
X175458500Y-108871789D01*
X175458500Y-108871789D01*
G37*
G36*
X172918500Y-108871789D02*
G01*
X173118994Y-108932608D01*
X173303759Y-109031367D01*
X173303762Y-109031369D01*
X173303763Y-109031370D01*
X173465718Y-109164282D01*
X173598630Y-109326237D01*
X173598633Y-109326241D01*
X173697392Y-109511006D01*
X173758211Y-109711500D01*
X173778746Y-109920000D01*
X173758211Y-110128500D01*
X173697392Y-110328994D01*
X173598633Y-110513759D01*
X173598631Y-110513762D01*
X173598630Y-110513763D01*
X173465718Y-110675718D01*
X173303763Y-110808630D01*
X173303759Y-110808633D01*
X173118994Y-110907392D01*
X172918500Y-110968211D01*
X172762251Y-110983600D01*
X172657749Y-110983600D01*
X172501500Y-110968211D01*
X172301006Y-110907392D01*
X172116241Y-110808633D01*
X172116237Y-110808630D01*
X171954282Y-110675718D01*
X171821370Y-110513763D01*
X171821369Y-110513762D01*
X171821367Y-110513759D01*
X171722608Y-110328994D01*
X171661789Y-110128500D01*
X171641254Y-109920000D01*
X171661789Y-109711500D01*
X171722608Y-109511006D01*
X171821367Y-109326241D01*
X171821370Y-109326237D01*
X171954282Y-109164282D01*
X172116237Y-109031370D01*
X172116238Y-109031369D01*
X172116241Y-109031367D01*
X172301006Y-108932608D01*
X172501500Y-108871789D01*
X172657749Y-108856400D01*
X172762251Y-108856400D01*
X172918500Y-108871789D01*
X172918500Y-108871789D01*
G37*
G36*
X122929024Y-106753955D02*
G01*
X122961738Y-106763879D01*
X122991885Y-106779993D01*
X123018315Y-106801685D01*
X123040007Y-106828115D01*
X123056121Y-106858262D01*
X123066045Y-106890976D01*
X123070000Y-106931138D01*
X123070000Y-108568862D01*
X123066045Y-108609024D01*
X123056121Y-108641738D01*
X123040007Y-108671885D01*
X123018315Y-108698315D01*
X122991885Y-108720007D01*
X122961738Y-108736121D01*
X122929024Y-108746045D01*
X122888862Y-108750000D01*
X122301138Y-108750000D01*
X122260976Y-108746045D01*
X122228262Y-108736121D01*
X122198115Y-108720007D01*
X122171685Y-108698315D01*
X122149993Y-108671885D01*
X122133879Y-108641738D01*
X122123955Y-108609024D01*
X122120000Y-108568862D01*
X122120000Y-106931138D01*
X122123955Y-106890976D01*
X122133879Y-106858262D01*
X122149993Y-106828115D01*
X122171685Y-106801685D01*
X122198115Y-106779993D01*
X122228262Y-106763879D01*
X122260976Y-106753955D01*
X122301138Y-106750000D01*
X122888862Y-106750000D01*
X122929024Y-106753955D01*
X122929024Y-106753955D01*
G37*
G36*
X120389024Y-106753955D02*
G01*
X120421738Y-106763879D01*
X120451885Y-106779993D01*
X120478315Y-106801685D01*
X120500007Y-106828115D01*
X120516121Y-106858262D01*
X120526045Y-106890976D01*
X120530000Y-106931138D01*
X120530000Y-108568862D01*
X120526045Y-108609024D01*
X120516121Y-108641738D01*
X120500007Y-108671885D01*
X120478315Y-108698315D01*
X120451885Y-108720007D01*
X120421738Y-108736121D01*
X120389024Y-108746045D01*
X120348862Y-108750000D01*
X119761138Y-108750000D01*
X119720976Y-108746045D01*
X119688262Y-108736121D01*
X119658115Y-108720007D01*
X119631685Y-108698315D01*
X119609993Y-108671885D01*
X119593879Y-108641738D01*
X119583955Y-108609024D01*
X119580000Y-108568862D01*
X119580000Y-106931138D01*
X119583955Y-106890976D01*
X119593879Y-106858262D01*
X119609993Y-106828115D01*
X119631685Y-106801685D01*
X119658115Y-106779993D01*
X119688262Y-106763879D01*
X119720976Y-106753955D01*
X119761138Y-106750000D01*
X120348862Y-106750000D01*
X120389024Y-106753955D01*
X120389024Y-106753955D01*
G37*
G36*
X124199024Y-106753955D02*
G01*
X124231738Y-106763879D01*
X124261885Y-106779993D01*
X124288315Y-106801685D01*
X124310007Y-106828115D01*
X124326121Y-106858262D01*
X124336045Y-106890976D01*
X124340000Y-106931138D01*
X124340000Y-108568862D01*
X124336045Y-108609024D01*
X124326121Y-108641738D01*
X124310007Y-108671885D01*
X124288315Y-108698315D01*
X124261885Y-108720007D01*
X124231738Y-108736121D01*
X124199024Y-108746045D01*
X124158862Y-108750000D01*
X123571138Y-108750000D01*
X123530976Y-108746045D01*
X123498262Y-108736121D01*
X123468115Y-108720007D01*
X123441685Y-108698315D01*
X123419993Y-108671885D01*
X123403879Y-108641738D01*
X123393955Y-108609024D01*
X123390000Y-108568862D01*
X123390000Y-106931138D01*
X123393955Y-106890976D01*
X123403879Y-106858262D01*
X123419993Y-106828115D01*
X123441685Y-106801685D01*
X123468115Y-106779993D01*
X123498262Y-106763879D01*
X123530976Y-106753955D01*
X123571138Y-106750000D01*
X124158862Y-106750000D01*
X124199024Y-106753955D01*
X124199024Y-106753955D01*
G37*
G36*
X125469024Y-106753955D02*
G01*
X125501738Y-106763879D01*
X125531885Y-106779993D01*
X125558315Y-106801685D01*
X125580007Y-106828115D01*
X125596121Y-106858262D01*
X125606045Y-106890976D01*
X125610000Y-106931138D01*
X125610000Y-108568862D01*
X125606045Y-108609024D01*
X125596121Y-108641738D01*
X125580007Y-108671885D01*
X125558315Y-108698315D01*
X125531885Y-108720007D01*
X125501738Y-108736121D01*
X125469024Y-108746045D01*
X125428862Y-108750000D01*
X124841138Y-108750000D01*
X124800976Y-108746045D01*
X124768262Y-108736121D01*
X124738115Y-108720007D01*
X124711685Y-108698315D01*
X124689993Y-108671885D01*
X124673879Y-108641738D01*
X124663955Y-108609024D01*
X124660000Y-108568862D01*
X124660000Y-106931138D01*
X124663955Y-106890976D01*
X124673879Y-106858262D01*
X124689993Y-106828115D01*
X124711685Y-106801685D01*
X124738115Y-106779993D01*
X124768262Y-106763879D01*
X124800976Y-106753955D01*
X124841138Y-106750000D01*
X125428862Y-106750000D01*
X125469024Y-106753955D01*
X125469024Y-106753955D01*
G37*
G36*
X126739024Y-106753955D02*
G01*
X126771738Y-106763879D01*
X126801885Y-106779993D01*
X126828315Y-106801685D01*
X126850007Y-106828115D01*
X126866121Y-106858262D01*
X126876045Y-106890976D01*
X126880000Y-106931138D01*
X126880000Y-108568862D01*
X126876045Y-108609024D01*
X126866121Y-108641738D01*
X126850007Y-108671885D01*
X126828315Y-108698315D01*
X126801885Y-108720007D01*
X126771738Y-108736121D01*
X126739024Y-108746045D01*
X126698862Y-108750000D01*
X126111138Y-108750000D01*
X126070976Y-108746045D01*
X126038262Y-108736121D01*
X126008115Y-108720007D01*
X125981685Y-108698315D01*
X125959993Y-108671885D01*
X125943879Y-108641738D01*
X125933955Y-108609024D01*
X125930000Y-108568862D01*
X125930000Y-106931138D01*
X125933955Y-106890976D01*
X125943879Y-106858262D01*
X125959993Y-106828115D01*
X125981685Y-106801685D01*
X126008115Y-106779993D01*
X126038262Y-106763879D01*
X126070976Y-106753955D01*
X126111138Y-106750000D01*
X126698862Y-106750000D01*
X126739024Y-106753955D01*
X126739024Y-106753955D01*
G37*
G36*
X128009024Y-106753955D02*
G01*
X128041738Y-106763879D01*
X128071885Y-106779993D01*
X128098315Y-106801685D01*
X128120007Y-106828115D01*
X128136121Y-106858262D01*
X128146045Y-106890976D01*
X128150000Y-106931138D01*
X128150000Y-108568862D01*
X128146045Y-108609024D01*
X128136121Y-108641738D01*
X128120007Y-108671885D01*
X128098315Y-108698315D01*
X128071885Y-108720007D01*
X128041738Y-108736121D01*
X128009024Y-108746045D01*
X127968862Y-108750000D01*
X127381138Y-108750000D01*
X127340976Y-108746045D01*
X127308262Y-108736121D01*
X127278115Y-108720007D01*
X127251685Y-108698315D01*
X127229993Y-108671885D01*
X127213879Y-108641738D01*
X127203955Y-108609024D01*
X127200000Y-108568862D01*
X127200000Y-106931138D01*
X127203955Y-106890976D01*
X127213879Y-106858262D01*
X127229993Y-106828115D01*
X127251685Y-106801685D01*
X127278115Y-106779993D01*
X127308262Y-106763879D01*
X127340976Y-106753955D01*
X127381138Y-106750000D01*
X127968862Y-106750000D01*
X128009024Y-106753955D01*
X128009024Y-106753955D01*
G37*
G36*
X129279024Y-106753955D02*
G01*
X129311738Y-106763879D01*
X129341885Y-106779993D01*
X129368315Y-106801685D01*
X129390007Y-106828115D01*
X129406121Y-106858262D01*
X129416045Y-106890976D01*
X129420000Y-106931138D01*
X129420000Y-108568862D01*
X129416045Y-108609024D01*
X129406121Y-108641738D01*
X129390007Y-108671885D01*
X129368315Y-108698315D01*
X129341885Y-108720007D01*
X129311738Y-108736121D01*
X129279024Y-108746045D01*
X129238862Y-108750000D01*
X128651138Y-108750000D01*
X128610976Y-108746045D01*
X128578262Y-108736121D01*
X128548115Y-108720007D01*
X128521685Y-108698315D01*
X128499993Y-108671885D01*
X128483879Y-108641738D01*
X128473955Y-108609024D01*
X128470000Y-108568862D01*
X128470000Y-106931138D01*
X128473955Y-106890976D01*
X128483879Y-106858262D01*
X128499993Y-106828115D01*
X128521685Y-106801685D01*
X128548115Y-106779993D01*
X128578262Y-106763879D01*
X128610976Y-106753955D01*
X128651138Y-106750000D01*
X129238862Y-106750000D01*
X129279024Y-106753955D01*
X129279024Y-106753955D01*
G37*
G36*
X121659024Y-106753955D02*
G01*
X121691738Y-106763879D01*
X121721885Y-106779993D01*
X121748315Y-106801685D01*
X121770007Y-106828115D01*
X121786121Y-106858262D01*
X121796045Y-106890976D01*
X121800000Y-106931138D01*
X121800000Y-108568862D01*
X121796045Y-108609024D01*
X121786121Y-108641738D01*
X121770007Y-108671885D01*
X121748315Y-108698315D01*
X121721885Y-108720007D01*
X121691738Y-108736121D01*
X121659024Y-108746045D01*
X121618862Y-108750000D01*
X121031138Y-108750000D01*
X120990976Y-108746045D01*
X120958262Y-108736121D01*
X120928115Y-108720007D01*
X120901685Y-108698315D01*
X120879993Y-108671885D01*
X120863879Y-108641738D01*
X120853955Y-108609024D01*
X120850000Y-108568862D01*
X120850000Y-106931138D01*
X120853955Y-106890976D01*
X120863879Y-106858262D01*
X120879993Y-106828115D01*
X120901685Y-106801685D01*
X120928115Y-106779993D01*
X120958262Y-106763879D01*
X120990976Y-106753955D01*
X121031138Y-106750000D01*
X121618862Y-106750000D01*
X121659024Y-106753955D01*
X121659024Y-106753955D01*
G37*
G36*
X175458500Y-106331789D02*
G01*
X175658994Y-106392608D01*
X175843759Y-106491367D01*
X175843762Y-106491369D01*
X175843763Y-106491370D01*
X176005718Y-106624282D01*
X176134978Y-106781787D01*
X176138633Y-106786241D01*
X176237392Y-106971006D01*
X176298211Y-107171500D01*
X176318746Y-107380000D01*
X176298211Y-107588500D01*
X176237392Y-107788994D01*
X176138633Y-107973759D01*
X176138631Y-107973762D01*
X176138630Y-107973763D01*
X176005718Y-108135718D01*
X175843891Y-108268525D01*
X175843759Y-108268633D01*
X175658994Y-108367392D01*
X175458500Y-108428211D01*
X175302251Y-108443600D01*
X175197749Y-108443600D01*
X175041500Y-108428211D01*
X174841006Y-108367392D01*
X174656241Y-108268633D01*
X174656109Y-108268525D01*
X174494282Y-108135718D01*
X174361370Y-107973763D01*
X174361369Y-107973762D01*
X174361367Y-107973759D01*
X174262608Y-107788994D01*
X174201789Y-107588500D01*
X174181254Y-107380000D01*
X174201789Y-107171500D01*
X174262608Y-106971006D01*
X174361367Y-106786241D01*
X174365022Y-106781787D01*
X174494282Y-106624282D01*
X174656237Y-106491370D01*
X174656238Y-106491369D01*
X174656241Y-106491367D01*
X174841006Y-106392608D01*
X175041500Y-106331789D01*
X175197749Y-106316400D01*
X175302251Y-106316400D01*
X175458500Y-106331789D01*
X175458500Y-106331789D01*
G37*
G36*
X172918500Y-106331789D02*
G01*
X173118994Y-106392608D01*
X173303759Y-106491367D01*
X173303762Y-106491369D01*
X173303763Y-106491370D01*
X173465718Y-106624282D01*
X173594978Y-106781787D01*
X173598633Y-106786241D01*
X173697392Y-106971006D01*
X173758211Y-107171500D01*
X173778746Y-107380000D01*
X173758211Y-107588500D01*
X173697392Y-107788994D01*
X173598633Y-107973759D01*
X173598631Y-107973762D01*
X173598630Y-107973763D01*
X173465718Y-108135718D01*
X173303891Y-108268525D01*
X173303759Y-108268633D01*
X173118994Y-108367392D01*
X172918500Y-108428211D01*
X172762251Y-108443600D01*
X172657749Y-108443600D01*
X172501500Y-108428211D01*
X172301006Y-108367392D01*
X172116241Y-108268633D01*
X172116109Y-108268525D01*
X171954282Y-108135718D01*
X171821370Y-107973763D01*
X171821369Y-107973762D01*
X171821367Y-107973759D01*
X171722608Y-107788994D01*
X171661789Y-107588500D01*
X171641254Y-107380000D01*
X171661789Y-107171500D01*
X171722608Y-106971006D01*
X171821367Y-106786241D01*
X171825022Y-106781787D01*
X171954282Y-106624282D01*
X172116237Y-106491370D01*
X172116238Y-106491369D01*
X172116241Y-106491367D01*
X172301006Y-106392608D01*
X172501500Y-106331789D01*
X172657749Y-106316400D01*
X172762251Y-106316400D01*
X172918500Y-106331789D01*
X172918500Y-106331789D01*
G37*
G36*
X166185529Y-106755710D02*
G01*
X166235378Y-106770831D01*
X166281310Y-106795382D01*
X166321574Y-106828426D01*
X166354618Y-106868690D01*
X166379169Y-106914622D01*
X166394290Y-106964471D01*
X166400000Y-107022444D01*
X166400000Y-108027556D01*
X166394290Y-108085529D01*
X166379169Y-108135378D01*
X166354618Y-108181310D01*
X166321574Y-108221574D01*
X166281310Y-108254618D01*
X166235378Y-108279169D01*
X166185529Y-108294290D01*
X166127556Y-108300000D01*
X164872444Y-108300000D01*
X164814471Y-108294290D01*
X164764622Y-108279169D01*
X164718690Y-108254618D01*
X164678426Y-108221574D01*
X164645382Y-108181310D01*
X164620831Y-108135378D01*
X164605710Y-108085529D01*
X164600000Y-108027556D01*
X164600000Y-107022444D01*
X164605710Y-106964471D01*
X164620831Y-106914622D01*
X164645382Y-106868690D01*
X164678426Y-106828426D01*
X164718690Y-106795382D01*
X164764622Y-106770831D01*
X164814471Y-106755710D01*
X164872444Y-106750000D01*
X166127556Y-106750000D01*
X166185529Y-106755710D01*
X166185529Y-106755710D01*
G37*
G36*
X154185529Y-106755710D02*
G01*
X154235378Y-106770831D01*
X154281310Y-106795382D01*
X154321574Y-106828426D01*
X154354618Y-106868690D01*
X154379169Y-106914622D01*
X154380383Y-106918625D01*
X154389760Y-106941263D01*
X154403374Y-106961638D01*
X154420701Y-106978965D01*
X154441075Y-106992579D01*
X154463714Y-107001956D01*
X154487747Y-107006737D01*
X154512251Y-107006737D01*
X154536285Y-107001957D01*
X154558923Y-106992580D01*
X154579298Y-106978966D01*
X154596625Y-106961639D01*
X154610239Y-106941265D01*
X154619617Y-106918625D01*
X154620831Y-106914622D01*
X154645382Y-106868690D01*
X154678426Y-106828426D01*
X154718690Y-106795382D01*
X154764622Y-106770831D01*
X154814471Y-106755710D01*
X154872444Y-106750000D01*
X156127556Y-106750000D01*
X156185529Y-106755710D01*
X156235378Y-106770831D01*
X156281310Y-106795382D01*
X156321574Y-106828426D01*
X156354618Y-106868690D01*
X156379169Y-106914622D01*
X156394290Y-106964471D01*
X156400000Y-107022444D01*
X156400000Y-108027556D01*
X156394290Y-108085529D01*
X156379169Y-108135378D01*
X156354618Y-108181310D01*
X156321574Y-108221574D01*
X156281310Y-108254618D01*
X156235378Y-108279169D01*
X156185529Y-108294290D01*
X156127556Y-108300000D01*
X154872444Y-108300000D01*
X154814471Y-108294290D01*
X154764622Y-108279169D01*
X154718690Y-108254618D01*
X154678426Y-108221574D01*
X154645382Y-108181310D01*
X154620831Y-108135378D01*
X154619617Y-108131375D01*
X154610240Y-108108737D01*
X154596626Y-108088362D01*
X154579299Y-108071035D01*
X154558925Y-108057421D01*
X154536286Y-108048044D01*
X154512253Y-108043263D01*
X154487749Y-108043263D01*
X154463715Y-108048043D01*
X154441077Y-108057420D01*
X154420702Y-108071034D01*
X154403375Y-108088361D01*
X154389761Y-108108735D01*
X154380383Y-108131375D01*
X154379169Y-108135378D01*
X154354618Y-108181310D01*
X154321574Y-108221574D01*
X154281310Y-108254618D01*
X154235378Y-108279169D01*
X154185529Y-108294290D01*
X154127556Y-108300000D01*
X152872444Y-108300000D01*
X152814471Y-108294290D01*
X152764622Y-108279169D01*
X152718690Y-108254618D01*
X152678426Y-108221574D01*
X152645382Y-108181310D01*
X152620831Y-108135378D01*
X152605710Y-108085529D01*
X152600000Y-108027556D01*
X152600000Y-107022444D01*
X152605710Y-106964471D01*
X152620831Y-106914622D01*
X152645382Y-106868690D01*
X152678426Y-106828426D01*
X152718690Y-106795382D01*
X152764622Y-106770831D01*
X152814471Y-106755710D01*
X152872444Y-106750000D01*
X154127556Y-106750000D01*
X154185529Y-106755710D01*
X154185529Y-106755710D01*
G37*
G36*
X148685529Y-106755710D02*
G01*
X148735378Y-106770831D01*
X148781310Y-106795382D01*
X148821574Y-106828426D01*
X148854618Y-106868690D01*
X148879169Y-106914622D01*
X148894290Y-106964471D01*
X148900000Y-107022444D01*
X148900000Y-108027556D01*
X148894290Y-108085529D01*
X148879169Y-108135378D01*
X148854618Y-108181310D01*
X148821574Y-108221574D01*
X148781310Y-108254618D01*
X148735378Y-108279169D01*
X148685529Y-108294290D01*
X148627556Y-108300000D01*
X147372444Y-108300000D01*
X147314471Y-108294290D01*
X147264622Y-108279169D01*
X147218690Y-108254618D01*
X147178426Y-108221574D01*
X147145382Y-108181310D01*
X147120831Y-108135378D01*
X147105710Y-108085529D01*
X147100000Y-108027556D01*
X147100000Y-107022444D01*
X147105710Y-106964471D01*
X147120831Y-106914622D01*
X147145382Y-106868690D01*
X147178426Y-106828426D01*
X147218690Y-106795382D01*
X147264622Y-106770831D01*
X147314471Y-106755710D01*
X147372444Y-106750000D01*
X148627556Y-106750000D01*
X148685529Y-106755710D01*
X148685529Y-106755710D01*
G37*
G36*
X144685529Y-106730710D02*
G01*
X144735378Y-106745831D01*
X144781310Y-106770382D01*
X144821574Y-106803426D01*
X144854618Y-106843690D01*
X144879169Y-106889622D01*
X144894290Y-106939471D01*
X144900000Y-106997444D01*
X144900000Y-108002556D01*
X144894290Y-108060529D01*
X144879169Y-108110378D01*
X144854618Y-108156310D01*
X144821574Y-108196574D01*
X144781310Y-108229618D01*
X144735378Y-108254169D01*
X144685529Y-108269290D01*
X144627556Y-108275000D01*
X143372444Y-108275000D01*
X143314471Y-108269290D01*
X143264622Y-108254169D01*
X143218690Y-108229618D01*
X143178426Y-108196574D01*
X143145382Y-108156310D01*
X143120831Y-108110378D01*
X143105710Y-108060529D01*
X143100000Y-108002556D01*
X143100000Y-106997444D01*
X143105710Y-106939471D01*
X143120831Y-106889622D01*
X143145382Y-106843690D01*
X143178426Y-106803426D01*
X143218690Y-106770382D01*
X143264622Y-106745831D01*
X143314471Y-106730710D01*
X143372444Y-106725000D01*
X144627556Y-106725000D01*
X144685529Y-106730710D01*
X144685529Y-106730710D01*
G37*
G36*
X166185529Y-104705710D02*
G01*
X166235378Y-104720831D01*
X166281310Y-104745382D01*
X166321574Y-104778426D01*
X166354618Y-104818690D01*
X166379169Y-104864622D01*
X166394290Y-104914471D01*
X166400000Y-104972444D01*
X166400000Y-105977556D01*
X166394290Y-106035529D01*
X166379169Y-106085378D01*
X166354618Y-106131310D01*
X166321574Y-106171574D01*
X166281310Y-106204618D01*
X166235378Y-106229169D01*
X166185529Y-106244290D01*
X166127556Y-106250000D01*
X164872444Y-106250000D01*
X164814471Y-106244290D01*
X164764622Y-106229169D01*
X164718690Y-106204618D01*
X164678426Y-106171574D01*
X164645382Y-106131310D01*
X164620831Y-106085378D01*
X164605710Y-106035529D01*
X164600000Y-105977556D01*
X164600000Y-104972444D01*
X164605710Y-104914471D01*
X164620831Y-104864622D01*
X164645382Y-104818690D01*
X164678426Y-104778426D01*
X164718690Y-104745382D01*
X164764622Y-104720831D01*
X164814471Y-104705710D01*
X164872444Y-104700000D01*
X166127556Y-104700000D01*
X166185529Y-104705710D01*
X166185529Y-104705710D01*
G37*
G36*
X148685529Y-104705710D02*
G01*
X148735378Y-104720831D01*
X148781310Y-104745382D01*
X148821574Y-104778426D01*
X148854618Y-104818690D01*
X148879169Y-104864622D01*
X148894290Y-104914471D01*
X148900000Y-104972444D01*
X148900000Y-105977556D01*
X148894290Y-106035529D01*
X148879169Y-106085378D01*
X148854618Y-106131310D01*
X148821574Y-106171574D01*
X148781310Y-106204618D01*
X148735378Y-106229169D01*
X148685529Y-106244290D01*
X148627556Y-106250000D01*
X147372444Y-106250000D01*
X147314471Y-106244290D01*
X147264622Y-106229169D01*
X147218690Y-106204618D01*
X147178426Y-106171574D01*
X147145382Y-106131310D01*
X147120831Y-106085378D01*
X147105710Y-106035529D01*
X147100000Y-105977556D01*
X147100000Y-104972444D01*
X147105710Y-104914471D01*
X147120831Y-104864622D01*
X147145382Y-104818690D01*
X147178426Y-104778426D01*
X147218690Y-104745382D01*
X147264622Y-104720831D01*
X147314471Y-104705710D01*
X147372444Y-104700000D01*
X148627556Y-104700000D01*
X148685529Y-104705710D01*
X148685529Y-104705710D01*
G37*
G36*
X154185529Y-104705710D02*
G01*
X154235378Y-104720831D01*
X154281310Y-104745382D01*
X154321574Y-104778426D01*
X154354618Y-104818690D01*
X154379169Y-104864622D01*
X154380383Y-104868625D01*
X154389760Y-104891263D01*
X154403374Y-104911638D01*
X154420701Y-104928965D01*
X154441075Y-104942579D01*
X154463714Y-104951956D01*
X154487747Y-104956737D01*
X154512251Y-104956737D01*
X154536285Y-104951957D01*
X154558923Y-104942580D01*
X154579298Y-104928966D01*
X154596625Y-104911639D01*
X154610239Y-104891265D01*
X154619617Y-104868625D01*
X154620831Y-104864622D01*
X154645382Y-104818690D01*
X154678426Y-104778426D01*
X154718690Y-104745382D01*
X154764622Y-104720831D01*
X154814471Y-104705710D01*
X154872444Y-104700000D01*
X156127556Y-104700000D01*
X156185529Y-104705710D01*
X156235378Y-104720831D01*
X156281310Y-104745382D01*
X156321574Y-104778426D01*
X156354618Y-104818690D01*
X156379169Y-104864622D01*
X156394290Y-104914471D01*
X156400000Y-104972444D01*
X156400000Y-105977556D01*
X156394290Y-106035529D01*
X156379169Y-106085378D01*
X156354618Y-106131310D01*
X156321574Y-106171574D01*
X156281310Y-106204618D01*
X156235378Y-106229169D01*
X156185529Y-106244290D01*
X156127556Y-106250000D01*
X154872444Y-106250000D01*
X154814471Y-106244290D01*
X154764622Y-106229169D01*
X154718690Y-106204618D01*
X154678426Y-106171574D01*
X154645382Y-106131310D01*
X154620831Y-106085378D01*
X154619617Y-106081375D01*
X154610240Y-106058737D01*
X154596626Y-106038362D01*
X154579299Y-106021035D01*
X154558925Y-106007421D01*
X154536286Y-105998044D01*
X154512253Y-105993263D01*
X154487749Y-105993263D01*
X154463715Y-105998043D01*
X154441077Y-106007420D01*
X154420702Y-106021034D01*
X154403375Y-106038361D01*
X154389761Y-106058735D01*
X154380383Y-106081375D01*
X154379169Y-106085378D01*
X154354618Y-106131310D01*
X154321574Y-106171574D01*
X154281310Y-106204618D01*
X154235378Y-106229169D01*
X154185529Y-106244290D01*
X154127556Y-106250000D01*
X152872444Y-106250000D01*
X152814471Y-106244290D01*
X152764622Y-106229169D01*
X152718690Y-106204618D01*
X152678426Y-106171574D01*
X152645382Y-106131310D01*
X152620831Y-106085378D01*
X152605710Y-106035529D01*
X152600000Y-105977556D01*
X152600000Y-104972444D01*
X152605710Y-104914471D01*
X152620831Y-104864622D01*
X152645382Y-104818690D01*
X152678426Y-104778426D01*
X152718690Y-104745382D01*
X152764622Y-104720831D01*
X152814471Y-104705710D01*
X152872444Y-104700000D01*
X154127556Y-104700000D01*
X154185529Y-104705710D01*
X154185529Y-104705710D01*
G37*
G36*
X144685529Y-104680710D02*
G01*
X144735378Y-104695831D01*
X144781310Y-104720382D01*
X144821574Y-104753426D01*
X144854618Y-104793690D01*
X144879169Y-104839622D01*
X144894290Y-104889471D01*
X144900000Y-104947444D01*
X144900000Y-105952556D01*
X144894290Y-106010529D01*
X144879169Y-106060378D01*
X144854618Y-106106310D01*
X144821574Y-106146574D01*
X144781310Y-106179618D01*
X144735378Y-106204169D01*
X144685529Y-106219290D01*
X144627556Y-106225000D01*
X143372444Y-106225000D01*
X143314471Y-106219290D01*
X143264622Y-106204169D01*
X143218690Y-106179618D01*
X143178426Y-106146574D01*
X143145382Y-106106310D01*
X143120831Y-106060378D01*
X143105710Y-106010529D01*
X143100000Y-105952556D01*
X143100000Y-104947444D01*
X143105710Y-104889471D01*
X143120831Y-104839622D01*
X143145382Y-104793690D01*
X143178426Y-104753426D01*
X143218690Y-104720382D01*
X143264622Y-104695831D01*
X143314471Y-104680710D01*
X143372444Y-104675000D01*
X144627556Y-104675000D01*
X144685529Y-104680710D01*
X144685529Y-104680710D01*
G37*
G36*
X172918500Y-103791789D02*
G01*
X173118994Y-103852608D01*
X173303759Y-103951367D01*
X173303762Y-103951369D01*
X173303763Y-103951370D01*
X173465718Y-104084282D01*
X173598630Y-104246237D01*
X173598633Y-104246241D01*
X173697392Y-104431006D01*
X173758211Y-104631500D01*
X173778746Y-104840000D01*
X173758211Y-105048500D01*
X173697392Y-105248994D01*
X173598633Y-105433759D01*
X173598631Y-105433762D01*
X173598630Y-105433763D01*
X173465718Y-105595718D01*
X173303763Y-105728630D01*
X173303759Y-105728633D01*
X173118994Y-105827392D01*
X172918500Y-105888211D01*
X172762251Y-105903600D01*
X172657749Y-105903600D01*
X172501500Y-105888211D01*
X172301006Y-105827392D01*
X172116241Y-105728633D01*
X172116237Y-105728630D01*
X171954282Y-105595718D01*
X171821370Y-105433763D01*
X171821369Y-105433762D01*
X171821367Y-105433759D01*
X171722608Y-105248994D01*
X171661789Y-105048500D01*
X171641254Y-104840000D01*
X171661789Y-104631500D01*
X171722608Y-104431006D01*
X171821367Y-104246241D01*
X171821370Y-104246237D01*
X171954282Y-104084282D01*
X172116237Y-103951370D01*
X172116238Y-103951369D01*
X172116241Y-103951367D01*
X172301006Y-103852608D01*
X172501500Y-103791789D01*
X172657749Y-103776400D01*
X172762251Y-103776400D01*
X172918500Y-103791789D01*
X172918500Y-103791789D01*
G37*
G36*
X175458500Y-103791789D02*
G01*
X175658994Y-103852608D01*
X175843759Y-103951367D01*
X175843762Y-103951369D01*
X175843763Y-103951370D01*
X176005718Y-104084282D01*
X176138630Y-104246237D01*
X176138633Y-104246241D01*
X176237392Y-104431006D01*
X176298211Y-104631500D01*
X176318746Y-104840000D01*
X176298211Y-105048500D01*
X176237392Y-105248994D01*
X176138633Y-105433759D01*
X176138631Y-105433762D01*
X176138630Y-105433763D01*
X176005718Y-105595718D01*
X175843763Y-105728630D01*
X175843759Y-105728633D01*
X175658994Y-105827392D01*
X175458500Y-105888211D01*
X175302251Y-105903600D01*
X175197749Y-105903600D01*
X175041500Y-105888211D01*
X174841006Y-105827392D01*
X174656241Y-105728633D01*
X174656237Y-105728630D01*
X174494282Y-105595718D01*
X174361370Y-105433763D01*
X174361369Y-105433762D01*
X174361367Y-105433759D01*
X174262608Y-105248994D01*
X174201789Y-105048500D01*
X174181254Y-104840000D01*
X174201789Y-104631500D01*
X174262608Y-104431006D01*
X174361367Y-104246241D01*
X174361370Y-104246237D01*
X174494282Y-104084282D01*
X174656237Y-103951370D01*
X174656238Y-103951369D01*
X174656241Y-103951367D01*
X174841006Y-103852608D01*
X175041500Y-103791789D01*
X175197749Y-103776400D01*
X175302251Y-103776400D01*
X175458500Y-103791789D01*
X175458500Y-103791789D01*
G37*
G36*
X119010529Y-101105710D02*
G01*
X119060378Y-101120831D01*
X119106310Y-101145382D01*
X119146574Y-101178426D01*
X119179618Y-101218690D01*
X119204169Y-101264622D01*
X119219290Y-101314471D01*
X119225000Y-101372444D01*
X119225000Y-102627556D01*
X119219290Y-102685529D01*
X119204169Y-102735378D01*
X119179618Y-102781310D01*
X119146574Y-102821574D01*
X119106310Y-102854618D01*
X119060378Y-102879169D01*
X119010529Y-102894290D01*
X118952556Y-102900000D01*
X117947444Y-102900000D01*
X117889471Y-102894290D01*
X117839622Y-102879169D01*
X117793690Y-102854618D01*
X117753426Y-102821574D01*
X117720382Y-102781310D01*
X117695831Y-102735378D01*
X117680710Y-102685529D01*
X117675000Y-102627556D01*
X117675000Y-101372444D01*
X117680710Y-101314471D01*
X117695831Y-101264622D01*
X117720382Y-101218690D01*
X117753426Y-101178426D01*
X117793690Y-101145382D01*
X117839622Y-101120831D01*
X117889471Y-101105710D01*
X117947444Y-101100000D01*
X118952556Y-101100000D01*
X119010529Y-101105710D01*
X119010529Y-101105710D01*
G37*
G36*
X121060529Y-101105710D02*
G01*
X121110378Y-101120831D01*
X121156310Y-101145382D01*
X121196574Y-101178426D01*
X121229618Y-101218690D01*
X121254169Y-101264622D01*
X121269290Y-101314471D01*
X121275000Y-101372444D01*
X121275000Y-102627556D01*
X121269290Y-102685529D01*
X121254169Y-102735378D01*
X121229618Y-102781310D01*
X121196574Y-102821574D01*
X121156310Y-102854618D01*
X121110378Y-102879169D01*
X121060529Y-102894290D01*
X121002556Y-102900000D01*
X119997444Y-102900000D01*
X119939471Y-102894290D01*
X119889622Y-102879169D01*
X119843690Y-102854618D01*
X119803426Y-102821574D01*
X119770382Y-102781310D01*
X119745831Y-102735378D01*
X119730710Y-102685529D01*
X119725000Y-102627556D01*
X119725000Y-101372444D01*
X119730710Y-101314471D01*
X119745831Y-101264622D01*
X119770382Y-101218690D01*
X119803426Y-101178426D01*
X119843690Y-101145382D01*
X119889622Y-101120831D01*
X119939471Y-101105710D01*
X119997444Y-101100000D01*
X121002556Y-101100000D01*
X121060529Y-101105710D01*
X121060529Y-101105710D01*
G37*
G36*
X148590000Y-102050000D02*
G01*
X146490000Y-102050000D01*
X146490000Y-99950000D01*
X148590000Y-99950000D01*
X148590000Y-102050000D01*
X148590000Y-102050000D01*
G37*
G36*
X167050000Y-102050000D02*
G01*
X164950000Y-102050000D01*
X164950000Y-99950000D01*
X167050000Y-99950000D01*
X167050000Y-102050000D01*
X167050000Y-102050000D01*
G37*
G36*
X129008707Y-99957596D02*
G01*
X129085836Y-99965193D01*
X129283762Y-100025233D01*
X129283765Y-100025234D01*
X129466170Y-100122732D01*
X129626055Y-100253945D01*
X129757268Y-100413830D01*
X129854766Y-100596235D01*
X129854767Y-100596238D01*
X129914807Y-100794164D01*
X129935080Y-101000000D01*
X129914807Y-101205836D01*
X129883813Y-101308009D01*
X129854766Y-101403765D01*
X129757268Y-101586170D01*
X129626055Y-101746055D01*
X129466170Y-101877268D01*
X129283765Y-101974766D01*
X129283762Y-101974767D01*
X129085836Y-102034807D01*
X129008707Y-102042404D01*
X128931580Y-102050000D01*
X128828420Y-102050000D01*
X128751293Y-102042403D01*
X128674164Y-102034807D01*
X128476238Y-101974767D01*
X128476235Y-101974766D01*
X128293830Y-101877268D01*
X128133945Y-101746055D01*
X128002732Y-101586170D01*
X127905234Y-101403765D01*
X127876187Y-101308009D01*
X127845193Y-101205836D01*
X127824920Y-101000000D01*
X127845193Y-100794164D01*
X127905233Y-100596238D01*
X127905234Y-100596235D01*
X128002732Y-100413830D01*
X128133945Y-100253945D01*
X128293830Y-100122732D01*
X128476235Y-100025234D01*
X128476238Y-100025233D01*
X128674164Y-99965193D01*
X128751293Y-99957596D01*
X128828420Y-99950000D01*
X128931580Y-99950000D01*
X129008707Y-99957596D01*
X129008707Y-99957596D01*
G37*
G36*
X131548707Y-99957596D02*
G01*
X131625836Y-99965193D01*
X131823762Y-100025233D01*
X131823765Y-100025234D01*
X132006170Y-100122732D01*
X132166055Y-100253945D01*
X132297268Y-100413830D01*
X132394766Y-100596235D01*
X132394767Y-100596238D01*
X132454807Y-100794164D01*
X132475080Y-101000000D01*
X132454807Y-101205836D01*
X132423813Y-101308009D01*
X132394766Y-101403765D01*
X132297268Y-101586170D01*
X132166055Y-101746055D01*
X132006170Y-101877268D01*
X131823765Y-101974766D01*
X131823762Y-101974767D01*
X131625836Y-102034807D01*
X131548707Y-102042404D01*
X131471580Y-102050000D01*
X131368420Y-102050000D01*
X131291293Y-102042403D01*
X131214164Y-102034807D01*
X131016238Y-101974767D01*
X131016235Y-101974766D01*
X130833830Y-101877268D01*
X130673945Y-101746055D01*
X130542732Y-101586170D01*
X130445234Y-101403765D01*
X130416187Y-101308009D01*
X130385193Y-101205836D01*
X130364920Y-101000000D01*
X130385193Y-100794164D01*
X130445233Y-100596238D01*
X130445234Y-100596235D01*
X130542732Y-100413830D01*
X130673945Y-100253945D01*
X130833830Y-100122732D01*
X131016235Y-100025234D01*
X131016238Y-100025233D01*
X131214164Y-99965193D01*
X131291293Y-99957596D01*
X131368420Y-99950000D01*
X131471580Y-99950000D01*
X131548707Y-99957596D01*
X131548707Y-99957596D01*
G37*
G36*
X163588707Y-99957596D02*
G01*
X163665836Y-99965193D01*
X163863762Y-100025233D01*
X163863765Y-100025234D01*
X164046170Y-100122732D01*
X164206055Y-100253945D01*
X164337268Y-100413830D01*
X164434766Y-100596235D01*
X164434767Y-100596238D01*
X164494807Y-100794164D01*
X164515080Y-101000000D01*
X164494807Y-101205836D01*
X164463813Y-101308009D01*
X164434766Y-101403765D01*
X164337268Y-101586170D01*
X164206055Y-101746055D01*
X164046170Y-101877268D01*
X163863765Y-101974766D01*
X163863762Y-101974767D01*
X163665836Y-102034807D01*
X163588707Y-102042404D01*
X163511580Y-102050000D01*
X163408420Y-102050000D01*
X163331293Y-102042403D01*
X163254164Y-102034807D01*
X163056238Y-101974767D01*
X163056235Y-101974766D01*
X162873830Y-101877268D01*
X162713945Y-101746055D01*
X162582732Y-101586170D01*
X162485234Y-101403765D01*
X162456187Y-101308009D01*
X162425193Y-101205836D01*
X162404920Y-101000000D01*
X162425193Y-100794164D01*
X162485233Y-100596238D01*
X162485234Y-100596235D01*
X162582732Y-100413830D01*
X162713945Y-100253945D01*
X162873830Y-100122732D01*
X163056235Y-100025234D01*
X163056238Y-100025233D01*
X163254164Y-99965193D01*
X163331293Y-99957596D01*
X163408420Y-99950000D01*
X163511580Y-99950000D01*
X163588707Y-99957596D01*
X163588707Y-99957596D01*
G37*
G36*
X134088707Y-99957596D02*
G01*
X134165836Y-99965193D01*
X134363762Y-100025233D01*
X134363765Y-100025234D01*
X134546170Y-100122732D01*
X134706055Y-100253945D01*
X134837268Y-100413830D01*
X134934766Y-100596235D01*
X134934767Y-100596238D01*
X134994807Y-100794164D01*
X135015080Y-101000000D01*
X134994807Y-101205836D01*
X134963813Y-101308009D01*
X134934766Y-101403765D01*
X134837268Y-101586170D01*
X134706055Y-101746055D01*
X134546170Y-101877268D01*
X134363765Y-101974766D01*
X134363762Y-101974767D01*
X134165836Y-102034807D01*
X134088707Y-102042404D01*
X134011580Y-102050000D01*
X133908420Y-102050000D01*
X133831293Y-102042403D01*
X133754164Y-102034807D01*
X133556238Y-101974767D01*
X133556235Y-101974766D01*
X133373830Y-101877268D01*
X133213945Y-101746055D01*
X133082732Y-101586170D01*
X132985234Y-101403765D01*
X132956187Y-101308009D01*
X132925193Y-101205836D01*
X132904920Y-101000000D01*
X132925193Y-100794164D01*
X132985233Y-100596238D01*
X132985234Y-100596235D01*
X133082732Y-100413830D01*
X133213945Y-100253945D01*
X133373830Y-100122732D01*
X133556235Y-100025234D01*
X133556238Y-100025233D01*
X133754164Y-99965193D01*
X133831293Y-99957596D01*
X133908420Y-99950000D01*
X134011580Y-99950000D01*
X134088707Y-99957596D01*
X134088707Y-99957596D01*
G37*
G36*
X153588707Y-99957596D02*
G01*
X153665836Y-99965193D01*
X153863762Y-100025233D01*
X153863765Y-100025234D01*
X154046170Y-100122732D01*
X154206055Y-100253945D01*
X154337268Y-100413830D01*
X154434766Y-100596235D01*
X154434767Y-100596238D01*
X154494807Y-100794164D01*
X154515080Y-101000000D01*
X154494807Y-101205836D01*
X154463813Y-101308009D01*
X154434766Y-101403765D01*
X154337268Y-101586170D01*
X154206055Y-101746055D01*
X154046170Y-101877268D01*
X153863765Y-101974766D01*
X153863762Y-101974767D01*
X153665836Y-102034807D01*
X153588707Y-102042404D01*
X153511580Y-102050000D01*
X153408420Y-102050000D01*
X153331293Y-102042403D01*
X153254164Y-102034807D01*
X153056238Y-101974767D01*
X153056235Y-101974766D01*
X152873830Y-101877268D01*
X152713945Y-101746055D01*
X152582732Y-101586170D01*
X152485234Y-101403765D01*
X152456187Y-101308009D01*
X152425193Y-101205836D01*
X152404920Y-101000000D01*
X152425193Y-100794164D01*
X152485233Y-100596238D01*
X152485234Y-100596235D01*
X152582732Y-100413830D01*
X152713945Y-100253945D01*
X152873830Y-100122732D01*
X153056235Y-100025234D01*
X153056238Y-100025233D01*
X153254164Y-99965193D01*
X153331293Y-99957596D01*
X153408420Y-99950000D01*
X153511580Y-99950000D01*
X153588707Y-99957596D01*
X153588707Y-99957596D01*
G37*
G36*
X145128707Y-99957596D02*
G01*
X145205836Y-99965193D01*
X145403762Y-100025233D01*
X145403765Y-100025234D01*
X145586170Y-100122732D01*
X145746055Y-100253945D01*
X145877268Y-100413830D01*
X145974766Y-100596235D01*
X145974767Y-100596238D01*
X146034807Y-100794164D01*
X146055080Y-101000000D01*
X146034807Y-101205836D01*
X146003813Y-101308009D01*
X145974766Y-101403765D01*
X145877268Y-101586170D01*
X145746055Y-101746055D01*
X145586170Y-101877268D01*
X145403765Y-101974766D01*
X145403762Y-101974767D01*
X145205836Y-102034807D01*
X145128707Y-102042404D01*
X145051580Y-102050000D01*
X144948420Y-102050000D01*
X144871293Y-102042403D01*
X144794164Y-102034807D01*
X144596238Y-101974767D01*
X144596235Y-101974766D01*
X144413830Y-101877268D01*
X144253945Y-101746055D01*
X144122732Y-101586170D01*
X144025234Y-101403765D01*
X143996187Y-101308009D01*
X143965193Y-101205836D01*
X143944920Y-101000000D01*
X143965193Y-100794164D01*
X144025233Y-100596238D01*
X144025234Y-100596235D01*
X144122732Y-100413830D01*
X144253945Y-100253945D01*
X144413830Y-100122732D01*
X144596235Y-100025234D01*
X144596238Y-100025233D01*
X144794164Y-99965193D01*
X144871293Y-99957596D01*
X144948420Y-99950000D01*
X145051580Y-99950000D01*
X145128707Y-99957596D01*
X145128707Y-99957596D01*
G37*
G36*
X142588707Y-99957596D02*
G01*
X142665836Y-99965193D01*
X142863762Y-100025233D01*
X142863765Y-100025234D01*
X143046170Y-100122732D01*
X143206055Y-100253945D01*
X143337268Y-100413830D01*
X143434766Y-100596235D01*
X143434767Y-100596238D01*
X143494807Y-100794164D01*
X143515080Y-101000000D01*
X143494807Y-101205836D01*
X143463813Y-101308009D01*
X143434766Y-101403765D01*
X143337268Y-101586170D01*
X143206055Y-101746055D01*
X143046170Y-101877268D01*
X142863765Y-101974766D01*
X142863762Y-101974767D01*
X142665836Y-102034807D01*
X142588707Y-102042404D01*
X142511580Y-102050000D01*
X142408420Y-102050000D01*
X142331293Y-102042403D01*
X142254164Y-102034807D01*
X142056238Y-101974767D01*
X142056235Y-101974766D01*
X141873830Y-101877268D01*
X141713945Y-101746055D01*
X141582732Y-101586170D01*
X141485234Y-101403765D01*
X141456187Y-101308009D01*
X141425193Y-101205836D01*
X141404920Y-101000000D01*
X141425193Y-100794164D01*
X141485233Y-100596238D01*
X141485234Y-100596235D01*
X141582732Y-100413830D01*
X141713945Y-100253945D01*
X141873830Y-100122732D01*
X142056235Y-100025234D01*
X142056238Y-100025233D01*
X142254164Y-99965193D01*
X142331293Y-99957596D01*
X142408420Y-99950000D01*
X142511580Y-99950000D01*
X142588707Y-99957596D01*
X142588707Y-99957596D01*
G37*
G36*
X157050000Y-102050000D02*
G01*
X154950000Y-102050000D01*
X154950000Y-99950000D01*
X157050000Y-99950000D01*
X157050000Y-102050000D01*
X157050000Y-102050000D01*
G37*
G36*
X126468707Y-99957596D02*
G01*
X126545836Y-99965193D01*
X126743762Y-100025233D01*
X126743765Y-100025234D01*
X126926170Y-100122732D01*
X127086055Y-100253945D01*
X127217268Y-100413830D01*
X127314766Y-100596235D01*
X127314767Y-100596238D01*
X127374807Y-100794164D01*
X127395080Y-101000000D01*
X127374807Y-101205836D01*
X127343813Y-101308009D01*
X127314766Y-101403765D01*
X127217268Y-101586170D01*
X127086055Y-101746055D01*
X126926170Y-101877268D01*
X126743765Y-101974766D01*
X126743762Y-101974767D01*
X126545836Y-102034807D01*
X126468707Y-102042404D01*
X126391580Y-102050000D01*
X126288420Y-102050000D01*
X126211293Y-102042403D01*
X126134164Y-102034807D01*
X125936238Y-101974767D01*
X125936235Y-101974766D01*
X125753830Y-101877268D01*
X125593945Y-101746055D01*
X125462732Y-101586170D01*
X125365234Y-101403765D01*
X125336187Y-101308009D01*
X125305193Y-101205836D01*
X125284920Y-101000000D01*
X125305193Y-100794164D01*
X125365233Y-100596238D01*
X125365234Y-100596235D01*
X125462732Y-100413830D01*
X125593945Y-100253945D01*
X125753830Y-100122732D01*
X125936235Y-100025234D01*
X125936238Y-100025233D01*
X126134164Y-99965193D01*
X126211293Y-99957596D01*
X126288420Y-99950000D01*
X126391580Y-99950000D01*
X126468707Y-99957596D01*
X126468707Y-99957596D01*
G37*
G36*
X123928707Y-99957596D02*
G01*
X124005836Y-99965193D01*
X124203762Y-100025233D01*
X124203765Y-100025234D01*
X124386170Y-100122732D01*
X124546055Y-100253945D01*
X124677268Y-100413830D01*
X124774766Y-100596235D01*
X124774767Y-100596238D01*
X124834807Y-100794164D01*
X124855080Y-101000000D01*
X124834807Y-101205836D01*
X124803813Y-101308009D01*
X124774766Y-101403765D01*
X124677268Y-101586170D01*
X124546055Y-101746055D01*
X124386170Y-101877268D01*
X124203765Y-101974766D01*
X124203762Y-101974767D01*
X124005836Y-102034807D01*
X123928707Y-102042404D01*
X123851580Y-102050000D01*
X123748420Y-102050000D01*
X123671293Y-102042403D01*
X123594164Y-102034807D01*
X123396238Y-101974767D01*
X123396235Y-101974766D01*
X123213830Y-101877268D01*
X123053945Y-101746055D01*
X122922732Y-101586170D01*
X122825234Y-101403765D01*
X122796187Y-101308009D01*
X122765193Y-101205836D01*
X122744920Y-101000000D01*
X122765193Y-100794164D01*
X122825233Y-100596238D01*
X122825234Y-100596235D01*
X122922732Y-100413830D01*
X123053945Y-100253945D01*
X123213830Y-100122732D01*
X123396235Y-100025234D01*
X123396238Y-100025233D01*
X123594164Y-99965193D01*
X123671293Y-99957596D01*
X123748420Y-99950000D01*
X123851580Y-99950000D01*
X123928707Y-99957596D01*
X123928707Y-99957596D01*
G37*
G36*
X137550000Y-102050000D02*
G01*
X135450000Y-102050000D01*
X135450000Y-99950000D01*
X137550000Y-99950000D01*
X137550000Y-102050000D01*
X137550000Y-102050000D01*
G37*
G36*
X105293706Y-99912598D02*
G01*
X105370835Y-99920194D01*
X105519177Y-99965193D01*
X105568764Y-99980235D01*
X105751169Y-100077733D01*
X105911054Y-100208946D01*
X106042267Y-100368831D01*
X106139765Y-100551236D01*
X106139766Y-100551239D01*
X106199806Y-100749165D01*
X106220079Y-100955001D01*
X106199806Y-101160837D01*
X106168323Y-101264622D01*
X106139765Y-101358766D01*
X106042267Y-101541171D01*
X105911054Y-101701056D01*
X105751169Y-101832269D01*
X105568764Y-101929767D01*
X105568761Y-101929768D01*
X105370835Y-101989808D01*
X105293706Y-101997405D01*
X105216579Y-102005001D01*
X105113419Y-102005001D01*
X105036292Y-101997405D01*
X104959163Y-101989808D01*
X104761237Y-101929768D01*
X104761234Y-101929767D01*
X104578829Y-101832269D01*
X104418944Y-101701056D01*
X104287731Y-101541171D01*
X104190233Y-101358766D01*
X104161675Y-101264622D01*
X104130192Y-101160837D01*
X104109919Y-100955001D01*
X104130192Y-100749165D01*
X104190232Y-100551239D01*
X104190233Y-100551236D01*
X104287731Y-100368831D01*
X104418944Y-100208946D01*
X104578829Y-100077733D01*
X104761234Y-99980235D01*
X104810821Y-99965193D01*
X104959163Y-99920194D01*
X105036292Y-99912598D01*
X105113419Y-99905001D01*
X105216579Y-99905001D01*
X105293706Y-99912598D01*
X105293706Y-99912598D01*
G37*
G36*
X107833706Y-99912598D02*
G01*
X107910835Y-99920194D01*
X108059177Y-99965193D01*
X108108764Y-99980235D01*
X108291169Y-100077733D01*
X108451054Y-100208946D01*
X108582267Y-100368831D01*
X108679765Y-100551236D01*
X108679766Y-100551239D01*
X108739806Y-100749165D01*
X108760079Y-100955001D01*
X108739806Y-101160837D01*
X108708323Y-101264622D01*
X108679765Y-101358766D01*
X108582267Y-101541171D01*
X108451054Y-101701056D01*
X108291169Y-101832269D01*
X108108764Y-101929767D01*
X108108761Y-101929768D01*
X107910835Y-101989808D01*
X107833706Y-101997405D01*
X107756579Y-102005001D01*
X107653419Y-102005001D01*
X107576292Y-101997405D01*
X107499163Y-101989808D01*
X107301237Y-101929768D01*
X107301234Y-101929767D01*
X107118829Y-101832269D01*
X106958944Y-101701056D01*
X106827731Y-101541171D01*
X106730233Y-101358766D01*
X106701675Y-101264622D01*
X106670192Y-101160837D01*
X106649919Y-100955001D01*
X106670192Y-100749165D01*
X106730232Y-100551239D01*
X106730233Y-100551236D01*
X106827731Y-100368831D01*
X106958944Y-100208946D01*
X107118829Y-100077733D01*
X107301234Y-99980235D01*
X107350821Y-99965193D01*
X107499163Y-99920194D01*
X107576292Y-99912598D01*
X107653419Y-99905001D01*
X107756579Y-99905001D01*
X107833706Y-99912598D01*
X107833706Y-99912598D01*
G37*
G36*
X116374999Y-102005001D02*
G01*
X114274999Y-102005001D01*
X114274999Y-99905001D01*
X116374999Y-99905001D01*
X116374999Y-102005001D01*
X116374999Y-102005001D01*
G37*
G36*
X112913706Y-99912598D02*
G01*
X112990835Y-99920194D01*
X113139177Y-99965193D01*
X113188764Y-99980235D01*
X113371169Y-100077733D01*
X113531054Y-100208946D01*
X113662267Y-100368831D01*
X113759765Y-100551236D01*
X113759766Y-100551239D01*
X113819806Y-100749165D01*
X113840079Y-100955001D01*
X113819806Y-101160837D01*
X113788323Y-101264622D01*
X113759765Y-101358766D01*
X113662267Y-101541171D01*
X113531054Y-101701056D01*
X113371169Y-101832269D01*
X113188764Y-101929767D01*
X113188761Y-101929768D01*
X112990835Y-101989808D01*
X112913706Y-101997405D01*
X112836579Y-102005001D01*
X112733419Y-102005001D01*
X112656292Y-101997405D01*
X112579163Y-101989808D01*
X112381237Y-101929768D01*
X112381234Y-101929767D01*
X112198829Y-101832269D01*
X112038944Y-101701056D01*
X111907731Y-101541171D01*
X111810233Y-101358766D01*
X111781675Y-101264622D01*
X111750192Y-101160837D01*
X111729919Y-100955001D01*
X111750192Y-100749165D01*
X111810232Y-100551239D01*
X111810233Y-100551236D01*
X111907731Y-100368831D01*
X112038944Y-100208946D01*
X112198829Y-100077733D01*
X112381234Y-99980235D01*
X112430821Y-99965193D01*
X112579163Y-99920194D01*
X112656292Y-99912598D01*
X112733419Y-99905001D01*
X112836579Y-99905001D01*
X112913706Y-99912598D01*
X112913706Y-99912598D01*
G37*
G36*
X110373706Y-99912598D02*
G01*
X110450835Y-99920194D01*
X110599177Y-99965193D01*
X110648764Y-99980235D01*
X110831169Y-100077733D01*
X110991054Y-100208946D01*
X111122267Y-100368831D01*
X111219765Y-100551236D01*
X111219766Y-100551239D01*
X111279806Y-100749165D01*
X111300079Y-100955001D01*
X111279806Y-101160837D01*
X111248323Y-101264622D01*
X111219765Y-101358766D01*
X111122267Y-101541171D01*
X110991054Y-101701056D01*
X110831169Y-101832269D01*
X110648764Y-101929767D01*
X110648761Y-101929768D01*
X110450835Y-101989808D01*
X110373706Y-101997405D01*
X110296579Y-102005001D01*
X110193419Y-102005001D01*
X110116292Y-101997405D01*
X110039163Y-101989808D01*
X109841237Y-101929768D01*
X109841234Y-101929767D01*
X109658829Y-101832269D01*
X109498944Y-101701056D01*
X109367731Y-101541171D01*
X109270233Y-101358766D01*
X109241675Y-101264622D01*
X109210192Y-101160837D01*
X109189919Y-100955001D01*
X109210192Y-100749165D01*
X109270232Y-100551239D01*
X109270233Y-100551236D01*
X109367731Y-100368831D01*
X109498944Y-100208946D01*
X109658829Y-100077733D01*
X109841234Y-99980235D01*
X109890821Y-99965193D01*
X110039163Y-99920194D01*
X110116292Y-99912598D01*
X110193419Y-99905001D01*
X110296579Y-99905001D01*
X110373706Y-99912598D01*
X110373706Y-99912598D01*
G37*
G36*
X102753706Y-99912598D02*
G01*
X102830835Y-99920194D01*
X102979177Y-99965193D01*
X103028764Y-99980235D01*
X103211169Y-100077733D01*
X103371054Y-100208946D01*
X103502267Y-100368831D01*
X103599765Y-100551236D01*
X103599766Y-100551239D01*
X103659806Y-100749165D01*
X103680079Y-100955001D01*
X103659806Y-101160837D01*
X103628323Y-101264622D01*
X103599765Y-101358766D01*
X103502267Y-101541171D01*
X103371054Y-101701056D01*
X103211169Y-101832269D01*
X103028764Y-101929767D01*
X103028761Y-101929768D01*
X102830835Y-101989808D01*
X102753706Y-101997405D01*
X102676579Y-102005001D01*
X102573419Y-102005001D01*
X102496292Y-101997405D01*
X102419163Y-101989808D01*
X102221237Y-101929768D01*
X102221234Y-101929767D01*
X102038829Y-101832269D01*
X101878944Y-101701056D01*
X101747731Y-101541171D01*
X101650233Y-101358766D01*
X101621675Y-101264622D01*
X101590192Y-101160837D01*
X101569919Y-100955001D01*
X101590192Y-100749165D01*
X101650232Y-100551239D01*
X101650233Y-100551236D01*
X101747731Y-100368831D01*
X101878944Y-100208946D01*
X102038829Y-100077733D01*
X102221234Y-99980235D01*
X102270821Y-99965193D01*
X102419163Y-99920194D01*
X102496292Y-99912598D01*
X102573419Y-99905001D01*
X102676579Y-99905001D01*
X102753706Y-99912598D01*
X102753706Y-99912598D01*
G37*
G36*
X130881281Y-92489865D02*
G01*
X131000378Y-92501595D01*
X131229594Y-92571127D01*
X131229597Y-92571128D01*
X131401517Y-92663021D01*
X131440842Y-92684041D01*
X131626002Y-92835998D01*
X131777959Y-93021158D01*
X131777961Y-93021162D01*
X131890872Y-93232403D01*
X131890873Y-93232406D01*
X131960405Y-93461622D01*
X131983883Y-93700000D01*
X131960405Y-93938378D01*
X131890873Y-94167594D01*
X131890872Y-94167597D01*
X131798979Y-94339517D01*
X131777959Y-94378842D01*
X131626002Y-94564002D01*
X131440842Y-94715959D01*
X131440838Y-94715961D01*
X131229597Y-94828872D01*
X131229594Y-94828873D01*
X131000378Y-94898405D01*
X130881281Y-94910135D01*
X130821733Y-94916000D01*
X129178267Y-94916000D01*
X129118719Y-94910135D01*
X128999622Y-94898405D01*
X128770406Y-94828873D01*
X128770403Y-94828872D01*
X128559162Y-94715961D01*
X128559158Y-94715959D01*
X128373998Y-94564002D01*
X128222041Y-94378842D01*
X128201021Y-94339517D01*
X128109128Y-94167597D01*
X128109127Y-94167594D01*
X128039595Y-93938378D01*
X128016117Y-93700000D01*
X128039595Y-93461622D01*
X128109127Y-93232406D01*
X128109128Y-93232403D01*
X128222039Y-93021162D01*
X128222041Y-93021158D01*
X128373998Y-92835998D01*
X128559158Y-92684041D01*
X128598483Y-92663021D01*
X128770403Y-92571128D01*
X128770406Y-92571127D01*
X128999622Y-92501595D01*
X129118719Y-92489865D01*
X129178267Y-92484000D01*
X130821733Y-92484000D01*
X130881281Y-92489865D01*
X130881281Y-92489865D01*
G37*
G36*
X170881281Y-92489865D02*
G01*
X171000378Y-92501595D01*
X171229594Y-92571127D01*
X171229597Y-92571128D01*
X171401517Y-92663021D01*
X171440842Y-92684041D01*
X171626002Y-92835998D01*
X171777959Y-93021158D01*
X171777961Y-93021162D01*
X171890872Y-93232403D01*
X171890873Y-93232406D01*
X171960405Y-93461622D01*
X171983883Y-93700000D01*
X171960405Y-93938378D01*
X171890873Y-94167594D01*
X171890872Y-94167597D01*
X171798979Y-94339517D01*
X171777959Y-94378842D01*
X171626002Y-94564002D01*
X171440842Y-94715959D01*
X171440838Y-94715961D01*
X171229597Y-94828872D01*
X171229594Y-94828873D01*
X171000378Y-94898405D01*
X170881281Y-94910135D01*
X170821733Y-94916000D01*
X169178267Y-94916000D01*
X169118719Y-94910135D01*
X168999622Y-94898405D01*
X168770406Y-94828873D01*
X168770403Y-94828872D01*
X168559162Y-94715961D01*
X168559158Y-94715959D01*
X168373998Y-94564002D01*
X168222041Y-94378842D01*
X168201021Y-94339517D01*
X168109128Y-94167597D01*
X168109127Y-94167594D01*
X168039595Y-93938378D01*
X168016117Y-93700000D01*
X168039595Y-93461622D01*
X168109127Y-93232406D01*
X168109128Y-93232403D01*
X168222039Y-93021162D01*
X168222041Y-93021158D01*
X168373998Y-92835998D01*
X168559158Y-92684041D01*
X168598483Y-92663021D01*
X168770403Y-92571128D01*
X168770406Y-92571127D01*
X168999622Y-92501595D01*
X169118719Y-92489865D01*
X169178267Y-92484000D01*
X170821733Y-92484000D01*
X170881281Y-92489865D01*
X170881281Y-92489865D01*
G37*
G36*
X150881281Y-92489865D02*
G01*
X151000378Y-92501595D01*
X151229594Y-92571127D01*
X151229597Y-92571128D01*
X151401517Y-92663021D01*
X151440842Y-92684041D01*
X151626002Y-92835998D01*
X151777959Y-93021158D01*
X151777961Y-93021162D01*
X151890872Y-93232403D01*
X151890873Y-93232406D01*
X151960405Y-93461622D01*
X151983883Y-93700000D01*
X151960405Y-93938378D01*
X151890873Y-94167594D01*
X151890872Y-94167597D01*
X151798979Y-94339517D01*
X151777959Y-94378842D01*
X151626002Y-94564002D01*
X151440842Y-94715959D01*
X151440838Y-94715961D01*
X151229597Y-94828872D01*
X151229594Y-94828873D01*
X151000378Y-94898405D01*
X150881281Y-94910135D01*
X150821733Y-94916000D01*
X149178267Y-94916000D01*
X149118719Y-94910135D01*
X148999622Y-94898405D01*
X148770406Y-94828873D01*
X148770403Y-94828872D01*
X148559162Y-94715961D01*
X148559158Y-94715959D01*
X148373998Y-94564002D01*
X148222041Y-94378842D01*
X148201021Y-94339517D01*
X148109128Y-94167597D01*
X148109127Y-94167594D01*
X148039595Y-93938378D01*
X148016117Y-93700000D01*
X148039595Y-93461622D01*
X148109127Y-93232406D01*
X148109128Y-93232403D01*
X148222039Y-93021162D01*
X148222041Y-93021158D01*
X148373998Y-92835998D01*
X148559158Y-92684041D01*
X148598483Y-92663021D01*
X148770403Y-92571128D01*
X148770406Y-92571127D01*
X148999622Y-92501595D01*
X149118719Y-92489865D01*
X149178267Y-92484000D01*
X150821733Y-92484000D01*
X150881281Y-92489865D01*
X150881281Y-92489865D01*
G37*
G36*
X110881281Y-92489865D02*
G01*
X111000378Y-92501595D01*
X111229594Y-92571127D01*
X111229597Y-92571128D01*
X111401517Y-92663021D01*
X111440842Y-92684041D01*
X111626002Y-92835998D01*
X111777959Y-93021158D01*
X111777961Y-93021162D01*
X111890872Y-93232403D01*
X111890873Y-93232406D01*
X111960405Y-93461622D01*
X111983883Y-93700000D01*
X111960405Y-93938378D01*
X111890873Y-94167594D01*
X111890872Y-94167597D01*
X111798979Y-94339517D01*
X111777959Y-94378842D01*
X111626002Y-94564002D01*
X111440842Y-94715959D01*
X111440838Y-94715961D01*
X111229597Y-94828872D01*
X111229594Y-94828873D01*
X111000378Y-94898405D01*
X110881281Y-94910135D01*
X110821733Y-94916000D01*
X109178267Y-94916000D01*
X109118719Y-94910135D01*
X108999622Y-94898405D01*
X108770406Y-94828873D01*
X108770403Y-94828872D01*
X108559162Y-94715961D01*
X108559158Y-94715959D01*
X108373998Y-94564002D01*
X108222041Y-94378842D01*
X108201021Y-94339517D01*
X108109128Y-94167597D01*
X108109127Y-94167594D01*
X108039595Y-93938378D01*
X108016117Y-93700000D01*
X108039595Y-93461622D01*
X108109127Y-93232406D01*
X108109128Y-93232403D01*
X108222039Y-93021162D01*
X108222041Y-93021158D01*
X108373998Y-92835998D01*
X108559158Y-92684041D01*
X108598483Y-92663021D01*
X108770403Y-92571128D01*
X108770406Y-92571127D01*
X108999622Y-92501595D01*
X109118719Y-92489865D01*
X109178267Y-92484000D01*
X110821733Y-92484000D01*
X110881281Y-92489865D01*
X110881281Y-92489865D01*
G37*
G36*
X102628707Y-91657596D02*
G01*
X102705836Y-91665193D01*
X102903762Y-91725233D01*
X102903765Y-91725234D01*
X103086170Y-91822732D01*
X103246055Y-91953945D01*
X103377268Y-92113830D01*
X103474766Y-92296235D01*
X103474767Y-92296238D01*
X103534807Y-92494164D01*
X103555080Y-92700000D01*
X103534807Y-92905836D01*
X103499823Y-93021162D01*
X103474766Y-93103765D01*
X103377268Y-93286170D01*
X103246055Y-93446055D01*
X103086170Y-93577268D01*
X102903765Y-93674766D01*
X102903762Y-93674767D01*
X102705836Y-93734807D01*
X102628707Y-93742403D01*
X102551580Y-93750000D01*
X102448420Y-93750000D01*
X102371293Y-93742403D01*
X102294164Y-93734807D01*
X102096238Y-93674767D01*
X102096235Y-93674766D01*
X101913830Y-93577268D01*
X101753945Y-93446055D01*
X101622732Y-93286170D01*
X101525234Y-93103765D01*
X101500177Y-93021162D01*
X101465193Y-92905836D01*
X101444920Y-92700000D01*
X101465193Y-92494164D01*
X101525233Y-92296238D01*
X101525234Y-92296235D01*
X101622732Y-92113830D01*
X101753945Y-91953945D01*
X101913830Y-91822732D01*
X102096235Y-91725234D01*
X102096238Y-91725233D01*
X102294164Y-91665193D01*
X102371293Y-91657596D01*
X102448420Y-91650000D01*
X102551580Y-91650000D01*
X102628707Y-91657596D01*
X102628707Y-91657596D01*
G37*
G36*
X102628707Y-89117596D02*
G01*
X102705836Y-89125193D01*
X102903762Y-89185233D01*
X102903765Y-89185234D01*
X103086170Y-89282732D01*
X103246055Y-89413945D01*
X103377268Y-89573830D01*
X103474766Y-89756235D01*
X103474767Y-89756238D01*
X103534807Y-89954164D01*
X103555080Y-90160000D01*
X103534807Y-90365836D01*
X103474767Y-90563762D01*
X103474766Y-90563765D01*
X103377268Y-90746170D01*
X103246055Y-90906055D01*
X103086170Y-91037268D01*
X102903765Y-91134766D01*
X102903762Y-91134767D01*
X102705836Y-91194807D01*
X102628707Y-91202404D01*
X102551580Y-91210000D01*
X102448420Y-91210000D01*
X102371293Y-91202404D01*
X102294164Y-91194807D01*
X102096238Y-91134767D01*
X102096235Y-91134766D01*
X101913830Y-91037268D01*
X101753945Y-90906055D01*
X101622732Y-90746170D01*
X101525234Y-90563765D01*
X101525233Y-90563762D01*
X101465193Y-90365836D01*
X101444920Y-90160000D01*
X101465193Y-89954164D01*
X101525233Y-89756238D01*
X101525234Y-89756235D01*
X101622732Y-89573830D01*
X101753945Y-89413945D01*
X101913830Y-89282732D01*
X102096235Y-89185234D01*
X102096238Y-89185233D01*
X102294164Y-89125193D01*
X102371293Y-89117596D01*
X102448420Y-89110000D01*
X102551580Y-89110000D01*
X102628707Y-89117596D01*
X102628707Y-89117596D01*
G37*
G36*
X170881281Y-87789865D02*
G01*
X171000378Y-87801595D01*
X171229594Y-87871127D01*
X171229597Y-87871128D01*
X171401517Y-87963021D01*
X171440842Y-87984041D01*
X171626002Y-88135998D01*
X171777959Y-88321158D01*
X171777961Y-88321162D01*
X171890872Y-88532403D01*
X171890873Y-88532406D01*
X171960405Y-88761622D01*
X171983883Y-89000000D01*
X171960405Y-89238378D01*
X171946950Y-89282732D01*
X171890872Y-89467597D01*
X171834089Y-89573830D01*
X171777959Y-89678842D01*
X171626002Y-89864002D01*
X171440842Y-90015959D01*
X171440838Y-90015961D01*
X171229597Y-90128872D01*
X171229594Y-90128873D01*
X171000378Y-90198405D01*
X170881281Y-90210135D01*
X170821733Y-90216000D01*
X169178267Y-90216000D01*
X169118719Y-90210135D01*
X168999622Y-90198405D01*
X168770406Y-90128873D01*
X168770403Y-90128872D01*
X168559162Y-90015961D01*
X168559158Y-90015959D01*
X168373998Y-89864002D01*
X168222041Y-89678842D01*
X168165911Y-89573830D01*
X168109128Y-89467597D01*
X168053050Y-89282732D01*
X168039595Y-89238378D01*
X168016117Y-89000000D01*
X168039595Y-88761622D01*
X168109127Y-88532406D01*
X168109128Y-88532403D01*
X168222039Y-88321162D01*
X168222041Y-88321158D01*
X168373998Y-88135998D01*
X168559158Y-87984041D01*
X168598483Y-87963021D01*
X168770403Y-87871128D01*
X168770406Y-87871127D01*
X168999622Y-87801595D01*
X169118719Y-87789865D01*
X169178267Y-87784000D01*
X170821733Y-87784000D01*
X170881281Y-87789865D01*
X170881281Y-87789865D01*
G37*
G36*
X110881281Y-87789865D02*
G01*
X111000378Y-87801595D01*
X111229594Y-87871127D01*
X111229597Y-87871128D01*
X111401517Y-87963021D01*
X111440842Y-87984041D01*
X111626002Y-88135998D01*
X111777959Y-88321158D01*
X111777961Y-88321162D01*
X111890872Y-88532403D01*
X111890873Y-88532406D01*
X111960405Y-88761622D01*
X111983883Y-89000000D01*
X111960405Y-89238378D01*
X111946950Y-89282732D01*
X111890872Y-89467597D01*
X111834089Y-89573830D01*
X111777959Y-89678842D01*
X111626002Y-89864002D01*
X111440842Y-90015959D01*
X111440838Y-90015961D01*
X111229597Y-90128872D01*
X111229594Y-90128873D01*
X111000378Y-90198405D01*
X110881281Y-90210135D01*
X110821733Y-90216000D01*
X109178267Y-90216000D01*
X109118719Y-90210135D01*
X108999622Y-90198405D01*
X108770406Y-90128873D01*
X108770403Y-90128872D01*
X108559162Y-90015961D01*
X108559158Y-90015959D01*
X108373998Y-89864002D01*
X108222041Y-89678842D01*
X108165911Y-89573830D01*
X108109128Y-89467597D01*
X108053050Y-89282732D01*
X108039595Y-89238378D01*
X108016117Y-89000000D01*
X108039595Y-88761622D01*
X108109127Y-88532406D01*
X108109128Y-88532403D01*
X108222039Y-88321162D01*
X108222041Y-88321158D01*
X108373998Y-88135998D01*
X108559158Y-87984041D01*
X108598483Y-87963021D01*
X108770403Y-87871128D01*
X108770406Y-87871127D01*
X108999622Y-87801595D01*
X109118719Y-87789865D01*
X109178267Y-87784000D01*
X110821733Y-87784000D01*
X110881281Y-87789865D01*
X110881281Y-87789865D01*
G37*
G36*
X130881281Y-87789865D02*
G01*
X131000378Y-87801595D01*
X131229594Y-87871127D01*
X131229597Y-87871128D01*
X131401517Y-87963021D01*
X131440842Y-87984041D01*
X131626002Y-88135998D01*
X131777959Y-88321158D01*
X131777961Y-88321162D01*
X131890872Y-88532403D01*
X131890873Y-88532406D01*
X131960405Y-88761622D01*
X131983883Y-89000000D01*
X131960405Y-89238378D01*
X131946950Y-89282732D01*
X131890872Y-89467597D01*
X131834089Y-89573830D01*
X131777959Y-89678842D01*
X131626002Y-89864002D01*
X131440842Y-90015959D01*
X131440838Y-90015961D01*
X131229597Y-90128872D01*
X131229594Y-90128873D01*
X131000378Y-90198405D01*
X130881281Y-90210135D01*
X130821733Y-90216000D01*
X129178267Y-90216000D01*
X129118719Y-90210135D01*
X128999622Y-90198405D01*
X128770406Y-90128873D01*
X128770403Y-90128872D01*
X128559162Y-90015961D01*
X128559158Y-90015959D01*
X128373998Y-89864002D01*
X128222041Y-89678842D01*
X128165911Y-89573830D01*
X128109128Y-89467597D01*
X128053050Y-89282732D01*
X128039595Y-89238378D01*
X128016117Y-89000000D01*
X128039595Y-88761622D01*
X128109127Y-88532406D01*
X128109128Y-88532403D01*
X128222039Y-88321162D01*
X128222041Y-88321158D01*
X128373998Y-88135998D01*
X128559158Y-87984041D01*
X128598483Y-87963021D01*
X128770403Y-87871128D01*
X128770406Y-87871127D01*
X128999622Y-87801595D01*
X129118719Y-87789865D01*
X129178267Y-87784000D01*
X130821733Y-87784000D01*
X130881281Y-87789865D01*
X130881281Y-87789865D01*
G37*
G36*
X150881281Y-87789865D02*
G01*
X151000378Y-87801595D01*
X151229594Y-87871127D01*
X151229597Y-87871128D01*
X151401517Y-87963021D01*
X151440842Y-87984041D01*
X151626002Y-88135998D01*
X151777959Y-88321158D01*
X151777961Y-88321162D01*
X151890872Y-88532403D01*
X151890873Y-88532406D01*
X151960405Y-88761622D01*
X151983883Y-89000000D01*
X151960405Y-89238378D01*
X151946950Y-89282732D01*
X151890872Y-89467597D01*
X151834089Y-89573830D01*
X151777959Y-89678842D01*
X151626002Y-89864002D01*
X151440842Y-90015959D01*
X151440838Y-90015961D01*
X151229597Y-90128872D01*
X151229594Y-90128873D01*
X151000378Y-90198405D01*
X150881281Y-90210135D01*
X150821733Y-90216000D01*
X149178267Y-90216000D01*
X149118719Y-90210135D01*
X148999622Y-90198405D01*
X148770406Y-90128873D01*
X148770403Y-90128872D01*
X148559162Y-90015961D01*
X148559158Y-90015959D01*
X148373998Y-89864002D01*
X148222041Y-89678842D01*
X148165911Y-89573830D01*
X148109128Y-89467597D01*
X148053050Y-89282732D01*
X148039595Y-89238378D01*
X148016117Y-89000000D01*
X148039595Y-88761622D01*
X148109127Y-88532406D01*
X148109128Y-88532403D01*
X148222039Y-88321162D01*
X148222041Y-88321158D01*
X148373998Y-88135998D01*
X148559158Y-87984041D01*
X148598483Y-87963021D01*
X148770403Y-87871128D01*
X148770406Y-87871127D01*
X148999622Y-87801595D01*
X149118719Y-87789865D01*
X149178267Y-87784000D01*
X150821733Y-87784000D01*
X150881281Y-87789865D01*
X150881281Y-87789865D01*
G37*
G36*
X102628707Y-86577597D02*
G01*
X102705836Y-86585193D01*
X102903762Y-86645233D01*
X102903765Y-86645234D01*
X103086170Y-86742732D01*
X103246055Y-86873945D01*
X103377268Y-87033830D01*
X103474766Y-87216235D01*
X103474767Y-87216238D01*
X103534807Y-87414164D01*
X103555080Y-87620000D01*
X103534807Y-87825836D01*
X103486817Y-87984039D01*
X103474766Y-88023765D01*
X103377268Y-88206170D01*
X103246055Y-88366055D01*
X103086170Y-88497268D01*
X102903765Y-88594766D01*
X102903762Y-88594767D01*
X102705836Y-88654807D01*
X102628707Y-88662404D01*
X102551580Y-88670000D01*
X102448420Y-88670000D01*
X102371293Y-88662404D01*
X102294164Y-88654807D01*
X102096238Y-88594767D01*
X102096235Y-88594766D01*
X101913830Y-88497268D01*
X101753945Y-88366055D01*
X101622732Y-88206170D01*
X101525234Y-88023765D01*
X101513183Y-87984039D01*
X101465193Y-87825836D01*
X101444920Y-87620000D01*
X101465193Y-87414164D01*
X101525233Y-87216238D01*
X101525234Y-87216235D01*
X101622732Y-87033830D01*
X101753945Y-86873945D01*
X101913830Y-86742732D01*
X102096235Y-86645234D01*
X102096238Y-86645233D01*
X102294164Y-86585193D01*
X102371293Y-86577597D01*
X102448420Y-86570000D01*
X102551580Y-86570000D01*
X102628707Y-86577597D01*
X102628707Y-86577597D01*
G37*
G36*
X102628707Y-84037596D02*
G01*
X102705836Y-84045193D01*
X102903762Y-84105233D01*
X102903765Y-84105234D01*
X103086170Y-84202732D01*
X103246055Y-84333945D01*
X103377268Y-84493830D01*
X103474766Y-84676235D01*
X103474767Y-84676238D01*
X103534807Y-84874164D01*
X103555080Y-85080000D01*
X103534807Y-85285836D01*
X103491417Y-85428873D01*
X103474766Y-85483765D01*
X103377268Y-85666170D01*
X103246055Y-85826055D01*
X103086170Y-85957268D01*
X102903765Y-86054766D01*
X102903762Y-86054767D01*
X102705836Y-86114807D01*
X102628707Y-86122403D01*
X102551580Y-86130000D01*
X102448420Y-86130000D01*
X102371293Y-86122403D01*
X102294164Y-86114807D01*
X102096238Y-86054767D01*
X102096235Y-86054766D01*
X101913830Y-85957268D01*
X101753945Y-85826055D01*
X101622732Y-85666170D01*
X101525234Y-85483765D01*
X101508583Y-85428873D01*
X101465193Y-85285836D01*
X101444920Y-85080000D01*
X101465193Y-84874164D01*
X101525233Y-84676238D01*
X101525234Y-84676235D01*
X101622732Y-84493830D01*
X101753945Y-84333945D01*
X101913830Y-84202732D01*
X102096235Y-84105234D01*
X102096238Y-84105233D01*
X102294164Y-84045193D01*
X102371293Y-84037596D01*
X102448420Y-84030000D01*
X102551580Y-84030000D01*
X102628707Y-84037596D01*
X102628707Y-84037596D01*
G37*
G36*
X130881281Y-83089865D02*
G01*
X131000378Y-83101595D01*
X131229594Y-83171127D01*
X131229597Y-83171128D01*
X131401517Y-83263021D01*
X131440842Y-83284041D01*
X131626002Y-83435998D01*
X131777959Y-83621158D01*
X131777961Y-83621162D01*
X131890872Y-83832403D01*
X131890873Y-83832406D01*
X131960405Y-84061622D01*
X131983883Y-84300000D01*
X131960405Y-84538378D01*
X131890873Y-84767594D01*
X131890872Y-84767597D01*
X131798979Y-84939517D01*
X131777959Y-84978842D01*
X131626002Y-85164002D01*
X131440842Y-85315959D01*
X131440838Y-85315961D01*
X131229597Y-85428872D01*
X131229594Y-85428873D01*
X131000378Y-85498405D01*
X130881281Y-85510135D01*
X130821733Y-85516000D01*
X129178267Y-85516000D01*
X129118719Y-85510135D01*
X128999622Y-85498405D01*
X128770406Y-85428873D01*
X128770403Y-85428872D01*
X128559162Y-85315961D01*
X128559158Y-85315959D01*
X128373998Y-85164002D01*
X128222041Y-84978842D01*
X128201021Y-84939517D01*
X128109128Y-84767597D01*
X128109127Y-84767594D01*
X128039595Y-84538378D01*
X128016117Y-84300000D01*
X128039595Y-84061622D01*
X128109127Y-83832406D01*
X128109128Y-83832403D01*
X128222039Y-83621162D01*
X128222041Y-83621158D01*
X128373998Y-83435998D01*
X128559158Y-83284041D01*
X128598483Y-83263021D01*
X128770403Y-83171128D01*
X128770406Y-83171127D01*
X128999622Y-83101595D01*
X129118719Y-83089865D01*
X129178267Y-83084000D01*
X130821733Y-83084000D01*
X130881281Y-83089865D01*
X130881281Y-83089865D01*
G37*
G36*
X110881281Y-83089865D02*
G01*
X111000378Y-83101595D01*
X111229594Y-83171127D01*
X111229597Y-83171128D01*
X111401517Y-83263021D01*
X111440842Y-83284041D01*
X111626002Y-83435998D01*
X111777959Y-83621158D01*
X111777961Y-83621162D01*
X111890872Y-83832403D01*
X111890873Y-83832406D01*
X111960405Y-84061622D01*
X111983883Y-84300000D01*
X111960405Y-84538378D01*
X111890873Y-84767594D01*
X111890872Y-84767597D01*
X111798979Y-84939517D01*
X111777959Y-84978842D01*
X111626002Y-85164002D01*
X111440842Y-85315959D01*
X111440838Y-85315961D01*
X111229597Y-85428872D01*
X111229594Y-85428873D01*
X111000378Y-85498405D01*
X110881281Y-85510135D01*
X110821733Y-85516000D01*
X109178267Y-85516000D01*
X109118719Y-85510135D01*
X108999622Y-85498405D01*
X108770406Y-85428873D01*
X108770403Y-85428872D01*
X108559162Y-85315961D01*
X108559158Y-85315959D01*
X108373998Y-85164002D01*
X108222041Y-84978842D01*
X108201021Y-84939517D01*
X108109128Y-84767597D01*
X108109127Y-84767594D01*
X108039595Y-84538378D01*
X108016117Y-84300000D01*
X108039595Y-84061622D01*
X108109127Y-83832406D01*
X108109128Y-83832403D01*
X108222039Y-83621162D01*
X108222041Y-83621158D01*
X108373998Y-83435998D01*
X108559158Y-83284041D01*
X108598483Y-83263021D01*
X108770403Y-83171128D01*
X108770406Y-83171127D01*
X108999622Y-83101595D01*
X109118719Y-83089865D01*
X109178267Y-83084000D01*
X110821733Y-83084000D01*
X110881281Y-83089865D01*
X110881281Y-83089865D01*
G37*
G36*
X150881281Y-83089865D02*
G01*
X151000378Y-83101595D01*
X151229594Y-83171127D01*
X151229597Y-83171128D01*
X151401517Y-83263021D01*
X151440842Y-83284041D01*
X151626002Y-83435998D01*
X151777959Y-83621158D01*
X151777961Y-83621162D01*
X151890872Y-83832403D01*
X151890873Y-83832406D01*
X151960405Y-84061622D01*
X151983883Y-84300000D01*
X151960405Y-84538378D01*
X151890873Y-84767594D01*
X151890872Y-84767597D01*
X151798979Y-84939517D01*
X151777959Y-84978842D01*
X151626002Y-85164002D01*
X151440842Y-85315959D01*
X151440838Y-85315961D01*
X151229597Y-85428872D01*
X151229594Y-85428873D01*
X151000378Y-85498405D01*
X150881281Y-85510135D01*
X150821733Y-85516000D01*
X149178267Y-85516000D01*
X149118719Y-85510135D01*
X148999622Y-85498405D01*
X148770406Y-85428873D01*
X148770403Y-85428872D01*
X148559162Y-85315961D01*
X148559158Y-85315959D01*
X148373998Y-85164002D01*
X148222041Y-84978842D01*
X148201021Y-84939517D01*
X148109128Y-84767597D01*
X148109127Y-84767594D01*
X148039595Y-84538378D01*
X148016117Y-84300000D01*
X148039595Y-84061622D01*
X148109127Y-83832406D01*
X148109128Y-83832403D01*
X148222039Y-83621162D01*
X148222041Y-83621158D01*
X148373998Y-83435998D01*
X148559158Y-83284041D01*
X148598483Y-83263021D01*
X148770403Y-83171128D01*
X148770406Y-83171127D01*
X148999622Y-83101595D01*
X149118719Y-83089865D01*
X149178267Y-83084000D01*
X150821733Y-83084000D01*
X150881281Y-83089865D01*
X150881281Y-83089865D01*
G37*
G36*
X170881281Y-83089865D02*
G01*
X171000378Y-83101595D01*
X171229594Y-83171127D01*
X171229597Y-83171128D01*
X171401517Y-83263021D01*
X171440842Y-83284041D01*
X171626002Y-83435998D01*
X171777959Y-83621158D01*
X171777961Y-83621162D01*
X171890872Y-83832403D01*
X171890873Y-83832406D01*
X171960405Y-84061622D01*
X171983883Y-84300000D01*
X171960405Y-84538378D01*
X171890873Y-84767594D01*
X171890872Y-84767597D01*
X171798979Y-84939517D01*
X171777959Y-84978842D01*
X171626002Y-85164002D01*
X171440842Y-85315959D01*
X171440838Y-85315961D01*
X171229597Y-85428872D01*
X171229594Y-85428873D01*
X171000378Y-85498405D01*
X170881281Y-85510135D01*
X170821733Y-85516000D01*
X169178267Y-85516000D01*
X169118719Y-85510135D01*
X168999622Y-85498405D01*
X168770406Y-85428873D01*
X168770403Y-85428872D01*
X168559162Y-85315961D01*
X168559158Y-85315959D01*
X168373998Y-85164002D01*
X168222041Y-84978842D01*
X168201021Y-84939517D01*
X168109128Y-84767597D01*
X168109127Y-84767594D01*
X168039595Y-84538378D01*
X168016117Y-84300000D01*
X168039595Y-84061622D01*
X168109127Y-83832406D01*
X168109128Y-83832403D01*
X168222039Y-83621162D01*
X168222041Y-83621158D01*
X168373998Y-83435998D01*
X168559158Y-83284041D01*
X168598483Y-83263021D01*
X168770403Y-83171128D01*
X168770406Y-83171127D01*
X168999622Y-83101595D01*
X169118719Y-83089865D01*
X169178267Y-83084000D01*
X170821733Y-83084000D01*
X170881281Y-83089865D01*
X170881281Y-83089865D01*
G37*
G36*
X102628707Y-81497597D02*
G01*
X102705836Y-81505193D01*
X102903762Y-81565233D01*
X102903765Y-81565234D01*
X103086170Y-81662732D01*
X103246055Y-81793945D01*
X103377268Y-81953830D01*
X103474766Y-82136235D01*
X103474767Y-82136238D01*
X103534807Y-82334164D01*
X103555080Y-82540000D01*
X103534807Y-82745836D01*
X103474767Y-82943762D01*
X103474766Y-82943765D01*
X103377268Y-83126170D01*
X103246055Y-83286055D01*
X103086170Y-83417268D01*
X102903765Y-83514766D01*
X102903762Y-83514767D01*
X102705836Y-83574807D01*
X102628707Y-83582404D01*
X102551580Y-83590000D01*
X102448420Y-83590000D01*
X102371293Y-83582404D01*
X102294164Y-83574807D01*
X102096238Y-83514767D01*
X102096235Y-83514766D01*
X101913830Y-83417268D01*
X101753945Y-83286055D01*
X101622732Y-83126170D01*
X101525234Y-82943765D01*
X101525233Y-82943762D01*
X101465193Y-82745836D01*
X101444920Y-82540000D01*
X101465193Y-82334164D01*
X101525233Y-82136238D01*
X101525234Y-82136235D01*
X101622732Y-81953830D01*
X101753945Y-81793945D01*
X101913830Y-81662732D01*
X102096235Y-81565234D01*
X102096238Y-81565233D01*
X102294164Y-81505193D01*
X102371293Y-81497597D01*
X102448420Y-81490000D01*
X102551580Y-81490000D01*
X102628707Y-81497597D01*
X102628707Y-81497597D01*
G37*
G36*
X103550000Y-81050000D02*
G01*
X101450000Y-81050000D01*
X101450000Y-78950000D01*
X103550000Y-78950000D01*
X103550000Y-81050000D01*
X103550000Y-81050000D01*
G37*
G36*
X170166759Y-72708199D02*
G01*
X170333258Y-72724598D01*
X170650584Y-72820858D01*
X170653712Y-72821807D01*
X170949035Y-72979660D01*
X170949038Y-72979662D01*
X170949039Y-72979663D01*
X171207897Y-73192103D01*
X171341113Y-73354426D01*
X171420340Y-73450965D01*
X171578193Y-73746288D01*
X171578194Y-73746291D01*
X171675402Y-74066742D01*
X171708225Y-74400000D01*
X171675402Y-74733258D01*
X171578194Y-75053709D01*
X171578193Y-75053712D01*
X171420340Y-75349035D01*
X171207897Y-75607897D01*
X170949035Y-75820340D01*
X170653712Y-75978193D01*
X170653709Y-75978194D01*
X170333258Y-76075402D01*
X170166759Y-76091801D01*
X170083511Y-76100000D01*
X168916489Y-76100000D01*
X168833241Y-76091801D01*
X168666742Y-76075402D01*
X168346291Y-75978194D01*
X168346288Y-75978193D01*
X168050965Y-75820340D01*
X167792103Y-75607897D01*
X167579660Y-75349035D01*
X167421807Y-75053712D01*
X167421806Y-75053709D01*
X167324598Y-74733258D01*
X167291775Y-74400000D01*
X167324598Y-74066742D01*
X167421806Y-73746291D01*
X167421807Y-73746288D01*
X167579660Y-73450965D01*
X167658888Y-73354426D01*
X167792103Y-73192103D01*
X168050961Y-72979663D01*
X168050962Y-72979662D01*
X168050965Y-72979660D01*
X168346288Y-72821807D01*
X168349416Y-72820858D01*
X168666742Y-72724598D01*
X168833241Y-72708199D01*
X168916489Y-72700000D01*
X170083511Y-72700000D01*
X170166759Y-72708199D01*
X170166759Y-72708199D01*
G37*
G36*
X110166759Y-72708199D02*
G01*
X110333258Y-72724598D01*
X110650584Y-72820858D01*
X110653712Y-72821807D01*
X110949035Y-72979660D01*
X110949038Y-72979662D01*
X110949039Y-72979663D01*
X111207897Y-73192103D01*
X111341113Y-73354426D01*
X111420340Y-73450965D01*
X111578193Y-73746288D01*
X111578194Y-73746291D01*
X111675402Y-74066742D01*
X111708225Y-74400000D01*
X111675402Y-74733258D01*
X111578194Y-75053709D01*
X111578193Y-75053712D01*
X111420340Y-75349035D01*
X111207897Y-75607897D01*
X110949035Y-75820340D01*
X110653712Y-75978193D01*
X110653709Y-75978194D01*
X110333258Y-76075402D01*
X110166759Y-76091801D01*
X110083511Y-76100000D01*
X108916489Y-76100000D01*
X108833241Y-76091801D01*
X108666742Y-76075402D01*
X108346291Y-75978194D01*
X108346288Y-75978193D01*
X108050965Y-75820340D01*
X107792103Y-75607897D01*
X107579660Y-75349035D01*
X107421807Y-75053712D01*
X107421806Y-75053709D01*
X107324598Y-74733258D01*
X107291775Y-74400000D01*
X107324598Y-74066742D01*
X107421806Y-73746291D01*
X107421807Y-73746288D01*
X107579660Y-73450965D01*
X107658888Y-73354426D01*
X107792103Y-73192103D01*
X108050961Y-72979663D01*
X108050962Y-72979662D01*
X108050965Y-72979660D01*
X108346288Y-72821807D01*
X108349416Y-72820858D01*
X108666742Y-72724598D01*
X108833241Y-72708199D01*
X108916489Y-72700000D01*
X110083511Y-72700000D01*
X110166759Y-72708199D01*
X110166759Y-72708199D01*
G37*
G36*
X130166759Y-72708199D02*
G01*
X130333258Y-72724598D01*
X130650584Y-72820858D01*
X130653712Y-72821807D01*
X130949035Y-72979660D01*
X130949038Y-72979662D01*
X130949039Y-72979663D01*
X131207897Y-73192103D01*
X131341113Y-73354426D01*
X131420340Y-73450965D01*
X131578193Y-73746288D01*
X131578194Y-73746291D01*
X131675402Y-74066742D01*
X131708225Y-74400000D01*
X131675402Y-74733258D01*
X131578194Y-75053709D01*
X131578193Y-75053712D01*
X131420340Y-75349035D01*
X131207897Y-75607897D01*
X130949035Y-75820340D01*
X130653712Y-75978193D01*
X130653709Y-75978194D01*
X130333258Y-76075402D01*
X130166759Y-76091801D01*
X130083511Y-76100000D01*
X128916489Y-76100000D01*
X128833241Y-76091801D01*
X128666742Y-76075402D01*
X128346291Y-75978194D01*
X128346288Y-75978193D01*
X128050965Y-75820340D01*
X127792103Y-75607897D01*
X127579660Y-75349035D01*
X127421807Y-75053712D01*
X127421806Y-75053709D01*
X127324598Y-74733258D01*
X127291775Y-74400000D01*
X127324598Y-74066742D01*
X127421806Y-73746291D01*
X127421807Y-73746288D01*
X127579660Y-73450965D01*
X127658888Y-73354426D01*
X127792103Y-73192103D01*
X128050961Y-72979663D01*
X128050962Y-72979662D01*
X128050965Y-72979660D01*
X128346288Y-72821807D01*
X128349416Y-72820858D01*
X128666742Y-72724598D01*
X128833241Y-72708199D01*
X128916489Y-72700000D01*
X130083511Y-72700000D01*
X130166759Y-72708199D01*
X130166759Y-72708199D01*
G37*
G36*
X150166759Y-72708199D02*
G01*
X150333258Y-72724598D01*
X150650584Y-72820858D01*
X150653712Y-72821807D01*
X150949035Y-72979660D01*
X150949038Y-72979662D01*
X150949039Y-72979663D01*
X151207897Y-73192103D01*
X151341113Y-73354426D01*
X151420340Y-73450965D01*
X151578193Y-73746288D01*
X151578194Y-73746291D01*
X151675402Y-74066742D01*
X151708225Y-74400000D01*
X151675402Y-74733258D01*
X151578194Y-75053709D01*
X151578193Y-75053712D01*
X151420340Y-75349035D01*
X151207897Y-75607897D01*
X150949035Y-75820340D01*
X150653712Y-75978193D01*
X150653709Y-75978194D01*
X150333258Y-76075402D01*
X150166759Y-76091801D01*
X150083511Y-76100000D01*
X148916489Y-76100000D01*
X148833241Y-76091801D01*
X148666742Y-76075402D01*
X148346291Y-75978194D01*
X148346288Y-75978193D01*
X148050965Y-75820340D01*
X147792103Y-75607897D01*
X147579660Y-75349035D01*
X147421807Y-75053712D01*
X147421806Y-75053709D01*
X147324598Y-74733258D01*
X147291775Y-74400000D01*
X147324598Y-74066742D01*
X147421806Y-73746291D01*
X147421807Y-73746288D01*
X147579660Y-73450965D01*
X147658888Y-73354426D01*
X147792103Y-73192103D01*
X148050961Y-72979663D01*
X148050962Y-72979662D01*
X148050965Y-72979660D01*
X148346288Y-72821807D01*
X148349416Y-72820858D01*
X148666742Y-72724598D01*
X148833241Y-72708199D01*
X148916489Y-72700000D01*
X150083511Y-72700000D01*
X150166759Y-72708199D01*
X150166759Y-72708199D01*
G37*
G36*
X142820857Y-71442272D02*
G01*
X143021043Y-71525192D01*
X143021045Y-71525193D01*
X143111738Y-71585792D01*
X143201208Y-71645574D01*
X143354426Y-71798792D01*
X143474808Y-71978957D01*
X143557728Y-72179143D01*
X143600000Y-72391658D01*
X143600000Y-72608342D01*
X143557728Y-72820857D01*
X143474808Y-73021043D01*
X143360510Y-73192103D01*
X143354425Y-73201209D01*
X143201209Y-73354425D01*
X143021045Y-73474807D01*
X143021044Y-73474808D01*
X143021043Y-73474808D01*
X142820857Y-73557728D01*
X142608342Y-73600000D01*
X142391658Y-73600000D01*
X142179143Y-73557728D01*
X141978957Y-73474808D01*
X141978956Y-73474808D01*
X141978955Y-73474807D01*
X141798791Y-73354425D01*
X141645575Y-73201209D01*
X141639491Y-73192103D01*
X141525192Y-73021043D01*
X141442272Y-72820857D01*
X141400000Y-72608342D01*
X141400000Y-72391658D01*
X141442272Y-72179143D01*
X141525192Y-71978957D01*
X141645574Y-71798792D01*
X141798792Y-71645574D01*
X141888262Y-71585792D01*
X141978955Y-71525193D01*
X141978957Y-71525192D01*
X142179143Y-71442272D01*
X142391658Y-71400000D01*
X142608342Y-71400000D01*
X142820857Y-71442272D01*
X142820857Y-71442272D01*
G37*
G36*
X122820857Y-71442272D02*
G01*
X123021043Y-71525192D01*
X123021045Y-71525193D01*
X123111738Y-71585792D01*
X123201208Y-71645574D01*
X123354426Y-71798792D01*
X123474808Y-71978957D01*
X123557728Y-72179143D01*
X123600000Y-72391658D01*
X123600000Y-72608342D01*
X123557728Y-72820857D01*
X123474808Y-73021043D01*
X123360510Y-73192103D01*
X123354425Y-73201209D01*
X123201209Y-73354425D01*
X123021045Y-73474807D01*
X123021044Y-73474808D01*
X123021043Y-73474808D01*
X122820857Y-73557728D01*
X122608342Y-73600000D01*
X122391658Y-73600000D01*
X122179143Y-73557728D01*
X121978957Y-73474808D01*
X121978956Y-73474808D01*
X121978955Y-73474807D01*
X121798791Y-73354425D01*
X121645575Y-73201209D01*
X121639491Y-73192103D01*
X121525192Y-73021043D01*
X121442272Y-72820857D01*
X121400000Y-72608342D01*
X121400000Y-72391658D01*
X121442272Y-72179143D01*
X121525192Y-71978957D01*
X121645574Y-71798792D01*
X121798792Y-71645574D01*
X121888262Y-71585792D01*
X121978955Y-71525193D01*
X121978957Y-71525192D01*
X122179143Y-71442272D01*
X122391658Y-71400000D01*
X122608342Y-71400000D01*
X122820857Y-71442272D01*
X122820857Y-71442272D01*
G37*
G36*
X102820857Y-71442272D02*
G01*
X103021043Y-71525192D01*
X103021045Y-71525193D01*
X103111738Y-71585792D01*
X103201208Y-71645574D01*
X103354426Y-71798792D01*
X103474808Y-71978957D01*
X103557728Y-72179143D01*
X103600000Y-72391658D01*
X103600000Y-72608342D01*
X103557728Y-72820857D01*
X103474808Y-73021043D01*
X103360510Y-73192103D01*
X103354425Y-73201209D01*
X103201209Y-73354425D01*
X103021045Y-73474807D01*
X103021044Y-73474808D01*
X103021043Y-73474808D01*
X102820857Y-73557728D01*
X102608342Y-73600000D01*
X102391658Y-73600000D01*
X102179143Y-73557728D01*
X101978957Y-73474808D01*
X101978956Y-73474808D01*
X101978955Y-73474807D01*
X101798791Y-73354425D01*
X101645575Y-73201209D01*
X101639491Y-73192103D01*
X101525192Y-73021043D01*
X101442272Y-72820857D01*
X101400000Y-72608342D01*
X101400000Y-72391658D01*
X101442272Y-72179143D01*
X101525192Y-71978957D01*
X101645574Y-71798792D01*
X101798792Y-71645574D01*
X101888262Y-71585792D01*
X101978955Y-71525193D01*
X101978957Y-71525192D01*
X102179143Y-71442272D01*
X102391658Y-71400000D01*
X102608342Y-71400000D01*
X102820857Y-71442272D01*
X102820857Y-71442272D01*
G37*
G36*
X162820857Y-71442272D02*
G01*
X163021043Y-71525192D01*
X163021045Y-71525193D01*
X163111738Y-71585792D01*
X163201208Y-71645574D01*
X163354426Y-71798792D01*
X163474808Y-71978957D01*
X163557728Y-72179143D01*
X163600000Y-72391658D01*
X163600000Y-72608342D01*
X163557728Y-72820857D01*
X163474808Y-73021043D01*
X163360510Y-73192103D01*
X163354425Y-73201209D01*
X163201209Y-73354425D01*
X163021045Y-73474807D01*
X163021044Y-73474808D01*
X163021043Y-73474808D01*
X162820857Y-73557728D01*
X162608342Y-73600000D01*
X162391658Y-73600000D01*
X162179143Y-73557728D01*
X161978957Y-73474808D01*
X161978956Y-73474808D01*
X161978955Y-73474807D01*
X161798791Y-73354425D01*
X161645575Y-73201209D01*
X161639491Y-73192103D01*
X161525192Y-73021043D01*
X161442272Y-72820857D01*
X161400000Y-72608342D01*
X161400000Y-72391658D01*
X161442272Y-72179143D01*
X161525192Y-71978957D01*
X161645574Y-71798792D01*
X161798792Y-71645574D01*
X161888262Y-71585792D01*
X161978955Y-71525193D01*
X161978957Y-71525192D01*
X162179143Y-71442272D01*
X162391658Y-71400000D01*
X162608342Y-71400000D01*
X162820857Y-71442272D01*
X162820857Y-71442272D01*
G37*
G36*
X102820857Y-68942272D02*
G01*
X103021043Y-69025192D01*
X103021045Y-69025193D01*
X103111738Y-69085792D01*
X103201208Y-69145574D01*
X103354426Y-69298792D01*
X103474808Y-69478957D01*
X103557728Y-69679143D01*
X103600000Y-69891658D01*
X103600000Y-70108342D01*
X103557728Y-70320857D01*
X103474808Y-70521043D01*
X103474807Y-70521045D01*
X103354425Y-70701209D01*
X103201209Y-70854425D01*
X103021045Y-70974807D01*
X103021044Y-70974808D01*
X103021043Y-70974808D01*
X102820857Y-71057728D01*
X102608342Y-71100000D01*
X102391658Y-71100000D01*
X102179143Y-71057728D01*
X101978957Y-70974808D01*
X101978956Y-70974808D01*
X101978955Y-70974807D01*
X101798791Y-70854425D01*
X101645575Y-70701209D01*
X101525193Y-70521045D01*
X101525192Y-70521043D01*
X101442272Y-70320857D01*
X101400000Y-70108342D01*
X101400000Y-69891658D01*
X101442272Y-69679143D01*
X101525192Y-69478957D01*
X101645574Y-69298792D01*
X101798792Y-69145574D01*
X101888262Y-69085792D01*
X101978955Y-69025193D01*
X101978957Y-69025192D01*
X102179143Y-68942272D01*
X102391658Y-68900000D01*
X102608342Y-68900000D01*
X102820857Y-68942272D01*
X102820857Y-68942272D01*
G37*
G36*
X142820857Y-68942272D02*
G01*
X143021043Y-69025192D01*
X143021045Y-69025193D01*
X143111738Y-69085792D01*
X143201208Y-69145574D01*
X143354426Y-69298792D01*
X143474808Y-69478957D01*
X143557728Y-69679143D01*
X143600000Y-69891658D01*
X143600000Y-70108342D01*
X143557728Y-70320857D01*
X143474808Y-70521043D01*
X143474807Y-70521045D01*
X143354425Y-70701209D01*
X143201209Y-70854425D01*
X143021045Y-70974807D01*
X143021044Y-70974808D01*
X143021043Y-70974808D01*
X142820857Y-71057728D01*
X142608342Y-71100000D01*
X142391658Y-71100000D01*
X142179143Y-71057728D01*
X141978957Y-70974808D01*
X141978956Y-70974808D01*
X141978955Y-70974807D01*
X141798791Y-70854425D01*
X141645575Y-70701209D01*
X141525193Y-70521045D01*
X141525192Y-70521043D01*
X141442272Y-70320857D01*
X141400000Y-70108342D01*
X141400000Y-69891658D01*
X141442272Y-69679143D01*
X141525192Y-69478957D01*
X141645574Y-69298792D01*
X141798792Y-69145574D01*
X141888262Y-69085792D01*
X141978955Y-69025193D01*
X141978957Y-69025192D01*
X142179143Y-68942272D01*
X142391658Y-68900000D01*
X142608342Y-68900000D01*
X142820857Y-68942272D01*
X142820857Y-68942272D01*
G37*
G36*
X122820857Y-68942272D02*
G01*
X123021043Y-69025192D01*
X123021045Y-69025193D01*
X123111738Y-69085792D01*
X123201208Y-69145574D01*
X123354426Y-69298792D01*
X123474808Y-69478957D01*
X123557728Y-69679143D01*
X123600000Y-69891658D01*
X123600000Y-70108342D01*
X123557728Y-70320857D01*
X123474808Y-70521043D01*
X123474807Y-70521045D01*
X123354425Y-70701209D01*
X123201209Y-70854425D01*
X123021045Y-70974807D01*
X123021044Y-70974808D01*
X123021043Y-70974808D01*
X122820857Y-71057728D01*
X122608342Y-71100000D01*
X122391658Y-71100000D01*
X122179143Y-71057728D01*
X121978957Y-70974808D01*
X121978956Y-70974808D01*
X121978955Y-70974807D01*
X121798791Y-70854425D01*
X121645575Y-70701209D01*
X121525193Y-70521045D01*
X121525192Y-70521043D01*
X121442272Y-70320857D01*
X121400000Y-70108342D01*
X121400000Y-69891658D01*
X121442272Y-69679143D01*
X121525192Y-69478957D01*
X121645574Y-69298792D01*
X121798792Y-69145574D01*
X121888262Y-69085792D01*
X121978955Y-69025193D01*
X121978957Y-69025192D01*
X122179143Y-68942272D01*
X122391658Y-68900000D01*
X122608342Y-68900000D01*
X122820857Y-68942272D01*
X122820857Y-68942272D01*
G37*
G36*
X162820857Y-68942272D02*
G01*
X163021043Y-69025192D01*
X163021045Y-69025193D01*
X163111738Y-69085792D01*
X163201208Y-69145574D01*
X163354426Y-69298792D01*
X163474808Y-69478957D01*
X163557728Y-69679143D01*
X163600000Y-69891658D01*
X163600000Y-70108342D01*
X163557728Y-70320857D01*
X163474808Y-70521043D01*
X163474807Y-70521045D01*
X163354425Y-70701209D01*
X163201209Y-70854425D01*
X163021045Y-70974807D01*
X163021044Y-70974808D01*
X163021043Y-70974808D01*
X162820857Y-71057728D01*
X162608342Y-71100000D01*
X162391658Y-71100000D01*
X162179143Y-71057728D01*
X161978957Y-70974808D01*
X161978956Y-70974808D01*
X161978955Y-70974807D01*
X161798791Y-70854425D01*
X161645575Y-70701209D01*
X161525193Y-70521045D01*
X161525192Y-70521043D01*
X161442272Y-70320857D01*
X161400000Y-70108342D01*
X161400000Y-69891658D01*
X161442272Y-69679143D01*
X161525192Y-69478957D01*
X161645574Y-69298792D01*
X161798792Y-69145574D01*
X161888262Y-69085792D01*
X161978955Y-69025193D01*
X161978957Y-69025192D01*
X162179143Y-68942272D01*
X162391658Y-68900000D01*
X162608342Y-68900000D01*
X162820857Y-68942272D01*
X162820857Y-68942272D01*
G37*
G36*
X142820857Y-66442272D02*
G01*
X143021043Y-66525192D01*
X143021045Y-66525193D01*
X143056727Y-66549035D01*
X143201208Y-66645574D01*
X143354426Y-66798792D01*
X143474808Y-66978957D01*
X143557728Y-67179143D01*
X143600000Y-67391658D01*
X143600000Y-67608342D01*
X143557728Y-67820857D01*
X143474808Y-68021043D01*
X143474807Y-68021045D01*
X143354425Y-68201209D01*
X143201209Y-68354425D01*
X143021045Y-68474807D01*
X143021044Y-68474808D01*
X143021043Y-68474808D01*
X142820857Y-68557728D01*
X142608342Y-68600000D01*
X142391658Y-68600000D01*
X142179143Y-68557728D01*
X141978957Y-68474808D01*
X141978956Y-68474808D01*
X141978955Y-68474807D01*
X141798791Y-68354425D01*
X141645575Y-68201209D01*
X141525193Y-68021045D01*
X141525192Y-68021043D01*
X141442272Y-67820857D01*
X141400000Y-67608342D01*
X141400000Y-67391658D01*
X141442272Y-67179143D01*
X141525192Y-66978957D01*
X141645574Y-66798792D01*
X141798792Y-66645574D01*
X141943273Y-66549035D01*
X141978955Y-66525193D01*
X141978957Y-66525192D01*
X142179143Y-66442272D01*
X142391658Y-66400000D01*
X142608342Y-66400000D01*
X142820857Y-66442272D01*
X142820857Y-66442272D01*
G37*
G36*
X162820857Y-66442272D02*
G01*
X163021043Y-66525192D01*
X163021045Y-66525193D01*
X163056727Y-66549035D01*
X163201208Y-66645574D01*
X163354426Y-66798792D01*
X163474808Y-66978957D01*
X163557728Y-67179143D01*
X163600000Y-67391658D01*
X163600000Y-67608342D01*
X163557728Y-67820857D01*
X163474808Y-68021043D01*
X163474807Y-68021045D01*
X163354425Y-68201209D01*
X163201209Y-68354425D01*
X163021045Y-68474807D01*
X163021044Y-68474808D01*
X163021043Y-68474808D01*
X162820857Y-68557728D01*
X162608342Y-68600000D01*
X162391658Y-68600000D01*
X162179143Y-68557728D01*
X161978957Y-68474808D01*
X161978956Y-68474808D01*
X161978955Y-68474807D01*
X161798791Y-68354425D01*
X161645575Y-68201209D01*
X161525193Y-68021045D01*
X161525192Y-68021043D01*
X161442272Y-67820857D01*
X161400000Y-67608342D01*
X161400000Y-67391658D01*
X161442272Y-67179143D01*
X161525192Y-66978957D01*
X161645574Y-66798792D01*
X161798792Y-66645574D01*
X161943273Y-66549035D01*
X161978955Y-66525193D01*
X161978957Y-66525192D01*
X162179143Y-66442272D01*
X162391658Y-66400000D01*
X162608342Y-66400000D01*
X162820857Y-66442272D01*
X162820857Y-66442272D01*
G37*
G36*
X122820857Y-66442272D02*
G01*
X123021043Y-66525192D01*
X123021045Y-66525193D01*
X123056727Y-66549035D01*
X123201208Y-66645574D01*
X123354426Y-66798792D01*
X123474808Y-66978957D01*
X123557728Y-67179143D01*
X123600000Y-67391658D01*
X123600000Y-67608342D01*
X123557728Y-67820857D01*
X123474808Y-68021043D01*
X123474807Y-68021045D01*
X123354425Y-68201209D01*
X123201209Y-68354425D01*
X123021045Y-68474807D01*
X123021044Y-68474808D01*
X123021043Y-68474808D01*
X122820857Y-68557728D01*
X122608342Y-68600000D01*
X122391658Y-68600000D01*
X122179143Y-68557728D01*
X121978957Y-68474808D01*
X121978956Y-68474808D01*
X121978955Y-68474807D01*
X121798791Y-68354425D01*
X121645575Y-68201209D01*
X121525193Y-68021045D01*
X121525192Y-68021043D01*
X121442272Y-67820857D01*
X121400000Y-67608342D01*
X121400000Y-67391658D01*
X121442272Y-67179143D01*
X121525192Y-66978957D01*
X121645574Y-66798792D01*
X121798792Y-66645574D01*
X121943273Y-66549035D01*
X121978955Y-66525193D01*
X121978957Y-66525192D01*
X122179143Y-66442272D01*
X122391658Y-66400000D01*
X122608342Y-66400000D01*
X122820857Y-66442272D01*
X122820857Y-66442272D01*
G37*
G36*
X102820857Y-66442272D02*
G01*
X103021043Y-66525192D01*
X103021045Y-66525193D01*
X103056727Y-66549035D01*
X103201208Y-66645574D01*
X103354426Y-66798792D01*
X103474808Y-66978957D01*
X103557728Y-67179143D01*
X103600000Y-67391658D01*
X103600000Y-67608342D01*
X103557728Y-67820857D01*
X103474808Y-68021043D01*
X103474807Y-68021045D01*
X103354425Y-68201209D01*
X103201209Y-68354425D01*
X103021045Y-68474807D01*
X103021044Y-68474808D01*
X103021043Y-68474808D01*
X102820857Y-68557728D01*
X102608342Y-68600000D01*
X102391658Y-68600000D01*
X102179143Y-68557728D01*
X101978957Y-68474808D01*
X101978956Y-68474808D01*
X101978955Y-68474807D01*
X101798791Y-68354425D01*
X101645575Y-68201209D01*
X101525193Y-68021045D01*
X101525192Y-68021043D01*
X101442272Y-67820857D01*
X101400000Y-67608342D01*
X101400000Y-67391658D01*
X101442272Y-67179143D01*
X101525192Y-66978957D01*
X101645574Y-66798792D01*
X101798792Y-66645574D01*
X101943273Y-66549035D01*
X101978955Y-66525193D01*
X101978957Y-66525192D01*
X102179143Y-66442272D01*
X102391658Y-66400000D01*
X102608342Y-66400000D01*
X102820857Y-66442272D01*
X102820857Y-66442272D01*
G37*
G36*
X150166759Y-63908199D02*
G01*
X150333258Y-63924598D01*
X150653709Y-64021806D01*
X150653712Y-64021807D01*
X150949035Y-64179660D01*
X151207897Y-64392103D01*
X151420340Y-64650965D01*
X151578193Y-64946288D01*
X151578194Y-64946291D01*
X151675402Y-65266742D01*
X151708225Y-65600000D01*
X151675402Y-65933258D01*
X151578194Y-66253709D01*
X151578193Y-66253712D01*
X151420340Y-66549035D01*
X151420338Y-66549038D01*
X151420337Y-66549039D01*
X151207897Y-66807897D01*
X150999461Y-66978957D01*
X150949035Y-67020340D01*
X150653712Y-67178193D01*
X150653709Y-67178194D01*
X150333258Y-67275402D01*
X150166759Y-67291801D01*
X150083511Y-67300000D01*
X148916489Y-67300000D01*
X148833241Y-67291801D01*
X148666742Y-67275402D01*
X148346291Y-67178194D01*
X148346288Y-67178193D01*
X148050965Y-67020340D01*
X148000540Y-66978957D01*
X147792103Y-66807897D01*
X147579663Y-66549039D01*
X147579662Y-66549038D01*
X147579660Y-66549035D01*
X147421807Y-66253712D01*
X147421806Y-66253709D01*
X147324598Y-65933258D01*
X147291775Y-65600000D01*
X147324598Y-65266742D01*
X147421806Y-64946291D01*
X147421807Y-64946288D01*
X147579660Y-64650965D01*
X147792103Y-64392103D01*
X148050965Y-64179660D01*
X148346288Y-64021807D01*
X148346291Y-64021806D01*
X148666742Y-63924598D01*
X148833241Y-63908199D01*
X148916489Y-63900000D01*
X150083511Y-63900000D01*
X150166759Y-63908199D01*
X150166759Y-63908199D01*
G37*
G36*
X110166759Y-63908199D02*
G01*
X110333258Y-63924598D01*
X110653709Y-64021806D01*
X110653712Y-64021807D01*
X110949035Y-64179660D01*
X111207897Y-64392103D01*
X111420340Y-64650965D01*
X111578193Y-64946288D01*
X111578194Y-64946291D01*
X111675402Y-65266742D01*
X111708225Y-65600000D01*
X111675402Y-65933258D01*
X111578194Y-66253709D01*
X111578193Y-66253712D01*
X111420340Y-66549035D01*
X111420338Y-66549038D01*
X111420337Y-66549039D01*
X111207897Y-66807897D01*
X110999461Y-66978957D01*
X110949035Y-67020340D01*
X110653712Y-67178193D01*
X110653709Y-67178194D01*
X110333258Y-67275402D01*
X110166759Y-67291801D01*
X110083511Y-67300000D01*
X108916489Y-67300000D01*
X108833241Y-67291801D01*
X108666742Y-67275402D01*
X108346291Y-67178194D01*
X108346288Y-67178193D01*
X108050965Y-67020340D01*
X108000540Y-66978957D01*
X107792103Y-66807897D01*
X107579663Y-66549039D01*
X107579662Y-66549038D01*
X107579660Y-66549035D01*
X107421807Y-66253712D01*
X107421806Y-66253709D01*
X107324598Y-65933258D01*
X107291775Y-65600000D01*
X107324598Y-65266742D01*
X107421806Y-64946291D01*
X107421807Y-64946288D01*
X107579660Y-64650965D01*
X107792103Y-64392103D01*
X108050965Y-64179660D01*
X108346288Y-64021807D01*
X108346291Y-64021806D01*
X108666742Y-63924598D01*
X108833241Y-63908199D01*
X108916489Y-63900000D01*
X110083511Y-63900000D01*
X110166759Y-63908199D01*
X110166759Y-63908199D01*
G37*
G36*
X130166759Y-63908199D02*
G01*
X130333258Y-63924598D01*
X130653709Y-64021806D01*
X130653712Y-64021807D01*
X130949035Y-64179660D01*
X131207897Y-64392103D01*
X131420340Y-64650965D01*
X131578193Y-64946288D01*
X131578194Y-64946291D01*
X131675402Y-65266742D01*
X131708225Y-65600000D01*
X131675402Y-65933258D01*
X131578194Y-66253709D01*
X131578193Y-66253712D01*
X131420340Y-66549035D01*
X131420338Y-66549038D01*
X131420337Y-66549039D01*
X131207897Y-66807897D01*
X130999461Y-66978957D01*
X130949035Y-67020340D01*
X130653712Y-67178193D01*
X130653709Y-67178194D01*
X130333258Y-67275402D01*
X130166759Y-67291801D01*
X130083511Y-67300000D01*
X128916489Y-67300000D01*
X128833241Y-67291801D01*
X128666742Y-67275402D01*
X128346291Y-67178194D01*
X128346288Y-67178193D01*
X128050965Y-67020340D01*
X128000540Y-66978957D01*
X127792103Y-66807897D01*
X127579663Y-66549039D01*
X127579662Y-66549038D01*
X127579660Y-66549035D01*
X127421807Y-66253712D01*
X127421806Y-66253709D01*
X127324598Y-65933258D01*
X127291775Y-65600000D01*
X127324598Y-65266742D01*
X127421806Y-64946291D01*
X127421807Y-64946288D01*
X127579660Y-64650965D01*
X127792103Y-64392103D01*
X128050965Y-64179660D01*
X128346288Y-64021807D01*
X128346291Y-64021806D01*
X128666742Y-63924598D01*
X128833241Y-63908199D01*
X128916489Y-63900000D01*
X130083511Y-63900000D01*
X130166759Y-63908199D01*
X130166759Y-63908199D01*
G37*
G36*
X170166759Y-63908199D02*
G01*
X170333258Y-63924598D01*
X170653709Y-64021806D01*
X170653712Y-64021807D01*
X170949035Y-64179660D01*
X171207897Y-64392103D01*
X171420340Y-64650965D01*
X171578193Y-64946288D01*
X171578194Y-64946291D01*
X171675402Y-65266742D01*
X171708225Y-65600000D01*
X171675402Y-65933258D01*
X171578194Y-66253709D01*
X171578193Y-66253712D01*
X171420340Y-66549035D01*
X171420338Y-66549038D01*
X171420337Y-66549039D01*
X171207897Y-66807897D01*
X170999461Y-66978957D01*
X170949035Y-67020340D01*
X170653712Y-67178193D01*
X170653709Y-67178194D01*
X170333258Y-67275402D01*
X170166759Y-67291801D01*
X170083511Y-67300000D01*
X168916489Y-67300000D01*
X168833241Y-67291801D01*
X168666742Y-67275402D01*
X168346291Y-67178194D01*
X168346288Y-67178193D01*
X168050965Y-67020340D01*
X168000540Y-66978957D01*
X167792103Y-66807897D01*
X167579663Y-66549039D01*
X167579662Y-66549038D01*
X167579660Y-66549035D01*
X167421807Y-66253712D01*
X167421806Y-66253709D01*
X167324598Y-65933258D01*
X167291775Y-65600000D01*
X167324598Y-65266742D01*
X167421806Y-64946291D01*
X167421807Y-64946288D01*
X167579660Y-64650965D01*
X167792103Y-64392103D01*
X168050965Y-64179660D01*
X168346288Y-64021807D01*
X168346291Y-64021806D01*
X168666742Y-63924598D01*
X168833241Y-63908199D01*
X168916489Y-63900000D01*
X170083511Y-63900000D01*
X170166759Y-63908199D01*
X170166759Y-63908199D01*
G37*
G36*
X177628707Y-57037596D02*
G01*
X177705836Y-57045193D01*
X177903762Y-57105233D01*
X177903765Y-57105234D01*
X178086170Y-57202732D01*
X178246055Y-57333945D01*
X178377268Y-57493830D01*
X178474766Y-57676235D01*
X178474767Y-57676238D01*
X178534807Y-57874164D01*
X178555080Y-58080000D01*
X178534807Y-58285836D01*
X178474767Y-58483762D01*
X178474766Y-58483765D01*
X178377268Y-58666170D01*
X178246055Y-58826055D01*
X178086170Y-58957268D01*
X177903765Y-59054766D01*
X177903762Y-59054767D01*
X177705836Y-59114807D01*
X177628707Y-59122403D01*
X177551580Y-59130000D01*
X177448420Y-59130000D01*
X177371293Y-59122403D01*
X177294164Y-59114807D01*
X177096238Y-59054767D01*
X177096235Y-59054766D01*
X176913830Y-58957268D01*
X176753945Y-58826055D01*
X176622732Y-58666170D01*
X176525234Y-58483765D01*
X176525233Y-58483762D01*
X176465193Y-58285836D01*
X176444920Y-58080000D01*
X176465193Y-57874164D01*
X176525233Y-57676238D01*
X176525234Y-57676235D01*
X176622732Y-57493830D01*
X176753945Y-57333945D01*
X176913830Y-57202732D01*
X177096235Y-57105234D01*
X177096238Y-57105233D01*
X177294164Y-57045193D01*
X177371293Y-57037596D01*
X177448420Y-57030000D01*
X177551580Y-57030000D01*
X177628707Y-57037596D01*
X177628707Y-57037596D01*
G37*
G36*
X102628707Y-56957597D02*
G01*
X102705836Y-56965193D01*
X102903762Y-57025233D01*
X102903765Y-57025234D01*
X103086170Y-57122732D01*
X103246055Y-57253945D01*
X103377268Y-57413830D01*
X103474766Y-57596235D01*
X103474767Y-57596238D01*
X103534807Y-57794164D01*
X103555080Y-58000000D01*
X103534807Y-58205836D01*
X103510540Y-58285834D01*
X103474766Y-58403765D01*
X103377268Y-58586170D01*
X103246055Y-58746055D01*
X103086170Y-58877268D01*
X102903765Y-58974766D01*
X102903762Y-58974767D01*
X102705836Y-59034807D01*
X102628707Y-59042404D01*
X102551580Y-59050000D01*
X102448420Y-59050000D01*
X102371293Y-59042404D01*
X102294164Y-59034807D01*
X102096238Y-58974767D01*
X102096235Y-58974766D01*
X101913830Y-58877268D01*
X101753945Y-58746055D01*
X101622732Y-58586170D01*
X101525234Y-58403765D01*
X101489460Y-58285834D01*
X101465193Y-58205836D01*
X101444920Y-58000000D01*
X101465193Y-57794164D01*
X101525233Y-57596238D01*
X101525234Y-57596235D01*
X101622732Y-57413830D01*
X101753945Y-57253945D01*
X101913830Y-57122732D01*
X102096235Y-57025234D01*
X102096238Y-57025233D01*
X102294164Y-56965193D01*
X102371293Y-56957597D01*
X102448420Y-56950000D01*
X102551580Y-56950000D01*
X102628707Y-56957597D01*
X102628707Y-56957597D01*
G37*
G36*
X129600000Y-56600000D02*
G01*
X127400000Y-56600000D01*
X127400000Y-54400000D01*
X129600000Y-54400000D01*
X129600000Y-56600000D01*
X129600000Y-56600000D01*
G37*
G36*
X149600000Y-56600000D02*
G01*
X147400000Y-56600000D01*
X147400000Y-54400000D01*
X149600000Y-54400000D01*
X149600000Y-56600000D01*
X149600000Y-56600000D01*
G37*
G36*
X171360857Y-54442272D02*
G01*
X171512761Y-54505193D01*
X171561045Y-54525193D01*
X171651738Y-54585792D01*
X171741208Y-54645574D01*
X171894426Y-54798792D01*
X172014808Y-54978957D01*
X172097728Y-55179143D01*
X172140000Y-55391658D01*
X172140000Y-55608342D01*
X172097728Y-55820857D01*
X172014808Y-56021043D01*
X172014807Y-56021045D01*
X171894425Y-56201209D01*
X171741209Y-56354425D01*
X171561045Y-56474807D01*
X171561044Y-56474808D01*
X171561043Y-56474808D01*
X171360857Y-56557728D01*
X171148342Y-56600000D01*
X170931658Y-56600000D01*
X170719143Y-56557728D01*
X170518957Y-56474808D01*
X170518956Y-56474808D01*
X170518955Y-56474807D01*
X170338791Y-56354425D01*
X170185575Y-56201209D01*
X170065193Y-56021045D01*
X170065192Y-56021043D01*
X169982272Y-55820857D01*
X169940000Y-55608342D01*
X169940000Y-55391658D01*
X169982272Y-55179143D01*
X170065192Y-54978957D01*
X170185574Y-54798792D01*
X170338792Y-54645574D01*
X170428262Y-54585792D01*
X170518955Y-54525193D01*
X170567239Y-54505193D01*
X170719143Y-54442272D01*
X170931658Y-54400000D01*
X171148342Y-54400000D01*
X171360857Y-54442272D01*
X171360857Y-54442272D01*
G37*
G36*
X131360857Y-54442272D02*
G01*
X131512761Y-54505193D01*
X131561045Y-54525193D01*
X131651738Y-54585792D01*
X131741208Y-54645574D01*
X131894426Y-54798792D01*
X132014808Y-54978957D01*
X132097728Y-55179143D01*
X132140000Y-55391658D01*
X132140000Y-55608342D01*
X132097728Y-55820857D01*
X132014808Y-56021043D01*
X132014807Y-56021045D01*
X131894425Y-56201209D01*
X131741209Y-56354425D01*
X131561045Y-56474807D01*
X131561044Y-56474808D01*
X131561043Y-56474808D01*
X131360857Y-56557728D01*
X131148342Y-56600000D01*
X130931658Y-56600000D01*
X130719143Y-56557728D01*
X130518957Y-56474808D01*
X130518956Y-56474808D01*
X130518955Y-56474807D01*
X130338791Y-56354425D01*
X130185575Y-56201209D01*
X130065193Y-56021045D01*
X130065192Y-56021043D01*
X129982272Y-55820857D01*
X129940000Y-55608342D01*
X129940000Y-55391658D01*
X129982272Y-55179143D01*
X130065192Y-54978957D01*
X130185574Y-54798792D01*
X130338792Y-54645574D01*
X130428262Y-54585792D01*
X130518955Y-54525193D01*
X130567239Y-54505193D01*
X130719143Y-54442272D01*
X130931658Y-54400000D01*
X131148342Y-54400000D01*
X131360857Y-54442272D01*
X131360857Y-54442272D01*
G37*
G36*
X111360857Y-54442272D02*
G01*
X111512761Y-54505193D01*
X111561045Y-54525193D01*
X111651738Y-54585792D01*
X111741208Y-54645574D01*
X111894426Y-54798792D01*
X112014808Y-54978957D01*
X112097728Y-55179143D01*
X112140000Y-55391658D01*
X112140000Y-55608342D01*
X112097728Y-55820857D01*
X112014808Y-56021043D01*
X112014807Y-56021045D01*
X111894425Y-56201209D01*
X111741209Y-56354425D01*
X111561045Y-56474807D01*
X111561044Y-56474808D01*
X111561043Y-56474808D01*
X111360857Y-56557728D01*
X111148342Y-56600000D01*
X110931658Y-56600000D01*
X110719143Y-56557728D01*
X110518957Y-56474808D01*
X110518956Y-56474808D01*
X110518955Y-56474807D01*
X110338791Y-56354425D01*
X110185575Y-56201209D01*
X110065193Y-56021045D01*
X110065192Y-56021043D01*
X109982272Y-55820857D01*
X109940000Y-55608342D01*
X109940000Y-55391658D01*
X109982272Y-55179143D01*
X110065192Y-54978957D01*
X110185574Y-54798792D01*
X110338792Y-54645574D01*
X110428262Y-54585792D01*
X110518955Y-54525193D01*
X110567239Y-54505193D01*
X110719143Y-54442272D01*
X110931658Y-54400000D01*
X111148342Y-54400000D01*
X111360857Y-54442272D01*
X111360857Y-54442272D01*
G37*
G36*
X109600000Y-56600000D02*
G01*
X107400000Y-56600000D01*
X107400000Y-54400000D01*
X109600000Y-54400000D01*
X109600000Y-56600000D01*
X109600000Y-56600000D01*
G37*
G36*
X151360857Y-54442272D02*
G01*
X151512761Y-54505193D01*
X151561045Y-54525193D01*
X151651738Y-54585792D01*
X151741208Y-54645574D01*
X151894426Y-54798792D01*
X152014808Y-54978957D01*
X152097728Y-55179143D01*
X152140000Y-55391658D01*
X152140000Y-55608342D01*
X152097728Y-55820857D01*
X152014808Y-56021043D01*
X152014807Y-56021045D01*
X151894425Y-56201209D01*
X151741209Y-56354425D01*
X151561045Y-56474807D01*
X151561044Y-56474808D01*
X151561043Y-56474808D01*
X151360857Y-56557728D01*
X151148342Y-56600000D01*
X150931658Y-56600000D01*
X150719143Y-56557728D01*
X150518957Y-56474808D01*
X150518956Y-56474808D01*
X150518955Y-56474807D01*
X150338791Y-56354425D01*
X150185575Y-56201209D01*
X150065193Y-56021045D01*
X150065192Y-56021043D01*
X149982272Y-55820857D01*
X149940000Y-55608342D01*
X149940000Y-55391658D01*
X149982272Y-55179143D01*
X150065192Y-54978957D01*
X150185574Y-54798792D01*
X150338792Y-54645574D01*
X150428262Y-54585792D01*
X150518955Y-54525193D01*
X150567239Y-54505193D01*
X150719143Y-54442272D01*
X150931658Y-54400000D01*
X151148342Y-54400000D01*
X151360857Y-54442272D01*
X151360857Y-54442272D01*
G37*
G36*
X169600000Y-56600000D02*
G01*
X167400000Y-56600000D01*
X167400000Y-54400000D01*
X169600000Y-54400000D01*
X169600000Y-56600000D01*
X169600000Y-56600000D01*
G37*
G36*
X177628707Y-54497596D02*
G01*
X177705836Y-54505193D01*
X177903762Y-54565233D01*
X177903765Y-54565234D01*
X178086170Y-54662732D01*
X178246055Y-54793945D01*
X178377268Y-54953830D01*
X178474766Y-55136235D01*
X178474767Y-55136238D01*
X178534807Y-55334164D01*
X178555080Y-55540000D01*
X178534807Y-55745836D01*
X178474767Y-55943762D01*
X178474766Y-55943765D01*
X178377268Y-56126170D01*
X178246055Y-56286055D01*
X178086170Y-56417268D01*
X177903765Y-56514766D01*
X177903762Y-56514767D01*
X177705836Y-56574807D01*
X177628707Y-56582403D01*
X177551580Y-56590000D01*
X177448420Y-56590000D01*
X177371293Y-56582403D01*
X177294164Y-56574807D01*
X177096238Y-56514767D01*
X177096235Y-56514766D01*
X176913830Y-56417268D01*
X176753945Y-56286055D01*
X176622732Y-56126170D01*
X176525234Y-55943765D01*
X176525233Y-55943762D01*
X176465193Y-55745836D01*
X176444920Y-55540000D01*
X176465193Y-55334164D01*
X176525233Y-55136238D01*
X176525234Y-55136235D01*
X176622732Y-54953830D01*
X176753945Y-54793945D01*
X176913830Y-54662732D01*
X177096235Y-54565234D01*
X177096238Y-54565233D01*
X177294164Y-54505193D01*
X177371293Y-54497596D01*
X177448420Y-54490000D01*
X177551580Y-54490000D01*
X177628707Y-54497596D01*
X177628707Y-54497596D01*
G37*
G36*
X102628707Y-54417597D02*
G01*
X102705836Y-54425193D01*
X102903762Y-54485233D01*
X102903765Y-54485234D01*
X103086170Y-54582732D01*
X103246055Y-54713945D01*
X103377268Y-54873830D01*
X103474766Y-55056235D01*
X103474767Y-55056238D01*
X103534807Y-55254164D01*
X103555080Y-55460000D01*
X103534807Y-55665836D01*
X103510540Y-55745834D01*
X103474766Y-55863765D01*
X103377268Y-56046170D01*
X103246055Y-56206055D01*
X103086170Y-56337268D01*
X102903765Y-56434766D01*
X102903762Y-56434767D01*
X102705836Y-56494807D01*
X102628707Y-56502403D01*
X102551580Y-56510000D01*
X102448420Y-56510000D01*
X102371293Y-56502403D01*
X102294164Y-56494807D01*
X102096238Y-56434767D01*
X102096235Y-56434766D01*
X101913830Y-56337268D01*
X101753945Y-56206055D01*
X101622732Y-56046170D01*
X101525234Y-55863765D01*
X101489460Y-55745834D01*
X101465193Y-55665836D01*
X101444920Y-55460000D01*
X101465193Y-55254164D01*
X101525233Y-55056238D01*
X101525234Y-55056235D01*
X101622732Y-54873830D01*
X101753945Y-54713945D01*
X101913830Y-54582732D01*
X102096235Y-54485234D01*
X102096238Y-54485233D01*
X102294164Y-54425193D01*
X102371293Y-54417597D01*
X102448420Y-54410000D01*
X102551580Y-54410000D01*
X102628707Y-54417597D01*
X102628707Y-54417597D01*
G37*
G36*
X178550000Y-54050000D02*
G01*
X176450000Y-54050000D01*
X176450000Y-51950000D01*
X178550000Y-51950000D01*
X178550000Y-54050000D01*
X178550000Y-54050000D01*
G37*
G36*
X103550000Y-53970000D02*
G01*
X101450000Y-53970000D01*
X101450000Y-51870000D01*
X103550000Y-51870000D01*
X103550000Y-53970000D01*
X103550000Y-53970000D01*
G37*
M02*
